G04 #@! TF.GenerationSoftware,KiCad,Pcbnew,(5.1.2-1)-1*
G04 #@! TF.CreationDate,2019-12-01T18:05:27-08:00*
G04 #@! TF.ProjectId,RaceOn-PiHAT,52616365-4f6e-42d5-9069-4841542e6b69,1*
G04 #@! TF.SameCoordinates,Original*
G04 #@! TF.FileFunction,Soldermask,Bot*
G04 #@! TF.FilePolarity,Negative*
%FSLAX46Y46*%
G04 Gerber Fmt 4.6, Leading zero omitted, Abs format (unit mm)*
G04 Created by KiCad (PCBNEW (5.1.2-1)-1) date 2019-12-01 18:05:27*
%MOMM*%
%LPD*%
G04 APERTURE LIST*
%ADD10C,0.100000*%
G04 APERTURE END LIST*
D10*
G36*
X179433404Y-111672974D02*
G01*
X180015767Y-111914196D01*
X180015768Y-111914197D01*
X180539881Y-112264398D01*
X180985602Y-112710119D01*
X181219599Y-113060321D01*
X181335804Y-113234233D01*
X181577026Y-113816596D01*
X181700000Y-114434826D01*
X181700000Y-115065174D01*
X181577026Y-115683404D01*
X181335804Y-116265767D01*
X181335803Y-116265768D01*
X180985602Y-116789881D01*
X180539881Y-117235602D01*
X180189679Y-117469599D01*
X180015767Y-117585804D01*
X179433404Y-117827026D01*
X178815174Y-117950000D01*
X178184826Y-117950000D01*
X177566596Y-117827026D01*
X176984233Y-117585804D01*
X176810321Y-117469599D01*
X176460119Y-117235602D01*
X176014398Y-116789881D01*
X175664197Y-116265768D01*
X175664196Y-116265767D01*
X175422974Y-115683404D01*
X175300000Y-115065174D01*
X175300000Y-114434826D01*
X175422974Y-113816596D01*
X175664196Y-113234233D01*
X175780401Y-113060321D01*
X176014398Y-112710119D01*
X176460119Y-112264398D01*
X176984232Y-111914197D01*
X176984233Y-111914196D01*
X177566596Y-111672974D01*
X178184826Y-111550000D01*
X178815174Y-111550000D01*
X179433404Y-111672974D01*
X179433404Y-111672974D01*
G37*
G36*
X121433404Y-111672974D02*
G01*
X122015767Y-111914196D01*
X122015768Y-111914197D01*
X122539881Y-112264398D01*
X122985602Y-112710119D01*
X123219599Y-113060321D01*
X123335804Y-113234233D01*
X123577026Y-113816596D01*
X123700000Y-114434826D01*
X123700000Y-115065174D01*
X123577026Y-115683404D01*
X123335804Y-116265767D01*
X123335803Y-116265768D01*
X122985602Y-116789881D01*
X122539881Y-117235602D01*
X122189679Y-117469599D01*
X122015767Y-117585804D01*
X121433404Y-117827026D01*
X120815174Y-117950000D01*
X120184826Y-117950000D01*
X119566596Y-117827026D01*
X118984233Y-117585804D01*
X118810321Y-117469599D01*
X118460119Y-117235602D01*
X118014398Y-116789881D01*
X117664197Y-116265768D01*
X117664196Y-116265767D01*
X117422974Y-115683404D01*
X117300000Y-115065174D01*
X117300000Y-114434826D01*
X117422974Y-113816596D01*
X117664196Y-113234233D01*
X117780401Y-113060321D01*
X118014398Y-112710119D01*
X118460119Y-112264398D01*
X118984232Y-111914197D01*
X118984233Y-111914196D01*
X119566596Y-111672974D01*
X120184826Y-111550000D01*
X120815174Y-111550000D01*
X121433404Y-111672974D01*
X121433404Y-111672974D01*
G37*
G36*
X121373126Y-106626900D02*
G01*
X121508365Y-106653801D01*
X121763149Y-106759336D01*
X121992448Y-106912549D01*
X122187451Y-107107552D01*
X122340664Y-107336851D01*
X122446199Y-107591635D01*
X122500000Y-107862112D01*
X122500000Y-108137888D01*
X122446199Y-108408365D01*
X122340664Y-108663149D01*
X122187451Y-108892448D01*
X121992448Y-109087451D01*
X121763149Y-109240664D01*
X121508365Y-109346199D01*
X121373127Y-109373099D01*
X121237889Y-109400000D01*
X120962111Y-109400000D01*
X120826873Y-109373099D01*
X120691635Y-109346199D01*
X120436851Y-109240664D01*
X120207552Y-109087451D01*
X120012549Y-108892448D01*
X119859336Y-108663149D01*
X119753801Y-108408365D01*
X119700000Y-108137888D01*
X119700000Y-107862112D01*
X119753801Y-107591635D01*
X119859336Y-107336851D01*
X120012549Y-107107552D01*
X120207552Y-106912549D01*
X120436851Y-106759336D01*
X120691635Y-106653801D01*
X120826873Y-106626901D01*
X120962111Y-106600000D01*
X121237889Y-106600000D01*
X121373126Y-106626900D01*
X121373126Y-106626900D01*
G37*
G36*
X179145000Y-109033000D02*
G01*
X177355000Y-109033000D01*
X177355000Y-107243000D01*
X179145000Y-107243000D01*
X179145000Y-109033000D01*
X179145000Y-109033000D01*
G37*
G36*
X176262199Y-103738717D02*
G01*
X176274450Y-103739319D01*
X176292869Y-103739319D01*
X176324754Y-103742459D01*
X176408839Y-103759185D01*
X176439505Y-103768487D01*
X176518703Y-103801291D01*
X176546965Y-103816398D01*
X176618256Y-103864033D01*
X176643014Y-103884352D01*
X176703648Y-103944986D01*
X176723967Y-103969744D01*
X176771602Y-104041035D01*
X176786709Y-104069297D01*
X176819513Y-104148495D01*
X176828815Y-104179161D01*
X176845541Y-104263246D01*
X176848681Y-104295131D01*
X176848681Y-104313550D01*
X176849283Y-104325801D01*
X176851089Y-104344139D01*
X176851089Y-104881863D01*
X176849229Y-104900751D01*
X176849229Y-104925255D01*
X176850000Y-104929131D01*
X176850000Y-106359557D01*
X176849229Y-106375249D01*
X176851089Y-106394137D01*
X176851089Y-106931862D01*
X176849283Y-106950199D01*
X176848681Y-106962450D01*
X176848681Y-106980869D01*
X176845541Y-107012754D01*
X176828815Y-107096839D01*
X176819513Y-107127505D01*
X176786709Y-107206703D01*
X176771602Y-107234965D01*
X176723967Y-107306256D01*
X176703648Y-107331014D01*
X176643014Y-107391648D01*
X176618256Y-107411967D01*
X176546965Y-107459602D01*
X176518703Y-107474709D01*
X176439505Y-107507513D01*
X176408839Y-107516815D01*
X176324754Y-107533541D01*
X176292869Y-107536681D01*
X176274450Y-107536681D01*
X176262199Y-107537283D01*
X176243862Y-107539089D01*
X175756138Y-107539089D01*
X175737801Y-107537283D01*
X175725550Y-107536681D01*
X175707131Y-107536681D01*
X175675246Y-107533541D01*
X175591161Y-107516815D01*
X175560495Y-107507513D01*
X175481297Y-107474709D01*
X175453035Y-107459602D01*
X175381744Y-107411967D01*
X175356986Y-107391648D01*
X175296352Y-107331014D01*
X175276033Y-107306256D01*
X175228398Y-107234965D01*
X175213291Y-107206703D01*
X175180487Y-107127505D01*
X175171185Y-107096839D01*
X175154459Y-107012754D01*
X175151319Y-106980869D01*
X175151319Y-106962450D01*
X175150717Y-106950199D01*
X175148911Y-106931862D01*
X175148911Y-106394137D01*
X175150771Y-106375249D01*
X175150771Y-106350745D01*
X175150000Y-106346869D01*
X175150000Y-104916443D01*
X175150771Y-104900751D01*
X175148911Y-104881863D01*
X175148911Y-104344139D01*
X175150717Y-104325801D01*
X175151319Y-104313550D01*
X175151319Y-104295131D01*
X175154459Y-104263246D01*
X175171185Y-104179161D01*
X175180487Y-104148495D01*
X175213291Y-104069297D01*
X175228398Y-104041035D01*
X175276033Y-103969744D01*
X175296352Y-103944986D01*
X175356986Y-103884352D01*
X175381744Y-103864033D01*
X175453035Y-103816398D01*
X175481297Y-103801291D01*
X175560495Y-103768487D01*
X175591161Y-103759185D01*
X175675246Y-103742459D01*
X175707131Y-103739319D01*
X175725550Y-103739319D01*
X175737801Y-103738717D01*
X175756139Y-103736911D01*
X176243861Y-103736911D01*
X176262199Y-103738717D01*
X176262199Y-103738717D01*
G37*
G36*
X178424606Y-104720197D02*
G01*
X178511062Y-104737394D01*
X178673942Y-104804861D01*
X178820530Y-104902808D01*
X178945192Y-105027470D01*
X179043139Y-105174058D01*
X179110606Y-105336938D01*
X179145000Y-105509850D01*
X179145000Y-105686150D01*
X179110606Y-105859062D01*
X179043139Y-106021942D01*
X178945192Y-106168530D01*
X178820530Y-106293192D01*
X178673942Y-106391139D01*
X178511062Y-106458606D01*
X178424606Y-106475803D01*
X178338151Y-106493000D01*
X178161849Y-106493000D01*
X178075394Y-106475803D01*
X177988938Y-106458606D01*
X177826058Y-106391139D01*
X177679470Y-106293192D01*
X177554808Y-106168530D01*
X177456861Y-106021942D01*
X177389394Y-105859062D01*
X177355000Y-105686150D01*
X177355000Y-105509850D01*
X177389394Y-105336938D01*
X177456861Y-105174058D01*
X177554808Y-105027470D01*
X177679470Y-104902808D01*
X177826058Y-104804861D01*
X177988938Y-104737394D01*
X178075394Y-104720197D01*
X178161849Y-104703000D01*
X178338151Y-104703000D01*
X178424606Y-104720197D01*
X178424606Y-104720197D01*
G37*
G36*
X122500000Y-104400000D02*
G01*
X119700000Y-104400000D01*
X119700000Y-101600000D01*
X122500000Y-101600000D01*
X122500000Y-104400000D01*
X122500000Y-104400000D01*
G37*
G36*
X178424606Y-102180197D02*
G01*
X178511062Y-102197394D01*
X178673942Y-102264861D01*
X178820530Y-102362808D01*
X178945192Y-102487470D01*
X179043139Y-102634058D01*
X179110606Y-102796938D01*
X179145000Y-102969850D01*
X179145000Y-103146150D01*
X179110606Y-103319062D01*
X179043139Y-103481942D01*
X178945192Y-103628530D01*
X178820530Y-103753192D01*
X178673942Y-103851139D01*
X178511062Y-103918606D01*
X178424606Y-103935803D01*
X178338151Y-103953000D01*
X178161849Y-103953000D01*
X178075394Y-103935803D01*
X177988938Y-103918606D01*
X177826058Y-103851139D01*
X177679470Y-103753192D01*
X177554808Y-103628530D01*
X177456861Y-103481942D01*
X177389394Y-103319062D01*
X177355000Y-103146150D01*
X177355000Y-102969850D01*
X177389394Y-102796938D01*
X177456861Y-102634058D01*
X177554808Y-102487470D01*
X177679470Y-102362808D01*
X177826058Y-102264861D01*
X177988938Y-102197394D01*
X178075394Y-102180197D01*
X178161849Y-102163000D01*
X178338151Y-102163000D01*
X178424606Y-102180197D01*
X178424606Y-102180197D01*
G37*
G36*
X122050000Y-97950000D02*
G01*
X120350000Y-97950000D01*
X120350000Y-95450000D01*
X122050000Y-95450000D01*
X122050000Y-97950000D01*
X122050000Y-97950000D01*
G37*
G36*
X119450000Y-97950000D02*
G01*
X117750000Y-97950000D01*
X117750000Y-95450000D01*
X119450000Y-95450000D01*
X119450000Y-97950000D01*
X119450000Y-97950000D01*
G37*
G36*
X180167935Y-90392664D02*
G01*
X180322624Y-90456739D01*
X180322626Y-90456740D01*
X180461844Y-90549762D01*
X180580238Y-90668156D01*
X180673260Y-90807374D01*
X180673261Y-90807376D01*
X180737336Y-90962065D01*
X180770000Y-91126281D01*
X180770000Y-91293719D01*
X180737336Y-91457935D01*
X180673261Y-91612624D01*
X180673260Y-91612626D01*
X180580238Y-91751844D01*
X180461844Y-91870238D01*
X180322626Y-91963260D01*
X180322625Y-91963261D01*
X180322624Y-91963261D01*
X180167935Y-92027336D01*
X180003719Y-92060000D01*
X179836281Y-92060000D01*
X179672065Y-92027336D01*
X179517376Y-91963261D01*
X179517375Y-91963261D01*
X179517374Y-91963260D01*
X179378156Y-91870238D01*
X179259762Y-91751844D01*
X179166740Y-91612626D01*
X179166739Y-91612624D01*
X179102664Y-91457935D01*
X179070000Y-91293719D01*
X179070000Y-91126281D01*
X179102664Y-90962065D01*
X179166739Y-90807376D01*
X179166740Y-90807374D01*
X179259762Y-90668156D01*
X179378156Y-90549762D01*
X179517374Y-90456740D01*
X179517376Y-90456739D01*
X179672065Y-90392664D01*
X179836281Y-90360000D01*
X180003719Y-90360000D01*
X180167935Y-90392664D01*
X180167935Y-90392664D01*
G37*
G36*
X165530000Y-92060000D02*
G01*
X163830000Y-92060000D01*
X163830000Y-90360000D01*
X165530000Y-90360000D01*
X165530000Y-92060000D01*
X165530000Y-92060000D01*
G37*
G36*
X158226059Y-90254782D02*
G01*
X158367099Y-90313203D01*
X158367100Y-90313204D01*
X158494034Y-90398018D01*
X158601982Y-90505966D01*
X158601983Y-90505968D01*
X158686797Y-90632901D01*
X158745218Y-90773941D01*
X158775000Y-90923668D01*
X158775000Y-91076332D01*
X158745218Y-91226059D01*
X158686797Y-91367099D01*
X158686796Y-91367100D01*
X158601982Y-91494034D01*
X158494034Y-91601982D01*
X158478107Y-91612624D01*
X158367099Y-91686797D01*
X158226059Y-91745218D01*
X158076332Y-91775000D01*
X157923668Y-91775000D01*
X157773941Y-91745218D01*
X157632901Y-91686797D01*
X157521893Y-91612624D01*
X157505966Y-91601982D01*
X157398018Y-91494034D01*
X157313204Y-91367100D01*
X157313203Y-91367099D01*
X157254782Y-91226059D01*
X157225000Y-91076332D01*
X157225000Y-90923668D01*
X157254782Y-90773941D01*
X157313203Y-90632901D01*
X157398017Y-90505968D01*
X157398018Y-90505966D01*
X157505966Y-90398018D01*
X157632900Y-90313204D01*
X157632901Y-90313203D01*
X157773941Y-90254782D01*
X157923668Y-90225000D01*
X158076332Y-90225000D01*
X158226059Y-90254782D01*
X158226059Y-90254782D01*
G37*
G36*
X153775000Y-91775000D02*
G01*
X152225000Y-91775000D01*
X152225000Y-90225000D01*
X153775000Y-90225000D01*
X153775000Y-91775000D01*
X153775000Y-91775000D01*
G37*
G36*
X180167935Y-87852664D02*
G01*
X180322624Y-87916739D01*
X180322626Y-87916740D01*
X180461844Y-88009762D01*
X180580238Y-88128156D01*
X180619857Y-88187451D01*
X180673261Y-88267376D01*
X180737336Y-88422065D01*
X180770000Y-88586281D01*
X180770000Y-88753719D01*
X180737336Y-88917935D01*
X180673261Y-89072624D01*
X180673260Y-89072626D01*
X180580238Y-89211844D01*
X180461844Y-89330238D01*
X180322626Y-89423260D01*
X180322625Y-89423261D01*
X180322624Y-89423261D01*
X180167935Y-89487336D01*
X180003719Y-89520000D01*
X179836281Y-89520000D01*
X179672065Y-89487336D01*
X179517376Y-89423261D01*
X179517375Y-89423261D01*
X179517374Y-89423260D01*
X179378156Y-89330238D01*
X179259762Y-89211844D01*
X179166740Y-89072626D01*
X179166739Y-89072624D01*
X179102664Y-88917935D01*
X179070000Y-88753719D01*
X179070000Y-88586281D01*
X179102664Y-88422065D01*
X179166739Y-88267376D01*
X179220143Y-88187451D01*
X179259762Y-88128156D01*
X179378156Y-88009762D01*
X179517374Y-87916740D01*
X179517376Y-87916739D01*
X179672065Y-87852664D01*
X179836281Y-87820000D01*
X180003719Y-87820000D01*
X180167935Y-87852664D01*
X180167935Y-87852664D01*
G37*
G36*
X164927935Y-87852664D02*
G01*
X165082624Y-87916739D01*
X165082626Y-87916740D01*
X165221844Y-88009762D01*
X165340238Y-88128156D01*
X165379857Y-88187451D01*
X165433261Y-88267376D01*
X165497336Y-88422065D01*
X165530000Y-88586281D01*
X165530000Y-88753719D01*
X165497336Y-88917935D01*
X165433261Y-89072624D01*
X165433260Y-89072626D01*
X165340238Y-89211844D01*
X165221844Y-89330238D01*
X165082626Y-89423260D01*
X165082625Y-89423261D01*
X165082624Y-89423261D01*
X164927935Y-89487336D01*
X164763719Y-89520000D01*
X164596281Y-89520000D01*
X164432065Y-89487336D01*
X164277376Y-89423261D01*
X164277375Y-89423261D01*
X164277374Y-89423260D01*
X164138156Y-89330238D01*
X164019762Y-89211844D01*
X163926740Y-89072626D01*
X163926739Y-89072624D01*
X163862664Y-88917935D01*
X163830000Y-88753719D01*
X163830000Y-88586281D01*
X163862664Y-88422065D01*
X163926739Y-88267376D01*
X163980143Y-88187451D01*
X164019762Y-88128156D01*
X164138156Y-88009762D01*
X164277374Y-87916740D01*
X164277376Y-87916739D01*
X164432065Y-87852664D01*
X164596281Y-87820000D01*
X164763719Y-87820000D01*
X164927935Y-87852664D01*
X164927935Y-87852664D01*
G37*
G36*
X121373127Y-85726901D02*
G01*
X121508365Y-85753801D01*
X121763149Y-85859336D01*
X121992448Y-86012549D01*
X122187451Y-86207552D01*
X122301298Y-86377936D01*
X122340665Y-86436853D01*
X122446199Y-86691636D01*
X122484316Y-86883260D01*
X122500000Y-86962112D01*
X122500000Y-87237888D01*
X122446199Y-87508365D01*
X122340664Y-87763149D01*
X122187451Y-87992448D01*
X121992448Y-88187451D01*
X121763149Y-88340664D01*
X121508365Y-88446199D01*
X121373126Y-88473100D01*
X121237889Y-88500000D01*
X120962111Y-88500000D01*
X120826874Y-88473100D01*
X120691635Y-88446199D01*
X120436851Y-88340664D01*
X120207552Y-88187451D01*
X120012549Y-87992448D01*
X119859336Y-87763149D01*
X119753801Y-87508365D01*
X119700000Y-87237888D01*
X119700000Y-86962112D01*
X119715685Y-86883260D01*
X119753801Y-86691636D01*
X119859335Y-86436853D01*
X119898702Y-86377936D01*
X120012549Y-86207552D01*
X120207552Y-86012549D01*
X120436851Y-85859336D01*
X120691635Y-85753801D01*
X120826873Y-85726901D01*
X120962111Y-85700000D01*
X121237889Y-85700000D01*
X121373127Y-85726901D01*
X121373127Y-85726901D01*
G37*
G36*
X180167935Y-85312664D02*
G01*
X180322624Y-85376739D01*
X180322626Y-85376740D01*
X180461844Y-85469762D01*
X180580238Y-85588156D01*
X180654969Y-85700000D01*
X180673261Y-85727376D01*
X180737336Y-85882065D01*
X180770000Y-86046281D01*
X180770000Y-86213719D01*
X180737336Y-86377935D01*
X180712931Y-86436853D01*
X180673260Y-86532626D01*
X180580238Y-86671844D01*
X180461844Y-86790238D01*
X180322626Y-86883260D01*
X180322625Y-86883261D01*
X180322624Y-86883261D01*
X180167935Y-86947336D01*
X180003719Y-86980000D01*
X179836281Y-86980000D01*
X179672065Y-86947336D01*
X179517376Y-86883261D01*
X179517375Y-86883261D01*
X179517374Y-86883260D01*
X179378156Y-86790238D01*
X179259762Y-86671844D01*
X179166740Y-86532626D01*
X179127069Y-86436853D01*
X179102664Y-86377935D01*
X179070000Y-86213719D01*
X179070000Y-86046281D01*
X179102664Y-85882065D01*
X179166739Y-85727376D01*
X179185031Y-85700000D01*
X179259762Y-85588156D01*
X179378156Y-85469762D01*
X179517374Y-85376740D01*
X179517376Y-85376739D01*
X179672065Y-85312664D01*
X179836281Y-85280000D01*
X180003719Y-85280000D01*
X180167935Y-85312664D01*
X180167935Y-85312664D01*
G37*
G36*
X164927935Y-85312664D02*
G01*
X165082624Y-85376739D01*
X165082626Y-85376740D01*
X165221844Y-85469762D01*
X165340238Y-85588156D01*
X165414969Y-85700000D01*
X165433261Y-85727376D01*
X165497336Y-85882065D01*
X165530000Y-86046281D01*
X165530000Y-86213719D01*
X165497336Y-86377935D01*
X165472931Y-86436853D01*
X165433260Y-86532626D01*
X165340238Y-86671844D01*
X165221844Y-86790238D01*
X165082626Y-86883260D01*
X165082625Y-86883261D01*
X165082624Y-86883261D01*
X164927935Y-86947336D01*
X164763719Y-86980000D01*
X164596281Y-86980000D01*
X164432065Y-86947336D01*
X164277376Y-86883261D01*
X164277375Y-86883261D01*
X164277374Y-86883260D01*
X164138156Y-86790238D01*
X164019762Y-86671844D01*
X163926740Y-86532626D01*
X163887069Y-86436853D01*
X163862664Y-86377935D01*
X163830000Y-86213719D01*
X163830000Y-86046281D01*
X163862664Y-85882065D01*
X163926739Y-85727376D01*
X163945031Y-85700000D01*
X164019762Y-85588156D01*
X164138156Y-85469762D01*
X164277374Y-85376740D01*
X164277376Y-85376739D01*
X164432065Y-85312664D01*
X164596281Y-85280000D01*
X164763719Y-85280000D01*
X164927935Y-85312664D01*
X164927935Y-85312664D01*
G37*
G36*
X180167935Y-82772664D02*
G01*
X180322624Y-82836739D01*
X180322626Y-82836740D01*
X180461844Y-82929762D01*
X180580238Y-83048156D01*
X180673260Y-83187374D01*
X180673261Y-83187376D01*
X180737336Y-83342065D01*
X180770000Y-83506281D01*
X180770000Y-83673719D01*
X180737336Y-83837935D01*
X180673261Y-83992624D01*
X180673260Y-83992626D01*
X180580238Y-84131844D01*
X180461844Y-84250238D01*
X180322626Y-84343260D01*
X180322625Y-84343261D01*
X180322624Y-84343261D01*
X180167935Y-84407336D01*
X180003719Y-84440000D01*
X179836281Y-84440000D01*
X179672065Y-84407336D01*
X179517376Y-84343261D01*
X179517375Y-84343261D01*
X179517374Y-84343260D01*
X179378156Y-84250238D01*
X179259762Y-84131844D01*
X179166740Y-83992626D01*
X179166739Y-83992624D01*
X179102664Y-83837935D01*
X179070000Y-83673719D01*
X179070000Y-83506281D01*
X179102664Y-83342065D01*
X179166739Y-83187376D01*
X179166740Y-83187374D01*
X179259762Y-83048156D01*
X179378156Y-82929762D01*
X179517374Y-82836740D01*
X179517376Y-82836739D01*
X179672065Y-82772664D01*
X179836281Y-82740000D01*
X180003719Y-82740000D01*
X180167935Y-82772664D01*
X180167935Y-82772664D01*
G37*
G36*
X164927935Y-82772664D02*
G01*
X165082624Y-82836739D01*
X165082626Y-82836740D01*
X165221844Y-82929762D01*
X165340238Y-83048156D01*
X165433260Y-83187374D01*
X165433261Y-83187376D01*
X165497336Y-83342065D01*
X165530000Y-83506281D01*
X165530000Y-83673719D01*
X165497336Y-83837935D01*
X165433261Y-83992624D01*
X165433260Y-83992626D01*
X165340238Y-84131844D01*
X165221844Y-84250238D01*
X165082626Y-84343260D01*
X165082625Y-84343261D01*
X165082624Y-84343261D01*
X164927935Y-84407336D01*
X164763719Y-84440000D01*
X164596281Y-84440000D01*
X164432065Y-84407336D01*
X164277376Y-84343261D01*
X164277375Y-84343261D01*
X164277374Y-84343260D01*
X164138156Y-84250238D01*
X164019762Y-84131844D01*
X163926740Y-83992626D01*
X163926739Y-83992624D01*
X163862664Y-83837935D01*
X163830000Y-83673719D01*
X163830000Y-83506281D01*
X163862664Y-83342065D01*
X163926739Y-83187376D01*
X163926740Y-83187374D01*
X164019762Y-83048156D01*
X164138156Y-82929762D01*
X164277374Y-82836740D01*
X164277376Y-82836739D01*
X164432065Y-82772664D01*
X164596281Y-82740000D01*
X164763719Y-82740000D01*
X164927935Y-82772664D01*
X164927935Y-82772664D01*
G37*
G36*
X122500000Y-83500000D02*
G01*
X119700000Y-83500000D01*
X119700000Y-80700000D01*
X122500000Y-80700000D01*
X122500000Y-83500000D01*
X122500000Y-83500000D01*
G37*
G36*
X180163979Y-78929778D02*
G01*
X180328677Y-78997998D01*
X180476902Y-79097039D01*
X180602961Y-79223098D01*
X180702002Y-79371323D01*
X180770222Y-79536021D01*
X180805000Y-79710864D01*
X180805000Y-79889136D01*
X180770222Y-80063979D01*
X180702002Y-80228677D01*
X180602961Y-80376902D01*
X180476902Y-80502961D01*
X180328677Y-80602002D01*
X180163979Y-80670222D01*
X179989136Y-80705000D01*
X179810864Y-80705000D01*
X179636021Y-80670222D01*
X179471323Y-80602002D01*
X179323098Y-80502961D01*
X179197039Y-80376902D01*
X179097998Y-80228677D01*
X179029778Y-80063979D01*
X178995000Y-79889136D01*
X178995000Y-79710864D01*
X179029778Y-79536021D01*
X179097998Y-79371323D01*
X179197039Y-79223098D01*
X179323098Y-79097039D01*
X179471323Y-78997998D01*
X179636021Y-78929778D01*
X179810864Y-78895000D01*
X179989136Y-78895000D01*
X180163979Y-78929778D01*
X180163979Y-78929778D01*
G37*
G36*
X177623979Y-78929778D02*
G01*
X177788677Y-78997998D01*
X177936902Y-79097039D01*
X178062961Y-79223098D01*
X178162002Y-79371323D01*
X178230222Y-79536021D01*
X178265000Y-79710864D01*
X178265000Y-79889136D01*
X178230222Y-80063979D01*
X178162002Y-80228677D01*
X178062961Y-80376902D01*
X177936902Y-80502961D01*
X177788677Y-80602002D01*
X177623979Y-80670222D01*
X177449136Y-80705000D01*
X177270864Y-80705000D01*
X177096021Y-80670222D01*
X176931323Y-80602002D01*
X176783098Y-80502961D01*
X176657039Y-80376902D01*
X176557998Y-80228677D01*
X176489778Y-80063979D01*
X176455000Y-79889136D01*
X176455000Y-79710864D01*
X176489778Y-79536021D01*
X176557998Y-79371323D01*
X176657039Y-79223098D01*
X176783098Y-79097039D01*
X176931323Y-78997998D01*
X177096021Y-78929778D01*
X177270864Y-78895000D01*
X177449136Y-78895000D01*
X177623979Y-78929778D01*
X177623979Y-78929778D01*
G37*
G36*
X175083979Y-78929778D02*
G01*
X175248677Y-78997998D01*
X175396902Y-79097039D01*
X175522961Y-79223098D01*
X175622002Y-79371323D01*
X175690222Y-79536021D01*
X175725000Y-79710864D01*
X175725000Y-79889136D01*
X175690222Y-80063979D01*
X175622002Y-80228677D01*
X175522961Y-80376902D01*
X175396902Y-80502961D01*
X175248677Y-80602002D01*
X175083979Y-80670222D01*
X174909136Y-80705000D01*
X174730864Y-80705000D01*
X174556021Y-80670222D01*
X174391323Y-80602002D01*
X174243098Y-80502961D01*
X174117039Y-80376902D01*
X174017998Y-80228677D01*
X173949778Y-80063979D01*
X173915000Y-79889136D01*
X173915000Y-79710864D01*
X173949778Y-79536021D01*
X174017998Y-79371323D01*
X174117039Y-79223098D01*
X174243098Y-79097039D01*
X174391323Y-78997998D01*
X174556021Y-78929778D01*
X174730864Y-78895000D01*
X174909136Y-78895000D01*
X175083979Y-78929778D01*
X175083979Y-78929778D01*
G37*
G36*
X175083979Y-76389778D02*
G01*
X175248677Y-76457998D01*
X175396902Y-76557039D01*
X175522961Y-76683098D01*
X175622002Y-76831323D01*
X175690222Y-76996021D01*
X175725000Y-77170864D01*
X175725000Y-77349136D01*
X175690222Y-77523979D01*
X175622002Y-77688677D01*
X175522961Y-77836902D01*
X175396902Y-77962961D01*
X175248677Y-78062002D01*
X175083979Y-78130222D01*
X174909136Y-78165000D01*
X174730864Y-78165000D01*
X174556021Y-78130222D01*
X174391323Y-78062002D01*
X174243098Y-77962961D01*
X174117039Y-77836902D01*
X174017998Y-77688677D01*
X173949778Y-77523979D01*
X173915000Y-77349136D01*
X173915000Y-77170864D01*
X173949778Y-76996021D01*
X174017998Y-76831323D01*
X174117039Y-76683098D01*
X174243098Y-76557039D01*
X174391323Y-76457998D01*
X174556021Y-76389778D01*
X174730864Y-76355000D01*
X174909136Y-76355000D01*
X175083979Y-76389778D01*
X175083979Y-76389778D01*
G37*
G36*
X177623979Y-76389778D02*
G01*
X177788677Y-76457998D01*
X177936902Y-76557039D01*
X178062961Y-76683098D01*
X178162002Y-76831323D01*
X178230222Y-76996021D01*
X178265000Y-77170864D01*
X178265000Y-77349136D01*
X178230222Y-77523979D01*
X178162002Y-77688677D01*
X178062961Y-77836902D01*
X177936902Y-77962961D01*
X177788677Y-78062002D01*
X177623979Y-78130222D01*
X177449136Y-78165000D01*
X177270864Y-78165000D01*
X177096021Y-78130222D01*
X176931323Y-78062002D01*
X176783098Y-77962961D01*
X176657039Y-77836902D01*
X176557998Y-77688677D01*
X176489778Y-77523979D01*
X176455000Y-77349136D01*
X176455000Y-77170864D01*
X176489778Y-76996021D01*
X176557998Y-76831323D01*
X176657039Y-76683098D01*
X176783098Y-76557039D01*
X176931323Y-76457998D01*
X177096021Y-76389778D01*
X177270864Y-76355000D01*
X177449136Y-76355000D01*
X177623979Y-76389778D01*
X177623979Y-76389778D01*
G37*
G36*
X180805000Y-78165000D02*
G01*
X178995000Y-78165000D01*
X178995000Y-76355000D01*
X180805000Y-76355000D01*
X180805000Y-78165000D01*
X180805000Y-78165000D01*
G37*
G36*
X121433404Y-62672974D02*
G01*
X122015767Y-62914196D01*
X122015768Y-62914197D01*
X122539881Y-63264398D01*
X122985602Y-63710119D01*
X123203387Y-64036058D01*
X123335804Y-64234233D01*
X123577026Y-64816596D01*
X123700000Y-65434826D01*
X123700000Y-66065174D01*
X123577026Y-66683404D01*
X123335804Y-67265767D01*
X123335803Y-67265768D01*
X122985602Y-67789881D01*
X122539881Y-68235602D01*
X122189679Y-68469599D01*
X122015767Y-68585804D01*
X121433404Y-68827026D01*
X120815174Y-68950000D01*
X120184826Y-68950000D01*
X119566596Y-68827026D01*
X118984233Y-68585804D01*
X118810321Y-68469599D01*
X118460119Y-68235602D01*
X118014398Y-67789881D01*
X117664197Y-67265768D01*
X117664196Y-67265767D01*
X117422974Y-66683404D01*
X117300000Y-66065174D01*
X117300000Y-65434826D01*
X117422974Y-64816596D01*
X117664196Y-64234233D01*
X117796613Y-64036058D01*
X118014398Y-63710119D01*
X118460119Y-63264398D01*
X118984232Y-62914197D01*
X118984233Y-62914196D01*
X119566596Y-62672974D01*
X120184826Y-62550000D01*
X120815174Y-62550000D01*
X121433404Y-62672974D01*
X121433404Y-62672974D01*
G37*
G36*
X179433404Y-62672974D02*
G01*
X180015767Y-62914196D01*
X180015768Y-62914197D01*
X180539881Y-63264398D01*
X180985602Y-63710119D01*
X181203387Y-64036058D01*
X181335804Y-64234233D01*
X181577026Y-64816596D01*
X181700000Y-65434826D01*
X181700000Y-66065174D01*
X181577026Y-66683404D01*
X181335804Y-67265767D01*
X181335803Y-67265768D01*
X180985602Y-67789881D01*
X180539881Y-68235602D01*
X180189679Y-68469599D01*
X180015767Y-68585804D01*
X179433404Y-68827026D01*
X178815174Y-68950000D01*
X178184826Y-68950000D01*
X177566596Y-68827026D01*
X176984233Y-68585804D01*
X176810321Y-68469599D01*
X176460119Y-68235602D01*
X176014398Y-67789881D01*
X175664197Y-67265768D01*
X175664196Y-67265767D01*
X175422974Y-66683404D01*
X175300000Y-66065174D01*
X175300000Y-65434826D01*
X175422974Y-64816596D01*
X175664196Y-64234233D01*
X175796613Y-64036058D01*
X176014398Y-63710119D01*
X176460119Y-63264398D01*
X176984232Y-62914197D01*
X176984233Y-62914196D01*
X177566596Y-62672974D01*
X178184826Y-62550000D01*
X178815174Y-62550000D01*
X179433404Y-62672974D01*
X179433404Y-62672974D01*
G37*
G36*
X156154606Y-66122197D02*
G01*
X156241062Y-66139394D01*
X156403942Y-66206861D01*
X156550530Y-66304808D01*
X156675192Y-66429470D01*
X156773139Y-66576058D01*
X156840606Y-66738938D01*
X156875000Y-66911850D01*
X156875000Y-67088150D01*
X156840606Y-67261062D01*
X156773139Y-67423942D01*
X156675192Y-67570530D01*
X156550530Y-67695192D01*
X156403942Y-67793139D01*
X156241062Y-67860606D01*
X156154606Y-67877803D01*
X156068151Y-67895000D01*
X155891849Y-67895000D01*
X155805394Y-67877803D01*
X155718938Y-67860606D01*
X155556058Y-67793139D01*
X155409470Y-67695192D01*
X155284808Y-67570530D01*
X155186861Y-67423942D01*
X155119394Y-67261062D01*
X155085000Y-67088150D01*
X155085000Y-66911850D01*
X155119394Y-66738938D01*
X155186861Y-66576058D01*
X155284808Y-66429470D01*
X155409470Y-66304808D01*
X155556058Y-66206861D01*
X155718938Y-66139394D01*
X155805394Y-66122197D01*
X155891849Y-66105000D01*
X156068151Y-66105000D01*
X156154606Y-66122197D01*
X156154606Y-66122197D01*
G37*
G36*
X166314606Y-66122197D02*
G01*
X166401062Y-66139394D01*
X166563942Y-66206861D01*
X166710530Y-66304808D01*
X166835192Y-66429470D01*
X166933139Y-66576058D01*
X167000606Y-66738938D01*
X167035000Y-66911850D01*
X167035000Y-67088150D01*
X167000606Y-67261062D01*
X166933139Y-67423942D01*
X166835192Y-67570530D01*
X166710530Y-67695192D01*
X166563942Y-67793139D01*
X166401062Y-67860606D01*
X166314606Y-67877803D01*
X166228151Y-67895000D01*
X166051849Y-67895000D01*
X165965394Y-67877803D01*
X165878938Y-67860606D01*
X165716058Y-67793139D01*
X165569470Y-67695192D01*
X165444808Y-67570530D01*
X165346861Y-67423942D01*
X165279394Y-67261062D01*
X165245000Y-67088150D01*
X165245000Y-66911850D01*
X165279394Y-66738938D01*
X165346861Y-66576058D01*
X165444808Y-66429470D01*
X165569470Y-66304808D01*
X165716058Y-66206861D01*
X165878938Y-66139394D01*
X165965394Y-66122197D01*
X166051849Y-66105000D01*
X166228151Y-66105000D01*
X166314606Y-66122197D01*
X166314606Y-66122197D01*
G37*
G36*
X153614606Y-66122197D02*
G01*
X153701062Y-66139394D01*
X153863942Y-66206861D01*
X154010530Y-66304808D01*
X154135192Y-66429470D01*
X154233139Y-66576058D01*
X154300606Y-66738938D01*
X154335000Y-66911850D01*
X154335000Y-67088150D01*
X154300606Y-67261062D01*
X154233139Y-67423942D01*
X154135192Y-67570530D01*
X154010530Y-67695192D01*
X153863942Y-67793139D01*
X153701062Y-67860606D01*
X153614606Y-67877803D01*
X153528151Y-67895000D01*
X153351849Y-67895000D01*
X153265394Y-67877803D01*
X153178938Y-67860606D01*
X153016058Y-67793139D01*
X152869470Y-67695192D01*
X152744808Y-67570530D01*
X152646861Y-67423942D01*
X152579394Y-67261062D01*
X152545000Y-67088150D01*
X152545000Y-66911850D01*
X152579394Y-66738938D01*
X152646861Y-66576058D01*
X152744808Y-66429470D01*
X152869470Y-66304808D01*
X153016058Y-66206861D01*
X153178938Y-66139394D01*
X153265394Y-66122197D01*
X153351849Y-66105000D01*
X153528151Y-66105000D01*
X153614606Y-66122197D01*
X153614606Y-66122197D01*
G37*
G36*
X151074606Y-66122197D02*
G01*
X151161062Y-66139394D01*
X151323942Y-66206861D01*
X151470530Y-66304808D01*
X151595192Y-66429470D01*
X151693139Y-66576058D01*
X151760606Y-66738938D01*
X151795000Y-66911850D01*
X151795000Y-67088150D01*
X151760606Y-67261062D01*
X151693139Y-67423942D01*
X151595192Y-67570530D01*
X151470530Y-67695192D01*
X151323942Y-67793139D01*
X151161062Y-67860606D01*
X151074606Y-67877803D01*
X150988151Y-67895000D01*
X150811849Y-67895000D01*
X150725394Y-67877803D01*
X150638938Y-67860606D01*
X150476058Y-67793139D01*
X150329470Y-67695192D01*
X150204808Y-67570530D01*
X150106861Y-67423942D01*
X150039394Y-67261062D01*
X150005000Y-67088150D01*
X150005000Y-66911850D01*
X150039394Y-66738938D01*
X150106861Y-66576058D01*
X150204808Y-66429470D01*
X150329470Y-66304808D01*
X150476058Y-66206861D01*
X150638938Y-66139394D01*
X150725394Y-66122197D01*
X150811849Y-66105000D01*
X150988151Y-66105000D01*
X151074606Y-66122197D01*
X151074606Y-66122197D01*
G37*
G36*
X148534606Y-66122197D02*
G01*
X148621062Y-66139394D01*
X148783942Y-66206861D01*
X148930530Y-66304808D01*
X149055192Y-66429470D01*
X149153139Y-66576058D01*
X149220606Y-66738938D01*
X149255000Y-66911850D01*
X149255000Y-67088150D01*
X149220606Y-67261062D01*
X149153139Y-67423942D01*
X149055192Y-67570530D01*
X148930530Y-67695192D01*
X148783942Y-67793139D01*
X148621062Y-67860606D01*
X148534606Y-67877803D01*
X148448151Y-67895000D01*
X148271849Y-67895000D01*
X148185394Y-67877803D01*
X148098938Y-67860606D01*
X147936058Y-67793139D01*
X147789470Y-67695192D01*
X147664808Y-67570530D01*
X147566861Y-67423942D01*
X147499394Y-67261062D01*
X147465000Y-67088150D01*
X147465000Y-66911850D01*
X147499394Y-66738938D01*
X147566861Y-66576058D01*
X147664808Y-66429470D01*
X147789470Y-66304808D01*
X147936058Y-66206861D01*
X148098938Y-66139394D01*
X148185394Y-66122197D01*
X148271849Y-66105000D01*
X148448151Y-66105000D01*
X148534606Y-66122197D01*
X148534606Y-66122197D01*
G37*
G36*
X145994606Y-66122197D02*
G01*
X146081062Y-66139394D01*
X146243942Y-66206861D01*
X146390530Y-66304808D01*
X146515192Y-66429470D01*
X146613139Y-66576058D01*
X146680606Y-66738938D01*
X146715000Y-66911850D01*
X146715000Y-67088150D01*
X146680606Y-67261062D01*
X146613139Y-67423942D01*
X146515192Y-67570530D01*
X146390530Y-67695192D01*
X146243942Y-67793139D01*
X146081062Y-67860606D01*
X145994606Y-67877803D01*
X145908151Y-67895000D01*
X145731849Y-67895000D01*
X145645394Y-67877803D01*
X145558938Y-67860606D01*
X145396058Y-67793139D01*
X145249470Y-67695192D01*
X145124808Y-67570530D01*
X145026861Y-67423942D01*
X144959394Y-67261062D01*
X144925000Y-67088150D01*
X144925000Y-66911850D01*
X144959394Y-66738938D01*
X145026861Y-66576058D01*
X145124808Y-66429470D01*
X145249470Y-66304808D01*
X145396058Y-66206861D01*
X145558938Y-66139394D01*
X145645394Y-66122197D01*
X145731849Y-66105000D01*
X145908151Y-66105000D01*
X145994606Y-66122197D01*
X145994606Y-66122197D01*
G37*
G36*
X161234606Y-66122197D02*
G01*
X161321062Y-66139394D01*
X161483942Y-66206861D01*
X161630530Y-66304808D01*
X161755192Y-66429470D01*
X161853139Y-66576058D01*
X161920606Y-66738938D01*
X161955000Y-66911850D01*
X161955000Y-67088150D01*
X161920606Y-67261062D01*
X161853139Y-67423942D01*
X161755192Y-67570530D01*
X161630530Y-67695192D01*
X161483942Y-67793139D01*
X161321062Y-67860606D01*
X161234606Y-67877803D01*
X161148151Y-67895000D01*
X160971849Y-67895000D01*
X160885394Y-67877803D01*
X160798938Y-67860606D01*
X160636058Y-67793139D01*
X160489470Y-67695192D01*
X160364808Y-67570530D01*
X160266861Y-67423942D01*
X160199394Y-67261062D01*
X160165000Y-67088150D01*
X160165000Y-66911850D01*
X160199394Y-66738938D01*
X160266861Y-66576058D01*
X160364808Y-66429470D01*
X160489470Y-66304808D01*
X160636058Y-66206861D01*
X160798938Y-66139394D01*
X160885394Y-66122197D01*
X160971849Y-66105000D01*
X161148151Y-66105000D01*
X161234606Y-66122197D01*
X161234606Y-66122197D01*
G37*
G36*
X163774606Y-66122197D02*
G01*
X163861062Y-66139394D01*
X164023942Y-66206861D01*
X164170530Y-66304808D01*
X164295192Y-66429470D01*
X164393139Y-66576058D01*
X164460606Y-66738938D01*
X164495000Y-66911850D01*
X164495000Y-67088150D01*
X164460606Y-67261062D01*
X164393139Y-67423942D01*
X164295192Y-67570530D01*
X164170530Y-67695192D01*
X164023942Y-67793139D01*
X163861062Y-67860606D01*
X163774606Y-67877803D01*
X163688151Y-67895000D01*
X163511849Y-67895000D01*
X163425394Y-67877803D01*
X163338938Y-67860606D01*
X163176058Y-67793139D01*
X163029470Y-67695192D01*
X162904808Y-67570530D01*
X162806861Y-67423942D01*
X162739394Y-67261062D01*
X162705000Y-67088150D01*
X162705000Y-66911850D01*
X162739394Y-66738938D01*
X162806861Y-66576058D01*
X162904808Y-66429470D01*
X163029470Y-66304808D01*
X163176058Y-66206861D01*
X163338938Y-66139394D01*
X163425394Y-66122197D01*
X163511849Y-66105000D01*
X163688151Y-66105000D01*
X163774606Y-66122197D01*
X163774606Y-66122197D01*
G37*
G36*
X143454606Y-66122197D02*
G01*
X143541062Y-66139394D01*
X143703942Y-66206861D01*
X143850530Y-66304808D01*
X143975192Y-66429470D01*
X144073139Y-66576058D01*
X144140606Y-66738938D01*
X144175000Y-66911850D01*
X144175000Y-67088150D01*
X144140606Y-67261062D01*
X144073139Y-67423942D01*
X143975192Y-67570530D01*
X143850530Y-67695192D01*
X143703942Y-67793139D01*
X143541062Y-67860606D01*
X143454606Y-67877803D01*
X143368151Y-67895000D01*
X143191849Y-67895000D01*
X143105394Y-67877803D01*
X143018938Y-67860606D01*
X142856058Y-67793139D01*
X142709470Y-67695192D01*
X142584808Y-67570530D01*
X142486861Y-67423942D01*
X142419394Y-67261062D01*
X142385000Y-67088150D01*
X142385000Y-66911850D01*
X142419394Y-66738938D01*
X142486861Y-66576058D01*
X142584808Y-66429470D01*
X142709470Y-66304808D01*
X142856058Y-66206861D01*
X143018938Y-66139394D01*
X143105394Y-66122197D01*
X143191849Y-66105000D01*
X143368151Y-66105000D01*
X143454606Y-66122197D01*
X143454606Y-66122197D01*
G37*
G36*
X140914606Y-66122197D02*
G01*
X141001062Y-66139394D01*
X141163942Y-66206861D01*
X141310530Y-66304808D01*
X141435192Y-66429470D01*
X141533139Y-66576058D01*
X141600606Y-66738938D01*
X141635000Y-66911850D01*
X141635000Y-67088150D01*
X141600606Y-67261062D01*
X141533139Y-67423942D01*
X141435192Y-67570530D01*
X141310530Y-67695192D01*
X141163942Y-67793139D01*
X141001062Y-67860606D01*
X140914606Y-67877803D01*
X140828151Y-67895000D01*
X140651849Y-67895000D01*
X140565394Y-67877803D01*
X140478938Y-67860606D01*
X140316058Y-67793139D01*
X140169470Y-67695192D01*
X140044808Y-67570530D01*
X139946861Y-67423942D01*
X139879394Y-67261062D01*
X139845000Y-67088150D01*
X139845000Y-66911850D01*
X139879394Y-66738938D01*
X139946861Y-66576058D01*
X140044808Y-66429470D01*
X140169470Y-66304808D01*
X140316058Y-66206861D01*
X140478938Y-66139394D01*
X140565394Y-66122197D01*
X140651849Y-66105000D01*
X140828151Y-66105000D01*
X140914606Y-66122197D01*
X140914606Y-66122197D01*
G37*
G36*
X158694606Y-66122197D02*
G01*
X158781062Y-66139394D01*
X158943942Y-66206861D01*
X159090530Y-66304808D01*
X159215192Y-66429470D01*
X159313139Y-66576058D01*
X159380606Y-66738938D01*
X159415000Y-66911850D01*
X159415000Y-67088150D01*
X159380606Y-67261062D01*
X159313139Y-67423942D01*
X159215192Y-67570530D01*
X159090530Y-67695192D01*
X158943942Y-67793139D01*
X158781062Y-67860606D01*
X158694606Y-67877803D01*
X158608151Y-67895000D01*
X158431849Y-67895000D01*
X158345394Y-67877803D01*
X158258938Y-67860606D01*
X158096058Y-67793139D01*
X157949470Y-67695192D01*
X157824808Y-67570530D01*
X157726861Y-67423942D01*
X157659394Y-67261062D01*
X157625000Y-67088150D01*
X157625000Y-66911850D01*
X157659394Y-66738938D01*
X157726861Y-66576058D01*
X157824808Y-66429470D01*
X157949470Y-66304808D01*
X158096058Y-66206861D01*
X158258938Y-66139394D01*
X158345394Y-66122197D01*
X158431849Y-66105000D01*
X158608151Y-66105000D01*
X158694606Y-66122197D01*
X158694606Y-66122197D01*
G37*
G36*
X138374606Y-66122197D02*
G01*
X138461062Y-66139394D01*
X138623942Y-66206861D01*
X138770530Y-66304808D01*
X138895192Y-66429470D01*
X138993139Y-66576058D01*
X139060606Y-66738938D01*
X139095000Y-66911850D01*
X139095000Y-67088150D01*
X139060606Y-67261062D01*
X138993139Y-67423942D01*
X138895192Y-67570530D01*
X138770530Y-67695192D01*
X138623942Y-67793139D01*
X138461062Y-67860606D01*
X138374606Y-67877803D01*
X138288151Y-67895000D01*
X138111849Y-67895000D01*
X138025394Y-67877803D01*
X137938938Y-67860606D01*
X137776058Y-67793139D01*
X137629470Y-67695192D01*
X137504808Y-67570530D01*
X137406861Y-67423942D01*
X137339394Y-67261062D01*
X137305000Y-67088150D01*
X137305000Y-66911850D01*
X137339394Y-66738938D01*
X137406861Y-66576058D01*
X137504808Y-66429470D01*
X137629470Y-66304808D01*
X137776058Y-66206861D01*
X137938938Y-66139394D01*
X138025394Y-66122197D01*
X138111849Y-66105000D01*
X138288151Y-66105000D01*
X138374606Y-66122197D01*
X138374606Y-66122197D01*
G37*
G36*
X135834606Y-66122197D02*
G01*
X135921062Y-66139394D01*
X136083942Y-66206861D01*
X136230530Y-66304808D01*
X136355192Y-66429470D01*
X136453139Y-66576058D01*
X136520606Y-66738938D01*
X136555000Y-66911850D01*
X136555000Y-67088150D01*
X136520606Y-67261062D01*
X136453139Y-67423942D01*
X136355192Y-67570530D01*
X136230530Y-67695192D01*
X136083942Y-67793139D01*
X135921062Y-67860606D01*
X135834606Y-67877803D01*
X135748151Y-67895000D01*
X135571849Y-67895000D01*
X135485394Y-67877803D01*
X135398938Y-67860606D01*
X135236058Y-67793139D01*
X135089470Y-67695192D01*
X134964808Y-67570530D01*
X134866861Y-67423942D01*
X134799394Y-67261062D01*
X134765000Y-67088150D01*
X134765000Y-66911850D01*
X134799394Y-66738938D01*
X134866861Y-66576058D01*
X134964808Y-66429470D01*
X135089470Y-66304808D01*
X135236058Y-66206861D01*
X135398938Y-66139394D01*
X135485394Y-66122197D01*
X135571849Y-66105000D01*
X135748151Y-66105000D01*
X135834606Y-66122197D01*
X135834606Y-66122197D01*
G37*
G36*
X126395000Y-67895000D02*
G01*
X124605000Y-67895000D01*
X124605000Y-66105000D01*
X126395000Y-66105000D01*
X126395000Y-67895000D01*
X126395000Y-67895000D01*
G37*
G36*
X128214606Y-66122197D02*
G01*
X128301062Y-66139394D01*
X128463942Y-66206861D01*
X128610530Y-66304808D01*
X128735192Y-66429470D01*
X128833139Y-66576058D01*
X128900606Y-66738938D01*
X128935000Y-66911850D01*
X128935000Y-67088150D01*
X128900606Y-67261062D01*
X128833139Y-67423942D01*
X128735192Y-67570530D01*
X128610530Y-67695192D01*
X128463942Y-67793139D01*
X128301062Y-67860606D01*
X128214606Y-67877803D01*
X128128151Y-67895000D01*
X127951849Y-67895000D01*
X127865394Y-67877803D01*
X127778938Y-67860606D01*
X127616058Y-67793139D01*
X127469470Y-67695192D01*
X127344808Y-67570530D01*
X127246861Y-67423942D01*
X127179394Y-67261062D01*
X127145000Y-67088150D01*
X127145000Y-66911850D01*
X127179394Y-66738938D01*
X127246861Y-66576058D01*
X127344808Y-66429470D01*
X127469470Y-66304808D01*
X127616058Y-66206861D01*
X127778938Y-66139394D01*
X127865394Y-66122197D01*
X127951849Y-66105000D01*
X128128151Y-66105000D01*
X128214606Y-66122197D01*
X128214606Y-66122197D01*
G37*
G36*
X168854606Y-66122197D02*
G01*
X168941062Y-66139394D01*
X169103942Y-66206861D01*
X169250530Y-66304808D01*
X169375192Y-66429470D01*
X169473139Y-66576058D01*
X169540606Y-66738938D01*
X169575000Y-66911850D01*
X169575000Y-67088150D01*
X169540606Y-67261062D01*
X169473139Y-67423942D01*
X169375192Y-67570530D01*
X169250530Y-67695192D01*
X169103942Y-67793139D01*
X168941062Y-67860606D01*
X168854606Y-67877803D01*
X168768151Y-67895000D01*
X168591849Y-67895000D01*
X168505394Y-67877803D01*
X168418938Y-67860606D01*
X168256058Y-67793139D01*
X168109470Y-67695192D01*
X167984808Y-67570530D01*
X167886861Y-67423942D01*
X167819394Y-67261062D01*
X167785000Y-67088150D01*
X167785000Y-66911850D01*
X167819394Y-66738938D01*
X167886861Y-66576058D01*
X167984808Y-66429470D01*
X168109470Y-66304808D01*
X168256058Y-66206861D01*
X168418938Y-66139394D01*
X168505394Y-66122197D01*
X168591849Y-66105000D01*
X168768151Y-66105000D01*
X168854606Y-66122197D01*
X168854606Y-66122197D01*
G37*
G36*
X171394606Y-66122197D02*
G01*
X171481062Y-66139394D01*
X171643942Y-66206861D01*
X171790530Y-66304808D01*
X171915192Y-66429470D01*
X172013139Y-66576058D01*
X172080606Y-66738938D01*
X172115000Y-66911850D01*
X172115000Y-67088150D01*
X172080606Y-67261062D01*
X172013139Y-67423942D01*
X171915192Y-67570530D01*
X171790530Y-67695192D01*
X171643942Y-67793139D01*
X171481062Y-67860606D01*
X171394606Y-67877803D01*
X171308151Y-67895000D01*
X171131849Y-67895000D01*
X171045394Y-67877803D01*
X170958938Y-67860606D01*
X170796058Y-67793139D01*
X170649470Y-67695192D01*
X170524808Y-67570530D01*
X170426861Y-67423942D01*
X170359394Y-67261062D01*
X170325000Y-67088150D01*
X170325000Y-66911850D01*
X170359394Y-66738938D01*
X170426861Y-66576058D01*
X170524808Y-66429470D01*
X170649470Y-66304808D01*
X170796058Y-66206861D01*
X170958938Y-66139394D01*
X171045394Y-66122197D01*
X171131849Y-66105000D01*
X171308151Y-66105000D01*
X171394606Y-66122197D01*
X171394606Y-66122197D01*
G37*
G36*
X130754606Y-66122197D02*
G01*
X130841062Y-66139394D01*
X131003942Y-66206861D01*
X131150530Y-66304808D01*
X131275192Y-66429470D01*
X131373139Y-66576058D01*
X131440606Y-66738938D01*
X131475000Y-66911850D01*
X131475000Y-67088150D01*
X131440606Y-67261062D01*
X131373139Y-67423942D01*
X131275192Y-67570530D01*
X131150530Y-67695192D01*
X131003942Y-67793139D01*
X130841062Y-67860606D01*
X130754606Y-67877803D01*
X130668151Y-67895000D01*
X130491849Y-67895000D01*
X130405394Y-67877803D01*
X130318938Y-67860606D01*
X130156058Y-67793139D01*
X130009470Y-67695192D01*
X129884808Y-67570530D01*
X129786861Y-67423942D01*
X129719394Y-67261062D01*
X129685000Y-67088150D01*
X129685000Y-66911850D01*
X129719394Y-66738938D01*
X129786861Y-66576058D01*
X129884808Y-66429470D01*
X130009470Y-66304808D01*
X130156058Y-66206861D01*
X130318938Y-66139394D01*
X130405394Y-66122197D01*
X130491849Y-66105000D01*
X130668151Y-66105000D01*
X130754606Y-66122197D01*
X130754606Y-66122197D01*
G37*
G36*
X133294606Y-66122197D02*
G01*
X133381062Y-66139394D01*
X133543942Y-66206861D01*
X133690530Y-66304808D01*
X133815192Y-66429470D01*
X133913139Y-66576058D01*
X133980606Y-66738938D01*
X134015000Y-66911850D01*
X134015000Y-67088150D01*
X133980606Y-67261062D01*
X133913139Y-67423942D01*
X133815192Y-67570530D01*
X133690530Y-67695192D01*
X133543942Y-67793139D01*
X133381062Y-67860606D01*
X133294606Y-67877803D01*
X133208151Y-67895000D01*
X133031849Y-67895000D01*
X132945394Y-67877803D01*
X132858938Y-67860606D01*
X132696058Y-67793139D01*
X132549470Y-67695192D01*
X132424808Y-67570530D01*
X132326861Y-67423942D01*
X132259394Y-67261062D01*
X132225000Y-67088150D01*
X132225000Y-66911850D01*
X132259394Y-66738938D01*
X132326861Y-66576058D01*
X132424808Y-66429470D01*
X132549470Y-66304808D01*
X132696058Y-66206861D01*
X132858938Y-66139394D01*
X132945394Y-66122197D01*
X133031849Y-66105000D01*
X133208151Y-66105000D01*
X133294606Y-66122197D01*
X133294606Y-66122197D01*
G37*
G36*
X173934606Y-66122197D02*
G01*
X174021062Y-66139394D01*
X174183942Y-66206861D01*
X174330530Y-66304808D01*
X174455192Y-66429470D01*
X174553139Y-66576058D01*
X174620606Y-66738938D01*
X174655000Y-66911850D01*
X174655000Y-67088150D01*
X174620606Y-67261062D01*
X174553139Y-67423942D01*
X174455192Y-67570530D01*
X174330530Y-67695192D01*
X174183942Y-67793139D01*
X174021062Y-67860606D01*
X173934606Y-67877803D01*
X173848151Y-67895000D01*
X173671849Y-67895000D01*
X173585394Y-67877803D01*
X173498938Y-67860606D01*
X173336058Y-67793139D01*
X173189470Y-67695192D01*
X173064808Y-67570530D01*
X172966861Y-67423942D01*
X172899394Y-67261062D01*
X172865000Y-67088150D01*
X172865000Y-66911850D01*
X172899394Y-66738938D01*
X172966861Y-66576058D01*
X173064808Y-66429470D01*
X173189470Y-66304808D01*
X173336058Y-66206861D01*
X173498938Y-66139394D01*
X173585394Y-66122197D01*
X173671849Y-66105000D01*
X173848151Y-66105000D01*
X173934606Y-66122197D01*
X173934606Y-66122197D01*
G37*
G36*
X158694606Y-63582197D02*
G01*
X158781062Y-63599394D01*
X158943942Y-63666861D01*
X159090530Y-63764808D01*
X159215192Y-63889470D01*
X159313139Y-64036058D01*
X159380606Y-64198938D01*
X159415000Y-64371850D01*
X159415000Y-64548150D01*
X159380606Y-64721062D01*
X159313139Y-64883942D01*
X159215192Y-65030530D01*
X159090530Y-65155192D01*
X158943942Y-65253139D01*
X158781062Y-65320606D01*
X158694606Y-65337803D01*
X158608151Y-65355000D01*
X158431849Y-65355000D01*
X158345394Y-65337803D01*
X158258938Y-65320606D01*
X158096058Y-65253139D01*
X157949470Y-65155192D01*
X157824808Y-65030530D01*
X157726861Y-64883942D01*
X157659394Y-64721062D01*
X157625000Y-64548150D01*
X157625000Y-64371850D01*
X157659394Y-64198938D01*
X157726861Y-64036058D01*
X157824808Y-63889470D01*
X157949470Y-63764808D01*
X158096058Y-63666861D01*
X158258938Y-63599394D01*
X158345394Y-63582197D01*
X158431849Y-63565000D01*
X158608151Y-63565000D01*
X158694606Y-63582197D01*
X158694606Y-63582197D01*
G37*
G36*
X161234606Y-63582197D02*
G01*
X161321062Y-63599394D01*
X161483942Y-63666861D01*
X161630530Y-63764808D01*
X161755192Y-63889470D01*
X161853139Y-64036058D01*
X161920606Y-64198938D01*
X161955000Y-64371850D01*
X161955000Y-64548150D01*
X161920606Y-64721062D01*
X161853139Y-64883942D01*
X161755192Y-65030530D01*
X161630530Y-65155192D01*
X161483942Y-65253139D01*
X161321062Y-65320606D01*
X161234606Y-65337803D01*
X161148151Y-65355000D01*
X160971849Y-65355000D01*
X160885394Y-65337803D01*
X160798938Y-65320606D01*
X160636058Y-65253139D01*
X160489470Y-65155192D01*
X160364808Y-65030530D01*
X160266861Y-64883942D01*
X160199394Y-64721062D01*
X160165000Y-64548150D01*
X160165000Y-64371850D01*
X160199394Y-64198938D01*
X160266861Y-64036058D01*
X160364808Y-63889470D01*
X160489470Y-63764808D01*
X160636058Y-63666861D01*
X160798938Y-63599394D01*
X160885394Y-63582197D01*
X160971849Y-63565000D01*
X161148151Y-63565000D01*
X161234606Y-63582197D01*
X161234606Y-63582197D01*
G37*
G36*
X156154606Y-63582197D02*
G01*
X156241062Y-63599394D01*
X156403942Y-63666861D01*
X156550530Y-63764808D01*
X156675192Y-63889470D01*
X156773139Y-64036058D01*
X156840606Y-64198938D01*
X156875000Y-64371850D01*
X156875000Y-64548150D01*
X156840606Y-64721062D01*
X156773139Y-64883942D01*
X156675192Y-65030530D01*
X156550530Y-65155192D01*
X156403942Y-65253139D01*
X156241062Y-65320606D01*
X156154606Y-65337803D01*
X156068151Y-65355000D01*
X155891849Y-65355000D01*
X155805394Y-65337803D01*
X155718938Y-65320606D01*
X155556058Y-65253139D01*
X155409470Y-65155192D01*
X155284808Y-65030530D01*
X155186861Y-64883942D01*
X155119394Y-64721062D01*
X155085000Y-64548150D01*
X155085000Y-64371850D01*
X155119394Y-64198938D01*
X155186861Y-64036058D01*
X155284808Y-63889470D01*
X155409470Y-63764808D01*
X155556058Y-63666861D01*
X155718938Y-63599394D01*
X155805394Y-63582197D01*
X155891849Y-63565000D01*
X156068151Y-63565000D01*
X156154606Y-63582197D01*
X156154606Y-63582197D01*
G37*
G36*
X163774606Y-63582197D02*
G01*
X163861062Y-63599394D01*
X164023942Y-63666861D01*
X164170530Y-63764808D01*
X164295192Y-63889470D01*
X164393139Y-64036058D01*
X164460606Y-64198938D01*
X164495000Y-64371850D01*
X164495000Y-64548150D01*
X164460606Y-64721062D01*
X164393139Y-64883942D01*
X164295192Y-65030530D01*
X164170530Y-65155192D01*
X164023942Y-65253139D01*
X163861062Y-65320606D01*
X163774606Y-65337803D01*
X163688151Y-65355000D01*
X163511849Y-65355000D01*
X163425394Y-65337803D01*
X163338938Y-65320606D01*
X163176058Y-65253139D01*
X163029470Y-65155192D01*
X162904808Y-65030530D01*
X162806861Y-64883942D01*
X162739394Y-64721062D01*
X162705000Y-64548150D01*
X162705000Y-64371850D01*
X162739394Y-64198938D01*
X162806861Y-64036058D01*
X162904808Y-63889470D01*
X163029470Y-63764808D01*
X163176058Y-63666861D01*
X163338938Y-63599394D01*
X163425394Y-63582197D01*
X163511849Y-63565000D01*
X163688151Y-63565000D01*
X163774606Y-63582197D01*
X163774606Y-63582197D01*
G37*
G36*
X153614606Y-63582197D02*
G01*
X153701062Y-63599394D01*
X153863942Y-63666861D01*
X154010530Y-63764808D01*
X154135192Y-63889470D01*
X154233139Y-64036058D01*
X154300606Y-64198938D01*
X154335000Y-64371850D01*
X154335000Y-64548150D01*
X154300606Y-64721062D01*
X154233139Y-64883942D01*
X154135192Y-65030530D01*
X154010530Y-65155192D01*
X153863942Y-65253139D01*
X153701062Y-65320606D01*
X153614606Y-65337803D01*
X153528151Y-65355000D01*
X153351849Y-65355000D01*
X153265394Y-65337803D01*
X153178938Y-65320606D01*
X153016058Y-65253139D01*
X152869470Y-65155192D01*
X152744808Y-65030530D01*
X152646861Y-64883942D01*
X152579394Y-64721062D01*
X152545000Y-64548150D01*
X152545000Y-64371850D01*
X152579394Y-64198938D01*
X152646861Y-64036058D01*
X152744808Y-63889470D01*
X152869470Y-63764808D01*
X153016058Y-63666861D01*
X153178938Y-63599394D01*
X153265394Y-63582197D01*
X153351849Y-63565000D01*
X153528151Y-63565000D01*
X153614606Y-63582197D01*
X153614606Y-63582197D01*
G37*
G36*
X138374606Y-63582197D02*
G01*
X138461062Y-63599394D01*
X138623942Y-63666861D01*
X138770530Y-63764808D01*
X138895192Y-63889470D01*
X138993139Y-64036058D01*
X139060606Y-64198938D01*
X139095000Y-64371850D01*
X139095000Y-64548150D01*
X139060606Y-64721062D01*
X138993139Y-64883942D01*
X138895192Y-65030530D01*
X138770530Y-65155192D01*
X138623942Y-65253139D01*
X138461062Y-65320606D01*
X138374606Y-65337803D01*
X138288151Y-65355000D01*
X138111849Y-65355000D01*
X138025394Y-65337803D01*
X137938938Y-65320606D01*
X137776058Y-65253139D01*
X137629470Y-65155192D01*
X137504808Y-65030530D01*
X137406861Y-64883942D01*
X137339394Y-64721062D01*
X137305000Y-64548150D01*
X137305000Y-64371850D01*
X137339394Y-64198938D01*
X137406861Y-64036058D01*
X137504808Y-63889470D01*
X137629470Y-63764808D01*
X137776058Y-63666861D01*
X137938938Y-63599394D01*
X138025394Y-63582197D01*
X138111849Y-63565000D01*
X138288151Y-63565000D01*
X138374606Y-63582197D01*
X138374606Y-63582197D01*
G37*
G36*
X151074606Y-63582197D02*
G01*
X151161062Y-63599394D01*
X151323942Y-63666861D01*
X151470530Y-63764808D01*
X151595192Y-63889470D01*
X151693139Y-64036058D01*
X151760606Y-64198938D01*
X151795000Y-64371850D01*
X151795000Y-64548150D01*
X151760606Y-64721062D01*
X151693139Y-64883942D01*
X151595192Y-65030530D01*
X151470530Y-65155192D01*
X151323942Y-65253139D01*
X151161062Y-65320606D01*
X151074606Y-65337803D01*
X150988151Y-65355000D01*
X150811849Y-65355000D01*
X150725394Y-65337803D01*
X150638938Y-65320606D01*
X150476058Y-65253139D01*
X150329470Y-65155192D01*
X150204808Y-65030530D01*
X150106861Y-64883942D01*
X150039394Y-64721062D01*
X150005000Y-64548150D01*
X150005000Y-64371850D01*
X150039394Y-64198938D01*
X150106861Y-64036058D01*
X150204808Y-63889470D01*
X150329470Y-63764808D01*
X150476058Y-63666861D01*
X150638938Y-63599394D01*
X150725394Y-63582197D01*
X150811849Y-63565000D01*
X150988151Y-63565000D01*
X151074606Y-63582197D01*
X151074606Y-63582197D01*
G37*
G36*
X166314606Y-63582197D02*
G01*
X166401062Y-63599394D01*
X166563942Y-63666861D01*
X166710530Y-63764808D01*
X166835192Y-63889470D01*
X166933139Y-64036058D01*
X167000606Y-64198938D01*
X167035000Y-64371850D01*
X167035000Y-64548150D01*
X167000606Y-64721062D01*
X166933139Y-64883942D01*
X166835192Y-65030530D01*
X166710530Y-65155192D01*
X166563942Y-65253139D01*
X166401062Y-65320606D01*
X166314606Y-65337803D01*
X166228151Y-65355000D01*
X166051849Y-65355000D01*
X165965394Y-65337803D01*
X165878938Y-65320606D01*
X165716058Y-65253139D01*
X165569470Y-65155192D01*
X165444808Y-65030530D01*
X165346861Y-64883942D01*
X165279394Y-64721062D01*
X165245000Y-64548150D01*
X165245000Y-64371850D01*
X165279394Y-64198938D01*
X165346861Y-64036058D01*
X165444808Y-63889470D01*
X165569470Y-63764808D01*
X165716058Y-63666861D01*
X165878938Y-63599394D01*
X165965394Y-63582197D01*
X166051849Y-63565000D01*
X166228151Y-63565000D01*
X166314606Y-63582197D01*
X166314606Y-63582197D01*
G37*
G36*
X148534606Y-63582197D02*
G01*
X148621062Y-63599394D01*
X148783942Y-63666861D01*
X148930530Y-63764808D01*
X149055192Y-63889470D01*
X149153139Y-64036058D01*
X149220606Y-64198938D01*
X149255000Y-64371850D01*
X149255000Y-64548150D01*
X149220606Y-64721062D01*
X149153139Y-64883942D01*
X149055192Y-65030530D01*
X148930530Y-65155192D01*
X148783942Y-65253139D01*
X148621062Y-65320606D01*
X148534606Y-65337803D01*
X148448151Y-65355000D01*
X148271849Y-65355000D01*
X148185394Y-65337803D01*
X148098938Y-65320606D01*
X147936058Y-65253139D01*
X147789470Y-65155192D01*
X147664808Y-65030530D01*
X147566861Y-64883942D01*
X147499394Y-64721062D01*
X147465000Y-64548150D01*
X147465000Y-64371850D01*
X147499394Y-64198938D01*
X147566861Y-64036058D01*
X147664808Y-63889470D01*
X147789470Y-63764808D01*
X147936058Y-63666861D01*
X148098938Y-63599394D01*
X148185394Y-63582197D01*
X148271849Y-63565000D01*
X148448151Y-63565000D01*
X148534606Y-63582197D01*
X148534606Y-63582197D01*
G37*
G36*
X168854606Y-63582197D02*
G01*
X168941062Y-63599394D01*
X169103942Y-63666861D01*
X169250530Y-63764808D01*
X169375192Y-63889470D01*
X169473139Y-64036058D01*
X169540606Y-64198938D01*
X169575000Y-64371850D01*
X169575000Y-64548150D01*
X169540606Y-64721062D01*
X169473139Y-64883942D01*
X169375192Y-65030530D01*
X169250530Y-65155192D01*
X169103942Y-65253139D01*
X168941062Y-65320606D01*
X168854606Y-65337803D01*
X168768151Y-65355000D01*
X168591849Y-65355000D01*
X168505394Y-65337803D01*
X168418938Y-65320606D01*
X168256058Y-65253139D01*
X168109470Y-65155192D01*
X167984808Y-65030530D01*
X167886861Y-64883942D01*
X167819394Y-64721062D01*
X167785000Y-64548150D01*
X167785000Y-64371850D01*
X167819394Y-64198938D01*
X167886861Y-64036058D01*
X167984808Y-63889470D01*
X168109470Y-63764808D01*
X168256058Y-63666861D01*
X168418938Y-63599394D01*
X168505394Y-63582197D01*
X168591849Y-63565000D01*
X168768151Y-63565000D01*
X168854606Y-63582197D01*
X168854606Y-63582197D01*
G37*
G36*
X145994606Y-63582197D02*
G01*
X146081062Y-63599394D01*
X146243942Y-63666861D01*
X146390530Y-63764808D01*
X146515192Y-63889470D01*
X146613139Y-64036058D01*
X146680606Y-64198938D01*
X146715000Y-64371850D01*
X146715000Y-64548150D01*
X146680606Y-64721062D01*
X146613139Y-64883942D01*
X146515192Y-65030530D01*
X146390530Y-65155192D01*
X146243942Y-65253139D01*
X146081062Y-65320606D01*
X145994606Y-65337803D01*
X145908151Y-65355000D01*
X145731849Y-65355000D01*
X145645394Y-65337803D01*
X145558938Y-65320606D01*
X145396058Y-65253139D01*
X145249470Y-65155192D01*
X145124808Y-65030530D01*
X145026861Y-64883942D01*
X144959394Y-64721062D01*
X144925000Y-64548150D01*
X144925000Y-64371850D01*
X144959394Y-64198938D01*
X145026861Y-64036058D01*
X145124808Y-63889470D01*
X145249470Y-63764808D01*
X145396058Y-63666861D01*
X145558938Y-63599394D01*
X145645394Y-63582197D01*
X145731849Y-63565000D01*
X145908151Y-63565000D01*
X145994606Y-63582197D01*
X145994606Y-63582197D01*
G37*
G36*
X171394606Y-63582197D02*
G01*
X171481062Y-63599394D01*
X171643942Y-63666861D01*
X171790530Y-63764808D01*
X171915192Y-63889470D01*
X172013139Y-64036058D01*
X172080606Y-64198938D01*
X172115000Y-64371850D01*
X172115000Y-64548150D01*
X172080606Y-64721062D01*
X172013139Y-64883942D01*
X171915192Y-65030530D01*
X171790530Y-65155192D01*
X171643942Y-65253139D01*
X171481062Y-65320606D01*
X171394606Y-65337803D01*
X171308151Y-65355000D01*
X171131849Y-65355000D01*
X171045394Y-65337803D01*
X170958938Y-65320606D01*
X170796058Y-65253139D01*
X170649470Y-65155192D01*
X170524808Y-65030530D01*
X170426861Y-64883942D01*
X170359394Y-64721062D01*
X170325000Y-64548150D01*
X170325000Y-64371850D01*
X170359394Y-64198938D01*
X170426861Y-64036058D01*
X170524808Y-63889470D01*
X170649470Y-63764808D01*
X170796058Y-63666861D01*
X170958938Y-63599394D01*
X171045394Y-63582197D01*
X171131849Y-63565000D01*
X171308151Y-63565000D01*
X171394606Y-63582197D01*
X171394606Y-63582197D01*
G37*
G36*
X143454606Y-63582197D02*
G01*
X143541062Y-63599394D01*
X143703942Y-63666861D01*
X143850530Y-63764808D01*
X143975192Y-63889470D01*
X144073139Y-64036058D01*
X144140606Y-64198938D01*
X144175000Y-64371850D01*
X144175000Y-64548150D01*
X144140606Y-64721062D01*
X144073139Y-64883942D01*
X143975192Y-65030530D01*
X143850530Y-65155192D01*
X143703942Y-65253139D01*
X143541062Y-65320606D01*
X143454606Y-65337803D01*
X143368151Y-65355000D01*
X143191849Y-65355000D01*
X143105394Y-65337803D01*
X143018938Y-65320606D01*
X142856058Y-65253139D01*
X142709470Y-65155192D01*
X142584808Y-65030530D01*
X142486861Y-64883942D01*
X142419394Y-64721062D01*
X142385000Y-64548150D01*
X142385000Y-64371850D01*
X142419394Y-64198938D01*
X142486861Y-64036058D01*
X142584808Y-63889470D01*
X142709470Y-63764808D01*
X142856058Y-63666861D01*
X143018938Y-63599394D01*
X143105394Y-63582197D01*
X143191849Y-63565000D01*
X143368151Y-63565000D01*
X143454606Y-63582197D01*
X143454606Y-63582197D01*
G37*
G36*
X173934606Y-63582197D02*
G01*
X174021062Y-63599394D01*
X174183942Y-63666861D01*
X174330530Y-63764808D01*
X174455192Y-63889470D01*
X174553139Y-64036058D01*
X174620606Y-64198938D01*
X174655000Y-64371850D01*
X174655000Y-64548150D01*
X174620606Y-64721062D01*
X174553139Y-64883942D01*
X174455192Y-65030530D01*
X174330530Y-65155192D01*
X174183942Y-65253139D01*
X174021062Y-65320606D01*
X173934606Y-65337803D01*
X173848151Y-65355000D01*
X173671849Y-65355000D01*
X173585394Y-65337803D01*
X173498938Y-65320606D01*
X173336058Y-65253139D01*
X173189470Y-65155192D01*
X173064808Y-65030530D01*
X172966861Y-64883942D01*
X172899394Y-64721062D01*
X172865000Y-64548150D01*
X172865000Y-64371850D01*
X172899394Y-64198938D01*
X172966861Y-64036058D01*
X173064808Y-63889470D01*
X173189470Y-63764808D01*
X173336058Y-63666861D01*
X173498938Y-63599394D01*
X173585394Y-63582197D01*
X173671849Y-63565000D01*
X173848151Y-63565000D01*
X173934606Y-63582197D01*
X173934606Y-63582197D01*
G37*
G36*
X140914606Y-63582197D02*
G01*
X141001062Y-63599394D01*
X141163942Y-63666861D01*
X141310530Y-63764808D01*
X141435192Y-63889470D01*
X141533139Y-64036058D01*
X141600606Y-64198938D01*
X141635000Y-64371850D01*
X141635000Y-64548150D01*
X141600606Y-64721062D01*
X141533139Y-64883942D01*
X141435192Y-65030530D01*
X141310530Y-65155192D01*
X141163942Y-65253139D01*
X141001062Y-65320606D01*
X140914606Y-65337803D01*
X140828151Y-65355000D01*
X140651849Y-65355000D01*
X140565394Y-65337803D01*
X140478938Y-65320606D01*
X140316058Y-65253139D01*
X140169470Y-65155192D01*
X140044808Y-65030530D01*
X139946861Y-64883942D01*
X139879394Y-64721062D01*
X139845000Y-64548150D01*
X139845000Y-64371850D01*
X139879394Y-64198938D01*
X139946861Y-64036058D01*
X140044808Y-63889470D01*
X140169470Y-63764808D01*
X140316058Y-63666861D01*
X140478938Y-63599394D01*
X140565394Y-63582197D01*
X140651849Y-63565000D01*
X140828151Y-63565000D01*
X140914606Y-63582197D01*
X140914606Y-63582197D01*
G37*
G36*
X135834606Y-63582197D02*
G01*
X135921062Y-63599394D01*
X136083942Y-63666861D01*
X136230530Y-63764808D01*
X136355192Y-63889470D01*
X136453139Y-64036058D01*
X136520606Y-64198938D01*
X136555000Y-64371850D01*
X136555000Y-64548150D01*
X136520606Y-64721062D01*
X136453139Y-64883942D01*
X136355192Y-65030530D01*
X136230530Y-65155192D01*
X136083942Y-65253139D01*
X135921062Y-65320606D01*
X135834606Y-65337803D01*
X135748151Y-65355000D01*
X135571849Y-65355000D01*
X135485394Y-65337803D01*
X135398938Y-65320606D01*
X135236058Y-65253139D01*
X135089470Y-65155192D01*
X134964808Y-65030530D01*
X134866861Y-64883942D01*
X134799394Y-64721062D01*
X134765000Y-64548150D01*
X134765000Y-64371850D01*
X134799394Y-64198938D01*
X134866861Y-64036058D01*
X134964808Y-63889470D01*
X135089470Y-63764808D01*
X135236058Y-63666861D01*
X135398938Y-63599394D01*
X135485394Y-63582197D01*
X135571849Y-63565000D01*
X135748151Y-63565000D01*
X135834606Y-63582197D01*
X135834606Y-63582197D01*
G37*
G36*
X133294606Y-63582197D02*
G01*
X133381062Y-63599394D01*
X133543942Y-63666861D01*
X133690530Y-63764808D01*
X133815192Y-63889470D01*
X133913139Y-64036058D01*
X133980606Y-64198938D01*
X134015000Y-64371850D01*
X134015000Y-64548150D01*
X133980606Y-64721062D01*
X133913139Y-64883942D01*
X133815192Y-65030530D01*
X133690530Y-65155192D01*
X133543942Y-65253139D01*
X133381062Y-65320606D01*
X133294606Y-65337803D01*
X133208151Y-65355000D01*
X133031849Y-65355000D01*
X132945394Y-65337803D01*
X132858938Y-65320606D01*
X132696058Y-65253139D01*
X132549470Y-65155192D01*
X132424808Y-65030530D01*
X132326861Y-64883942D01*
X132259394Y-64721062D01*
X132225000Y-64548150D01*
X132225000Y-64371850D01*
X132259394Y-64198938D01*
X132326861Y-64036058D01*
X132424808Y-63889470D01*
X132549470Y-63764808D01*
X132696058Y-63666861D01*
X132858938Y-63599394D01*
X132945394Y-63582197D01*
X133031849Y-63565000D01*
X133208151Y-63565000D01*
X133294606Y-63582197D01*
X133294606Y-63582197D01*
G37*
G36*
X130754606Y-63582197D02*
G01*
X130841062Y-63599394D01*
X131003942Y-63666861D01*
X131150530Y-63764808D01*
X131275192Y-63889470D01*
X131373139Y-64036058D01*
X131440606Y-64198938D01*
X131475000Y-64371850D01*
X131475000Y-64548150D01*
X131440606Y-64721062D01*
X131373139Y-64883942D01*
X131275192Y-65030530D01*
X131150530Y-65155192D01*
X131003942Y-65253139D01*
X130841062Y-65320606D01*
X130754606Y-65337803D01*
X130668151Y-65355000D01*
X130491849Y-65355000D01*
X130405394Y-65337803D01*
X130318938Y-65320606D01*
X130156058Y-65253139D01*
X130009470Y-65155192D01*
X129884808Y-65030530D01*
X129786861Y-64883942D01*
X129719394Y-64721062D01*
X129685000Y-64548150D01*
X129685000Y-64371850D01*
X129719394Y-64198938D01*
X129786861Y-64036058D01*
X129884808Y-63889470D01*
X130009470Y-63764808D01*
X130156058Y-63666861D01*
X130318938Y-63599394D01*
X130405394Y-63582197D01*
X130491849Y-63565000D01*
X130668151Y-63565000D01*
X130754606Y-63582197D01*
X130754606Y-63582197D01*
G37*
G36*
X128214606Y-63582197D02*
G01*
X128301062Y-63599394D01*
X128463942Y-63666861D01*
X128610530Y-63764808D01*
X128735192Y-63889470D01*
X128833139Y-64036058D01*
X128900606Y-64198938D01*
X128935000Y-64371850D01*
X128935000Y-64548150D01*
X128900606Y-64721062D01*
X128833139Y-64883942D01*
X128735192Y-65030530D01*
X128610530Y-65155192D01*
X128463942Y-65253139D01*
X128301062Y-65320606D01*
X128214606Y-65337803D01*
X128128151Y-65355000D01*
X127951849Y-65355000D01*
X127865394Y-65337803D01*
X127778938Y-65320606D01*
X127616058Y-65253139D01*
X127469470Y-65155192D01*
X127344808Y-65030530D01*
X127246861Y-64883942D01*
X127179394Y-64721062D01*
X127145000Y-64548150D01*
X127145000Y-64371850D01*
X127179394Y-64198938D01*
X127246861Y-64036058D01*
X127344808Y-63889470D01*
X127469470Y-63764808D01*
X127616058Y-63666861D01*
X127778938Y-63599394D01*
X127865394Y-63582197D01*
X127951849Y-63565000D01*
X128128151Y-63565000D01*
X128214606Y-63582197D01*
X128214606Y-63582197D01*
G37*
G36*
X125674606Y-63582197D02*
G01*
X125761062Y-63599394D01*
X125923942Y-63666861D01*
X126070530Y-63764808D01*
X126195192Y-63889470D01*
X126293139Y-64036058D01*
X126360606Y-64198938D01*
X126395000Y-64371850D01*
X126395000Y-64548150D01*
X126360606Y-64721062D01*
X126293139Y-64883942D01*
X126195192Y-65030530D01*
X126070530Y-65155192D01*
X125923942Y-65253139D01*
X125761062Y-65320606D01*
X125674606Y-65337803D01*
X125588151Y-65355000D01*
X125411849Y-65355000D01*
X125325394Y-65337803D01*
X125238938Y-65320606D01*
X125076058Y-65253139D01*
X124929470Y-65155192D01*
X124804808Y-65030530D01*
X124706861Y-64883942D01*
X124639394Y-64721062D01*
X124605000Y-64548150D01*
X124605000Y-64371850D01*
X124639394Y-64198938D01*
X124706861Y-64036058D01*
X124804808Y-63889470D01*
X124929470Y-63764808D01*
X125076058Y-63666861D01*
X125238938Y-63599394D01*
X125325394Y-63582197D01*
X125411849Y-63565000D01*
X125588151Y-63565000D01*
X125674606Y-63582197D01*
X125674606Y-63582197D01*
G37*
M02*
