G04 #@! TF.GenerationSoftware,KiCad,Pcbnew,(5.1.2-1)-1*
G04 #@! TF.CreationDate,2019-08-16T00:07:05-07:00*
G04 #@! TF.ProjectId,RaceOn-PiHAT,52616365-4f6e-42d5-9069-4841542e6b69,1*
G04 #@! TF.SameCoordinates,Original*
G04 #@! TF.FileFunction,Legend,Bot*
G04 #@! TF.FilePolarity,Positive*
%FSLAX46Y46*%
G04 Gerber Fmt 4.6, Leading zero omitted, Abs format (unit mm)*
G04 Created by KiCad (PCBNEW (5.1.2-1)-1) date 2019-08-16 00:07:05*
%MOMM*%
%LPD*%
G04 APERTURE LIST*
%ADD10C,0.120000*%
%ADD11C,0.150000*%
G04 APERTURE END LIST*
D10*
X176450000Y-99400000D02*
G75*
G03X175750000Y-100100000I0J-700000D01*
G01*
X177750000Y-100100000D02*
G75*
G03X177050000Y-99400000I-700000J0D01*
G01*
X177050000Y-103500000D02*
G75*
G03X177750000Y-102800000I0J700000D01*
G01*
X175750000Y-102800000D02*
G75*
G03X176450000Y-103500000I700000J0D01*
G01*
X175750000Y-100050000D02*
X175750000Y-102850000D01*
X176450000Y-103500000D02*
X177050000Y-103500000D01*
X177750000Y-102850000D02*
X177750000Y-100050000D01*
X177050000Y-99400000D02*
X176450000Y-99400000D01*
X177950000Y-100250000D02*
X178250000Y-99950000D01*
X178250000Y-99950000D02*
X178250000Y-100550000D01*
X177950000Y-100250000D02*
X178250000Y-100550000D01*
X175230000Y-63230000D02*
X124030000Y-63230000D01*
X175230000Y-68230000D02*
X175230000Y-63230000D01*
X124030000Y-68230000D02*
X175230000Y-68230000D01*
X124030000Y-63230000D02*
X124030000Y-68230000D01*
D11*
X174402380Y-100616666D02*
X175116666Y-100616666D01*
X175259523Y-100569047D01*
X175354761Y-100473809D01*
X175402380Y-100330952D01*
X175402380Y-100235714D01*
X175402380Y-101092857D02*
X174402380Y-101092857D01*
X174402380Y-101473809D01*
X174450000Y-101569047D01*
X174497619Y-101616666D01*
X174592857Y-101664285D01*
X174735714Y-101664285D01*
X174830952Y-101616666D01*
X174878571Y-101569047D01*
X174926190Y-101473809D01*
X174926190Y-101092857D01*
X175402380Y-102616666D02*
X175402380Y-102045238D01*
X175402380Y-102330952D02*
X174402380Y-102330952D01*
X174545238Y-102235714D01*
X174640476Y-102140476D01*
X174688095Y-102045238D01*
D10*
X150030000Y-65072857D02*
X150030000Y-65930000D01*
X150087142Y-66101428D01*
X150201428Y-66215714D01*
X150372857Y-66272857D01*
X150487142Y-66272857D01*
X149572857Y-65072857D02*
X148830000Y-65072857D01*
X149230000Y-65530000D01*
X149058571Y-65530000D01*
X148944285Y-65587142D01*
X148887142Y-65644285D01*
X148830000Y-65758571D01*
X148830000Y-66044285D01*
X148887142Y-66158571D01*
X148944285Y-66215714D01*
X149058571Y-66272857D01*
X149401428Y-66272857D01*
X149515714Y-66215714D01*
X149572857Y-66158571D01*
M02*
