M48
; DRILL file {KiCad (5.1.2-1)-1} date Friday, August 16, 2019 at 12:07:12 AM
; FORMAT={-:-/ absolute / metric / decimal}
; #@! TF.CreationDate,2019-08-16T00:07:12-07:00
; #@! TF.GenerationSoftware,Kicad,Pcbnew,(5.1.2-1)-1
FMAT,2
METRIC
T1C0.400
T2C0.500
T3C0.700
T4C0.762
T5C0.900
T6C1.060
T7C2.750
%
G90
G05
T1
X124.6Y-94.75
X126.55Y-104.05
X126.55Y-105.05
X126.55Y-106.05
X126.55Y-107.05
X126.55Y-108.05
X127.05Y-81.05
X127.05Y-82.05
X127.05Y-83.05
X127.05Y-89.55
X127.05Y-90.55
X127.05Y-91.55
X127.55Y-104.05
X127.55Y-105.05
X127.55Y-106.05
X127.55Y-107.05
X127.55Y-108.05
X128.05Y-81.05
X128.05Y-82.05
X128.05Y-83.05
X128.05Y-89.55
X128.05Y-90.55
X128.05Y-91.55
X129.25Y-71.5
X129.25Y-72.5
X129.25Y-73.5
X129.25Y-74.5
X129.8Y-77.05
X129.8Y-84.3
X129.8Y-85.55
X129.8Y-92.8
X130.25Y-71.5
X130.25Y-72.5
X130.25Y-73.5
X130.25Y-74.5
X130.8Y-77.05
X130.8Y-84.3
X130.8Y-85.55
X130.8Y-92.8
X131.25Y-71.5
X131.25Y-72.5
X131.25Y-73.5
X131.25Y-74.5
X131.8Y-77.05
X131.8Y-84.3
X131.8Y-85.55
X131.8Y-92.8
X132.0Y-63.5
X132.8Y-77.05
X132.8Y-84.3
X132.8Y-85.55
X132.8Y-92.8
X133.8Y-77.05
X133.8Y-84.3
X133.8Y-85.55
X133.8Y-92.8
X137.05Y-79.55
X137.05Y-88.05
X137.9Y-101.95
X138.05Y-79.55
X138.05Y-80.55
X138.05Y-81.55
X138.05Y-88.05
X138.05Y-89.05
X138.05Y-90.05
X139.05Y-79.55
X139.05Y-80.55
X139.05Y-81.55
X139.05Y-88.05
X139.05Y-89.05
X139.05Y-90.05
X140.0Y-103.05
X140.5Y-76.0
X140.9Y-103.05
X141.8Y-103.05
X142.7Y-103.05
X143.28Y-70.175
X143.6Y-103.05
X145.75Y-70.5
X147.2Y-101.95
X148.25Y-70.5
X148.25Y-75.75
X149.5Y-70.5
X149.5Y-75.75
X150.75Y-70.5
X150.75Y-75.75
X151.0Y-85.25
X152.25Y-79.5
X154.8Y-102.05
X155.7Y-102.05
X156.6Y-102.05
X157.5Y-86.75
X158.05Y-102.95
X158.8Y-101.55
X159.695Y-112.582
X159.7Y-101.55
X159.75Y-111.5
X160.75Y-95.0
X162.0Y-97.5
X163.75Y-111.25
X164.0Y-74.0
X164.25Y-97.5
X165.0Y-73.25
X165.0Y-101.5
X165.0Y-102.5
X165.0Y-103.5
X165.0Y-104.5
X165.0Y-105.5
X165.0Y-106.5
X165.0Y-107.5
X165.0Y-109.0
X165.0Y-110.0
X165.0Y-111.25
X166.0Y-80.5
X166.0Y-111.25
X167.0Y-111.25
X168.0Y-111.25
X169.4Y-92.85
X169.5Y-111.25
X170.75Y-111.25
X171.75Y-111.25
X172.5Y-69.25
X172.75Y-111.25
X173.5Y-79.5
X173.5Y-82.0
X173.75Y-101.5
X173.75Y-102.5
X173.75Y-103.5
X173.75Y-104.5
X173.75Y-105.5
X173.75Y-106.5
X173.75Y-107.5
X173.75Y-109.0
X173.75Y-110.0
X173.75Y-111.25
X174.75Y-97.25
X174.915Y-92.835
X175.5Y-105.5
X175.75Y-69.25
X176.75Y-98.5
X176.75Y-105.0
T2
X176.26Y-114.75
X176.92Y-113.17
X176.92Y-116.33
X178.5Y-112.51
X178.5Y-116.99
X180.08Y-113.17
X180.08Y-116.33
X180.74Y-114.75
X118.26Y-114.75
X118.92Y-113.17
X118.92Y-116.33
X120.5Y-112.51
X120.5Y-116.99
X122.08Y-113.17
X122.08Y-116.33
X122.74Y-114.75
X118.26Y-65.75
X118.92Y-64.17
X118.92Y-67.33
X120.5Y-63.51
X120.5Y-67.99
X122.08Y-64.17
X122.08Y-67.33
X122.74Y-65.75
X176.26Y-65.75
X176.92Y-64.17
X176.92Y-67.33
X178.5Y-63.51
X178.5Y-67.99
X180.08Y-64.17
X180.08Y-67.33
X180.74Y-65.75
T3
X143.1Y-105.65
X143.1Y-107.25
T4
X153.75Y-88.0
X153.75Y-85.5
X153.75Y-83.0
X153.75Y-80.5
X177.5Y-110.0
X177.5Y-107.0
T5
X153.0Y-106.25
X158.0Y-106.25
T6
X179.75Y-98.96
X179.75Y-101.5
X179.75Y-104.04
X153.0Y-71.0
X155.54Y-71.0
X158.08Y-71.0
X160.62Y-71.0
X125.5Y-64.46
X125.5Y-67.0
X128.04Y-64.46
X128.04Y-67.0
X130.58Y-64.46
X130.58Y-67.0
X133.12Y-64.46
X133.12Y-67.0
X135.66Y-64.46
X135.66Y-67.0
X138.2Y-64.46
X138.2Y-67.0
X140.74Y-64.46
X140.74Y-67.0
X143.28Y-64.46
X143.28Y-67.0
X145.82Y-64.46
X145.82Y-67.0
X148.36Y-64.46
X148.36Y-67.0
X150.9Y-64.46
X150.9Y-67.0
X153.44Y-64.46
X153.44Y-67.0
X155.98Y-64.46
X155.98Y-67.0
X158.52Y-64.46
X158.52Y-67.0
X161.06Y-64.46
X161.06Y-67.0
X163.6Y-64.46
X163.6Y-67.0
X166.14Y-64.46
X166.14Y-67.0
X168.68Y-64.46
X168.68Y-67.0
X171.22Y-64.46
X171.22Y-67.0
X173.76Y-64.46
X173.76Y-67.0
X118.75Y-74.0
X121.29Y-74.0
X123.83Y-74.0
X118.8Y-70.75
X121.34Y-70.75
X123.88Y-70.75
T7
X178.5Y-114.75
X120.5Y-114.75
X120.5Y-65.75
X178.5Y-65.75
T0
M30
