G04 #@! TF.GenerationSoftware,KiCad,Pcbnew,(5.1.2-1)-1*
G04 #@! TF.CreationDate,2019-08-16T00:07:05-07:00*
G04 #@! TF.ProjectId,RaceOn-PiHAT,52616365-4f6e-42d5-9069-4841542e6b69,1*
G04 #@! TF.SameCoordinates,Original*
G04 #@! TF.FileFunction,Copper,L2,Bot*
G04 #@! TF.FilePolarity,Positive*
%FSLAX46Y46*%
G04 Gerber Fmt 4.6, Leading zero omitted, Abs format (unit mm)*
G04 Created by KiCad (PCBNEW (5.1.2-1)-1) date 2019-08-16 00:07:05*
%MOMM*%
%LPD*%
G04 APERTURE LIST*
%ADD10C,0.100000*%
%ADD11C,1.350000*%
%ADD12R,1.350000X1.350000*%
%ADD13C,0.500000*%
%ADD14R,1.500000X1.000000*%
%ADD15C,1.524000*%
%ADD16C,1.590000*%
%ADD17R,1.590000X1.590000*%
%ADD18C,0.750000*%
%ADD19C,6.200000*%
%ADD20C,1.400000*%
%ADD21C,0.800000*%
%ADD22C,0.250000*%
%ADD23C,0.783000*%
%ADD24C,0.254000*%
%ADD25C,0.200000*%
G04 APERTURE END LIST*
D10*
G36*
X176450000Y-100550000D02*
G01*
X176450000Y-101050000D01*
X177050000Y-101050000D01*
X177050000Y-100550000D01*
X176450000Y-100550000D01*
G37*
D11*
X153000000Y-106250000D03*
D12*
X158000000Y-106250000D03*
D13*
X176750000Y-100150000D03*
D10*
G36*
X176000000Y-100700000D02*
G01*
X176000000Y-100150000D01*
X176000602Y-100150000D01*
X176000602Y-100125466D01*
X176005412Y-100076635D01*
X176014984Y-100028510D01*
X176029228Y-99981555D01*
X176048005Y-99936222D01*
X176071136Y-99892949D01*
X176098396Y-99852150D01*
X176129524Y-99814221D01*
X176164221Y-99779524D01*
X176202150Y-99748396D01*
X176242949Y-99721136D01*
X176286222Y-99698005D01*
X176331555Y-99679228D01*
X176378510Y-99664984D01*
X176426635Y-99655412D01*
X176475466Y-99650602D01*
X176500000Y-99650602D01*
X176500000Y-99650000D01*
X177000000Y-99650000D01*
X177000000Y-99650602D01*
X177024534Y-99650602D01*
X177073365Y-99655412D01*
X177121490Y-99664984D01*
X177168445Y-99679228D01*
X177213778Y-99698005D01*
X177257051Y-99721136D01*
X177297850Y-99748396D01*
X177335779Y-99779524D01*
X177370476Y-99814221D01*
X177401604Y-99852150D01*
X177428864Y-99892949D01*
X177451995Y-99936222D01*
X177470772Y-99981555D01*
X177485016Y-100028510D01*
X177494588Y-100076635D01*
X177499398Y-100125466D01*
X177499398Y-100150000D01*
X177500000Y-100150000D01*
X177500000Y-100700000D01*
X176000000Y-100700000D01*
X176000000Y-100700000D01*
G37*
D14*
X176750000Y-101450000D03*
D13*
X176750000Y-102750000D03*
D10*
G36*
X177499398Y-102750000D02*
G01*
X177499398Y-102774534D01*
X177494588Y-102823365D01*
X177485016Y-102871490D01*
X177470772Y-102918445D01*
X177451995Y-102963778D01*
X177428864Y-103007051D01*
X177401604Y-103047850D01*
X177370476Y-103085779D01*
X177335779Y-103120476D01*
X177297850Y-103151604D01*
X177257051Y-103178864D01*
X177213778Y-103201995D01*
X177168445Y-103220772D01*
X177121490Y-103235016D01*
X177073365Y-103244588D01*
X177024534Y-103249398D01*
X177000000Y-103249398D01*
X177000000Y-103250000D01*
X176500000Y-103250000D01*
X176500000Y-103249398D01*
X176475466Y-103249398D01*
X176426635Y-103244588D01*
X176378510Y-103235016D01*
X176331555Y-103220772D01*
X176286222Y-103201995D01*
X176242949Y-103178864D01*
X176202150Y-103151604D01*
X176164221Y-103120476D01*
X176129524Y-103085779D01*
X176098396Y-103047850D01*
X176071136Y-103007051D01*
X176048005Y-102963778D01*
X176029228Y-102918445D01*
X176014984Y-102871490D01*
X176005412Y-102823365D01*
X176000602Y-102774534D01*
X176000602Y-102750000D01*
X176000000Y-102750000D01*
X176000000Y-102200000D01*
X177500000Y-102200000D01*
X177500000Y-102750000D01*
X177499398Y-102750000D01*
X177499398Y-102750000D01*
G37*
D15*
X153750000Y-88000000D03*
X153750000Y-85500000D03*
X153750000Y-83000000D03*
X153750000Y-80500000D03*
X177500000Y-110000000D03*
X177500000Y-107000000D03*
D16*
X160620000Y-71000000D03*
X158080000Y-71000000D03*
X155540000Y-71000000D03*
D17*
X153000000Y-71000000D03*
D16*
X179750000Y-98960000D03*
X179750000Y-101500000D03*
D17*
X179750000Y-104040000D03*
D16*
X123830000Y-74000000D03*
X121290000Y-74000000D03*
D17*
X118750000Y-74000000D03*
D16*
X123880000Y-70750000D03*
X121340000Y-70750000D03*
D17*
X118800000Y-70750000D03*
D16*
X173760000Y-64460000D03*
X173760000Y-67000000D03*
X171220000Y-64460000D03*
X171220000Y-67000000D03*
X168680000Y-64460000D03*
X168680000Y-67000000D03*
X166140000Y-64460000D03*
X166140000Y-67000000D03*
X163600000Y-64460000D03*
X163600000Y-67000000D03*
X161060000Y-64460000D03*
X161060000Y-67000000D03*
X158520000Y-64460000D03*
X158520000Y-67000000D03*
X155980000Y-64460000D03*
X155980000Y-67000000D03*
X153440000Y-64460000D03*
X153440000Y-67000000D03*
X150900000Y-64460000D03*
X150900000Y-67000000D03*
X148360000Y-64460000D03*
X148360000Y-67000000D03*
X145820000Y-64460000D03*
X145820000Y-67000000D03*
X143280000Y-64460000D03*
X143280000Y-67000000D03*
X140740000Y-64460000D03*
X140740000Y-67000000D03*
X138200000Y-64460000D03*
X138200000Y-67000000D03*
X135660000Y-64460000D03*
X135660000Y-67000000D03*
X133120000Y-64460000D03*
X133120000Y-67000000D03*
X130580000Y-64460000D03*
X130580000Y-67000000D03*
X128040000Y-64460000D03*
X128040000Y-67000000D03*
X125500000Y-64460000D03*
D17*
X125500000Y-67000000D03*
D18*
X180080000Y-113170000D03*
X180740000Y-114750000D03*
X180080000Y-116330000D03*
X178500000Y-116990000D03*
X176920000Y-116330000D03*
X176260000Y-114750000D03*
X176920000Y-113170000D03*
X178500000Y-112510000D03*
D19*
X178500000Y-114750000D03*
D18*
X180080000Y-64170000D03*
X180740000Y-65750000D03*
X180080000Y-67330000D03*
X178500000Y-67990000D03*
X176920000Y-67330000D03*
X176260000Y-65750000D03*
X176920000Y-64170000D03*
X178500000Y-63510000D03*
D19*
X178500000Y-65750000D03*
D18*
X122080000Y-113170000D03*
X122740000Y-114750000D03*
X122080000Y-116330000D03*
X120500000Y-116990000D03*
X118920000Y-116330000D03*
X118260000Y-114750000D03*
X118920000Y-113170000D03*
X120500000Y-112510000D03*
D19*
X120500000Y-114750000D03*
D18*
X122080000Y-64170000D03*
X122740000Y-65750000D03*
X122080000Y-67330000D03*
X120500000Y-67990000D03*
X118920000Y-67330000D03*
X118260000Y-65750000D03*
X118920000Y-64170000D03*
X120500000Y-63510000D03*
D19*
X120500000Y-65750000D03*
D20*
X143100000Y-105650000D03*
D21*
X126550000Y-104050000D03*
X126550000Y-107050000D03*
X126550000Y-108050000D03*
X126550000Y-106050000D03*
X127550000Y-104050000D03*
X126550000Y-105050000D03*
X137050000Y-88050000D03*
X138050000Y-88050000D03*
X139050000Y-88050000D03*
X139050000Y-89050000D03*
X138050000Y-89050000D03*
X139050000Y-90050000D03*
X138050000Y-90050000D03*
X137050000Y-79550000D03*
X138050000Y-79550000D03*
X139050000Y-79550000D03*
X139050000Y-80550000D03*
X139050000Y-81550000D03*
X138050000Y-81550000D03*
X138050000Y-80550000D03*
X127550000Y-108050002D03*
X127550000Y-107050000D03*
X127550000Y-106050000D03*
X127550000Y-105050000D03*
D20*
X143100000Y-107250000D03*
D21*
X143600000Y-103050000D03*
X142700000Y-103050000D03*
X141800000Y-103050000D03*
X140900000Y-103050000D03*
X140000000Y-103050000D03*
X124600000Y-94750000D03*
X159700000Y-101550000D03*
X158800000Y-101550000D03*
X156600000Y-102050000D03*
X155700000Y-102050000D03*
X154800000Y-102050000D03*
X172750000Y-111250000D03*
X171750000Y-111250000D03*
X170750000Y-111250000D03*
X168000000Y-111250000D03*
X167000000Y-111250000D03*
X166000000Y-111250000D03*
X173750000Y-111250000D03*
X165000000Y-111250000D03*
X169500000Y-111250000D03*
X165000000Y-110000000D03*
X165000000Y-109000000D03*
X165000000Y-107500000D03*
X165000000Y-106500000D03*
X165000000Y-105500000D03*
X165000000Y-104500000D03*
X165000000Y-103500000D03*
X165000000Y-102500000D03*
X165000000Y-101500000D03*
X173750000Y-101500000D03*
X173750000Y-102500000D03*
X173750000Y-103500000D03*
X173750000Y-104500000D03*
X173750000Y-105500000D03*
X173750000Y-106500000D03*
X173750000Y-107500000D03*
X173750000Y-109000000D03*
X173750000Y-110000000D03*
X173500000Y-79500000D03*
X173500000Y-82000000D03*
X151000000Y-85250000D03*
X140500000Y-76000000D03*
X174915000Y-92835000D03*
X169400000Y-92850000D03*
X159695299Y-112582052D03*
X160750000Y-95000000D03*
X158050000Y-102950000D03*
X176750000Y-105000000D03*
X128050000Y-89550000D03*
X127050000Y-89550000D03*
X127050000Y-90550000D03*
X128050000Y-90550000D03*
X127050000Y-91550000D03*
X128050000Y-91550000D03*
X127050000Y-83050000D03*
X127050000Y-82050000D03*
X127050000Y-81050000D03*
X128050000Y-81050000D03*
X128050000Y-82050000D03*
X128050000Y-83050000D03*
X174750000Y-97250000D03*
X175500000Y-105500000D03*
X176750000Y-98500000D03*
X164250000Y-97500000D03*
X162000000Y-97500000D03*
X132000000Y-63500000D03*
X163750000Y-111250000D03*
X159750000Y-111500000D03*
X147200000Y-101950000D03*
X137900000Y-101950000D03*
X150750000Y-70500000D03*
X150750000Y-75750000D03*
X157500000Y-86750000D03*
X165000000Y-73250000D03*
X166000000Y-80500000D03*
X152250000Y-79500000D03*
X148250000Y-70500000D03*
X148250000Y-75750000D03*
X149500000Y-70500000D03*
X149500000Y-75750000D03*
X129800000Y-84300000D03*
X130800000Y-84300000D03*
X131800000Y-84300000D03*
X132800000Y-84300000D03*
X133800000Y-84300000D03*
X133800000Y-77050000D03*
X132800000Y-77050000D03*
X131800000Y-77050000D03*
X130800000Y-77050000D03*
X129800000Y-77050000D03*
X129800000Y-92800000D03*
X130800000Y-92800000D03*
X131800000Y-92800000D03*
X132800000Y-92800000D03*
X133800000Y-92800000D03*
X133800000Y-85550000D03*
X132800000Y-85550000D03*
X131800000Y-85550000D03*
X130800000Y-85550000D03*
X129800000Y-85550000D03*
X175750000Y-69250000D03*
X172500000Y-69250000D03*
X164000000Y-74000000D03*
X145750000Y-70500000D03*
X143280000Y-70175010D03*
X129250000Y-71500000D03*
X130250000Y-71500000D03*
X131250000Y-71500000D03*
X131250000Y-72500000D03*
X130250000Y-72500000D03*
X129250000Y-72500000D03*
X129250000Y-73500000D03*
X130250000Y-73500000D03*
X131250000Y-73500000D03*
X131250000Y-74500000D03*
X130250000Y-74500000D03*
X129250000Y-74500000D03*
D22*
X124600000Y-94750000D02*
X126200000Y-94750000D01*
X160800000Y-98215685D02*
X160750000Y-95000000D01*
X160600000Y-102650000D02*
X160600000Y-98415685D01*
X160600000Y-98415685D02*
X160800000Y-98215685D01*
X160300000Y-102950000D02*
X160600000Y-102650000D01*
X158050000Y-102950000D02*
X160300000Y-102950000D01*
D23*
X176750000Y-105000000D02*
X176750000Y-102750000D01*
X174750000Y-97815685D02*
X175250000Y-98315685D01*
X174750000Y-97250000D02*
X174750000Y-97815685D01*
X175250000Y-98315685D02*
X175250000Y-105250000D01*
X175250000Y-105250000D02*
X175500000Y-105500000D01*
X176750000Y-100150000D02*
X176750000Y-98500000D01*
D22*
X164250000Y-97500000D02*
X162000000Y-97500000D01*
X129250000Y-63500000D02*
X128040000Y-64710000D01*
X131600001Y-63100001D02*
X129649999Y-63100001D01*
X129649999Y-63100001D02*
X129250000Y-63500000D01*
X132000000Y-63500000D02*
X131600001Y-63100001D01*
X163750000Y-111250000D02*
X163750000Y-114500000D01*
X161462600Y-115604390D02*
X161267234Y-115409024D01*
X162645610Y-115604390D02*
X161462600Y-115604390D01*
X163750000Y-114500000D02*
X162645610Y-115604390D01*
X160649990Y-114791780D02*
X160649990Y-114394978D01*
X161267234Y-115409024D02*
X160649990Y-114791780D01*
X160649990Y-114394978D02*
X160649990Y-113000000D01*
X160649990Y-113000000D02*
X160649990Y-112149990D01*
X160399990Y-112149990D02*
X159750000Y-111500000D01*
X160649990Y-112149990D02*
X160399990Y-112149990D01*
X137900000Y-101950000D02*
X147200000Y-101950000D01*
X150750000Y-70500000D02*
X150750000Y-75750000D01*
X156250000Y-85500000D02*
X153750000Y-85500000D01*
X157500000Y-86750000D02*
X156250000Y-85500000D01*
X165019999Y-65830001D02*
X165019999Y-72980001D01*
X166140000Y-64710000D02*
X165019999Y-65830001D01*
X165000000Y-73000000D02*
X165000000Y-73250000D01*
X165019999Y-72980001D02*
X165000000Y-73000000D01*
X155500000Y-80500000D02*
X153750000Y-80500000D01*
X166000000Y-80500000D02*
X153750000Y-80500000D01*
X152500000Y-83000000D02*
X153750000Y-83000000D01*
X152250000Y-82750000D02*
X152500000Y-83000000D01*
X152250000Y-79500000D02*
X152250000Y-82750000D01*
X148250000Y-70500000D02*
X148250000Y-75750000D01*
X149500000Y-75750000D02*
X149500000Y-70500000D01*
D23*
X176800000Y-101500000D02*
X176750000Y-101450000D01*
X179750000Y-101500000D02*
X176800000Y-101500000D01*
D22*
X175750000Y-69250000D02*
X172500000Y-69250000D01*
X163600000Y-67250000D02*
X163600000Y-73600000D01*
X163600000Y-73600000D02*
X164000000Y-74000000D01*
X145820000Y-67250000D02*
X145820000Y-70180000D01*
X145750000Y-70250000D02*
X145750000Y-70500000D01*
X145820000Y-70180000D02*
X145750000Y-70250000D01*
X143280000Y-69720000D02*
X143280000Y-67250000D01*
X143280000Y-70175010D02*
X143280000Y-69720000D01*
D24*
G36*
X128873000Y-71000000D02*
G01*
X128875440Y-71024776D01*
X128882667Y-71048601D01*
X128894403Y-71070557D01*
X128910197Y-71089803D01*
X128929443Y-71105597D01*
X128951399Y-71117333D01*
X128975224Y-71124560D01*
X129000000Y-71127000D01*
X131623000Y-71127000D01*
X131623000Y-74873000D01*
X124685170Y-74873000D01*
X124779190Y-74778980D01*
X124912923Y-74578834D01*
X125005039Y-74356444D01*
X125052000Y-74120357D01*
X125052000Y-73879643D01*
X125005039Y-73643556D01*
X124912923Y-73421166D01*
X124779190Y-73221020D01*
X124627000Y-73068830D01*
X124627000Y-71720558D01*
X124658980Y-71699190D01*
X124829190Y-71528980D01*
X124962923Y-71328834D01*
X125055039Y-71106444D01*
X125102000Y-70870357D01*
X125102000Y-70629643D01*
X125055039Y-70393556D01*
X124962923Y-70171166D01*
X124829190Y-69971020D01*
X124658980Y-69800810D01*
X124627000Y-69779442D01*
X124627000Y-66377000D01*
X128873000Y-66377000D01*
X128873000Y-71000000D01*
X128873000Y-71000000D01*
G37*
X128873000Y-71000000D02*
X128875440Y-71024776D01*
X128882667Y-71048601D01*
X128894403Y-71070557D01*
X128910197Y-71089803D01*
X128929443Y-71105597D01*
X128951399Y-71117333D01*
X128975224Y-71124560D01*
X129000000Y-71127000D01*
X131623000Y-71127000D01*
X131623000Y-74873000D01*
X124685170Y-74873000D01*
X124779190Y-74778980D01*
X124912923Y-74578834D01*
X125005039Y-74356444D01*
X125052000Y-74120357D01*
X125052000Y-73879643D01*
X125005039Y-73643556D01*
X124912923Y-73421166D01*
X124779190Y-73221020D01*
X124627000Y-73068830D01*
X124627000Y-71720558D01*
X124658980Y-71699190D01*
X124829190Y-71528980D01*
X124962923Y-71328834D01*
X125055039Y-71106444D01*
X125102000Y-70870357D01*
X125102000Y-70629643D01*
X125055039Y-70393556D01*
X124962923Y-70171166D01*
X124829190Y-69971020D01*
X124658980Y-69800810D01*
X124627000Y-69779442D01*
X124627000Y-66377000D01*
X128873000Y-66377000D01*
X128873000Y-71000000D01*
D25*
G36*
X179414679Y-62225736D02*
G01*
X179667838Y-62436702D01*
X179523246Y-62376810D01*
X178845508Y-62242000D01*
X178154492Y-62242000D01*
X177476754Y-62376810D01*
X176838339Y-62641250D01*
X176263780Y-63025158D01*
X175775158Y-63513780D01*
X175391250Y-64088339D01*
X175126810Y-64726754D01*
X174992000Y-65404492D01*
X174992000Y-66095508D01*
X175126810Y-66773246D01*
X175391250Y-67411661D01*
X175775158Y-67986220D01*
X176263780Y-68474842D01*
X176838339Y-68858750D01*
X177476754Y-69123190D01*
X178154492Y-69258000D01*
X178845508Y-69258000D01*
X179523246Y-69123190D01*
X180161661Y-68858750D01*
X180736220Y-68474842D01*
X181224842Y-67986220D01*
X181567001Y-67474143D01*
X181567000Y-113025856D01*
X181224842Y-112513780D01*
X180736220Y-112025158D01*
X180161661Y-111641250D01*
X179523246Y-111376810D01*
X178845508Y-111242000D01*
X178154492Y-111242000D01*
X177476754Y-111376810D01*
X176838339Y-111641250D01*
X176263780Y-112025158D01*
X175775158Y-112513780D01*
X175391250Y-113088339D01*
X175126810Y-113726754D01*
X174992000Y-114404492D01*
X174992000Y-115095508D01*
X175126810Y-115773246D01*
X175391250Y-116411661D01*
X175775158Y-116986220D01*
X176263780Y-117474842D01*
X176775856Y-117817000D01*
X122224144Y-117817000D01*
X122736220Y-117474842D01*
X123224842Y-116986220D01*
X123608750Y-116411661D01*
X123873190Y-115773246D01*
X124008000Y-115095508D01*
X124008000Y-114404492D01*
X123873190Y-113726754D01*
X123608750Y-113088339D01*
X123224842Y-112513780D01*
X122736220Y-112025158D01*
X122161661Y-111641250D01*
X121523246Y-111376810D01*
X120845508Y-111242000D01*
X120154492Y-111242000D01*
X119476754Y-111376810D01*
X118838339Y-111641250D01*
X118263780Y-112025158D01*
X117775158Y-112513780D01*
X117433000Y-113025856D01*
X117433000Y-106143334D01*
X151917000Y-106143334D01*
X151917000Y-106356666D01*
X151958619Y-106565899D01*
X152040258Y-106762993D01*
X152158779Y-106940372D01*
X152309628Y-107091221D01*
X152487007Y-107209742D01*
X152684101Y-107291381D01*
X152893334Y-107333000D01*
X153106666Y-107333000D01*
X153315899Y-107291381D01*
X153512993Y-107209742D01*
X153690372Y-107091221D01*
X153841221Y-106940372D01*
X153959742Y-106762993D01*
X154041381Y-106565899D01*
X154083000Y-106356666D01*
X154083000Y-106143334D01*
X154041381Y-105934101D01*
X153959742Y-105737007D01*
X153851493Y-105575000D01*
X156915026Y-105575000D01*
X156915026Y-106925000D01*
X156922904Y-107004982D01*
X156946233Y-107081890D01*
X156984119Y-107152769D01*
X157035105Y-107214895D01*
X157097231Y-107265881D01*
X157168110Y-107303767D01*
X157245018Y-107327096D01*
X157325000Y-107334974D01*
X158675000Y-107334974D01*
X158754982Y-107327096D01*
X158831890Y-107303767D01*
X158902769Y-107265881D01*
X158964895Y-107214895D01*
X159015881Y-107152769D01*
X159053767Y-107081890D01*
X159077096Y-107004982D01*
X159084974Y-106925000D01*
X159084974Y-105575000D01*
X159077096Y-105495018D01*
X159053767Y-105418110D01*
X159015881Y-105347231D01*
X158964895Y-105285105D01*
X158902769Y-105234119D01*
X158831890Y-105196233D01*
X158754982Y-105172904D01*
X158675000Y-105165026D01*
X157325000Y-105165026D01*
X157245018Y-105172904D01*
X157168110Y-105196233D01*
X157097231Y-105234119D01*
X157035105Y-105285105D01*
X156984119Y-105347231D01*
X156946233Y-105418110D01*
X156922904Y-105495018D01*
X156915026Y-105575000D01*
X153851493Y-105575000D01*
X153841221Y-105559628D01*
X153690372Y-105408779D01*
X153512993Y-105290258D01*
X153315899Y-105208619D01*
X153106666Y-105167000D01*
X152893334Y-105167000D01*
X152684101Y-105208619D01*
X152487007Y-105290258D01*
X152309628Y-105408779D01*
X152158779Y-105559628D01*
X152040258Y-105737007D01*
X151958619Y-105934101D01*
X151917000Y-106143334D01*
X117433000Y-106143334D01*
X117433000Y-102870419D01*
X157242000Y-102870419D01*
X157242000Y-103029581D01*
X157273051Y-103185685D01*
X157333959Y-103332732D01*
X157422385Y-103465070D01*
X157534930Y-103577615D01*
X157667268Y-103666041D01*
X157814315Y-103726949D01*
X157970419Y-103758000D01*
X158129581Y-103758000D01*
X158285685Y-103726949D01*
X158432732Y-103666041D01*
X158565070Y-103577615D01*
X158659685Y-103483000D01*
X160273825Y-103483000D01*
X160300000Y-103485578D01*
X160404486Y-103475287D01*
X160504957Y-103444810D01*
X160567000Y-103411647D01*
X160567001Y-111563225D01*
X160558000Y-111554224D01*
X160558000Y-111420419D01*
X160526949Y-111264315D01*
X160466041Y-111117268D01*
X160377615Y-110984930D01*
X160265070Y-110872385D01*
X160132732Y-110783959D01*
X159985685Y-110723051D01*
X159829581Y-110692000D01*
X159670419Y-110692000D01*
X159514315Y-110723051D01*
X159367268Y-110783959D01*
X159234930Y-110872385D01*
X159122385Y-110984930D01*
X159033959Y-111117268D01*
X158973051Y-111264315D01*
X158942000Y-111420419D01*
X158942000Y-111579581D01*
X158973051Y-111735685D01*
X159033959Y-111882732D01*
X159122385Y-112015070D01*
X159234930Y-112127615D01*
X159367268Y-112216041D01*
X159514315Y-112276949D01*
X159670419Y-112308000D01*
X159804224Y-112308000D01*
X160004593Y-112508369D01*
X160021279Y-112528701D01*
X160102439Y-112595307D01*
X160116990Y-112603085D01*
X160116990Y-113026174D01*
X160116991Y-113026184D01*
X160116990Y-114368803D01*
X160116990Y-114765605D01*
X160114412Y-114791780D01*
X160124703Y-114896266D01*
X160132591Y-114922270D01*
X160155180Y-114996736D01*
X160204673Y-115089331D01*
X160271279Y-115170491D01*
X160291616Y-115187181D01*
X160908854Y-115804420D01*
X160908860Y-115804425D01*
X161067199Y-115962764D01*
X161083889Y-115983101D01*
X161165049Y-116049707D01*
X161257643Y-116099200D01*
X161358114Y-116129677D01*
X161436425Y-116137390D01*
X161436427Y-116137390D01*
X161462599Y-116139968D01*
X161488772Y-116137390D01*
X162619435Y-116137390D01*
X162645610Y-116139968D01*
X162750096Y-116129677D01*
X162751540Y-116129239D01*
X162850567Y-116099200D01*
X162943161Y-116049707D01*
X163024321Y-115983101D01*
X163041011Y-115962764D01*
X164108379Y-114895397D01*
X164128711Y-114878711D01*
X164195317Y-114797551D01*
X164244810Y-114704957D01*
X164275287Y-114604486D01*
X164283000Y-114526175D01*
X164283000Y-114526173D01*
X164285578Y-114500001D01*
X164283000Y-114473828D01*
X164283000Y-111859685D01*
X164377615Y-111765070D01*
X164466041Y-111632732D01*
X164526949Y-111485685D01*
X164558000Y-111329581D01*
X164558000Y-111170419D01*
X164526949Y-111014315D01*
X164466041Y-110867268D01*
X164377615Y-110734930D01*
X164265070Y-110622385D01*
X164132732Y-110533959D01*
X163985685Y-110473051D01*
X163829581Y-110442000D01*
X163670419Y-110442000D01*
X163514315Y-110473051D01*
X163433000Y-110506732D01*
X163433000Y-109884765D01*
X176330000Y-109884765D01*
X176330000Y-110115235D01*
X176374963Y-110341276D01*
X176463160Y-110554203D01*
X176591202Y-110745831D01*
X176754169Y-110908798D01*
X176945797Y-111036840D01*
X177158724Y-111125037D01*
X177384765Y-111170000D01*
X177615235Y-111170000D01*
X177841276Y-111125037D01*
X178054203Y-111036840D01*
X178245831Y-110908798D01*
X178408798Y-110745831D01*
X178536840Y-110554203D01*
X178625037Y-110341276D01*
X178670000Y-110115235D01*
X178670000Y-109884765D01*
X178625037Y-109658724D01*
X178536840Y-109445797D01*
X178408798Y-109254169D01*
X178245831Y-109091202D01*
X178054203Y-108963160D01*
X177841276Y-108874963D01*
X177615235Y-108830000D01*
X177384765Y-108830000D01*
X177158724Y-108874963D01*
X176945797Y-108963160D01*
X176754169Y-109091202D01*
X176591202Y-109254169D01*
X176463160Y-109445797D01*
X176374963Y-109658724D01*
X176330000Y-109884765D01*
X163433000Y-109884765D01*
X163433000Y-106884765D01*
X176330000Y-106884765D01*
X176330000Y-107115235D01*
X176374963Y-107341276D01*
X176463160Y-107554203D01*
X176591202Y-107745831D01*
X176754169Y-107908798D01*
X176945797Y-108036840D01*
X177158724Y-108125037D01*
X177384765Y-108170000D01*
X177615235Y-108170000D01*
X177841276Y-108125037D01*
X178054203Y-108036840D01*
X178245831Y-107908798D01*
X178408798Y-107745831D01*
X178536840Y-107554203D01*
X178625037Y-107341276D01*
X178670000Y-107115235D01*
X178670000Y-106884765D01*
X178625037Y-106658724D01*
X178536840Y-106445797D01*
X178408798Y-106254169D01*
X178245831Y-106091202D01*
X178054203Y-105963160D01*
X177841276Y-105874963D01*
X177615235Y-105830000D01*
X177384765Y-105830000D01*
X177158724Y-105874963D01*
X176945797Y-105963160D01*
X176754169Y-106091202D01*
X176591202Y-106254169D01*
X176463160Y-106445797D01*
X176374963Y-106658724D01*
X176330000Y-106884765D01*
X163433000Y-106884765D01*
X163433000Y-99228728D01*
X163430837Y-99206766D01*
X163430837Y-99193785D01*
X163430204Y-99187772D01*
X163408450Y-98993822D01*
X163400289Y-98955428D01*
X163392667Y-98916936D01*
X163390879Y-98911160D01*
X163331866Y-98725130D01*
X163316410Y-98689068D01*
X163301452Y-98652777D01*
X163298576Y-98647458D01*
X163298576Y-98647457D01*
X163298573Y-98647453D01*
X163204554Y-98476433D01*
X163182368Y-98444031D01*
X163160665Y-98411365D01*
X163156815Y-98406712D01*
X163156811Y-98406706D01*
X163156806Y-98406701D01*
X163031361Y-98257201D01*
X163003316Y-98229737D01*
X162975667Y-98201894D01*
X162970993Y-98198083D01*
X162970984Y-98198074D01*
X162970975Y-98198068D01*
X162818882Y-98075782D01*
X162786019Y-98054277D01*
X162754475Y-98033000D01*
X163640315Y-98033000D01*
X163734930Y-98127615D01*
X163867268Y-98216041D01*
X164014315Y-98276949D01*
X164170419Y-98308000D01*
X164329581Y-98308000D01*
X164485685Y-98276949D01*
X164632732Y-98216041D01*
X164765070Y-98127615D01*
X164877615Y-98015070D01*
X164966041Y-97882732D01*
X165026949Y-97735685D01*
X165058000Y-97579581D01*
X165058000Y-97420419D01*
X165026949Y-97264315D01*
X164988057Y-97170419D01*
X173942000Y-97170419D01*
X173942000Y-97329581D01*
X173950500Y-97372313D01*
X173950500Y-97776414D01*
X173946632Y-97815685D01*
X173950500Y-97854956D01*
X173950500Y-97854959D01*
X173962068Y-97972414D01*
X174007785Y-98123121D01*
X174023116Y-98151802D01*
X174082024Y-98262012D01*
X174126073Y-98315685D01*
X174181934Y-98383752D01*
X174212443Y-98408790D01*
X174450500Y-98646847D01*
X174450501Y-105210719D01*
X174446632Y-105250000D01*
X174462069Y-105406729D01*
X174507785Y-105557435D01*
X174582024Y-105696327D01*
X174614325Y-105735685D01*
X174681934Y-105818067D01*
X174712442Y-105843104D01*
X174848175Y-105978838D01*
X174872385Y-106015070D01*
X174984930Y-106127615D01*
X175117268Y-106216041D01*
X175264315Y-106276949D01*
X175420419Y-106308000D01*
X175579581Y-106308000D01*
X175735685Y-106276949D01*
X175882732Y-106216041D01*
X176015070Y-106127615D01*
X176127615Y-106015070D01*
X176216041Y-105882732D01*
X176276949Y-105735685D01*
X176290994Y-105665076D01*
X176367268Y-105716041D01*
X176514315Y-105776949D01*
X176670419Y-105808000D01*
X176829581Y-105808000D01*
X176985685Y-105776949D01*
X177132732Y-105716041D01*
X177265070Y-105627615D01*
X177377615Y-105515070D01*
X177466041Y-105382732D01*
X177526949Y-105235685D01*
X177558000Y-105079581D01*
X177558000Y-104920419D01*
X177549500Y-104877687D01*
X177549500Y-103473666D01*
X177607092Y-103426400D01*
X177676400Y-103357092D01*
X177727386Y-103294967D01*
X177760772Y-103245000D01*
X178545026Y-103245000D01*
X178545026Y-104835000D01*
X178552904Y-104914982D01*
X178576233Y-104991890D01*
X178614119Y-105062769D01*
X178665105Y-105124895D01*
X178727231Y-105175881D01*
X178798110Y-105213767D01*
X178875018Y-105237096D01*
X178955000Y-105244974D01*
X180545000Y-105244974D01*
X180624982Y-105237096D01*
X180701890Y-105213767D01*
X180772769Y-105175881D01*
X180834895Y-105124895D01*
X180885881Y-105062769D01*
X180923767Y-104991890D01*
X180947096Y-104914982D01*
X180954974Y-104835000D01*
X180954974Y-103245000D01*
X180947096Y-103165018D01*
X180923767Y-103088110D01*
X180885881Y-103017231D01*
X180834895Y-102955105D01*
X180772769Y-102904119D01*
X180701890Y-102866233D01*
X180624982Y-102842904D01*
X180545000Y-102835026D01*
X178955000Y-102835026D01*
X178875018Y-102842904D01*
X178798110Y-102866233D01*
X178727231Y-102904119D01*
X178665105Y-102955105D01*
X178614119Y-103017231D01*
X178576233Y-103088110D01*
X178552904Y-103165018D01*
X178545026Y-103245000D01*
X177760772Y-103245000D01*
X177781842Y-103213468D01*
X177819728Y-103142586D01*
X177857237Y-103052030D01*
X177880566Y-102975124D01*
X177899688Y-102878991D01*
X177907566Y-102799009D01*
X177907566Y-102774447D01*
X177909974Y-102750000D01*
X177909974Y-102299500D01*
X178848201Y-102299500D01*
X178983132Y-102434431D01*
X179180166Y-102566085D01*
X179399098Y-102656770D01*
X179631515Y-102703000D01*
X179868485Y-102703000D01*
X180100902Y-102656770D01*
X180319834Y-102566085D01*
X180516868Y-102434431D01*
X180684431Y-102266868D01*
X180816085Y-102069834D01*
X180906770Y-101850902D01*
X180953000Y-101618485D01*
X180953000Y-101381515D01*
X180906770Y-101149098D01*
X180816085Y-100930166D01*
X180684431Y-100733132D01*
X180516868Y-100565569D01*
X180319834Y-100433915D01*
X180100902Y-100343230D01*
X179868485Y-100297000D01*
X179631515Y-100297000D01*
X179399098Y-100343230D01*
X179180166Y-100433915D01*
X178983132Y-100565569D01*
X178848201Y-100700500D01*
X177909925Y-100700500D01*
X177909974Y-100700000D01*
X177909974Y-100150000D01*
X177907566Y-100125553D01*
X177907566Y-100100991D01*
X177899688Y-100021009D01*
X177880566Y-99924876D01*
X177857237Y-99847970D01*
X177819728Y-99757414D01*
X177781842Y-99686532D01*
X177727386Y-99605033D01*
X177676400Y-99542908D01*
X177607092Y-99473600D01*
X177549500Y-99426334D01*
X177549500Y-98622313D01*
X177558000Y-98579581D01*
X177558000Y-98420419D01*
X177526949Y-98264315D01*
X177466041Y-98117268D01*
X177377615Y-97984930D01*
X177265070Y-97872385D01*
X177132732Y-97783959D01*
X176985685Y-97723051D01*
X176829581Y-97692000D01*
X176670419Y-97692000D01*
X176514315Y-97723051D01*
X176367268Y-97783959D01*
X176234930Y-97872385D01*
X176122385Y-97984930D01*
X176033959Y-98117268D01*
X176028953Y-98129355D01*
X175992215Y-98008249D01*
X175982024Y-97989183D01*
X175917976Y-97869357D01*
X175876973Y-97819396D01*
X175818067Y-97747618D01*
X175787554Y-97722577D01*
X175549500Y-97484523D01*
X175549500Y-97372313D01*
X175558000Y-97329581D01*
X175558000Y-97170419D01*
X175526949Y-97014315D01*
X175466041Y-96867268D01*
X175377615Y-96734930D01*
X175265070Y-96622385D01*
X175132732Y-96533959D01*
X174985685Y-96473051D01*
X174829581Y-96442000D01*
X174670419Y-96442000D01*
X174514315Y-96473051D01*
X174367268Y-96533959D01*
X174234930Y-96622385D01*
X174122385Y-96734930D01*
X174033959Y-96867268D01*
X173973051Y-97014315D01*
X173942000Y-97170419D01*
X164988057Y-97170419D01*
X164966041Y-97117268D01*
X164877615Y-96984930D01*
X164765070Y-96872385D01*
X164632732Y-96783959D01*
X164485685Y-96723051D01*
X164329581Y-96692000D01*
X164170419Y-96692000D01*
X164014315Y-96723051D01*
X163867268Y-96783959D01*
X163734930Y-96872385D01*
X163640315Y-96967000D01*
X162609685Y-96967000D01*
X162515070Y-96872385D01*
X162382732Y-96783959D01*
X162235685Y-96723051D01*
X162079581Y-96692000D01*
X161920419Y-96692000D01*
X161764315Y-96723051D01*
X161617268Y-96783959D01*
X161484930Y-96872385D01*
X161372385Y-96984930D01*
X161315257Y-97070428D01*
X161292398Y-95600287D01*
X161377615Y-95515070D01*
X161466041Y-95382732D01*
X161526949Y-95235685D01*
X161558000Y-95079581D01*
X161558000Y-94920419D01*
X161526949Y-94764315D01*
X161466041Y-94617268D01*
X161377615Y-94484930D01*
X161265070Y-94372385D01*
X161132732Y-94283959D01*
X160985685Y-94223051D01*
X160829581Y-94192000D01*
X160670419Y-94192000D01*
X160514315Y-94223051D01*
X160367268Y-94283959D01*
X160234930Y-94372385D01*
X160122385Y-94484930D01*
X160033959Y-94617268D01*
X159973051Y-94764315D01*
X159942000Y-94920419D01*
X159942000Y-95079581D01*
X159973051Y-95235685D01*
X160033959Y-95382732D01*
X160122385Y-95515070D01*
X160226565Y-95619250D01*
X160263557Y-97998353D01*
X160241622Y-98020288D01*
X160221290Y-98036974D01*
X160204604Y-98057306D01*
X160154684Y-98118134D01*
X160105191Y-98210728D01*
X160074713Y-98311199D01*
X160064422Y-98415685D01*
X160067001Y-98441870D01*
X160067000Y-102417000D01*
X158659685Y-102417000D01*
X158565070Y-102322385D01*
X158432732Y-102233959D01*
X158285685Y-102173051D01*
X158129581Y-102142000D01*
X157970419Y-102142000D01*
X157814315Y-102173051D01*
X157667268Y-102233959D01*
X157534930Y-102322385D01*
X157422385Y-102434930D01*
X157333959Y-102567268D01*
X157273051Y-102714315D01*
X157242000Y-102870419D01*
X117433000Y-102870419D01*
X117433000Y-101870419D01*
X137092000Y-101870419D01*
X137092000Y-102029581D01*
X137123051Y-102185685D01*
X137183959Y-102332732D01*
X137272385Y-102465070D01*
X137384930Y-102577615D01*
X137517268Y-102666041D01*
X137664315Y-102726949D01*
X137820419Y-102758000D01*
X137979581Y-102758000D01*
X138135685Y-102726949D01*
X138282732Y-102666041D01*
X138415070Y-102577615D01*
X138509685Y-102483000D01*
X146590315Y-102483000D01*
X146684930Y-102577615D01*
X146817268Y-102666041D01*
X146964315Y-102726949D01*
X147120419Y-102758000D01*
X147279581Y-102758000D01*
X147435685Y-102726949D01*
X147582732Y-102666041D01*
X147715070Y-102577615D01*
X147827615Y-102465070D01*
X147916041Y-102332732D01*
X147976949Y-102185685D01*
X148008000Y-102029581D01*
X148008000Y-101870419D01*
X147976949Y-101714315D01*
X147916041Y-101567268D01*
X147827615Y-101434930D01*
X147715070Y-101322385D01*
X147582732Y-101233959D01*
X147435685Y-101173051D01*
X147279581Y-101142000D01*
X147120419Y-101142000D01*
X146964315Y-101173051D01*
X146817268Y-101233959D01*
X146684930Y-101322385D01*
X146590315Y-101417000D01*
X138509685Y-101417000D01*
X138415070Y-101322385D01*
X138282732Y-101233959D01*
X138135685Y-101173051D01*
X137979581Y-101142000D01*
X137820419Y-101142000D01*
X137664315Y-101173051D01*
X137517268Y-101233959D01*
X137384930Y-101322385D01*
X137272385Y-101434930D01*
X137183959Y-101567268D01*
X137123051Y-101714315D01*
X137092000Y-101870419D01*
X117433000Y-101870419D01*
X117433000Y-75600000D01*
X125800000Y-75600000D01*
X125800000Y-93850000D01*
X125801921Y-93869509D01*
X125807612Y-93888268D01*
X125816853Y-93905557D01*
X125829289Y-93920711D01*
X125844443Y-93933147D01*
X125861732Y-93942388D01*
X125880491Y-93948079D01*
X125900000Y-93950000D01*
X135000000Y-93950000D01*
X135019509Y-93948079D01*
X135038268Y-93942388D01*
X135055557Y-93933147D01*
X135070711Y-93920711D01*
X135083147Y-93905557D01*
X135092388Y-93888268D01*
X135098079Y-93869509D01*
X135100000Y-93850000D01*
X135100000Y-87884765D01*
X152580000Y-87884765D01*
X152580000Y-88115235D01*
X152624963Y-88341276D01*
X152713160Y-88554203D01*
X152841202Y-88745831D01*
X153004169Y-88908798D01*
X153195797Y-89036840D01*
X153408724Y-89125037D01*
X153634765Y-89170000D01*
X153865235Y-89170000D01*
X154091276Y-89125037D01*
X154304203Y-89036840D01*
X154495831Y-88908798D01*
X154658798Y-88745831D01*
X154786840Y-88554203D01*
X154875037Y-88341276D01*
X154920000Y-88115235D01*
X154920000Y-87884765D01*
X154875037Y-87658724D01*
X154786840Y-87445797D01*
X154658798Y-87254169D01*
X154495831Y-87091202D01*
X154304203Y-86963160D01*
X154091276Y-86874963D01*
X153865235Y-86830000D01*
X153634765Y-86830000D01*
X153408724Y-86874963D01*
X153195797Y-86963160D01*
X153004169Y-87091202D01*
X152841202Y-87254169D01*
X152713160Y-87445797D01*
X152624963Y-87658724D01*
X152580000Y-87884765D01*
X135100000Y-87884765D01*
X135100000Y-85384765D01*
X152580000Y-85384765D01*
X152580000Y-85615235D01*
X152624963Y-85841276D01*
X152713160Y-86054203D01*
X152841202Y-86245831D01*
X153004169Y-86408798D01*
X153195797Y-86536840D01*
X153408724Y-86625037D01*
X153634765Y-86670000D01*
X153865235Y-86670000D01*
X154091276Y-86625037D01*
X154304203Y-86536840D01*
X154495831Y-86408798D01*
X154658798Y-86245831D01*
X154786840Y-86054203D01*
X154795623Y-86033000D01*
X156029225Y-86033000D01*
X156692000Y-86695776D01*
X156692000Y-86829581D01*
X156723051Y-86985685D01*
X156783959Y-87132732D01*
X156872385Y-87265070D01*
X156984930Y-87377615D01*
X157117268Y-87466041D01*
X157264315Y-87526949D01*
X157420419Y-87558000D01*
X157579581Y-87558000D01*
X157735685Y-87526949D01*
X157882732Y-87466041D01*
X158015070Y-87377615D01*
X158127615Y-87265070D01*
X158216041Y-87132732D01*
X158276949Y-86985685D01*
X158308000Y-86829581D01*
X158308000Y-86670419D01*
X158276949Y-86514315D01*
X158216041Y-86367268D01*
X158127615Y-86234930D01*
X158015070Y-86122385D01*
X157882732Y-86033959D01*
X157735685Y-85973051D01*
X157579581Y-85942000D01*
X157445776Y-85942000D01*
X156645401Y-85141626D01*
X156628711Y-85121289D01*
X156547551Y-85054683D01*
X156454957Y-85005190D01*
X156354486Y-84974713D01*
X156276175Y-84967000D01*
X156250000Y-84964422D01*
X156223825Y-84967000D01*
X154795623Y-84967000D01*
X154786840Y-84945797D01*
X154658798Y-84754169D01*
X154495831Y-84591202D01*
X154304203Y-84463160D01*
X154091276Y-84374963D01*
X153865235Y-84330000D01*
X153634765Y-84330000D01*
X153408724Y-84374963D01*
X153195797Y-84463160D01*
X153004169Y-84591202D01*
X152841202Y-84754169D01*
X152713160Y-84945797D01*
X152624963Y-85158724D01*
X152580000Y-85384765D01*
X135100000Y-85384765D01*
X135100000Y-79420419D01*
X151442000Y-79420419D01*
X151442000Y-79579581D01*
X151473051Y-79735685D01*
X151533959Y-79882732D01*
X151622385Y-80015070D01*
X151717000Y-80109685D01*
X151717001Y-82723815D01*
X151714422Y-82750000D01*
X151724713Y-82854486D01*
X151737159Y-82895513D01*
X151755191Y-82954957D01*
X151804684Y-83047551D01*
X151871290Y-83128711D01*
X151891622Y-83145397D01*
X152104599Y-83358374D01*
X152121289Y-83378711D01*
X152202449Y-83445317D01*
X152295043Y-83494810D01*
X152395514Y-83525287D01*
X152473825Y-83533000D01*
X152473834Y-83533000D01*
X152499999Y-83535577D01*
X152526164Y-83533000D01*
X152704377Y-83533000D01*
X152713160Y-83554203D01*
X152841202Y-83745831D01*
X153004169Y-83908798D01*
X153195797Y-84036840D01*
X153408724Y-84125037D01*
X153634765Y-84170000D01*
X153865235Y-84170000D01*
X154091276Y-84125037D01*
X154304203Y-84036840D01*
X154495831Y-83908798D01*
X154658798Y-83745831D01*
X154786840Y-83554203D01*
X154875037Y-83341276D01*
X154920000Y-83115235D01*
X154920000Y-82884765D01*
X154875037Y-82658724D01*
X154786840Y-82445797D01*
X154658798Y-82254169D01*
X154495831Y-82091202D01*
X154304203Y-81963160D01*
X154091276Y-81874963D01*
X153865235Y-81830000D01*
X153634765Y-81830000D01*
X153408724Y-81874963D01*
X153195797Y-81963160D01*
X153004169Y-82091202D01*
X152841202Y-82254169D01*
X152783000Y-82341274D01*
X152783000Y-81158726D01*
X152841202Y-81245831D01*
X153004169Y-81408798D01*
X153195797Y-81536840D01*
X153408724Y-81625037D01*
X153634765Y-81670000D01*
X153865235Y-81670000D01*
X154091276Y-81625037D01*
X154304203Y-81536840D01*
X154495831Y-81408798D01*
X154658798Y-81245831D01*
X154786840Y-81054203D01*
X154795623Y-81033000D01*
X165390315Y-81033000D01*
X165484930Y-81127615D01*
X165617268Y-81216041D01*
X165764315Y-81276949D01*
X165920419Y-81308000D01*
X166079581Y-81308000D01*
X166235685Y-81276949D01*
X166382732Y-81216041D01*
X166515070Y-81127615D01*
X166627615Y-81015070D01*
X166716041Y-80882732D01*
X166776949Y-80735685D01*
X166808000Y-80579581D01*
X166808000Y-80420419D01*
X166776949Y-80264315D01*
X166716041Y-80117268D01*
X166627615Y-79984930D01*
X166515070Y-79872385D01*
X166382732Y-79783959D01*
X166235685Y-79723051D01*
X166079581Y-79692000D01*
X165920419Y-79692000D01*
X165764315Y-79723051D01*
X165617268Y-79783959D01*
X165484930Y-79872385D01*
X165390315Y-79967000D01*
X154795623Y-79967000D01*
X154786840Y-79945797D01*
X154658798Y-79754169D01*
X154495831Y-79591202D01*
X154304203Y-79463160D01*
X154091276Y-79374963D01*
X153865235Y-79330000D01*
X153634765Y-79330000D01*
X153408724Y-79374963D01*
X153195797Y-79463160D01*
X153058000Y-79555233D01*
X153058000Y-79420419D01*
X153026949Y-79264315D01*
X152966041Y-79117268D01*
X152877615Y-78984930D01*
X152765070Y-78872385D01*
X152632732Y-78783959D01*
X152485685Y-78723051D01*
X152329581Y-78692000D01*
X152170419Y-78692000D01*
X152014315Y-78723051D01*
X151867268Y-78783959D01*
X151734930Y-78872385D01*
X151622385Y-78984930D01*
X151533959Y-79117268D01*
X151473051Y-79264315D01*
X151442000Y-79420419D01*
X135100000Y-79420419D01*
X135100000Y-75500000D01*
X135098079Y-75480491D01*
X135092388Y-75461732D01*
X135083147Y-75444443D01*
X135070711Y-75429289D01*
X135055557Y-75416853D01*
X135038268Y-75407612D01*
X135019509Y-75401921D01*
X135000000Y-75400000D01*
X132850000Y-75400000D01*
X132850000Y-70000000D01*
X132848079Y-69980491D01*
X132842388Y-69961732D01*
X132833147Y-69944443D01*
X132820711Y-69929289D01*
X132805557Y-69916853D01*
X132788268Y-69907612D01*
X132769509Y-69901921D01*
X132750000Y-69900000D01*
X129850000Y-69900000D01*
X129850000Y-66881515D01*
X131917000Y-66881515D01*
X131917000Y-67118485D01*
X131963230Y-67350902D01*
X132053915Y-67569834D01*
X132185569Y-67766868D01*
X132353132Y-67934431D01*
X132550166Y-68066085D01*
X132769098Y-68156770D01*
X133001515Y-68203000D01*
X133238485Y-68203000D01*
X133470902Y-68156770D01*
X133689834Y-68066085D01*
X133886868Y-67934431D01*
X134054431Y-67766868D01*
X134186085Y-67569834D01*
X134276770Y-67350902D01*
X134323000Y-67118485D01*
X134323000Y-66881515D01*
X134457000Y-66881515D01*
X134457000Y-67118485D01*
X134503230Y-67350902D01*
X134593915Y-67569834D01*
X134725569Y-67766868D01*
X134893132Y-67934431D01*
X135090166Y-68066085D01*
X135309098Y-68156770D01*
X135541515Y-68203000D01*
X135778485Y-68203000D01*
X136010902Y-68156770D01*
X136229834Y-68066085D01*
X136426868Y-67934431D01*
X136594431Y-67766868D01*
X136726085Y-67569834D01*
X136816770Y-67350902D01*
X136863000Y-67118485D01*
X136863000Y-66881515D01*
X136997000Y-66881515D01*
X136997000Y-67118485D01*
X137043230Y-67350902D01*
X137133915Y-67569834D01*
X137265569Y-67766868D01*
X137433132Y-67934431D01*
X137630166Y-68066085D01*
X137849098Y-68156770D01*
X138081515Y-68203000D01*
X138318485Y-68203000D01*
X138550902Y-68156770D01*
X138769834Y-68066085D01*
X138966868Y-67934431D01*
X139134431Y-67766868D01*
X139266085Y-67569834D01*
X139356770Y-67350902D01*
X139403000Y-67118485D01*
X139403000Y-66881515D01*
X142077000Y-66881515D01*
X142077000Y-67118485D01*
X142123230Y-67350902D01*
X142213915Y-67569834D01*
X142345569Y-67766868D01*
X142513132Y-67934431D01*
X142710166Y-68066085D01*
X142747001Y-68081342D01*
X142747000Y-69565325D01*
X142652385Y-69659940D01*
X142563959Y-69792278D01*
X142503051Y-69939325D01*
X142472000Y-70095429D01*
X142472000Y-70254591D01*
X142503051Y-70410695D01*
X142563959Y-70557742D01*
X142652385Y-70690080D01*
X142764930Y-70802625D01*
X142897268Y-70891051D01*
X143044315Y-70951959D01*
X143200419Y-70983010D01*
X143359581Y-70983010D01*
X143515685Y-70951959D01*
X143662732Y-70891051D01*
X143795070Y-70802625D01*
X143907615Y-70690080D01*
X143996041Y-70557742D01*
X144056949Y-70410695D01*
X144088000Y-70254591D01*
X144088000Y-70095429D01*
X144056949Y-69939325D01*
X143996041Y-69792278D01*
X143907615Y-69659940D01*
X143813000Y-69565325D01*
X143813000Y-68081342D01*
X143849834Y-68066085D01*
X144046868Y-67934431D01*
X144214431Y-67766868D01*
X144346085Y-67569834D01*
X144436770Y-67350902D01*
X144483000Y-67118485D01*
X144483000Y-66881515D01*
X144617000Y-66881515D01*
X144617000Y-67118485D01*
X144663230Y-67350902D01*
X144753915Y-67569834D01*
X144885569Y-67766868D01*
X145053132Y-67934431D01*
X145250166Y-68066085D01*
X145287000Y-68081342D01*
X145287001Y-69837592D01*
X145234930Y-69872385D01*
X145122385Y-69984930D01*
X145033959Y-70117268D01*
X144973051Y-70264315D01*
X144942000Y-70420419D01*
X144942000Y-70579581D01*
X144973051Y-70735685D01*
X145033959Y-70882732D01*
X145122385Y-71015070D01*
X145234930Y-71127615D01*
X145367268Y-71216041D01*
X145514315Y-71276949D01*
X145670419Y-71308000D01*
X145829581Y-71308000D01*
X145985685Y-71276949D01*
X146132732Y-71216041D01*
X146265070Y-71127615D01*
X146377615Y-71015070D01*
X146466041Y-70882732D01*
X146526949Y-70735685D01*
X146558000Y-70579581D01*
X146558000Y-70420419D01*
X147442000Y-70420419D01*
X147442000Y-70579581D01*
X147473051Y-70735685D01*
X147533959Y-70882732D01*
X147622385Y-71015070D01*
X147717000Y-71109685D01*
X147717001Y-75140314D01*
X147622385Y-75234930D01*
X147533959Y-75367268D01*
X147473051Y-75514315D01*
X147442000Y-75670419D01*
X147442000Y-75829581D01*
X147473051Y-75985685D01*
X147533959Y-76132732D01*
X147622385Y-76265070D01*
X147734930Y-76377615D01*
X147867268Y-76466041D01*
X148014315Y-76526949D01*
X148170419Y-76558000D01*
X148329581Y-76558000D01*
X148485685Y-76526949D01*
X148632732Y-76466041D01*
X148765070Y-76377615D01*
X148875000Y-76267685D01*
X148984930Y-76377615D01*
X149117268Y-76466041D01*
X149264315Y-76526949D01*
X149420419Y-76558000D01*
X149579581Y-76558000D01*
X149735685Y-76526949D01*
X149882732Y-76466041D01*
X150015070Y-76377615D01*
X150125000Y-76267685D01*
X150234930Y-76377615D01*
X150367268Y-76466041D01*
X150514315Y-76526949D01*
X150670419Y-76558000D01*
X150829581Y-76558000D01*
X150985685Y-76526949D01*
X151132732Y-76466041D01*
X151265070Y-76377615D01*
X151377615Y-76265070D01*
X151466041Y-76132732D01*
X151526949Y-75985685D01*
X151558000Y-75829581D01*
X151558000Y-75670419D01*
X151526949Y-75514315D01*
X151466041Y-75367268D01*
X151377615Y-75234930D01*
X151283000Y-75140315D01*
X151283000Y-71109685D01*
X151377615Y-71015070D01*
X151466041Y-70882732D01*
X151526949Y-70735685D01*
X151558000Y-70579581D01*
X151558000Y-70420419D01*
X151526949Y-70264315D01*
X151502381Y-70205000D01*
X151795026Y-70205000D01*
X151795026Y-71795000D01*
X151802904Y-71874982D01*
X151826233Y-71951890D01*
X151864119Y-72022769D01*
X151915105Y-72084895D01*
X151977231Y-72135881D01*
X152048110Y-72173767D01*
X152125018Y-72197096D01*
X152205000Y-72204974D01*
X153795000Y-72204974D01*
X153874982Y-72197096D01*
X153951890Y-72173767D01*
X154022769Y-72135881D01*
X154084895Y-72084895D01*
X154135881Y-72022769D01*
X154173767Y-71951890D01*
X154197096Y-71874982D01*
X154204974Y-71795000D01*
X154204974Y-70881515D01*
X156877000Y-70881515D01*
X156877000Y-71118485D01*
X156923230Y-71350902D01*
X157013915Y-71569834D01*
X157145569Y-71766868D01*
X157313132Y-71934431D01*
X157510166Y-72066085D01*
X157729098Y-72156770D01*
X157961515Y-72203000D01*
X158198485Y-72203000D01*
X158430902Y-72156770D01*
X158649834Y-72066085D01*
X158846868Y-71934431D01*
X159014431Y-71766868D01*
X159146085Y-71569834D01*
X159236770Y-71350902D01*
X159283000Y-71118485D01*
X159283000Y-70881515D01*
X159417000Y-70881515D01*
X159417000Y-71118485D01*
X159463230Y-71350902D01*
X159553915Y-71569834D01*
X159685569Y-71766868D01*
X159853132Y-71934431D01*
X160050166Y-72066085D01*
X160269098Y-72156770D01*
X160501515Y-72203000D01*
X160738485Y-72203000D01*
X160970902Y-72156770D01*
X161189834Y-72066085D01*
X161386868Y-71934431D01*
X161554431Y-71766868D01*
X161686085Y-71569834D01*
X161776770Y-71350902D01*
X161823000Y-71118485D01*
X161823000Y-70881515D01*
X161776770Y-70649098D01*
X161686085Y-70430166D01*
X161554431Y-70233132D01*
X161386868Y-70065569D01*
X161189834Y-69933915D01*
X160970902Y-69843230D01*
X160738485Y-69797000D01*
X160501515Y-69797000D01*
X160269098Y-69843230D01*
X160050166Y-69933915D01*
X159853132Y-70065569D01*
X159685569Y-70233132D01*
X159553915Y-70430166D01*
X159463230Y-70649098D01*
X159417000Y-70881515D01*
X159283000Y-70881515D01*
X159236770Y-70649098D01*
X159146085Y-70430166D01*
X159014431Y-70233132D01*
X158846868Y-70065569D01*
X158649834Y-69933915D01*
X158430902Y-69843230D01*
X158198485Y-69797000D01*
X157961515Y-69797000D01*
X157729098Y-69843230D01*
X157510166Y-69933915D01*
X157313132Y-70065569D01*
X157145569Y-70233132D01*
X157013915Y-70430166D01*
X156923230Y-70649098D01*
X156877000Y-70881515D01*
X154204974Y-70881515D01*
X154204974Y-70205000D01*
X154197096Y-70125018D01*
X154173767Y-70048110D01*
X154135881Y-69977231D01*
X154084895Y-69915105D01*
X154022769Y-69864119D01*
X153951890Y-69826233D01*
X153874982Y-69802904D01*
X153795000Y-69795026D01*
X152205000Y-69795026D01*
X152125018Y-69802904D01*
X152048110Y-69826233D01*
X151977231Y-69864119D01*
X151915105Y-69915105D01*
X151864119Y-69977231D01*
X151826233Y-70048110D01*
X151802904Y-70125018D01*
X151795026Y-70205000D01*
X151502381Y-70205000D01*
X151466041Y-70117268D01*
X151377615Y-69984930D01*
X151265070Y-69872385D01*
X151132732Y-69783959D01*
X150985685Y-69723051D01*
X150829581Y-69692000D01*
X150670419Y-69692000D01*
X150514315Y-69723051D01*
X150367268Y-69783959D01*
X150234930Y-69872385D01*
X150125000Y-69982315D01*
X150015070Y-69872385D01*
X149882732Y-69783959D01*
X149735685Y-69723051D01*
X149579581Y-69692000D01*
X149420419Y-69692000D01*
X149264315Y-69723051D01*
X149117268Y-69783959D01*
X148984930Y-69872385D01*
X148875000Y-69982315D01*
X148765070Y-69872385D01*
X148632732Y-69783959D01*
X148485685Y-69723051D01*
X148329581Y-69692000D01*
X148170419Y-69692000D01*
X148014315Y-69723051D01*
X147867268Y-69783959D01*
X147734930Y-69872385D01*
X147622385Y-69984930D01*
X147533959Y-70117268D01*
X147473051Y-70264315D01*
X147442000Y-70420419D01*
X146558000Y-70420419D01*
X146526949Y-70264315D01*
X146466041Y-70117268D01*
X146377615Y-69984930D01*
X146353000Y-69960315D01*
X146353000Y-68081342D01*
X146389834Y-68066085D01*
X146586868Y-67934431D01*
X146754431Y-67766868D01*
X146886085Y-67569834D01*
X146976770Y-67350902D01*
X147023000Y-67118485D01*
X147023000Y-66881515D01*
X149697000Y-66881515D01*
X149697000Y-67118485D01*
X149743230Y-67350902D01*
X149833915Y-67569834D01*
X149965569Y-67766868D01*
X150133132Y-67934431D01*
X150330166Y-68066085D01*
X150549098Y-68156770D01*
X150781515Y-68203000D01*
X151018485Y-68203000D01*
X151250902Y-68156770D01*
X151469834Y-68066085D01*
X151666868Y-67934431D01*
X151834431Y-67766868D01*
X151966085Y-67569834D01*
X152056770Y-67350902D01*
X152103000Y-67118485D01*
X152103000Y-66881515D01*
X152237000Y-66881515D01*
X152237000Y-67118485D01*
X152283230Y-67350902D01*
X152373915Y-67569834D01*
X152505569Y-67766868D01*
X152673132Y-67934431D01*
X152870166Y-68066085D01*
X153089098Y-68156770D01*
X153321515Y-68203000D01*
X153558485Y-68203000D01*
X153790902Y-68156770D01*
X154009834Y-68066085D01*
X154206868Y-67934431D01*
X154374431Y-67766868D01*
X154506085Y-67569834D01*
X154596770Y-67350902D01*
X154643000Y-67118485D01*
X154643000Y-66881515D01*
X154777000Y-66881515D01*
X154777000Y-67118485D01*
X154823230Y-67350902D01*
X154913915Y-67569834D01*
X155045569Y-67766868D01*
X155213132Y-67934431D01*
X155410166Y-68066085D01*
X155629098Y-68156770D01*
X155861515Y-68203000D01*
X156098485Y-68203000D01*
X156330902Y-68156770D01*
X156549834Y-68066085D01*
X156746868Y-67934431D01*
X156914431Y-67766868D01*
X157046085Y-67569834D01*
X157136770Y-67350902D01*
X157183000Y-67118485D01*
X157183000Y-66881515D01*
X157317000Y-66881515D01*
X157317000Y-67118485D01*
X157363230Y-67350902D01*
X157453915Y-67569834D01*
X157585569Y-67766868D01*
X157753132Y-67934431D01*
X157950166Y-68066085D01*
X158169098Y-68156770D01*
X158401515Y-68203000D01*
X158638485Y-68203000D01*
X158870902Y-68156770D01*
X159089834Y-68066085D01*
X159286868Y-67934431D01*
X159454431Y-67766868D01*
X159586085Y-67569834D01*
X159676770Y-67350902D01*
X159723000Y-67118485D01*
X159723000Y-66881515D01*
X162397000Y-66881515D01*
X162397000Y-67118485D01*
X162443230Y-67350902D01*
X162533915Y-67569834D01*
X162665569Y-67766868D01*
X162833132Y-67934431D01*
X163030166Y-68066085D01*
X163067000Y-68081342D01*
X163067001Y-73573815D01*
X163064422Y-73600000D01*
X163074713Y-73704486D01*
X163102183Y-73795042D01*
X163105191Y-73804957D01*
X163154684Y-73897551D01*
X163192000Y-73943021D01*
X163192000Y-74079581D01*
X163223051Y-74235685D01*
X163283959Y-74382732D01*
X163372385Y-74515070D01*
X163484930Y-74627615D01*
X163617268Y-74716041D01*
X163764315Y-74776949D01*
X163920419Y-74808000D01*
X164079581Y-74808000D01*
X164235685Y-74776949D01*
X164382732Y-74716041D01*
X164515070Y-74627615D01*
X164627615Y-74515070D01*
X164716041Y-74382732D01*
X164776949Y-74235685D01*
X164808000Y-74079581D01*
X164808000Y-74035638D01*
X164920419Y-74058000D01*
X165079581Y-74058000D01*
X165235685Y-74026949D01*
X165382732Y-73966041D01*
X165515070Y-73877615D01*
X165627615Y-73765070D01*
X165716041Y-73632732D01*
X165776949Y-73485685D01*
X165808000Y-73329581D01*
X165808000Y-73170419D01*
X165776949Y-73014315D01*
X165716041Y-72867268D01*
X165627615Y-72734930D01*
X165552999Y-72660314D01*
X165552999Y-69170419D01*
X171692000Y-69170419D01*
X171692000Y-69329581D01*
X171723051Y-69485685D01*
X171783959Y-69632732D01*
X171872385Y-69765070D01*
X171984930Y-69877615D01*
X172117268Y-69966041D01*
X172264315Y-70026949D01*
X172420419Y-70058000D01*
X172579581Y-70058000D01*
X172735685Y-70026949D01*
X172882732Y-69966041D01*
X173015070Y-69877615D01*
X173109685Y-69783000D01*
X175140315Y-69783000D01*
X175234930Y-69877615D01*
X175367268Y-69966041D01*
X175514315Y-70026949D01*
X175670419Y-70058000D01*
X175829581Y-70058000D01*
X175985685Y-70026949D01*
X176132732Y-69966041D01*
X176265070Y-69877615D01*
X176377615Y-69765070D01*
X176466041Y-69632732D01*
X176526949Y-69485685D01*
X176558000Y-69329581D01*
X176558000Y-69170419D01*
X176526949Y-69014315D01*
X176466041Y-68867268D01*
X176377615Y-68734930D01*
X176265070Y-68622385D01*
X176132732Y-68533959D01*
X175985685Y-68473051D01*
X175829581Y-68442000D01*
X175670419Y-68442000D01*
X175514315Y-68473051D01*
X175367268Y-68533959D01*
X175234930Y-68622385D01*
X175140315Y-68717000D01*
X173109685Y-68717000D01*
X173015070Y-68622385D01*
X172882732Y-68533959D01*
X172735685Y-68473051D01*
X172579581Y-68442000D01*
X172420419Y-68442000D01*
X172264315Y-68473051D01*
X172117268Y-68533959D01*
X171984930Y-68622385D01*
X171872385Y-68734930D01*
X171783959Y-68867268D01*
X171723051Y-69014315D01*
X171692000Y-69170419D01*
X165552999Y-69170419D01*
X165552999Y-66881515D01*
X167477000Y-66881515D01*
X167477000Y-67118485D01*
X167523230Y-67350902D01*
X167613915Y-67569834D01*
X167745569Y-67766868D01*
X167913132Y-67934431D01*
X168110166Y-68066085D01*
X168329098Y-68156770D01*
X168561515Y-68203000D01*
X168798485Y-68203000D01*
X169030902Y-68156770D01*
X169249834Y-68066085D01*
X169446868Y-67934431D01*
X169614431Y-67766868D01*
X169746085Y-67569834D01*
X169836770Y-67350902D01*
X169883000Y-67118485D01*
X169883000Y-66881515D01*
X170017000Y-66881515D01*
X170017000Y-67118485D01*
X170063230Y-67350902D01*
X170153915Y-67569834D01*
X170285569Y-67766868D01*
X170453132Y-67934431D01*
X170650166Y-68066085D01*
X170869098Y-68156770D01*
X171101515Y-68203000D01*
X171338485Y-68203000D01*
X171570902Y-68156770D01*
X171789834Y-68066085D01*
X171986868Y-67934431D01*
X172154431Y-67766868D01*
X172286085Y-67569834D01*
X172376770Y-67350902D01*
X172423000Y-67118485D01*
X172423000Y-66881515D01*
X172557000Y-66881515D01*
X172557000Y-67118485D01*
X172603230Y-67350902D01*
X172693915Y-67569834D01*
X172825569Y-67766868D01*
X172993132Y-67934431D01*
X173190166Y-68066085D01*
X173409098Y-68156770D01*
X173641515Y-68203000D01*
X173878485Y-68203000D01*
X174110902Y-68156770D01*
X174329834Y-68066085D01*
X174526868Y-67934431D01*
X174694431Y-67766868D01*
X174826085Y-67569834D01*
X174916770Y-67350902D01*
X174963000Y-67118485D01*
X174963000Y-66881515D01*
X174916770Y-66649098D01*
X174826085Y-66430166D01*
X174694431Y-66233132D01*
X174526868Y-66065569D01*
X174329834Y-65933915D01*
X174110902Y-65843230D01*
X173878485Y-65797000D01*
X173641515Y-65797000D01*
X173409098Y-65843230D01*
X173190166Y-65933915D01*
X172993132Y-66065569D01*
X172825569Y-66233132D01*
X172693915Y-66430166D01*
X172603230Y-66649098D01*
X172557000Y-66881515D01*
X172423000Y-66881515D01*
X172376770Y-66649098D01*
X172286085Y-66430166D01*
X172154431Y-66233132D01*
X171986868Y-66065569D01*
X171789834Y-65933915D01*
X171570902Y-65843230D01*
X171338485Y-65797000D01*
X171101515Y-65797000D01*
X170869098Y-65843230D01*
X170650166Y-65933915D01*
X170453132Y-66065569D01*
X170285569Y-66233132D01*
X170153915Y-66430166D01*
X170063230Y-66649098D01*
X170017000Y-66881515D01*
X169883000Y-66881515D01*
X169836770Y-66649098D01*
X169746085Y-66430166D01*
X169614431Y-66233132D01*
X169446868Y-66065569D01*
X169249834Y-65933915D01*
X169030902Y-65843230D01*
X168798485Y-65797000D01*
X168561515Y-65797000D01*
X168329098Y-65843230D01*
X168110166Y-65933915D01*
X167913132Y-66065569D01*
X167745569Y-66233132D01*
X167613915Y-66430166D01*
X167523230Y-66649098D01*
X167477000Y-66881515D01*
X165552999Y-66881515D01*
X165552999Y-66050776D01*
X165954171Y-65649605D01*
X166021515Y-65663000D01*
X166258485Y-65663000D01*
X166490902Y-65616770D01*
X166709834Y-65526085D01*
X166906868Y-65394431D01*
X167074431Y-65226868D01*
X167206085Y-65029834D01*
X167296770Y-64810902D01*
X167343000Y-64578485D01*
X167343000Y-64341515D01*
X167477000Y-64341515D01*
X167477000Y-64578485D01*
X167523230Y-64810902D01*
X167613915Y-65029834D01*
X167745569Y-65226868D01*
X167913132Y-65394431D01*
X168110166Y-65526085D01*
X168329098Y-65616770D01*
X168561515Y-65663000D01*
X168798485Y-65663000D01*
X169030902Y-65616770D01*
X169249834Y-65526085D01*
X169446868Y-65394431D01*
X169614431Y-65226868D01*
X169746085Y-65029834D01*
X169836770Y-64810902D01*
X169883000Y-64578485D01*
X169883000Y-64341515D01*
X170017000Y-64341515D01*
X170017000Y-64578485D01*
X170063230Y-64810902D01*
X170153915Y-65029834D01*
X170285569Y-65226868D01*
X170453132Y-65394431D01*
X170650166Y-65526085D01*
X170869098Y-65616770D01*
X171101515Y-65663000D01*
X171338485Y-65663000D01*
X171570902Y-65616770D01*
X171789834Y-65526085D01*
X171986868Y-65394431D01*
X172154431Y-65226868D01*
X172286085Y-65029834D01*
X172376770Y-64810902D01*
X172423000Y-64578485D01*
X172423000Y-64341515D01*
X172376770Y-64109098D01*
X172286085Y-63890166D01*
X172154431Y-63693132D01*
X171986868Y-63525569D01*
X171789834Y-63393915D01*
X171570902Y-63303230D01*
X171338485Y-63257000D01*
X171101515Y-63257000D01*
X170869098Y-63303230D01*
X170650166Y-63393915D01*
X170453132Y-63525569D01*
X170285569Y-63693132D01*
X170153915Y-63890166D01*
X170063230Y-64109098D01*
X170017000Y-64341515D01*
X169883000Y-64341515D01*
X169836770Y-64109098D01*
X169746085Y-63890166D01*
X169614431Y-63693132D01*
X169446868Y-63525569D01*
X169249834Y-63393915D01*
X169030902Y-63303230D01*
X168798485Y-63257000D01*
X168561515Y-63257000D01*
X168329098Y-63303230D01*
X168110166Y-63393915D01*
X167913132Y-63525569D01*
X167745569Y-63693132D01*
X167613915Y-63890166D01*
X167523230Y-64109098D01*
X167477000Y-64341515D01*
X167343000Y-64341515D01*
X167296770Y-64109098D01*
X167206085Y-63890166D01*
X167074431Y-63693132D01*
X166906868Y-63525569D01*
X166709834Y-63393915D01*
X166490902Y-63303230D01*
X166258485Y-63257000D01*
X166021515Y-63257000D01*
X165789098Y-63303230D01*
X165570166Y-63393915D01*
X165373132Y-63525569D01*
X165205569Y-63693132D01*
X165073915Y-63890166D01*
X164983230Y-64109098D01*
X164937000Y-64341515D01*
X164937000Y-64578485D01*
X164983230Y-64810902D01*
X165071711Y-65024513D01*
X164661625Y-65434600D01*
X164641288Y-65451290D01*
X164574682Y-65532450D01*
X164525189Y-65625045D01*
X164503957Y-65695038D01*
X164494712Y-65725515D01*
X164484421Y-65830001D01*
X164486999Y-65856176D01*
X164486999Y-66185700D01*
X164366868Y-66065569D01*
X164169834Y-65933915D01*
X163950902Y-65843230D01*
X163718485Y-65797000D01*
X163481515Y-65797000D01*
X163249098Y-65843230D01*
X163030166Y-65933915D01*
X162833132Y-66065569D01*
X162665569Y-66233132D01*
X162533915Y-66430166D01*
X162443230Y-66649098D01*
X162397000Y-66881515D01*
X159723000Y-66881515D01*
X159676770Y-66649098D01*
X159586085Y-66430166D01*
X159454431Y-66233132D01*
X159286868Y-66065569D01*
X159089834Y-65933915D01*
X158870902Y-65843230D01*
X158638485Y-65797000D01*
X158401515Y-65797000D01*
X158169098Y-65843230D01*
X157950166Y-65933915D01*
X157753132Y-66065569D01*
X157585569Y-66233132D01*
X157453915Y-66430166D01*
X157363230Y-66649098D01*
X157317000Y-66881515D01*
X157183000Y-66881515D01*
X157136770Y-66649098D01*
X157046085Y-66430166D01*
X156914431Y-66233132D01*
X156746868Y-66065569D01*
X156549834Y-65933915D01*
X156330902Y-65843230D01*
X156098485Y-65797000D01*
X155861515Y-65797000D01*
X155629098Y-65843230D01*
X155410166Y-65933915D01*
X155213132Y-66065569D01*
X155045569Y-66233132D01*
X154913915Y-66430166D01*
X154823230Y-66649098D01*
X154777000Y-66881515D01*
X154643000Y-66881515D01*
X154596770Y-66649098D01*
X154506085Y-66430166D01*
X154374431Y-66233132D01*
X154206868Y-66065569D01*
X154009834Y-65933915D01*
X153790902Y-65843230D01*
X153558485Y-65797000D01*
X153321515Y-65797000D01*
X153089098Y-65843230D01*
X152870166Y-65933915D01*
X152673132Y-66065569D01*
X152505569Y-66233132D01*
X152373915Y-66430166D01*
X152283230Y-66649098D01*
X152237000Y-66881515D01*
X152103000Y-66881515D01*
X152056770Y-66649098D01*
X151966085Y-66430166D01*
X151834431Y-66233132D01*
X151666868Y-66065569D01*
X151469834Y-65933915D01*
X151250902Y-65843230D01*
X151018485Y-65797000D01*
X150781515Y-65797000D01*
X150549098Y-65843230D01*
X150330166Y-65933915D01*
X150133132Y-66065569D01*
X149965569Y-66233132D01*
X149833915Y-66430166D01*
X149743230Y-66649098D01*
X149697000Y-66881515D01*
X147023000Y-66881515D01*
X146976770Y-66649098D01*
X146886085Y-66430166D01*
X146754431Y-66233132D01*
X146586868Y-66065569D01*
X146389834Y-65933915D01*
X146170902Y-65843230D01*
X145938485Y-65797000D01*
X145701515Y-65797000D01*
X145469098Y-65843230D01*
X145250166Y-65933915D01*
X145053132Y-66065569D01*
X144885569Y-66233132D01*
X144753915Y-66430166D01*
X144663230Y-66649098D01*
X144617000Y-66881515D01*
X144483000Y-66881515D01*
X144436770Y-66649098D01*
X144346085Y-66430166D01*
X144214431Y-66233132D01*
X144046868Y-66065569D01*
X143849834Y-65933915D01*
X143630902Y-65843230D01*
X143398485Y-65797000D01*
X143161515Y-65797000D01*
X142929098Y-65843230D01*
X142710166Y-65933915D01*
X142513132Y-66065569D01*
X142345569Y-66233132D01*
X142213915Y-66430166D01*
X142123230Y-66649098D01*
X142077000Y-66881515D01*
X139403000Y-66881515D01*
X139356770Y-66649098D01*
X139266085Y-66430166D01*
X139134431Y-66233132D01*
X138966868Y-66065569D01*
X138769834Y-65933915D01*
X138550902Y-65843230D01*
X138318485Y-65797000D01*
X138081515Y-65797000D01*
X137849098Y-65843230D01*
X137630166Y-65933915D01*
X137433132Y-66065569D01*
X137265569Y-66233132D01*
X137133915Y-66430166D01*
X137043230Y-66649098D01*
X136997000Y-66881515D01*
X136863000Y-66881515D01*
X136816770Y-66649098D01*
X136726085Y-66430166D01*
X136594431Y-66233132D01*
X136426868Y-66065569D01*
X136229834Y-65933915D01*
X136010902Y-65843230D01*
X135778485Y-65797000D01*
X135541515Y-65797000D01*
X135309098Y-65843230D01*
X135090166Y-65933915D01*
X134893132Y-66065569D01*
X134725569Y-66233132D01*
X134593915Y-66430166D01*
X134503230Y-66649098D01*
X134457000Y-66881515D01*
X134323000Y-66881515D01*
X134276770Y-66649098D01*
X134186085Y-66430166D01*
X134054431Y-66233132D01*
X133886868Y-66065569D01*
X133689834Y-65933915D01*
X133470902Y-65843230D01*
X133238485Y-65797000D01*
X133001515Y-65797000D01*
X132769098Y-65843230D01*
X132550166Y-65933915D01*
X132353132Y-66065569D01*
X132185569Y-66233132D01*
X132053915Y-66430166D01*
X131963230Y-66649098D01*
X131917000Y-66881515D01*
X129850000Y-66881515D01*
X129850000Y-65419065D01*
X130010166Y-65526085D01*
X130229098Y-65616770D01*
X130461515Y-65663000D01*
X130698485Y-65663000D01*
X130930902Y-65616770D01*
X131149834Y-65526085D01*
X131346868Y-65394431D01*
X131514431Y-65226868D01*
X131646085Y-65029834D01*
X131736770Y-64810902D01*
X131783000Y-64578485D01*
X131783000Y-64341515D01*
X131770398Y-64278159D01*
X131920419Y-64308000D01*
X131923666Y-64308000D01*
X131917000Y-64341515D01*
X131917000Y-64578485D01*
X131963230Y-64810902D01*
X132053915Y-65029834D01*
X132185569Y-65226868D01*
X132353132Y-65394431D01*
X132550166Y-65526085D01*
X132769098Y-65616770D01*
X133001515Y-65663000D01*
X133238485Y-65663000D01*
X133470902Y-65616770D01*
X133689834Y-65526085D01*
X133886868Y-65394431D01*
X134054431Y-65226868D01*
X134186085Y-65029834D01*
X134276770Y-64810902D01*
X134323000Y-64578485D01*
X134323000Y-64341515D01*
X136997000Y-64341515D01*
X136997000Y-64578485D01*
X137043230Y-64810902D01*
X137133915Y-65029834D01*
X137265569Y-65226868D01*
X137433132Y-65394431D01*
X137630166Y-65526085D01*
X137849098Y-65616770D01*
X138081515Y-65663000D01*
X138318485Y-65663000D01*
X138550902Y-65616770D01*
X138769834Y-65526085D01*
X138966868Y-65394431D01*
X139134431Y-65226868D01*
X139266085Y-65029834D01*
X139356770Y-64810902D01*
X139403000Y-64578485D01*
X139403000Y-64341515D01*
X139537000Y-64341515D01*
X139537000Y-64578485D01*
X139583230Y-64810902D01*
X139673915Y-65029834D01*
X139805569Y-65226868D01*
X139973132Y-65394431D01*
X140170166Y-65526085D01*
X140389098Y-65616770D01*
X140621515Y-65663000D01*
X140858485Y-65663000D01*
X141090902Y-65616770D01*
X141309834Y-65526085D01*
X141506868Y-65394431D01*
X141674431Y-65226868D01*
X141806085Y-65029834D01*
X141896770Y-64810902D01*
X141943000Y-64578485D01*
X141943000Y-64341515D01*
X142077000Y-64341515D01*
X142077000Y-64578485D01*
X142123230Y-64810902D01*
X142213915Y-65029834D01*
X142345569Y-65226868D01*
X142513132Y-65394431D01*
X142710166Y-65526085D01*
X142929098Y-65616770D01*
X143161515Y-65663000D01*
X143398485Y-65663000D01*
X143630902Y-65616770D01*
X143849834Y-65526085D01*
X144046868Y-65394431D01*
X144214431Y-65226868D01*
X144346085Y-65029834D01*
X144436770Y-64810902D01*
X144483000Y-64578485D01*
X144483000Y-64341515D01*
X144617000Y-64341515D01*
X144617000Y-64578485D01*
X144663230Y-64810902D01*
X144753915Y-65029834D01*
X144885569Y-65226868D01*
X145053132Y-65394431D01*
X145250166Y-65526085D01*
X145469098Y-65616770D01*
X145701515Y-65663000D01*
X145938485Y-65663000D01*
X146170902Y-65616770D01*
X146389834Y-65526085D01*
X146586868Y-65394431D01*
X146754431Y-65226868D01*
X146886085Y-65029834D01*
X146976770Y-64810902D01*
X147023000Y-64578485D01*
X147023000Y-64341515D01*
X147157000Y-64341515D01*
X147157000Y-64578485D01*
X147203230Y-64810902D01*
X147293915Y-65029834D01*
X147425569Y-65226868D01*
X147593132Y-65394431D01*
X147790166Y-65526085D01*
X148009098Y-65616770D01*
X148241515Y-65663000D01*
X148478485Y-65663000D01*
X148710902Y-65616770D01*
X148929834Y-65526085D01*
X149126868Y-65394431D01*
X149294431Y-65226868D01*
X149426085Y-65029834D01*
X149516770Y-64810902D01*
X149563000Y-64578485D01*
X149563000Y-64341515D01*
X149697000Y-64341515D01*
X149697000Y-64578485D01*
X149743230Y-64810902D01*
X149833915Y-65029834D01*
X149965569Y-65226868D01*
X150133132Y-65394431D01*
X150330166Y-65526085D01*
X150549098Y-65616770D01*
X150781515Y-65663000D01*
X151018485Y-65663000D01*
X151250902Y-65616770D01*
X151469834Y-65526085D01*
X151666868Y-65394431D01*
X151834431Y-65226868D01*
X151966085Y-65029834D01*
X152056770Y-64810902D01*
X152103000Y-64578485D01*
X152103000Y-64341515D01*
X152237000Y-64341515D01*
X152237000Y-64578485D01*
X152283230Y-64810902D01*
X152373915Y-65029834D01*
X152505569Y-65226868D01*
X152673132Y-65394431D01*
X152870166Y-65526085D01*
X153089098Y-65616770D01*
X153321515Y-65663000D01*
X153558485Y-65663000D01*
X153790902Y-65616770D01*
X154009834Y-65526085D01*
X154206868Y-65394431D01*
X154374431Y-65226868D01*
X154506085Y-65029834D01*
X154596770Y-64810902D01*
X154643000Y-64578485D01*
X154643000Y-64341515D01*
X157317000Y-64341515D01*
X157317000Y-64578485D01*
X157363230Y-64810902D01*
X157453915Y-65029834D01*
X157585569Y-65226868D01*
X157753132Y-65394431D01*
X157950166Y-65526085D01*
X158169098Y-65616770D01*
X158401515Y-65663000D01*
X158638485Y-65663000D01*
X158870902Y-65616770D01*
X159089834Y-65526085D01*
X159286868Y-65394431D01*
X159454431Y-65226868D01*
X159586085Y-65029834D01*
X159676770Y-64810902D01*
X159723000Y-64578485D01*
X159723000Y-64341515D01*
X159857000Y-64341515D01*
X159857000Y-64578485D01*
X159903230Y-64810902D01*
X159993915Y-65029834D01*
X160125569Y-65226868D01*
X160293132Y-65394431D01*
X160490166Y-65526085D01*
X160709098Y-65616770D01*
X160941515Y-65663000D01*
X161178485Y-65663000D01*
X161410902Y-65616770D01*
X161629834Y-65526085D01*
X161826868Y-65394431D01*
X161994431Y-65226868D01*
X162126085Y-65029834D01*
X162216770Y-64810902D01*
X162263000Y-64578485D01*
X162263000Y-64341515D01*
X162397000Y-64341515D01*
X162397000Y-64578485D01*
X162443230Y-64810902D01*
X162533915Y-65029834D01*
X162665569Y-65226868D01*
X162833132Y-65394431D01*
X163030166Y-65526085D01*
X163249098Y-65616770D01*
X163481515Y-65663000D01*
X163718485Y-65663000D01*
X163950902Y-65616770D01*
X164169834Y-65526085D01*
X164366868Y-65394431D01*
X164534431Y-65226868D01*
X164666085Y-65029834D01*
X164756770Y-64810902D01*
X164803000Y-64578485D01*
X164803000Y-64341515D01*
X164756770Y-64109098D01*
X164666085Y-63890166D01*
X164534431Y-63693132D01*
X164366868Y-63525569D01*
X164169834Y-63393915D01*
X163950902Y-63303230D01*
X163718485Y-63257000D01*
X163481515Y-63257000D01*
X163249098Y-63303230D01*
X163030166Y-63393915D01*
X162833132Y-63525569D01*
X162665569Y-63693132D01*
X162533915Y-63890166D01*
X162443230Y-64109098D01*
X162397000Y-64341515D01*
X162263000Y-64341515D01*
X162216770Y-64109098D01*
X162126085Y-63890166D01*
X161994431Y-63693132D01*
X161826868Y-63525569D01*
X161629834Y-63393915D01*
X161410902Y-63303230D01*
X161178485Y-63257000D01*
X160941515Y-63257000D01*
X160709098Y-63303230D01*
X160490166Y-63393915D01*
X160293132Y-63525569D01*
X160125569Y-63693132D01*
X159993915Y-63890166D01*
X159903230Y-64109098D01*
X159857000Y-64341515D01*
X159723000Y-64341515D01*
X159676770Y-64109098D01*
X159586085Y-63890166D01*
X159454431Y-63693132D01*
X159286868Y-63525569D01*
X159089834Y-63393915D01*
X158870902Y-63303230D01*
X158638485Y-63257000D01*
X158401515Y-63257000D01*
X158169098Y-63303230D01*
X157950166Y-63393915D01*
X157753132Y-63525569D01*
X157585569Y-63693132D01*
X157453915Y-63890166D01*
X157363230Y-64109098D01*
X157317000Y-64341515D01*
X154643000Y-64341515D01*
X154596770Y-64109098D01*
X154506085Y-63890166D01*
X154374431Y-63693132D01*
X154206868Y-63525569D01*
X154009834Y-63393915D01*
X153790902Y-63303230D01*
X153558485Y-63257000D01*
X153321515Y-63257000D01*
X153089098Y-63303230D01*
X152870166Y-63393915D01*
X152673132Y-63525569D01*
X152505569Y-63693132D01*
X152373915Y-63890166D01*
X152283230Y-64109098D01*
X152237000Y-64341515D01*
X152103000Y-64341515D01*
X152056770Y-64109098D01*
X151966085Y-63890166D01*
X151834431Y-63693132D01*
X151666868Y-63525569D01*
X151469834Y-63393915D01*
X151250902Y-63303230D01*
X151018485Y-63257000D01*
X150781515Y-63257000D01*
X150549098Y-63303230D01*
X150330166Y-63393915D01*
X150133132Y-63525569D01*
X149965569Y-63693132D01*
X149833915Y-63890166D01*
X149743230Y-64109098D01*
X149697000Y-64341515D01*
X149563000Y-64341515D01*
X149516770Y-64109098D01*
X149426085Y-63890166D01*
X149294431Y-63693132D01*
X149126868Y-63525569D01*
X148929834Y-63393915D01*
X148710902Y-63303230D01*
X148478485Y-63257000D01*
X148241515Y-63257000D01*
X148009098Y-63303230D01*
X147790166Y-63393915D01*
X147593132Y-63525569D01*
X147425569Y-63693132D01*
X147293915Y-63890166D01*
X147203230Y-64109098D01*
X147157000Y-64341515D01*
X147023000Y-64341515D01*
X146976770Y-64109098D01*
X146886085Y-63890166D01*
X146754431Y-63693132D01*
X146586868Y-63525569D01*
X146389834Y-63393915D01*
X146170902Y-63303230D01*
X145938485Y-63257000D01*
X145701515Y-63257000D01*
X145469098Y-63303230D01*
X145250166Y-63393915D01*
X145053132Y-63525569D01*
X144885569Y-63693132D01*
X144753915Y-63890166D01*
X144663230Y-64109098D01*
X144617000Y-64341515D01*
X144483000Y-64341515D01*
X144436770Y-64109098D01*
X144346085Y-63890166D01*
X144214431Y-63693132D01*
X144046868Y-63525569D01*
X143849834Y-63393915D01*
X143630902Y-63303230D01*
X143398485Y-63257000D01*
X143161515Y-63257000D01*
X142929098Y-63303230D01*
X142710166Y-63393915D01*
X142513132Y-63525569D01*
X142345569Y-63693132D01*
X142213915Y-63890166D01*
X142123230Y-64109098D01*
X142077000Y-64341515D01*
X141943000Y-64341515D01*
X141896770Y-64109098D01*
X141806085Y-63890166D01*
X141674431Y-63693132D01*
X141506868Y-63525569D01*
X141309834Y-63393915D01*
X141090902Y-63303230D01*
X140858485Y-63257000D01*
X140621515Y-63257000D01*
X140389098Y-63303230D01*
X140170166Y-63393915D01*
X139973132Y-63525569D01*
X139805569Y-63693132D01*
X139673915Y-63890166D01*
X139583230Y-64109098D01*
X139537000Y-64341515D01*
X139403000Y-64341515D01*
X139356770Y-64109098D01*
X139266085Y-63890166D01*
X139134431Y-63693132D01*
X138966868Y-63525569D01*
X138769834Y-63393915D01*
X138550902Y-63303230D01*
X138318485Y-63257000D01*
X138081515Y-63257000D01*
X137849098Y-63303230D01*
X137630166Y-63393915D01*
X137433132Y-63525569D01*
X137265569Y-63693132D01*
X137133915Y-63890166D01*
X137043230Y-64109098D01*
X136997000Y-64341515D01*
X134323000Y-64341515D01*
X134276770Y-64109098D01*
X134186085Y-63890166D01*
X134054431Y-63693132D01*
X133886868Y-63525569D01*
X133689834Y-63393915D01*
X133470902Y-63303230D01*
X133238485Y-63257000D01*
X133001515Y-63257000D01*
X132784096Y-63300247D01*
X132776949Y-63264315D01*
X132716041Y-63117268D01*
X132627615Y-62984930D01*
X132515070Y-62872385D01*
X132382732Y-62783959D01*
X132235685Y-62723051D01*
X132079581Y-62692000D01*
X131943022Y-62692000D01*
X131897552Y-62654684D01*
X131804958Y-62605191D01*
X131704487Y-62574714D01*
X131626176Y-62567001D01*
X131600001Y-62564423D01*
X131573826Y-62567001D01*
X129850000Y-62567001D01*
X129850000Y-62183000D01*
X178978827Y-62183000D01*
X179414679Y-62225736D01*
X179414679Y-62225736D01*
G37*
X179414679Y-62225736D02*
X179667838Y-62436702D01*
X179523246Y-62376810D01*
X178845508Y-62242000D01*
X178154492Y-62242000D01*
X177476754Y-62376810D01*
X176838339Y-62641250D01*
X176263780Y-63025158D01*
X175775158Y-63513780D01*
X175391250Y-64088339D01*
X175126810Y-64726754D01*
X174992000Y-65404492D01*
X174992000Y-66095508D01*
X175126810Y-66773246D01*
X175391250Y-67411661D01*
X175775158Y-67986220D01*
X176263780Y-68474842D01*
X176838339Y-68858750D01*
X177476754Y-69123190D01*
X178154492Y-69258000D01*
X178845508Y-69258000D01*
X179523246Y-69123190D01*
X180161661Y-68858750D01*
X180736220Y-68474842D01*
X181224842Y-67986220D01*
X181567001Y-67474143D01*
X181567000Y-113025856D01*
X181224842Y-112513780D01*
X180736220Y-112025158D01*
X180161661Y-111641250D01*
X179523246Y-111376810D01*
X178845508Y-111242000D01*
X178154492Y-111242000D01*
X177476754Y-111376810D01*
X176838339Y-111641250D01*
X176263780Y-112025158D01*
X175775158Y-112513780D01*
X175391250Y-113088339D01*
X175126810Y-113726754D01*
X174992000Y-114404492D01*
X174992000Y-115095508D01*
X175126810Y-115773246D01*
X175391250Y-116411661D01*
X175775158Y-116986220D01*
X176263780Y-117474842D01*
X176775856Y-117817000D01*
X122224144Y-117817000D01*
X122736220Y-117474842D01*
X123224842Y-116986220D01*
X123608750Y-116411661D01*
X123873190Y-115773246D01*
X124008000Y-115095508D01*
X124008000Y-114404492D01*
X123873190Y-113726754D01*
X123608750Y-113088339D01*
X123224842Y-112513780D01*
X122736220Y-112025158D01*
X122161661Y-111641250D01*
X121523246Y-111376810D01*
X120845508Y-111242000D01*
X120154492Y-111242000D01*
X119476754Y-111376810D01*
X118838339Y-111641250D01*
X118263780Y-112025158D01*
X117775158Y-112513780D01*
X117433000Y-113025856D01*
X117433000Y-106143334D01*
X151917000Y-106143334D01*
X151917000Y-106356666D01*
X151958619Y-106565899D01*
X152040258Y-106762993D01*
X152158779Y-106940372D01*
X152309628Y-107091221D01*
X152487007Y-107209742D01*
X152684101Y-107291381D01*
X152893334Y-107333000D01*
X153106666Y-107333000D01*
X153315899Y-107291381D01*
X153512993Y-107209742D01*
X153690372Y-107091221D01*
X153841221Y-106940372D01*
X153959742Y-106762993D01*
X154041381Y-106565899D01*
X154083000Y-106356666D01*
X154083000Y-106143334D01*
X154041381Y-105934101D01*
X153959742Y-105737007D01*
X153851493Y-105575000D01*
X156915026Y-105575000D01*
X156915026Y-106925000D01*
X156922904Y-107004982D01*
X156946233Y-107081890D01*
X156984119Y-107152769D01*
X157035105Y-107214895D01*
X157097231Y-107265881D01*
X157168110Y-107303767D01*
X157245018Y-107327096D01*
X157325000Y-107334974D01*
X158675000Y-107334974D01*
X158754982Y-107327096D01*
X158831890Y-107303767D01*
X158902769Y-107265881D01*
X158964895Y-107214895D01*
X159015881Y-107152769D01*
X159053767Y-107081890D01*
X159077096Y-107004982D01*
X159084974Y-106925000D01*
X159084974Y-105575000D01*
X159077096Y-105495018D01*
X159053767Y-105418110D01*
X159015881Y-105347231D01*
X158964895Y-105285105D01*
X158902769Y-105234119D01*
X158831890Y-105196233D01*
X158754982Y-105172904D01*
X158675000Y-105165026D01*
X157325000Y-105165026D01*
X157245018Y-105172904D01*
X157168110Y-105196233D01*
X157097231Y-105234119D01*
X157035105Y-105285105D01*
X156984119Y-105347231D01*
X156946233Y-105418110D01*
X156922904Y-105495018D01*
X156915026Y-105575000D01*
X153851493Y-105575000D01*
X153841221Y-105559628D01*
X153690372Y-105408779D01*
X153512993Y-105290258D01*
X153315899Y-105208619D01*
X153106666Y-105167000D01*
X152893334Y-105167000D01*
X152684101Y-105208619D01*
X152487007Y-105290258D01*
X152309628Y-105408779D01*
X152158779Y-105559628D01*
X152040258Y-105737007D01*
X151958619Y-105934101D01*
X151917000Y-106143334D01*
X117433000Y-106143334D01*
X117433000Y-102870419D01*
X157242000Y-102870419D01*
X157242000Y-103029581D01*
X157273051Y-103185685D01*
X157333959Y-103332732D01*
X157422385Y-103465070D01*
X157534930Y-103577615D01*
X157667268Y-103666041D01*
X157814315Y-103726949D01*
X157970419Y-103758000D01*
X158129581Y-103758000D01*
X158285685Y-103726949D01*
X158432732Y-103666041D01*
X158565070Y-103577615D01*
X158659685Y-103483000D01*
X160273825Y-103483000D01*
X160300000Y-103485578D01*
X160404486Y-103475287D01*
X160504957Y-103444810D01*
X160567000Y-103411647D01*
X160567001Y-111563225D01*
X160558000Y-111554224D01*
X160558000Y-111420419D01*
X160526949Y-111264315D01*
X160466041Y-111117268D01*
X160377615Y-110984930D01*
X160265070Y-110872385D01*
X160132732Y-110783959D01*
X159985685Y-110723051D01*
X159829581Y-110692000D01*
X159670419Y-110692000D01*
X159514315Y-110723051D01*
X159367268Y-110783959D01*
X159234930Y-110872385D01*
X159122385Y-110984930D01*
X159033959Y-111117268D01*
X158973051Y-111264315D01*
X158942000Y-111420419D01*
X158942000Y-111579581D01*
X158973051Y-111735685D01*
X159033959Y-111882732D01*
X159122385Y-112015070D01*
X159234930Y-112127615D01*
X159367268Y-112216041D01*
X159514315Y-112276949D01*
X159670419Y-112308000D01*
X159804224Y-112308000D01*
X160004593Y-112508369D01*
X160021279Y-112528701D01*
X160102439Y-112595307D01*
X160116990Y-112603085D01*
X160116990Y-113026174D01*
X160116991Y-113026184D01*
X160116990Y-114368803D01*
X160116990Y-114765605D01*
X160114412Y-114791780D01*
X160124703Y-114896266D01*
X160132591Y-114922270D01*
X160155180Y-114996736D01*
X160204673Y-115089331D01*
X160271279Y-115170491D01*
X160291616Y-115187181D01*
X160908854Y-115804420D01*
X160908860Y-115804425D01*
X161067199Y-115962764D01*
X161083889Y-115983101D01*
X161165049Y-116049707D01*
X161257643Y-116099200D01*
X161358114Y-116129677D01*
X161436425Y-116137390D01*
X161436427Y-116137390D01*
X161462599Y-116139968D01*
X161488772Y-116137390D01*
X162619435Y-116137390D01*
X162645610Y-116139968D01*
X162750096Y-116129677D01*
X162751540Y-116129239D01*
X162850567Y-116099200D01*
X162943161Y-116049707D01*
X163024321Y-115983101D01*
X163041011Y-115962764D01*
X164108379Y-114895397D01*
X164128711Y-114878711D01*
X164195317Y-114797551D01*
X164244810Y-114704957D01*
X164275287Y-114604486D01*
X164283000Y-114526175D01*
X164283000Y-114526173D01*
X164285578Y-114500001D01*
X164283000Y-114473828D01*
X164283000Y-111859685D01*
X164377615Y-111765070D01*
X164466041Y-111632732D01*
X164526949Y-111485685D01*
X164558000Y-111329581D01*
X164558000Y-111170419D01*
X164526949Y-111014315D01*
X164466041Y-110867268D01*
X164377615Y-110734930D01*
X164265070Y-110622385D01*
X164132732Y-110533959D01*
X163985685Y-110473051D01*
X163829581Y-110442000D01*
X163670419Y-110442000D01*
X163514315Y-110473051D01*
X163433000Y-110506732D01*
X163433000Y-109884765D01*
X176330000Y-109884765D01*
X176330000Y-110115235D01*
X176374963Y-110341276D01*
X176463160Y-110554203D01*
X176591202Y-110745831D01*
X176754169Y-110908798D01*
X176945797Y-111036840D01*
X177158724Y-111125037D01*
X177384765Y-111170000D01*
X177615235Y-111170000D01*
X177841276Y-111125037D01*
X178054203Y-111036840D01*
X178245831Y-110908798D01*
X178408798Y-110745831D01*
X178536840Y-110554203D01*
X178625037Y-110341276D01*
X178670000Y-110115235D01*
X178670000Y-109884765D01*
X178625037Y-109658724D01*
X178536840Y-109445797D01*
X178408798Y-109254169D01*
X178245831Y-109091202D01*
X178054203Y-108963160D01*
X177841276Y-108874963D01*
X177615235Y-108830000D01*
X177384765Y-108830000D01*
X177158724Y-108874963D01*
X176945797Y-108963160D01*
X176754169Y-109091202D01*
X176591202Y-109254169D01*
X176463160Y-109445797D01*
X176374963Y-109658724D01*
X176330000Y-109884765D01*
X163433000Y-109884765D01*
X163433000Y-106884765D01*
X176330000Y-106884765D01*
X176330000Y-107115235D01*
X176374963Y-107341276D01*
X176463160Y-107554203D01*
X176591202Y-107745831D01*
X176754169Y-107908798D01*
X176945797Y-108036840D01*
X177158724Y-108125037D01*
X177384765Y-108170000D01*
X177615235Y-108170000D01*
X177841276Y-108125037D01*
X178054203Y-108036840D01*
X178245831Y-107908798D01*
X178408798Y-107745831D01*
X178536840Y-107554203D01*
X178625037Y-107341276D01*
X178670000Y-107115235D01*
X178670000Y-106884765D01*
X178625037Y-106658724D01*
X178536840Y-106445797D01*
X178408798Y-106254169D01*
X178245831Y-106091202D01*
X178054203Y-105963160D01*
X177841276Y-105874963D01*
X177615235Y-105830000D01*
X177384765Y-105830000D01*
X177158724Y-105874963D01*
X176945797Y-105963160D01*
X176754169Y-106091202D01*
X176591202Y-106254169D01*
X176463160Y-106445797D01*
X176374963Y-106658724D01*
X176330000Y-106884765D01*
X163433000Y-106884765D01*
X163433000Y-99228728D01*
X163430837Y-99206766D01*
X163430837Y-99193785D01*
X163430204Y-99187772D01*
X163408450Y-98993822D01*
X163400289Y-98955428D01*
X163392667Y-98916936D01*
X163390879Y-98911160D01*
X163331866Y-98725130D01*
X163316410Y-98689068D01*
X163301452Y-98652777D01*
X163298576Y-98647458D01*
X163298576Y-98647457D01*
X163298573Y-98647453D01*
X163204554Y-98476433D01*
X163182368Y-98444031D01*
X163160665Y-98411365D01*
X163156815Y-98406712D01*
X163156811Y-98406706D01*
X163156806Y-98406701D01*
X163031361Y-98257201D01*
X163003316Y-98229737D01*
X162975667Y-98201894D01*
X162970993Y-98198083D01*
X162970984Y-98198074D01*
X162970975Y-98198068D01*
X162818882Y-98075782D01*
X162786019Y-98054277D01*
X162754475Y-98033000D01*
X163640315Y-98033000D01*
X163734930Y-98127615D01*
X163867268Y-98216041D01*
X164014315Y-98276949D01*
X164170419Y-98308000D01*
X164329581Y-98308000D01*
X164485685Y-98276949D01*
X164632732Y-98216041D01*
X164765070Y-98127615D01*
X164877615Y-98015070D01*
X164966041Y-97882732D01*
X165026949Y-97735685D01*
X165058000Y-97579581D01*
X165058000Y-97420419D01*
X165026949Y-97264315D01*
X164988057Y-97170419D01*
X173942000Y-97170419D01*
X173942000Y-97329581D01*
X173950500Y-97372313D01*
X173950500Y-97776414D01*
X173946632Y-97815685D01*
X173950500Y-97854956D01*
X173950500Y-97854959D01*
X173962068Y-97972414D01*
X174007785Y-98123121D01*
X174023116Y-98151802D01*
X174082024Y-98262012D01*
X174126073Y-98315685D01*
X174181934Y-98383752D01*
X174212443Y-98408790D01*
X174450500Y-98646847D01*
X174450501Y-105210719D01*
X174446632Y-105250000D01*
X174462069Y-105406729D01*
X174507785Y-105557435D01*
X174582024Y-105696327D01*
X174614325Y-105735685D01*
X174681934Y-105818067D01*
X174712442Y-105843104D01*
X174848175Y-105978838D01*
X174872385Y-106015070D01*
X174984930Y-106127615D01*
X175117268Y-106216041D01*
X175264315Y-106276949D01*
X175420419Y-106308000D01*
X175579581Y-106308000D01*
X175735685Y-106276949D01*
X175882732Y-106216041D01*
X176015070Y-106127615D01*
X176127615Y-106015070D01*
X176216041Y-105882732D01*
X176276949Y-105735685D01*
X176290994Y-105665076D01*
X176367268Y-105716041D01*
X176514315Y-105776949D01*
X176670419Y-105808000D01*
X176829581Y-105808000D01*
X176985685Y-105776949D01*
X177132732Y-105716041D01*
X177265070Y-105627615D01*
X177377615Y-105515070D01*
X177466041Y-105382732D01*
X177526949Y-105235685D01*
X177558000Y-105079581D01*
X177558000Y-104920419D01*
X177549500Y-104877687D01*
X177549500Y-103473666D01*
X177607092Y-103426400D01*
X177676400Y-103357092D01*
X177727386Y-103294967D01*
X177760772Y-103245000D01*
X178545026Y-103245000D01*
X178545026Y-104835000D01*
X178552904Y-104914982D01*
X178576233Y-104991890D01*
X178614119Y-105062769D01*
X178665105Y-105124895D01*
X178727231Y-105175881D01*
X178798110Y-105213767D01*
X178875018Y-105237096D01*
X178955000Y-105244974D01*
X180545000Y-105244974D01*
X180624982Y-105237096D01*
X180701890Y-105213767D01*
X180772769Y-105175881D01*
X180834895Y-105124895D01*
X180885881Y-105062769D01*
X180923767Y-104991890D01*
X180947096Y-104914982D01*
X180954974Y-104835000D01*
X180954974Y-103245000D01*
X180947096Y-103165018D01*
X180923767Y-103088110D01*
X180885881Y-103017231D01*
X180834895Y-102955105D01*
X180772769Y-102904119D01*
X180701890Y-102866233D01*
X180624982Y-102842904D01*
X180545000Y-102835026D01*
X178955000Y-102835026D01*
X178875018Y-102842904D01*
X178798110Y-102866233D01*
X178727231Y-102904119D01*
X178665105Y-102955105D01*
X178614119Y-103017231D01*
X178576233Y-103088110D01*
X178552904Y-103165018D01*
X178545026Y-103245000D01*
X177760772Y-103245000D01*
X177781842Y-103213468D01*
X177819728Y-103142586D01*
X177857237Y-103052030D01*
X177880566Y-102975124D01*
X177899688Y-102878991D01*
X177907566Y-102799009D01*
X177907566Y-102774447D01*
X177909974Y-102750000D01*
X177909974Y-102299500D01*
X178848201Y-102299500D01*
X178983132Y-102434431D01*
X179180166Y-102566085D01*
X179399098Y-102656770D01*
X179631515Y-102703000D01*
X179868485Y-102703000D01*
X180100902Y-102656770D01*
X180319834Y-102566085D01*
X180516868Y-102434431D01*
X180684431Y-102266868D01*
X180816085Y-102069834D01*
X180906770Y-101850902D01*
X180953000Y-101618485D01*
X180953000Y-101381515D01*
X180906770Y-101149098D01*
X180816085Y-100930166D01*
X180684431Y-100733132D01*
X180516868Y-100565569D01*
X180319834Y-100433915D01*
X180100902Y-100343230D01*
X179868485Y-100297000D01*
X179631515Y-100297000D01*
X179399098Y-100343230D01*
X179180166Y-100433915D01*
X178983132Y-100565569D01*
X178848201Y-100700500D01*
X177909925Y-100700500D01*
X177909974Y-100700000D01*
X177909974Y-100150000D01*
X177907566Y-100125553D01*
X177907566Y-100100991D01*
X177899688Y-100021009D01*
X177880566Y-99924876D01*
X177857237Y-99847970D01*
X177819728Y-99757414D01*
X177781842Y-99686532D01*
X177727386Y-99605033D01*
X177676400Y-99542908D01*
X177607092Y-99473600D01*
X177549500Y-99426334D01*
X177549500Y-98622313D01*
X177558000Y-98579581D01*
X177558000Y-98420419D01*
X177526949Y-98264315D01*
X177466041Y-98117268D01*
X177377615Y-97984930D01*
X177265070Y-97872385D01*
X177132732Y-97783959D01*
X176985685Y-97723051D01*
X176829581Y-97692000D01*
X176670419Y-97692000D01*
X176514315Y-97723051D01*
X176367268Y-97783959D01*
X176234930Y-97872385D01*
X176122385Y-97984930D01*
X176033959Y-98117268D01*
X176028953Y-98129355D01*
X175992215Y-98008249D01*
X175982024Y-97989183D01*
X175917976Y-97869357D01*
X175876973Y-97819396D01*
X175818067Y-97747618D01*
X175787554Y-97722577D01*
X175549500Y-97484523D01*
X175549500Y-97372313D01*
X175558000Y-97329581D01*
X175558000Y-97170419D01*
X175526949Y-97014315D01*
X175466041Y-96867268D01*
X175377615Y-96734930D01*
X175265070Y-96622385D01*
X175132732Y-96533959D01*
X174985685Y-96473051D01*
X174829581Y-96442000D01*
X174670419Y-96442000D01*
X174514315Y-96473051D01*
X174367268Y-96533959D01*
X174234930Y-96622385D01*
X174122385Y-96734930D01*
X174033959Y-96867268D01*
X173973051Y-97014315D01*
X173942000Y-97170419D01*
X164988057Y-97170419D01*
X164966041Y-97117268D01*
X164877615Y-96984930D01*
X164765070Y-96872385D01*
X164632732Y-96783959D01*
X164485685Y-96723051D01*
X164329581Y-96692000D01*
X164170419Y-96692000D01*
X164014315Y-96723051D01*
X163867268Y-96783959D01*
X163734930Y-96872385D01*
X163640315Y-96967000D01*
X162609685Y-96967000D01*
X162515070Y-96872385D01*
X162382732Y-96783959D01*
X162235685Y-96723051D01*
X162079581Y-96692000D01*
X161920419Y-96692000D01*
X161764315Y-96723051D01*
X161617268Y-96783959D01*
X161484930Y-96872385D01*
X161372385Y-96984930D01*
X161315257Y-97070428D01*
X161292398Y-95600287D01*
X161377615Y-95515070D01*
X161466041Y-95382732D01*
X161526949Y-95235685D01*
X161558000Y-95079581D01*
X161558000Y-94920419D01*
X161526949Y-94764315D01*
X161466041Y-94617268D01*
X161377615Y-94484930D01*
X161265070Y-94372385D01*
X161132732Y-94283959D01*
X160985685Y-94223051D01*
X160829581Y-94192000D01*
X160670419Y-94192000D01*
X160514315Y-94223051D01*
X160367268Y-94283959D01*
X160234930Y-94372385D01*
X160122385Y-94484930D01*
X160033959Y-94617268D01*
X159973051Y-94764315D01*
X159942000Y-94920419D01*
X159942000Y-95079581D01*
X159973051Y-95235685D01*
X160033959Y-95382732D01*
X160122385Y-95515070D01*
X160226565Y-95619250D01*
X160263557Y-97998353D01*
X160241622Y-98020288D01*
X160221290Y-98036974D01*
X160204604Y-98057306D01*
X160154684Y-98118134D01*
X160105191Y-98210728D01*
X160074713Y-98311199D01*
X160064422Y-98415685D01*
X160067001Y-98441870D01*
X160067000Y-102417000D01*
X158659685Y-102417000D01*
X158565070Y-102322385D01*
X158432732Y-102233959D01*
X158285685Y-102173051D01*
X158129581Y-102142000D01*
X157970419Y-102142000D01*
X157814315Y-102173051D01*
X157667268Y-102233959D01*
X157534930Y-102322385D01*
X157422385Y-102434930D01*
X157333959Y-102567268D01*
X157273051Y-102714315D01*
X157242000Y-102870419D01*
X117433000Y-102870419D01*
X117433000Y-101870419D01*
X137092000Y-101870419D01*
X137092000Y-102029581D01*
X137123051Y-102185685D01*
X137183959Y-102332732D01*
X137272385Y-102465070D01*
X137384930Y-102577615D01*
X137517268Y-102666041D01*
X137664315Y-102726949D01*
X137820419Y-102758000D01*
X137979581Y-102758000D01*
X138135685Y-102726949D01*
X138282732Y-102666041D01*
X138415070Y-102577615D01*
X138509685Y-102483000D01*
X146590315Y-102483000D01*
X146684930Y-102577615D01*
X146817268Y-102666041D01*
X146964315Y-102726949D01*
X147120419Y-102758000D01*
X147279581Y-102758000D01*
X147435685Y-102726949D01*
X147582732Y-102666041D01*
X147715070Y-102577615D01*
X147827615Y-102465070D01*
X147916041Y-102332732D01*
X147976949Y-102185685D01*
X148008000Y-102029581D01*
X148008000Y-101870419D01*
X147976949Y-101714315D01*
X147916041Y-101567268D01*
X147827615Y-101434930D01*
X147715070Y-101322385D01*
X147582732Y-101233959D01*
X147435685Y-101173051D01*
X147279581Y-101142000D01*
X147120419Y-101142000D01*
X146964315Y-101173051D01*
X146817268Y-101233959D01*
X146684930Y-101322385D01*
X146590315Y-101417000D01*
X138509685Y-101417000D01*
X138415070Y-101322385D01*
X138282732Y-101233959D01*
X138135685Y-101173051D01*
X137979581Y-101142000D01*
X137820419Y-101142000D01*
X137664315Y-101173051D01*
X137517268Y-101233959D01*
X137384930Y-101322385D01*
X137272385Y-101434930D01*
X137183959Y-101567268D01*
X137123051Y-101714315D01*
X137092000Y-101870419D01*
X117433000Y-101870419D01*
X117433000Y-75600000D01*
X125800000Y-75600000D01*
X125800000Y-93850000D01*
X125801921Y-93869509D01*
X125807612Y-93888268D01*
X125816853Y-93905557D01*
X125829289Y-93920711D01*
X125844443Y-93933147D01*
X125861732Y-93942388D01*
X125880491Y-93948079D01*
X125900000Y-93950000D01*
X135000000Y-93950000D01*
X135019509Y-93948079D01*
X135038268Y-93942388D01*
X135055557Y-93933147D01*
X135070711Y-93920711D01*
X135083147Y-93905557D01*
X135092388Y-93888268D01*
X135098079Y-93869509D01*
X135100000Y-93850000D01*
X135100000Y-87884765D01*
X152580000Y-87884765D01*
X152580000Y-88115235D01*
X152624963Y-88341276D01*
X152713160Y-88554203D01*
X152841202Y-88745831D01*
X153004169Y-88908798D01*
X153195797Y-89036840D01*
X153408724Y-89125037D01*
X153634765Y-89170000D01*
X153865235Y-89170000D01*
X154091276Y-89125037D01*
X154304203Y-89036840D01*
X154495831Y-88908798D01*
X154658798Y-88745831D01*
X154786840Y-88554203D01*
X154875037Y-88341276D01*
X154920000Y-88115235D01*
X154920000Y-87884765D01*
X154875037Y-87658724D01*
X154786840Y-87445797D01*
X154658798Y-87254169D01*
X154495831Y-87091202D01*
X154304203Y-86963160D01*
X154091276Y-86874963D01*
X153865235Y-86830000D01*
X153634765Y-86830000D01*
X153408724Y-86874963D01*
X153195797Y-86963160D01*
X153004169Y-87091202D01*
X152841202Y-87254169D01*
X152713160Y-87445797D01*
X152624963Y-87658724D01*
X152580000Y-87884765D01*
X135100000Y-87884765D01*
X135100000Y-85384765D01*
X152580000Y-85384765D01*
X152580000Y-85615235D01*
X152624963Y-85841276D01*
X152713160Y-86054203D01*
X152841202Y-86245831D01*
X153004169Y-86408798D01*
X153195797Y-86536840D01*
X153408724Y-86625037D01*
X153634765Y-86670000D01*
X153865235Y-86670000D01*
X154091276Y-86625037D01*
X154304203Y-86536840D01*
X154495831Y-86408798D01*
X154658798Y-86245831D01*
X154786840Y-86054203D01*
X154795623Y-86033000D01*
X156029225Y-86033000D01*
X156692000Y-86695776D01*
X156692000Y-86829581D01*
X156723051Y-86985685D01*
X156783959Y-87132732D01*
X156872385Y-87265070D01*
X156984930Y-87377615D01*
X157117268Y-87466041D01*
X157264315Y-87526949D01*
X157420419Y-87558000D01*
X157579581Y-87558000D01*
X157735685Y-87526949D01*
X157882732Y-87466041D01*
X158015070Y-87377615D01*
X158127615Y-87265070D01*
X158216041Y-87132732D01*
X158276949Y-86985685D01*
X158308000Y-86829581D01*
X158308000Y-86670419D01*
X158276949Y-86514315D01*
X158216041Y-86367268D01*
X158127615Y-86234930D01*
X158015070Y-86122385D01*
X157882732Y-86033959D01*
X157735685Y-85973051D01*
X157579581Y-85942000D01*
X157445776Y-85942000D01*
X156645401Y-85141626D01*
X156628711Y-85121289D01*
X156547551Y-85054683D01*
X156454957Y-85005190D01*
X156354486Y-84974713D01*
X156276175Y-84967000D01*
X156250000Y-84964422D01*
X156223825Y-84967000D01*
X154795623Y-84967000D01*
X154786840Y-84945797D01*
X154658798Y-84754169D01*
X154495831Y-84591202D01*
X154304203Y-84463160D01*
X154091276Y-84374963D01*
X153865235Y-84330000D01*
X153634765Y-84330000D01*
X153408724Y-84374963D01*
X153195797Y-84463160D01*
X153004169Y-84591202D01*
X152841202Y-84754169D01*
X152713160Y-84945797D01*
X152624963Y-85158724D01*
X152580000Y-85384765D01*
X135100000Y-85384765D01*
X135100000Y-79420419D01*
X151442000Y-79420419D01*
X151442000Y-79579581D01*
X151473051Y-79735685D01*
X151533959Y-79882732D01*
X151622385Y-80015070D01*
X151717000Y-80109685D01*
X151717001Y-82723815D01*
X151714422Y-82750000D01*
X151724713Y-82854486D01*
X151737159Y-82895513D01*
X151755191Y-82954957D01*
X151804684Y-83047551D01*
X151871290Y-83128711D01*
X151891622Y-83145397D01*
X152104599Y-83358374D01*
X152121289Y-83378711D01*
X152202449Y-83445317D01*
X152295043Y-83494810D01*
X152395514Y-83525287D01*
X152473825Y-83533000D01*
X152473834Y-83533000D01*
X152499999Y-83535577D01*
X152526164Y-83533000D01*
X152704377Y-83533000D01*
X152713160Y-83554203D01*
X152841202Y-83745831D01*
X153004169Y-83908798D01*
X153195797Y-84036840D01*
X153408724Y-84125037D01*
X153634765Y-84170000D01*
X153865235Y-84170000D01*
X154091276Y-84125037D01*
X154304203Y-84036840D01*
X154495831Y-83908798D01*
X154658798Y-83745831D01*
X154786840Y-83554203D01*
X154875037Y-83341276D01*
X154920000Y-83115235D01*
X154920000Y-82884765D01*
X154875037Y-82658724D01*
X154786840Y-82445797D01*
X154658798Y-82254169D01*
X154495831Y-82091202D01*
X154304203Y-81963160D01*
X154091276Y-81874963D01*
X153865235Y-81830000D01*
X153634765Y-81830000D01*
X153408724Y-81874963D01*
X153195797Y-81963160D01*
X153004169Y-82091202D01*
X152841202Y-82254169D01*
X152783000Y-82341274D01*
X152783000Y-81158726D01*
X152841202Y-81245831D01*
X153004169Y-81408798D01*
X153195797Y-81536840D01*
X153408724Y-81625037D01*
X153634765Y-81670000D01*
X153865235Y-81670000D01*
X154091276Y-81625037D01*
X154304203Y-81536840D01*
X154495831Y-81408798D01*
X154658798Y-81245831D01*
X154786840Y-81054203D01*
X154795623Y-81033000D01*
X165390315Y-81033000D01*
X165484930Y-81127615D01*
X165617268Y-81216041D01*
X165764315Y-81276949D01*
X165920419Y-81308000D01*
X166079581Y-81308000D01*
X166235685Y-81276949D01*
X166382732Y-81216041D01*
X166515070Y-81127615D01*
X166627615Y-81015070D01*
X166716041Y-80882732D01*
X166776949Y-80735685D01*
X166808000Y-80579581D01*
X166808000Y-80420419D01*
X166776949Y-80264315D01*
X166716041Y-80117268D01*
X166627615Y-79984930D01*
X166515070Y-79872385D01*
X166382732Y-79783959D01*
X166235685Y-79723051D01*
X166079581Y-79692000D01*
X165920419Y-79692000D01*
X165764315Y-79723051D01*
X165617268Y-79783959D01*
X165484930Y-79872385D01*
X165390315Y-79967000D01*
X154795623Y-79967000D01*
X154786840Y-79945797D01*
X154658798Y-79754169D01*
X154495831Y-79591202D01*
X154304203Y-79463160D01*
X154091276Y-79374963D01*
X153865235Y-79330000D01*
X153634765Y-79330000D01*
X153408724Y-79374963D01*
X153195797Y-79463160D01*
X153058000Y-79555233D01*
X153058000Y-79420419D01*
X153026949Y-79264315D01*
X152966041Y-79117268D01*
X152877615Y-78984930D01*
X152765070Y-78872385D01*
X152632732Y-78783959D01*
X152485685Y-78723051D01*
X152329581Y-78692000D01*
X152170419Y-78692000D01*
X152014315Y-78723051D01*
X151867268Y-78783959D01*
X151734930Y-78872385D01*
X151622385Y-78984930D01*
X151533959Y-79117268D01*
X151473051Y-79264315D01*
X151442000Y-79420419D01*
X135100000Y-79420419D01*
X135100000Y-75500000D01*
X135098079Y-75480491D01*
X135092388Y-75461732D01*
X135083147Y-75444443D01*
X135070711Y-75429289D01*
X135055557Y-75416853D01*
X135038268Y-75407612D01*
X135019509Y-75401921D01*
X135000000Y-75400000D01*
X132850000Y-75400000D01*
X132850000Y-70000000D01*
X132848079Y-69980491D01*
X132842388Y-69961732D01*
X132833147Y-69944443D01*
X132820711Y-69929289D01*
X132805557Y-69916853D01*
X132788268Y-69907612D01*
X132769509Y-69901921D01*
X132750000Y-69900000D01*
X129850000Y-69900000D01*
X129850000Y-66881515D01*
X131917000Y-66881515D01*
X131917000Y-67118485D01*
X131963230Y-67350902D01*
X132053915Y-67569834D01*
X132185569Y-67766868D01*
X132353132Y-67934431D01*
X132550166Y-68066085D01*
X132769098Y-68156770D01*
X133001515Y-68203000D01*
X133238485Y-68203000D01*
X133470902Y-68156770D01*
X133689834Y-68066085D01*
X133886868Y-67934431D01*
X134054431Y-67766868D01*
X134186085Y-67569834D01*
X134276770Y-67350902D01*
X134323000Y-67118485D01*
X134323000Y-66881515D01*
X134457000Y-66881515D01*
X134457000Y-67118485D01*
X134503230Y-67350902D01*
X134593915Y-67569834D01*
X134725569Y-67766868D01*
X134893132Y-67934431D01*
X135090166Y-68066085D01*
X135309098Y-68156770D01*
X135541515Y-68203000D01*
X135778485Y-68203000D01*
X136010902Y-68156770D01*
X136229834Y-68066085D01*
X136426868Y-67934431D01*
X136594431Y-67766868D01*
X136726085Y-67569834D01*
X136816770Y-67350902D01*
X136863000Y-67118485D01*
X136863000Y-66881515D01*
X136997000Y-66881515D01*
X136997000Y-67118485D01*
X137043230Y-67350902D01*
X137133915Y-67569834D01*
X137265569Y-67766868D01*
X137433132Y-67934431D01*
X137630166Y-68066085D01*
X137849098Y-68156770D01*
X138081515Y-68203000D01*
X138318485Y-68203000D01*
X138550902Y-68156770D01*
X138769834Y-68066085D01*
X138966868Y-67934431D01*
X139134431Y-67766868D01*
X139266085Y-67569834D01*
X139356770Y-67350902D01*
X139403000Y-67118485D01*
X139403000Y-66881515D01*
X142077000Y-66881515D01*
X142077000Y-67118485D01*
X142123230Y-67350902D01*
X142213915Y-67569834D01*
X142345569Y-67766868D01*
X142513132Y-67934431D01*
X142710166Y-68066085D01*
X142747001Y-68081342D01*
X142747000Y-69565325D01*
X142652385Y-69659940D01*
X142563959Y-69792278D01*
X142503051Y-69939325D01*
X142472000Y-70095429D01*
X142472000Y-70254591D01*
X142503051Y-70410695D01*
X142563959Y-70557742D01*
X142652385Y-70690080D01*
X142764930Y-70802625D01*
X142897268Y-70891051D01*
X143044315Y-70951959D01*
X143200419Y-70983010D01*
X143359581Y-70983010D01*
X143515685Y-70951959D01*
X143662732Y-70891051D01*
X143795070Y-70802625D01*
X143907615Y-70690080D01*
X143996041Y-70557742D01*
X144056949Y-70410695D01*
X144088000Y-70254591D01*
X144088000Y-70095429D01*
X144056949Y-69939325D01*
X143996041Y-69792278D01*
X143907615Y-69659940D01*
X143813000Y-69565325D01*
X143813000Y-68081342D01*
X143849834Y-68066085D01*
X144046868Y-67934431D01*
X144214431Y-67766868D01*
X144346085Y-67569834D01*
X144436770Y-67350902D01*
X144483000Y-67118485D01*
X144483000Y-66881515D01*
X144617000Y-66881515D01*
X144617000Y-67118485D01*
X144663230Y-67350902D01*
X144753915Y-67569834D01*
X144885569Y-67766868D01*
X145053132Y-67934431D01*
X145250166Y-68066085D01*
X145287000Y-68081342D01*
X145287001Y-69837592D01*
X145234930Y-69872385D01*
X145122385Y-69984930D01*
X145033959Y-70117268D01*
X144973051Y-70264315D01*
X144942000Y-70420419D01*
X144942000Y-70579581D01*
X144973051Y-70735685D01*
X145033959Y-70882732D01*
X145122385Y-71015070D01*
X145234930Y-71127615D01*
X145367268Y-71216041D01*
X145514315Y-71276949D01*
X145670419Y-71308000D01*
X145829581Y-71308000D01*
X145985685Y-71276949D01*
X146132732Y-71216041D01*
X146265070Y-71127615D01*
X146377615Y-71015070D01*
X146466041Y-70882732D01*
X146526949Y-70735685D01*
X146558000Y-70579581D01*
X146558000Y-70420419D01*
X147442000Y-70420419D01*
X147442000Y-70579581D01*
X147473051Y-70735685D01*
X147533959Y-70882732D01*
X147622385Y-71015070D01*
X147717000Y-71109685D01*
X147717001Y-75140314D01*
X147622385Y-75234930D01*
X147533959Y-75367268D01*
X147473051Y-75514315D01*
X147442000Y-75670419D01*
X147442000Y-75829581D01*
X147473051Y-75985685D01*
X147533959Y-76132732D01*
X147622385Y-76265070D01*
X147734930Y-76377615D01*
X147867268Y-76466041D01*
X148014315Y-76526949D01*
X148170419Y-76558000D01*
X148329581Y-76558000D01*
X148485685Y-76526949D01*
X148632732Y-76466041D01*
X148765070Y-76377615D01*
X148875000Y-76267685D01*
X148984930Y-76377615D01*
X149117268Y-76466041D01*
X149264315Y-76526949D01*
X149420419Y-76558000D01*
X149579581Y-76558000D01*
X149735685Y-76526949D01*
X149882732Y-76466041D01*
X150015070Y-76377615D01*
X150125000Y-76267685D01*
X150234930Y-76377615D01*
X150367268Y-76466041D01*
X150514315Y-76526949D01*
X150670419Y-76558000D01*
X150829581Y-76558000D01*
X150985685Y-76526949D01*
X151132732Y-76466041D01*
X151265070Y-76377615D01*
X151377615Y-76265070D01*
X151466041Y-76132732D01*
X151526949Y-75985685D01*
X151558000Y-75829581D01*
X151558000Y-75670419D01*
X151526949Y-75514315D01*
X151466041Y-75367268D01*
X151377615Y-75234930D01*
X151283000Y-75140315D01*
X151283000Y-71109685D01*
X151377615Y-71015070D01*
X151466041Y-70882732D01*
X151526949Y-70735685D01*
X151558000Y-70579581D01*
X151558000Y-70420419D01*
X151526949Y-70264315D01*
X151502381Y-70205000D01*
X151795026Y-70205000D01*
X151795026Y-71795000D01*
X151802904Y-71874982D01*
X151826233Y-71951890D01*
X151864119Y-72022769D01*
X151915105Y-72084895D01*
X151977231Y-72135881D01*
X152048110Y-72173767D01*
X152125018Y-72197096D01*
X152205000Y-72204974D01*
X153795000Y-72204974D01*
X153874982Y-72197096D01*
X153951890Y-72173767D01*
X154022769Y-72135881D01*
X154084895Y-72084895D01*
X154135881Y-72022769D01*
X154173767Y-71951890D01*
X154197096Y-71874982D01*
X154204974Y-71795000D01*
X154204974Y-70881515D01*
X156877000Y-70881515D01*
X156877000Y-71118485D01*
X156923230Y-71350902D01*
X157013915Y-71569834D01*
X157145569Y-71766868D01*
X157313132Y-71934431D01*
X157510166Y-72066085D01*
X157729098Y-72156770D01*
X157961515Y-72203000D01*
X158198485Y-72203000D01*
X158430902Y-72156770D01*
X158649834Y-72066085D01*
X158846868Y-71934431D01*
X159014431Y-71766868D01*
X159146085Y-71569834D01*
X159236770Y-71350902D01*
X159283000Y-71118485D01*
X159283000Y-70881515D01*
X159417000Y-70881515D01*
X159417000Y-71118485D01*
X159463230Y-71350902D01*
X159553915Y-71569834D01*
X159685569Y-71766868D01*
X159853132Y-71934431D01*
X160050166Y-72066085D01*
X160269098Y-72156770D01*
X160501515Y-72203000D01*
X160738485Y-72203000D01*
X160970902Y-72156770D01*
X161189834Y-72066085D01*
X161386868Y-71934431D01*
X161554431Y-71766868D01*
X161686085Y-71569834D01*
X161776770Y-71350902D01*
X161823000Y-71118485D01*
X161823000Y-70881515D01*
X161776770Y-70649098D01*
X161686085Y-70430166D01*
X161554431Y-70233132D01*
X161386868Y-70065569D01*
X161189834Y-69933915D01*
X160970902Y-69843230D01*
X160738485Y-69797000D01*
X160501515Y-69797000D01*
X160269098Y-69843230D01*
X160050166Y-69933915D01*
X159853132Y-70065569D01*
X159685569Y-70233132D01*
X159553915Y-70430166D01*
X159463230Y-70649098D01*
X159417000Y-70881515D01*
X159283000Y-70881515D01*
X159236770Y-70649098D01*
X159146085Y-70430166D01*
X159014431Y-70233132D01*
X158846868Y-70065569D01*
X158649834Y-69933915D01*
X158430902Y-69843230D01*
X158198485Y-69797000D01*
X157961515Y-69797000D01*
X157729098Y-69843230D01*
X157510166Y-69933915D01*
X157313132Y-70065569D01*
X157145569Y-70233132D01*
X157013915Y-70430166D01*
X156923230Y-70649098D01*
X156877000Y-70881515D01*
X154204974Y-70881515D01*
X154204974Y-70205000D01*
X154197096Y-70125018D01*
X154173767Y-70048110D01*
X154135881Y-69977231D01*
X154084895Y-69915105D01*
X154022769Y-69864119D01*
X153951890Y-69826233D01*
X153874982Y-69802904D01*
X153795000Y-69795026D01*
X152205000Y-69795026D01*
X152125018Y-69802904D01*
X152048110Y-69826233D01*
X151977231Y-69864119D01*
X151915105Y-69915105D01*
X151864119Y-69977231D01*
X151826233Y-70048110D01*
X151802904Y-70125018D01*
X151795026Y-70205000D01*
X151502381Y-70205000D01*
X151466041Y-70117268D01*
X151377615Y-69984930D01*
X151265070Y-69872385D01*
X151132732Y-69783959D01*
X150985685Y-69723051D01*
X150829581Y-69692000D01*
X150670419Y-69692000D01*
X150514315Y-69723051D01*
X150367268Y-69783959D01*
X150234930Y-69872385D01*
X150125000Y-69982315D01*
X150015070Y-69872385D01*
X149882732Y-69783959D01*
X149735685Y-69723051D01*
X149579581Y-69692000D01*
X149420419Y-69692000D01*
X149264315Y-69723051D01*
X149117268Y-69783959D01*
X148984930Y-69872385D01*
X148875000Y-69982315D01*
X148765070Y-69872385D01*
X148632732Y-69783959D01*
X148485685Y-69723051D01*
X148329581Y-69692000D01*
X148170419Y-69692000D01*
X148014315Y-69723051D01*
X147867268Y-69783959D01*
X147734930Y-69872385D01*
X147622385Y-69984930D01*
X147533959Y-70117268D01*
X147473051Y-70264315D01*
X147442000Y-70420419D01*
X146558000Y-70420419D01*
X146526949Y-70264315D01*
X146466041Y-70117268D01*
X146377615Y-69984930D01*
X146353000Y-69960315D01*
X146353000Y-68081342D01*
X146389834Y-68066085D01*
X146586868Y-67934431D01*
X146754431Y-67766868D01*
X146886085Y-67569834D01*
X146976770Y-67350902D01*
X147023000Y-67118485D01*
X147023000Y-66881515D01*
X149697000Y-66881515D01*
X149697000Y-67118485D01*
X149743230Y-67350902D01*
X149833915Y-67569834D01*
X149965569Y-67766868D01*
X150133132Y-67934431D01*
X150330166Y-68066085D01*
X150549098Y-68156770D01*
X150781515Y-68203000D01*
X151018485Y-68203000D01*
X151250902Y-68156770D01*
X151469834Y-68066085D01*
X151666868Y-67934431D01*
X151834431Y-67766868D01*
X151966085Y-67569834D01*
X152056770Y-67350902D01*
X152103000Y-67118485D01*
X152103000Y-66881515D01*
X152237000Y-66881515D01*
X152237000Y-67118485D01*
X152283230Y-67350902D01*
X152373915Y-67569834D01*
X152505569Y-67766868D01*
X152673132Y-67934431D01*
X152870166Y-68066085D01*
X153089098Y-68156770D01*
X153321515Y-68203000D01*
X153558485Y-68203000D01*
X153790902Y-68156770D01*
X154009834Y-68066085D01*
X154206868Y-67934431D01*
X154374431Y-67766868D01*
X154506085Y-67569834D01*
X154596770Y-67350902D01*
X154643000Y-67118485D01*
X154643000Y-66881515D01*
X154777000Y-66881515D01*
X154777000Y-67118485D01*
X154823230Y-67350902D01*
X154913915Y-67569834D01*
X155045569Y-67766868D01*
X155213132Y-67934431D01*
X155410166Y-68066085D01*
X155629098Y-68156770D01*
X155861515Y-68203000D01*
X156098485Y-68203000D01*
X156330902Y-68156770D01*
X156549834Y-68066085D01*
X156746868Y-67934431D01*
X156914431Y-67766868D01*
X157046085Y-67569834D01*
X157136770Y-67350902D01*
X157183000Y-67118485D01*
X157183000Y-66881515D01*
X157317000Y-66881515D01*
X157317000Y-67118485D01*
X157363230Y-67350902D01*
X157453915Y-67569834D01*
X157585569Y-67766868D01*
X157753132Y-67934431D01*
X157950166Y-68066085D01*
X158169098Y-68156770D01*
X158401515Y-68203000D01*
X158638485Y-68203000D01*
X158870902Y-68156770D01*
X159089834Y-68066085D01*
X159286868Y-67934431D01*
X159454431Y-67766868D01*
X159586085Y-67569834D01*
X159676770Y-67350902D01*
X159723000Y-67118485D01*
X159723000Y-66881515D01*
X162397000Y-66881515D01*
X162397000Y-67118485D01*
X162443230Y-67350902D01*
X162533915Y-67569834D01*
X162665569Y-67766868D01*
X162833132Y-67934431D01*
X163030166Y-68066085D01*
X163067000Y-68081342D01*
X163067001Y-73573815D01*
X163064422Y-73600000D01*
X163074713Y-73704486D01*
X163102183Y-73795042D01*
X163105191Y-73804957D01*
X163154684Y-73897551D01*
X163192000Y-73943021D01*
X163192000Y-74079581D01*
X163223051Y-74235685D01*
X163283959Y-74382732D01*
X163372385Y-74515070D01*
X163484930Y-74627615D01*
X163617268Y-74716041D01*
X163764315Y-74776949D01*
X163920419Y-74808000D01*
X164079581Y-74808000D01*
X164235685Y-74776949D01*
X164382732Y-74716041D01*
X164515070Y-74627615D01*
X164627615Y-74515070D01*
X164716041Y-74382732D01*
X164776949Y-74235685D01*
X164808000Y-74079581D01*
X164808000Y-74035638D01*
X164920419Y-74058000D01*
X165079581Y-74058000D01*
X165235685Y-74026949D01*
X165382732Y-73966041D01*
X165515070Y-73877615D01*
X165627615Y-73765070D01*
X165716041Y-73632732D01*
X165776949Y-73485685D01*
X165808000Y-73329581D01*
X165808000Y-73170419D01*
X165776949Y-73014315D01*
X165716041Y-72867268D01*
X165627615Y-72734930D01*
X165552999Y-72660314D01*
X165552999Y-69170419D01*
X171692000Y-69170419D01*
X171692000Y-69329581D01*
X171723051Y-69485685D01*
X171783959Y-69632732D01*
X171872385Y-69765070D01*
X171984930Y-69877615D01*
X172117268Y-69966041D01*
X172264315Y-70026949D01*
X172420419Y-70058000D01*
X172579581Y-70058000D01*
X172735685Y-70026949D01*
X172882732Y-69966041D01*
X173015070Y-69877615D01*
X173109685Y-69783000D01*
X175140315Y-69783000D01*
X175234930Y-69877615D01*
X175367268Y-69966041D01*
X175514315Y-70026949D01*
X175670419Y-70058000D01*
X175829581Y-70058000D01*
X175985685Y-70026949D01*
X176132732Y-69966041D01*
X176265070Y-69877615D01*
X176377615Y-69765070D01*
X176466041Y-69632732D01*
X176526949Y-69485685D01*
X176558000Y-69329581D01*
X176558000Y-69170419D01*
X176526949Y-69014315D01*
X176466041Y-68867268D01*
X176377615Y-68734930D01*
X176265070Y-68622385D01*
X176132732Y-68533959D01*
X175985685Y-68473051D01*
X175829581Y-68442000D01*
X175670419Y-68442000D01*
X175514315Y-68473051D01*
X175367268Y-68533959D01*
X175234930Y-68622385D01*
X175140315Y-68717000D01*
X173109685Y-68717000D01*
X173015070Y-68622385D01*
X172882732Y-68533959D01*
X172735685Y-68473051D01*
X172579581Y-68442000D01*
X172420419Y-68442000D01*
X172264315Y-68473051D01*
X172117268Y-68533959D01*
X171984930Y-68622385D01*
X171872385Y-68734930D01*
X171783959Y-68867268D01*
X171723051Y-69014315D01*
X171692000Y-69170419D01*
X165552999Y-69170419D01*
X165552999Y-66881515D01*
X167477000Y-66881515D01*
X167477000Y-67118485D01*
X167523230Y-67350902D01*
X167613915Y-67569834D01*
X167745569Y-67766868D01*
X167913132Y-67934431D01*
X168110166Y-68066085D01*
X168329098Y-68156770D01*
X168561515Y-68203000D01*
X168798485Y-68203000D01*
X169030902Y-68156770D01*
X169249834Y-68066085D01*
X169446868Y-67934431D01*
X169614431Y-67766868D01*
X169746085Y-67569834D01*
X169836770Y-67350902D01*
X169883000Y-67118485D01*
X169883000Y-66881515D01*
X170017000Y-66881515D01*
X170017000Y-67118485D01*
X170063230Y-67350902D01*
X170153915Y-67569834D01*
X170285569Y-67766868D01*
X170453132Y-67934431D01*
X170650166Y-68066085D01*
X170869098Y-68156770D01*
X171101515Y-68203000D01*
X171338485Y-68203000D01*
X171570902Y-68156770D01*
X171789834Y-68066085D01*
X171986868Y-67934431D01*
X172154431Y-67766868D01*
X172286085Y-67569834D01*
X172376770Y-67350902D01*
X172423000Y-67118485D01*
X172423000Y-66881515D01*
X172557000Y-66881515D01*
X172557000Y-67118485D01*
X172603230Y-67350902D01*
X172693915Y-67569834D01*
X172825569Y-67766868D01*
X172993132Y-67934431D01*
X173190166Y-68066085D01*
X173409098Y-68156770D01*
X173641515Y-68203000D01*
X173878485Y-68203000D01*
X174110902Y-68156770D01*
X174329834Y-68066085D01*
X174526868Y-67934431D01*
X174694431Y-67766868D01*
X174826085Y-67569834D01*
X174916770Y-67350902D01*
X174963000Y-67118485D01*
X174963000Y-66881515D01*
X174916770Y-66649098D01*
X174826085Y-66430166D01*
X174694431Y-66233132D01*
X174526868Y-66065569D01*
X174329834Y-65933915D01*
X174110902Y-65843230D01*
X173878485Y-65797000D01*
X173641515Y-65797000D01*
X173409098Y-65843230D01*
X173190166Y-65933915D01*
X172993132Y-66065569D01*
X172825569Y-66233132D01*
X172693915Y-66430166D01*
X172603230Y-66649098D01*
X172557000Y-66881515D01*
X172423000Y-66881515D01*
X172376770Y-66649098D01*
X172286085Y-66430166D01*
X172154431Y-66233132D01*
X171986868Y-66065569D01*
X171789834Y-65933915D01*
X171570902Y-65843230D01*
X171338485Y-65797000D01*
X171101515Y-65797000D01*
X170869098Y-65843230D01*
X170650166Y-65933915D01*
X170453132Y-66065569D01*
X170285569Y-66233132D01*
X170153915Y-66430166D01*
X170063230Y-66649098D01*
X170017000Y-66881515D01*
X169883000Y-66881515D01*
X169836770Y-66649098D01*
X169746085Y-66430166D01*
X169614431Y-66233132D01*
X169446868Y-66065569D01*
X169249834Y-65933915D01*
X169030902Y-65843230D01*
X168798485Y-65797000D01*
X168561515Y-65797000D01*
X168329098Y-65843230D01*
X168110166Y-65933915D01*
X167913132Y-66065569D01*
X167745569Y-66233132D01*
X167613915Y-66430166D01*
X167523230Y-66649098D01*
X167477000Y-66881515D01*
X165552999Y-66881515D01*
X165552999Y-66050776D01*
X165954171Y-65649605D01*
X166021515Y-65663000D01*
X166258485Y-65663000D01*
X166490902Y-65616770D01*
X166709834Y-65526085D01*
X166906868Y-65394431D01*
X167074431Y-65226868D01*
X167206085Y-65029834D01*
X167296770Y-64810902D01*
X167343000Y-64578485D01*
X167343000Y-64341515D01*
X167477000Y-64341515D01*
X167477000Y-64578485D01*
X167523230Y-64810902D01*
X167613915Y-65029834D01*
X167745569Y-65226868D01*
X167913132Y-65394431D01*
X168110166Y-65526085D01*
X168329098Y-65616770D01*
X168561515Y-65663000D01*
X168798485Y-65663000D01*
X169030902Y-65616770D01*
X169249834Y-65526085D01*
X169446868Y-65394431D01*
X169614431Y-65226868D01*
X169746085Y-65029834D01*
X169836770Y-64810902D01*
X169883000Y-64578485D01*
X169883000Y-64341515D01*
X170017000Y-64341515D01*
X170017000Y-64578485D01*
X170063230Y-64810902D01*
X170153915Y-65029834D01*
X170285569Y-65226868D01*
X170453132Y-65394431D01*
X170650166Y-65526085D01*
X170869098Y-65616770D01*
X171101515Y-65663000D01*
X171338485Y-65663000D01*
X171570902Y-65616770D01*
X171789834Y-65526085D01*
X171986868Y-65394431D01*
X172154431Y-65226868D01*
X172286085Y-65029834D01*
X172376770Y-64810902D01*
X172423000Y-64578485D01*
X172423000Y-64341515D01*
X172376770Y-64109098D01*
X172286085Y-63890166D01*
X172154431Y-63693132D01*
X171986868Y-63525569D01*
X171789834Y-63393915D01*
X171570902Y-63303230D01*
X171338485Y-63257000D01*
X171101515Y-63257000D01*
X170869098Y-63303230D01*
X170650166Y-63393915D01*
X170453132Y-63525569D01*
X170285569Y-63693132D01*
X170153915Y-63890166D01*
X170063230Y-64109098D01*
X170017000Y-64341515D01*
X169883000Y-64341515D01*
X169836770Y-64109098D01*
X169746085Y-63890166D01*
X169614431Y-63693132D01*
X169446868Y-63525569D01*
X169249834Y-63393915D01*
X169030902Y-63303230D01*
X168798485Y-63257000D01*
X168561515Y-63257000D01*
X168329098Y-63303230D01*
X168110166Y-63393915D01*
X167913132Y-63525569D01*
X167745569Y-63693132D01*
X167613915Y-63890166D01*
X167523230Y-64109098D01*
X167477000Y-64341515D01*
X167343000Y-64341515D01*
X167296770Y-64109098D01*
X167206085Y-63890166D01*
X167074431Y-63693132D01*
X166906868Y-63525569D01*
X166709834Y-63393915D01*
X166490902Y-63303230D01*
X166258485Y-63257000D01*
X166021515Y-63257000D01*
X165789098Y-63303230D01*
X165570166Y-63393915D01*
X165373132Y-63525569D01*
X165205569Y-63693132D01*
X165073915Y-63890166D01*
X164983230Y-64109098D01*
X164937000Y-64341515D01*
X164937000Y-64578485D01*
X164983230Y-64810902D01*
X165071711Y-65024513D01*
X164661625Y-65434600D01*
X164641288Y-65451290D01*
X164574682Y-65532450D01*
X164525189Y-65625045D01*
X164503957Y-65695038D01*
X164494712Y-65725515D01*
X164484421Y-65830001D01*
X164486999Y-65856176D01*
X164486999Y-66185700D01*
X164366868Y-66065569D01*
X164169834Y-65933915D01*
X163950902Y-65843230D01*
X163718485Y-65797000D01*
X163481515Y-65797000D01*
X163249098Y-65843230D01*
X163030166Y-65933915D01*
X162833132Y-66065569D01*
X162665569Y-66233132D01*
X162533915Y-66430166D01*
X162443230Y-66649098D01*
X162397000Y-66881515D01*
X159723000Y-66881515D01*
X159676770Y-66649098D01*
X159586085Y-66430166D01*
X159454431Y-66233132D01*
X159286868Y-66065569D01*
X159089834Y-65933915D01*
X158870902Y-65843230D01*
X158638485Y-65797000D01*
X158401515Y-65797000D01*
X158169098Y-65843230D01*
X157950166Y-65933915D01*
X157753132Y-66065569D01*
X157585569Y-66233132D01*
X157453915Y-66430166D01*
X157363230Y-66649098D01*
X157317000Y-66881515D01*
X157183000Y-66881515D01*
X157136770Y-66649098D01*
X157046085Y-66430166D01*
X156914431Y-66233132D01*
X156746868Y-66065569D01*
X156549834Y-65933915D01*
X156330902Y-65843230D01*
X156098485Y-65797000D01*
X155861515Y-65797000D01*
X155629098Y-65843230D01*
X155410166Y-65933915D01*
X155213132Y-66065569D01*
X155045569Y-66233132D01*
X154913915Y-66430166D01*
X154823230Y-66649098D01*
X154777000Y-66881515D01*
X154643000Y-66881515D01*
X154596770Y-66649098D01*
X154506085Y-66430166D01*
X154374431Y-66233132D01*
X154206868Y-66065569D01*
X154009834Y-65933915D01*
X153790902Y-65843230D01*
X153558485Y-65797000D01*
X153321515Y-65797000D01*
X153089098Y-65843230D01*
X152870166Y-65933915D01*
X152673132Y-66065569D01*
X152505569Y-66233132D01*
X152373915Y-66430166D01*
X152283230Y-66649098D01*
X152237000Y-66881515D01*
X152103000Y-66881515D01*
X152056770Y-66649098D01*
X151966085Y-66430166D01*
X151834431Y-66233132D01*
X151666868Y-66065569D01*
X151469834Y-65933915D01*
X151250902Y-65843230D01*
X151018485Y-65797000D01*
X150781515Y-65797000D01*
X150549098Y-65843230D01*
X150330166Y-65933915D01*
X150133132Y-66065569D01*
X149965569Y-66233132D01*
X149833915Y-66430166D01*
X149743230Y-66649098D01*
X149697000Y-66881515D01*
X147023000Y-66881515D01*
X146976770Y-66649098D01*
X146886085Y-66430166D01*
X146754431Y-66233132D01*
X146586868Y-66065569D01*
X146389834Y-65933915D01*
X146170902Y-65843230D01*
X145938485Y-65797000D01*
X145701515Y-65797000D01*
X145469098Y-65843230D01*
X145250166Y-65933915D01*
X145053132Y-66065569D01*
X144885569Y-66233132D01*
X144753915Y-66430166D01*
X144663230Y-66649098D01*
X144617000Y-66881515D01*
X144483000Y-66881515D01*
X144436770Y-66649098D01*
X144346085Y-66430166D01*
X144214431Y-66233132D01*
X144046868Y-66065569D01*
X143849834Y-65933915D01*
X143630902Y-65843230D01*
X143398485Y-65797000D01*
X143161515Y-65797000D01*
X142929098Y-65843230D01*
X142710166Y-65933915D01*
X142513132Y-66065569D01*
X142345569Y-66233132D01*
X142213915Y-66430166D01*
X142123230Y-66649098D01*
X142077000Y-66881515D01*
X139403000Y-66881515D01*
X139356770Y-66649098D01*
X139266085Y-66430166D01*
X139134431Y-66233132D01*
X138966868Y-66065569D01*
X138769834Y-65933915D01*
X138550902Y-65843230D01*
X138318485Y-65797000D01*
X138081515Y-65797000D01*
X137849098Y-65843230D01*
X137630166Y-65933915D01*
X137433132Y-66065569D01*
X137265569Y-66233132D01*
X137133915Y-66430166D01*
X137043230Y-66649098D01*
X136997000Y-66881515D01*
X136863000Y-66881515D01*
X136816770Y-66649098D01*
X136726085Y-66430166D01*
X136594431Y-66233132D01*
X136426868Y-66065569D01*
X136229834Y-65933915D01*
X136010902Y-65843230D01*
X135778485Y-65797000D01*
X135541515Y-65797000D01*
X135309098Y-65843230D01*
X135090166Y-65933915D01*
X134893132Y-66065569D01*
X134725569Y-66233132D01*
X134593915Y-66430166D01*
X134503230Y-66649098D01*
X134457000Y-66881515D01*
X134323000Y-66881515D01*
X134276770Y-66649098D01*
X134186085Y-66430166D01*
X134054431Y-66233132D01*
X133886868Y-66065569D01*
X133689834Y-65933915D01*
X133470902Y-65843230D01*
X133238485Y-65797000D01*
X133001515Y-65797000D01*
X132769098Y-65843230D01*
X132550166Y-65933915D01*
X132353132Y-66065569D01*
X132185569Y-66233132D01*
X132053915Y-66430166D01*
X131963230Y-66649098D01*
X131917000Y-66881515D01*
X129850000Y-66881515D01*
X129850000Y-65419065D01*
X130010166Y-65526085D01*
X130229098Y-65616770D01*
X130461515Y-65663000D01*
X130698485Y-65663000D01*
X130930902Y-65616770D01*
X131149834Y-65526085D01*
X131346868Y-65394431D01*
X131514431Y-65226868D01*
X131646085Y-65029834D01*
X131736770Y-64810902D01*
X131783000Y-64578485D01*
X131783000Y-64341515D01*
X131770398Y-64278159D01*
X131920419Y-64308000D01*
X131923666Y-64308000D01*
X131917000Y-64341515D01*
X131917000Y-64578485D01*
X131963230Y-64810902D01*
X132053915Y-65029834D01*
X132185569Y-65226868D01*
X132353132Y-65394431D01*
X132550166Y-65526085D01*
X132769098Y-65616770D01*
X133001515Y-65663000D01*
X133238485Y-65663000D01*
X133470902Y-65616770D01*
X133689834Y-65526085D01*
X133886868Y-65394431D01*
X134054431Y-65226868D01*
X134186085Y-65029834D01*
X134276770Y-64810902D01*
X134323000Y-64578485D01*
X134323000Y-64341515D01*
X136997000Y-64341515D01*
X136997000Y-64578485D01*
X137043230Y-64810902D01*
X137133915Y-65029834D01*
X137265569Y-65226868D01*
X137433132Y-65394431D01*
X137630166Y-65526085D01*
X137849098Y-65616770D01*
X138081515Y-65663000D01*
X138318485Y-65663000D01*
X138550902Y-65616770D01*
X138769834Y-65526085D01*
X138966868Y-65394431D01*
X139134431Y-65226868D01*
X139266085Y-65029834D01*
X139356770Y-64810902D01*
X139403000Y-64578485D01*
X139403000Y-64341515D01*
X139537000Y-64341515D01*
X139537000Y-64578485D01*
X139583230Y-64810902D01*
X139673915Y-65029834D01*
X139805569Y-65226868D01*
X139973132Y-65394431D01*
X140170166Y-65526085D01*
X140389098Y-65616770D01*
X140621515Y-65663000D01*
X140858485Y-65663000D01*
X141090902Y-65616770D01*
X141309834Y-65526085D01*
X141506868Y-65394431D01*
X141674431Y-65226868D01*
X141806085Y-65029834D01*
X141896770Y-64810902D01*
X141943000Y-64578485D01*
X141943000Y-64341515D01*
X142077000Y-64341515D01*
X142077000Y-64578485D01*
X142123230Y-64810902D01*
X142213915Y-65029834D01*
X142345569Y-65226868D01*
X142513132Y-65394431D01*
X142710166Y-65526085D01*
X142929098Y-65616770D01*
X143161515Y-65663000D01*
X143398485Y-65663000D01*
X143630902Y-65616770D01*
X143849834Y-65526085D01*
X144046868Y-65394431D01*
X144214431Y-65226868D01*
X144346085Y-65029834D01*
X144436770Y-64810902D01*
X144483000Y-64578485D01*
X144483000Y-64341515D01*
X144617000Y-64341515D01*
X144617000Y-64578485D01*
X144663230Y-64810902D01*
X144753915Y-65029834D01*
X144885569Y-65226868D01*
X145053132Y-65394431D01*
X145250166Y-65526085D01*
X145469098Y-65616770D01*
X145701515Y-65663000D01*
X145938485Y-65663000D01*
X146170902Y-65616770D01*
X146389834Y-65526085D01*
X146586868Y-65394431D01*
X146754431Y-65226868D01*
X146886085Y-65029834D01*
X146976770Y-64810902D01*
X147023000Y-64578485D01*
X147023000Y-64341515D01*
X147157000Y-64341515D01*
X147157000Y-64578485D01*
X147203230Y-64810902D01*
X147293915Y-65029834D01*
X147425569Y-65226868D01*
X147593132Y-65394431D01*
X147790166Y-65526085D01*
X148009098Y-65616770D01*
X148241515Y-65663000D01*
X148478485Y-65663000D01*
X148710902Y-65616770D01*
X148929834Y-65526085D01*
X149126868Y-65394431D01*
X149294431Y-65226868D01*
X149426085Y-65029834D01*
X149516770Y-64810902D01*
X149563000Y-64578485D01*
X149563000Y-64341515D01*
X149697000Y-64341515D01*
X149697000Y-64578485D01*
X149743230Y-64810902D01*
X149833915Y-65029834D01*
X149965569Y-65226868D01*
X150133132Y-65394431D01*
X150330166Y-65526085D01*
X150549098Y-65616770D01*
X150781515Y-65663000D01*
X151018485Y-65663000D01*
X151250902Y-65616770D01*
X151469834Y-65526085D01*
X151666868Y-65394431D01*
X151834431Y-65226868D01*
X151966085Y-65029834D01*
X152056770Y-64810902D01*
X152103000Y-64578485D01*
X152103000Y-64341515D01*
X152237000Y-64341515D01*
X152237000Y-64578485D01*
X152283230Y-64810902D01*
X152373915Y-65029834D01*
X152505569Y-65226868D01*
X152673132Y-65394431D01*
X152870166Y-65526085D01*
X153089098Y-65616770D01*
X153321515Y-65663000D01*
X153558485Y-65663000D01*
X153790902Y-65616770D01*
X154009834Y-65526085D01*
X154206868Y-65394431D01*
X154374431Y-65226868D01*
X154506085Y-65029834D01*
X154596770Y-64810902D01*
X154643000Y-64578485D01*
X154643000Y-64341515D01*
X157317000Y-64341515D01*
X157317000Y-64578485D01*
X157363230Y-64810902D01*
X157453915Y-65029834D01*
X157585569Y-65226868D01*
X157753132Y-65394431D01*
X157950166Y-65526085D01*
X158169098Y-65616770D01*
X158401515Y-65663000D01*
X158638485Y-65663000D01*
X158870902Y-65616770D01*
X159089834Y-65526085D01*
X159286868Y-65394431D01*
X159454431Y-65226868D01*
X159586085Y-65029834D01*
X159676770Y-64810902D01*
X159723000Y-64578485D01*
X159723000Y-64341515D01*
X159857000Y-64341515D01*
X159857000Y-64578485D01*
X159903230Y-64810902D01*
X159993915Y-65029834D01*
X160125569Y-65226868D01*
X160293132Y-65394431D01*
X160490166Y-65526085D01*
X160709098Y-65616770D01*
X160941515Y-65663000D01*
X161178485Y-65663000D01*
X161410902Y-65616770D01*
X161629834Y-65526085D01*
X161826868Y-65394431D01*
X161994431Y-65226868D01*
X162126085Y-65029834D01*
X162216770Y-64810902D01*
X162263000Y-64578485D01*
X162263000Y-64341515D01*
X162397000Y-64341515D01*
X162397000Y-64578485D01*
X162443230Y-64810902D01*
X162533915Y-65029834D01*
X162665569Y-65226868D01*
X162833132Y-65394431D01*
X163030166Y-65526085D01*
X163249098Y-65616770D01*
X163481515Y-65663000D01*
X163718485Y-65663000D01*
X163950902Y-65616770D01*
X164169834Y-65526085D01*
X164366868Y-65394431D01*
X164534431Y-65226868D01*
X164666085Y-65029834D01*
X164756770Y-64810902D01*
X164803000Y-64578485D01*
X164803000Y-64341515D01*
X164756770Y-64109098D01*
X164666085Y-63890166D01*
X164534431Y-63693132D01*
X164366868Y-63525569D01*
X164169834Y-63393915D01*
X163950902Y-63303230D01*
X163718485Y-63257000D01*
X163481515Y-63257000D01*
X163249098Y-63303230D01*
X163030166Y-63393915D01*
X162833132Y-63525569D01*
X162665569Y-63693132D01*
X162533915Y-63890166D01*
X162443230Y-64109098D01*
X162397000Y-64341515D01*
X162263000Y-64341515D01*
X162216770Y-64109098D01*
X162126085Y-63890166D01*
X161994431Y-63693132D01*
X161826868Y-63525569D01*
X161629834Y-63393915D01*
X161410902Y-63303230D01*
X161178485Y-63257000D01*
X160941515Y-63257000D01*
X160709098Y-63303230D01*
X160490166Y-63393915D01*
X160293132Y-63525569D01*
X160125569Y-63693132D01*
X159993915Y-63890166D01*
X159903230Y-64109098D01*
X159857000Y-64341515D01*
X159723000Y-64341515D01*
X159676770Y-64109098D01*
X159586085Y-63890166D01*
X159454431Y-63693132D01*
X159286868Y-63525569D01*
X159089834Y-63393915D01*
X158870902Y-63303230D01*
X158638485Y-63257000D01*
X158401515Y-63257000D01*
X158169098Y-63303230D01*
X157950166Y-63393915D01*
X157753132Y-63525569D01*
X157585569Y-63693132D01*
X157453915Y-63890166D01*
X157363230Y-64109098D01*
X157317000Y-64341515D01*
X154643000Y-64341515D01*
X154596770Y-64109098D01*
X154506085Y-63890166D01*
X154374431Y-63693132D01*
X154206868Y-63525569D01*
X154009834Y-63393915D01*
X153790902Y-63303230D01*
X153558485Y-63257000D01*
X153321515Y-63257000D01*
X153089098Y-63303230D01*
X152870166Y-63393915D01*
X152673132Y-63525569D01*
X152505569Y-63693132D01*
X152373915Y-63890166D01*
X152283230Y-64109098D01*
X152237000Y-64341515D01*
X152103000Y-64341515D01*
X152056770Y-64109098D01*
X151966085Y-63890166D01*
X151834431Y-63693132D01*
X151666868Y-63525569D01*
X151469834Y-63393915D01*
X151250902Y-63303230D01*
X151018485Y-63257000D01*
X150781515Y-63257000D01*
X150549098Y-63303230D01*
X150330166Y-63393915D01*
X150133132Y-63525569D01*
X149965569Y-63693132D01*
X149833915Y-63890166D01*
X149743230Y-64109098D01*
X149697000Y-64341515D01*
X149563000Y-64341515D01*
X149516770Y-64109098D01*
X149426085Y-63890166D01*
X149294431Y-63693132D01*
X149126868Y-63525569D01*
X148929834Y-63393915D01*
X148710902Y-63303230D01*
X148478485Y-63257000D01*
X148241515Y-63257000D01*
X148009098Y-63303230D01*
X147790166Y-63393915D01*
X147593132Y-63525569D01*
X147425569Y-63693132D01*
X147293915Y-63890166D01*
X147203230Y-64109098D01*
X147157000Y-64341515D01*
X147023000Y-64341515D01*
X146976770Y-64109098D01*
X146886085Y-63890166D01*
X146754431Y-63693132D01*
X146586868Y-63525569D01*
X146389834Y-63393915D01*
X146170902Y-63303230D01*
X145938485Y-63257000D01*
X145701515Y-63257000D01*
X145469098Y-63303230D01*
X145250166Y-63393915D01*
X145053132Y-63525569D01*
X144885569Y-63693132D01*
X144753915Y-63890166D01*
X144663230Y-64109098D01*
X144617000Y-64341515D01*
X144483000Y-64341515D01*
X144436770Y-64109098D01*
X144346085Y-63890166D01*
X144214431Y-63693132D01*
X144046868Y-63525569D01*
X143849834Y-63393915D01*
X143630902Y-63303230D01*
X143398485Y-63257000D01*
X143161515Y-63257000D01*
X142929098Y-63303230D01*
X142710166Y-63393915D01*
X142513132Y-63525569D01*
X142345569Y-63693132D01*
X142213915Y-63890166D01*
X142123230Y-64109098D01*
X142077000Y-64341515D01*
X141943000Y-64341515D01*
X141896770Y-64109098D01*
X141806085Y-63890166D01*
X141674431Y-63693132D01*
X141506868Y-63525569D01*
X141309834Y-63393915D01*
X141090902Y-63303230D01*
X140858485Y-63257000D01*
X140621515Y-63257000D01*
X140389098Y-63303230D01*
X140170166Y-63393915D01*
X139973132Y-63525569D01*
X139805569Y-63693132D01*
X139673915Y-63890166D01*
X139583230Y-64109098D01*
X139537000Y-64341515D01*
X139403000Y-64341515D01*
X139356770Y-64109098D01*
X139266085Y-63890166D01*
X139134431Y-63693132D01*
X138966868Y-63525569D01*
X138769834Y-63393915D01*
X138550902Y-63303230D01*
X138318485Y-63257000D01*
X138081515Y-63257000D01*
X137849098Y-63303230D01*
X137630166Y-63393915D01*
X137433132Y-63525569D01*
X137265569Y-63693132D01*
X137133915Y-63890166D01*
X137043230Y-64109098D01*
X136997000Y-64341515D01*
X134323000Y-64341515D01*
X134276770Y-64109098D01*
X134186085Y-63890166D01*
X134054431Y-63693132D01*
X133886868Y-63525569D01*
X133689834Y-63393915D01*
X133470902Y-63303230D01*
X133238485Y-63257000D01*
X133001515Y-63257000D01*
X132784096Y-63300247D01*
X132776949Y-63264315D01*
X132716041Y-63117268D01*
X132627615Y-62984930D01*
X132515070Y-62872385D01*
X132382732Y-62783959D01*
X132235685Y-62723051D01*
X132079581Y-62692000D01*
X131943022Y-62692000D01*
X131897552Y-62654684D01*
X131804958Y-62605191D01*
X131704487Y-62574714D01*
X131626176Y-62567001D01*
X131600001Y-62564423D01*
X131573826Y-62567001D01*
X129850000Y-62567001D01*
X129850000Y-62183000D01*
X178978827Y-62183000D01*
X179414679Y-62225736D01*
D24*
G36*
X128672932Y-92023000D02*
G01*
X126727068Y-92023000D01*
X126733182Y-80677000D01*
X128666818Y-80677000D01*
X128672932Y-92023000D01*
X128672932Y-92023000D01*
G37*
X128672932Y-92023000D02*
X126727068Y-92023000D01*
X126733182Y-80677000D01*
X128666818Y-80677000D01*
X128672932Y-92023000D01*
G36*
X134173000Y-93123000D02*
G01*
X129427000Y-93123000D01*
X129427000Y-85277000D01*
X134173000Y-85277000D01*
X134173000Y-93123000D01*
X134173000Y-93123000D01*
G37*
X134173000Y-93123000D02*
X129427000Y-93123000D01*
X129427000Y-85277000D01*
X134173000Y-85277000D01*
X134173000Y-93123000D01*
G36*
X134173000Y-84623000D02*
G01*
X129427000Y-84623000D01*
X129427000Y-76677000D01*
X134173000Y-76677000D01*
X134173000Y-84623000D01*
X134173000Y-84623000D01*
G37*
X134173000Y-84623000D02*
X129427000Y-84623000D01*
X129427000Y-76677000D01*
X134173000Y-76677000D01*
X134173000Y-84623000D01*
M02*
