G04 #@! TF.GenerationSoftware,KiCad,Pcbnew,(5.1.2-1)-1*
G04 #@! TF.CreationDate,2019-12-01T18:05:27-08:00*
G04 #@! TF.ProjectId,RaceOn-PiHAT,52616365-4f6e-42d5-9069-4841542e6b69,1*
G04 #@! TF.SameCoordinates,Original*
G04 #@! TF.FileFunction,Legend,Top*
G04 #@! TF.FilePolarity,Positive*
%FSLAX46Y46*%
G04 Gerber Fmt 4.6, Leading zero omitted, Abs format (unit mm)*
G04 Created by KiCad (PCBNEW (5.1.2-1)-1) date 2019-12-01 18:05:27*
%MOMM*%
%LPD*%
G04 APERTURE LIST*
%ADD10C,0.120000*%
%ADD11C,0.250000*%
%ADD12C,0.175000*%
%ADD13C,0.150000*%
%ADD14C,0.100000*%
%ADD15C,0.149860*%
G04 APERTURE END LIST*
D10*
X133326190Y-62795238D02*
X133326190Y-63080952D01*
X133326190Y-62938095D02*
X132826190Y-62938095D01*
X132897619Y-62985714D01*
X132945238Y-63033333D01*
X132969047Y-63080952D01*
X132992857Y-62366666D02*
X133326190Y-62366666D01*
X132802380Y-62485714D02*
X133159523Y-62604761D01*
X133159523Y-62295238D01*
X135926190Y-62795238D02*
X135926190Y-63080952D01*
X135926190Y-62938095D02*
X135426190Y-62938095D01*
X135497619Y-62985714D01*
X135545238Y-63033333D01*
X135569047Y-63080952D01*
X135426190Y-62342857D02*
X135426190Y-62580952D01*
X135664285Y-62604761D01*
X135640476Y-62580952D01*
X135616666Y-62533333D01*
X135616666Y-62414285D01*
X135640476Y-62366666D01*
X135664285Y-62342857D01*
X135711904Y-62319047D01*
X135830952Y-62319047D01*
X135878571Y-62342857D01*
X135902380Y-62366666D01*
X135926190Y-62414285D01*
X135926190Y-62533333D01*
X135902380Y-62580952D01*
X135878571Y-62604761D01*
X138426190Y-62795238D02*
X138426190Y-63080952D01*
X138426190Y-62938095D02*
X137926190Y-62938095D01*
X137997619Y-62985714D01*
X138045238Y-63033333D01*
X138069047Y-63080952D01*
X138140476Y-62509523D02*
X138116666Y-62557142D01*
X138092857Y-62580952D01*
X138045238Y-62604761D01*
X138021428Y-62604761D01*
X137973809Y-62580952D01*
X137950000Y-62557142D01*
X137926190Y-62509523D01*
X137926190Y-62414285D01*
X137950000Y-62366666D01*
X137973809Y-62342857D01*
X138021428Y-62319047D01*
X138045238Y-62319047D01*
X138092857Y-62342857D01*
X138116666Y-62366666D01*
X138140476Y-62414285D01*
X138140476Y-62509523D01*
X138164285Y-62557142D01*
X138188095Y-62580952D01*
X138235714Y-62604761D01*
X138330952Y-62604761D01*
X138378571Y-62580952D01*
X138402380Y-62557142D01*
X138426190Y-62509523D01*
X138426190Y-62414285D01*
X138402380Y-62366666D01*
X138378571Y-62342857D01*
X138330952Y-62319047D01*
X138235714Y-62319047D01*
X138188095Y-62342857D01*
X138164285Y-62366666D01*
X138140476Y-62414285D01*
X143073809Y-63080952D02*
X143050000Y-63057142D01*
X143026190Y-63009523D01*
X143026190Y-62890476D01*
X143050000Y-62842857D01*
X143073809Y-62819047D01*
X143121428Y-62795238D01*
X143169047Y-62795238D01*
X143240476Y-62819047D01*
X143526190Y-63104761D01*
X143526190Y-62795238D01*
X143026190Y-62628571D02*
X143026190Y-62319047D01*
X143216666Y-62485714D01*
X143216666Y-62414285D01*
X143240476Y-62366666D01*
X143264285Y-62342857D01*
X143311904Y-62319047D01*
X143430952Y-62319047D01*
X143478571Y-62342857D01*
X143502380Y-62366666D01*
X143526190Y-62414285D01*
X143526190Y-62557142D01*
X143502380Y-62604761D01*
X143478571Y-62628571D01*
X145573809Y-63080952D02*
X145550000Y-63057142D01*
X145526190Y-63009523D01*
X145526190Y-62890476D01*
X145550000Y-62842857D01*
X145573809Y-62819047D01*
X145621428Y-62795238D01*
X145669047Y-62795238D01*
X145740476Y-62819047D01*
X146026190Y-63104761D01*
X146026190Y-62795238D01*
X145692857Y-62366666D02*
X146026190Y-62366666D01*
X145502380Y-62485714D02*
X145859523Y-62604761D01*
X145859523Y-62295238D01*
X158726190Y-62557142D02*
X158726190Y-62842857D01*
X158726190Y-62700000D02*
X158226190Y-62700000D01*
X158297619Y-62747619D01*
X158345238Y-62795238D01*
X158369047Y-62842857D01*
X155726190Y-62866666D02*
X155726190Y-62533333D01*
X156226190Y-62747619D01*
X153340476Y-62747619D02*
X153316666Y-62795238D01*
X153292857Y-62819047D01*
X153245238Y-62842857D01*
X153221428Y-62842857D01*
X153173809Y-62819047D01*
X153150000Y-62795238D01*
X153126190Y-62747619D01*
X153126190Y-62652380D01*
X153150000Y-62604761D01*
X153173809Y-62580952D01*
X153221428Y-62557142D01*
X153245238Y-62557142D01*
X153292857Y-62580952D01*
X153316666Y-62604761D01*
X153340476Y-62652380D01*
X153340476Y-62747619D01*
X153364285Y-62795238D01*
X153388095Y-62819047D01*
X153435714Y-62842857D01*
X153530952Y-62842857D01*
X153578571Y-62819047D01*
X153602380Y-62795238D01*
X153626190Y-62747619D01*
X153626190Y-62652380D01*
X153602380Y-62604761D01*
X153578571Y-62580952D01*
X153530952Y-62557142D01*
X153435714Y-62557142D01*
X153388095Y-62580952D01*
X153364285Y-62604761D01*
X153340476Y-62652380D01*
X150673809Y-63080952D02*
X150650000Y-63057142D01*
X150626190Y-63009523D01*
X150626190Y-62890476D01*
X150650000Y-62842857D01*
X150673809Y-62819047D01*
X150721428Y-62795238D01*
X150769047Y-62795238D01*
X150840476Y-62819047D01*
X151126190Y-63104761D01*
X151126190Y-62795238D01*
X150626190Y-62342857D02*
X150626190Y-62580952D01*
X150864285Y-62604761D01*
X150840476Y-62580952D01*
X150816666Y-62533333D01*
X150816666Y-62414285D01*
X150840476Y-62366666D01*
X150864285Y-62342857D01*
X150911904Y-62319047D01*
X151030952Y-62319047D01*
X151078571Y-62342857D01*
X151102380Y-62366666D01*
X151126190Y-62414285D01*
X151126190Y-62533333D01*
X151102380Y-62580952D01*
X151078571Y-62604761D01*
X163826190Y-62795238D02*
X163826190Y-63080952D01*
X163826190Y-62938095D02*
X163326190Y-62938095D01*
X163397619Y-62985714D01*
X163445238Y-63033333D01*
X163469047Y-63080952D01*
X163373809Y-62604761D02*
X163350000Y-62580952D01*
X163326190Y-62533333D01*
X163326190Y-62414285D01*
X163350000Y-62366666D01*
X163373809Y-62342857D01*
X163421428Y-62319047D01*
X163469047Y-62319047D01*
X163540476Y-62342857D01*
X163826190Y-62628571D01*
X163826190Y-62319047D01*
X168926190Y-62795238D02*
X168926190Y-63080952D01*
X168926190Y-62938095D02*
X168426190Y-62938095D01*
X168497619Y-62985714D01*
X168545238Y-63033333D01*
X168569047Y-63080952D01*
X168426190Y-62366666D02*
X168426190Y-62461904D01*
X168450000Y-62509523D01*
X168473809Y-62533333D01*
X168545238Y-62580952D01*
X168640476Y-62604761D01*
X168830952Y-62604761D01*
X168878571Y-62580952D01*
X168902380Y-62557142D01*
X168926190Y-62509523D01*
X168926190Y-62414285D01*
X168902380Y-62366666D01*
X168878571Y-62342857D01*
X168830952Y-62319047D01*
X168711904Y-62319047D01*
X168664285Y-62342857D01*
X168640476Y-62366666D01*
X168616666Y-62414285D01*
X168616666Y-62509523D01*
X168640476Y-62557142D01*
X168664285Y-62580952D01*
X168711904Y-62604761D01*
X170973809Y-63080952D02*
X170950000Y-63057142D01*
X170926190Y-63009523D01*
X170926190Y-62890476D01*
X170950000Y-62842857D01*
X170973809Y-62819047D01*
X171021428Y-62795238D01*
X171069047Y-62795238D01*
X171140476Y-62819047D01*
X171426190Y-63104761D01*
X171426190Y-62795238D01*
X170926190Y-62485714D02*
X170926190Y-62438095D01*
X170950000Y-62390476D01*
X170973809Y-62366666D01*
X171021428Y-62342857D01*
X171116666Y-62319047D01*
X171235714Y-62319047D01*
X171330952Y-62342857D01*
X171378571Y-62366666D01*
X171402380Y-62390476D01*
X171426190Y-62438095D01*
X171426190Y-62485714D01*
X171402380Y-62533333D01*
X171378571Y-62557142D01*
X171330952Y-62580952D01*
X171235714Y-62604761D01*
X171116666Y-62604761D01*
X171021428Y-62580952D01*
X170973809Y-62557142D01*
X170950000Y-62533333D01*
X170926190Y-62485714D01*
X173573809Y-63080952D02*
X173550000Y-63057142D01*
X173526190Y-63009523D01*
X173526190Y-62890476D01*
X173550000Y-62842857D01*
X173573809Y-62819047D01*
X173621428Y-62795238D01*
X173669047Y-62795238D01*
X173740476Y-62819047D01*
X174026190Y-63104761D01*
X174026190Y-62795238D01*
X174026190Y-62319047D02*
X174026190Y-62604761D01*
X174026190Y-62461904D02*
X173526190Y-62461904D01*
X173597619Y-62509523D01*
X173645238Y-62557142D01*
X173669047Y-62604761D01*
X166426190Y-68495238D02*
X166426190Y-68780952D01*
X166426190Y-68638095D02*
X165926190Y-68638095D01*
X165997619Y-68685714D01*
X166045238Y-68733333D01*
X166069047Y-68780952D01*
X165926190Y-68328571D02*
X165926190Y-68019047D01*
X166116666Y-68185714D01*
X166116666Y-68114285D01*
X166140476Y-68066666D01*
X166164285Y-68042857D01*
X166211904Y-68019047D01*
X166330952Y-68019047D01*
X166378571Y-68042857D01*
X166402380Y-68066666D01*
X166426190Y-68114285D01*
X166426190Y-68257142D01*
X166402380Y-68304761D01*
X166378571Y-68328571D01*
X163326190Y-68704761D02*
X163326190Y-68800000D01*
X163350000Y-68847619D01*
X163373809Y-68871428D01*
X163445238Y-68919047D01*
X163540476Y-68942857D01*
X163730952Y-68942857D01*
X163778571Y-68919047D01*
X163802380Y-68895238D01*
X163826190Y-68847619D01*
X163826190Y-68752380D01*
X163802380Y-68704761D01*
X163778571Y-68680952D01*
X163730952Y-68657142D01*
X163611904Y-68657142D01*
X163564285Y-68680952D01*
X163540476Y-68704761D01*
X163516666Y-68752380D01*
X163516666Y-68847619D01*
X163540476Y-68895238D01*
X163564285Y-68919047D01*
X163611904Y-68942857D01*
X170973809Y-69180952D02*
X170950000Y-69157142D01*
X170926190Y-69109523D01*
X170926190Y-68990476D01*
X170950000Y-68942857D01*
X170973809Y-68919047D01*
X171021428Y-68895238D01*
X171069047Y-68895238D01*
X171140476Y-68919047D01*
X171426190Y-69204761D01*
X171426190Y-68895238D01*
X170926190Y-68466666D02*
X170926190Y-68561904D01*
X170950000Y-68609523D01*
X170973809Y-68633333D01*
X171045238Y-68680952D01*
X171140476Y-68704761D01*
X171330952Y-68704761D01*
X171378571Y-68680952D01*
X171402380Y-68657142D01*
X171426190Y-68609523D01*
X171426190Y-68514285D01*
X171402380Y-68466666D01*
X171378571Y-68442857D01*
X171330952Y-68419047D01*
X171211904Y-68419047D01*
X171164285Y-68442857D01*
X171140476Y-68466666D01*
X171116666Y-68514285D01*
X171116666Y-68609523D01*
X171140476Y-68657142D01*
X171164285Y-68680952D01*
X171211904Y-68704761D01*
X168926190Y-68895238D02*
X168926190Y-69180952D01*
X168926190Y-69038095D02*
X168426190Y-69038095D01*
X168497619Y-69085714D01*
X168545238Y-69133333D01*
X168569047Y-69180952D01*
X168926190Y-68657142D02*
X168926190Y-68561904D01*
X168902380Y-68514285D01*
X168878571Y-68490476D01*
X168807142Y-68442857D01*
X168711904Y-68419047D01*
X168521428Y-68419047D01*
X168473809Y-68442857D01*
X168450000Y-68466666D01*
X168426190Y-68514285D01*
X168426190Y-68609523D01*
X168450000Y-68657142D01*
X168473809Y-68680952D01*
X168521428Y-68704761D01*
X168640476Y-68704761D01*
X168688095Y-68680952D01*
X168711904Y-68657142D01*
X168735714Y-68609523D01*
X168735714Y-68514285D01*
X168711904Y-68466666D01*
X168688095Y-68442857D01*
X168640476Y-68419047D01*
X160826190Y-68680952D02*
X160826190Y-68919047D01*
X161064285Y-68942857D01*
X161040476Y-68919047D01*
X161016666Y-68871428D01*
X161016666Y-68752380D01*
X161040476Y-68704761D01*
X161064285Y-68680952D01*
X161111904Y-68657142D01*
X161230952Y-68657142D01*
X161278571Y-68680952D01*
X161302380Y-68704761D01*
X161326190Y-68752380D01*
X161326190Y-68871428D01*
X161302380Y-68919047D01*
X161278571Y-68942857D01*
X158226190Y-68823809D02*
X158226190Y-68776190D01*
X158250000Y-68728571D01*
X158273809Y-68704761D01*
X158321428Y-68680952D01*
X158416666Y-68657142D01*
X158535714Y-68657142D01*
X158630952Y-68680952D01*
X158678571Y-68704761D01*
X158702380Y-68728571D01*
X158726190Y-68776190D01*
X158726190Y-68823809D01*
X158702380Y-68871428D01*
X158678571Y-68895238D01*
X158630952Y-68919047D01*
X158535714Y-68942857D01*
X158416666Y-68942857D01*
X158321428Y-68919047D01*
X158273809Y-68895238D01*
X158250000Y-68871428D01*
X158226190Y-68823809D01*
X153626190Y-68895238D02*
X153626190Y-69180952D01*
X153626190Y-69038095D02*
X153126190Y-69038095D01*
X153197619Y-69085714D01*
X153245238Y-69133333D01*
X153269047Y-69180952D01*
X153626190Y-68419047D02*
X153626190Y-68704761D01*
X153626190Y-68561904D02*
X153126190Y-68561904D01*
X153197619Y-68609523D01*
X153245238Y-68657142D01*
X153269047Y-68704761D01*
X151126190Y-68895238D02*
X151126190Y-68800000D01*
X151102380Y-68752380D01*
X151078571Y-68728571D01*
X151007142Y-68680952D01*
X150911904Y-68657142D01*
X150721428Y-68657142D01*
X150673809Y-68680952D01*
X150650000Y-68704761D01*
X150626190Y-68752380D01*
X150626190Y-68847619D01*
X150650000Y-68895238D01*
X150673809Y-68919047D01*
X150721428Y-68942857D01*
X150840476Y-68942857D01*
X150888095Y-68919047D01*
X150911904Y-68895238D01*
X150935714Y-68847619D01*
X150935714Y-68752380D01*
X150911904Y-68704761D01*
X150888095Y-68680952D01*
X150840476Y-68657142D01*
X148626190Y-68895238D02*
X148626190Y-69180952D01*
X148626190Y-69038095D02*
X148126190Y-69038095D01*
X148197619Y-69085714D01*
X148245238Y-69133333D01*
X148269047Y-69180952D01*
X148126190Y-68585714D02*
X148126190Y-68538095D01*
X148150000Y-68490476D01*
X148173809Y-68466666D01*
X148221428Y-68442857D01*
X148316666Y-68419047D01*
X148435714Y-68419047D01*
X148530952Y-68442857D01*
X148578571Y-68466666D01*
X148602380Y-68490476D01*
X148626190Y-68538095D01*
X148626190Y-68585714D01*
X148602380Y-68633333D01*
X148578571Y-68657142D01*
X148530952Y-68680952D01*
X148435714Y-68704761D01*
X148316666Y-68704761D01*
X148221428Y-68680952D01*
X148173809Y-68657142D01*
X148150000Y-68633333D01*
X148126190Y-68585714D01*
X138426190Y-68895238D02*
X138426190Y-69180952D01*
X138426190Y-69038095D02*
X137926190Y-69038095D01*
X137997619Y-69085714D01*
X138045238Y-69133333D01*
X138069047Y-69180952D01*
X137926190Y-68728571D02*
X137926190Y-68395238D01*
X138426190Y-68609523D01*
X140473809Y-69180952D02*
X140450000Y-69157142D01*
X140426190Y-69109523D01*
X140426190Y-68990476D01*
X140450000Y-68942857D01*
X140473809Y-68919047D01*
X140521428Y-68895238D01*
X140569047Y-68895238D01*
X140640476Y-68919047D01*
X140926190Y-69204761D01*
X140926190Y-68895238D01*
X140426190Y-68728571D02*
X140426190Y-68395238D01*
X140926190Y-68609523D01*
X143073809Y-69180952D02*
X143050000Y-69157142D01*
X143026190Y-69109523D01*
X143026190Y-68990476D01*
X143050000Y-68942857D01*
X143073809Y-68919047D01*
X143121428Y-68895238D01*
X143169047Y-68895238D01*
X143240476Y-68919047D01*
X143526190Y-69204761D01*
X143526190Y-68895238D01*
X143073809Y-68704761D02*
X143050000Y-68680952D01*
X143026190Y-68633333D01*
X143026190Y-68514285D01*
X143050000Y-68466666D01*
X143073809Y-68442857D01*
X143121428Y-68419047D01*
X143169047Y-68419047D01*
X143240476Y-68442857D01*
X143526190Y-68728571D01*
X143526190Y-68419047D01*
X132992857Y-68704761D02*
X133326190Y-68704761D01*
X132802380Y-68823809D02*
X133159523Y-68942857D01*
X133159523Y-68633333D01*
X130326190Y-68966666D02*
X130326190Y-68657142D01*
X130516666Y-68823809D01*
X130516666Y-68752380D01*
X130540476Y-68704761D01*
X130564285Y-68680952D01*
X130611904Y-68657142D01*
X130730952Y-68657142D01*
X130778571Y-68680952D01*
X130802380Y-68704761D01*
X130826190Y-68752380D01*
X130826190Y-68895238D01*
X130802380Y-68942857D01*
X130778571Y-68966666D01*
X127773809Y-68942857D02*
X127750000Y-68919047D01*
X127726190Y-68871428D01*
X127726190Y-68752380D01*
X127750000Y-68704761D01*
X127773809Y-68680952D01*
X127821428Y-68657142D01*
X127869047Y-68657142D01*
X127940476Y-68680952D01*
X128226190Y-68966666D01*
X128226190Y-68657142D01*
X127726190Y-62795238D02*
X127726190Y-63033333D01*
X127964285Y-63057142D01*
X127940476Y-63033333D01*
X127916666Y-62985714D01*
X127916666Y-62866666D01*
X127940476Y-62819047D01*
X127964285Y-62795238D01*
X128011904Y-62771428D01*
X128130952Y-62771428D01*
X128178571Y-62795238D01*
X128202380Y-62819047D01*
X128226190Y-62866666D01*
X128226190Y-62985714D01*
X128202380Y-63033333D01*
X128178571Y-63057142D01*
X127726190Y-62628571D02*
X128226190Y-62461904D01*
X127726190Y-62295238D01*
X125226190Y-62795238D02*
X125226190Y-63033333D01*
X125464285Y-63057142D01*
X125440476Y-63033333D01*
X125416666Y-62985714D01*
X125416666Y-62866666D01*
X125440476Y-62819047D01*
X125464285Y-62795238D01*
X125511904Y-62771428D01*
X125630952Y-62771428D01*
X125678571Y-62795238D01*
X125702380Y-62819047D01*
X125726190Y-62866666D01*
X125726190Y-62985714D01*
X125702380Y-63033333D01*
X125678571Y-63057142D01*
X125226190Y-62628571D02*
X125726190Y-62461904D01*
X125226190Y-62295238D01*
X145526190Y-69419047D02*
X145526190Y-69109523D01*
X145716666Y-69276190D01*
X145716666Y-69204761D01*
X145740476Y-69157142D01*
X145764285Y-69133333D01*
X145811904Y-69109523D01*
X145930952Y-69109523D01*
X145978571Y-69133333D01*
X146002380Y-69157142D01*
X146026190Y-69204761D01*
X146026190Y-69347619D01*
X146002380Y-69395238D01*
X145978571Y-69419047D01*
X145526190Y-68966666D02*
X146026190Y-68800000D01*
X145526190Y-68633333D01*
X145526190Y-68514285D02*
X145526190Y-68204761D01*
X145716666Y-68371428D01*
X145716666Y-68300000D01*
X145740476Y-68252380D01*
X145764285Y-68228571D01*
X145811904Y-68204761D01*
X145930952Y-68204761D01*
X145978571Y-68228571D01*
X146002380Y-68252380D01*
X146026190Y-68300000D01*
X146026190Y-68442857D01*
X146002380Y-68490476D01*
X145978571Y-68514285D01*
X125226190Y-69419047D02*
X125226190Y-69109523D01*
X125416666Y-69276190D01*
X125416666Y-69204761D01*
X125440476Y-69157142D01*
X125464285Y-69133333D01*
X125511904Y-69109523D01*
X125630952Y-69109523D01*
X125678571Y-69133333D01*
X125702380Y-69157142D01*
X125726190Y-69204761D01*
X125726190Y-69347619D01*
X125702380Y-69395238D01*
X125678571Y-69419047D01*
X125226190Y-68966666D02*
X125726190Y-68800000D01*
X125226190Y-68633333D01*
X125226190Y-68514285D02*
X125226190Y-68204761D01*
X125416666Y-68371428D01*
X125416666Y-68300000D01*
X125440476Y-68252380D01*
X125464285Y-68228571D01*
X125511904Y-68204761D01*
X125630952Y-68204761D01*
X125678571Y-68228571D01*
X125702380Y-68252380D01*
X125726190Y-68300000D01*
X125726190Y-68442857D01*
X125702380Y-68490476D01*
X125678571Y-68514285D01*
X160850000Y-63080952D02*
X160826190Y-63128571D01*
X160826190Y-63200000D01*
X160850000Y-63271428D01*
X160897619Y-63319047D01*
X160945238Y-63342857D01*
X161040476Y-63366666D01*
X161111904Y-63366666D01*
X161207142Y-63342857D01*
X161254761Y-63319047D01*
X161302380Y-63271428D01*
X161326190Y-63200000D01*
X161326190Y-63152380D01*
X161302380Y-63080952D01*
X161278571Y-63057142D01*
X161111904Y-63057142D01*
X161111904Y-63152380D01*
X161326190Y-62842857D02*
X160826190Y-62842857D01*
X161326190Y-62557142D01*
X160826190Y-62557142D01*
X161326190Y-62319047D02*
X160826190Y-62319047D01*
X160826190Y-62200000D01*
X160850000Y-62128571D01*
X160897619Y-62080952D01*
X160945238Y-62057142D01*
X161040476Y-62033333D01*
X161111904Y-62033333D01*
X161207142Y-62057142D01*
X161254761Y-62080952D01*
X161302380Y-62128571D01*
X161326190Y-62200000D01*
X161326190Y-62319047D01*
X165950000Y-63080952D02*
X165926190Y-63128571D01*
X165926190Y-63200000D01*
X165950000Y-63271428D01*
X165997619Y-63319047D01*
X166045238Y-63342857D01*
X166140476Y-63366666D01*
X166211904Y-63366666D01*
X166307142Y-63342857D01*
X166354761Y-63319047D01*
X166402380Y-63271428D01*
X166426190Y-63200000D01*
X166426190Y-63152380D01*
X166402380Y-63080952D01*
X166378571Y-63057142D01*
X166211904Y-63057142D01*
X166211904Y-63152380D01*
X166426190Y-62842857D02*
X165926190Y-62842857D01*
X166426190Y-62557142D01*
X165926190Y-62557142D01*
X166426190Y-62319047D02*
X165926190Y-62319047D01*
X165926190Y-62200000D01*
X165950000Y-62128571D01*
X165997619Y-62080952D01*
X166045238Y-62057142D01*
X166140476Y-62033333D01*
X166211904Y-62033333D01*
X166307142Y-62057142D01*
X166354761Y-62080952D01*
X166402380Y-62128571D01*
X166426190Y-62200000D01*
X166426190Y-62319047D01*
X173550000Y-69180952D02*
X173526190Y-69228571D01*
X173526190Y-69300000D01*
X173550000Y-69371428D01*
X173597619Y-69419047D01*
X173645238Y-69442857D01*
X173740476Y-69466666D01*
X173811904Y-69466666D01*
X173907142Y-69442857D01*
X173954761Y-69419047D01*
X174002380Y-69371428D01*
X174026190Y-69300000D01*
X174026190Y-69252380D01*
X174002380Y-69180952D01*
X173978571Y-69157142D01*
X173811904Y-69157142D01*
X173811904Y-69252380D01*
X174026190Y-68942857D02*
X173526190Y-68942857D01*
X174026190Y-68657142D01*
X173526190Y-68657142D01*
X174026190Y-68419047D02*
X173526190Y-68419047D01*
X173526190Y-68300000D01*
X173550000Y-68228571D01*
X173597619Y-68180952D01*
X173645238Y-68157142D01*
X173740476Y-68133333D01*
X173811904Y-68133333D01*
X173907142Y-68157142D01*
X173954761Y-68180952D01*
X174002380Y-68228571D01*
X174026190Y-68300000D01*
X174026190Y-68419047D01*
X155750000Y-69180952D02*
X155726190Y-69228571D01*
X155726190Y-69300000D01*
X155750000Y-69371428D01*
X155797619Y-69419047D01*
X155845238Y-69442857D01*
X155940476Y-69466666D01*
X156011904Y-69466666D01*
X156107142Y-69442857D01*
X156154761Y-69419047D01*
X156202380Y-69371428D01*
X156226190Y-69300000D01*
X156226190Y-69252380D01*
X156202380Y-69180952D01*
X156178571Y-69157142D01*
X156011904Y-69157142D01*
X156011904Y-69252380D01*
X156226190Y-68942857D02*
X155726190Y-68942857D01*
X156226190Y-68657142D01*
X155726190Y-68657142D01*
X156226190Y-68419047D02*
X155726190Y-68419047D01*
X155726190Y-68300000D01*
X155750000Y-68228571D01*
X155797619Y-68180952D01*
X155845238Y-68157142D01*
X155940476Y-68133333D01*
X156011904Y-68133333D01*
X156107142Y-68157142D01*
X156154761Y-68180952D01*
X156202380Y-68228571D01*
X156226190Y-68300000D01*
X156226190Y-68419047D01*
X148150000Y-63080952D02*
X148126190Y-63128571D01*
X148126190Y-63200000D01*
X148150000Y-63271428D01*
X148197619Y-63319047D01*
X148245238Y-63342857D01*
X148340476Y-63366666D01*
X148411904Y-63366666D01*
X148507142Y-63342857D01*
X148554761Y-63319047D01*
X148602380Y-63271428D01*
X148626190Y-63200000D01*
X148626190Y-63152380D01*
X148602380Y-63080952D01*
X148578571Y-63057142D01*
X148411904Y-63057142D01*
X148411904Y-63152380D01*
X148626190Y-62842857D02*
X148126190Y-62842857D01*
X148626190Y-62557142D01*
X148126190Y-62557142D01*
X148626190Y-62319047D02*
X148126190Y-62319047D01*
X148126190Y-62200000D01*
X148150000Y-62128571D01*
X148197619Y-62080952D01*
X148245238Y-62057142D01*
X148340476Y-62033333D01*
X148411904Y-62033333D01*
X148507142Y-62057142D01*
X148554761Y-62080952D01*
X148602380Y-62128571D01*
X148626190Y-62200000D01*
X148626190Y-62319047D01*
X140450000Y-63080952D02*
X140426190Y-63128571D01*
X140426190Y-63200000D01*
X140450000Y-63271428D01*
X140497619Y-63319047D01*
X140545238Y-63342857D01*
X140640476Y-63366666D01*
X140711904Y-63366666D01*
X140807142Y-63342857D01*
X140854761Y-63319047D01*
X140902380Y-63271428D01*
X140926190Y-63200000D01*
X140926190Y-63152380D01*
X140902380Y-63080952D01*
X140878571Y-63057142D01*
X140711904Y-63057142D01*
X140711904Y-63152380D01*
X140926190Y-62842857D02*
X140426190Y-62842857D01*
X140926190Y-62557142D01*
X140426190Y-62557142D01*
X140926190Y-62319047D02*
X140426190Y-62319047D01*
X140426190Y-62200000D01*
X140450000Y-62128571D01*
X140497619Y-62080952D01*
X140545238Y-62057142D01*
X140640476Y-62033333D01*
X140711904Y-62033333D01*
X140807142Y-62057142D01*
X140854761Y-62080952D01*
X140902380Y-62128571D01*
X140926190Y-62200000D01*
X140926190Y-62319047D01*
X135450000Y-69180952D02*
X135426190Y-69228571D01*
X135426190Y-69300000D01*
X135450000Y-69371428D01*
X135497619Y-69419047D01*
X135545238Y-69442857D01*
X135640476Y-69466666D01*
X135711904Y-69466666D01*
X135807142Y-69442857D01*
X135854761Y-69419047D01*
X135902380Y-69371428D01*
X135926190Y-69300000D01*
X135926190Y-69252380D01*
X135902380Y-69180952D01*
X135878571Y-69157142D01*
X135711904Y-69157142D01*
X135711904Y-69252380D01*
X135926190Y-68942857D02*
X135426190Y-68942857D01*
X135926190Y-68657142D01*
X135426190Y-68657142D01*
X135926190Y-68419047D02*
X135426190Y-68419047D01*
X135426190Y-68300000D01*
X135450000Y-68228571D01*
X135497619Y-68180952D01*
X135545238Y-68157142D01*
X135640476Y-68133333D01*
X135711904Y-68133333D01*
X135807142Y-68157142D01*
X135854761Y-68180952D01*
X135902380Y-68228571D01*
X135926190Y-68300000D01*
X135926190Y-68419047D01*
X130350000Y-63080952D02*
X130326190Y-63128571D01*
X130326190Y-63200000D01*
X130350000Y-63271428D01*
X130397619Y-63319047D01*
X130445238Y-63342857D01*
X130540476Y-63366666D01*
X130611904Y-63366666D01*
X130707142Y-63342857D01*
X130754761Y-63319047D01*
X130802380Y-63271428D01*
X130826190Y-63200000D01*
X130826190Y-63152380D01*
X130802380Y-63080952D01*
X130778571Y-63057142D01*
X130611904Y-63057142D01*
X130611904Y-63152380D01*
X130826190Y-62842857D02*
X130326190Y-62842857D01*
X130826190Y-62557142D01*
X130326190Y-62557142D01*
X130826190Y-62319047D02*
X130326190Y-62319047D01*
X130326190Y-62200000D01*
X130350000Y-62128571D01*
X130397619Y-62080952D01*
X130445238Y-62057142D01*
X130540476Y-62033333D01*
X130611904Y-62033333D01*
X130707142Y-62057142D01*
X130754761Y-62080952D01*
X130802380Y-62128571D01*
X130826190Y-62200000D01*
X130826190Y-62319047D01*
D11*
X157461904Y-84552380D02*
X158080952Y-84552380D01*
X157747619Y-84933333D01*
X157890476Y-84933333D01*
X157985714Y-84980952D01*
X158033333Y-85028571D01*
X158080952Y-85123809D01*
X158080952Y-85361904D01*
X158033333Y-85457142D01*
X157985714Y-85504761D01*
X157890476Y-85552380D01*
X157604761Y-85552380D01*
X157509523Y-85504761D01*
X157461904Y-85457142D01*
X158366666Y-84552380D02*
X158700000Y-85552380D01*
X159033333Y-84552380D01*
X159271428Y-84552380D02*
X159890476Y-84552380D01*
X159557142Y-84933333D01*
X159700000Y-84933333D01*
X159795238Y-84980952D01*
X159842857Y-85028571D01*
X159890476Y-85123809D01*
X159890476Y-85361904D01*
X159842857Y-85457142D01*
X159795238Y-85504761D01*
X159700000Y-85552380D01*
X159414285Y-85552380D01*
X159319047Y-85504761D01*
X159271428Y-85457142D01*
X158080952Y-83052380D02*
X157509523Y-83052380D01*
X157795238Y-83052380D02*
X157795238Y-82052380D01*
X157700000Y-82195238D01*
X157604761Y-82290476D01*
X157509523Y-82338095D01*
X158366666Y-82052380D02*
X158700000Y-83052380D01*
X159033333Y-82052380D01*
X159509523Y-82480952D02*
X159414285Y-82433333D01*
X159366666Y-82385714D01*
X159319047Y-82290476D01*
X159319047Y-82242857D01*
X159366666Y-82147619D01*
X159414285Y-82100000D01*
X159509523Y-82052380D01*
X159700000Y-82052380D01*
X159795238Y-82100000D01*
X159842857Y-82147619D01*
X159890476Y-82242857D01*
X159890476Y-82290476D01*
X159842857Y-82385714D01*
X159795238Y-82433333D01*
X159700000Y-82480952D01*
X159509523Y-82480952D01*
X159414285Y-82528571D01*
X159366666Y-82576190D01*
X159319047Y-82671428D01*
X159319047Y-82861904D01*
X159366666Y-82957142D01*
X159414285Y-83004761D01*
X159509523Y-83052380D01*
X159700000Y-83052380D01*
X159795238Y-83004761D01*
X159842857Y-82957142D01*
X159890476Y-82861904D01*
X159890476Y-82671428D01*
X159842857Y-82576190D01*
X159795238Y-82528571D01*
X159700000Y-82480952D01*
X181452380Y-70990476D02*
X181452380Y-71466666D01*
X180452380Y-71466666D01*
X181552380Y-73990476D02*
X181076190Y-74323809D01*
X181552380Y-74561904D02*
X180552380Y-74561904D01*
X180552380Y-74180952D01*
X180600000Y-74085714D01*
X180647619Y-74038095D01*
X180742857Y-73990476D01*
X180885714Y-73990476D01*
X180980952Y-74038095D01*
X181028571Y-74085714D01*
X181076190Y-74180952D01*
X181076190Y-74561904D01*
X180741628Y-103431752D02*
X180741628Y-102669847D01*
X180340047Y-105560628D02*
X181101952Y-105560628D01*
X180721000Y-105941580D02*
X180721000Y-105179676D01*
D12*
X164816666Y-117566666D02*
X164816666Y-116866666D01*
X165083333Y-116866666D01*
X165150000Y-116900000D01*
X165183333Y-116933333D01*
X165216666Y-117000000D01*
X165216666Y-117100000D01*
X165183333Y-117166666D01*
X165150000Y-117200000D01*
X165083333Y-117233333D01*
X164816666Y-117233333D01*
X165450000Y-116866666D02*
X165616666Y-117566666D01*
X165750000Y-117066666D01*
X165883333Y-117566666D01*
X166050000Y-116866666D01*
X166716666Y-117566666D02*
X166483333Y-117233333D01*
X166316666Y-117566666D02*
X166316666Y-116866666D01*
X166583333Y-116866666D01*
X166650000Y-116900000D01*
X166683333Y-116933333D01*
X166716666Y-117000000D01*
X166716666Y-117100000D01*
X166683333Y-117166666D01*
X166650000Y-117200000D01*
X166583333Y-117233333D01*
X166316666Y-117233333D01*
X171000000Y-117566666D02*
X170666666Y-117566666D01*
X170666666Y-116866666D01*
X171366666Y-116866666D02*
X171500000Y-116866666D01*
X171566666Y-116900000D01*
X171633333Y-116966666D01*
X171666666Y-117100000D01*
X171666666Y-117333333D01*
X171633333Y-117466666D01*
X171566666Y-117533333D01*
X171500000Y-117566666D01*
X171366666Y-117566666D01*
X171300000Y-117533333D01*
X171233333Y-117466666D01*
X171200000Y-117333333D01*
X171200000Y-117100000D01*
X171233333Y-116966666D01*
X171300000Y-116900000D01*
X171366666Y-116866666D01*
X171900000Y-116866666D02*
X172066666Y-117566666D01*
X172200000Y-117066666D01*
X172333333Y-117566666D01*
X172500000Y-116866666D01*
X173533333Y-117200000D02*
X173633333Y-117233333D01*
X173666666Y-117266666D01*
X173700000Y-117333333D01*
X173700000Y-117433333D01*
X173666666Y-117500000D01*
X173633333Y-117533333D01*
X173566666Y-117566666D01*
X173300000Y-117566666D01*
X173300000Y-116866666D01*
X173533333Y-116866666D01*
X173600000Y-116900000D01*
X173633333Y-116933333D01*
X173666666Y-117000000D01*
X173666666Y-117066666D01*
X173633333Y-117133333D01*
X173600000Y-117166666D01*
X173533333Y-117200000D01*
X173300000Y-117200000D01*
X173966666Y-117366666D02*
X174300000Y-117366666D01*
X173900000Y-117566666D02*
X174133333Y-116866666D01*
X174366666Y-117566666D01*
X174500000Y-116866666D02*
X174900000Y-116866666D01*
X174700000Y-117566666D02*
X174700000Y-116866666D01*
X175033333Y-116866666D02*
X175433333Y-116866666D01*
X175233333Y-117566666D02*
X175233333Y-116866666D01*
D10*
X115800000Y-100200000D02*
X115800000Y-100600000D01*
X116440000Y-100200000D02*
X115800000Y-100200000D01*
X120108000Y-106742000D02*
X119712000Y-106347000D01*
X122754000Y-109388000D02*
X122374000Y-109008000D01*
X119826000Y-106993000D02*
X119446000Y-106613000D01*
X122488000Y-109654000D02*
X122092000Y-109259000D01*
X119819000Y-101452000D02*
X119712000Y-101346000D01*
X122754000Y-104388000D02*
X122647000Y-104281000D01*
X119553000Y-101718000D02*
X119446000Y-101612000D01*
X122488000Y-104654000D02*
X122381000Y-104547000D01*
X125160000Y-110560000D02*
X116040000Y-110560000D01*
X125160000Y-100440000D02*
X116040000Y-100440000D01*
X116040000Y-100440000D02*
X116040000Y-110560000D01*
X125160000Y-100440000D02*
X125160000Y-110560000D01*
X117600000Y-100440000D02*
X117600000Y-110560000D01*
X116500000Y-100440000D02*
X116500000Y-110560000D01*
X123280000Y-108000000D02*
G75*
G03X123280000Y-108000000I-2180000J0D01*
G01*
X123280000Y-103000000D02*
G75*
G03X123280000Y-103000000I-2180000J0D01*
G01*
D13*
X119400000Y-90420000D02*
X121800000Y-90420000D01*
X122850000Y-98500000D02*
X122185000Y-98500000D01*
X122850000Y-91500000D02*
X122850000Y-98500000D01*
X118350000Y-91500000D02*
X119015000Y-91500000D01*
X118350000Y-98500000D02*
X118350000Y-91500000D01*
X119015000Y-98500000D02*
X118350000Y-98500000D01*
X122185000Y-91500000D02*
X122850000Y-91500000D01*
X121800000Y-78780000D02*
X119400000Y-78780000D01*
X118350000Y-70700000D02*
X119015000Y-70700000D01*
X118350000Y-77700000D02*
X118350000Y-70700000D01*
X122850000Y-77700000D02*
X122185000Y-77700000D01*
X122850000Y-70700000D02*
X122850000Y-77700000D01*
X122185000Y-70700000D02*
X122850000Y-70700000D01*
X119015000Y-77700000D02*
X118350000Y-77700000D01*
X160400000Y-105810000D02*
X160400000Y-104790000D01*
X157700000Y-105810000D02*
X157700000Y-104790000D01*
D10*
X115800000Y-79300000D02*
X115800000Y-79700000D01*
X116440000Y-79300000D02*
X115800000Y-79300000D01*
X120108000Y-85842000D02*
X119712000Y-85447000D01*
X122754000Y-88488000D02*
X122374000Y-88108000D01*
X119826000Y-86093000D02*
X119446000Y-85713000D01*
X122488000Y-88754000D02*
X122092000Y-88359000D01*
X119819000Y-80552000D02*
X119712000Y-80446000D01*
X122754000Y-83488000D02*
X122647000Y-83381000D01*
X119553000Y-80818000D02*
X119446000Y-80712000D01*
X122488000Y-83754000D02*
X122381000Y-83647000D01*
X125160000Y-89660000D02*
X116040000Y-89660000D01*
X125160000Y-79540000D02*
X116040000Y-79540000D01*
X116040000Y-79540000D02*
X116040000Y-89660000D01*
X125160000Y-79540000D02*
X125160000Y-89660000D01*
X117600000Y-79540000D02*
X117600000Y-89660000D01*
X116500000Y-79540000D02*
X116500000Y-89660000D01*
X123280000Y-87100000D02*
G75*
G03X123280000Y-87100000I-2180000J0D01*
G01*
X123280000Y-82100000D02*
G75*
G03X123280000Y-82100000I-2180000J0D01*
G01*
X160900000Y-85850000D02*
G75*
G02X160200000Y-85150000I0J700000D01*
G01*
X162200000Y-85150000D02*
G75*
G02X161500000Y-85850000I-700000J0D01*
G01*
X161500000Y-81750000D02*
G75*
G02X162200000Y-82450000I0J-700000D01*
G01*
X160200000Y-82450000D02*
G75*
G02X160900000Y-81750000I700000J0D01*
G01*
X160200000Y-85200000D02*
X160200000Y-82400000D01*
X160900000Y-81750000D02*
X161500000Y-81750000D01*
X162200000Y-82400000D02*
X162200000Y-85200000D01*
X161500000Y-85850000D02*
X160900000Y-85850000D01*
X162400000Y-85000000D02*
X162700000Y-85300000D01*
X162700000Y-85300000D02*
X162700000Y-84700000D01*
X162400000Y-85000000D02*
X162700000Y-84700000D01*
D13*
X162880000Y-74450000D02*
X162880000Y-73560000D01*
X159900000Y-74450000D02*
X159900000Y-76150000D01*
X162900000Y-74450000D02*
X162900000Y-76150000D01*
X176290000Y-75100000D02*
X176710000Y-75100000D01*
X176290000Y-73700000D02*
X176710000Y-73700000D01*
X176290000Y-72000000D02*
X176710000Y-72000000D01*
X176290000Y-70600000D02*
X176710000Y-70600000D01*
D14*
X178770000Y-72905000D02*
X180030000Y-72905000D01*
X178720000Y-74005000D02*
X178720000Y-74595000D01*
X180080000Y-74005000D02*
X180080000Y-74595000D01*
X178770000Y-69905000D02*
X180030000Y-69905000D01*
X178720000Y-71005000D02*
X178720000Y-71595000D01*
X180080000Y-71005000D02*
X180080000Y-71595000D01*
D13*
X173080000Y-74275000D02*
X173985000Y-74275000D01*
X173080000Y-71270000D02*
X171320000Y-71270000D01*
X173080000Y-74330000D02*
X171320000Y-74330000D01*
X155580000Y-85175000D02*
X156485000Y-85175000D01*
X155580000Y-82170000D02*
X153820000Y-82170000D01*
X155580000Y-85230000D02*
X153820000Y-85230000D01*
X155580000Y-77375000D02*
X156485000Y-77375000D01*
X155580000Y-74370000D02*
X153820000Y-74370000D01*
X155580000Y-77430000D02*
X153820000Y-77430000D01*
X155580000Y-81275000D02*
X156485000Y-81275000D01*
X155580000Y-78270000D02*
X153820000Y-78270000D01*
X155580000Y-81330000D02*
X153820000Y-81330000D01*
D10*
X173550000Y-75990000D02*
X181170000Y-75990000D01*
X173550000Y-81070000D02*
X173550000Y-75990000D01*
X181170000Y-81070000D02*
X173550000Y-81070000D01*
X181170000Y-75990000D02*
X181170000Y-81070000D01*
D13*
X171510000Y-79100000D02*
X171090000Y-79100000D01*
X171510000Y-80500000D02*
X171090000Y-80500000D01*
X171510000Y-76600000D02*
X171090000Y-76600000D01*
X171510000Y-78000000D02*
X171090000Y-78000000D01*
D10*
X163040000Y-81700000D02*
X163040000Y-84550000D01*
X165890000Y-81700000D02*
X163040000Y-81700000D01*
X181560000Y-81700000D02*
X181560000Y-84550000D01*
X178710000Y-81700000D02*
X181560000Y-81700000D01*
X181560000Y-93100000D02*
X181560000Y-90250000D01*
X178710000Y-93100000D02*
X181560000Y-93100000D01*
X163040000Y-93100000D02*
X163040000Y-90250000D01*
X165890000Y-93100000D02*
X163040000Y-93100000D01*
X161215000Y-79480000D02*
X161585000Y-79480000D01*
X161215000Y-78120000D02*
X161585000Y-78120000D01*
D13*
X150010000Y-83900000D02*
X149590000Y-83900000D01*
X150010000Y-85300000D02*
X149590000Y-85300000D01*
X154590000Y-73500000D02*
X155010000Y-73500000D01*
X154590000Y-72100000D02*
X155010000Y-72100000D01*
X143400000Y-82590000D02*
X143400000Y-83010000D01*
X144800000Y-82590000D02*
X144800000Y-83010000D01*
X145800000Y-82590000D02*
X145800000Y-83010000D01*
X147200000Y-82590000D02*
X147200000Y-83010000D01*
X150010000Y-81500000D02*
X149590000Y-81500000D01*
X150010000Y-82900000D02*
X149590000Y-82900000D01*
X163830000Y-79400000D02*
X163830000Y-80835000D01*
X168800000Y-79400000D02*
X168800000Y-75400000D01*
X163800000Y-79400000D02*
X163800000Y-75400000D01*
X165710000Y-71500000D02*
X165290000Y-71500000D01*
X165710000Y-72900000D02*
X165290000Y-72900000D01*
X165710000Y-69100000D02*
X165290000Y-69100000D01*
X165710000Y-70500000D02*
X165290000Y-70500000D01*
X150840000Y-94490000D02*
X150840000Y-95110000D01*
X149850000Y-95650000D02*
X147150000Y-95650000D01*
X147150000Y-93950000D02*
X149850000Y-93950000D01*
X141810000Y-81840000D02*
X141190000Y-81840000D01*
X140650000Y-80850000D02*
X140650000Y-78150000D01*
X142350000Y-78150000D02*
X142350000Y-80850000D01*
D14*
X132529000Y-82264500D02*
X132104000Y-82264500D01*
X132529000Y-76044500D02*
X132529000Y-82264500D01*
X125789000Y-76044500D02*
X132529000Y-76044500D01*
X125789000Y-82264500D02*
X125789000Y-76044500D01*
X126214000Y-82264500D02*
X125789000Y-82264500D01*
X139768000Y-82239100D02*
X139343000Y-82239100D01*
X139768000Y-76019100D02*
X139768000Y-82239100D01*
X133028000Y-76019100D02*
X139768000Y-76019100D01*
X133028000Y-82239100D02*
X133028000Y-76019100D01*
X133453000Y-82239100D02*
X133028000Y-82239100D01*
X125789000Y-86662700D02*
X126214000Y-86662700D01*
X125789000Y-92882700D02*
X125789000Y-86662700D01*
X132529000Y-92882700D02*
X125789000Y-92882700D01*
X132529000Y-86662700D02*
X132529000Y-92882700D01*
X132104000Y-86662700D02*
X132529000Y-86662700D01*
X133028000Y-86662700D02*
X133453000Y-86662700D01*
X133028000Y-92882700D02*
X133028000Y-86662700D01*
X139768000Y-92882700D02*
X133028000Y-92882700D01*
X139768000Y-86662700D02*
X139768000Y-92882700D01*
X139343000Y-86662700D02*
X139768000Y-86662700D01*
D13*
X142250000Y-98950000D02*
X142250000Y-105250000D01*
X135950000Y-105250000D02*
X135950000Y-98950000D01*
D10*
X155580000Y-110185000D02*
X155580000Y-109815000D01*
X154220000Y-110185000D02*
X154220000Y-109815000D01*
D13*
X170565000Y-96100000D02*
X171835000Y-96100000D01*
X170565000Y-94300000D02*
X171835000Y-94300000D01*
X142380000Y-107900000D02*
X142380000Y-110300000D01*
X134300000Y-111350000D02*
X134300000Y-110685000D01*
X141300000Y-111350000D02*
X134300000Y-111350000D01*
X141300000Y-106850000D02*
X141300000Y-107515000D01*
X134300000Y-106850000D02*
X141300000Y-106850000D01*
X134300000Y-107515000D02*
X134300000Y-106850000D01*
X141300000Y-110685000D02*
X141300000Y-111350000D01*
X143265000Y-87100000D02*
X144535000Y-87100000D01*
X143265000Y-85300000D02*
X144535000Y-85300000D01*
D10*
X128268000Y-116132000D02*
X156716000Y-116132000D01*
X127760000Y-117656000D02*
X128268000Y-116132000D01*
X156208000Y-117656000D02*
X127760000Y-117656000D01*
X156716000Y-116132000D02*
X156208000Y-117656000D01*
D14*
G36*
X153160000Y-116132000D02*
G01*
X152906000Y-116894000D01*
X156462000Y-116894000D01*
X156716000Y-116132000D01*
X153160000Y-116132000D01*
G37*
X153160000Y-116132000D02*
X152906000Y-116894000D01*
X156462000Y-116894000D01*
X156716000Y-116132000D01*
X153160000Y-116132000D01*
G36*
X149350000Y-116894000D02*
G01*
X149096000Y-117656000D01*
X152652000Y-117656000D01*
X152906000Y-116894000D01*
X149350000Y-116894000D01*
G37*
X149350000Y-116894000D02*
X149096000Y-117656000D01*
X152652000Y-117656000D01*
X152906000Y-116894000D01*
X149350000Y-116894000D01*
G36*
X146048000Y-116132000D02*
G01*
X145794000Y-116894000D01*
X149350000Y-116894000D01*
X149604000Y-116132000D01*
X146048000Y-116132000D01*
G37*
X146048000Y-116132000D02*
X145794000Y-116894000D01*
X149350000Y-116894000D01*
X149604000Y-116132000D01*
X146048000Y-116132000D01*
G36*
X142238000Y-116894000D02*
G01*
X141984000Y-117656000D01*
X145540000Y-117656000D01*
X145794000Y-116894000D01*
X142238000Y-116894000D01*
G37*
X142238000Y-116894000D02*
X141984000Y-117656000D01*
X145540000Y-117656000D01*
X145794000Y-116894000D01*
X142238000Y-116894000D01*
G36*
X138936000Y-116132000D02*
G01*
X138682000Y-116894000D01*
X142238000Y-116894000D01*
X142492000Y-116132000D01*
X138936000Y-116132000D01*
G37*
X138936000Y-116132000D02*
X138682000Y-116894000D01*
X142238000Y-116894000D01*
X142492000Y-116132000D01*
X138936000Y-116132000D01*
G36*
X135126000Y-116894000D02*
G01*
X134872000Y-117656000D01*
X138428000Y-117656000D01*
X138682000Y-116894000D01*
X135126000Y-116894000D01*
G37*
X135126000Y-116894000D02*
X134872000Y-117656000D01*
X138428000Y-117656000D01*
X138682000Y-116894000D01*
X135126000Y-116894000D01*
G36*
X131824000Y-116132000D02*
G01*
X131570000Y-116894000D01*
X135126000Y-116894000D01*
X135380000Y-116132000D01*
X131824000Y-116132000D01*
G37*
X131824000Y-116132000D02*
X131570000Y-116894000D01*
X135126000Y-116894000D01*
X135380000Y-116132000D01*
X131824000Y-116132000D01*
G36*
X128014000Y-116894000D02*
G01*
X127760000Y-117656000D01*
X131316000Y-117656000D01*
X131570000Y-116894000D01*
X128014000Y-116894000D01*
G37*
X128014000Y-116894000D02*
X127760000Y-117656000D01*
X131316000Y-117656000D01*
X131570000Y-116894000D01*
X128014000Y-116894000D01*
D13*
X154003000Y-98419000D02*
X154003000Y-101479000D01*
X145518000Y-103079000D02*
X145518000Y-101834000D01*
X152678000Y-103079000D02*
X145518000Y-103079000D01*
X152678000Y-96819000D02*
X152678000Y-98064000D01*
X145518000Y-96819000D02*
X152678000Y-96819000D01*
X145518000Y-98064000D02*
X145518000Y-96819000D01*
X152678000Y-101834000D02*
X152678000Y-103079000D01*
D14*
X167145000Y-114870000D02*
X167145000Y-116130000D01*
X166045000Y-114820000D02*
X165455000Y-114820000D01*
X166045000Y-116180000D02*
X165455000Y-116180000D01*
X174395000Y-114870000D02*
X174395000Y-116130000D01*
X173295000Y-114820000D02*
X172705000Y-114820000D01*
X173295000Y-116180000D02*
X172705000Y-116180000D01*
D11*
X151625000Y-87000000D02*
G75*
G03X151625000Y-87000000I-125000J0D01*
G01*
D10*
X160400000Y-91000000D02*
G75*
G03X160400000Y-91000000I-4900000J0D01*
G01*
D13*
X131170000Y-105900000D02*
X131170000Y-104465000D01*
X126200000Y-105900000D02*
X126200000Y-109900000D01*
X131200000Y-105900000D02*
X131200000Y-109900000D01*
X147300000Y-93070000D02*
X148735000Y-93070000D01*
X147300000Y-88100000D02*
X143300000Y-88100000D01*
X147300000Y-93100000D02*
X143300000Y-93100000D01*
D10*
X179520000Y-101788000D02*
X179520000Y-109408000D01*
X176980000Y-101788000D02*
X179520000Y-101788000D01*
X176980000Y-109408000D02*
X176980000Y-101788000D01*
X179520000Y-109408000D02*
X176980000Y-109408000D01*
D15*
X174734000Y-111675700D02*
X173231590Y-111675700D01*
X174734000Y-102023700D02*
X174734000Y-111675700D01*
X164066000Y-102023700D02*
X174734000Y-102023700D01*
X164066000Y-111675700D02*
X164066000Y-102023700D01*
X165568410Y-111675700D02*
X164066000Y-111675700D01*
D13*
X163050000Y-97610000D02*
X163050000Y-96630000D01*
X161350000Y-97610000D02*
X163050000Y-97610000D01*
X163050000Y-94590000D02*
X163050000Y-95570000D01*
X161350000Y-94590000D02*
X163050000Y-94590000D01*
X143230000Y-78900000D02*
X143230000Y-80335000D01*
X148200000Y-78900000D02*
X148200000Y-74900000D01*
X143200000Y-78900000D02*
X143200000Y-74900000D01*
X135180000Y-99200000D02*
X135180000Y-101600000D01*
X127100000Y-102650000D02*
X127100000Y-101985000D01*
X134100000Y-102650000D02*
X127100000Y-102650000D01*
X134100000Y-98150000D02*
X134100000Y-98815000D01*
X127100000Y-98150000D02*
X134100000Y-98150000D01*
X127100000Y-98815000D02*
X127100000Y-98150000D01*
X134100000Y-101985000D02*
X134100000Y-102650000D01*
D10*
X143211000Y-103828000D02*
X143211000Y-104198000D01*
X144571000Y-103828000D02*
X144571000Y-104198000D01*
X143715000Y-95480000D02*
X144085000Y-95480000D01*
X143715000Y-94120000D02*
X144085000Y-94120000D01*
X140820000Y-74515000D02*
X140820000Y-74885000D01*
X142180000Y-74515000D02*
X142180000Y-74885000D01*
D13*
X156750000Y-105810000D02*
X156750000Y-104790000D01*
X154050000Y-105810000D02*
X154050000Y-104790000D01*
X151538000Y-111377000D02*
X151958000Y-111377000D01*
X151538000Y-109977000D02*
X151958000Y-109977000D01*
X147758000Y-109977000D02*
X147338000Y-109977000D01*
X147758000Y-111377000D02*
X147338000Y-111377000D01*
X156800000Y-109790000D02*
X156800000Y-110210000D01*
X158200000Y-109790000D02*
X158200000Y-110210000D01*
X169557000Y-114743000D02*
X169137000Y-114743000D01*
X169557000Y-116143000D02*
X169137000Y-116143000D01*
X179200000Y-96290000D02*
X179200000Y-96710000D01*
X180600000Y-96290000D02*
X180600000Y-96710000D01*
X178200000Y-96710000D02*
X178200000Y-96290000D01*
X176800000Y-96710000D02*
X176800000Y-96290000D01*
X175800000Y-96710000D02*
X175800000Y-96290000D01*
X174400000Y-96710000D02*
X174400000Y-96290000D01*
X145045000Y-109855000D02*
X145045000Y-108585000D01*
X143245000Y-109855000D02*
X143245000Y-108585000D01*
X149200000Y-76265000D02*
X149200000Y-77535000D01*
X151000000Y-76265000D02*
X151000000Y-77535000D01*
X177385000Y-99000000D02*
X176115000Y-99000000D01*
X177385000Y-100800000D02*
X176115000Y-100800000D01*
X159453000Y-102049000D02*
X155253000Y-102049000D01*
X155253000Y-97849000D02*
X159453000Y-97849000D01*
X147658000Y-104087000D02*
X146223000Y-104087000D01*
X147658000Y-109057000D02*
X151658000Y-109057000D01*
X147658000Y-104057000D02*
X151658000Y-104057000D01*
X160366666Y-86552380D02*
X160366666Y-87266666D01*
X160319047Y-87409523D01*
X160223809Y-87504761D01*
X160080952Y-87552380D01*
X159985714Y-87552380D01*
X160842857Y-87552380D02*
X160842857Y-86552380D01*
X161223809Y-86552380D01*
X161319047Y-86600000D01*
X161366666Y-86647619D01*
X161414285Y-86742857D01*
X161414285Y-86885714D01*
X161366666Y-86980952D01*
X161319047Y-87028571D01*
X161223809Y-87076190D01*
X160842857Y-87076190D01*
X161795238Y-86647619D02*
X161842857Y-86600000D01*
X161938095Y-86552380D01*
X162176190Y-86552380D01*
X162271428Y-86600000D01*
X162319047Y-86647619D01*
X162366666Y-86742857D01*
X162366666Y-86838095D01*
X162319047Y-86980952D01*
X161747619Y-87552380D01*
X162366666Y-87552380D01*
D12*
X176485714Y-108266571D02*
X176542857Y-108095142D01*
X176542857Y-107809428D01*
X176485714Y-107695142D01*
X176428571Y-107638000D01*
X176314285Y-107580857D01*
X176200000Y-107580857D01*
X176085714Y-107638000D01*
X176028571Y-107695142D01*
X175971428Y-107809428D01*
X175914285Y-108038000D01*
X175857142Y-108152285D01*
X175800000Y-108209428D01*
X175685714Y-108266571D01*
X175571428Y-108266571D01*
X175457142Y-108209428D01*
X175400000Y-108152285D01*
X175342857Y-108038000D01*
X175342857Y-107752285D01*
X175400000Y-107580857D01*
X175914285Y-107066571D02*
X175914285Y-106666571D01*
X176542857Y-106495142D02*
X176542857Y-107066571D01*
X175342857Y-107066571D01*
X175342857Y-106495142D01*
X176542857Y-105295142D02*
X175971428Y-105695142D01*
X176542857Y-105980857D02*
X175342857Y-105980857D01*
X175342857Y-105523714D01*
X175400000Y-105409428D01*
X175457142Y-105352285D01*
X175571428Y-105295142D01*
X175742857Y-105295142D01*
X175857142Y-105352285D01*
X175914285Y-105409428D01*
X175971428Y-105523714D01*
X175971428Y-105980857D01*
X175342857Y-104952285D02*
X176542857Y-104552285D01*
X175342857Y-104152285D01*
X175342857Y-103523714D02*
X175342857Y-103295142D01*
X175400000Y-103180857D01*
X175514285Y-103066571D01*
X175742857Y-103009428D01*
X176142857Y-103009428D01*
X176371428Y-103066571D01*
X176485714Y-103180857D01*
X176542857Y-103295142D01*
X176542857Y-103523714D01*
X176485714Y-103638000D01*
X176371428Y-103752285D01*
X176142857Y-103809428D01*
X175742857Y-103809428D01*
X175514285Y-103752285D01*
X175400000Y-103638000D01*
X175342857Y-103523714D01*
M02*
