M48
; DRILL file {KiCad (5.1.2-1)-1} date Sunday, December 01, 2019 at 06:08:05 PM
; FORMAT={-:-/ absolute / metric / decimal}
; #@! TF.CreationDate,2019-12-01T18:08:05-08:00
; #@! TF.GenerationSoftware,Kicad,Pcbnew,(5.1.2-1)-1
FMAT,2
METRIC
T1C0.400
T2C0.500
T3C0.900
T4C1.000
T5C1.060
T6C1.070
T7C1.300
T8C2.750
%
G90
G05
T1
X123.8Y-79.7
X123.8Y-80.6
X123.8Y-81.5
X123.8Y-87.4
X123.8Y-88.3
X123.8Y-89.2
X124.895Y-81.5
X124.9Y-79.7
X124.9Y-80.6
X124.9Y-87.4
X124.9Y-88.3
X124.9Y-89.2
X126.8Y-103.8
X128.0Y-73.1
X128.0Y-74.0
X128.0Y-74.9
X128.5Y-93.98
X128.5Y-94.9
X128.5Y-95.8
X128.9Y-73.1
X128.9Y-74.0
X128.9Y-74.9
X129.4Y-93.98
X129.4Y-94.9
X129.4Y-95.8
X129.8Y-73.1
X129.8Y-74.0
X129.8Y-74.9
X130.3Y-93.98
X130.3Y-94.9
X130.3Y-95.8
X132.6Y-107.7
X132.6Y-108.6
X132.6Y-109.6
X132.6Y-110.5
X133.1Y-97.6
X134.0Y-97.6
X134.9Y-97.6
X135.3Y-73.1
X135.3Y-74.0
X135.3Y-74.9
X135.7Y-94.0
X135.7Y-94.9
X135.7Y-95.8
X135.8Y-97.6
X136.2Y-73.1
X136.2Y-74.0
X136.2Y-74.9
X136.6Y-93.98
X136.6Y-94.9
X136.6Y-95.8
X136.7Y-97.6
X137.1Y-73.1
X137.1Y-74.0
X137.1Y-74.9
X137.5Y-93.98
X137.5Y-94.9
X137.5Y-95.8
X137.6Y-97.6
X138.5Y-97.6
X139.4Y-97.6
X139.9Y-87.3
X139.9Y-88.3
X139.9Y-89.3
X139.9Y-90.3
X139.9Y-91.3
X140.3Y-97.6
X140.6Y-86.8
X140.6Y-87.8
X140.6Y-88.8
X140.6Y-89.8
X140.6Y-90.8
X141.2Y-97.6
X141.5Y-76.5
X141.5Y-79.5
X143.8Y-86.2
X144.2Y-109.4
X144.7Y-90.0
X146.4Y-76.2
X149.0Y-80.4
X149.225Y-102.5
X149.225Y-103.569
X149.225Y-104.6
X149.225Y-108.585
X150.114Y-102.5
X150.114Y-103.569
X150.114Y-104.6
X150.114Y-108.585
X150.8Y-80.7
X151.5Y-89.6
X153.0Y-93.0
X153.0Y-94.1
X153.0Y-96.0
X153.3Y-70.425
X154.296Y-70.518
X154.365Y-86.18
X155.09Y-89.275
X155.4Y-70.5
X155.815Y-88.461
X156.0Y-71.3
X157.1Y-75.9
X157.1Y-77.9
X157.1Y-79.8
X157.1Y-83.7
X159.4Y-80.9
X159.4Y-86.5
X160.3Y-102.3
X160.3Y-109.0
X160.5Y-80.1
X160.5Y-98.3
X161.4Y-75.4
X162.2Y-95.1
X164.75Y-103.15
X165.0Y-104.9
X165.0Y-105.9
X165.0Y-106.9
X165.0Y-107.9
X165.0Y-108.9
X165.0Y-109.9
X165.0Y-110.9
X165.0Y-112.4
X165.0Y-113.4
X166.0Y-94.8
X167.75Y-95.33
X168.2Y-77.4
X170.3Y-75.6
X171.2Y-70.6
X171.4Y-75.4
X173.75Y-104.9
X173.75Y-105.9
X173.75Y-106.9
X173.75Y-107.9
X173.75Y-108.9
X173.75Y-109.9
X173.75Y-110.9
X173.75Y-112.4
X173.75Y-113.4
X174.8Y-72.8
X175.1Y-94.2
X176.0Y-102.4
X176.0Y-108.638
T2
X118.26Y-65.75
X118.92Y-64.17
X118.92Y-67.33
X120.5Y-63.51
X120.5Y-67.99
X122.08Y-64.17
X122.08Y-67.33
X122.74Y-65.75
X176.26Y-114.75
X176.92Y-113.17
X176.92Y-116.33
X178.5Y-112.51
X178.5Y-116.99
X180.08Y-113.17
X180.08Y-116.33
X180.74Y-114.75
X176.26Y-65.75
X176.92Y-64.17
X176.92Y-67.33
X178.5Y-63.51
X178.5Y-67.99
X180.08Y-64.17
X180.08Y-67.33
X180.74Y-65.75
X118.26Y-114.75
X118.92Y-113.17
X118.92Y-116.33
X120.5Y-112.51
X120.5Y-116.99
X122.08Y-113.17
X122.08Y-116.33
X122.74Y-114.75
T3
X153.0Y-91.0
X158.0Y-91.0
T4
X164.68Y-83.59
X164.68Y-86.13
X164.68Y-88.67
X164.68Y-91.21
X179.92Y-83.59
X179.92Y-86.13
X179.92Y-88.67
X179.92Y-91.21
T5
X178.25Y-103.058
X178.25Y-105.598
X178.25Y-108.138
X125.5Y-64.46
X125.5Y-67.0
X128.04Y-64.46
X128.04Y-67.0
X130.58Y-64.46
X130.58Y-67.0
X133.12Y-64.46
X133.12Y-67.0
X135.66Y-64.46
X135.66Y-67.0
X138.2Y-64.46
X138.2Y-67.0
X140.74Y-64.46
X140.74Y-67.0
X143.28Y-64.46
X143.28Y-67.0
X145.82Y-64.46
X145.82Y-67.0
X148.36Y-64.46
X148.36Y-67.0
X150.9Y-64.46
X150.9Y-67.0
X153.44Y-64.46
X153.44Y-67.0
X155.98Y-64.46
X155.98Y-67.0
X158.52Y-64.46
X158.52Y-67.0
X161.06Y-64.46
X161.06Y-67.0
X163.6Y-64.46
X163.6Y-67.0
X166.14Y-64.46
X166.14Y-67.0
X168.68Y-64.46
X168.68Y-67.0
X171.22Y-64.46
X171.22Y-67.0
X173.76Y-64.46
X173.76Y-67.0
T6
X174.82Y-77.26
X174.82Y-79.8
X177.36Y-77.26
X177.36Y-79.8
X179.9Y-77.26
X179.9Y-79.8
T7
X121.1Y-103.0
X121.1Y-108.0
X121.1Y-82.1
X121.1Y-87.1
T8
X178.5Y-114.75
X178.5Y-65.75
X120.5Y-114.75
X120.5Y-65.75
T0
M30
