G04 #@! TF.GenerationSoftware,KiCad,Pcbnew,(5.1.2-1)-1*
G04 #@! TF.CreationDate,2019-12-23T14:01:27-08:00*
G04 #@! TF.ProjectId,RaceOn-PiHAT,52616365-4f6e-42d5-9069-4841542e6b69,1*
G04 #@! TF.SameCoordinates,Original*
G04 #@! TF.FileFunction,Legend,Bot*
G04 #@! TF.FilePolarity,Positive*
%FSLAX46Y46*%
G04 Gerber Fmt 4.6, Leading zero omitted, Abs format (unit mm)*
G04 Created by KiCad (PCBNEW (5.1.2-1)-1) date 2019-12-23 14:01:27*
%MOMM*%
%LPD*%
G04 APERTURE LIST*
%ADD10C,0.250000*%
%ADD11C,0.120000*%
%ADD12C,0.150000*%
G04 APERTURE END LIST*
D10*
X172590476Y-106352380D02*
X173066666Y-106352380D01*
X173114285Y-106828571D01*
X173066666Y-106780952D01*
X172971428Y-106733333D01*
X172733333Y-106733333D01*
X172638095Y-106780952D01*
X172590476Y-106828571D01*
X172542857Y-106923809D01*
X172542857Y-107161904D01*
X172590476Y-107257142D01*
X172638095Y-107304761D01*
X172733333Y-107352380D01*
X172971428Y-107352380D01*
X173066666Y-107304761D01*
X173114285Y-107257142D01*
X172257142Y-106352380D02*
X171923809Y-107352380D01*
X171590476Y-106352380D01*
X172638095Y-103952380D02*
X172828571Y-103952380D01*
X172923809Y-104000000D01*
X172971428Y-104047619D01*
X173066666Y-104190476D01*
X173114285Y-104380952D01*
X173114285Y-104761904D01*
X173066666Y-104857142D01*
X173019047Y-104904761D01*
X172923809Y-104952380D01*
X172733333Y-104952380D01*
X172638095Y-104904761D01*
X172590476Y-104857142D01*
X172542857Y-104761904D01*
X172542857Y-104523809D01*
X172590476Y-104428571D01*
X172638095Y-104380952D01*
X172733333Y-104333333D01*
X172923809Y-104333333D01*
X173019047Y-104380952D01*
X173066666Y-104428571D01*
X173114285Y-104523809D01*
X172257142Y-103952380D02*
X171923809Y-104952380D01*
X171590476Y-103952380D01*
D11*
X119200000Y-98100000D02*
X119200000Y-95300000D01*
X119200000Y-95300000D02*
X117200000Y-95300000D01*
X117200000Y-95300000D02*
X117200000Y-98100000D01*
X117200000Y-98100000D02*
X119200000Y-98100000D01*
X121700000Y-98100000D02*
X121700000Y-95300000D01*
X121700000Y-95300000D02*
X119700000Y-95300000D01*
X119700000Y-95300000D02*
X119700000Y-98100000D01*
X119700000Y-98100000D02*
X121700000Y-98100000D01*
X175230000Y-63230000D02*
X124030000Y-63230000D01*
X175230000Y-68230000D02*
X175230000Y-63230000D01*
X124030000Y-68230000D02*
X175230000Y-68230000D01*
X124030000Y-63230000D02*
X124030000Y-68230000D01*
X175700000Y-103588000D02*
G75*
G03X175000000Y-104288000I0J-700000D01*
G01*
X177000000Y-104288000D02*
G75*
G03X176300000Y-103588000I-700000J0D01*
G01*
X176300000Y-107688000D02*
G75*
G03X177000000Y-106988000I0J700000D01*
G01*
X175000000Y-106988000D02*
G75*
G03X175700000Y-107688000I700000J0D01*
G01*
X175000000Y-104238000D02*
X175000000Y-107038000D01*
X175700000Y-107688000D02*
X176300000Y-107688000D01*
X177000000Y-107038000D02*
X177000000Y-104238000D01*
X176300000Y-103588000D02*
X175700000Y-103588000D01*
X177200000Y-104438000D02*
X177500000Y-104138000D01*
X177500000Y-104138000D02*
X177500000Y-104738000D01*
X177200000Y-104438000D02*
X177500000Y-104738000D01*
X150030000Y-65072857D02*
X150030000Y-65930000D01*
X150087142Y-66101428D01*
X150201428Y-66215714D01*
X150372857Y-66272857D01*
X150487142Y-66272857D01*
X149572857Y-65072857D02*
X148830000Y-65072857D01*
X149230000Y-65530000D01*
X149058571Y-65530000D01*
X148944285Y-65587142D01*
X148887142Y-65644285D01*
X148830000Y-65758571D01*
X148830000Y-66044285D01*
X148887142Y-66158571D01*
X148944285Y-66215714D01*
X149058571Y-66272857D01*
X149401428Y-66272857D01*
X149515714Y-66215714D01*
X149572857Y-66158571D01*
D12*
X176733333Y-100752380D02*
X176733333Y-101466666D01*
X176780952Y-101609523D01*
X176876190Y-101704761D01*
X177019047Y-101752380D01*
X177114285Y-101752380D01*
X176257142Y-101752380D02*
X176257142Y-100752380D01*
X175876190Y-100752380D01*
X175780952Y-100800000D01*
X175733333Y-100847619D01*
X175685714Y-100942857D01*
X175685714Y-101085714D01*
X175733333Y-101180952D01*
X175780952Y-101228571D01*
X175876190Y-101276190D01*
X176257142Y-101276190D01*
X174733333Y-101752380D02*
X175304761Y-101752380D01*
X175019047Y-101752380D02*
X175019047Y-100752380D01*
X175114285Y-100895238D01*
X175209523Y-100990476D01*
X175304761Y-101038095D01*
M02*
