G04 #@! TF.GenerationSoftware,KiCad,Pcbnew,(5.1.2-1)-1*
G04 #@! TF.CreationDate,2019-08-16T00:07:05-07:00*
G04 #@! TF.ProjectId,RaceOn-PiHAT,52616365-4f6e-42d5-9069-4841542e6b69,1*
G04 #@! TF.SameCoordinates,Original*
G04 #@! TF.FileFunction,Legend,Top*
G04 #@! TF.FilePolarity,Positive*
%FSLAX46Y46*%
G04 Gerber Fmt 4.6, Leading zero omitted, Abs format (unit mm)*
G04 Created by KiCad (PCBNEW (5.1.2-1)-1) date 2019-08-16 00:07:05*
%MOMM*%
%LPD*%
G04 APERTURE LIST*
%ADD10C,0.120000*%
%ADD11C,0.250000*%
%ADD12C,0.100000*%
%ADD13C,0.150000*%
%ADD14C,0.149860*%
G04 APERTURE END LIST*
D10*
X181500000Y-101250000D02*
X181500000Y-101750000D01*
X181250000Y-101500000D02*
X181750000Y-101500000D01*
X181500000Y-98750000D02*
X181500000Y-99250000D01*
D11*
X171166666Y-117452380D02*
X171166666Y-116452380D01*
X171547619Y-116452380D01*
X171642857Y-116500000D01*
X171690476Y-116547619D01*
X171738095Y-116642857D01*
X171738095Y-116785714D01*
X171690476Y-116880952D01*
X171642857Y-116928571D01*
X171547619Y-116976190D01*
X171166666Y-116976190D01*
X172071428Y-116452380D02*
X172309523Y-117452380D01*
X172500000Y-116738095D01*
X172690476Y-117452380D01*
X172928571Y-116452380D01*
X173880952Y-117452380D02*
X173547619Y-116976190D01*
X173309523Y-117452380D02*
X173309523Y-116452380D01*
X173690476Y-116452380D01*
X173785714Y-116500000D01*
X173833333Y-116547619D01*
X173880952Y-116642857D01*
X173880952Y-116785714D01*
X173833333Y-116880952D01*
X173785714Y-116928571D01*
X173690476Y-116976190D01*
X173309523Y-116976190D01*
X162892857Y-117452380D02*
X162416666Y-117452380D01*
X162416666Y-116452380D01*
X163416666Y-116452380D02*
X163607142Y-116452380D01*
X163702380Y-116500000D01*
X163797619Y-116595238D01*
X163845238Y-116785714D01*
X163845238Y-117119047D01*
X163797619Y-117309523D01*
X163702380Y-117404761D01*
X163607142Y-117452380D01*
X163416666Y-117452380D01*
X163321428Y-117404761D01*
X163226190Y-117309523D01*
X163178571Y-117119047D01*
X163178571Y-116785714D01*
X163226190Y-116595238D01*
X163321428Y-116500000D01*
X163416666Y-116452380D01*
X164178571Y-116452380D02*
X164416666Y-117452380D01*
X164607142Y-116738095D01*
X164797619Y-117452380D01*
X165035714Y-116452380D01*
X166511904Y-116928571D02*
X166654761Y-116976190D01*
X166702380Y-117023809D01*
X166750000Y-117119047D01*
X166750000Y-117261904D01*
X166702380Y-117357142D01*
X166654761Y-117404761D01*
X166559523Y-117452380D01*
X166178571Y-117452380D01*
X166178571Y-116452380D01*
X166511904Y-116452380D01*
X166607142Y-116500000D01*
X166654761Y-116547619D01*
X166702380Y-116642857D01*
X166702380Y-116738095D01*
X166654761Y-116833333D01*
X166607142Y-116880952D01*
X166511904Y-116928571D01*
X166178571Y-116928571D01*
X167130952Y-117166666D02*
X167607142Y-117166666D01*
X167035714Y-117452380D02*
X167369047Y-116452380D01*
X167702380Y-117452380D01*
X167892857Y-116452380D02*
X168464285Y-116452380D01*
X168178571Y-117452380D02*
X168178571Y-116452380D01*
X168654761Y-116452380D02*
X169226190Y-116452380D01*
X168940476Y-117452380D02*
X168940476Y-116452380D01*
D12*
G36*
X181500000Y-89500000D02*
G01*
X178000000Y-89500000D01*
X178000000Y-83000000D01*
X181500000Y-83000000D01*
X181500000Y-89500000D01*
G37*
X181500000Y-89500000D02*
X178000000Y-89500000D01*
X178000000Y-83000000D01*
X181500000Y-83000000D01*
X181500000Y-89500000D01*
G36*
X181500000Y-78500000D02*
G01*
X178000000Y-78500000D01*
X178000000Y-72000000D01*
X181500000Y-72000000D01*
X181500000Y-78500000D01*
G37*
X181500000Y-78500000D02*
X178000000Y-78500000D01*
X178000000Y-72000000D01*
X181500000Y-72000000D01*
X181500000Y-78500000D01*
G36*
X174000000Y-78500000D02*
G01*
X170450000Y-78500000D01*
X170475000Y-72000000D01*
X174000000Y-72000000D01*
X174000000Y-78500000D01*
G37*
X174000000Y-78500000D02*
X170450000Y-78500000D01*
X170475000Y-72000000D01*
X174000000Y-72000000D01*
X174000000Y-78500000D01*
G36*
X174000000Y-89450000D02*
G01*
X170500000Y-89450000D01*
X170500000Y-82950000D01*
X174000000Y-82950000D01*
X174000000Y-89450000D01*
G37*
X174000000Y-89450000D02*
X170500000Y-89450000D01*
X170500000Y-82950000D01*
X174000000Y-82950000D01*
X174000000Y-89450000D01*
D10*
X125518000Y-116032000D02*
X153966000Y-116032000D01*
X125010000Y-117556000D02*
X125518000Y-116032000D01*
X153458000Y-117556000D02*
X125010000Y-117556000D01*
X153966000Y-116032000D02*
X153458000Y-117556000D01*
D12*
G36*
X150410000Y-116032000D02*
G01*
X150156000Y-116794000D01*
X153712000Y-116794000D01*
X153966000Y-116032000D01*
X150410000Y-116032000D01*
G37*
X150410000Y-116032000D02*
X150156000Y-116794000D01*
X153712000Y-116794000D01*
X153966000Y-116032000D01*
X150410000Y-116032000D01*
G36*
X146600000Y-116794000D02*
G01*
X146346000Y-117556000D01*
X149902000Y-117556000D01*
X150156000Y-116794000D01*
X146600000Y-116794000D01*
G37*
X146600000Y-116794000D02*
X146346000Y-117556000D01*
X149902000Y-117556000D01*
X150156000Y-116794000D01*
X146600000Y-116794000D01*
G36*
X143298000Y-116032000D02*
G01*
X143044000Y-116794000D01*
X146600000Y-116794000D01*
X146854000Y-116032000D01*
X143298000Y-116032000D01*
G37*
X143298000Y-116032000D02*
X143044000Y-116794000D01*
X146600000Y-116794000D01*
X146854000Y-116032000D01*
X143298000Y-116032000D01*
G36*
X139488000Y-116794000D02*
G01*
X139234000Y-117556000D01*
X142790000Y-117556000D01*
X143044000Y-116794000D01*
X139488000Y-116794000D01*
G37*
X139488000Y-116794000D02*
X139234000Y-117556000D01*
X142790000Y-117556000D01*
X143044000Y-116794000D01*
X139488000Y-116794000D01*
G36*
X136186000Y-116032000D02*
G01*
X135932000Y-116794000D01*
X139488000Y-116794000D01*
X139742000Y-116032000D01*
X136186000Y-116032000D01*
G37*
X136186000Y-116032000D02*
X135932000Y-116794000D01*
X139488000Y-116794000D01*
X139742000Y-116032000D01*
X136186000Y-116032000D01*
G36*
X132376000Y-116794000D02*
G01*
X132122000Y-117556000D01*
X135678000Y-117556000D01*
X135932000Y-116794000D01*
X132376000Y-116794000D01*
G37*
X132376000Y-116794000D02*
X132122000Y-117556000D01*
X135678000Y-117556000D01*
X135932000Y-116794000D01*
X132376000Y-116794000D01*
G36*
X129074000Y-116032000D02*
G01*
X128820000Y-116794000D01*
X132376000Y-116794000D01*
X132630000Y-116032000D01*
X129074000Y-116032000D01*
G37*
X129074000Y-116032000D02*
X128820000Y-116794000D01*
X132376000Y-116794000D01*
X132630000Y-116032000D01*
X129074000Y-116032000D01*
G36*
X125264000Y-116794000D02*
G01*
X125010000Y-117556000D01*
X128566000Y-117556000D01*
X128820000Y-116794000D01*
X125264000Y-116794000D01*
G37*
X125264000Y-116794000D02*
X125010000Y-117556000D01*
X128566000Y-117556000D01*
X128820000Y-116794000D01*
X125264000Y-116794000D01*
D10*
X125840000Y-88900000D02*
X117966000Y-88900000D01*
X125840000Y-76200000D02*
X125840000Y-88900000D01*
X117966000Y-76200000D02*
X125840000Y-76200000D01*
X117966000Y-88900000D02*
X117966000Y-76200000D01*
X124570000Y-88392000D02*
X124570000Y-87376000D01*
X125078000Y-77216000D02*
X124062000Y-77216000D01*
X124570000Y-76708000D02*
X124570000Y-77724000D01*
X125840000Y-108900000D02*
X117966000Y-108900000D01*
X125840000Y-96200000D02*
X125840000Y-108900000D01*
X117966000Y-96200000D02*
X125840000Y-96200000D01*
X117966000Y-108900000D02*
X117966000Y-96200000D01*
X124570000Y-108392000D02*
X124570000Y-107376000D01*
X125078000Y-97216000D02*
X124062000Y-97216000D01*
X124570000Y-96708000D02*
X124570000Y-97724000D01*
D13*
X163200000Y-83200000D02*
X163200000Y-89300000D01*
X169300000Y-83200000D02*
X169300000Y-89300000D01*
X163200000Y-72300000D02*
X163200000Y-78400000D01*
X169300000Y-72300000D02*
X169300000Y-78400000D01*
X125845000Y-74530000D02*
X125845000Y-71470000D01*
X134330000Y-69870000D02*
X134330000Y-71115000D01*
X127170000Y-69870000D02*
X134330000Y-69870000D01*
X127170000Y-76130000D02*
X127170000Y-74885000D01*
X134330000Y-76130000D02*
X127170000Y-76130000D01*
X134330000Y-74885000D02*
X134330000Y-76130000D01*
X127170000Y-71115000D02*
X127170000Y-69870000D01*
X147405000Y-97420000D02*
X147405000Y-100480000D01*
X138920000Y-102080000D02*
X138920000Y-100835000D01*
X146080000Y-102080000D02*
X138920000Y-102080000D01*
X146080000Y-95820000D02*
X146080000Y-97065000D01*
X138920000Y-95820000D02*
X146080000Y-95820000D01*
X138920000Y-97065000D02*
X138920000Y-95820000D01*
X146080000Y-100835000D02*
X146080000Y-102080000D01*
D12*
X176370000Y-84855000D02*
X177630000Y-84855000D01*
X176320000Y-85955000D02*
X176320000Y-86545000D01*
X177680000Y-85955000D02*
X177680000Y-86545000D01*
X177630000Y-76745000D02*
X176370000Y-76745000D01*
X177680000Y-75645000D02*
X177680000Y-75055000D01*
X176320000Y-75645000D02*
X176320000Y-75055000D01*
X173795000Y-114720000D02*
X173795000Y-115980000D01*
X172695000Y-114670000D02*
X172105000Y-114670000D01*
X172695000Y-116030000D02*
X172105000Y-116030000D01*
X166995000Y-114720000D02*
X166995000Y-115980000D01*
X165895000Y-114670000D02*
X165305000Y-114670000D01*
X165895000Y-116030000D02*
X165305000Y-116030000D01*
D13*
X135800000Y-91430000D02*
X136400000Y-91430000D01*
X129800000Y-91430000D02*
X129800000Y-91250000D01*
X135800000Y-91430000D02*
X129800000Y-91430000D01*
X129800000Y-86170000D02*
X129800000Y-86350000D01*
X135800000Y-86170000D02*
X129800000Y-86170000D01*
X135800000Y-86350000D02*
X135800000Y-86170000D01*
X135800000Y-82930000D02*
X136400000Y-82930000D01*
X129800000Y-82930000D02*
X129800000Y-82750000D01*
X135800000Y-82930000D02*
X129800000Y-82930000D01*
X129800000Y-77670000D02*
X129800000Y-77850000D01*
X135800000Y-77670000D02*
X129800000Y-77670000D01*
X135800000Y-77850000D02*
X135800000Y-77670000D01*
D11*
X159625000Y-110250000D02*
G75*
G03X159625000Y-110250000I-125000J0D01*
G01*
D10*
X160400000Y-106250000D02*
G75*
G03X160400000Y-106250000I-4900000J0D01*
G01*
D13*
X132550000Y-101520000D02*
X133985000Y-101520000D01*
X132550000Y-96550000D02*
X128550000Y-96550000D01*
X132550000Y-101550000D02*
X128550000Y-101550000D01*
X145550000Y-91270000D02*
X146985000Y-91270000D01*
X145550000Y-86300000D02*
X141550000Y-86300000D01*
X145550000Y-91300000D02*
X141550000Y-91300000D01*
D10*
X161890000Y-72270000D02*
X151730000Y-72270000D01*
X161890000Y-69730000D02*
X161890000Y-72270000D01*
X151730000Y-69730000D02*
X161890000Y-69730000D01*
X151730000Y-72270000D02*
X151730000Y-69730000D01*
X181020000Y-97690000D02*
X181020000Y-105310000D01*
X178480000Y-97690000D02*
X181020000Y-97690000D01*
X178480000Y-105310000D02*
X178480000Y-97690000D01*
X181020000Y-105310000D02*
X178480000Y-105310000D01*
X125100000Y-75270000D02*
X117480000Y-75270000D01*
X125100000Y-72730000D02*
X125100000Y-75270000D01*
X117480000Y-72730000D02*
X125100000Y-72730000D01*
X117480000Y-75270000D02*
X117480000Y-72730000D01*
X125150000Y-72020000D02*
X117530000Y-72020000D01*
X125150000Y-69480000D02*
X125150000Y-72020000D01*
X117530000Y-69480000D02*
X125150000Y-69480000D01*
X117530000Y-72020000D02*
X117530000Y-69480000D01*
D14*
X174734000Y-108275700D02*
X173231590Y-108275700D01*
X174734000Y-98623700D02*
X174734000Y-108275700D01*
X164066000Y-98623700D02*
X174734000Y-98623700D01*
X164066000Y-108275700D02*
X164066000Y-98623700D01*
X165568410Y-108275700D02*
X164066000Y-108275700D01*
D13*
X156740000Y-116400000D02*
X157720000Y-116400000D01*
X156740000Y-114700000D02*
X156740000Y-116400000D01*
X159760000Y-116400000D02*
X158780000Y-116400000D01*
X159760000Y-114700000D02*
X159760000Y-116400000D01*
X145550000Y-82770000D02*
X146985000Y-82770000D01*
X145550000Y-77800000D02*
X141550000Y-77800000D01*
X145550000Y-82800000D02*
X141550000Y-82800000D01*
X138130000Y-104850000D02*
X138130000Y-107250000D01*
X130050000Y-108300000D02*
X130050000Y-107635000D01*
X137050000Y-108300000D02*
X130050000Y-108300000D01*
X137050000Y-103800000D02*
X137050000Y-104465000D01*
X130050000Y-103800000D02*
X137050000Y-103800000D01*
X130050000Y-104465000D02*
X130050000Y-103800000D01*
X137050000Y-107635000D02*
X137050000Y-108300000D01*
D10*
X147720000Y-105765000D02*
X147720000Y-106135000D01*
X149080000Y-105765000D02*
X149080000Y-106135000D01*
X135520000Y-101265000D02*
X135520000Y-101635000D01*
X136880000Y-101265000D02*
X136880000Y-101635000D01*
X145365000Y-85230000D02*
X145735000Y-85230000D01*
X145365000Y-83870000D02*
X145735000Y-83870000D01*
X145365000Y-76730000D02*
X145735000Y-76730000D01*
X145365000Y-75370000D02*
X145735000Y-75370000D01*
X125280000Y-92735000D02*
X125280000Y-92365000D01*
X123920000Y-92735000D02*
X123920000Y-92365000D01*
X141365000Y-93730000D02*
X141735000Y-93730000D01*
X141365000Y-92370000D02*
X141735000Y-92370000D01*
X137785000Y-83870000D02*
X137415000Y-83870000D01*
X137785000Y-85230000D02*
X137415000Y-85230000D01*
X174185000Y-90570000D02*
X173815000Y-90570000D01*
X174185000Y-91930000D02*
X173815000Y-91930000D01*
X138000000Y-75370000D02*
X137630000Y-75370000D01*
X138000000Y-76730000D02*
X137630000Y-76730000D01*
X141365000Y-85230000D02*
X141735000Y-85230000D01*
X141365000Y-83870000D02*
X141735000Y-83870000D01*
D13*
X160050000Y-98860000D02*
X160050000Y-97840000D01*
X157350000Y-98860000D02*
X157350000Y-97840000D01*
X156250000Y-98860000D02*
X156250000Y-97840000D01*
X153550000Y-98860000D02*
X153550000Y-97840000D01*
X175790000Y-82700000D02*
X176210000Y-82700000D01*
X175790000Y-81300000D02*
X176210000Y-81300000D01*
X176210000Y-78800000D02*
X175790000Y-78800000D01*
X176210000Y-80200000D02*
X175790000Y-80200000D01*
X144990000Y-111250000D02*
X145410000Y-111250000D01*
X144990000Y-109850000D02*
X145410000Y-109850000D01*
X141210000Y-109850000D02*
X140790000Y-109850000D01*
X141210000Y-111250000D02*
X140790000Y-111250000D01*
X147700000Y-109640000D02*
X147700000Y-110060000D01*
X149100000Y-109640000D02*
X149100000Y-110060000D01*
X172290000Y-113740000D02*
X172710000Y-113740000D01*
X172290000Y-112340000D02*
X172710000Y-112340000D01*
X150310000Y-88750000D02*
X149890000Y-88750000D01*
X150310000Y-90150000D02*
X149890000Y-90150000D01*
X165390000Y-113850000D02*
X165810000Y-113850000D01*
X165390000Y-112450000D02*
X165810000Y-112450000D01*
X180950000Y-92710000D02*
X180950000Y-92290000D01*
X179550000Y-92710000D02*
X179550000Y-92290000D01*
X150310000Y-86250000D02*
X149890000Y-86250000D01*
X150310000Y-87650000D02*
X149890000Y-87650000D01*
X150310000Y-80250000D02*
X149890000Y-80250000D01*
X150310000Y-81650000D02*
X149890000Y-81650000D01*
X178200000Y-92710000D02*
X178200000Y-92290000D01*
X176800000Y-92710000D02*
X176800000Y-92290000D01*
X134965000Y-111150000D02*
X136235000Y-111150000D01*
X134965000Y-109350000D02*
X136235000Y-109350000D01*
X136185000Y-93900000D02*
X134915000Y-93900000D01*
X136185000Y-95700000D02*
X134915000Y-95700000D01*
X179635000Y-95100000D02*
X178365000Y-95100000D01*
X179635000Y-96900000D02*
X178365000Y-96900000D01*
X152400000Y-96750000D02*
X152400000Y-100950000D01*
X148200000Y-100950000D02*
X148200000Y-96750000D01*
X141110000Y-103960000D02*
X139675000Y-103960000D01*
X141110000Y-108930000D02*
X145110000Y-108930000D01*
X141110000Y-103930000D02*
X145110000Y-103930000D01*
X124047619Y-80288095D02*
X125047619Y-80288095D01*
X124333333Y-80621428D01*
X125047619Y-80954761D01*
X124047619Y-80954761D01*
X125047619Y-81621428D02*
X125047619Y-81811904D01*
X125000000Y-81907142D01*
X124904761Y-82002380D01*
X124714285Y-82050000D01*
X124380952Y-82050000D01*
X124190476Y-82002380D01*
X124095238Y-81907142D01*
X124047619Y-81811904D01*
X124047619Y-81621428D01*
X124095238Y-81526190D01*
X124190476Y-81430952D01*
X124380952Y-81383333D01*
X124714285Y-81383333D01*
X124904761Y-81430952D01*
X125000000Y-81526190D01*
X125047619Y-81621428D01*
X125047619Y-82335714D02*
X125047619Y-82907142D01*
X124047619Y-82621428D02*
X125047619Y-82621428D01*
X125047619Y-83430952D02*
X125047619Y-83621428D01*
X125000000Y-83716666D01*
X124904761Y-83811904D01*
X124714285Y-83859523D01*
X124380952Y-83859523D01*
X124190476Y-83811904D01*
X124095238Y-83716666D01*
X124047619Y-83621428D01*
X124047619Y-83430952D01*
X124095238Y-83335714D01*
X124190476Y-83240476D01*
X124380952Y-83192857D01*
X124714285Y-83192857D01*
X124904761Y-83240476D01*
X125000000Y-83335714D01*
X125047619Y-83430952D01*
X124047619Y-84859523D02*
X124523809Y-84526190D01*
X124047619Y-84288095D02*
X125047619Y-84288095D01*
X125047619Y-84669047D01*
X125000000Y-84764285D01*
X124952380Y-84811904D01*
X124857142Y-84859523D01*
X124714285Y-84859523D01*
X124619047Y-84811904D01*
X124571428Y-84764285D01*
X124523809Y-84669047D01*
X124523809Y-84288095D01*
X124571428Y-100000000D02*
X124523809Y-100142857D01*
X124476190Y-100190476D01*
X124380952Y-100238095D01*
X124238095Y-100238095D01*
X124142857Y-100190476D01*
X124095238Y-100142857D01*
X124047619Y-100047619D01*
X124047619Y-99666666D01*
X125047619Y-99666666D01*
X125047619Y-100000000D01*
X125000000Y-100095238D01*
X124952380Y-100142857D01*
X124857142Y-100190476D01*
X124761904Y-100190476D01*
X124666666Y-100142857D01*
X124619047Y-100095238D01*
X124571428Y-100000000D01*
X124571428Y-99666666D01*
X124333333Y-100619047D02*
X124333333Y-101095238D01*
X124047619Y-100523809D02*
X125047619Y-100857142D01*
X124047619Y-101190476D01*
X125047619Y-101380952D02*
X125047619Y-101952380D01*
X124047619Y-101666666D02*
X125047619Y-101666666D01*
X125047619Y-102142857D02*
X125047619Y-102714285D01*
X124047619Y-102428571D02*
X125047619Y-102428571D01*
X124571428Y-103047619D02*
X124571428Y-103380952D01*
X124047619Y-103523809D02*
X124047619Y-103047619D01*
X125047619Y-103047619D01*
X125047619Y-103523809D01*
X124047619Y-104523809D02*
X124523809Y-104190476D01*
X124047619Y-103952380D02*
X125047619Y-103952380D01*
X125047619Y-104333333D01*
X125000000Y-104428571D01*
X124952380Y-104476190D01*
X124857142Y-104523809D01*
X124714285Y-104523809D01*
X124619047Y-104476190D01*
X124571428Y-104428571D01*
X124523809Y-104333333D01*
X124523809Y-103952380D01*
X124523809Y-105142857D02*
X124047619Y-105142857D01*
X125047619Y-104809523D02*
X124523809Y-105142857D01*
X125047619Y-105476190D01*
X155738095Y-87452380D02*
X156309523Y-87452380D01*
X156023809Y-88452380D02*
X156023809Y-87452380D01*
X156642857Y-88452380D02*
X156642857Y-87452380D01*
X157023809Y-87452380D01*
X157119047Y-87500000D01*
X157166666Y-87547619D01*
X157214285Y-87642857D01*
X157214285Y-87785714D01*
X157166666Y-87880952D01*
X157119047Y-87928571D01*
X157023809Y-87976190D01*
X156642857Y-87976190D01*
X158071428Y-87452380D02*
X157880952Y-87452380D01*
X157785714Y-87500000D01*
X157738095Y-87547619D01*
X157642857Y-87690476D01*
X157595238Y-87880952D01*
X157595238Y-88261904D01*
X157642857Y-88357142D01*
X157690476Y-88404761D01*
X157785714Y-88452380D01*
X157976190Y-88452380D01*
X158071428Y-88404761D01*
X158119047Y-88357142D01*
X158166666Y-88261904D01*
X158166666Y-88023809D01*
X158119047Y-87928571D01*
X158071428Y-87880952D01*
X157976190Y-87833333D01*
X157785714Y-87833333D01*
X157690476Y-87880952D01*
X157642857Y-87928571D01*
X157595238Y-88023809D01*
X155738095Y-84952380D02*
X156309523Y-84952380D01*
X156023809Y-85952380D02*
X156023809Y-84952380D01*
X156642857Y-85952380D02*
X156642857Y-84952380D01*
X157023809Y-84952380D01*
X157119047Y-85000000D01*
X157166666Y-85047619D01*
X157214285Y-85142857D01*
X157214285Y-85285714D01*
X157166666Y-85380952D01*
X157119047Y-85428571D01*
X157023809Y-85476190D01*
X156642857Y-85476190D01*
X158119047Y-84952380D02*
X157642857Y-84952380D01*
X157595238Y-85428571D01*
X157642857Y-85380952D01*
X157738095Y-85333333D01*
X157976190Y-85333333D01*
X158071428Y-85380952D01*
X158119047Y-85428571D01*
X158166666Y-85523809D01*
X158166666Y-85761904D01*
X158119047Y-85857142D01*
X158071428Y-85904761D01*
X157976190Y-85952380D01*
X157738095Y-85952380D01*
X157642857Y-85904761D01*
X157595238Y-85857142D01*
X155738095Y-82452380D02*
X156309523Y-82452380D01*
X156023809Y-83452380D02*
X156023809Y-82452380D01*
X156642857Y-83452380D02*
X156642857Y-82452380D01*
X157023809Y-82452380D01*
X157119047Y-82500000D01*
X157166666Y-82547619D01*
X157214285Y-82642857D01*
X157214285Y-82785714D01*
X157166666Y-82880952D01*
X157119047Y-82928571D01*
X157023809Y-82976190D01*
X156642857Y-82976190D01*
X158071428Y-82785714D02*
X158071428Y-83452380D01*
X157833333Y-82404761D02*
X157595238Y-83119047D01*
X158214285Y-83119047D01*
X155738095Y-79952380D02*
X156309523Y-79952380D01*
X156023809Y-80952380D02*
X156023809Y-79952380D01*
X156642857Y-80952380D02*
X156642857Y-79952380D01*
X157023809Y-79952380D01*
X157119047Y-80000000D01*
X157166666Y-80047619D01*
X157214285Y-80142857D01*
X157214285Y-80285714D01*
X157166666Y-80380952D01*
X157119047Y-80428571D01*
X157023809Y-80476190D01*
X156642857Y-80476190D01*
X157547619Y-79952380D02*
X158166666Y-79952380D01*
X157833333Y-80333333D01*
X157976190Y-80333333D01*
X158071428Y-80380952D01*
X158119047Y-80428571D01*
X158166666Y-80523809D01*
X158166666Y-80761904D01*
X158119047Y-80857142D01*
X158071428Y-80904761D01*
X157976190Y-80952380D01*
X157690476Y-80952380D01*
X157595238Y-80904761D01*
X157547619Y-80857142D01*
X178738095Y-109452380D02*
X179309523Y-109452380D01*
X179023809Y-110452380D02*
X179023809Y-109452380D01*
X179642857Y-110452380D02*
X179642857Y-109452380D01*
X180023809Y-109452380D01*
X180119047Y-109500000D01*
X180166666Y-109547619D01*
X180214285Y-109642857D01*
X180214285Y-109785714D01*
X180166666Y-109880952D01*
X180119047Y-109928571D01*
X180023809Y-109976190D01*
X179642857Y-109976190D01*
X180595238Y-109547619D02*
X180642857Y-109500000D01*
X180738095Y-109452380D01*
X180976190Y-109452380D01*
X181071428Y-109500000D01*
X181119047Y-109547619D01*
X181166666Y-109642857D01*
X181166666Y-109738095D01*
X181119047Y-109880952D01*
X180547619Y-110452380D01*
X181166666Y-110452380D01*
X178738095Y-106452380D02*
X179309523Y-106452380D01*
X179023809Y-107452380D02*
X179023809Y-106452380D01*
X179642857Y-107452380D02*
X179642857Y-106452380D01*
X180023809Y-106452380D01*
X180119047Y-106500000D01*
X180166666Y-106547619D01*
X180214285Y-106642857D01*
X180214285Y-106785714D01*
X180166666Y-106880952D01*
X180119047Y-106928571D01*
X180023809Y-106976190D01*
X179642857Y-106976190D01*
X181166666Y-107452380D02*
X180595238Y-107452380D01*
X180880952Y-107452380D02*
X180880952Y-106452380D01*
X180785714Y-106595238D01*
X180690476Y-106690476D01*
X180595238Y-106738095D01*
D10*
X150881428Y-73666666D02*
X151357619Y-73666666D01*
X150786190Y-73952380D02*
X151119523Y-72952380D01*
X151452857Y-73952380D01*
X152357619Y-73857142D02*
X152310000Y-73904761D01*
X152167142Y-73952380D01*
X152071904Y-73952380D01*
X151929047Y-73904761D01*
X151833809Y-73809523D01*
X151786190Y-73714285D01*
X151738571Y-73523809D01*
X151738571Y-73380952D01*
X151786190Y-73190476D01*
X151833809Y-73095238D01*
X151929047Y-73000000D01*
X152071904Y-72952380D01*
X152167142Y-72952380D01*
X152310000Y-73000000D01*
X152357619Y-73047619D01*
X153357619Y-73857142D02*
X153310000Y-73904761D01*
X153167142Y-73952380D01*
X153071904Y-73952380D01*
X152929047Y-73904761D01*
X152833809Y-73809523D01*
X152786190Y-73714285D01*
X152738571Y-73523809D01*
X152738571Y-73380952D01*
X152786190Y-73190476D01*
X152833809Y-73095238D01*
X152929047Y-73000000D01*
X153071904Y-72952380D01*
X153167142Y-72952380D01*
X153310000Y-73000000D01*
X153357619Y-73047619D01*
X153786190Y-73428571D02*
X154119523Y-73428571D01*
X154262380Y-73952380D02*
X153786190Y-73952380D01*
X153786190Y-72952380D01*
X154262380Y-72952380D01*
X155167142Y-73952380D02*
X154690952Y-73952380D01*
X154690952Y-72952380D01*
X155500476Y-73428571D02*
X155833809Y-73428571D01*
X155976666Y-73952380D02*
X155500476Y-73952380D01*
X155500476Y-72952380D01*
X155976666Y-72952380D01*
X156976666Y-73952380D02*
X156643333Y-73476190D01*
X156405238Y-73952380D02*
X156405238Y-72952380D01*
X156786190Y-72952380D01*
X156881428Y-73000000D01*
X156929047Y-73047619D01*
X156976666Y-73142857D01*
X156976666Y-73285714D01*
X156929047Y-73380952D01*
X156881428Y-73428571D01*
X156786190Y-73476190D01*
X156405238Y-73476190D01*
X157595714Y-72952380D02*
X157786190Y-72952380D01*
X157881428Y-73000000D01*
X157976666Y-73095238D01*
X158024285Y-73285714D01*
X158024285Y-73619047D01*
X157976666Y-73809523D01*
X157881428Y-73904761D01*
X157786190Y-73952380D01*
X157595714Y-73952380D01*
X157500476Y-73904761D01*
X157405238Y-73809523D01*
X157357619Y-73619047D01*
X157357619Y-73285714D01*
X157405238Y-73095238D01*
X157500476Y-73000000D01*
X157595714Y-72952380D01*
X158452857Y-73952380D02*
X158452857Y-72952380D01*
X158786190Y-73666666D01*
X159119523Y-72952380D01*
X159119523Y-73952380D01*
X159595714Y-73428571D02*
X159929047Y-73428571D01*
X160071904Y-73952380D02*
X159595714Y-73952380D01*
X159595714Y-72952380D01*
X160071904Y-72952380D01*
X160357619Y-72952380D02*
X160929047Y-72952380D01*
X160643333Y-73952380D02*
X160643333Y-72952380D01*
X161262380Y-73428571D02*
X161595714Y-73428571D01*
X161738571Y-73952380D02*
X161262380Y-73952380D01*
X161262380Y-72952380D01*
X161738571Y-72952380D01*
X162738571Y-73952380D02*
X162405238Y-73476190D01*
X162167142Y-73952380D02*
X162167142Y-72952380D01*
X162548095Y-72952380D01*
X162643333Y-73000000D01*
X162690952Y-73047619D01*
X162738571Y-73142857D01*
X162738571Y-73285714D01*
X162690952Y-73380952D01*
X162643333Y-73428571D01*
X162548095Y-73476190D01*
X162167142Y-73476190D01*
X177985714Y-104378571D02*
X178042857Y-104207142D01*
X178042857Y-103921428D01*
X177985714Y-103807142D01*
X177928571Y-103750000D01*
X177814285Y-103692857D01*
X177700000Y-103692857D01*
X177585714Y-103750000D01*
X177528571Y-103807142D01*
X177471428Y-103921428D01*
X177414285Y-104150000D01*
X177357142Y-104264285D01*
X177300000Y-104321428D01*
X177185714Y-104378571D01*
X177071428Y-104378571D01*
X176957142Y-104321428D01*
X176900000Y-104264285D01*
X176842857Y-104150000D01*
X176842857Y-103864285D01*
X176900000Y-103692857D01*
X177414285Y-103178571D02*
X177414285Y-102778571D01*
X178042857Y-102607142D02*
X178042857Y-103178571D01*
X176842857Y-103178571D01*
X176842857Y-102607142D01*
X178042857Y-101407142D02*
X177471428Y-101807142D01*
X178042857Y-102092857D02*
X176842857Y-102092857D01*
X176842857Y-101635714D01*
X176900000Y-101521428D01*
X176957142Y-101464285D01*
X177071428Y-101407142D01*
X177242857Y-101407142D01*
X177357142Y-101464285D01*
X177414285Y-101521428D01*
X177471428Y-101635714D01*
X177471428Y-102092857D01*
X176842857Y-101064285D02*
X178042857Y-100664285D01*
X176842857Y-100264285D01*
X176842857Y-99635714D02*
X176842857Y-99407142D01*
X176900000Y-99292857D01*
X177014285Y-99178571D01*
X177242857Y-99121428D01*
X177642857Y-99121428D01*
X177871428Y-99178571D01*
X177985714Y-99292857D01*
X178042857Y-99407142D01*
X178042857Y-99635714D01*
X177985714Y-99750000D01*
X177871428Y-99864285D01*
X177642857Y-99921428D01*
X177242857Y-99921428D01*
X177014285Y-99864285D01*
X176900000Y-99750000D01*
X176842857Y-99635714D01*
M02*
