G04 #@! TF.GenerationSoftware,KiCad,Pcbnew,(5.1.2-1)-1*
G04 #@! TF.CreationDate,2019-07-25T00:26:34-07:00*
G04 #@! TF.ProjectId,first_design,66697273-745f-4646-9573-69676e2e6b69,rev?*
G04 #@! TF.SameCoordinates,Original*
G04 #@! TF.FileFunction,Copper,L1,Top*
G04 #@! TF.FilePolarity,Positive*
%FSLAX46Y46*%
G04 Gerber Fmt 4.6, Leading zero omitted, Abs format (unit mm)*
G04 Created by KiCad (PCBNEW (5.1.2-1)-1) date 2019-07-25 00:26:34*
%MOMM*%
%LPD*%
G04 APERTURE LIST*
%ADD10C,0.100000*%
%ADD11C,4.930000*%
%ADD12C,1.530000*%
%ADD13C,3.420000*%
%ADD14C,0.680000*%
%ADD15R,1.430000X1.700000*%
%ADD16C,1.700000*%
%ADD17R,1.920000X1.260000*%
%ADD18R,1.324000X1.324000*%
%ADD19R,3.050000X2.410000*%
%ADD20C,0.670000*%
%ADD21C,1.260000*%
%ADD22R,0.620000X1.350000*%
%ADD23R,1.260000X1.920000*%
%ADD24R,1.676400X1.676400*%
%ADD25C,1.676400*%
%ADD26R,0.820000X1.730000*%
%ADD27R,4.229999X4.169999*%
%ADD28R,2.150000X2.160000*%
%ADD29R,2.100000X2.100000*%
%ADD30C,2.100000*%
%ADD31R,1.650000X1.650000*%
%ADD32C,1.650000*%
%ADD33R,4.630000X4.670000*%
%ADD34R,0.620000X0.970000*%
%ADD35C,1.800000*%
%ADD36R,1.350000X0.620000*%
%ADD37C,0.800000*%
%ADD38C,0.250000*%
%ADD39C,0.400000*%
%ADD40C,0.783000*%
%ADD41C,2.000000*%
%ADD42C,0.254000*%
%ADD43C,0.208000*%
G04 APERTURE END LIST*
D10*
G36*
X13683215Y6963789D02*
G01*
X13707622Y6960169D01*
X13731557Y6954174D01*
X13754789Y6945861D01*
X13777094Y6935312D01*
X13798257Y6922627D01*
X13818076Y6907928D01*
X13836358Y6891358D01*
X13852928Y6873076D01*
X13867627Y6853257D01*
X13880312Y6832094D01*
X13890861Y6809789D01*
X13899174Y6786557D01*
X13905169Y6762622D01*
X13908789Y6738215D01*
X13910000Y6713571D01*
X13910000Y2286429D01*
X13908789Y2261785D01*
X13905169Y2237378D01*
X13899174Y2213443D01*
X13890861Y2190211D01*
X13880312Y2167906D01*
X13867627Y2146743D01*
X13852928Y2126924D01*
X13836358Y2108642D01*
X13818076Y2092072D01*
X13798257Y2077373D01*
X13777094Y2064688D01*
X13754789Y2054139D01*
X13731557Y2045826D01*
X13707622Y2039831D01*
X13683215Y2036211D01*
X13658571Y2035000D01*
X8041429Y2035000D01*
X8016785Y2036211D01*
X7992378Y2039831D01*
X7968443Y2045826D01*
X7945211Y2054139D01*
X7922906Y2064688D01*
X7901743Y2077373D01*
X7881924Y2092072D01*
X7863642Y2108642D01*
X7847072Y2126924D01*
X7832373Y2146743D01*
X7819688Y2167906D01*
X7809139Y2190211D01*
X7800826Y2213443D01*
X7794831Y2237378D01*
X7791211Y2261785D01*
X7790000Y2286429D01*
X7790000Y6713571D01*
X7791211Y6738215D01*
X7794831Y6762622D01*
X7800826Y6786557D01*
X7809139Y6809789D01*
X7819688Y6832094D01*
X7832373Y6853257D01*
X7847072Y6873076D01*
X7863642Y6891358D01*
X7881924Y6907928D01*
X7901743Y6922627D01*
X7922906Y6935312D01*
X7945211Y6945861D01*
X7968443Y6954174D01*
X7992378Y6960169D01*
X8016785Y6963789D01*
X8041429Y6965000D01*
X13658571Y6965000D01*
X13683215Y6963789D01*
X13683215Y6963789D01*
G37*
D11*
X10850000Y4500000D03*
D10*
G36*
X19025054Y7549799D02*
G01*
X19049264Y7546208D01*
X19073004Y7540261D01*
X19096047Y7532016D01*
X19118172Y7521552D01*
X19139164Y7508970D01*
X19158821Y7494391D01*
X19176955Y7477955D01*
X19193391Y7459821D01*
X19207970Y7440164D01*
X19220552Y7419172D01*
X19231016Y7397047D01*
X19239261Y7374004D01*
X19245208Y7350264D01*
X19248799Y7326054D01*
X19250000Y7301610D01*
X19250000Y6270390D01*
X19248799Y6245946D01*
X19245208Y6221736D01*
X19239261Y6197996D01*
X19231016Y6174953D01*
X19220552Y6152828D01*
X19207970Y6131836D01*
X19193391Y6112179D01*
X19176955Y6094045D01*
X19158821Y6077609D01*
X19139164Y6063030D01*
X19118172Y6050448D01*
X19096047Y6039984D01*
X19073004Y6031739D01*
X19049264Y6025792D01*
X19025054Y6022201D01*
X19000610Y6021000D01*
X16459390Y6021000D01*
X16434946Y6022201D01*
X16410736Y6025792D01*
X16386996Y6031739D01*
X16363953Y6039984D01*
X16341828Y6050448D01*
X16320836Y6063030D01*
X16301179Y6077609D01*
X16283045Y6094045D01*
X16266609Y6112179D01*
X16252030Y6131836D01*
X16239448Y6152828D01*
X16228984Y6174953D01*
X16220739Y6197996D01*
X16214792Y6221736D01*
X16211201Y6245946D01*
X16210000Y6270390D01*
X16210000Y7301610D01*
X16211201Y7326054D01*
X16214792Y7350264D01*
X16220739Y7374004D01*
X16228984Y7397047D01*
X16239448Y7419172D01*
X16252030Y7440164D01*
X16266609Y7459821D01*
X16283045Y7477955D01*
X16301179Y7494391D01*
X16320836Y7508970D01*
X16341828Y7521552D01*
X16363953Y7532016D01*
X16386996Y7540261D01*
X16410736Y7546208D01*
X16434946Y7549799D01*
X16459390Y7551000D01*
X19000610Y7551000D01*
X19025054Y7549799D01*
X19025054Y7549799D01*
G37*
D12*
X17730000Y6786000D03*
D10*
G36*
X19024503Y2977796D02*
G01*
X19048772Y2974196D01*
X19072570Y2968235D01*
X19095670Y2959970D01*
X19117849Y2949480D01*
X19138892Y2936867D01*
X19158598Y2922252D01*
X19176776Y2905776D01*
X19193252Y2887598D01*
X19207867Y2867892D01*
X19220480Y2846849D01*
X19230970Y2824670D01*
X19239235Y2801570D01*
X19245196Y2777772D01*
X19248796Y2753503D01*
X19250000Y2728999D01*
X19250000Y1699001D01*
X19248796Y1674497D01*
X19245196Y1650228D01*
X19239235Y1626430D01*
X19230970Y1603330D01*
X19220480Y1581151D01*
X19207867Y1560108D01*
X19193252Y1540402D01*
X19176776Y1522224D01*
X19158598Y1505748D01*
X19138892Y1491133D01*
X19117849Y1478520D01*
X19095670Y1468030D01*
X19072570Y1459765D01*
X19048772Y1453804D01*
X19024503Y1450204D01*
X18999999Y1449000D01*
X16460001Y1449000D01*
X16435497Y1450204D01*
X16411228Y1453804D01*
X16387430Y1459765D01*
X16364330Y1468030D01*
X16342151Y1478520D01*
X16321108Y1491133D01*
X16301402Y1505748D01*
X16283224Y1522224D01*
X16266748Y1540402D01*
X16252133Y1560108D01*
X16239520Y1581151D01*
X16229030Y1603330D01*
X16220765Y1626430D01*
X16214804Y1650228D01*
X16211204Y1674497D01*
X16210000Y1699001D01*
X16210000Y2728999D01*
X16211204Y2753503D01*
X16214804Y2777772D01*
X16220765Y2801570D01*
X16229030Y2824670D01*
X16239520Y2846849D01*
X16252133Y2867892D01*
X16266748Y2887598D01*
X16283224Y2905776D01*
X16301402Y2922252D01*
X16321108Y2936867D01*
X16342151Y2949480D01*
X16364330Y2959970D01*
X16387430Y2968235D01*
X16411228Y2974196D01*
X16435497Y2977796D01*
X16460001Y2979000D01*
X18999999Y2979000D01*
X19024503Y2977796D01*
X19024503Y2977796D01*
G37*
D12*
X17730000Y2214000D03*
D10*
G36*
X28439502Y40703796D02*
G01*
X28463771Y40700196D01*
X28487570Y40694235D01*
X28510670Y40685970D01*
X28532848Y40675480D01*
X28553892Y40662867D01*
X28573598Y40648252D01*
X28591776Y40631776D01*
X28608252Y40613598D01*
X28622867Y40593892D01*
X28635480Y40572848D01*
X28645970Y40550670D01*
X28654235Y40527570D01*
X28660196Y40503771D01*
X28663796Y40479502D01*
X28665000Y40454998D01*
X28665000Y32545002D01*
X28663796Y32520498D01*
X28660196Y32496229D01*
X28654235Y32472430D01*
X28645970Y32449330D01*
X28635480Y32427152D01*
X28622867Y32406108D01*
X28608252Y32386402D01*
X28591776Y32368224D01*
X28573598Y32351748D01*
X28553892Y32337133D01*
X28532848Y32324520D01*
X28510670Y32314030D01*
X28487570Y32305765D01*
X28463771Y32299804D01*
X28439502Y32296204D01*
X28414998Y32295000D01*
X25495002Y32295000D01*
X25470498Y32296204D01*
X25446229Y32299804D01*
X25422430Y32305765D01*
X25399330Y32314030D01*
X25377152Y32324520D01*
X25356108Y32337133D01*
X25336402Y32351748D01*
X25318224Y32368224D01*
X25301748Y32386402D01*
X25287133Y32406108D01*
X25274520Y32427152D01*
X25264030Y32449330D01*
X25255765Y32472430D01*
X25249804Y32496229D01*
X25246204Y32520498D01*
X25245000Y32545002D01*
X25245000Y40454998D01*
X25246204Y40479502D01*
X25249804Y40503771D01*
X25255765Y40527570D01*
X25264030Y40550670D01*
X25274520Y40572848D01*
X25287133Y40593892D01*
X25301748Y40613598D01*
X25318224Y40631776D01*
X25336402Y40648252D01*
X25356108Y40662867D01*
X25377152Y40675480D01*
X25399330Y40685970D01*
X25422430Y40694235D01*
X25446229Y40700196D01*
X25470498Y40703796D01*
X25495002Y40705000D01*
X28414998Y40705000D01*
X28439502Y40703796D01*
X28439502Y40703796D01*
G37*
D13*
X26955000Y36500000D03*
D10*
G36*
X34529502Y40703796D02*
G01*
X34553771Y40700196D01*
X34577570Y40694235D01*
X34600670Y40685970D01*
X34622848Y40675480D01*
X34643892Y40662867D01*
X34663598Y40648252D01*
X34681776Y40631776D01*
X34698252Y40613598D01*
X34712867Y40593892D01*
X34725480Y40572848D01*
X34735970Y40550670D01*
X34744235Y40527570D01*
X34750196Y40503771D01*
X34753796Y40479502D01*
X34755000Y40454998D01*
X34755000Y32545002D01*
X34753796Y32520498D01*
X34750196Y32496229D01*
X34744235Y32472430D01*
X34735970Y32449330D01*
X34725480Y32427152D01*
X34712867Y32406108D01*
X34698252Y32386402D01*
X34681776Y32368224D01*
X34663598Y32351748D01*
X34643892Y32337133D01*
X34622848Y32324520D01*
X34600670Y32314030D01*
X34577570Y32305765D01*
X34553771Y32299804D01*
X34529502Y32296204D01*
X34504998Y32295000D01*
X31585002Y32295000D01*
X31560498Y32296204D01*
X31536229Y32299804D01*
X31512430Y32305765D01*
X31489330Y32314030D01*
X31467152Y32324520D01*
X31446108Y32337133D01*
X31426402Y32351748D01*
X31408224Y32368224D01*
X31391748Y32386402D01*
X31377133Y32406108D01*
X31364520Y32427152D01*
X31354030Y32449330D01*
X31345765Y32472430D01*
X31339804Y32496229D01*
X31336204Y32520498D01*
X31335000Y32545002D01*
X31335000Y40454998D01*
X31336204Y40479502D01*
X31339804Y40503771D01*
X31345765Y40527570D01*
X31354030Y40550670D01*
X31364520Y40572848D01*
X31377133Y40593892D01*
X31391748Y40613598D01*
X31408224Y40631776D01*
X31426402Y40648252D01*
X31446108Y40662867D01*
X31467152Y40675480D01*
X31489330Y40685970D01*
X31512430Y40694235D01*
X31536229Y40700196D01*
X31560498Y40703796D01*
X31585002Y40705000D01*
X34504998Y40705000D01*
X34529502Y40703796D01*
X34529502Y40703796D01*
G37*
D13*
X33045000Y36500000D03*
D10*
G36*
X15013577Y32725024D02*
G01*
X15030079Y32722576D01*
X15046262Y32718523D01*
X15061970Y32712903D01*
X15077051Y32705770D01*
X15091361Y32697193D01*
X15104761Y32687255D01*
X15117122Y32676051D01*
X15128326Y32663690D01*
X15138264Y32650290D01*
X15146841Y32635980D01*
X15153974Y32620899D01*
X15159594Y32605191D01*
X15163647Y32589008D01*
X15166095Y32572506D01*
X15166914Y32555843D01*
X15166914Y32215843D01*
X15166095Y32199180D01*
X15163647Y32182678D01*
X15159594Y32166495D01*
X15153974Y32150787D01*
X15146841Y32135706D01*
X15138264Y32121396D01*
X15128326Y32107996D01*
X15117122Y32095635D01*
X15104761Y32084431D01*
X15091361Y32074493D01*
X15077051Y32065916D01*
X15061970Y32058783D01*
X15046262Y32053163D01*
X15030079Y32049110D01*
X15013577Y32046662D01*
X14996914Y32045843D01*
X13166914Y32045843D01*
X13150251Y32046662D01*
X13133749Y32049110D01*
X13117566Y32053163D01*
X13101858Y32058783D01*
X13086777Y32065916D01*
X13072467Y32074493D01*
X13059067Y32084431D01*
X13046706Y32095635D01*
X13035502Y32107996D01*
X13025564Y32121396D01*
X13016987Y32135706D01*
X13009854Y32150787D01*
X13004234Y32166495D01*
X13000181Y32182678D01*
X12997733Y32199180D01*
X12996914Y32215843D01*
X12996914Y32555843D01*
X12997733Y32572506D01*
X13000181Y32589008D01*
X13004234Y32605191D01*
X13009854Y32620899D01*
X13016987Y32635980D01*
X13025564Y32650290D01*
X13035502Y32663690D01*
X13046706Y32676051D01*
X13059067Y32687255D01*
X13072467Y32697193D01*
X13086777Y32705770D01*
X13101858Y32712903D01*
X13117566Y32718523D01*
X13133749Y32722576D01*
X13150251Y32725024D01*
X13166914Y32725843D01*
X14996914Y32725843D01*
X15013577Y32725024D01*
X15013577Y32725024D01*
G37*
D14*
X14081914Y32385843D03*
D10*
G36*
X15013577Y33995024D02*
G01*
X15030079Y33992576D01*
X15046262Y33988523D01*
X15061970Y33982903D01*
X15077051Y33975770D01*
X15091361Y33967193D01*
X15104761Y33957255D01*
X15117122Y33946051D01*
X15128326Y33933690D01*
X15138264Y33920290D01*
X15146841Y33905980D01*
X15153974Y33890899D01*
X15159594Y33875191D01*
X15163647Y33859008D01*
X15166095Y33842506D01*
X15166914Y33825843D01*
X15166914Y33485843D01*
X15166095Y33469180D01*
X15163647Y33452678D01*
X15159594Y33436495D01*
X15153974Y33420787D01*
X15146841Y33405706D01*
X15138264Y33391396D01*
X15128326Y33377996D01*
X15117122Y33365635D01*
X15104761Y33354431D01*
X15091361Y33344493D01*
X15077051Y33335916D01*
X15061970Y33328783D01*
X15046262Y33323163D01*
X15030079Y33319110D01*
X15013577Y33316662D01*
X14996914Y33315843D01*
X13166914Y33315843D01*
X13150251Y33316662D01*
X13133749Y33319110D01*
X13117566Y33323163D01*
X13101858Y33328783D01*
X13086777Y33335916D01*
X13072467Y33344493D01*
X13059067Y33354431D01*
X13046706Y33365635D01*
X13035502Y33377996D01*
X13025564Y33391396D01*
X13016987Y33405706D01*
X13009854Y33420787D01*
X13004234Y33436495D01*
X13000181Y33452678D01*
X12997733Y33469180D01*
X12996914Y33485843D01*
X12996914Y33825843D01*
X12997733Y33842506D01*
X13000181Y33859008D01*
X13004234Y33875191D01*
X13009854Y33890899D01*
X13016987Y33905980D01*
X13025564Y33920290D01*
X13035502Y33933690D01*
X13046706Y33946051D01*
X13059067Y33957255D01*
X13072467Y33967193D01*
X13086777Y33975770D01*
X13101858Y33982903D01*
X13117566Y33988523D01*
X13133749Y33992576D01*
X13150251Y33995024D01*
X13166914Y33995843D01*
X14996914Y33995843D01*
X15013577Y33995024D01*
X15013577Y33995024D01*
G37*
D14*
X14081914Y33655843D03*
D10*
G36*
X15013577Y35265024D02*
G01*
X15030079Y35262576D01*
X15046262Y35258523D01*
X15061970Y35252903D01*
X15077051Y35245770D01*
X15091361Y35237193D01*
X15104761Y35227255D01*
X15117122Y35216051D01*
X15128326Y35203690D01*
X15138264Y35190290D01*
X15146841Y35175980D01*
X15153974Y35160899D01*
X15159594Y35145191D01*
X15163647Y35129008D01*
X15166095Y35112506D01*
X15166914Y35095843D01*
X15166914Y34755843D01*
X15166095Y34739180D01*
X15163647Y34722678D01*
X15159594Y34706495D01*
X15153974Y34690787D01*
X15146841Y34675706D01*
X15138264Y34661396D01*
X15128326Y34647996D01*
X15117122Y34635635D01*
X15104761Y34624431D01*
X15091361Y34614493D01*
X15077051Y34605916D01*
X15061970Y34598783D01*
X15046262Y34593163D01*
X15030079Y34589110D01*
X15013577Y34586662D01*
X14996914Y34585843D01*
X13166914Y34585843D01*
X13150251Y34586662D01*
X13133749Y34589110D01*
X13117566Y34593163D01*
X13101858Y34598783D01*
X13086777Y34605916D01*
X13072467Y34614493D01*
X13059067Y34624431D01*
X13046706Y34635635D01*
X13035502Y34647996D01*
X13025564Y34661396D01*
X13016987Y34675706D01*
X13009854Y34690787D01*
X13004234Y34706495D01*
X13000181Y34722678D01*
X12997733Y34739180D01*
X12996914Y34755843D01*
X12996914Y35095843D01*
X12997733Y35112506D01*
X13000181Y35129008D01*
X13004234Y35145191D01*
X13009854Y35160899D01*
X13016987Y35175980D01*
X13025564Y35190290D01*
X13035502Y35203690D01*
X13046706Y35216051D01*
X13059067Y35227255D01*
X13072467Y35237193D01*
X13086777Y35245770D01*
X13101858Y35252903D01*
X13117566Y35258523D01*
X13133749Y35262576D01*
X13150251Y35265024D01*
X13166914Y35265843D01*
X14996914Y35265843D01*
X15013577Y35265024D01*
X15013577Y35265024D01*
G37*
D14*
X14081914Y34925843D03*
D10*
G36*
X15013577Y36535024D02*
G01*
X15030079Y36532576D01*
X15046262Y36528523D01*
X15061970Y36522903D01*
X15077051Y36515770D01*
X15091361Y36507193D01*
X15104761Y36497255D01*
X15117122Y36486051D01*
X15128326Y36473690D01*
X15138264Y36460290D01*
X15146841Y36445980D01*
X15153974Y36430899D01*
X15159594Y36415191D01*
X15163647Y36399008D01*
X15166095Y36382506D01*
X15166914Y36365843D01*
X15166914Y36025843D01*
X15166095Y36009180D01*
X15163647Y35992678D01*
X15159594Y35976495D01*
X15153974Y35960787D01*
X15146841Y35945706D01*
X15138264Y35931396D01*
X15128326Y35917996D01*
X15117122Y35905635D01*
X15104761Y35894431D01*
X15091361Y35884493D01*
X15077051Y35875916D01*
X15061970Y35868783D01*
X15046262Y35863163D01*
X15030079Y35859110D01*
X15013577Y35856662D01*
X14996914Y35855843D01*
X13166914Y35855843D01*
X13150251Y35856662D01*
X13133749Y35859110D01*
X13117566Y35863163D01*
X13101858Y35868783D01*
X13086777Y35875916D01*
X13072467Y35884493D01*
X13059067Y35894431D01*
X13046706Y35905635D01*
X13035502Y35917996D01*
X13025564Y35931396D01*
X13016987Y35945706D01*
X13009854Y35960787D01*
X13004234Y35976495D01*
X13000181Y35992678D01*
X12997733Y36009180D01*
X12996914Y36025843D01*
X12996914Y36365843D01*
X12997733Y36382506D01*
X13000181Y36399008D01*
X13004234Y36415191D01*
X13009854Y36430899D01*
X13016987Y36445980D01*
X13025564Y36460290D01*
X13035502Y36473690D01*
X13046706Y36486051D01*
X13059067Y36497255D01*
X13072467Y36507193D01*
X13086777Y36515770D01*
X13101858Y36522903D01*
X13117566Y36528523D01*
X13133749Y36532576D01*
X13150251Y36535024D01*
X13166914Y36535843D01*
X14996914Y36535843D01*
X15013577Y36535024D01*
X15013577Y36535024D01*
G37*
D14*
X14081914Y36195843D03*
D10*
G36*
X15013577Y37805024D02*
G01*
X15030079Y37802576D01*
X15046262Y37798523D01*
X15061970Y37792903D01*
X15077051Y37785770D01*
X15091361Y37777193D01*
X15104761Y37767255D01*
X15117122Y37756051D01*
X15128326Y37743690D01*
X15138264Y37730290D01*
X15146841Y37715980D01*
X15153974Y37700899D01*
X15159594Y37685191D01*
X15163647Y37669008D01*
X15166095Y37652506D01*
X15166914Y37635843D01*
X15166914Y37295843D01*
X15166095Y37279180D01*
X15163647Y37262678D01*
X15159594Y37246495D01*
X15153974Y37230787D01*
X15146841Y37215706D01*
X15138264Y37201396D01*
X15128326Y37187996D01*
X15117122Y37175635D01*
X15104761Y37164431D01*
X15091361Y37154493D01*
X15077051Y37145916D01*
X15061970Y37138783D01*
X15046262Y37133163D01*
X15030079Y37129110D01*
X15013577Y37126662D01*
X14996914Y37125843D01*
X13166914Y37125843D01*
X13150251Y37126662D01*
X13133749Y37129110D01*
X13117566Y37133163D01*
X13101858Y37138783D01*
X13086777Y37145916D01*
X13072467Y37154493D01*
X13059067Y37164431D01*
X13046706Y37175635D01*
X13035502Y37187996D01*
X13025564Y37201396D01*
X13016987Y37215706D01*
X13009854Y37230787D01*
X13004234Y37246495D01*
X13000181Y37262678D01*
X12997733Y37279180D01*
X12996914Y37295843D01*
X12996914Y37635843D01*
X12997733Y37652506D01*
X13000181Y37669008D01*
X13004234Y37685191D01*
X13009854Y37700899D01*
X13016987Y37715980D01*
X13025564Y37730290D01*
X13035502Y37743690D01*
X13046706Y37756051D01*
X13059067Y37767255D01*
X13072467Y37777193D01*
X13086777Y37785770D01*
X13101858Y37792903D01*
X13117566Y37798523D01*
X13133749Y37802576D01*
X13150251Y37805024D01*
X13166914Y37805843D01*
X14996914Y37805843D01*
X15013577Y37805024D01*
X15013577Y37805024D01*
G37*
D14*
X14081914Y37465843D03*
D10*
G36*
X15013577Y39075024D02*
G01*
X15030079Y39072576D01*
X15046262Y39068523D01*
X15061970Y39062903D01*
X15077051Y39055770D01*
X15091361Y39047193D01*
X15104761Y39037255D01*
X15117122Y39026051D01*
X15128326Y39013690D01*
X15138264Y39000290D01*
X15146841Y38985980D01*
X15153974Y38970899D01*
X15159594Y38955191D01*
X15163647Y38939008D01*
X15166095Y38922506D01*
X15166914Y38905843D01*
X15166914Y38565843D01*
X15166095Y38549180D01*
X15163647Y38532678D01*
X15159594Y38516495D01*
X15153974Y38500787D01*
X15146841Y38485706D01*
X15138264Y38471396D01*
X15128326Y38457996D01*
X15117122Y38445635D01*
X15104761Y38434431D01*
X15091361Y38424493D01*
X15077051Y38415916D01*
X15061970Y38408783D01*
X15046262Y38403163D01*
X15030079Y38399110D01*
X15013577Y38396662D01*
X14996914Y38395843D01*
X13166914Y38395843D01*
X13150251Y38396662D01*
X13133749Y38399110D01*
X13117566Y38403163D01*
X13101858Y38408783D01*
X13086777Y38415916D01*
X13072467Y38424493D01*
X13059067Y38434431D01*
X13046706Y38445635D01*
X13035502Y38457996D01*
X13025564Y38471396D01*
X13016987Y38485706D01*
X13009854Y38500787D01*
X13004234Y38516495D01*
X13000181Y38532678D01*
X12997733Y38549180D01*
X12996914Y38565843D01*
X12996914Y38905843D01*
X12997733Y38922506D01*
X13000181Y38939008D01*
X13004234Y38955191D01*
X13009854Y38970899D01*
X13016987Y38985980D01*
X13025564Y39000290D01*
X13035502Y39013690D01*
X13046706Y39026051D01*
X13059067Y39037255D01*
X13072467Y39047193D01*
X13086777Y39055770D01*
X13101858Y39062903D01*
X13117566Y39068523D01*
X13133749Y39072576D01*
X13150251Y39075024D01*
X13166914Y39075843D01*
X14996914Y39075843D01*
X15013577Y39075024D01*
X15013577Y39075024D01*
G37*
D14*
X14081914Y38735843D03*
D10*
G36*
X15013577Y40345024D02*
G01*
X15030079Y40342576D01*
X15046262Y40338523D01*
X15061970Y40332903D01*
X15077051Y40325770D01*
X15091361Y40317193D01*
X15104761Y40307255D01*
X15117122Y40296051D01*
X15128326Y40283690D01*
X15138264Y40270290D01*
X15146841Y40255980D01*
X15153974Y40240899D01*
X15159594Y40225191D01*
X15163647Y40209008D01*
X15166095Y40192506D01*
X15166914Y40175843D01*
X15166914Y39835843D01*
X15166095Y39819180D01*
X15163647Y39802678D01*
X15159594Y39786495D01*
X15153974Y39770787D01*
X15146841Y39755706D01*
X15138264Y39741396D01*
X15128326Y39727996D01*
X15117122Y39715635D01*
X15104761Y39704431D01*
X15091361Y39694493D01*
X15077051Y39685916D01*
X15061970Y39678783D01*
X15046262Y39673163D01*
X15030079Y39669110D01*
X15013577Y39666662D01*
X14996914Y39665843D01*
X13166914Y39665843D01*
X13150251Y39666662D01*
X13133749Y39669110D01*
X13117566Y39673163D01*
X13101858Y39678783D01*
X13086777Y39685916D01*
X13072467Y39694493D01*
X13059067Y39704431D01*
X13046706Y39715635D01*
X13035502Y39727996D01*
X13025564Y39741396D01*
X13016987Y39755706D01*
X13009854Y39770787D01*
X13004234Y39786495D01*
X13000181Y39802678D01*
X12997733Y39819180D01*
X12996914Y39835843D01*
X12996914Y40175843D01*
X12997733Y40192506D01*
X13000181Y40209008D01*
X13004234Y40225191D01*
X13009854Y40240899D01*
X13016987Y40255980D01*
X13025564Y40270290D01*
X13035502Y40283690D01*
X13046706Y40296051D01*
X13059067Y40307255D01*
X13072467Y40317193D01*
X13086777Y40325770D01*
X13101858Y40332903D01*
X13117566Y40338523D01*
X13133749Y40342576D01*
X13150251Y40345024D01*
X13166914Y40345843D01*
X14996914Y40345843D01*
X15013577Y40345024D01*
X15013577Y40345024D01*
G37*
D14*
X14081914Y40005843D03*
D10*
G36*
X15013577Y41615024D02*
G01*
X15030079Y41612576D01*
X15046262Y41608523D01*
X15061970Y41602903D01*
X15077051Y41595770D01*
X15091361Y41587193D01*
X15104761Y41577255D01*
X15117122Y41566051D01*
X15128326Y41553690D01*
X15138264Y41540290D01*
X15146841Y41525980D01*
X15153974Y41510899D01*
X15159594Y41495191D01*
X15163647Y41479008D01*
X15166095Y41462506D01*
X15166914Y41445843D01*
X15166914Y41105843D01*
X15166095Y41089180D01*
X15163647Y41072678D01*
X15159594Y41056495D01*
X15153974Y41040787D01*
X15146841Y41025706D01*
X15138264Y41011396D01*
X15128326Y40997996D01*
X15117122Y40985635D01*
X15104761Y40974431D01*
X15091361Y40964493D01*
X15077051Y40955916D01*
X15061970Y40948783D01*
X15046262Y40943163D01*
X15030079Y40939110D01*
X15013577Y40936662D01*
X14996914Y40935843D01*
X13166914Y40935843D01*
X13150251Y40936662D01*
X13133749Y40939110D01*
X13117566Y40943163D01*
X13101858Y40948783D01*
X13086777Y40955916D01*
X13072467Y40964493D01*
X13059067Y40974431D01*
X13046706Y40985635D01*
X13035502Y40997996D01*
X13025564Y41011396D01*
X13016987Y41025706D01*
X13009854Y41040787D01*
X13004234Y41056495D01*
X13000181Y41072678D01*
X12997733Y41089180D01*
X12996914Y41105843D01*
X12996914Y41445843D01*
X12997733Y41462506D01*
X13000181Y41479008D01*
X13004234Y41495191D01*
X13009854Y41510899D01*
X13016987Y41525980D01*
X13025564Y41540290D01*
X13035502Y41553690D01*
X13046706Y41566051D01*
X13059067Y41577255D01*
X13072467Y41587193D01*
X13086777Y41595770D01*
X13101858Y41602903D01*
X13117566Y41608523D01*
X13133749Y41612576D01*
X13150251Y41615024D01*
X13166914Y41615843D01*
X14996914Y41615843D01*
X15013577Y41615024D01*
X15013577Y41615024D01*
G37*
D14*
X14081914Y41275843D03*
D10*
G36*
X19863577Y41615024D02*
G01*
X19880079Y41612576D01*
X19896262Y41608523D01*
X19911970Y41602903D01*
X19927051Y41595770D01*
X19941361Y41587193D01*
X19954761Y41577255D01*
X19967122Y41566051D01*
X19978326Y41553690D01*
X19988264Y41540290D01*
X19996841Y41525980D01*
X20003974Y41510899D01*
X20009594Y41495191D01*
X20013647Y41479008D01*
X20016095Y41462506D01*
X20016914Y41445843D01*
X20016914Y41105843D01*
X20016095Y41089180D01*
X20013647Y41072678D01*
X20009594Y41056495D01*
X20003974Y41040787D01*
X19996841Y41025706D01*
X19988264Y41011396D01*
X19978326Y40997996D01*
X19967122Y40985635D01*
X19954761Y40974431D01*
X19941361Y40964493D01*
X19927051Y40955916D01*
X19911970Y40948783D01*
X19896262Y40943163D01*
X19880079Y40939110D01*
X19863577Y40936662D01*
X19846914Y40935843D01*
X18016914Y40935843D01*
X18000251Y40936662D01*
X17983749Y40939110D01*
X17967566Y40943163D01*
X17951858Y40948783D01*
X17936777Y40955916D01*
X17922467Y40964493D01*
X17909067Y40974431D01*
X17896706Y40985635D01*
X17885502Y40997996D01*
X17875564Y41011396D01*
X17866987Y41025706D01*
X17859854Y41040787D01*
X17854234Y41056495D01*
X17850181Y41072678D01*
X17847733Y41089180D01*
X17846914Y41105843D01*
X17846914Y41445843D01*
X17847733Y41462506D01*
X17850181Y41479008D01*
X17854234Y41495191D01*
X17859854Y41510899D01*
X17866987Y41525980D01*
X17875564Y41540290D01*
X17885502Y41553690D01*
X17896706Y41566051D01*
X17909067Y41577255D01*
X17922467Y41587193D01*
X17936777Y41595770D01*
X17951858Y41602903D01*
X17967566Y41608523D01*
X17983749Y41612576D01*
X18000251Y41615024D01*
X18016914Y41615843D01*
X19846914Y41615843D01*
X19863577Y41615024D01*
X19863577Y41615024D01*
G37*
D14*
X18931914Y41275843D03*
D10*
G36*
X19863577Y40345024D02*
G01*
X19880079Y40342576D01*
X19896262Y40338523D01*
X19911970Y40332903D01*
X19927051Y40325770D01*
X19941361Y40317193D01*
X19954761Y40307255D01*
X19967122Y40296051D01*
X19978326Y40283690D01*
X19988264Y40270290D01*
X19996841Y40255980D01*
X20003974Y40240899D01*
X20009594Y40225191D01*
X20013647Y40209008D01*
X20016095Y40192506D01*
X20016914Y40175843D01*
X20016914Y39835843D01*
X20016095Y39819180D01*
X20013647Y39802678D01*
X20009594Y39786495D01*
X20003974Y39770787D01*
X19996841Y39755706D01*
X19988264Y39741396D01*
X19978326Y39727996D01*
X19967122Y39715635D01*
X19954761Y39704431D01*
X19941361Y39694493D01*
X19927051Y39685916D01*
X19911970Y39678783D01*
X19896262Y39673163D01*
X19880079Y39669110D01*
X19863577Y39666662D01*
X19846914Y39665843D01*
X18016914Y39665843D01*
X18000251Y39666662D01*
X17983749Y39669110D01*
X17967566Y39673163D01*
X17951858Y39678783D01*
X17936777Y39685916D01*
X17922467Y39694493D01*
X17909067Y39704431D01*
X17896706Y39715635D01*
X17885502Y39727996D01*
X17875564Y39741396D01*
X17866987Y39755706D01*
X17859854Y39770787D01*
X17854234Y39786495D01*
X17850181Y39802678D01*
X17847733Y39819180D01*
X17846914Y39835843D01*
X17846914Y40175843D01*
X17847733Y40192506D01*
X17850181Y40209008D01*
X17854234Y40225191D01*
X17859854Y40240899D01*
X17866987Y40255980D01*
X17875564Y40270290D01*
X17885502Y40283690D01*
X17896706Y40296051D01*
X17909067Y40307255D01*
X17922467Y40317193D01*
X17936777Y40325770D01*
X17951858Y40332903D01*
X17967566Y40338523D01*
X17983749Y40342576D01*
X18000251Y40345024D01*
X18016914Y40345843D01*
X19846914Y40345843D01*
X19863577Y40345024D01*
X19863577Y40345024D01*
G37*
D14*
X18931914Y40005843D03*
D10*
G36*
X19863577Y39075024D02*
G01*
X19880079Y39072576D01*
X19896262Y39068523D01*
X19911970Y39062903D01*
X19927051Y39055770D01*
X19941361Y39047193D01*
X19954761Y39037255D01*
X19967122Y39026051D01*
X19978326Y39013690D01*
X19988264Y39000290D01*
X19996841Y38985980D01*
X20003974Y38970899D01*
X20009594Y38955191D01*
X20013647Y38939008D01*
X20016095Y38922506D01*
X20016914Y38905843D01*
X20016914Y38565843D01*
X20016095Y38549180D01*
X20013647Y38532678D01*
X20009594Y38516495D01*
X20003974Y38500787D01*
X19996841Y38485706D01*
X19988264Y38471396D01*
X19978326Y38457996D01*
X19967122Y38445635D01*
X19954761Y38434431D01*
X19941361Y38424493D01*
X19927051Y38415916D01*
X19911970Y38408783D01*
X19896262Y38403163D01*
X19880079Y38399110D01*
X19863577Y38396662D01*
X19846914Y38395843D01*
X18016914Y38395843D01*
X18000251Y38396662D01*
X17983749Y38399110D01*
X17967566Y38403163D01*
X17951858Y38408783D01*
X17936777Y38415916D01*
X17922467Y38424493D01*
X17909067Y38434431D01*
X17896706Y38445635D01*
X17885502Y38457996D01*
X17875564Y38471396D01*
X17866987Y38485706D01*
X17859854Y38500787D01*
X17854234Y38516495D01*
X17850181Y38532678D01*
X17847733Y38549180D01*
X17846914Y38565843D01*
X17846914Y38905843D01*
X17847733Y38922506D01*
X17850181Y38939008D01*
X17854234Y38955191D01*
X17859854Y38970899D01*
X17866987Y38985980D01*
X17875564Y39000290D01*
X17885502Y39013690D01*
X17896706Y39026051D01*
X17909067Y39037255D01*
X17922467Y39047193D01*
X17936777Y39055770D01*
X17951858Y39062903D01*
X17967566Y39068523D01*
X17983749Y39072576D01*
X18000251Y39075024D01*
X18016914Y39075843D01*
X19846914Y39075843D01*
X19863577Y39075024D01*
X19863577Y39075024D01*
G37*
D14*
X18931914Y38735843D03*
D10*
G36*
X19863577Y37805024D02*
G01*
X19880079Y37802576D01*
X19896262Y37798523D01*
X19911970Y37792903D01*
X19927051Y37785770D01*
X19941361Y37777193D01*
X19954761Y37767255D01*
X19967122Y37756051D01*
X19978326Y37743690D01*
X19988264Y37730290D01*
X19996841Y37715980D01*
X20003974Y37700899D01*
X20009594Y37685191D01*
X20013647Y37669008D01*
X20016095Y37652506D01*
X20016914Y37635843D01*
X20016914Y37295843D01*
X20016095Y37279180D01*
X20013647Y37262678D01*
X20009594Y37246495D01*
X20003974Y37230787D01*
X19996841Y37215706D01*
X19988264Y37201396D01*
X19978326Y37187996D01*
X19967122Y37175635D01*
X19954761Y37164431D01*
X19941361Y37154493D01*
X19927051Y37145916D01*
X19911970Y37138783D01*
X19896262Y37133163D01*
X19880079Y37129110D01*
X19863577Y37126662D01*
X19846914Y37125843D01*
X18016914Y37125843D01*
X18000251Y37126662D01*
X17983749Y37129110D01*
X17967566Y37133163D01*
X17951858Y37138783D01*
X17936777Y37145916D01*
X17922467Y37154493D01*
X17909067Y37164431D01*
X17896706Y37175635D01*
X17885502Y37187996D01*
X17875564Y37201396D01*
X17866987Y37215706D01*
X17859854Y37230787D01*
X17854234Y37246495D01*
X17850181Y37262678D01*
X17847733Y37279180D01*
X17846914Y37295843D01*
X17846914Y37635843D01*
X17847733Y37652506D01*
X17850181Y37669008D01*
X17854234Y37685191D01*
X17859854Y37700899D01*
X17866987Y37715980D01*
X17875564Y37730290D01*
X17885502Y37743690D01*
X17896706Y37756051D01*
X17909067Y37767255D01*
X17922467Y37777193D01*
X17936777Y37785770D01*
X17951858Y37792903D01*
X17967566Y37798523D01*
X17983749Y37802576D01*
X18000251Y37805024D01*
X18016914Y37805843D01*
X19846914Y37805843D01*
X19863577Y37805024D01*
X19863577Y37805024D01*
G37*
D14*
X18931914Y37465843D03*
D10*
G36*
X19863577Y36535024D02*
G01*
X19880079Y36532576D01*
X19896262Y36528523D01*
X19911970Y36522903D01*
X19927051Y36515770D01*
X19941361Y36507193D01*
X19954761Y36497255D01*
X19967122Y36486051D01*
X19978326Y36473690D01*
X19988264Y36460290D01*
X19996841Y36445980D01*
X20003974Y36430899D01*
X20009594Y36415191D01*
X20013647Y36399008D01*
X20016095Y36382506D01*
X20016914Y36365843D01*
X20016914Y36025843D01*
X20016095Y36009180D01*
X20013647Y35992678D01*
X20009594Y35976495D01*
X20003974Y35960787D01*
X19996841Y35945706D01*
X19988264Y35931396D01*
X19978326Y35917996D01*
X19967122Y35905635D01*
X19954761Y35894431D01*
X19941361Y35884493D01*
X19927051Y35875916D01*
X19911970Y35868783D01*
X19896262Y35863163D01*
X19880079Y35859110D01*
X19863577Y35856662D01*
X19846914Y35855843D01*
X18016914Y35855843D01*
X18000251Y35856662D01*
X17983749Y35859110D01*
X17967566Y35863163D01*
X17951858Y35868783D01*
X17936777Y35875916D01*
X17922467Y35884493D01*
X17909067Y35894431D01*
X17896706Y35905635D01*
X17885502Y35917996D01*
X17875564Y35931396D01*
X17866987Y35945706D01*
X17859854Y35960787D01*
X17854234Y35976495D01*
X17850181Y35992678D01*
X17847733Y36009180D01*
X17846914Y36025843D01*
X17846914Y36365843D01*
X17847733Y36382506D01*
X17850181Y36399008D01*
X17854234Y36415191D01*
X17859854Y36430899D01*
X17866987Y36445980D01*
X17875564Y36460290D01*
X17885502Y36473690D01*
X17896706Y36486051D01*
X17909067Y36497255D01*
X17922467Y36507193D01*
X17936777Y36515770D01*
X17951858Y36522903D01*
X17967566Y36528523D01*
X17983749Y36532576D01*
X18000251Y36535024D01*
X18016914Y36535843D01*
X19846914Y36535843D01*
X19863577Y36535024D01*
X19863577Y36535024D01*
G37*
D14*
X18931914Y36195843D03*
D10*
G36*
X19863577Y35265024D02*
G01*
X19880079Y35262576D01*
X19896262Y35258523D01*
X19911970Y35252903D01*
X19927051Y35245770D01*
X19941361Y35237193D01*
X19954761Y35227255D01*
X19967122Y35216051D01*
X19978326Y35203690D01*
X19988264Y35190290D01*
X19996841Y35175980D01*
X20003974Y35160899D01*
X20009594Y35145191D01*
X20013647Y35129008D01*
X20016095Y35112506D01*
X20016914Y35095843D01*
X20016914Y34755843D01*
X20016095Y34739180D01*
X20013647Y34722678D01*
X20009594Y34706495D01*
X20003974Y34690787D01*
X19996841Y34675706D01*
X19988264Y34661396D01*
X19978326Y34647996D01*
X19967122Y34635635D01*
X19954761Y34624431D01*
X19941361Y34614493D01*
X19927051Y34605916D01*
X19911970Y34598783D01*
X19896262Y34593163D01*
X19880079Y34589110D01*
X19863577Y34586662D01*
X19846914Y34585843D01*
X18016914Y34585843D01*
X18000251Y34586662D01*
X17983749Y34589110D01*
X17967566Y34593163D01*
X17951858Y34598783D01*
X17936777Y34605916D01*
X17922467Y34614493D01*
X17909067Y34624431D01*
X17896706Y34635635D01*
X17885502Y34647996D01*
X17875564Y34661396D01*
X17866987Y34675706D01*
X17859854Y34690787D01*
X17854234Y34706495D01*
X17850181Y34722678D01*
X17847733Y34739180D01*
X17846914Y34755843D01*
X17846914Y35095843D01*
X17847733Y35112506D01*
X17850181Y35129008D01*
X17854234Y35145191D01*
X17859854Y35160899D01*
X17866987Y35175980D01*
X17875564Y35190290D01*
X17885502Y35203690D01*
X17896706Y35216051D01*
X17909067Y35227255D01*
X17922467Y35237193D01*
X17936777Y35245770D01*
X17951858Y35252903D01*
X17967566Y35258523D01*
X17983749Y35262576D01*
X18000251Y35265024D01*
X18016914Y35265843D01*
X19846914Y35265843D01*
X19863577Y35265024D01*
X19863577Y35265024D01*
G37*
D14*
X18931914Y34925843D03*
D10*
G36*
X19863577Y33995024D02*
G01*
X19880079Y33992576D01*
X19896262Y33988523D01*
X19911970Y33982903D01*
X19927051Y33975770D01*
X19941361Y33967193D01*
X19954761Y33957255D01*
X19967122Y33946051D01*
X19978326Y33933690D01*
X19988264Y33920290D01*
X19996841Y33905980D01*
X20003974Y33890899D01*
X20009594Y33875191D01*
X20013647Y33859008D01*
X20016095Y33842506D01*
X20016914Y33825843D01*
X20016914Y33485843D01*
X20016095Y33469180D01*
X20013647Y33452678D01*
X20009594Y33436495D01*
X20003974Y33420787D01*
X19996841Y33405706D01*
X19988264Y33391396D01*
X19978326Y33377996D01*
X19967122Y33365635D01*
X19954761Y33354431D01*
X19941361Y33344493D01*
X19927051Y33335916D01*
X19911970Y33328783D01*
X19896262Y33323163D01*
X19880079Y33319110D01*
X19863577Y33316662D01*
X19846914Y33315843D01*
X18016914Y33315843D01*
X18000251Y33316662D01*
X17983749Y33319110D01*
X17967566Y33323163D01*
X17951858Y33328783D01*
X17936777Y33335916D01*
X17922467Y33344493D01*
X17909067Y33354431D01*
X17896706Y33365635D01*
X17885502Y33377996D01*
X17875564Y33391396D01*
X17866987Y33405706D01*
X17859854Y33420787D01*
X17854234Y33436495D01*
X17850181Y33452678D01*
X17847733Y33469180D01*
X17846914Y33485843D01*
X17846914Y33825843D01*
X17847733Y33842506D01*
X17850181Y33859008D01*
X17854234Y33875191D01*
X17859854Y33890899D01*
X17866987Y33905980D01*
X17875564Y33920290D01*
X17885502Y33933690D01*
X17896706Y33946051D01*
X17909067Y33957255D01*
X17922467Y33967193D01*
X17936777Y33975770D01*
X17951858Y33982903D01*
X17967566Y33988523D01*
X17983749Y33992576D01*
X18000251Y33995024D01*
X18016914Y33995843D01*
X19846914Y33995843D01*
X19863577Y33995024D01*
X19863577Y33995024D01*
G37*
D14*
X18931914Y33655843D03*
D10*
G36*
X19863577Y32725024D02*
G01*
X19880079Y32722576D01*
X19896262Y32718523D01*
X19911970Y32712903D01*
X19927051Y32705770D01*
X19941361Y32697193D01*
X19954761Y32687255D01*
X19967122Y32676051D01*
X19978326Y32663690D01*
X19988264Y32650290D01*
X19996841Y32635980D01*
X20003974Y32620899D01*
X20009594Y32605191D01*
X20013647Y32589008D01*
X20016095Y32572506D01*
X20016914Y32555843D01*
X20016914Y32215843D01*
X20016095Y32199180D01*
X20013647Y32182678D01*
X20009594Y32166495D01*
X20003974Y32150787D01*
X19996841Y32135706D01*
X19988264Y32121396D01*
X19978326Y32107996D01*
X19967122Y32095635D01*
X19954761Y32084431D01*
X19941361Y32074493D01*
X19927051Y32065916D01*
X19911970Y32058783D01*
X19896262Y32053163D01*
X19880079Y32049110D01*
X19863577Y32046662D01*
X19846914Y32045843D01*
X18016914Y32045843D01*
X18000251Y32046662D01*
X17983749Y32049110D01*
X17967566Y32053163D01*
X17951858Y32058783D01*
X17936777Y32065916D01*
X17922467Y32074493D01*
X17909067Y32084431D01*
X17896706Y32095635D01*
X17885502Y32107996D01*
X17875564Y32121396D01*
X17866987Y32135706D01*
X17859854Y32150787D01*
X17854234Y32166495D01*
X17850181Y32182678D01*
X17847733Y32199180D01*
X17846914Y32215843D01*
X17846914Y32555843D01*
X17847733Y32572506D01*
X17850181Y32589008D01*
X17854234Y32605191D01*
X17859854Y32620899D01*
X17866987Y32635980D01*
X17875564Y32650290D01*
X17885502Y32663690D01*
X17896706Y32676051D01*
X17909067Y32687255D01*
X17922467Y32697193D01*
X17936777Y32705770D01*
X17951858Y32712903D01*
X17967566Y32718523D01*
X17983749Y32722576D01*
X18000251Y32725024D01*
X18016914Y32725843D01*
X19846914Y32725843D01*
X19863577Y32725024D01*
X19863577Y32725024D01*
G37*
D14*
X18931914Y32385843D03*
D15*
X43500000Y35170000D03*
D16*
X43500000Y32630000D03*
D17*
X60500000Y22475000D03*
X60500000Y25525000D03*
X52000000Y22475000D03*
X52000000Y25525000D03*
D18*
X26738000Y25500000D03*
X28262000Y25500000D03*
D19*
X27500000Y25500000D03*
D10*
G36*
X25776682Y28964182D02*
G01*
X25793182Y28961734D01*
X25809363Y28957681D01*
X25825069Y28952061D01*
X25840149Y28944929D01*
X25854456Y28936353D01*
X25867855Y28926417D01*
X25880214Y28915214D01*
X25891417Y28902855D01*
X25901353Y28889456D01*
X25909929Y28875149D01*
X25917061Y28860069D01*
X25922681Y28844363D01*
X25926734Y28828182D01*
X25929182Y28811682D01*
X25930000Y28795021D01*
X25930000Y27354979D01*
X25929182Y27338318D01*
X25926734Y27321818D01*
X25922681Y27305637D01*
X25917061Y27289931D01*
X25909929Y27274851D01*
X25901353Y27260544D01*
X25891417Y27247145D01*
X25880214Y27234786D01*
X25867855Y27223583D01*
X25854456Y27213647D01*
X25840149Y27205071D01*
X25825069Y27197939D01*
X25809363Y27192319D01*
X25793182Y27188266D01*
X25776682Y27185818D01*
X25760021Y27185000D01*
X25429979Y27185000D01*
X25413318Y27185818D01*
X25396818Y27188266D01*
X25380637Y27192319D01*
X25364931Y27197939D01*
X25349851Y27205071D01*
X25335544Y27213647D01*
X25322145Y27223583D01*
X25309786Y27234786D01*
X25298583Y27247145D01*
X25288647Y27260544D01*
X25280071Y27274851D01*
X25272939Y27289931D01*
X25267319Y27305637D01*
X25263266Y27321818D01*
X25260818Y27338318D01*
X25260000Y27354979D01*
X25260000Y28795021D01*
X25260818Y28811682D01*
X25263266Y28828182D01*
X25267319Y28844363D01*
X25272939Y28860069D01*
X25280071Y28875149D01*
X25288647Y28889456D01*
X25298583Y28902855D01*
X25309786Y28915214D01*
X25322145Y28926417D01*
X25335544Y28936353D01*
X25349851Y28944929D01*
X25364931Y28952061D01*
X25380637Y28957681D01*
X25396818Y28961734D01*
X25413318Y28964182D01*
X25429979Y28965000D01*
X25760021Y28965000D01*
X25776682Y28964182D01*
X25776682Y28964182D01*
G37*
D20*
X25595000Y28075000D03*
D10*
G36*
X27046682Y28964182D02*
G01*
X27063182Y28961734D01*
X27079363Y28957681D01*
X27095069Y28952061D01*
X27110149Y28944929D01*
X27124456Y28936353D01*
X27137855Y28926417D01*
X27150214Y28915214D01*
X27161417Y28902855D01*
X27171353Y28889456D01*
X27179929Y28875149D01*
X27187061Y28860069D01*
X27192681Y28844363D01*
X27196734Y28828182D01*
X27199182Y28811682D01*
X27200000Y28795021D01*
X27200000Y27354979D01*
X27199182Y27338318D01*
X27196734Y27321818D01*
X27192681Y27305637D01*
X27187061Y27289931D01*
X27179929Y27274851D01*
X27171353Y27260544D01*
X27161417Y27247145D01*
X27150214Y27234786D01*
X27137855Y27223583D01*
X27124456Y27213647D01*
X27110149Y27205071D01*
X27095069Y27197939D01*
X27079363Y27192319D01*
X27063182Y27188266D01*
X27046682Y27185818D01*
X27030021Y27185000D01*
X26699979Y27185000D01*
X26683318Y27185818D01*
X26666818Y27188266D01*
X26650637Y27192319D01*
X26634931Y27197939D01*
X26619851Y27205071D01*
X26605544Y27213647D01*
X26592145Y27223583D01*
X26579786Y27234786D01*
X26568583Y27247145D01*
X26558647Y27260544D01*
X26550071Y27274851D01*
X26542939Y27289931D01*
X26537319Y27305637D01*
X26533266Y27321818D01*
X26530818Y27338318D01*
X26530000Y27354979D01*
X26530000Y28795021D01*
X26530818Y28811682D01*
X26533266Y28828182D01*
X26537319Y28844363D01*
X26542939Y28860069D01*
X26550071Y28875149D01*
X26558647Y28889456D01*
X26568583Y28902855D01*
X26579786Y28915214D01*
X26592145Y28926417D01*
X26605544Y28936353D01*
X26619851Y28944929D01*
X26634931Y28952061D01*
X26650637Y28957681D01*
X26666818Y28961734D01*
X26683318Y28964182D01*
X26699979Y28965000D01*
X27030021Y28965000D01*
X27046682Y28964182D01*
X27046682Y28964182D01*
G37*
D20*
X26865000Y28075000D03*
D10*
G36*
X28316682Y28964182D02*
G01*
X28333182Y28961734D01*
X28349363Y28957681D01*
X28365069Y28952061D01*
X28380149Y28944929D01*
X28394456Y28936353D01*
X28407855Y28926417D01*
X28420214Y28915214D01*
X28431417Y28902855D01*
X28441353Y28889456D01*
X28449929Y28875149D01*
X28457061Y28860069D01*
X28462681Y28844363D01*
X28466734Y28828182D01*
X28469182Y28811682D01*
X28470000Y28795021D01*
X28470000Y27354979D01*
X28469182Y27338318D01*
X28466734Y27321818D01*
X28462681Y27305637D01*
X28457061Y27289931D01*
X28449929Y27274851D01*
X28441353Y27260544D01*
X28431417Y27247145D01*
X28420214Y27234786D01*
X28407855Y27223583D01*
X28394456Y27213647D01*
X28380149Y27205071D01*
X28365069Y27197939D01*
X28349363Y27192319D01*
X28333182Y27188266D01*
X28316682Y27185818D01*
X28300021Y27185000D01*
X27969979Y27185000D01*
X27953318Y27185818D01*
X27936818Y27188266D01*
X27920637Y27192319D01*
X27904931Y27197939D01*
X27889851Y27205071D01*
X27875544Y27213647D01*
X27862145Y27223583D01*
X27849786Y27234786D01*
X27838583Y27247145D01*
X27828647Y27260544D01*
X27820071Y27274851D01*
X27812939Y27289931D01*
X27807319Y27305637D01*
X27803266Y27321818D01*
X27800818Y27338318D01*
X27800000Y27354979D01*
X27800000Y28795021D01*
X27800818Y28811682D01*
X27803266Y28828182D01*
X27807319Y28844363D01*
X27812939Y28860069D01*
X27820071Y28875149D01*
X27828647Y28889456D01*
X27838583Y28902855D01*
X27849786Y28915214D01*
X27862145Y28926417D01*
X27875544Y28936353D01*
X27889851Y28944929D01*
X27904931Y28952061D01*
X27920637Y28957681D01*
X27936818Y28961734D01*
X27953318Y28964182D01*
X27969979Y28965000D01*
X28300021Y28965000D01*
X28316682Y28964182D01*
X28316682Y28964182D01*
G37*
D20*
X28135000Y28075000D03*
D10*
G36*
X29586682Y28964182D02*
G01*
X29603182Y28961734D01*
X29619363Y28957681D01*
X29635069Y28952061D01*
X29650149Y28944929D01*
X29664456Y28936353D01*
X29677855Y28926417D01*
X29690214Y28915214D01*
X29701417Y28902855D01*
X29711353Y28889456D01*
X29719929Y28875149D01*
X29727061Y28860069D01*
X29732681Y28844363D01*
X29736734Y28828182D01*
X29739182Y28811682D01*
X29740000Y28795021D01*
X29740000Y27354979D01*
X29739182Y27338318D01*
X29736734Y27321818D01*
X29732681Y27305637D01*
X29727061Y27289931D01*
X29719929Y27274851D01*
X29711353Y27260544D01*
X29701417Y27247145D01*
X29690214Y27234786D01*
X29677855Y27223583D01*
X29664456Y27213647D01*
X29650149Y27205071D01*
X29635069Y27197939D01*
X29619363Y27192319D01*
X29603182Y27188266D01*
X29586682Y27185818D01*
X29570021Y27185000D01*
X29239979Y27185000D01*
X29223318Y27185818D01*
X29206818Y27188266D01*
X29190637Y27192319D01*
X29174931Y27197939D01*
X29159851Y27205071D01*
X29145544Y27213647D01*
X29132145Y27223583D01*
X29119786Y27234786D01*
X29108583Y27247145D01*
X29098647Y27260544D01*
X29090071Y27274851D01*
X29082939Y27289931D01*
X29077319Y27305637D01*
X29073266Y27321818D01*
X29070818Y27338318D01*
X29070000Y27354979D01*
X29070000Y28795021D01*
X29070818Y28811682D01*
X29073266Y28828182D01*
X29077319Y28844363D01*
X29082939Y28860069D01*
X29090071Y28875149D01*
X29098647Y28889456D01*
X29108583Y28902855D01*
X29119786Y28915214D01*
X29132145Y28926417D01*
X29145544Y28936353D01*
X29159851Y28944929D01*
X29174931Y28952061D01*
X29190637Y28957681D01*
X29206818Y28961734D01*
X29223318Y28964182D01*
X29239979Y28965000D01*
X29570021Y28965000D01*
X29586682Y28964182D01*
X29586682Y28964182D01*
G37*
D20*
X29405000Y28075000D03*
D10*
G36*
X29586682Y23814182D02*
G01*
X29603182Y23811734D01*
X29619363Y23807681D01*
X29635069Y23802061D01*
X29650149Y23794929D01*
X29664456Y23786353D01*
X29677855Y23776417D01*
X29690214Y23765214D01*
X29701417Y23752855D01*
X29711353Y23739456D01*
X29719929Y23725149D01*
X29727061Y23710069D01*
X29732681Y23694363D01*
X29736734Y23678182D01*
X29739182Y23661682D01*
X29740000Y23645021D01*
X29740000Y22204979D01*
X29739182Y22188318D01*
X29736734Y22171818D01*
X29732681Y22155637D01*
X29727061Y22139931D01*
X29719929Y22124851D01*
X29711353Y22110544D01*
X29701417Y22097145D01*
X29690214Y22084786D01*
X29677855Y22073583D01*
X29664456Y22063647D01*
X29650149Y22055071D01*
X29635069Y22047939D01*
X29619363Y22042319D01*
X29603182Y22038266D01*
X29586682Y22035818D01*
X29570021Y22035000D01*
X29239979Y22035000D01*
X29223318Y22035818D01*
X29206818Y22038266D01*
X29190637Y22042319D01*
X29174931Y22047939D01*
X29159851Y22055071D01*
X29145544Y22063647D01*
X29132145Y22073583D01*
X29119786Y22084786D01*
X29108583Y22097145D01*
X29098647Y22110544D01*
X29090071Y22124851D01*
X29082939Y22139931D01*
X29077319Y22155637D01*
X29073266Y22171818D01*
X29070818Y22188318D01*
X29070000Y22204979D01*
X29070000Y23645021D01*
X29070818Y23661682D01*
X29073266Y23678182D01*
X29077319Y23694363D01*
X29082939Y23710069D01*
X29090071Y23725149D01*
X29098647Y23739456D01*
X29108583Y23752855D01*
X29119786Y23765214D01*
X29132145Y23776417D01*
X29145544Y23786353D01*
X29159851Y23794929D01*
X29174931Y23802061D01*
X29190637Y23807681D01*
X29206818Y23811734D01*
X29223318Y23814182D01*
X29239979Y23815000D01*
X29570021Y23815000D01*
X29586682Y23814182D01*
X29586682Y23814182D01*
G37*
D20*
X29405000Y22925000D03*
D10*
G36*
X28316682Y23814182D02*
G01*
X28333182Y23811734D01*
X28349363Y23807681D01*
X28365069Y23802061D01*
X28380149Y23794929D01*
X28394456Y23786353D01*
X28407855Y23776417D01*
X28420214Y23765214D01*
X28431417Y23752855D01*
X28441353Y23739456D01*
X28449929Y23725149D01*
X28457061Y23710069D01*
X28462681Y23694363D01*
X28466734Y23678182D01*
X28469182Y23661682D01*
X28470000Y23645021D01*
X28470000Y22204979D01*
X28469182Y22188318D01*
X28466734Y22171818D01*
X28462681Y22155637D01*
X28457061Y22139931D01*
X28449929Y22124851D01*
X28441353Y22110544D01*
X28431417Y22097145D01*
X28420214Y22084786D01*
X28407855Y22073583D01*
X28394456Y22063647D01*
X28380149Y22055071D01*
X28365069Y22047939D01*
X28349363Y22042319D01*
X28333182Y22038266D01*
X28316682Y22035818D01*
X28300021Y22035000D01*
X27969979Y22035000D01*
X27953318Y22035818D01*
X27936818Y22038266D01*
X27920637Y22042319D01*
X27904931Y22047939D01*
X27889851Y22055071D01*
X27875544Y22063647D01*
X27862145Y22073583D01*
X27849786Y22084786D01*
X27838583Y22097145D01*
X27828647Y22110544D01*
X27820071Y22124851D01*
X27812939Y22139931D01*
X27807319Y22155637D01*
X27803266Y22171818D01*
X27800818Y22188318D01*
X27800000Y22204979D01*
X27800000Y23645021D01*
X27800818Y23661682D01*
X27803266Y23678182D01*
X27807319Y23694363D01*
X27812939Y23710069D01*
X27820071Y23725149D01*
X27828647Y23739456D01*
X27838583Y23752855D01*
X27849786Y23765214D01*
X27862145Y23776417D01*
X27875544Y23786353D01*
X27889851Y23794929D01*
X27904931Y23802061D01*
X27920637Y23807681D01*
X27936818Y23811734D01*
X27953318Y23814182D01*
X27969979Y23815000D01*
X28300021Y23815000D01*
X28316682Y23814182D01*
X28316682Y23814182D01*
G37*
D20*
X28135000Y22925000D03*
D10*
G36*
X27046682Y23814182D02*
G01*
X27063182Y23811734D01*
X27079363Y23807681D01*
X27095069Y23802061D01*
X27110149Y23794929D01*
X27124456Y23786353D01*
X27137855Y23776417D01*
X27150214Y23765214D01*
X27161417Y23752855D01*
X27171353Y23739456D01*
X27179929Y23725149D01*
X27187061Y23710069D01*
X27192681Y23694363D01*
X27196734Y23678182D01*
X27199182Y23661682D01*
X27200000Y23645021D01*
X27200000Y22204979D01*
X27199182Y22188318D01*
X27196734Y22171818D01*
X27192681Y22155637D01*
X27187061Y22139931D01*
X27179929Y22124851D01*
X27171353Y22110544D01*
X27161417Y22097145D01*
X27150214Y22084786D01*
X27137855Y22073583D01*
X27124456Y22063647D01*
X27110149Y22055071D01*
X27095069Y22047939D01*
X27079363Y22042319D01*
X27063182Y22038266D01*
X27046682Y22035818D01*
X27030021Y22035000D01*
X26699979Y22035000D01*
X26683318Y22035818D01*
X26666818Y22038266D01*
X26650637Y22042319D01*
X26634931Y22047939D01*
X26619851Y22055071D01*
X26605544Y22063647D01*
X26592145Y22073583D01*
X26579786Y22084786D01*
X26568583Y22097145D01*
X26558647Y22110544D01*
X26550071Y22124851D01*
X26542939Y22139931D01*
X26537319Y22155637D01*
X26533266Y22171818D01*
X26530818Y22188318D01*
X26530000Y22204979D01*
X26530000Y23645021D01*
X26530818Y23661682D01*
X26533266Y23678182D01*
X26537319Y23694363D01*
X26542939Y23710069D01*
X26550071Y23725149D01*
X26558647Y23739456D01*
X26568583Y23752855D01*
X26579786Y23765214D01*
X26592145Y23776417D01*
X26605544Y23786353D01*
X26619851Y23794929D01*
X26634931Y23802061D01*
X26650637Y23807681D01*
X26666818Y23811734D01*
X26683318Y23814182D01*
X26699979Y23815000D01*
X27030021Y23815000D01*
X27046682Y23814182D01*
X27046682Y23814182D01*
G37*
D20*
X26865000Y22925000D03*
D10*
G36*
X25776682Y23814182D02*
G01*
X25793182Y23811734D01*
X25809363Y23807681D01*
X25825069Y23802061D01*
X25840149Y23794929D01*
X25854456Y23786353D01*
X25867855Y23776417D01*
X25880214Y23765214D01*
X25891417Y23752855D01*
X25901353Y23739456D01*
X25909929Y23725149D01*
X25917061Y23710069D01*
X25922681Y23694363D01*
X25926734Y23678182D01*
X25929182Y23661682D01*
X25930000Y23645021D01*
X25930000Y22204979D01*
X25929182Y22188318D01*
X25926734Y22171818D01*
X25922681Y22155637D01*
X25917061Y22139931D01*
X25909929Y22124851D01*
X25901353Y22110544D01*
X25891417Y22097145D01*
X25880214Y22084786D01*
X25867855Y22073583D01*
X25854456Y22063647D01*
X25840149Y22055071D01*
X25825069Y22047939D01*
X25809363Y22042319D01*
X25793182Y22038266D01*
X25776682Y22035818D01*
X25760021Y22035000D01*
X25429979Y22035000D01*
X25413318Y22035818D01*
X25396818Y22038266D01*
X25380637Y22042319D01*
X25364931Y22047939D01*
X25349851Y22055071D01*
X25335544Y22063647D01*
X25322145Y22073583D01*
X25309786Y22084786D01*
X25298583Y22097145D01*
X25288647Y22110544D01*
X25280071Y22124851D01*
X25272939Y22139931D01*
X25267319Y22155637D01*
X25263266Y22171818D01*
X25260818Y22188318D01*
X25260000Y22204979D01*
X25260000Y23645021D01*
X25260818Y23661682D01*
X25263266Y23678182D01*
X25267319Y23694363D01*
X25272939Y23710069D01*
X25280071Y23725149D01*
X25288647Y23739456D01*
X25298583Y23752855D01*
X25309786Y23765214D01*
X25322145Y23776417D01*
X25335544Y23786353D01*
X25349851Y23794929D01*
X25364931Y23802061D01*
X25380637Y23807681D01*
X25396818Y23811734D01*
X25413318Y23814182D01*
X25429979Y23815000D01*
X25760021Y23815000D01*
X25776682Y23814182D01*
X25776682Y23814182D01*
G37*
D20*
X25595000Y22925000D03*
D10*
G36*
X36684519Y29153796D02*
G01*
X36708785Y29150197D01*
X36732583Y29144236D01*
X36755681Y29135971D01*
X36777858Y29125482D01*
X36798900Y29112870D01*
X36818604Y29098256D01*
X36836781Y29081781D01*
X36853256Y29063604D01*
X36867870Y29043900D01*
X36880482Y29022858D01*
X36890971Y29000681D01*
X36899236Y28977583D01*
X36905197Y28953785D01*
X36908796Y28929519D01*
X36910000Y28905016D01*
X36910000Y28144984D01*
X36908796Y28120481D01*
X36905197Y28096215D01*
X36899236Y28072417D01*
X36890971Y28049319D01*
X36880482Y28027142D01*
X36867870Y28006100D01*
X36853256Y27986396D01*
X36836781Y27968219D01*
X36818604Y27951744D01*
X36798900Y27937130D01*
X36777858Y27924518D01*
X36755681Y27914029D01*
X36732583Y27905764D01*
X36708785Y27899803D01*
X36684519Y27896204D01*
X36660016Y27895000D01*
X34339984Y27895000D01*
X34315481Y27896204D01*
X34291215Y27899803D01*
X34267417Y27905764D01*
X34244319Y27914029D01*
X34222142Y27924518D01*
X34201100Y27937130D01*
X34181396Y27951744D01*
X34163219Y27968219D01*
X34146744Y27986396D01*
X34132130Y28006100D01*
X34119518Y28027142D01*
X34109029Y28049319D01*
X34100764Y28072417D01*
X34094803Y28096215D01*
X34091204Y28120481D01*
X34090000Y28144984D01*
X34090000Y28905016D01*
X34091204Y28929519D01*
X34094803Y28953785D01*
X34100764Y28977583D01*
X34109029Y29000681D01*
X34119518Y29022858D01*
X34132130Y29043900D01*
X34146744Y29063604D01*
X34163219Y29081781D01*
X34181396Y29098256D01*
X34201100Y29112870D01*
X34222142Y29125482D01*
X34244319Y29135971D01*
X34267417Y29144236D01*
X34291215Y29150197D01*
X34315481Y29153796D01*
X34339984Y29155000D01*
X36660016Y29155000D01*
X36684519Y29153796D01*
X36684519Y29153796D01*
G37*
D21*
X35500000Y28525000D03*
D10*
G36*
X36684519Y26103796D02*
G01*
X36708785Y26100197D01*
X36732583Y26094236D01*
X36755681Y26085971D01*
X36777858Y26075482D01*
X36798900Y26062870D01*
X36818604Y26048256D01*
X36836781Y26031781D01*
X36853256Y26013604D01*
X36867870Y25993900D01*
X36880482Y25972858D01*
X36890971Y25950681D01*
X36899236Y25927583D01*
X36905197Y25903785D01*
X36908796Y25879519D01*
X36910000Y25855016D01*
X36910000Y25094984D01*
X36908796Y25070481D01*
X36905197Y25046215D01*
X36899236Y25022417D01*
X36890971Y24999319D01*
X36880482Y24977142D01*
X36867870Y24956100D01*
X36853256Y24936396D01*
X36836781Y24918219D01*
X36818604Y24901744D01*
X36798900Y24887130D01*
X36777858Y24874518D01*
X36755681Y24864029D01*
X36732583Y24855764D01*
X36708785Y24849803D01*
X36684519Y24846204D01*
X36660016Y24845000D01*
X34339984Y24845000D01*
X34315481Y24846204D01*
X34291215Y24849803D01*
X34267417Y24855764D01*
X34244319Y24864029D01*
X34222142Y24874518D01*
X34201100Y24887130D01*
X34181396Y24901744D01*
X34163219Y24918219D01*
X34146744Y24936396D01*
X34132130Y24956100D01*
X34119518Y24977142D01*
X34109029Y24999319D01*
X34100764Y25022417D01*
X34094803Y25046215D01*
X34091204Y25070481D01*
X34090000Y25094984D01*
X34090000Y25855016D01*
X34091204Y25879519D01*
X34094803Y25903785D01*
X34100764Y25927583D01*
X34109029Y25950681D01*
X34119518Y25972858D01*
X34132130Y25993900D01*
X34146744Y26013604D01*
X34163219Y26031781D01*
X34181396Y26048256D01*
X34201100Y26062870D01*
X34222142Y26075482D01*
X34244319Y26085971D01*
X34267417Y26094236D01*
X34291215Y26100197D01*
X34315481Y26103796D01*
X34339984Y26105000D01*
X36660016Y26105000D01*
X36684519Y26103796D01*
X36684519Y26103796D01*
G37*
D21*
X35500000Y25475000D03*
D10*
G36*
X23734519Y31603796D02*
G01*
X23758785Y31600197D01*
X23782583Y31594236D01*
X23805681Y31585971D01*
X23827858Y31575482D01*
X23848900Y31562870D01*
X23868604Y31548256D01*
X23886781Y31531781D01*
X23903256Y31513604D01*
X23917870Y31493900D01*
X23930482Y31472858D01*
X23940971Y31450681D01*
X23949236Y31427583D01*
X23955197Y31403785D01*
X23958796Y31379519D01*
X23960000Y31355016D01*
X23960000Y30594984D01*
X23958796Y30570481D01*
X23955197Y30546215D01*
X23949236Y30522417D01*
X23940971Y30499319D01*
X23930482Y30477142D01*
X23917870Y30456100D01*
X23903256Y30436396D01*
X23886781Y30418219D01*
X23868604Y30401744D01*
X23848900Y30387130D01*
X23827858Y30374518D01*
X23805681Y30364029D01*
X23782583Y30355764D01*
X23758785Y30349803D01*
X23734519Y30346204D01*
X23710016Y30345000D01*
X22289984Y30345000D01*
X22265481Y30346204D01*
X22241215Y30349803D01*
X22217417Y30355764D01*
X22194319Y30364029D01*
X22172142Y30374518D01*
X22151100Y30387130D01*
X22131396Y30401744D01*
X22113219Y30418219D01*
X22096744Y30436396D01*
X22082130Y30456100D01*
X22069518Y30477142D01*
X22059029Y30499319D01*
X22050764Y30522417D01*
X22044803Y30546215D01*
X22041204Y30570481D01*
X22040000Y30594984D01*
X22040000Y31355016D01*
X22041204Y31379519D01*
X22044803Y31403785D01*
X22050764Y31427583D01*
X22059029Y31450681D01*
X22069518Y31472858D01*
X22082130Y31493900D01*
X22096744Y31513604D01*
X22113219Y31531781D01*
X22131396Y31548256D01*
X22151100Y31562870D01*
X22172142Y31575482D01*
X22194319Y31585971D01*
X22217417Y31594236D01*
X22241215Y31600197D01*
X22265481Y31603796D01*
X22289984Y31605000D01*
X23710016Y31605000D01*
X23734519Y31603796D01*
X23734519Y31603796D01*
G37*
D21*
X23000000Y30975000D03*
D10*
G36*
X23734519Y34653796D02*
G01*
X23758785Y34650197D01*
X23782583Y34644236D01*
X23805681Y34635971D01*
X23827858Y34625482D01*
X23848900Y34612870D01*
X23868604Y34598256D01*
X23886781Y34581781D01*
X23903256Y34563604D01*
X23917870Y34543900D01*
X23930482Y34522858D01*
X23940971Y34500681D01*
X23949236Y34477583D01*
X23955197Y34453785D01*
X23958796Y34429519D01*
X23960000Y34405016D01*
X23960000Y33644984D01*
X23958796Y33620481D01*
X23955197Y33596215D01*
X23949236Y33572417D01*
X23940971Y33549319D01*
X23930482Y33527142D01*
X23917870Y33506100D01*
X23903256Y33486396D01*
X23886781Y33468219D01*
X23868604Y33451744D01*
X23848900Y33437130D01*
X23827858Y33424518D01*
X23805681Y33414029D01*
X23782583Y33405764D01*
X23758785Y33399803D01*
X23734519Y33396204D01*
X23710016Y33395000D01*
X22289984Y33395000D01*
X22265481Y33396204D01*
X22241215Y33399803D01*
X22217417Y33405764D01*
X22194319Y33414029D01*
X22172142Y33424518D01*
X22151100Y33437130D01*
X22131396Y33451744D01*
X22113219Y33468219D01*
X22096744Y33486396D01*
X22082130Y33506100D01*
X22069518Y33527142D01*
X22059029Y33549319D01*
X22050764Y33572417D01*
X22044803Y33596215D01*
X22041204Y33620481D01*
X22040000Y33644984D01*
X22040000Y34405016D01*
X22041204Y34429519D01*
X22044803Y34453785D01*
X22050764Y34477583D01*
X22059029Y34500681D01*
X22069518Y34522858D01*
X22082130Y34543900D01*
X22096744Y34563604D01*
X22113219Y34581781D01*
X22131396Y34598256D01*
X22151100Y34612870D01*
X22172142Y34625482D01*
X22194319Y34635971D01*
X22217417Y34644236D01*
X22241215Y34650197D01*
X22265481Y34653796D01*
X22289984Y34655000D01*
X23710016Y34655000D01*
X23734519Y34653796D01*
X23734519Y34653796D01*
G37*
D21*
X23000000Y34025000D03*
D10*
G36*
X29429519Y20458796D02*
G01*
X29453785Y20455197D01*
X29477583Y20449236D01*
X29500681Y20440971D01*
X29522858Y20430482D01*
X29543900Y20417870D01*
X29563604Y20403256D01*
X29581781Y20386781D01*
X29598256Y20368604D01*
X29612870Y20348900D01*
X29625482Y20327858D01*
X29635971Y20305681D01*
X29644236Y20282583D01*
X29650197Y20258785D01*
X29653796Y20234519D01*
X29655000Y20210016D01*
X29655000Y18789984D01*
X29653796Y18765481D01*
X29650197Y18741215D01*
X29644236Y18717417D01*
X29635971Y18694319D01*
X29625482Y18672142D01*
X29612870Y18651100D01*
X29598256Y18631396D01*
X29581781Y18613219D01*
X29563604Y18596744D01*
X29543900Y18582130D01*
X29522858Y18569518D01*
X29500681Y18559029D01*
X29477583Y18550764D01*
X29453785Y18544803D01*
X29429519Y18541204D01*
X29405016Y18540000D01*
X28644984Y18540000D01*
X28620481Y18541204D01*
X28596215Y18544803D01*
X28572417Y18550764D01*
X28549319Y18559029D01*
X28527142Y18569518D01*
X28506100Y18582130D01*
X28486396Y18596744D01*
X28468219Y18613219D01*
X28451744Y18631396D01*
X28437130Y18651100D01*
X28424518Y18672142D01*
X28414029Y18694319D01*
X28405764Y18717417D01*
X28399803Y18741215D01*
X28396204Y18765481D01*
X28395000Y18789984D01*
X28395000Y20210016D01*
X28396204Y20234519D01*
X28399803Y20258785D01*
X28405764Y20282583D01*
X28414029Y20305681D01*
X28424518Y20327858D01*
X28437130Y20348900D01*
X28451744Y20368604D01*
X28468219Y20386781D01*
X28486396Y20403256D01*
X28506100Y20417870D01*
X28527142Y20430482D01*
X28549319Y20440971D01*
X28572417Y20449236D01*
X28596215Y20455197D01*
X28620481Y20458796D01*
X28644984Y20460000D01*
X29405016Y20460000D01*
X29429519Y20458796D01*
X29429519Y20458796D01*
G37*
D21*
X29025000Y19500000D03*
D10*
G36*
X26379519Y20458796D02*
G01*
X26403785Y20455197D01*
X26427583Y20449236D01*
X26450681Y20440971D01*
X26472858Y20430482D01*
X26493900Y20417870D01*
X26513604Y20403256D01*
X26531781Y20386781D01*
X26548256Y20368604D01*
X26562870Y20348900D01*
X26575482Y20327858D01*
X26585971Y20305681D01*
X26594236Y20282583D01*
X26600197Y20258785D01*
X26603796Y20234519D01*
X26605000Y20210016D01*
X26605000Y18789984D01*
X26603796Y18765481D01*
X26600197Y18741215D01*
X26594236Y18717417D01*
X26585971Y18694319D01*
X26575482Y18672142D01*
X26562870Y18651100D01*
X26548256Y18631396D01*
X26531781Y18613219D01*
X26513604Y18596744D01*
X26493900Y18582130D01*
X26472858Y18569518D01*
X26450681Y18559029D01*
X26427583Y18550764D01*
X26403785Y18544803D01*
X26379519Y18541204D01*
X26355016Y18540000D01*
X25594984Y18540000D01*
X25570481Y18541204D01*
X25546215Y18544803D01*
X25522417Y18550764D01*
X25499319Y18559029D01*
X25477142Y18569518D01*
X25456100Y18582130D01*
X25436396Y18596744D01*
X25418219Y18613219D01*
X25401744Y18631396D01*
X25387130Y18651100D01*
X25374518Y18672142D01*
X25364029Y18694319D01*
X25355764Y18717417D01*
X25349803Y18741215D01*
X25346204Y18765481D01*
X25345000Y18789984D01*
X25345000Y20210016D01*
X25346204Y20234519D01*
X25349803Y20258785D01*
X25355764Y20282583D01*
X25364029Y20305681D01*
X25374518Y20327858D01*
X25387130Y20348900D01*
X25401744Y20368604D01*
X25418219Y20386781D01*
X25436396Y20403256D01*
X25456100Y20417870D01*
X25477142Y20430482D01*
X25499319Y20440971D01*
X25522417Y20449236D01*
X25546215Y20455197D01*
X25570481Y20458796D01*
X25594984Y20460000D01*
X26355016Y20460000D01*
X26379519Y20458796D01*
X26379519Y20458796D01*
G37*
D21*
X25975000Y19500000D03*
D17*
X23000000Y25475000D03*
X23000000Y28525000D03*
D22*
X40550000Y17500000D03*
X42450000Y17500000D03*
X41500000Y19500000D03*
D23*
X36525000Y18000000D03*
X33475000Y18000000D03*
D24*
X8500000Y51000000D03*
D25*
X8500000Y53540000D03*
X11040000Y51000000D03*
X11040000Y53540000D03*
X13580000Y51000000D03*
X13580000Y53540000D03*
X16120000Y51000000D03*
X16120000Y53540000D03*
X18660000Y51000000D03*
X18660000Y53540000D03*
X21200000Y51000000D03*
X21200000Y53540000D03*
X23740000Y51000000D03*
X23740000Y53540000D03*
X26280000Y51000000D03*
X26280000Y53540000D03*
X28820000Y51000000D03*
X28820000Y53540000D03*
X31360000Y51000000D03*
X31360000Y53540000D03*
X33900000Y51000000D03*
X33900000Y53540000D03*
X36440000Y51000000D03*
X36440000Y53540000D03*
X38980000Y51000000D03*
X38980000Y53540000D03*
X41520000Y51000000D03*
X41520000Y53540000D03*
X44060000Y51000000D03*
X44060000Y53540000D03*
X46600000Y51000000D03*
X46600000Y53540000D03*
X49140000Y51000000D03*
X49140000Y53540000D03*
X51680000Y51000000D03*
X51680000Y53540000D03*
X54220000Y51000000D03*
X54220000Y53540000D03*
X56760000Y51000000D03*
X56760000Y53540000D03*
D17*
X16500000Y12475000D03*
X16500000Y15525000D03*
D26*
X13405000Y25620000D03*
X12135000Y25620000D03*
X10865000Y25620000D03*
X9595000Y25620000D03*
D27*
X11500000Y21590000D03*
D17*
X60500000Y28975000D03*
X60500000Y32025000D03*
X52000000Y28975000D03*
X52000000Y32025000D03*
D28*
X52000000Y37290000D03*
X52000000Y44710000D03*
X60500000Y37290000D03*
X60500000Y44710000D03*
D29*
X37500000Y4000000D03*
D30*
X40040000Y4000000D03*
D31*
X36000000Y11000000D03*
D32*
X41000000Y11000000D03*
D33*
X3500000Y21500000D03*
X3500000Y14500000D03*
X3500000Y40500000D03*
X3500000Y33500000D03*
D23*
X43525000Y27200000D03*
X40475000Y27200000D03*
D34*
X32550000Y2270000D03*
X34450000Y2270000D03*
X33500000Y4730000D03*
D17*
X19500000Y25025000D03*
X19500000Y21975000D03*
X16500000Y21975000D03*
X16500000Y25025000D03*
D23*
X43825000Y43400000D03*
X40775000Y43400000D03*
D17*
X19500000Y12475000D03*
X19500000Y15525000D03*
X13500000Y12475000D03*
X13500000Y15525000D03*
D35*
X23420000Y10500000D03*
X28500000Y10500000D03*
X25960000Y10500000D03*
X18120000Y47500000D03*
X15580000Y47500000D03*
X13040000Y47500000D03*
X10500000Y47500000D03*
D36*
X43200000Y37950000D03*
X43200000Y39850000D03*
X41200000Y38900000D03*
D10*
G36*
X32734519Y29153796D02*
G01*
X32758785Y29150197D01*
X32782583Y29144236D01*
X32805681Y29135971D01*
X32827858Y29125482D01*
X32848900Y29112870D01*
X32868604Y29098256D01*
X32886781Y29081781D01*
X32903256Y29063604D01*
X32917870Y29043900D01*
X32930482Y29022858D01*
X32940971Y29000681D01*
X32949236Y28977583D01*
X32955197Y28953785D01*
X32958796Y28929519D01*
X32960000Y28905016D01*
X32960000Y28144984D01*
X32958796Y28120481D01*
X32955197Y28096215D01*
X32949236Y28072417D01*
X32940971Y28049319D01*
X32930482Y28027142D01*
X32917870Y28006100D01*
X32903256Y27986396D01*
X32886781Y27968219D01*
X32868604Y27951744D01*
X32848900Y27937130D01*
X32827858Y27924518D01*
X32805681Y27914029D01*
X32782583Y27905764D01*
X32758785Y27899803D01*
X32734519Y27896204D01*
X32710016Y27895000D01*
X31289984Y27895000D01*
X31265481Y27896204D01*
X31241215Y27899803D01*
X31217417Y27905764D01*
X31194319Y27914029D01*
X31172142Y27924518D01*
X31151100Y27937130D01*
X31131396Y27951744D01*
X31113219Y27968219D01*
X31096744Y27986396D01*
X31082130Y28006100D01*
X31069518Y28027142D01*
X31059029Y28049319D01*
X31050764Y28072417D01*
X31044803Y28096215D01*
X31041204Y28120481D01*
X31040000Y28144984D01*
X31040000Y28905016D01*
X31041204Y28929519D01*
X31044803Y28953785D01*
X31050764Y28977583D01*
X31059029Y29000681D01*
X31069518Y29022858D01*
X31082130Y29043900D01*
X31096744Y29063604D01*
X31113219Y29081781D01*
X31131396Y29098256D01*
X31151100Y29112870D01*
X31172142Y29125482D01*
X31194319Y29135971D01*
X31217417Y29144236D01*
X31241215Y29150197D01*
X31265481Y29153796D01*
X31289984Y29155000D01*
X32710016Y29155000D01*
X32734519Y29153796D01*
X32734519Y29153796D01*
G37*
D21*
X32000000Y28525000D03*
D10*
G36*
X32734519Y26103796D02*
G01*
X32758785Y26100197D01*
X32782583Y26094236D01*
X32805681Y26085971D01*
X32827858Y26075482D01*
X32848900Y26062870D01*
X32868604Y26048256D01*
X32886781Y26031781D01*
X32903256Y26013604D01*
X32917870Y25993900D01*
X32930482Y25972858D01*
X32940971Y25950681D01*
X32949236Y25927583D01*
X32955197Y25903785D01*
X32958796Y25879519D01*
X32960000Y25855016D01*
X32960000Y25094984D01*
X32958796Y25070481D01*
X32955197Y25046215D01*
X32949236Y25022417D01*
X32940971Y24999319D01*
X32930482Y24977142D01*
X32917870Y24956100D01*
X32903256Y24936396D01*
X32886781Y24918219D01*
X32868604Y24901744D01*
X32848900Y24887130D01*
X32827858Y24874518D01*
X32805681Y24864029D01*
X32782583Y24855764D01*
X32758785Y24849803D01*
X32734519Y24846204D01*
X32710016Y24845000D01*
X31289984Y24845000D01*
X31265481Y24846204D01*
X31241215Y24849803D01*
X31217417Y24855764D01*
X31194319Y24864029D01*
X31172142Y24874518D01*
X31151100Y24887130D01*
X31131396Y24901744D01*
X31113219Y24918219D01*
X31096744Y24936396D01*
X31082130Y24956100D01*
X31069518Y24977142D01*
X31059029Y24999319D01*
X31050764Y25022417D01*
X31044803Y25046215D01*
X31041204Y25070481D01*
X31040000Y25094984D01*
X31040000Y25855016D01*
X31041204Y25879519D01*
X31044803Y25903785D01*
X31050764Y25927583D01*
X31059029Y25950681D01*
X31069518Y25972858D01*
X31082130Y25993900D01*
X31096744Y26013604D01*
X31113219Y26031781D01*
X31131396Y26048256D01*
X31151100Y26062870D01*
X31172142Y26075482D01*
X31194319Y26085971D01*
X31217417Y26094236D01*
X31241215Y26100197D01*
X31265481Y26103796D01*
X31289984Y26105000D01*
X32710016Y26105000D01*
X32734519Y26103796D01*
X32734519Y26103796D01*
G37*
D21*
X32000000Y25475000D03*
D10*
G36*
X26379519Y17458796D02*
G01*
X26403785Y17455197D01*
X26427583Y17449236D01*
X26450681Y17440971D01*
X26472858Y17430482D01*
X26493900Y17417870D01*
X26513604Y17403256D01*
X26531781Y17386781D01*
X26548256Y17368604D01*
X26562870Y17348900D01*
X26575482Y17327858D01*
X26585971Y17305681D01*
X26594236Y17282583D01*
X26600197Y17258785D01*
X26603796Y17234519D01*
X26605000Y17210016D01*
X26605000Y15789984D01*
X26603796Y15765481D01*
X26600197Y15741215D01*
X26594236Y15717417D01*
X26585971Y15694319D01*
X26575482Y15672142D01*
X26562870Y15651100D01*
X26548256Y15631396D01*
X26531781Y15613219D01*
X26513604Y15596744D01*
X26493900Y15582130D01*
X26472858Y15569518D01*
X26450681Y15559029D01*
X26427583Y15550764D01*
X26403785Y15544803D01*
X26379519Y15541204D01*
X26355016Y15540000D01*
X25594984Y15540000D01*
X25570481Y15541204D01*
X25546215Y15544803D01*
X25522417Y15550764D01*
X25499319Y15559029D01*
X25477142Y15569518D01*
X25456100Y15582130D01*
X25436396Y15596744D01*
X25418219Y15613219D01*
X25401744Y15631396D01*
X25387130Y15651100D01*
X25374518Y15672142D01*
X25364029Y15694319D01*
X25355764Y15717417D01*
X25349803Y15741215D01*
X25346204Y15765481D01*
X25345000Y15789984D01*
X25345000Y17210016D01*
X25346204Y17234519D01*
X25349803Y17258785D01*
X25355764Y17282583D01*
X25364029Y17305681D01*
X25374518Y17327858D01*
X25387130Y17348900D01*
X25401744Y17368604D01*
X25418219Y17386781D01*
X25436396Y17403256D01*
X25456100Y17417870D01*
X25477142Y17430482D01*
X25499319Y17440971D01*
X25522417Y17449236D01*
X25546215Y17455197D01*
X25570481Y17458796D01*
X25594984Y17460000D01*
X26355016Y17460000D01*
X26379519Y17458796D01*
X26379519Y17458796D01*
G37*
D21*
X25975000Y16500000D03*
D10*
G36*
X29429519Y17458796D02*
G01*
X29453785Y17455197D01*
X29477583Y17449236D01*
X29500681Y17440971D01*
X29522858Y17430482D01*
X29543900Y17417870D01*
X29563604Y17403256D01*
X29581781Y17386781D01*
X29598256Y17368604D01*
X29612870Y17348900D01*
X29625482Y17327858D01*
X29635971Y17305681D01*
X29644236Y17282583D01*
X29650197Y17258785D01*
X29653796Y17234519D01*
X29655000Y17210016D01*
X29655000Y15789984D01*
X29653796Y15765481D01*
X29650197Y15741215D01*
X29644236Y15717417D01*
X29635971Y15694319D01*
X29625482Y15672142D01*
X29612870Y15651100D01*
X29598256Y15631396D01*
X29581781Y15613219D01*
X29563604Y15596744D01*
X29543900Y15582130D01*
X29522858Y15569518D01*
X29500681Y15559029D01*
X29477583Y15550764D01*
X29453785Y15544803D01*
X29429519Y15541204D01*
X29405016Y15540000D01*
X28644984Y15540000D01*
X28620481Y15541204D01*
X28596215Y15544803D01*
X28572417Y15550764D01*
X28549319Y15559029D01*
X28527142Y15569518D01*
X28506100Y15582130D01*
X28486396Y15596744D01*
X28468219Y15613219D01*
X28451744Y15631396D01*
X28437130Y15651100D01*
X28424518Y15672142D01*
X28414029Y15694319D01*
X28405764Y15717417D01*
X28399803Y15741215D01*
X28396204Y15765481D01*
X28395000Y15789984D01*
X28395000Y17210016D01*
X28396204Y17234519D01*
X28399803Y17258785D01*
X28405764Y17282583D01*
X28414029Y17305681D01*
X28424518Y17327858D01*
X28437130Y17348900D01*
X28451744Y17368604D01*
X28468219Y17386781D01*
X28486396Y17403256D01*
X28506100Y17417870D01*
X28527142Y17430482D01*
X28549319Y17440971D01*
X28572417Y17449236D01*
X28596215Y17455197D01*
X28620481Y17458796D01*
X28644984Y17460000D01*
X29405016Y17460000D01*
X29429519Y17458796D01*
X29429519Y17458796D01*
G37*
D21*
X29025000Y16500000D03*
D37*
X15000000Y43000000D03*
X7000000Y16500000D03*
X7000000Y15000000D03*
X7000000Y13500000D03*
X7000000Y12000000D03*
X8500000Y12000000D03*
X8500000Y13500000D03*
X8500000Y15000000D03*
X8500000Y16500000D03*
X10000000Y16500000D03*
X10000000Y13500000D03*
X10000000Y12000000D03*
X20000000Y31000000D03*
X18000000Y31000000D03*
X16000000Y31000000D03*
X14000000Y31000000D03*
X17000000Y31000000D03*
X19000000Y31000000D03*
X15000000Y31000000D03*
X18000000Y43000000D03*
X17000000Y43000000D03*
X20000000Y43000000D03*
X20000000Y47000000D03*
X19000000Y43000000D03*
X16000000Y43000000D03*
X14000000Y43000000D03*
X24000000Y18000000D03*
X19500000Y23615154D03*
X37000000Y24000000D03*
X36000000Y24000000D03*
X35000000Y24000000D03*
X34000000Y24000000D03*
X33000000Y24000000D03*
X32000000Y24000000D03*
X31000000Y24000000D03*
X31000000Y23000000D03*
X32000000Y23000000D03*
X33000000Y23000000D03*
X34000000Y23000000D03*
X35000000Y23000000D03*
X36000000Y23000000D03*
X37000000Y23000000D03*
X22000000Y24000000D03*
X23000000Y24000000D03*
X24000000Y24000000D03*
X24000000Y23000000D03*
X23000000Y23000000D03*
X22000000Y23000000D03*
X16495142Y34995142D03*
X63000000Y22500000D03*
X8000000Y45000000D03*
X9000000Y45000000D03*
X10000000Y45000000D03*
X11000000Y45000000D03*
X30000000Y7500000D03*
X11500000Y37000000D03*
X10500000Y37000000D03*
X10500000Y36000000D03*
X11500000Y36000000D03*
X7500000Y37000000D03*
X9000000Y37000000D03*
X9000000Y29000000D03*
X10000000Y29000000D03*
X11000000Y27500000D03*
X10000000Y27500000D03*
X9000000Y27500000D03*
X11000000Y29000000D03*
X24500000Y4500000D03*
X21000000Y43000000D03*
X21000000Y47000000D03*
X12012653Y38487347D03*
X23500000Y48500000D03*
X22000000Y43000000D03*
X22000000Y47000000D03*
X54000000Y55275000D03*
X32500000Y8500000D03*
X33500000Y12500000D03*
X12444440Y52163201D03*
X20786000Y6786000D03*
X12000000Y29000000D03*
X12000000Y27500000D03*
X22000000Y2000000D03*
D38*
X13040000Y47500000D02*
X14265001Y46274999D01*
X19274999Y46274999D02*
X20000000Y47000000D01*
X14274999Y46274999D02*
X19274999Y46274999D01*
X14265001Y46274999D02*
X14274999Y46274999D01*
X20000000Y47000000D02*
X20000000Y47000000D01*
D39*
X29405000Y26700000D02*
X29391462Y26686462D01*
X29405000Y28055000D02*
X29405000Y26700000D01*
X29391462Y26686462D02*
X29391462Y25491739D01*
D38*
X25975000Y16500000D02*
X25975000Y19500000D01*
X25274290Y18799290D02*
X25274290Y18774290D01*
X25975000Y19500000D02*
X25274290Y18799290D01*
X25274290Y18774290D02*
X24500000Y18000000D01*
X24500000Y18000000D02*
X24000000Y18000000D01*
X19500000Y25025000D02*
X19500000Y24145000D01*
X19500000Y24145000D02*
X19500000Y23615154D01*
X33500000Y5465000D02*
X32965000Y6000000D01*
X33500000Y4730000D02*
X33500000Y5465000D01*
X32965000Y6000000D02*
X29500000Y6000000D01*
X29500000Y6000000D02*
X28500000Y7000000D01*
X28500000Y7000000D02*
X28500000Y10500000D01*
X8000000Y26830000D02*
X8095000Y26735000D01*
X8095000Y26735000D02*
X8095000Y25620000D01*
X8095000Y25620000D02*
X9595000Y25620000D01*
X8000000Y30000000D02*
X8000000Y26830000D01*
X9000000Y31000000D02*
X8000000Y30000000D01*
X14000000Y31000000D02*
X9000000Y31000000D01*
D40*
X16495142Y34995142D02*
X16328695Y34995142D01*
X14683459Y34925843D02*
X14081914Y34925843D01*
X14752758Y34995142D02*
X14683459Y34925843D01*
X16495142Y34995142D02*
X14752758Y34995142D01*
D38*
X53210000Y22475000D02*
X60500000Y22475000D01*
X52000000Y22475000D02*
X53210000Y22475000D01*
X62975000Y22475000D02*
X63000000Y22500000D01*
X60500000Y22475000D02*
X62975000Y22475000D01*
X39500000Y39000000D02*
X38980000Y39520000D01*
X40275000Y38900000D02*
X40175000Y39000000D01*
X40175000Y39000000D02*
X39500000Y39000000D01*
X41200000Y38900000D02*
X40275000Y38900000D01*
X38980000Y44315000D02*
X38980000Y44480000D01*
X40775000Y43400000D02*
X39895000Y43400000D01*
X39895000Y43400000D02*
X38980000Y44315000D01*
X38980000Y44480000D02*
X38980000Y51000000D01*
X38980000Y39520000D02*
X38980000Y44480000D01*
X19500000Y15525000D02*
X19500000Y17000000D01*
X19500000Y17000000D02*
X19000000Y17500000D01*
X19000000Y17500000D02*
X12000000Y17500000D01*
X12000000Y17500000D02*
X11000000Y16500000D01*
X11000000Y16500000D02*
X10000000Y16500000D01*
X14418199Y50161801D02*
X13580000Y51000000D01*
X15854999Y48725001D02*
X14418199Y50161801D01*
X16894999Y48725001D02*
X15854999Y48725001D01*
X18120000Y47500000D02*
X16894999Y48725001D01*
X13314999Y48725001D02*
X11878199Y50161801D01*
X11878199Y50161801D02*
X11040000Y51000000D01*
X14354999Y48725001D02*
X13314999Y48725001D01*
X15580000Y47500000D02*
X14354999Y48725001D01*
D39*
X37500000Y22000000D02*
X38500000Y23000000D01*
X37475000Y28525000D02*
X35500000Y28525000D01*
X21500000Y19500000D02*
X22500000Y18500000D01*
X30500000Y14000000D02*
X31500000Y15000000D01*
X23500000Y14000000D02*
X30500000Y14000000D01*
X31500000Y21000000D02*
X32500000Y22000000D01*
X22500000Y15000000D02*
X23500000Y14000000D01*
X32500000Y22000000D02*
X37500000Y22000000D01*
X22500000Y18500000D02*
X22500000Y15000000D01*
X38500000Y27500000D02*
X37475000Y28525000D01*
X17000000Y19500000D02*
X21500000Y19500000D01*
X16500000Y20000000D02*
X17000000Y19500000D01*
X16500000Y21975000D02*
X16500000Y20000000D01*
X30000000Y13500000D02*
X30500000Y14000000D01*
X30000000Y7500000D02*
X30000000Y13500000D01*
X33475000Y18000000D02*
X31500000Y18000000D01*
X31500000Y18000000D02*
X31500000Y21000000D01*
X31500000Y15000000D02*
X31500000Y18000000D01*
D38*
X40000000Y23000000D02*
X38500000Y23000000D01*
X41500000Y21500000D02*
X40000000Y23000000D01*
X41500000Y19500000D02*
X41500000Y21500000D01*
X39395000Y27000000D02*
X38500000Y27000000D01*
X40475000Y27200000D02*
X39595000Y27200000D01*
D39*
X38500000Y27000000D02*
X38500000Y27500000D01*
D38*
X39595000Y27200000D02*
X39395000Y27000000D01*
D39*
X38500000Y23000000D02*
X38500000Y27000000D01*
D40*
X14075000Y37135000D02*
X18925000Y37135000D01*
D38*
X27500000Y17000000D02*
X27500000Y21000000D01*
X28135000Y21635000D02*
X28135000Y22945000D01*
X27500000Y21000000D02*
X28135000Y21635000D01*
X28000000Y16500000D02*
X27500000Y17000000D01*
X29025000Y16500000D02*
X28000000Y16500000D01*
X26865000Y29610000D02*
X25475000Y31000000D01*
X26865000Y28055000D02*
X26865000Y29610000D01*
X25475000Y31000000D02*
X24000000Y31000000D01*
X23975000Y30975000D02*
X24000000Y31000000D01*
X23000000Y30975000D02*
X23975000Y30975000D01*
X50000000Y39000000D02*
X51500000Y40500000D01*
X51500000Y40500000D02*
X53500000Y40500000D01*
X50500000Y34500000D02*
X50000000Y35000000D01*
X50000000Y35000000D02*
X50000000Y39000000D01*
X53500000Y40500000D02*
X54220000Y41220000D01*
X54220000Y41220000D02*
X54220000Y51000000D01*
X60500000Y34000000D02*
X60000000Y34500000D01*
X60500000Y32025000D02*
X60500000Y34000000D01*
X51500000Y34500000D02*
X50500000Y34500000D01*
X60000000Y34500000D02*
X51500000Y34500000D01*
X52000000Y34500000D02*
X51500000Y34500000D01*
X13500000Y15525000D02*
X16500000Y15525000D01*
X19500000Y12475000D02*
X19500000Y13500000D01*
X19500000Y13500000D02*
X19000000Y14000000D01*
X19000000Y14000000D02*
X17000000Y14000000D01*
X17000000Y14000000D02*
X16500000Y14500000D01*
X16500000Y14500000D02*
X16500000Y15525000D01*
X17730000Y2214000D02*
X20214000Y2214000D01*
X20214000Y2214000D02*
X21000000Y3000000D01*
X21000000Y3000000D02*
X25500000Y3000000D01*
X25500000Y3000000D02*
X26000000Y3500000D01*
X26000000Y3500000D02*
X26000000Y6500000D01*
X26000000Y6500000D02*
X24500000Y8000000D01*
X24500000Y8000000D02*
X22500000Y8000000D01*
X19500000Y11000000D02*
X19500000Y12475000D01*
X22500000Y8000000D02*
X19500000Y11000000D01*
D40*
X10850000Y4500000D02*
X24500000Y4500000D01*
D38*
X10850000Y4500000D02*
X10850000Y7850000D01*
X10850000Y7850000D02*
X13500000Y10500000D01*
X13500000Y10500000D02*
X13500000Y12475000D01*
X13500000Y12475000D02*
X16500000Y12475000D01*
X26174991Y21049991D02*
X19545009Y21049991D01*
X26865000Y21740000D02*
X26174991Y21049991D01*
X19500000Y21095000D02*
X19500000Y21975000D01*
X19545009Y21049991D02*
X19500000Y21095000D01*
X26865000Y22945000D02*
X26865000Y21740000D01*
X16500000Y24000000D02*
X16500000Y25025000D01*
X18000000Y23145000D02*
X17355000Y23145000D01*
X17355000Y23145000D02*
X16500000Y24000000D01*
X19170000Y21975000D02*
X18000000Y23145000D01*
X19500000Y21975000D02*
X19170000Y21975000D01*
X20266914Y38735843D02*
X21000000Y39468929D01*
X18931914Y38735843D02*
X20266914Y38735843D01*
X21000000Y39468929D02*
X21000000Y40500000D01*
X21000000Y40500000D02*
X21000000Y43000000D01*
X20036799Y52376799D02*
X20361801Y52701801D01*
X20036799Y50441663D02*
X20036799Y52376799D01*
X20361801Y52701801D02*
X21200000Y53540000D01*
X21000000Y49478462D02*
X20036799Y50441663D01*
X21000000Y47000000D02*
X21000000Y49478462D01*
X14075000Y38405000D02*
X12095000Y38405000D01*
X12095000Y38405000D02*
X12012653Y38487347D01*
X27981801Y52701801D02*
X28820000Y53540000D01*
X27656799Y52376799D02*
X27981801Y52701801D01*
X25935261Y52376799D02*
X27656799Y52376799D01*
X24903201Y49903201D02*
X24903201Y51344739D01*
X24903201Y51344739D02*
X25935261Y52376799D01*
X23500000Y48500000D02*
X24903201Y49903201D01*
X20266914Y34925843D02*
X20272706Y34920051D01*
X18931914Y34925843D02*
X20266914Y34925843D01*
X20266914Y34925843D02*
X20500000Y35158929D01*
X20500000Y35158929D02*
X20500000Y38332519D01*
X21500000Y39332519D02*
X21500000Y40500000D01*
X20500000Y38332519D02*
X21500000Y39332519D01*
X21500000Y40500000D02*
X21500000Y42000000D01*
X21500000Y42000000D02*
X22000000Y42500000D01*
X22000000Y42500000D02*
X22000000Y43000000D01*
X25441801Y54378199D02*
X26280000Y53540000D01*
X25116799Y54703201D02*
X25441801Y54378199D01*
X22500000Y54021538D02*
X23181663Y54703201D01*
X22500000Y47500000D02*
X22500000Y54021538D01*
X23181663Y54703201D02*
X25116799Y54703201D01*
X22000000Y47000000D02*
X22500000Y47500000D01*
X48335000Y55275000D02*
X46600000Y53540000D01*
X54000000Y55275000D02*
X48335000Y55275000D01*
X50516799Y52376799D02*
X50841801Y52701801D01*
X50516799Y50655261D02*
X50516799Y52376799D01*
X50841801Y52701801D02*
X51680000Y53540000D01*
X49000000Y49138462D02*
X50516799Y50655261D01*
X51670000Y32025000D02*
X49000000Y34695000D01*
X52000000Y32025000D02*
X51670000Y32025000D01*
X49000000Y34695000D02*
X49000000Y49138462D01*
X53056799Y52376799D02*
X53381801Y52701801D01*
X53056799Y47096799D02*
X53056799Y52376799D01*
X53381801Y52701801D02*
X54220000Y53540000D01*
X52000000Y46040000D02*
X53056799Y47096799D01*
X52000000Y44710000D02*
X52000000Y46040000D01*
X55921801Y52701801D02*
X56760000Y53540000D01*
X60500000Y45538462D02*
X55500000Y50538462D01*
X55500000Y52280000D02*
X55921801Y52701801D01*
X55500000Y50538462D02*
X55500000Y52280000D01*
X60500000Y44710000D02*
X60500000Y45538462D01*
X43200000Y39850000D02*
X44850000Y39850000D01*
X44850000Y39850000D02*
X45500000Y40500000D01*
X45500000Y40500000D02*
X45500000Y43000000D01*
X45500000Y43000000D02*
X45000000Y43500000D01*
X44900000Y43400000D02*
X45000000Y43500000D01*
X43825000Y43400000D02*
X44900000Y43400000D01*
X43825000Y43400000D02*
X43825000Y45675000D01*
X37278199Y52701801D02*
X36440000Y53540000D01*
X39324739Y52376799D02*
X37603201Y52376799D01*
X40143201Y51558337D02*
X39324739Y52376799D01*
X40143201Y49356799D02*
X40143201Y51558337D01*
X37603201Y52376799D02*
X37278199Y52701801D01*
X43825000Y45675000D02*
X40143201Y49356799D01*
D39*
X36525000Y18000000D02*
X39050000Y18000000D01*
D38*
X39550000Y17500000D02*
X39050000Y18000000D01*
X40550000Y17500000D02*
X39550000Y17500000D01*
X36525000Y16790000D02*
X36525000Y18000000D01*
X36000000Y16265000D02*
X36525000Y16790000D01*
X32765000Y16265000D02*
X36000000Y16265000D01*
X32500000Y16000000D02*
X32765000Y16265000D01*
X32500000Y8500000D02*
X32500000Y16000000D01*
X32500000Y7500000D02*
X32500000Y8500000D01*
X34500000Y5500000D02*
X32500000Y7500000D01*
X34000000Y3500000D02*
X34500000Y4000000D01*
X34500000Y4000000D02*
X34500000Y5500000D01*
X32600000Y3500000D02*
X34000000Y3500000D01*
X32550000Y3450000D02*
X32600000Y3500000D01*
X32550000Y2270000D02*
X32550000Y3450000D01*
X42450000Y15950000D02*
X42450000Y17500000D01*
X42000000Y15500000D02*
X42450000Y15950000D01*
X41000000Y15500000D02*
X42000000Y15500000D01*
X38000000Y12500000D02*
X41000000Y15500000D01*
X33500000Y12500000D02*
X38000000Y12500000D01*
X8000000Y50500000D02*
X8500000Y51000000D01*
X10500000Y49000000D02*
X8500000Y51000000D01*
X10500000Y47500000D02*
X10500000Y49000000D01*
X56021538Y56000000D02*
X12500000Y56000000D01*
X58099999Y53921539D02*
X56021538Y56000000D01*
X58099999Y49940001D02*
X58099999Y53921539D01*
X12416799Y55916799D02*
X12500000Y56000000D01*
X12416799Y52981663D02*
X12416799Y55916799D01*
X12444440Y52954022D02*
X12416799Y52981663D01*
X12444440Y52163201D02*
X12444440Y52954022D01*
X53325000Y37290000D02*
X60500000Y37290000D01*
X52000000Y37290000D02*
X53325000Y37290000D01*
X61825000Y37290000D02*
X62500000Y37965000D01*
X60500000Y37290000D02*
X61825000Y37290000D01*
X62500000Y37965000D02*
X62500000Y46500000D01*
X62500000Y46500000D02*
X61000000Y48000000D01*
X60040000Y48000000D02*
X58099999Y49940001D01*
X61000000Y48000000D02*
X60040000Y48000000D01*
X41000000Y4460000D02*
X40040000Y3500000D01*
X41000000Y11000000D02*
X41000000Y4460000D01*
X60500000Y28975000D02*
X60500000Y25525000D01*
X52000000Y28950000D02*
X52000000Y25525000D01*
X21525000Y28025000D02*
X23000000Y28025000D01*
X22000000Y21500000D02*
X21000000Y22500000D01*
X21000000Y22500000D02*
X21000000Y27500000D01*
X25500000Y21500000D02*
X22000000Y21500000D01*
X25595000Y21595000D02*
X25500000Y21500000D01*
X21000000Y27500000D02*
X21525000Y28025000D01*
X25595000Y22945000D02*
X25595000Y21595000D01*
D41*
X17570000Y6786000D02*
X20786000Y6786000D01*
D38*
X34450000Y1535000D02*
X34450000Y2270000D01*
X34000000Y1085000D02*
X34450000Y1535000D01*
X30085000Y1085000D02*
X34000000Y1085000D01*
X29170000Y2000000D02*
X30085000Y1085000D01*
X22000000Y2000000D02*
X29170000Y2000000D01*
X29405000Y19880000D02*
X29025000Y19500000D01*
X29405000Y22945000D02*
X29405000Y19880000D01*
X24480000Y34025000D02*
X24505000Y34000000D01*
X23000000Y34025000D02*
X24480000Y34025000D01*
X24480000Y34025000D02*
X24975000Y34025000D01*
X24975000Y34520000D02*
X26955000Y36500000D01*
X24975000Y34025000D02*
X24975000Y34520000D01*
X45000000Y35500000D02*
X44670000Y35170000D01*
X45000000Y37500000D02*
X45000000Y35500000D01*
X44550000Y37950000D02*
X45000000Y37500000D01*
X44670000Y35170000D02*
X43500000Y35170000D01*
X43200000Y37950000D02*
X44550000Y37950000D01*
X43525000Y32605000D02*
X43500000Y32630000D01*
X43525000Y27200000D02*
X43525000Y32605000D01*
D42*
G36*
X12373000Y40500000D02*
G01*
X12375440Y40475224D01*
X12382667Y40451399D01*
X12394403Y40429443D01*
X12410197Y40410197D01*
X12429443Y40394403D01*
X12451399Y40382667D01*
X12475224Y40375440D01*
X12500000Y40373000D01*
X19873000Y40373000D01*
X19873000Y39502340D01*
X19846914Y39504909D01*
X18016914Y39504909D01*
X17900042Y39493398D01*
X17787661Y39459308D01*
X17684091Y39403948D01*
X17593310Y39329447D01*
X17518809Y39238666D01*
X17463449Y39135096D01*
X17429359Y39022715D01*
X17417848Y38905843D01*
X17417848Y38565843D01*
X17429359Y38448971D01*
X17463449Y38336590D01*
X17518809Y38233020D01*
X17593310Y38142239D01*
X17611879Y38127000D01*
X15401949Y38127000D01*
X15420518Y38142239D01*
X15495019Y38233020D01*
X15550379Y38336590D01*
X15584469Y38448971D01*
X15595980Y38565843D01*
X15595980Y38905843D01*
X15584469Y39022715D01*
X15550379Y39135096D01*
X15495019Y39238666D01*
X15420518Y39329447D01*
X15329737Y39403948D01*
X15226167Y39459308D01*
X15113786Y39493398D01*
X14996914Y39504909D01*
X13166914Y39504909D01*
X13050042Y39493398D01*
X12937661Y39459308D01*
X12834091Y39403948D01*
X12743310Y39329447D01*
X12668809Y39238666D01*
X12613449Y39135096D01*
X12595064Y39074489D01*
X12539834Y39129719D01*
X12404384Y39220224D01*
X12253880Y39282565D01*
X12094105Y39314347D01*
X11931201Y39314347D01*
X11771426Y39282565D01*
X11620922Y39220224D01*
X11485472Y39129719D01*
X11370281Y39014528D01*
X11279776Y38879078D01*
X11217435Y38728574D01*
X11185653Y38568799D01*
X11185653Y38405895D01*
X11217435Y38246120D01*
X11266776Y38127000D01*
X1127000Y38127000D01*
X1127000Y43373000D01*
X12373000Y43373000D01*
X12373000Y40500000D01*
X12373000Y40500000D01*
G37*
X12373000Y40500000D02*
X12375440Y40475224D01*
X12382667Y40451399D01*
X12394403Y40429443D01*
X12410197Y40410197D01*
X12429443Y40394403D01*
X12451399Y40382667D01*
X12475224Y40375440D01*
X12500000Y40373000D01*
X19873000Y40373000D01*
X19873000Y39502340D01*
X19846914Y39504909D01*
X18016914Y39504909D01*
X17900042Y39493398D01*
X17787661Y39459308D01*
X17684091Y39403948D01*
X17593310Y39329447D01*
X17518809Y39238666D01*
X17463449Y39135096D01*
X17429359Y39022715D01*
X17417848Y38905843D01*
X17417848Y38565843D01*
X17429359Y38448971D01*
X17463449Y38336590D01*
X17518809Y38233020D01*
X17593310Y38142239D01*
X17611879Y38127000D01*
X15401949Y38127000D01*
X15420518Y38142239D01*
X15495019Y38233020D01*
X15550379Y38336590D01*
X15584469Y38448971D01*
X15595980Y38565843D01*
X15595980Y38905843D01*
X15584469Y39022715D01*
X15550379Y39135096D01*
X15495019Y39238666D01*
X15420518Y39329447D01*
X15329737Y39403948D01*
X15226167Y39459308D01*
X15113786Y39493398D01*
X14996914Y39504909D01*
X13166914Y39504909D01*
X13050042Y39493398D01*
X12937661Y39459308D01*
X12834091Y39403948D01*
X12743310Y39329447D01*
X12668809Y39238666D01*
X12613449Y39135096D01*
X12595064Y39074489D01*
X12539834Y39129719D01*
X12404384Y39220224D01*
X12253880Y39282565D01*
X12094105Y39314347D01*
X11931201Y39314347D01*
X11771426Y39282565D01*
X11620922Y39220224D01*
X11485472Y39129719D01*
X11370281Y39014528D01*
X11279776Y38879078D01*
X11217435Y38728574D01*
X11185653Y38568799D01*
X11185653Y38405895D01*
X11217435Y38246120D01*
X11266776Y38127000D01*
X1127000Y38127000D01*
X1127000Y43373000D01*
X12373000Y43373000D01*
X12373000Y40500000D01*
G36*
X9373000Y35000000D02*
G01*
X9375440Y34975224D01*
X9382667Y34951399D01*
X9394403Y34929443D01*
X9410197Y34910197D01*
X9429443Y34894403D01*
X9451399Y34882667D01*
X9475224Y34875440D01*
X9500000Y34873000D01*
X12567848Y34873000D01*
X12567848Y34755843D01*
X12579359Y34638971D01*
X12613449Y34526590D01*
X12668809Y34423020D01*
X12743310Y34332239D01*
X12834091Y34257738D01*
X12937661Y34202378D01*
X13050042Y34168288D01*
X13166914Y34156777D01*
X13797540Y34156777D01*
X13921460Y34119186D01*
X14041707Y34107343D01*
X14643262Y34107343D01*
X14683459Y34103384D01*
X14723656Y34107343D01*
X14723666Y34107343D01*
X14843913Y34119186D01*
X14967833Y34156777D01*
X14996914Y34156777D01*
X15113786Y34168288D01*
X15141326Y34176642D01*
X16370959Y34176642D01*
X16413690Y34168142D01*
X16576594Y34168142D01*
X16736369Y34199924D01*
X16886873Y34262265D01*
X17022323Y34352770D01*
X17137514Y34467961D01*
X17228019Y34603411D01*
X17290360Y34753915D01*
X17314048Y34873000D01*
X17417848Y34873000D01*
X17417848Y34755843D01*
X17429359Y34638971D01*
X17463449Y34526590D01*
X17518809Y34423020D01*
X17593310Y34332239D01*
X17684091Y34257738D01*
X17787661Y34202378D01*
X17900042Y34168288D01*
X18016914Y34156777D01*
X19846914Y34156777D01*
X19873000Y34159346D01*
X19873000Y33427000D01*
X12500000Y33427000D01*
X12475224Y33424560D01*
X12451399Y33417333D01*
X12429443Y33405597D01*
X12410197Y33389803D01*
X12394403Y33370557D01*
X12382667Y33348601D01*
X12375440Y33324776D01*
X12373000Y33300000D01*
X12373000Y31552000D01*
X9027108Y31552000D01*
X9000000Y31554670D01*
X8972891Y31552000D01*
X8891789Y31544012D01*
X8787737Y31512448D01*
X8691842Y31461191D01*
X8607789Y31392211D01*
X8590508Y31371154D01*
X7809348Y30589992D01*
X1127000Y30626311D01*
X1127000Y35873000D01*
X9373000Y35873000D01*
X9373000Y35000000D01*
X9373000Y35000000D01*
G37*
X9373000Y35000000D02*
X9375440Y34975224D01*
X9382667Y34951399D01*
X9394403Y34929443D01*
X9410197Y34910197D01*
X9429443Y34894403D01*
X9451399Y34882667D01*
X9475224Y34875440D01*
X9500000Y34873000D01*
X12567848Y34873000D01*
X12567848Y34755843D01*
X12579359Y34638971D01*
X12613449Y34526590D01*
X12668809Y34423020D01*
X12743310Y34332239D01*
X12834091Y34257738D01*
X12937661Y34202378D01*
X13050042Y34168288D01*
X13166914Y34156777D01*
X13797540Y34156777D01*
X13921460Y34119186D01*
X14041707Y34107343D01*
X14643262Y34107343D01*
X14683459Y34103384D01*
X14723656Y34107343D01*
X14723666Y34107343D01*
X14843913Y34119186D01*
X14967833Y34156777D01*
X14996914Y34156777D01*
X15113786Y34168288D01*
X15141326Y34176642D01*
X16370959Y34176642D01*
X16413690Y34168142D01*
X16576594Y34168142D01*
X16736369Y34199924D01*
X16886873Y34262265D01*
X17022323Y34352770D01*
X17137514Y34467961D01*
X17228019Y34603411D01*
X17290360Y34753915D01*
X17314048Y34873000D01*
X17417848Y34873000D01*
X17417848Y34755843D01*
X17429359Y34638971D01*
X17463449Y34526590D01*
X17518809Y34423020D01*
X17593310Y34332239D01*
X17684091Y34257738D01*
X17787661Y34202378D01*
X17900042Y34168288D01*
X18016914Y34156777D01*
X19846914Y34156777D01*
X19873000Y34159346D01*
X19873000Y33427000D01*
X12500000Y33427000D01*
X12475224Y33424560D01*
X12451399Y33417333D01*
X12429443Y33405597D01*
X12410197Y33389803D01*
X12394403Y33370557D01*
X12382667Y33348601D01*
X12375440Y33324776D01*
X12373000Y33300000D01*
X12373000Y31552000D01*
X9027108Y31552000D01*
X9000000Y31554670D01*
X8972891Y31552000D01*
X8891789Y31544012D01*
X8787737Y31512448D01*
X8691842Y31461191D01*
X8607789Y31392211D01*
X8590508Y31371154D01*
X7809348Y30589992D01*
X1127000Y30626311D01*
X1127000Y35873000D01*
X9373000Y35873000D01*
X9373000Y35000000D01*
G36*
X19873000Y35692340D02*
G01*
X19846914Y35694909D01*
X18016914Y35694909D01*
X17900042Y35683398D01*
X17787661Y35649308D01*
X17745926Y35627000D01*
X17032837Y35627000D01*
X17022323Y35637514D01*
X16886873Y35728019D01*
X16736369Y35790360D01*
X16576594Y35822142D01*
X16413690Y35822142D01*
X16370959Y35813642D01*
X15555552Y35813642D01*
X15584469Y35908971D01*
X15595980Y36025843D01*
X15595980Y36365843D01*
X15584469Y36482715D01*
X15550379Y36595096D01*
X15495019Y36698666D01*
X15420518Y36789447D01*
X15329737Y36863948D01*
X15226167Y36919308D01*
X15113786Y36953398D01*
X14996914Y36964909D01*
X13166914Y36964909D01*
X13127000Y36960978D01*
X13127000Y37373000D01*
X19873000Y37373000D01*
X19873000Y35692340D01*
X19873000Y35692340D01*
G37*
X19873000Y35692340D02*
X19846914Y35694909D01*
X18016914Y35694909D01*
X17900042Y35683398D01*
X17787661Y35649308D01*
X17745926Y35627000D01*
X17032837Y35627000D01*
X17022323Y35637514D01*
X16886873Y35728019D01*
X16736369Y35790360D01*
X16576594Y35822142D01*
X16413690Y35822142D01*
X16370959Y35813642D01*
X15555552Y35813642D01*
X15584469Y35908971D01*
X15595980Y36025843D01*
X15595980Y36365843D01*
X15584469Y36482715D01*
X15550379Y36595096D01*
X15495019Y36698666D01*
X15420518Y36789447D01*
X15329737Y36863948D01*
X15226167Y36919308D01*
X15113786Y36953398D01*
X14996914Y36964909D01*
X13166914Y36964909D01*
X13127000Y36960978D01*
X13127000Y37373000D01*
X19873000Y37373000D01*
X19873000Y35692340D01*
G36*
X14873000Y36964909D02*
G01*
X13166914Y36964909D01*
X13050042Y36953398D01*
X12937661Y36919308D01*
X12834091Y36863948D01*
X12743310Y36789447D01*
X12668809Y36698666D01*
X12613449Y36595096D01*
X12579359Y36482715D01*
X12567848Y36365843D01*
X12567848Y36025843D01*
X12579359Y35908971D01*
X12613449Y35796590D01*
X12668809Y35693020D01*
X12722989Y35627000D01*
X10127000Y35627000D01*
X10127000Y36500000D01*
X10124560Y36524776D01*
X10117333Y36548601D01*
X10105597Y36570557D01*
X10089803Y36589803D01*
X10070557Y36605597D01*
X10048601Y36617333D01*
X10024776Y36624560D01*
X10000000Y36627000D01*
X6627000Y36627000D01*
X6627000Y37373000D01*
X14873000Y37373000D01*
X14873000Y36964909D01*
X14873000Y36964909D01*
G37*
X14873000Y36964909D02*
X13166914Y36964909D01*
X13050042Y36953398D01*
X12937661Y36919308D01*
X12834091Y36863948D01*
X12743310Y36789447D01*
X12668809Y36698666D01*
X12613449Y36595096D01*
X12579359Y36482715D01*
X12567848Y36365843D01*
X12567848Y36025843D01*
X12579359Y35908971D01*
X12613449Y35796590D01*
X12668809Y35693020D01*
X12722989Y35627000D01*
X10127000Y35627000D01*
X10127000Y36500000D01*
X10124560Y36524776D01*
X10117333Y36548601D01*
X10105597Y36570557D01*
X10089803Y36589803D01*
X10070557Y36605597D01*
X10048601Y36617333D01*
X10024776Y36624560D01*
X10000000Y36627000D01*
X6627000Y36627000D01*
X6627000Y37373000D01*
X14873000Y37373000D01*
X14873000Y36964909D01*
G36*
X20204782Y43241227D02*
G01*
X20173000Y43081452D01*
X20173000Y42918548D01*
X20204782Y42758773D01*
X20267123Y42608269D01*
X20357628Y42472819D01*
X20373000Y42457447D01*
X20373000Y41127000D01*
X13127000Y41127000D01*
X13127000Y43373000D01*
X20259364Y43373000D01*
X20204782Y43241227D01*
X20204782Y43241227D01*
G37*
X20204782Y43241227D02*
X20173000Y43081452D01*
X20173000Y42918548D01*
X20204782Y42758773D01*
X20267123Y42608269D01*
X20357628Y42472819D01*
X20373000Y42457447D01*
X20373000Y41127000D01*
X13127000Y41127000D01*
X13127000Y43373000D01*
X20259364Y43373000D01*
X20204782Y43241227D01*
G36*
X13616514Y19127000D02*
G01*
X1383487Y19127000D01*
X1383487Y23873000D01*
X13616514Y23873000D01*
X13616514Y19127000D01*
X13616514Y19127000D01*
G37*
X13616514Y19127000D02*
X1383487Y19127000D01*
X1383487Y23873000D01*
X13616514Y23873000D01*
X13616514Y19127000D01*
G36*
X10431225Y11127000D02*
G01*
X1185225Y11127000D01*
X1185225Y16873000D01*
X10431225Y16873000D01*
X10431225Y11127000D01*
X10431225Y11127000D01*
G37*
X10431225Y11127000D02*
X1185225Y11127000D01*
X1185225Y16873000D01*
X10431225Y16873000D01*
X10431225Y11127000D01*
G36*
X20373000Y30427000D02*
G01*
X13127000Y30427000D01*
X13127000Y32673000D01*
X20373000Y32673000D01*
X20373000Y30427000D01*
X20373000Y30427000D01*
G37*
X20373000Y30427000D02*
X13127000Y30427000D01*
X13127000Y32673000D01*
X20373000Y32673000D01*
X20373000Y30427000D01*
G36*
X13954180Y45815994D02*
G01*
X13956843Y45813808D01*
X14052738Y45762551D01*
X14156790Y45730987D01*
X14237892Y45722999D01*
X14237894Y45722999D01*
X14265000Y45720329D01*
X14292106Y45722999D01*
X19247893Y45722999D01*
X19274999Y45720329D01*
X19302105Y45722999D01*
X19302108Y45722999D01*
X19383210Y45730987D01*
X19487262Y45762551D01*
X19502168Y45770518D01*
X37373000Y45624036D01*
X37373000Y40627000D01*
X30627000Y40627000D01*
X30627000Y44000000D01*
X30624560Y44024776D01*
X30617333Y44048601D01*
X30605597Y44070557D01*
X30589803Y44089803D01*
X30570557Y44105597D01*
X30548601Y44117333D01*
X30524776Y44124560D01*
X30500000Y44127000D01*
X7127000Y44127000D01*
X7127000Y45871954D01*
X13954180Y45815994D01*
X13954180Y45815994D01*
G37*
X13954180Y45815994D02*
X13956843Y45813808D01*
X14052738Y45762551D01*
X14156790Y45730987D01*
X14237892Y45722999D01*
X14237894Y45722999D01*
X14265000Y45720329D01*
X14292106Y45722999D01*
X19247893Y45722999D01*
X19274999Y45720329D01*
X19302105Y45722999D01*
X19302108Y45722999D01*
X19383210Y45730987D01*
X19487262Y45762551D01*
X19502168Y45770518D01*
X37373000Y45624036D01*
X37373000Y40627000D01*
X30627000Y40627000D01*
X30627000Y44000000D01*
X30624560Y44024776D01*
X30617333Y44048601D01*
X30605597Y44070557D01*
X30589803Y44089803D01*
X30570557Y44105597D01*
X30548601Y44117333D01*
X30524776Y44124560D01*
X30500000Y44127000D01*
X7127000Y44127000D01*
X7127000Y45871954D01*
X13954180Y45815994D01*
D43*
G36*
X37396000Y27604000D02*
G01*
X30604000Y27604000D01*
X30604000Y41396000D01*
X37396000Y41396000D01*
X37396000Y27604000D01*
X37396000Y27604000D01*
G37*
X37396000Y27604000D02*
X30604000Y27604000D01*
X30604000Y41396000D01*
X37396000Y41396000D01*
X37396000Y27604000D01*
G36*
X37396000Y22620076D02*
G01*
X37379924Y22604000D01*
X30053509Y22604000D01*
X30053509Y23645021D01*
X30044219Y23739345D01*
X30016706Y23830044D01*
X29972027Y23913633D01*
X29911899Y23986899D01*
X29838633Y24047027D01*
X29755044Y24091706D01*
X29664345Y24119219D01*
X29570021Y24128509D01*
X29239979Y24128509D01*
X29145655Y24119219D01*
X29054956Y24091706D01*
X28971367Y24047027D01*
X28898101Y23986899D01*
X28837973Y23913633D01*
X28793294Y23830044D01*
X28770000Y23753253D01*
X28746706Y23830044D01*
X28702027Y23913633D01*
X28641899Y23986899D01*
X28568633Y24047027D01*
X28485044Y24091706D01*
X28394345Y24119219D01*
X28300021Y24128509D01*
X27969979Y24128509D01*
X27875655Y24119219D01*
X27784956Y24091706D01*
X27701367Y24047027D01*
X27628101Y23986899D01*
X27567973Y23913633D01*
X27523294Y23830044D01*
X27500000Y23753253D01*
X27476706Y23830044D01*
X27432027Y23913633D01*
X27371899Y23986899D01*
X27298633Y24047027D01*
X27215044Y24091706D01*
X27124345Y24119219D01*
X27030021Y24128509D01*
X26699979Y24128509D01*
X26605655Y24119219D01*
X26514956Y24091706D01*
X26431367Y24047027D01*
X26358101Y23986899D01*
X26297973Y23913633D01*
X26253294Y23830044D01*
X26230000Y23753253D01*
X26206706Y23830044D01*
X26162027Y23913633D01*
X26101899Y23986899D01*
X26028633Y24047027D01*
X25945044Y24091706D01*
X25854345Y24119219D01*
X25760021Y24128509D01*
X25429979Y24128509D01*
X25335655Y24119219D01*
X25244956Y24091706D01*
X25161367Y24047027D01*
X25088101Y23986899D01*
X25027973Y23913633D01*
X24983294Y23830044D01*
X24955781Y23739345D01*
X24946491Y23645021D01*
X24946491Y22604000D01*
X21604000Y22604000D01*
X21604000Y26396000D01*
X37396000Y26396000D01*
X37396000Y22620076D01*
X37396000Y22620076D01*
G37*
X37396000Y22620076D02*
X37379924Y22604000D01*
X30053509Y22604000D01*
X30053509Y23645021D01*
X30044219Y23739345D01*
X30016706Y23830044D01*
X29972027Y23913633D01*
X29911899Y23986899D01*
X29838633Y24047027D01*
X29755044Y24091706D01*
X29664345Y24119219D01*
X29570021Y24128509D01*
X29239979Y24128509D01*
X29145655Y24119219D01*
X29054956Y24091706D01*
X28971367Y24047027D01*
X28898101Y23986899D01*
X28837973Y23913633D01*
X28793294Y23830044D01*
X28770000Y23753253D01*
X28746706Y23830044D01*
X28702027Y23913633D01*
X28641899Y23986899D01*
X28568633Y24047027D01*
X28485044Y24091706D01*
X28394345Y24119219D01*
X28300021Y24128509D01*
X27969979Y24128509D01*
X27875655Y24119219D01*
X27784956Y24091706D01*
X27701367Y24047027D01*
X27628101Y23986899D01*
X27567973Y23913633D01*
X27523294Y23830044D01*
X27500000Y23753253D01*
X27476706Y23830044D01*
X27432027Y23913633D01*
X27371899Y23986899D01*
X27298633Y24047027D01*
X27215044Y24091706D01*
X27124345Y24119219D01*
X27030021Y24128509D01*
X26699979Y24128509D01*
X26605655Y24119219D01*
X26514956Y24091706D01*
X26431367Y24047027D01*
X26358101Y23986899D01*
X26297973Y23913633D01*
X26253294Y23830044D01*
X26230000Y23753253D01*
X26206706Y23830044D01*
X26162027Y23913633D01*
X26101899Y23986899D01*
X26028633Y24047027D01*
X25945044Y24091706D01*
X25854345Y24119219D01*
X25760021Y24128509D01*
X25429979Y24128509D01*
X25335655Y24119219D01*
X25244956Y24091706D01*
X25161367Y24047027D01*
X25088101Y23986899D01*
X25027973Y23913633D01*
X24983294Y23830044D01*
X24955781Y23739345D01*
X24946491Y23645021D01*
X24946491Y22604000D01*
X21604000Y22604000D01*
X21604000Y26396000D01*
X37396000Y26396000D01*
X37396000Y22620076D01*
G36*
X26146000Y29710989D02*
G01*
X26146000Y27104000D01*
X14000000Y27104000D01*
X13979711Y27102002D01*
X13960201Y27096083D01*
X13942221Y27086473D01*
X13926461Y27073539D01*
X13913527Y27057779D01*
X13903917Y27039799D01*
X13897998Y27020289D01*
X13896000Y27000000D01*
X13896000Y24604000D01*
X10278061Y24604000D01*
X10294645Y24635025D01*
X10312485Y24693837D01*
X10318509Y24755000D01*
X10318509Y26485000D01*
X10312485Y26546163D01*
X10294645Y26604975D01*
X10265673Y26659176D01*
X10226684Y26706684D01*
X10179176Y26745673D01*
X10124975Y26774645D01*
X10104000Y26781008D01*
X10104000Y27000000D01*
X10102002Y27020289D01*
X10096083Y27039799D01*
X10086473Y27057779D01*
X10073539Y27073539D01*
X10057779Y27086473D01*
X10039799Y27096083D01*
X10020289Y27102002D01*
X10000000Y27104000D01*
X8604000Y27104000D01*
X8604000Y29896000D01*
X25960989Y29896000D01*
X26146000Y29710989D01*
X26146000Y29710989D01*
G37*
X26146000Y29710989D02*
X26146000Y27104000D01*
X14000000Y27104000D01*
X13979711Y27102002D01*
X13960201Y27096083D01*
X13942221Y27086473D01*
X13926461Y27073539D01*
X13913527Y27057779D01*
X13903917Y27039799D01*
X13897998Y27020289D01*
X13896000Y27000000D01*
X13896000Y24604000D01*
X10278061Y24604000D01*
X10294645Y24635025D01*
X10312485Y24693837D01*
X10318509Y24755000D01*
X10318509Y26485000D01*
X10312485Y26546163D01*
X10294645Y26604975D01*
X10265673Y26659176D01*
X10226684Y26706684D01*
X10179176Y26745673D01*
X10124975Y26774645D01*
X10104000Y26781008D01*
X10104000Y27000000D01*
X10102002Y27020289D01*
X10096083Y27039799D01*
X10086473Y27057779D01*
X10073539Y27073539D01*
X10057779Y27086473D01*
X10039799Y27096083D01*
X10020289Y27102002D01*
X10000000Y27104000D01*
X8604000Y27104000D01*
X8604000Y29896000D01*
X25960989Y29896000D01*
X26146000Y29710989D01*
G36*
X28896000Y29487837D02*
G01*
X28808356Y29440991D01*
X28690627Y29344373D01*
X28594009Y29226644D01*
X28522216Y29092328D01*
X28478006Y28946587D01*
X28463078Y28795021D01*
X28463078Y27354979D01*
X28467319Y27311922D01*
X27802681Y27311922D01*
X27806922Y27354979D01*
X27806922Y28795021D01*
X27791994Y28946587D01*
X27747784Y29092328D01*
X27675991Y29226644D01*
X27604000Y29314365D01*
X27604000Y31500000D01*
X27602002Y31520289D01*
X27596083Y31539799D01*
X27586473Y31557779D01*
X27573539Y31573539D01*
X27557779Y31586473D01*
X27539799Y31596083D01*
X27520289Y31602002D01*
X27500000Y31604000D01*
X25888153Y31604000D01*
X25881970Y31609074D01*
X25755326Y31676767D01*
X25617909Y31718452D01*
X25510811Y31729000D01*
X25510808Y31729000D01*
X25475000Y31732527D01*
X25439192Y31729000D01*
X25104000Y31729000D01*
X25104000Y34396000D01*
X28896000Y34396000D01*
X28896000Y29487837D01*
X28896000Y29487837D01*
G37*
X28896000Y29487837D02*
X28808356Y29440991D01*
X28690627Y29344373D01*
X28594009Y29226644D01*
X28522216Y29092328D01*
X28478006Y28946587D01*
X28463078Y28795021D01*
X28463078Y27354979D01*
X28467319Y27311922D01*
X27802681Y27311922D01*
X27806922Y27354979D01*
X27806922Y28795021D01*
X27791994Y28946587D01*
X27747784Y29092328D01*
X27675991Y29226644D01*
X27604000Y29314365D01*
X27604000Y31500000D01*
X27602002Y31520289D01*
X27596083Y31539799D01*
X27586473Y31557779D01*
X27573539Y31573539D01*
X27557779Y31586473D01*
X27539799Y31596083D01*
X27520289Y31602002D01*
X27500000Y31604000D01*
X25888153Y31604000D01*
X25881970Y31609074D01*
X25755326Y31676767D01*
X25617909Y31718452D01*
X25510811Y31729000D01*
X25510808Y31729000D01*
X25475000Y31732527D01*
X25439192Y31729000D01*
X25104000Y31729000D01*
X25104000Y34396000D01*
X28896000Y34396000D01*
X28896000Y29487837D01*
M02*
