G04 #@! TF.GenerationSoftware,KiCad,Pcbnew,(5.1.2-1)-1*
G04 #@! TF.CreationDate,2019-07-25T00:26:34-07:00*
G04 #@! TF.ProjectId,first_design,66697273-745f-4646-9573-69676e2e6b69,rev?*
G04 #@! TF.SameCoordinates,Original*
G04 #@! TF.FileFunction,Legend,Bot*
G04 #@! TF.FilePolarity,Positive*
%FSLAX46Y46*%
G04 Gerber Fmt 4.6, Leading zero omitted, Abs format (unit mm)*
G04 Created by KiCad (PCBNEW (5.1.2-1)-1) date 2019-07-25 00:26:34*
%MOMM*%
%LPD*%
G04 APERTURE LIST*
%ADD10C,0.120000*%
%ADD11C,0.150000*%
G04 APERTURE END LIST*
D10*
X32300000Y1450000D02*
G75*
G03X33000000Y2150000I0J700000D01*
G01*
X31000000Y2150000D02*
G75*
G03X31700000Y1450000I700000J0D01*
G01*
X31700000Y5550000D02*
G75*
G03X31000000Y4850000I0J-700000D01*
G01*
X33000000Y4850000D02*
G75*
G03X32300000Y5550000I-700000J0D01*
G01*
X33000000Y2100000D02*
X33000000Y4900000D01*
X32300000Y5550000D02*
X31700000Y5550000D01*
X31000000Y4900000D02*
X31000000Y2100000D01*
X31700000Y1450000D02*
X32300000Y1450000D01*
X23950000Y7200000D02*
G75*
G03X24650000Y6500000I700000J0D01*
G01*
X24650000Y8500000D02*
G75*
G03X23950000Y7800000I0J-700000D01*
G01*
X28050000Y7800000D02*
G75*
G03X27350000Y8500000I-700000J0D01*
G01*
X27350000Y6500000D02*
G75*
G03X28050000Y7200000I0J700000D01*
G01*
X24600000Y6500000D02*
X27400000Y6500000D01*
X28050000Y7200000D02*
X28050000Y7800000D01*
X27400000Y8500000D02*
X24600000Y8500000D01*
X23950000Y7800000D02*
X23950000Y7200000D01*
X31700000Y13050000D02*
G75*
G03X31000000Y12350000I0J-700000D01*
G01*
X33000000Y12350000D02*
G75*
G03X32300000Y13050000I-700000J0D01*
G01*
X32300000Y8950000D02*
G75*
G03X33000000Y9650000I0J700000D01*
G01*
X31000000Y9650000D02*
G75*
G03X31700000Y8950000I700000J0D01*
G01*
X31000000Y12400000D02*
X31000000Y9600000D01*
X31700000Y8950000D02*
X32300000Y8950000D01*
X33000000Y9600000D02*
X33000000Y12400000D01*
X32300000Y13050000D02*
X31700000Y13050000D01*
D11*
X33452380Y4333333D02*
X34166666Y4333333D01*
X34309523Y4380952D01*
X34404761Y4476190D01*
X34452380Y4619047D01*
X34452380Y4714285D01*
X34452380Y3857142D02*
X33452380Y3857142D01*
X33452380Y3476190D01*
X33500000Y3380952D01*
X33547619Y3333333D01*
X33642857Y3285714D01*
X33785714Y3285714D01*
X33880952Y3333333D01*
X33928571Y3380952D01*
X33976190Y3476190D01*
X33976190Y3857142D01*
X33785714Y2428571D02*
X34452380Y2428571D01*
X33404761Y2666666D02*
X34119047Y2904761D01*
X34119047Y2285714D01*
X30952380Y1714285D02*
X30952380Y2285714D01*
X30952380Y2000000D02*
X29952380Y2000000D01*
X30095238Y2095238D01*
X30190476Y2190476D01*
X30238095Y2285714D01*
X29952380Y4833333D02*
X29952380Y4214285D01*
X30333333Y4547619D01*
X30333333Y4404761D01*
X30380952Y4309523D01*
X30428571Y4261904D01*
X30523809Y4214285D01*
X30761904Y4214285D01*
X30857142Y4261904D01*
X30904761Y4309523D01*
X30952380Y4404761D01*
X30952380Y4690476D01*
X30904761Y4785714D01*
X30857142Y4833333D01*
X26833333Y6047619D02*
X26833333Y5333333D01*
X26880952Y5190476D01*
X26976190Y5095238D01*
X27119047Y5047619D01*
X27214285Y5047619D01*
X26357142Y5047619D02*
X26357142Y6047619D01*
X25976190Y6047619D01*
X25880952Y6000000D01*
X25833333Y5952380D01*
X25785714Y5857142D01*
X25785714Y5714285D01*
X25833333Y5619047D01*
X25880952Y5571428D01*
X25976190Y5523809D01*
X26357142Y5523809D01*
X25452380Y6047619D02*
X24833333Y6047619D01*
X25166666Y5666666D01*
X25023809Y5666666D01*
X24928571Y5619047D01*
X24880952Y5571428D01*
X24833333Y5476190D01*
X24833333Y5238095D01*
X24880952Y5142857D01*
X24928571Y5095238D01*
X25023809Y5047619D01*
X25309523Y5047619D01*
X25404761Y5095238D01*
X25452380Y5142857D01*
X23214285Y7047619D02*
X23785714Y7047619D01*
X23500000Y7047619D02*
X23500000Y8047619D01*
X23595238Y7904761D01*
X23690476Y7809523D01*
X23785714Y7761904D01*
X29333333Y8047619D02*
X28714285Y8047619D01*
X29047619Y7666666D01*
X28904761Y7666666D01*
X28809523Y7619047D01*
X28761904Y7571428D01*
X28714285Y7476190D01*
X28714285Y7238095D01*
X28761904Y7142857D01*
X28809523Y7095238D01*
X28904761Y7047619D01*
X29190476Y7047619D01*
X29285714Y7095238D01*
X29333333Y7142857D01*
X33452380Y11833333D02*
X34166666Y11833333D01*
X34309523Y11880952D01*
X34404761Y11976190D01*
X34452380Y12119047D01*
X34452380Y12214285D01*
X34452380Y11357142D02*
X33452380Y11357142D01*
X33452380Y10976190D01*
X33500000Y10880952D01*
X33547619Y10833333D01*
X33642857Y10785714D01*
X33785714Y10785714D01*
X33880952Y10833333D01*
X33928571Y10880952D01*
X33976190Y10976190D01*
X33976190Y11357142D01*
X33547619Y10404761D02*
X33500000Y10357142D01*
X33452380Y10261904D01*
X33452380Y10023809D01*
X33500000Y9928571D01*
X33547619Y9880952D01*
X33642857Y9833333D01*
X33738095Y9833333D01*
X33880952Y9880952D01*
X34452380Y10452380D01*
X34452380Y9833333D01*
X32452380Y13314285D02*
X32452380Y13885714D01*
X32452380Y13600000D02*
X31452380Y13600000D01*
X31595238Y13695238D01*
X31690476Y13790476D01*
X31738095Y13885714D01*
X31452380Y8733333D02*
X31452380Y8114285D01*
X31833333Y8447619D01*
X31833333Y8304761D01*
X31880952Y8209523D01*
X31928571Y8161904D01*
X32023809Y8114285D01*
X32261904Y8114285D01*
X32357142Y8161904D01*
X32404761Y8209523D01*
X32452380Y8304761D01*
X32452380Y8590476D01*
X32404761Y8685714D01*
X32357142Y8733333D01*
M02*
