G04 #@! TF.GenerationSoftware,KiCad,Pcbnew,(5.1.2-1)-1*
G04 #@! TF.CreationDate,2019-07-25T00:26:34-07:00*
G04 #@! TF.ProjectId,first_design,66697273-745f-4646-9573-69676e2e6b69,rev?*
G04 #@! TF.SameCoordinates,Original*
G04 #@! TF.FileFunction,Copper,L2,Bot*
G04 #@! TF.FilePolarity,Positive*
%FSLAX46Y46*%
G04 Gerber Fmt 4.6, Leading zero omitted, Abs format (unit mm)*
G04 Created by KiCad (PCBNEW (5.1.2-1)-1) date 2019-07-25 00:26:34*
%MOMM*%
%LPD*%
G04 APERTURE LIST*
%ADD10R,1.430000X1.700000*%
%ADD11C,1.700000*%
%ADD12R,1.324000X1.324000*%
%ADD13R,1.500000X1.000000*%
%ADD14C,0.500000*%
%ADD15C,0.100000*%
%ADD16R,1.676400X1.676400*%
%ADD17C,1.676400*%
%ADD18R,1.000000X1.500000*%
%ADD19R,2.100000X2.100000*%
%ADD20C,2.100000*%
%ADD21R,1.650000X1.650000*%
%ADD22C,1.650000*%
%ADD23C,1.800000*%
%ADD24C,0.800000*%
%ADD25C,0.400000*%
%ADD26C,0.250000*%
%ADD27C,0.783000*%
%ADD28C,0.254000*%
%ADD29C,0.200000*%
G04 APERTURE END LIST*
D10*
X43500000Y35170000D03*
D11*
X43500000Y32630000D03*
D12*
X26738000Y25500000D03*
X28262000Y25500000D03*
D13*
X32000000Y3500000D03*
D14*
X32000000Y4800000D03*
D15*
G36*
X31250602Y4800000D02*
G01*
X31250602Y4824534D01*
X31255412Y4873365D01*
X31264984Y4921490D01*
X31279228Y4968445D01*
X31298005Y5013778D01*
X31321136Y5057051D01*
X31348396Y5097850D01*
X31379524Y5135779D01*
X31414221Y5170476D01*
X31452150Y5201604D01*
X31492949Y5228864D01*
X31536222Y5251995D01*
X31581555Y5270772D01*
X31628510Y5285016D01*
X31676635Y5294588D01*
X31725466Y5299398D01*
X31750000Y5299398D01*
X31750000Y5300000D01*
X32250000Y5300000D01*
X32250000Y5299398D01*
X32274534Y5299398D01*
X32323365Y5294588D01*
X32371490Y5285016D01*
X32418445Y5270772D01*
X32463778Y5251995D01*
X32507051Y5228864D01*
X32547850Y5201604D01*
X32585779Y5170476D01*
X32620476Y5135779D01*
X32651604Y5097850D01*
X32678864Y5057051D01*
X32701995Y5013778D01*
X32720772Y4968445D01*
X32735016Y4921490D01*
X32744588Y4873365D01*
X32749398Y4824534D01*
X32749398Y4800000D01*
X32750000Y4800000D01*
X32750000Y4250000D01*
X31250000Y4250000D01*
X31250000Y4800000D01*
X31250602Y4800000D01*
X31250602Y4800000D01*
G37*
D14*
X32000000Y2200000D03*
D15*
G36*
X32750000Y2750000D02*
G01*
X32750000Y2200000D01*
X32749398Y2200000D01*
X32749398Y2175466D01*
X32744588Y2126635D01*
X32735016Y2078510D01*
X32720772Y2031555D01*
X32701995Y1986222D01*
X32678864Y1942949D01*
X32651604Y1902150D01*
X32620476Y1864221D01*
X32585779Y1829524D01*
X32547850Y1798396D01*
X32507051Y1771136D01*
X32463778Y1748005D01*
X32418445Y1729228D01*
X32371490Y1714984D01*
X32323365Y1705412D01*
X32274534Y1700602D01*
X32250000Y1700602D01*
X32250000Y1700000D01*
X31750000Y1700000D01*
X31750000Y1700602D01*
X31725466Y1700602D01*
X31676635Y1705412D01*
X31628510Y1714984D01*
X31581555Y1729228D01*
X31536222Y1748005D01*
X31492949Y1771136D01*
X31452150Y1798396D01*
X31414221Y1829524D01*
X31379524Y1864221D01*
X31348396Y1902150D01*
X31321136Y1942949D01*
X31298005Y1986222D01*
X31279228Y2031555D01*
X31264984Y2078510D01*
X31255412Y2126635D01*
X31250602Y2175466D01*
X31250602Y2200000D01*
X31250000Y2200000D01*
X31250000Y2750000D01*
X32750000Y2750000D01*
X32750000Y2750000D01*
G37*
D16*
X8500000Y51000000D03*
D17*
X8500000Y53540000D03*
X11040000Y51000000D03*
X11040000Y53540000D03*
X13580000Y51000000D03*
X13580000Y53540000D03*
X16120000Y51000000D03*
X16120000Y53540000D03*
X18660000Y51000000D03*
X18660000Y53540000D03*
X21200000Y51000000D03*
X21200000Y53540000D03*
X23740000Y51000000D03*
X23740000Y53540000D03*
X26280000Y51000000D03*
X26280000Y53540000D03*
X28820000Y51000000D03*
X28820000Y53540000D03*
X31360000Y51000000D03*
X31360000Y53540000D03*
X33900000Y51000000D03*
X33900000Y53540000D03*
X36440000Y51000000D03*
X36440000Y53540000D03*
X38980000Y51000000D03*
X38980000Y53540000D03*
X41520000Y51000000D03*
X41520000Y53540000D03*
X44060000Y51000000D03*
X44060000Y53540000D03*
X46600000Y51000000D03*
X46600000Y53540000D03*
X49140000Y51000000D03*
X49140000Y53540000D03*
X51680000Y51000000D03*
X51680000Y53540000D03*
X54220000Y51000000D03*
X54220000Y53540000D03*
X56760000Y51000000D03*
X56760000Y53540000D03*
D18*
X26000000Y7500000D03*
D14*
X27300000Y7500000D03*
D15*
G36*
X27300000Y8249398D02*
G01*
X27324534Y8249398D01*
X27373365Y8244588D01*
X27421490Y8235016D01*
X27468445Y8220772D01*
X27513778Y8201995D01*
X27557051Y8178864D01*
X27597850Y8151604D01*
X27635779Y8120476D01*
X27670476Y8085779D01*
X27701604Y8047850D01*
X27728864Y8007051D01*
X27751995Y7963778D01*
X27770772Y7918445D01*
X27785016Y7871490D01*
X27794588Y7823365D01*
X27799398Y7774534D01*
X27799398Y7750000D01*
X27800000Y7750000D01*
X27800000Y7250000D01*
X27799398Y7250000D01*
X27799398Y7225466D01*
X27794588Y7176635D01*
X27785016Y7128510D01*
X27770772Y7081555D01*
X27751995Y7036222D01*
X27728864Y6992949D01*
X27701604Y6952150D01*
X27670476Y6914221D01*
X27635779Y6879524D01*
X27597850Y6848396D01*
X27557051Y6821136D01*
X27513778Y6798005D01*
X27468445Y6779228D01*
X27421490Y6764984D01*
X27373365Y6755412D01*
X27324534Y6750602D01*
X27300000Y6750602D01*
X27300000Y6750000D01*
X26750000Y6750000D01*
X26750000Y8250000D01*
X27300000Y8250000D01*
X27300000Y8249398D01*
X27300000Y8249398D01*
G37*
D14*
X24700000Y7500000D03*
D15*
G36*
X25250000Y6750000D02*
G01*
X24700000Y6750000D01*
X24700000Y6750602D01*
X24675466Y6750602D01*
X24626635Y6755412D01*
X24578510Y6764984D01*
X24531555Y6779228D01*
X24486222Y6798005D01*
X24442949Y6821136D01*
X24402150Y6848396D01*
X24364221Y6879524D01*
X24329524Y6914221D01*
X24298396Y6952150D01*
X24271136Y6992949D01*
X24248005Y7036222D01*
X24229228Y7081555D01*
X24214984Y7128510D01*
X24205412Y7176635D01*
X24200602Y7225466D01*
X24200602Y7250000D01*
X24200000Y7250000D01*
X24200000Y7750000D01*
X24200602Y7750000D01*
X24200602Y7774534D01*
X24205412Y7823365D01*
X24214984Y7871490D01*
X24229228Y7918445D01*
X24248005Y7963778D01*
X24271136Y8007051D01*
X24298396Y8047850D01*
X24329524Y8085779D01*
X24364221Y8120476D01*
X24402150Y8151604D01*
X24442949Y8178864D01*
X24486222Y8201995D01*
X24531555Y8220772D01*
X24578510Y8235016D01*
X24626635Y8244588D01*
X24675466Y8249398D01*
X24700000Y8249398D01*
X24700000Y8250000D01*
X25250000Y8250000D01*
X25250000Y6750000D01*
X25250000Y6750000D01*
G37*
D13*
X32000000Y11000000D03*
D14*
X32000000Y9700000D03*
D15*
G36*
X32749398Y9700000D02*
G01*
X32749398Y9675466D01*
X32744588Y9626635D01*
X32735016Y9578510D01*
X32720772Y9531555D01*
X32701995Y9486222D01*
X32678864Y9442949D01*
X32651604Y9402150D01*
X32620476Y9364221D01*
X32585779Y9329524D01*
X32547850Y9298396D01*
X32507051Y9271136D01*
X32463778Y9248005D01*
X32418445Y9229228D01*
X32371490Y9214984D01*
X32323365Y9205412D01*
X32274534Y9200602D01*
X32250000Y9200602D01*
X32250000Y9200000D01*
X31750000Y9200000D01*
X31750000Y9200602D01*
X31725466Y9200602D01*
X31676635Y9205412D01*
X31628510Y9214984D01*
X31581555Y9229228D01*
X31536222Y9248005D01*
X31492949Y9271136D01*
X31452150Y9298396D01*
X31414221Y9329524D01*
X31379524Y9364221D01*
X31348396Y9402150D01*
X31321136Y9442949D01*
X31298005Y9486222D01*
X31279228Y9531555D01*
X31264984Y9578510D01*
X31255412Y9626635D01*
X31250602Y9675466D01*
X31250602Y9700000D01*
X31250000Y9700000D01*
X31250000Y10250000D01*
X32750000Y10250000D01*
X32750000Y9700000D01*
X32749398Y9700000D01*
X32749398Y9700000D01*
G37*
D14*
X32000000Y12300000D03*
D15*
G36*
X31250000Y11750000D02*
G01*
X31250000Y12300000D01*
X31250602Y12300000D01*
X31250602Y12324534D01*
X31255412Y12373365D01*
X31264984Y12421490D01*
X31279228Y12468445D01*
X31298005Y12513778D01*
X31321136Y12557051D01*
X31348396Y12597850D01*
X31379524Y12635779D01*
X31414221Y12670476D01*
X31452150Y12701604D01*
X31492949Y12728864D01*
X31536222Y12751995D01*
X31581555Y12770772D01*
X31628510Y12785016D01*
X31676635Y12794588D01*
X31725466Y12799398D01*
X31750000Y12799398D01*
X31750000Y12800000D01*
X32250000Y12800000D01*
X32250000Y12799398D01*
X32274534Y12799398D01*
X32323365Y12794588D01*
X32371490Y12785016D01*
X32418445Y12770772D01*
X32463778Y12751995D01*
X32507051Y12728864D01*
X32547850Y12701604D01*
X32585779Y12670476D01*
X32620476Y12635779D01*
X32651604Y12597850D01*
X32678864Y12557051D01*
X32701995Y12513778D01*
X32720772Y12468445D01*
X32735016Y12421490D01*
X32744588Y12373365D01*
X32749398Y12324534D01*
X32749398Y12300000D01*
X32750000Y12300000D01*
X32750000Y11750000D01*
X31250000Y11750000D01*
X31250000Y11750000D01*
G37*
D19*
X37500000Y4000000D03*
D20*
X40040000Y4000000D03*
D21*
X36000000Y11000000D03*
D22*
X41000000Y11000000D03*
D23*
X23420000Y10500000D03*
X28500000Y10500000D03*
X25960000Y10500000D03*
X18120000Y47500000D03*
X15580000Y47500000D03*
X13040000Y47500000D03*
X10500000Y47500000D03*
D24*
X15000000Y43000000D03*
X7000000Y16500000D03*
X7000000Y15000000D03*
X7000000Y13500000D03*
X7000000Y12000000D03*
X8500000Y12000000D03*
X8500000Y13500000D03*
X8500000Y15000000D03*
X8500000Y16500000D03*
X10000000Y16500000D03*
X10000000Y13500000D03*
X10000000Y12000000D03*
X20000000Y31000000D03*
X18000000Y31000000D03*
X16000000Y31000000D03*
X14000000Y31000000D03*
X17000000Y31000000D03*
X19000000Y31000000D03*
X15000000Y31000000D03*
X18000000Y43000000D03*
X17000000Y43000000D03*
X20000000Y43000000D03*
X20000000Y47000000D03*
X19000000Y43000000D03*
X16000000Y43000000D03*
X14000000Y43000000D03*
X24000000Y18000000D03*
X19500000Y23615154D03*
X37000000Y24000000D03*
X36000000Y24000000D03*
X35000000Y24000000D03*
X34000000Y24000000D03*
X33000000Y24000000D03*
X32000000Y24000000D03*
X31000000Y24000000D03*
X31000000Y23000000D03*
X32000000Y23000000D03*
X33000000Y23000000D03*
X34000000Y23000000D03*
X35000000Y23000000D03*
X36000000Y23000000D03*
X37000000Y23000000D03*
X22000000Y24000000D03*
X23000000Y24000000D03*
X24000000Y24000000D03*
X24000000Y23000000D03*
X23000000Y23000000D03*
X22000000Y23000000D03*
X16495142Y34995142D03*
X63000000Y22500000D03*
X8000000Y45000000D03*
X9000000Y45000000D03*
X10000000Y45000000D03*
X11000000Y45000000D03*
X30000000Y7500000D03*
X11500000Y37000000D03*
X10500000Y37000000D03*
X10500000Y36000000D03*
X11500000Y36000000D03*
X7500000Y37000000D03*
X9000000Y37000000D03*
X9000000Y29000000D03*
X10000000Y29000000D03*
X11000000Y27500000D03*
X10000000Y27500000D03*
X9000000Y27500000D03*
X11000000Y29000000D03*
X24500000Y4500000D03*
X21000000Y43000000D03*
X21000000Y47000000D03*
X12012653Y38487347D03*
X23500000Y48500000D03*
X22000000Y43000000D03*
X22000000Y47000000D03*
X54000000Y55275000D03*
X32500000Y8500000D03*
X33500000Y12500000D03*
X12444440Y52163201D03*
X20786000Y6786000D03*
X12000000Y29000000D03*
X12000000Y27500000D03*
X22000000Y2000000D03*
D25*
X30500000Y7500000D02*
X30000000Y7500000D01*
X27300000Y7500000D02*
X30500000Y7500000D01*
X31000000Y7500000D02*
X30500000Y7500000D01*
X32500000Y6000000D02*
X31000000Y7500000D01*
X32500000Y4800000D02*
X32500000Y6000000D01*
X24700000Y7500000D02*
X24700000Y4700000D01*
X24700000Y4700000D02*
X24500000Y4500000D01*
D26*
X21000000Y43000000D02*
X21000000Y47000000D01*
X12012653Y38487347D02*
X12012653Y43987347D01*
X12012653Y43987347D02*
X12012653Y43987347D01*
X17531999Y48725001D02*
X23274999Y48725001D01*
X16894999Y48088001D02*
X17531999Y48725001D01*
X16894999Y46911999D02*
X16894999Y48088001D01*
X13970347Y43987347D02*
X16894999Y46911999D01*
X12012653Y43987347D02*
X13970347Y43987347D01*
X23274999Y48725001D02*
X23500000Y48500000D01*
X22000000Y43000000D02*
X22000000Y47000000D01*
X54000000Y55500000D02*
X54000000Y55275000D01*
X58500000Y52000000D02*
X58500000Y53521538D01*
X63663201Y49836799D02*
X60663201Y49836799D01*
X64616053Y48883947D02*
X63663201Y49836799D01*
X64616053Y8116053D02*
X64616053Y48883947D01*
X56521538Y55500000D02*
X54000000Y55500000D01*
X63000000Y6500000D02*
X64616053Y8116053D01*
X60758027Y6500000D02*
X63000000Y6500000D01*
X58648982Y4390955D02*
X60758027Y6500000D01*
X58648982Y901016D02*
X58648982Y4390955D01*
X58247966Y500000D02*
X58648982Y901016D01*
X58500000Y53521538D02*
X56521538Y55500000D01*
X60663201Y49836799D02*
X58500000Y52000000D01*
X23500000Y500000D02*
X58247966Y500000D01*
X23420000Y10500000D02*
X23420000Y9920000D01*
X23420000Y9920000D02*
X23000000Y9500000D01*
X23000000Y1000000D02*
X23500000Y500000D01*
X23000000Y9500000D02*
X23000000Y1000000D01*
D27*
X25960000Y7540000D02*
X26000000Y7500000D01*
X25960000Y10500000D02*
X25960000Y7540000D01*
D25*
X32500000Y9700000D02*
X32500000Y8500000D01*
X32000000Y3500000D02*
X37500000Y3500000D01*
D26*
X33347592Y12300000D02*
X32500000Y12300000D01*
X33547592Y12500000D02*
X33347592Y12300000D01*
X33500000Y12500000D02*
X33547592Y12500000D01*
X8500000Y51000000D02*
X8504989Y51000000D01*
X8504989Y51000000D02*
X9663201Y52158212D01*
X10481663Y52163201D02*
X12262124Y52163201D01*
X10476674Y52158212D02*
X10481663Y52163201D01*
X9663201Y52158212D02*
X10476674Y52158212D01*
X12262124Y52163201D02*
X12444440Y52163201D01*
D25*
X32000000Y11000000D02*
X36000000Y11000000D01*
D28*
G36*
X11873000Y54583946D02*
G01*
X11804162Y54807844D01*
X11542135Y54932563D01*
X11260811Y55003768D01*
X10971001Y55018719D01*
X10683843Y54976845D01*
X10410372Y54879754D01*
X10275838Y54807844D01*
X10199630Y54559975D01*
X11040000Y53719605D01*
X11054143Y53733748D01*
X11233748Y53554143D01*
X11219605Y53540000D01*
X11233748Y53525858D01*
X11054143Y53346253D01*
X11040000Y53360395D01*
X11025858Y53346253D01*
X10846253Y53525858D01*
X10860395Y53540000D01*
X10020025Y54380370D01*
X9772156Y54304162D01*
X9770125Y54299895D01*
X9767844Y54304162D01*
X9519975Y54380370D01*
X8679605Y53540000D01*
X8693748Y53525858D01*
X8514143Y53346253D01*
X8500000Y53360395D01*
X7659630Y52520025D01*
X7735838Y52272156D01*
X7746112Y52267266D01*
X7661800Y52267266D01*
X7578093Y52259022D01*
X7497604Y52234605D01*
X7423424Y52194955D01*
X7358405Y52141595D01*
X7305045Y52076576D01*
X7265395Y52002396D01*
X7240978Y51921907D01*
X7232734Y51838200D01*
X7232734Y50161800D01*
X7240978Y50078093D01*
X7265395Y49997604D01*
X7305045Y49923424D01*
X7358405Y49858405D01*
X7423424Y49805045D01*
X7497604Y49765395D01*
X7578093Y49740978D01*
X7661800Y49732734D01*
X9338200Y49732734D01*
X9421907Y49740978D01*
X9502396Y49765395D01*
X9576576Y49805045D01*
X9641595Y49858405D01*
X9694955Y49923424D01*
X9734605Y49997604D01*
X9759022Y50078093D01*
X9767266Y50161800D01*
X9767266Y51481632D01*
X9891847Y51606212D01*
X9923414Y51606212D01*
X9918794Y51599297D01*
X9823421Y51369045D01*
X9774800Y51124611D01*
X9774800Y50875389D01*
X9823421Y50630955D01*
X9918794Y50400703D01*
X10057255Y50193482D01*
X10233482Y50017255D01*
X10440703Y49878794D01*
X10670955Y49783421D01*
X10915389Y49734800D01*
X11164611Y49734800D01*
X11409045Y49783421D01*
X11639297Y49878794D01*
X11846518Y50017255D01*
X11873000Y50043737D01*
X11873000Y48141998D01*
X11864028Y48128570D01*
X11770000Y47901567D01*
X11675972Y48128570D01*
X11530748Y48345913D01*
X11345913Y48530748D01*
X11128570Y48675972D01*
X10887072Y48776004D01*
X10630698Y48827000D01*
X10369302Y48827000D01*
X10112928Y48776004D01*
X9871430Y48675972D01*
X9654087Y48530748D01*
X9469252Y48345913D01*
X9324028Y48128570D01*
X9223996Y47887072D01*
X9173000Y47630698D01*
X9173000Y47369302D01*
X9223996Y47112928D01*
X9324028Y46871430D01*
X9469252Y46654087D01*
X9654087Y46469252D01*
X9871430Y46324028D01*
X10112928Y46223996D01*
X10369302Y46173000D01*
X10630698Y46173000D01*
X10887072Y46223996D01*
X11128570Y46324028D01*
X11345913Y46469252D01*
X11530748Y46654087D01*
X11675972Y46871430D01*
X11770000Y47098433D01*
X11864028Y46871430D01*
X11873000Y46858002D01*
X11873000Y44627000D01*
X452000Y44627000D01*
X452000Y52675019D01*
X1723000Y52675019D01*
X1723000Y52324981D01*
X1791289Y51981668D01*
X1925243Y51658275D01*
X2119714Y51367229D01*
X2367229Y51119714D01*
X2658275Y50925243D01*
X2981668Y50791289D01*
X3324981Y50723000D01*
X3675019Y50723000D01*
X4018332Y50791289D01*
X4341725Y50925243D01*
X4632771Y51119714D01*
X4880286Y51367229D01*
X5074757Y51658275D01*
X5208711Y51981668D01*
X5277000Y52324981D01*
X5277000Y52675019D01*
X5208711Y53018332D01*
X5074757Y53341725D01*
X4988378Y53471001D01*
X7021281Y53471001D01*
X7063155Y53183843D01*
X7160246Y52910372D01*
X7232156Y52775838D01*
X7480025Y52699630D01*
X8320395Y53540000D01*
X7480025Y54380370D01*
X7232156Y54304162D01*
X7107437Y54042135D01*
X7036232Y53760811D01*
X7021281Y53471001D01*
X4988378Y53471001D01*
X4880286Y53632771D01*
X4632771Y53880286D01*
X4341725Y54074757D01*
X4018332Y54208711D01*
X3675019Y54277000D01*
X3324981Y54277000D01*
X2981668Y54208711D01*
X2658275Y54074757D01*
X2367229Y53880286D01*
X2119714Y53632771D01*
X1925243Y53341725D01*
X1791289Y53018332D01*
X1723000Y52675019D01*
X452000Y52675019D01*
X452000Y53477891D01*
X502654Y53994492D01*
X607166Y54340656D01*
X870348Y54559975D01*
X7659630Y54559975D01*
X8500000Y53719605D01*
X9340370Y54559975D01*
X9264162Y54807844D01*
X9002135Y54932563D01*
X8720811Y55003768D01*
X8431001Y55018719D01*
X8143843Y54976845D01*
X7870372Y54879754D01*
X7735838Y54807844D01*
X7659630Y54559975D01*
X870348Y54559975D01*
X2605832Y56006210D01*
X3003439Y56048000D01*
X11873000Y56048000D01*
X11873000Y54583946D01*
X11873000Y54583946D01*
G37*
X11873000Y54583946D02*
X11804162Y54807844D01*
X11542135Y54932563D01*
X11260811Y55003768D01*
X10971001Y55018719D01*
X10683843Y54976845D01*
X10410372Y54879754D01*
X10275838Y54807844D01*
X10199630Y54559975D01*
X11040000Y53719605D01*
X11054143Y53733748D01*
X11233748Y53554143D01*
X11219605Y53540000D01*
X11233748Y53525858D01*
X11054143Y53346253D01*
X11040000Y53360395D01*
X11025858Y53346253D01*
X10846253Y53525858D01*
X10860395Y53540000D01*
X10020025Y54380370D01*
X9772156Y54304162D01*
X9770125Y54299895D01*
X9767844Y54304162D01*
X9519975Y54380370D01*
X8679605Y53540000D01*
X8693748Y53525858D01*
X8514143Y53346253D01*
X8500000Y53360395D01*
X7659630Y52520025D01*
X7735838Y52272156D01*
X7746112Y52267266D01*
X7661800Y52267266D01*
X7578093Y52259022D01*
X7497604Y52234605D01*
X7423424Y52194955D01*
X7358405Y52141595D01*
X7305045Y52076576D01*
X7265395Y52002396D01*
X7240978Y51921907D01*
X7232734Y51838200D01*
X7232734Y50161800D01*
X7240978Y50078093D01*
X7265395Y49997604D01*
X7305045Y49923424D01*
X7358405Y49858405D01*
X7423424Y49805045D01*
X7497604Y49765395D01*
X7578093Y49740978D01*
X7661800Y49732734D01*
X9338200Y49732734D01*
X9421907Y49740978D01*
X9502396Y49765395D01*
X9576576Y49805045D01*
X9641595Y49858405D01*
X9694955Y49923424D01*
X9734605Y49997604D01*
X9759022Y50078093D01*
X9767266Y50161800D01*
X9767266Y51481632D01*
X9891847Y51606212D01*
X9923414Y51606212D01*
X9918794Y51599297D01*
X9823421Y51369045D01*
X9774800Y51124611D01*
X9774800Y50875389D01*
X9823421Y50630955D01*
X9918794Y50400703D01*
X10057255Y50193482D01*
X10233482Y50017255D01*
X10440703Y49878794D01*
X10670955Y49783421D01*
X10915389Y49734800D01*
X11164611Y49734800D01*
X11409045Y49783421D01*
X11639297Y49878794D01*
X11846518Y50017255D01*
X11873000Y50043737D01*
X11873000Y48141998D01*
X11864028Y48128570D01*
X11770000Y47901567D01*
X11675972Y48128570D01*
X11530748Y48345913D01*
X11345913Y48530748D01*
X11128570Y48675972D01*
X10887072Y48776004D01*
X10630698Y48827000D01*
X10369302Y48827000D01*
X10112928Y48776004D01*
X9871430Y48675972D01*
X9654087Y48530748D01*
X9469252Y48345913D01*
X9324028Y48128570D01*
X9223996Y47887072D01*
X9173000Y47630698D01*
X9173000Y47369302D01*
X9223996Y47112928D01*
X9324028Y46871430D01*
X9469252Y46654087D01*
X9654087Y46469252D01*
X9871430Y46324028D01*
X10112928Y46223996D01*
X10369302Y46173000D01*
X10630698Y46173000D01*
X10887072Y46223996D01*
X11128570Y46324028D01*
X11345913Y46469252D01*
X11530748Y46654087D01*
X11675972Y46871430D01*
X11770000Y47098433D01*
X11864028Y46871430D01*
X11873000Y46858002D01*
X11873000Y44627000D01*
X452000Y44627000D01*
X452000Y52675019D01*
X1723000Y52675019D01*
X1723000Y52324981D01*
X1791289Y51981668D01*
X1925243Y51658275D01*
X2119714Y51367229D01*
X2367229Y51119714D01*
X2658275Y50925243D01*
X2981668Y50791289D01*
X3324981Y50723000D01*
X3675019Y50723000D01*
X4018332Y50791289D01*
X4341725Y50925243D01*
X4632771Y51119714D01*
X4880286Y51367229D01*
X5074757Y51658275D01*
X5208711Y51981668D01*
X5277000Y52324981D01*
X5277000Y52675019D01*
X5208711Y53018332D01*
X5074757Y53341725D01*
X4988378Y53471001D01*
X7021281Y53471001D01*
X7063155Y53183843D01*
X7160246Y52910372D01*
X7232156Y52775838D01*
X7480025Y52699630D01*
X8320395Y53540000D01*
X7480025Y54380370D01*
X7232156Y54304162D01*
X7107437Y54042135D01*
X7036232Y53760811D01*
X7021281Y53471001D01*
X4988378Y53471001D01*
X4880286Y53632771D01*
X4632771Y53880286D01*
X4341725Y54074757D01*
X4018332Y54208711D01*
X3675019Y54277000D01*
X3324981Y54277000D01*
X2981668Y54208711D01*
X2658275Y54074757D01*
X2367229Y53880286D01*
X2119714Y53632771D01*
X1925243Y53341725D01*
X1791289Y53018332D01*
X1723000Y52675019D01*
X452000Y52675019D01*
X452000Y53477891D01*
X502654Y53994492D01*
X607166Y54340656D01*
X870348Y54559975D01*
X7659630Y54559975D01*
X8500000Y53719605D01*
X9340370Y54559975D01*
X9264162Y54807844D01*
X9002135Y54932563D01*
X8720811Y55003768D01*
X8431001Y55018719D01*
X8143843Y54976845D01*
X7870372Y54879754D01*
X7735838Y54807844D01*
X7659630Y54559975D01*
X870348Y54559975D01*
X2605832Y56006210D01*
X3003439Y56048000D01*
X11873000Y56048000D01*
X11873000Y54583946D01*
D29*
G36*
X53764315Y56051949D02*
G01*
X53617268Y55991041D01*
X53484930Y55902615D01*
X53372385Y55790070D01*
X53283959Y55657732D01*
X53223051Y55510685D01*
X53192000Y55354581D01*
X53192000Y55195419D01*
X53223051Y55039315D01*
X53283959Y54892268D01*
X53372385Y54759930D01*
X53484930Y54647385D01*
X53559574Y54597509D01*
X53425594Y54507987D01*
X53252013Y54334406D01*
X53115632Y54130297D01*
X53021691Y53903503D01*
X52973800Y53662740D01*
X52973800Y53417260D01*
X53021691Y53176497D01*
X53115632Y52949703D01*
X53252013Y52745594D01*
X53425594Y52572013D01*
X53629703Y52435632D01*
X53856497Y52341691D01*
X54097260Y52293800D01*
X54342740Y52293800D01*
X54583503Y52341691D01*
X54810297Y52435632D01*
X55014406Y52572013D01*
X55187987Y52745594D01*
X55324368Y52949703D01*
X55418309Y53176497D01*
X55466200Y53417260D01*
X55466200Y53662740D01*
X55418309Y53903503D01*
X55324368Y54130297D01*
X55187987Y54334406D01*
X55014406Y54507987D01*
X54810297Y54644368D01*
X54599407Y54731722D01*
X54627615Y54759930D01*
X54716041Y54892268D01*
X54746996Y54967000D01*
X56300763Y54967000D01*
X56507395Y54760368D01*
X56396497Y54738309D01*
X56169703Y54644368D01*
X55965594Y54507987D01*
X55792013Y54334406D01*
X55655632Y54130297D01*
X55561691Y53903503D01*
X55513800Y53662740D01*
X55513800Y53417260D01*
X55561691Y53176497D01*
X55655632Y52949703D01*
X55792013Y52745594D01*
X55965594Y52572013D01*
X56169703Y52435632D01*
X56396497Y52341691D01*
X56637260Y52293800D01*
X56882740Y52293800D01*
X57123503Y52341691D01*
X57350297Y52435632D01*
X57554406Y52572013D01*
X57727987Y52745594D01*
X57864368Y52949703D01*
X57958309Y53176497D01*
X57967001Y53220193D01*
X57967000Y52026175D01*
X57964422Y52000000D01*
X57967000Y51973826D01*
X57974713Y51895515D01*
X58005190Y51795044D01*
X58054683Y51702449D01*
X58121289Y51621289D01*
X58141626Y51604599D01*
X60267804Y49478420D01*
X60284490Y49458088D01*
X60365650Y49391482D01*
X60458244Y49341989D01*
X60558715Y49311512D01*
X60637026Y49303799D01*
X60637028Y49303799D01*
X60663200Y49301221D01*
X60689373Y49303799D01*
X63442426Y49303799D01*
X64083054Y48663170D01*
X64083053Y8336829D01*
X62779225Y7033000D01*
X60784199Y7033000D01*
X60758026Y7035578D01*
X60731854Y7033000D01*
X60731852Y7033000D01*
X60653541Y7025287D01*
X60553070Y6994810D01*
X60460476Y6945317D01*
X60379316Y6878711D01*
X60362630Y6858379D01*
X58290604Y4786352D01*
X58270272Y4769666D01*
X58253586Y4749334D01*
X58203666Y4688506D01*
X58154173Y4595912D01*
X58123695Y4495441D01*
X58113404Y4390955D01*
X58115983Y4364770D01*
X58115982Y1121792D01*
X58027191Y1033000D01*
X23720776Y1033000D01*
X23600000Y1153775D01*
X23600000Y9202179D01*
X23801530Y9242266D01*
X24039570Y9340865D01*
X24253801Y9484010D01*
X24435990Y9666199D01*
X24579135Y9880430D01*
X24677734Y10118470D01*
X24690000Y10180135D01*
X24702266Y10118470D01*
X24800865Y9880430D01*
X24944010Y9666199D01*
X25126199Y9484010D01*
X25160500Y9461090D01*
X25160501Y8659974D01*
X24700000Y8659974D01*
X24675553Y8657566D01*
X24650991Y8657566D01*
X24571009Y8649688D01*
X24474876Y8630566D01*
X24397970Y8607237D01*
X24307414Y8569728D01*
X24236532Y8531842D01*
X24155033Y8477386D01*
X24092908Y8426400D01*
X24023600Y8357092D01*
X23972614Y8294967D01*
X23918158Y8213468D01*
X23880272Y8142586D01*
X23842763Y8052030D01*
X23819434Y7975124D01*
X23800312Y7878991D01*
X23792434Y7799009D01*
X23792434Y7774447D01*
X23790026Y7750000D01*
X23790026Y7250000D01*
X23792434Y7225553D01*
X23792434Y7200991D01*
X23800312Y7121009D01*
X23819434Y7024876D01*
X23842763Y6947970D01*
X23880272Y6857414D01*
X23918158Y6786532D01*
X23972614Y6705033D01*
X24023600Y6642908D01*
X24092000Y6574508D01*
X24092001Y5199158D01*
X23984930Y5127615D01*
X23872385Y5015070D01*
X23783959Y4882732D01*
X23723051Y4735685D01*
X23692000Y4579581D01*
X23692000Y4420419D01*
X23723051Y4264315D01*
X23783959Y4117268D01*
X23872385Y3984930D01*
X23984930Y3872385D01*
X24117268Y3783959D01*
X24264315Y3723051D01*
X24420419Y3692000D01*
X24579581Y3692000D01*
X24735685Y3723051D01*
X24882732Y3783959D01*
X25015070Y3872385D01*
X25127615Y3984930D01*
X25216041Y4117268D01*
X25276949Y4264315D01*
X25308000Y4420419D01*
X25308000Y4579581D01*
X25302035Y4609571D01*
X25308000Y4670139D01*
X25310941Y4700000D01*
X25308000Y4729860D01*
X25308000Y6345739D01*
X25329982Y6347904D01*
X25375000Y6361560D01*
X25420018Y6347904D01*
X25500000Y6340026D01*
X26500000Y6340026D01*
X26579982Y6347904D01*
X26625000Y6361560D01*
X26670018Y6347904D01*
X26750000Y6340026D01*
X27300000Y6340026D01*
X27324447Y6342434D01*
X27349009Y6342434D01*
X27428991Y6350312D01*
X27525124Y6369434D01*
X27602030Y6392763D01*
X27692586Y6430272D01*
X27763468Y6468158D01*
X27844967Y6522614D01*
X27907092Y6573600D01*
X27976400Y6642908D01*
X28027386Y6705033D01*
X28081842Y6786532D01*
X28119728Y6857414D01*
X28134054Y6892000D01*
X29465315Y6892000D01*
X29484930Y6872385D01*
X29617268Y6783959D01*
X29764315Y6723051D01*
X29920419Y6692000D01*
X30079581Y6692000D01*
X30235685Y6723051D01*
X30382732Y6783959D01*
X30515070Y6872385D01*
X30534685Y6892000D01*
X30748159Y6892000D01*
X31892001Y5748157D01*
X31892001Y5709974D01*
X31750000Y5709974D01*
X31725553Y5707566D01*
X31700991Y5707566D01*
X31621009Y5699688D01*
X31524876Y5680566D01*
X31447970Y5657237D01*
X31357414Y5619728D01*
X31286532Y5581842D01*
X31205033Y5527386D01*
X31142908Y5476400D01*
X31073600Y5407092D01*
X31022614Y5344967D01*
X30968158Y5263468D01*
X30930272Y5192586D01*
X30892763Y5102030D01*
X30869434Y5025124D01*
X30850312Y4928991D01*
X30842434Y4849009D01*
X30842434Y4824447D01*
X30840026Y4800000D01*
X30840026Y4250000D01*
X30847904Y4170018D01*
X30861560Y4125000D01*
X30847904Y4079982D01*
X30840026Y4000000D01*
X30840026Y3000000D01*
X30847904Y2920018D01*
X30871233Y2843110D01*
X30909119Y2772231D01*
X30960105Y2710105D01*
X31022231Y2659119D01*
X31093110Y2621233D01*
X31170018Y2597904D01*
X31250000Y2590026D01*
X32750000Y2590026D01*
X32829982Y2597904D01*
X32906890Y2621233D01*
X32977769Y2659119D01*
X33039895Y2710105D01*
X33090881Y2772231D01*
X33128767Y2843110D01*
X33143597Y2892000D01*
X36045739Y2892000D01*
X36047904Y2870018D01*
X36071233Y2793110D01*
X36109119Y2722231D01*
X36160105Y2660105D01*
X36222231Y2609119D01*
X36293110Y2571233D01*
X36370018Y2547904D01*
X36450000Y2540026D01*
X38550000Y2540026D01*
X38629982Y2547904D01*
X38706890Y2571233D01*
X38777769Y2609119D01*
X38839895Y2660105D01*
X38890881Y2722231D01*
X38928767Y2793110D01*
X38952096Y2870018D01*
X38959974Y2950000D01*
X38959974Y3018102D01*
X39110579Y2867497D01*
X39349378Y2707937D01*
X39614717Y2598030D01*
X39896399Y2542000D01*
X40183601Y2542000D01*
X40465283Y2598030D01*
X40730622Y2707937D01*
X40969421Y2867497D01*
X41172503Y3070579D01*
X41332063Y3309378D01*
X41441970Y3574717D01*
X41498000Y3856399D01*
X41498000Y4143601D01*
X41441970Y4425283D01*
X41332063Y4690622D01*
X41172503Y4929421D01*
X40969421Y5132503D01*
X40730622Y5292063D01*
X40465283Y5401970D01*
X40183601Y5458000D01*
X39896399Y5458000D01*
X39614717Y5401970D01*
X39349378Y5292063D01*
X39110579Y5132503D01*
X38959974Y4981898D01*
X38959974Y5050000D01*
X38952096Y5129982D01*
X38928767Y5206890D01*
X38890881Y5277769D01*
X38839895Y5339895D01*
X38777769Y5390881D01*
X38706890Y5428767D01*
X38629982Y5452096D01*
X38550000Y5459974D01*
X36450000Y5459974D01*
X36370018Y5452096D01*
X36293110Y5428767D01*
X36222231Y5390881D01*
X36160105Y5339895D01*
X36109119Y5277769D01*
X36071233Y5206890D01*
X36047904Y5129982D01*
X36040026Y5050000D01*
X36040026Y4108000D01*
X33143597Y4108000D01*
X33138440Y4125000D01*
X33152096Y4170018D01*
X33159974Y4250000D01*
X33159974Y4800000D01*
X33157566Y4824447D01*
X33157566Y4849009D01*
X33149688Y4928991D01*
X33130566Y5025124D01*
X33108000Y5099515D01*
X33108000Y5970140D01*
X33110941Y6000001D01*
X33099202Y6119189D01*
X33098565Y6121290D01*
X33064436Y6233797D01*
X33007979Y6339421D01*
X32932001Y6432001D01*
X32908803Y6451039D01*
X31451043Y7908798D01*
X31432001Y7932001D01*
X31339421Y8007979D01*
X31233797Y8064436D01*
X31119189Y8099202D01*
X31029861Y8108000D01*
X31029860Y8108000D01*
X31000000Y8110941D01*
X30970140Y8108000D01*
X30534685Y8108000D01*
X30515070Y8127615D01*
X30382732Y8216041D01*
X30235685Y8276949D01*
X30079581Y8308000D01*
X29920419Y8308000D01*
X29764315Y8276949D01*
X29617268Y8216041D01*
X29484930Y8127615D01*
X29465315Y8108000D01*
X28134054Y8108000D01*
X28119728Y8142586D01*
X28081842Y8213468D01*
X28027386Y8294967D01*
X27976400Y8357092D01*
X27907092Y8426400D01*
X27844967Y8477386D01*
X27763468Y8531842D01*
X27692586Y8569728D01*
X27602030Y8607237D01*
X27525124Y8630566D01*
X27428991Y8649688D01*
X27349009Y8657566D01*
X27324447Y8657566D01*
X27300000Y8659974D01*
X26759500Y8659974D01*
X26759500Y9461091D01*
X26793801Y9484010D01*
X26975990Y9666199D01*
X26994102Y9693306D01*
X27698963Y9693306D01*
X27789760Y9515633D01*
X27995447Y9395986D01*
X28220525Y9318767D01*
X28456342Y9286941D01*
X28693836Y9301733D01*
X28923882Y9362572D01*
X29137638Y9467123D01*
X29210240Y9515633D01*
X29301037Y9693306D01*
X28500000Y10494343D01*
X27698963Y9693306D01*
X26994102Y9693306D01*
X27119135Y9880430D01*
X27217734Y10118470D01*
X27268000Y10371173D01*
X27268000Y10543658D01*
X27286941Y10543658D01*
X27301733Y10306164D01*
X27362572Y10076118D01*
X27467123Y9862362D01*
X27515633Y9789760D01*
X27693306Y9698963D01*
X28494343Y10500000D01*
X28505657Y10500000D01*
X29306694Y9698963D01*
X29484367Y9789760D01*
X29604014Y9995447D01*
X29681233Y10220525D01*
X29713059Y10456342D01*
X29698267Y10693836D01*
X29637428Y10923882D01*
X29532877Y11137638D01*
X29484367Y11210240D01*
X29306694Y11301037D01*
X28505657Y10500000D01*
X28494343Y10500000D01*
X27693306Y11301037D01*
X27515633Y11210240D01*
X27395986Y11004553D01*
X27318767Y10779475D01*
X27286941Y10543658D01*
X27268000Y10543658D01*
X27268000Y10628827D01*
X27217734Y10881530D01*
X27119135Y11119570D01*
X26994103Y11306694D01*
X27698963Y11306694D01*
X28500000Y10505657D01*
X29301037Y11306694D01*
X29210240Y11484367D01*
X29004553Y11604014D01*
X28779475Y11681233D01*
X28543658Y11713059D01*
X28306164Y11698267D01*
X28076118Y11637428D01*
X27862362Y11532877D01*
X27789760Y11484367D01*
X27698963Y11306694D01*
X26994103Y11306694D01*
X26975990Y11333801D01*
X26793801Y11515990D01*
X26579570Y11659135D01*
X26341530Y11757734D01*
X26088827Y11808000D01*
X25831173Y11808000D01*
X25578470Y11757734D01*
X25340430Y11659135D01*
X25126199Y11515990D01*
X24944010Y11333801D01*
X24800865Y11119570D01*
X24702266Y10881530D01*
X24690000Y10819865D01*
X24677734Y10881530D01*
X24579135Y11119570D01*
X24435990Y11333801D01*
X24253801Y11515990D01*
X24039570Y11659135D01*
X23801530Y11757734D01*
X23548827Y11808000D01*
X23291173Y11808000D01*
X23038470Y11757734D01*
X22800430Y11659135D01*
X22586199Y11515990D01*
X22404010Y11333801D01*
X22260865Y11119570D01*
X22162266Y10881530D01*
X22112000Y10628827D01*
X22112000Y10371173D01*
X22162266Y10118470D01*
X22260865Y9880430D01*
X22404010Y9666199D01*
X22470209Y9600000D01*
X6600000Y9600000D01*
X6600000Y12300000D01*
X30840026Y12300000D01*
X30840026Y11750000D01*
X30847904Y11670018D01*
X30861560Y11625000D01*
X30847904Y11579982D01*
X30840026Y11500000D01*
X30840026Y10500000D01*
X30847904Y10420018D01*
X30861560Y10375000D01*
X30847904Y10329982D01*
X30840026Y10250000D01*
X30840026Y9700000D01*
X30842434Y9675553D01*
X30842434Y9650991D01*
X30850312Y9571009D01*
X30869434Y9474876D01*
X30892763Y9397970D01*
X30930272Y9307414D01*
X30968158Y9236532D01*
X31022614Y9155033D01*
X31073600Y9092908D01*
X31142908Y9023600D01*
X31205033Y8972614D01*
X31286532Y8918158D01*
X31357414Y8880272D01*
X31447970Y8842763D01*
X31524876Y8819434D01*
X31621009Y8800312D01*
X31700991Y8792434D01*
X31725553Y8792434D01*
X31745734Y8790446D01*
X31723051Y8735685D01*
X31692000Y8579581D01*
X31692000Y8420419D01*
X31723051Y8264315D01*
X31783959Y8117268D01*
X31872385Y7984930D01*
X31984930Y7872385D01*
X32117268Y7783959D01*
X32264315Y7723051D01*
X32420419Y7692000D01*
X32579581Y7692000D01*
X32735685Y7723051D01*
X32882732Y7783959D01*
X33015070Y7872385D01*
X33127615Y7984930D01*
X33216041Y8117268D01*
X33276949Y8264315D01*
X33308000Y8420419D01*
X33308000Y8579581D01*
X33276949Y8735685D01*
X33216041Y8882732D01*
X33127615Y9015070D01*
X33108000Y9034685D01*
X33108000Y9400485D01*
X33130566Y9474876D01*
X33149688Y9571009D01*
X33157566Y9650991D01*
X33157566Y9675553D01*
X33159974Y9700000D01*
X33159974Y10250000D01*
X33152096Y10329982D01*
X33138440Y10375000D01*
X33143597Y10392000D01*
X34765026Y10392000D01*
X34765026Y10175000D01*
X34772904Y10095018D01*
X34796233Y10018110D01*
X34834119Y9947231D01*
X34885105Y9885105D01*
X34947231Y9834119D01*
X35018110Y9796233D01*
X35095018Y9772904D01*
X35175000Y9765026D01*
X36825000Y9765026D01*
X36904982Y9772904D01*
X36981890Y9796233D01*
X37052769Y9834119D01*
X37114895Y9885105D01*
X37165881Y9947231D01*
X37203767Y10018110D01*
X37227096Y10095018D01*
X37234974Y10175000D01*
X37234974Y11121440D01*
X39767000Y11121440D01*
X39767000Y10878560D01*
X39814383Y10640347D01*
X39907330Y10415955D01*
X40042266Y10214008D01*
X40214008Y10042266D01*
X40415955Y9907330D01*
X40640347Y9814383D01*
X40878560Y9767000D01*
X41121440Y9767000D01*
X41359653Y9814383D01*
X41584045Y9907330D01*
X41785992Y10042266D01*
X41957734Y10214008D01*
X42092670Y10415955D01*
X42185617Y10640347D01*
X42233000Y10878560D01*
X42233000Y11121440D01*
X42185617Y11359653D01*
X42092670Y11584045D01*
X41957734Y11785992D01*
X41785992Y11957734D01*
X41584045Y12092670D01*
X41359653Y12185617D01*
X41121440Y12233000D01*
X40878560Y12233000D01*
X40640347Y12185617D01*
X40415955Y12092670D01*
X40214008Y11957734D01*
X40042266Y11785992D01*
X39907330Y11584045D01*
X39814383Y11359653D01*
X39767000Y11121440D01*
X37234974Y11121440D01*
X37234974Y11825000D01*
X37227096Y11904982D01*
X37203767Y11981890D01*
X37165881Y12052769D01*
X37114895Y12114895D01*
X37052769Y12165881D01*
X36981890Y12203767D01*
X36904982Y12227096D01*
X36825000Y12234974D01*
X35175000Y12234974D01*
X35095018Y12227096D01*
X35018110Y12203767D01*
X34947231Y12165881D01*
X34885105Y12114895D01*
X34834119Y12052769D01*
X34796233Y11981890D01*
X34772904Y11904982D01*
X34765026Y11825000D01*
X34765026Y11608000D01*
X33143597Y11608000D01*
X33138440Y11625000D01*
X33152096Y11670018D01*
X33159974Y11750000D01*
X33159974Y11766270D01*
X33264315Y11723051D01*
X33420419Y11692000D01*
X33579581Y11692000D01*
X33735685Y11723051D01*
X33882732Y11783959D01*
X34015070Y11872385D01*
X34127615Y11984930D01*
X34216041Y12117268D01*
X34276949Y12264315D01*
X34308000Y12420419D01*
X34308000Y12579581D01*
X34276949Y12735685D01*
X34216041Y12882732D01*
X34127615Y13015070D01*
X34015070Y13127615D01*
X33882732Y13216041D01*
X33735685Y13276949D01*
X33579581Y13308000D01*
X33420419Y13308000D01*
X33264315Y13276949D01*
X33117268Y13216041D01*
X32984930Y13127615D01*
X32872385Y13015070D01*
X32850281Y12981990D01*
X32794967Y13027386D01*
X32713468Y13081842D01*
X32642586Y13119728D01*
X32552030Y13157237D01*
X32475124Y13180566D01*
X32378991Y13199688D01*
X32299009Y13207566D01*
X32274447Y13207566D01*
X32250000Y13209974D01*
X31750000Y13209974D01*
X31725553Y13207566D01*
X31700991Y13207566D01*
X31621009Y13199688D01*
X31524876Y13180566D01*
X31447970Y13157237D01*
X31357414Y13119728D01*
X31286532Y13081842D01*
X31205033Y13027386D01*
X31142908Y12976400D01*
X31073600Y12907092D01*
X31022614Y12844967D01*
X30968158Y12763468D01*
X30930272Y12692586D01*
X30892763Y12602030D01*
X30869434Y12525124D01*
X30850312Y12428991D01*
X30842434Y12349009D01*
X30842434Y12324447D01*
X30840026Y12300000D01*
X6600000Y12300000D01*
X6600000Y19021271D01*
X43567000Y19021271D01*
X43567001Y3978728D01*
X43569163Y3956776D01*
X43569163Y3943785D01*
X43569795Y3937772D01*
X43591550Y3743822D01*
X43599716Y3705403D01*
X43607333Y3666936D01*
X43609121Y3661160D01*
X43668134Y3475130D01*
X43683604Y3439036D01*
X43698549Y3402777D01*
X43701424Y3397458D01*
X43795447Y3226433D01*
X43817599Y3194080D01*
X43839335Y3161365D01*
X43843189Y3156707D01*
X43968639Y3007200D01*
X43996703Y2979717D01*
X44024333Y2951894D01*
X44029012Y2948078D01*
X44029016Y2948074D01*
X44029018Y2948073D01*
X44181118Y2825782D01*
X44213958Y2804293D01*
X44246490Y2782349D01*
X44251828Y2779511D01*
X44424784Y2689091D01*
X44461160Y2674394D01*
X44497352Y2659180D01*
X44503140Y2657433D01*
X44690366Y2602330D01*
X44728904Y2594978D01*
X44767356Y2587085D01*
X44773374Y2586495D01*
X44967735Y2568806D01*
X45006981Y2569080D01*
X45046226Y2568806D01*
X45052243Y2569396D01*
X45246340Y2589797D01*
X45284817Y2597695D01*
X45323331Y2605042D01*
X45329117Y2606788D01*
X45329123Y2606790D01*
X45515557Y2664501D01*
X45551757Y2679718D01*
X45588122Y2694410D01*
X45593456Y2697246D01*
X45593460Y2697248D01*
X45593463Y2697250D01*
X45765137Y2790074D01*
X45797654Y2812007D01*
X45830513Y2833509D01*
X45835198Y2837330D01*
X45985576Y2961734D01*
X46013220Y2989572D01*
X46041268Y3017038D01*
X46045122Y3021697D01*
X46168472Y3172939D01*
X46190187Y3205623D01*
X46212362Y3238009D01*
X46215238Y3243327D01*
X46306863Y3415650D01*
X46321824Y3451947D01*
X46337278Y3488004D01*
X46339062Y3493769D01*
X46339066Y3493779D01*
X46339068Y3493789D01*
X46395474Y3680616D01*
X46403094Y3719096D01*
X46411257Y3757499D01*
X46411887Y3763503D01*
X46411889Y3763513D01*
X46411889Y3763522D01*
X46430933Y3957746D01*
X46433000Y3978728D01*
X46433000Y19021272D01*
X46430837Y19043234D01*
X46430837Y19056215D01*
X46430204Y19062228D01*
X46408450Y19256178D01*
X46400289Y19294572D01*
X46392667Y19333064D01*
X46390879Y19338840D01*
X46331866Y19524870D01*
X46316410Y19560932D01*
X46301452Y19597223D01*
X46298576Y19602542D01*
X46298576Y19602543D01*
X46298573Y19602547D01*
X46204554Y19773567D01*
X46182368Y19805969D01*
X46160665Y19838635D01*
X46156815Y19843288D01*
X46156811Y19843294D01*
X46156806Y19843299D01*
X46031361Y19992799D01*
X46003316Y20020263D01*
X45975667Y20048106D01*
X45970993Y20051917D01*
X45970984Y20051926D01*
X45970975Y20051932D01*
X45818882Y20174218D01*
X45786019Y20195723D01*
X45753510Y20217651D01*
X45748174Y20220489D01*
X45748166Y20220493D01*
X45575216Y20310909D01*
X45538826Y20325612D01*
X45502647Y20340820D01*
X45496875Y20342562D01*
X45496863Y20342567D01*
X45496852Y20342569D01*
X45309634Y20397670D01*
X45271095Y20405022D01*
X45232643Y20412915D01*
X45226626Y20413505D01*
X45032264Y20431194D01*
X44992986Y20430920D01*
X44953774Y20431194D01*
X44947768Y20430605D01*
X44947760Y20430605D01*
X44947753Y20430604D01*
X44753660Y20410203D01*
X44715183Y20402305D01*
X44676669Y20394958D01*
X44670883Y20393212D01*
X44670877Y20393210D01*
X44484443Y20335499D01*
X44448231Y20320277D01*
X44411878Y20305590D01*
X44406548Y20302756D01*
X44406539Y20302752D01*
X44406532Y20302747D01*
X44234862Y20209926D01*
X44202328Y20187982D01*
X44169487Y20166491D01*
X44164801Y20162669D01*
X44014424Y20038266D01*
X43986780Y20010428D01*
X43958732Y19982962D01*
X43954878Y19978303D01*
X43831528Y19827061D01*
X43809810Y19794372D01*
X43787638Y19761992D01*
X43784766Y19756678D01*
X43784763Y19756674D01*
X43784763Y19756673D01*
X43693137Y19584351D01*
X43678181Y19548066D01*
X43662722Y19511997D01*
X43660938Y19506231D01*
X43660934Y19506221D01*
X43660932Y19506211D01*
X43604526Y19319385D01*
X43596907Y19280908D01*
X43588743Y19242500D01*
X43588113Y19236500D01*
X43588111Y19236488D01*
X43588111Y19236477D01*
X43569201Y19043617D01*
X43567000Y19021271D01*
X6600000Y19021271D01*
X6600000Y24400000D01*
X13500000Y24400000D01*
X13519509Y24401921D01*
X13538268Y24407612D01*
X13555557Y24416853D01*
X13570711Y24429289D01*
X13583147Y24444443D01*
X13592388Y24461732D01*
X13598079Y24480491D01*
X13600000Y24500000D01*
X13600000Y24838000D01*
X25766510Y24838000D01*
X25772457Y24777621D01*
X25790069Y24719563D01*
X25818668Y24666057D01*
X25857158Y24619158D01*
X25904057Y24580668D01*
X25957563Y24552069D01*
X26015621Y24534457D01*
X26076000Y24528510D01*
X26657000Y24530000D01*
X26734000Y24607000D01*
X26734000Y25496000D01*
X26742000Y25496000D01*
X26742000Y24607000D01*
X26819000Y24530000D01*
X27400000Y24528510D01*
X27460379Y24534457D01*
X27500000Y24546476D01*
X27539621Y24534457D01*
X27600000Y24528510D01*
X28181000Y24530000D01*
X28258000Y24607000D01*
X28258000Y25496000D01*
X28266000Y25496000D01*
X28266000Y24607000D01*
X28343000Y24530000D01*
X28924000Y24528510D01*
X28984379Y24534457D01*
X29042437Y24552069D01*
X29095943Y24580668D01*
X29142842Y24619158D01*
X29181332Y24666057D01*
X29209931Y24719563D01*
X29227543Y24777621D01*
X29233490Y24838000D01*
X29232000Y25419000D01*
X29155000Y25496000D01*
X28266000Y25496000D01*
X28258000Y25496000D01*
X26742000Y25496000D01*
X26734000Y25496000D01*
X25845000Y25496000D01*
X25768000Y25419000D01*
X25766510Y24838000D01*
X13600000Y24838000D01*
X13600000Y26162000D01*
X25766510Y26162000D01*
X25768000Y25581000D01*
X25845000Y25504000D01*
X26734000Y25504000D01*
X26734000Y26393000D01*
X26742000Y26393000D01*
X26742000Y25504000D01*
X28258000Y25504000D01*
X28258000Y26393000D01*
X28266000Y26393000D01*
X28266000Y25504000D01*
X29155000Y25504000D01*
X29232000Y25581000D01*
X29233490Y26162000D01*
X29227543Y26222379D01*
X29209931Y26280437D01*
X29181332Y26333943D01*
X29142842Y26380842D01*
X29095943Y26419332D01*
X29042437Y26447931D01*
X28984379Y26465543D01*
X28924000Y26471490D01*
X28343000Y26470000D01*
X28266000Y26393000D01*
X28258000Y26393000D01*
X28181000Y26470000D01*
X27600000Y26471490D01*
X27539621Y26465543D01*
X27500000Y26453524D01*
X27460379Y26465543D01*
X27400000Y26471490D01*
X26819000Y26470000D01*
X26742000Y26393000D01*
X26734000Y26393000D01*
X26657000Y26470000D01*
X26076000Y26471490D01*
X26015621Y26465543D01*
X25957563Y26447931D01*
X25904057Y26419332D01*
X25857158Y26380842D01*
X25818668Y26333943D01*
X25790069Y26280437D01*
X25772457Y26222379D01*
X25766510Y26162000D01*
X13600000Y26162000D01*
X13600000Y32753902D01*
X42242000Y32753902D01*
X42242000Y32506098D01*
X42290344Y32263055D01*
X42385175Y32034114D01*
X42522848Y31828072D01*
X42698072Y31652848D01*
X42904114Y31515175D01*
X43133055Y31420344D01*
X43376098Y31372000D01*
X43623902Y31372000D01*
X43866945Y31420344D01*
X44095886Y31515175D01*
X44301928Y31652848D01*
X44477152Y31828072D01*
X44614825Y32034114D01*
X44709656Y32263055D01*
X44758000Y32506098D01*
X44758000Y32753902D01*
X44709656Y32996945D01*
X44614825Y33225886D01*
X44477152Y33431928D01*
X44301928Y33607152D01*
X44095886Y33744825D01*
X43866945Y33839656D01*
X43623902Y33888000D01*
X43376098Y33888000D01*
X43133055Y33839656D01*
X42904114Y33744825D01*
X42698072Y33607152D01*
X42522848Y33431928D01*
X42385175Y33225886D01*
X42290344Y32996945D01*
X42242000Y32753902D01*
X13600000Y32753902D01*
X13600000Y36020000D01*
X42375026Y36020000D01*
X42375026Y34320000D01*
X42382904Y34240018D01*
X42406233Y34163110D01*
X42444119Y34092231D01*
X42495105Y34030105D01*
X42557231Y33979119D01*
X42628110Y33941233D01*
X42705018Y33917904D01*
X42785000Y33910026D01*
X44215000Y33910026D01*
X44294982Y33917904D01*
X44371890Y33941233D01*
X44442769Y33979119D01*
X44504895Y34030105D01*
X44555881Y34092231D01*
X44593767Y34163110D01*
X44617096Y34240018D01*
X44624974Y34320000D01*
X44624974Y36020000D01*
X44617096Y36099982D01*
X44593767Y36176890D01*
X44555881Y36247769D01*
X44504895Y36309895D01*
X44442769Y36360881D01*
X44371890Y36398767D01*
X44294982Y36422096D01*
X44215000Y36429974D01*
X42785000Y36429974D01*
X42705018Y36422096D01*
X42628110Y36398767D01*
X42557231Y36360881D01*
X42495105Y36309895D01*
X42444119Y36247769D01*
X42406233Y36176890D01*
X42382904Y36099982D01*
X42375026Y36020000D01*
X13600000Y36020000D01*
X13600000Y43454347D01*
X13944172Y43454347D01*
X13970347Y43451769D01*
X14074833Y43462060D01*
X14175304Y43492537D01*
X14267898Y43542030D01*
X14349058Y43608636D01*
X14365748Y43628973D01*
X17253378Y46516602D01*
X17253504Y46516705D01*
X17286199Y46484010D01*
X17500430Y46340865D01*
X17738470Y46242266D01*
X17991173Y46192000D01*
X18248827Y46192000D01*
X18501530Y46242266D01*
X18739570Y46340865D01*
X18953801Y46484010D01*
X19135990Y46666199D01*
X19279135Y46880430D01*
X19361625Y47079581D01*
X20192000Y47079581D01*
X20192000Y46920419D01*
X20223051Y46764315D01*
X20283959Y46617268D01*
X20372385Y46484930D01*
X20467001Y46390314D01*
X20467000Y43609685D01*
X20372385Y43515070D01*
X20283959Y43382732D01*
X20223051Y43235685D01*
X20192000Y43079581D01*
X20192000Y42920419D01*
X20223051Y42764315D01*
X20283959Y42617268D01*
X20372385Y42484930D01*
X20484930Y42372385D01*
X20617268Y42283959D01*
X20764315Y42223051D01*
X20920419Y42192000D01*
X21079581Y42192000D01*
X21235685Y42223051D01*
X21382732Y42283959D01*
X21500000Y42362315D01*
X21617268Y42283959D01*
X21764315Y42223051D01*
X21920419Y42192000D01*
X22079581Y42192000D01*
X22235685Y42223051D01*
X22382732Y42283959D01*
X22515070Y42372385D01*
X22627615Y42484930D01*
X22716041Y42617268D01*
X22776949Y42764315D01*
X22808000Y42920419D01*
X22808000Y43079581D01*
X22776949Y43235685D01*
X22716041Y43382732D01*
X22627615Y43515070D01*
X22533000Y43609685D01*
X22533000Y46390315D01*
X22627615Y46484930D01*
X22716041Y46617268D01*
X22776949Y46764315D01*
X22808000Y46920419D01*
X22808000Y47079581D01*
X22776949Y47235685D01*
X22716041Y47382732D01*
X22627615Y47515070D01*
X22515070Y47627615D01*
X22382732Y47716041D01*
X22235685Y47776949D01*
X22079581Y47808000D01*
X21920419Y47808000D01*
X21764315Y47776949D01*
X21617268Y47716041D01*
X21500000Y47637685D01*
X21382732Y47716041D01*
X21235685Y47776949D01*
X21079581Y47808000D01*
X20920419Y47808000D01*
X20764315Y47776949D01*
X20617268Y47716041D01*
X20484930Y47627615D01*
X20372385Y47515070D01*
X20283959Y47382732D01*
X20223051Y47235685D01*
X20192000Y47079581D01*
X19361625Y47079581D01*
X19377734Y47118470D01*
X19428000Y47371173D01*
X19428000Y47628827D01*
X19377734Y47881530D01*
X19279135Y48119570D01*
X19230738Y48192001D01*
X22753004Y48192001D01*
X22783959Y48117268D01*
X22872385Y47984930D01*
X22984930Y47872385D01*
X23117268Y47783959D01*
X23264315Y47723051D01*
X23420419Y47692000D01*
X23579581Y47692000D01*
X23735685Y47723051D01*
X23882732Y47783959D01*
X24015070Y47872385D01*
X24127615Y47984930D01*
X24216041Y48117268D01*
X24276949Y48264315D01*
X24308000Y48420419D01*
X24308000Y48579581D01*
X24276949Y48735685D01*
X24216041Y48882732D01*
X24127615Y49015070D01*
X24015070Y49127615D01*
X23882732Y49216041D01*
X23735685Y49276949D01*
X23579581Y49308000D01*
X23420419Y49308000D01*
X23264315Y49276949D01*
X23218570Y49258001D01*
X17558171Y49258001D01*
X17531998Y49260579D01*
X17505826Y49258001D01*
X17505824Y49258001D01*
X17427513Y49250288D01*
X17327042Y49219811D01*
X17234448Y49170318D01*
X17153288Y49103712D01*
X17136602Y49083380D01*
X16536621Y48483398D01*
X16516289Y48466712D01*
X16499603Y48446380D01*
X16492304Y48437487D01*
X16413801Y48515990D01*
X16199570Y48659135D01*
X15961530Y48757734D01*
X15708827Y48808000D01*
X15451173Y48808000D01*
X15198470Y48757734D01*
X14960430Y48659135D01*
X14746199Y48515990D01*
X14564010Y48333801D01*
X14420865Y48119570D01*
X14322266Y47881530D01*
X14272000Y47628827D01*
X14272000Y47371173D01*
X14322266Y47118470D01*
X14420865Y46880430D01*
X14564010Y46666199D01*
X14746199Y46484010D01*
X14960430Y46340865D01*
X15198470Y46242266D01*
X15426193Y46196969D01*
X13749572Y44520347D01*
X13600000Y44520347D01*
X13600000Y46429149D01*
X13677638Y46467123D01*
X13750240Y46515633D01*
X13841037Y46693306D01*
X13600000Y46934343D01*
X13600000Y46945657D01*
X13846694Y46698963D01*
X14024367Y46789760D01*
X14144014Y46995447D01*
X14221233Y47220525D01*
X14253059Y47456342D01*
X14238267Y47693836D01*
X14177428Y47923882D01*
X14072877Y48137638D01*
X14024367Y48210240D01*
X13846694Y48301037D01*
X13600000Y48054343D01*
X13600000Y48065657D01*
X13841037Y48306694D01*
X13750240Y48484367D01*
X13600000Y48571761D01*
X13600000Y49753800D01*
X13702740Y49753800D01*
X13943503Y49801691D01*
X14170297Y49895632D01*
X14374406Y50032013D01*
X14547987Y50205594D01*
X14569116Y50237216D01*
X15362873Y50237216D01*
X15446261Y50065873D01*
X15641446Y49952382D01*
X15855021Y49879150D01*
X16078779Y49848992D01*
X16304121Y49863066D01*
X16522388Y49920833D01*
X16725191Y50020070D01*
X16793739Y50065873D01*
X16877127Y50237216D01*
X16120000Y50994343D01*
X15362873Y50237216D01*
X14569116Y50237216D01*
X14684368Y50409703D01*
X14778309Y50636497D01*
X14826200Y50877260D01*
X14826200Y51041221D01*
X14968992Y51041221D01*
X14983066Y50815879D01*
X15040833Y50597612D01*
X15140070Y50394809D01*
X15185873Y50326261D01*
X15357216Y50242873D01*
X16114343Y51000000D01*
X16125657Y51000000D01*
X16882784Y50242873D01*
X17054127Y50326261D01*
X17167618Y50521446D01*
X17240850Y50735021D01*
X17271008Y50958779D01*
X17260768Y51122740D01*
X17413800Y51122740D01*
X17413800Y50877260D01*
X17461691Y50636497D01*
X17555632Y50409703D01*
X17692013Y50205594D01*
X17865594Y50032013D01*
X18069703Y49895632D01*
X18296497Y49801691D01*
X18537260Y49753800D01*
X18782740Y49753800D01*
X19023503Y49801691D01*
X19250297Y49895632D01*
X19454406Y50032013D01*
X19627987Y50205594D01*
X19764368Y50409703D01*
X19858309Y50636497D01*
X19906200Y50877260D01*
X19906200Y51122740D01*
X19953800Y51122740D01*
X19953800Y50877260D01*
X20001691Y50636497D01*
X20095632Y50409703D01*
X20232013Y50205594D01*
X20405594Y50032013D01*
X20609703Y49895632D01*
X20836497Y49801691D01*
X21077260Y49753800D01*
X21322740Y49753800D01*
X21563503Y49801691D01*
X21790297Y49895632D01*
X21994406Y50032013D01*
X22167987Y50205594D01*
X22304368Y50409703D01*
X22398309Y50636497D01*
X22446200Y50877260D01*
X22446200Y51122740D01*
X22493800Y51122740D01*
X22493800Y50877260D01*
X22541691Y50636497D01*
X22635632Y50409703D01*
X22772013Y50205594D01*
X22945594Y50032013D01*
X23149703Y49895632D01*
X23376497Y49801691D01*
X23617260Y49753800D01*
X23862740Y49753800D01*
X24103503Y49801691D01*
X24330297Y49895632D01*
X24534406Y50032013D01*
X24707987Y50205594D01*
X24844368Y50409703D01*
X24938309Y50636497D01*
X24986200Y50877260D01*
X24986200Y51122740D01*
X25033800Y51122740D01*
X25033800Y50877260D01*
X25081691Y50636497D01*
X25175632Y50409703D01*
X25312013Y50205594D01*
X25485594Y50032013D01*
X25689703Y49895632D01*
X25916497Y49801691D01*
X26157260Y49753800D01*
X26402740Y49753800D01*
X26643503Y49801691D01*
X26870297Y49895632D01*
X27074406Y50032013D01*
X27247987Y50205594D01*
X27384368Y50409703D01*
X27478309Y50636497D01*
X27526200Y50877260D01*
X27526200Y51122740D01*
X27573800Y51122740D01*
X27573800Y50877260D01*
X27621691Y50636497D01*
X27715632Y50409703D01*
X27852013Y50205594D01*
X28025594Y50032013D01*
X28229703Y49895632D01*
X28456497Y49801691D01*
X28697260Y49753800D01*
X28942740Y49753800D01*
X29183503Y49801691D01*
X29410297Y49895632D01*
X29614406Y50032013D01*
X29787987Y50205594D01*
X29924368Y50409703D01*
X30018309Y50636497D01*
X30066200Y50877260D01*
X30066200Y51122740D01*
X30113800Y51122740D01*
X30113800Y50877260D01*
X30161691Y50636497D01*
X30255632Y50409703D01*
X30392013Y50205594D01*
X30565594Y50032013D01*
X30769703Y49895632D01*
X30996497Y49801691D01*
X31237260Y49753800D01*
X31482740Y49753800D01*
X31723503Y49801691D01*
X31950297Y49895632D01*
X32154406Y50032013D01*
X32327987Y50205594D01*
X32464368Y50409703D01*
X32558309Y50636497D01*
X32606200Y50877260D01*
X32606200Y51122740D01*
X32653800Y51122740D01*
X32653800Y50877260D01*
X32701691Y50636497D01*
X32795632Y50409703D01*
X32932013Y50205594D01*
X33105594Y50032013D01*
X33309703Y49895632D01*
X33536497Y49801691D01*
X33777260Y49753800D01*
X34022740Y49753800D01*
X34263503Y49801691D01*
X34490297Y49895632D01*
X34694406Y50032013D01*
X34867987Y50205594D01*
X35004368Y50409703D01*
X35098309Y50636497D01*
X35146200Y50877260D01*
X35146200Y51122740D01*
X35193800Y51122740D01*
X35193800Y50877260D01*
X35241691Y50636497D01*
X35335632Y50409703D01*
X35472013Y50205594D01*
X35645594Y50032013D01*
X35849703Y49895632D01*
X36076497Y49801691D01*
X36317260Y49753800D01*
X36562740Y49753800D01*
X36803503Y49801691D01*
X37030297Y49895632D01*
X37234406Y50032013D01*
X37407987Y50205594D01*
X37429116Y50237216D01*
X38222873Y50237216D01*
X38306261Y50065873D01*
X38501446Y49952382D01*
X38715021Y49879150D01*
X38938779Y49848992D01*
X39164121Y49863066D01*
X39382388Y49920833D01*
X39585191Y50020070D01*
X39653739Y50065873D01*
X39737127Y50237216D01*
X38980000Y50994343D01*
X38222873Y50237216D01*
X37429116Y50237216D01*
X37544368Y50409703D01*
X37638309Y50636497D01*
X37686200Y50877260D01*
X37686200Y51041221D01*
X37828992Y51041221D01*
X37843066Y50815879D01*
X37900833Y50597612D01*
X38000070Y50394809D01*
X38045873Y50326261D01*
X38217216Y50242873D01*
X38974343Y51000000D01*
X38985657Y51000000D01*
X39742784Y50242873D01*
X39914127Y50326261D01*
X40027618Y50521446D01*
X40100850Y50735021D01*
X40131008Y50958779D01*
X40120768Y51122740D01*
X40273800Y51122740D01*
X40273800Y50877260D01*
X40321691Y50636497D01*
X40415632Y50409703D01*
X40552013Y50205594D01*
X40725594Y50032013D01*
X40929703Y49895632D01*
X41156497Y49801691D01*
X41397260Y49753800D01*
X41642740Y49753800D01*
X41883503Y49801691D01*
X42110297Y49895632D01*
X42314406Y50032013D01*
X42487987Y50205594D01*
X42624368Y50409703D01*
X42718309Y50636497D01*
X42766200Y50877260D01*
X42766200Y51122740D01*
X42813800Y51122740D01*
X42813800Y50877260D01*
X42861691Y50636497D01*
X42955632Y50409703D01*
X43092013Y50205594D01*
X43265594Y50032013D01*
X43469703Y49895632D01*
X43696497Y49801691D01*
X43937260Y49753800D01*
X44182740Y49753800D01*
X44423503Y49801691D01*
X44650297Y49895632D01*
X44854406Y50032013D01*
X45027987Y50205594D01*
X45164368Y50409703D01*
X45258309Y50636497D01*
X45306200Y50877260D01*
X45306200Y51122740D01*
X45353800Y51122740D01*
X45353800Y50877260D01*
X45401691Y50636497D01*
X45495632Y50409703D01*
X45632013Y50205594D01*
X45805594Y50032013D01*
X46009703Y49895632D01*
X46236497Y49801691D01*
X46477260Y49753800D01*
X46722740Y49753800D01*
X46963503Y49801691D01*
X47190297Y49895632D01*
X47394406Y50032013D01*
X47567987Y50205594D01*
X47704368Y50409703D01*
X47798309Y50636497D01*
X47846200Y50877260D01*
X47846200Y51122740D01*
X47893800Y51122740D01*
X47893800Y50877260D01*
X47941691Y50636497D01*
X48035632Y50409703D01*
X48172013Y50205594D01*
X48345594Y50032013D01*
X48549703Y49895632D01*
X48776497Y49801691D01*
X49017260Y49753800D01*
X49262740Y49753800D01*
X49503503Y49801691D01*
X49730297Y49895632D01*
X49934406Y50032013D01*
X50107987Y50205594D01*
X50244368Y50409703D01*
X50338309Y50636497D01*
X50386200Y50877260D01*
X50386200Y51122740D01*
X50433800Y51122740D01*
X50433800Y50877260D01*
X50481691Y50636497D01*
X50575632Y50409703D01*
X50712013Y50205594D01*
X50885594Y50032013D01*
X51089703Y49895632D01*
X51316497Y49801691D01*
X51557260Y49753800D01*
X51802740Y49753800D01*
X52043503Y49801691D01*
X52270297Y49895632D01*
X52474406Y50032013D01*
X52647987Y50205594D01*
X52784368Y50409703D01*
X52878309Y50636497D01*
X52926200Y50877260D01*
X52926200Y51122740D01*
X52973800Y51122740D01*
X52973800Y50877260D01*
X53021691Y50636497D01*
X53115632Y50409703D01*
X53252013Y50205594D01*
X53425594Y50032013D01*
X53629703Y49895632D01*
X53856497Y49801691D01*
X54097260Y49753800D01*
X54342740Y49753800D01*
X54583503Y49801691D01*
X54810297Y49895632D01*
X55014406Y50032013D01*
X55187987Y50205594D01*
X55209116Y50237216D01*
X56002873Y50237216D01*
X56086261Y50065873D01*
X56281446Y49952382D01*
X56495021Y49879150D01*
X56718779Y49848992D01*
X56944121Y49863066D01*
X57162388Y49920833D01*
X57365191Y50020070D01*
X57433739Y50065873D01*
X57517127Y50237216D01*
X56760000Y50994343D01*
X56002873Y50237216D01*
X55209116Y50237216D01*
X55324368Y50409703D01*
X55418309Y50636497D01*
X55466200Y50877260D01*
X55466200Y51041221D01*
X55608992Y51041221D01*
X55623066Y50815879D01*
X55680833Y50597612D01*
X55780070Y50394809D01*
X55825873Y50326261D01*
X55997216Y50242873D01*
X56754343Y51000000D01*
X56765657Y51000000D01*
X57522784Y50242873D01*
X57694127Y50326261D01*
X57807618Y50521446D01*
X57880850Y50735021D01*
X57911008Y50958779D01*
X57896934Y51184121D01*
X57839167Y51402388D01*
X57739930Y51605191D01*
X57694127Y51673739D01*
X57522784Y51757127D01*
X56765657Y51000000D01*
X56754343Y51000000D01*
X55997216Y51757127D01*
X55825873Y51673739D01*
X55712382Y51478554D01*
X55639150Y51264979D01*
X55608992Y51041221D01*
X55466200Y51041221D01*
X55466200Y51122740D01*
X55418309Y51363503D01*
X55324368Y51590297D01*
X55209117Y51762784D01*
X56002873Y51762784D01*
X56760000Y51005657D01*
X57517127Y51762784D01*
X57433739Y51934127D01*
X57238554Y52047618D01*
X57024979Y52120850D01*
X56801221Y52151008D01*
X56575879Y52136934D01*
X56357612Y52079167D01*
X56154809Y51979930D01*
X56086261Y51934127D01*
X56002873Y51762784D01*
X55209117Y51762784D01*
X55187987Y51794406D01*
X55014406Y51967987D01*
X54810297Y52104368D01*
X54583503Y52198309D01*
X54342740Y52246200D01*
X54097260Y52246200D01*
X53856497Y52198309D01*
X53629703Y52104368D01*
X53425594Y51967987D01*
X53252013Y51794406D01*
X53115632Y51590297D01*
X53021691Y51363503D01*
X52973800Y51122740D01*
X52926200Y51122740D01*
X52878309Y51363503D01*
X52784368Y51590297D01*
X52647987Y51794406D01*
X52474406Y51967987D01*
X52270297Y52104368D01*
X52043503Y52198309D01*
X51802740Y52246200D01*
X51557260Y52246200D01*
X51316497Y52198309D01*
X51089703Y52104368D01*
X50885594Y51967987D01*
X50712013Y51794406D01*
X50575632Y51590297D01*
X50481691Y51363503D01*
X50433800Y51122740D01*
X50386200Y51122740D01*
X50338309Y51363503D01*
X50244368Y51590297D01*
X50107987Y51794406D01*
X49934406Y51967987D01*
X49730297Y52104368D01*
X49503503Y52198309D01*
X49262740Y52246200D01*
X49017260Y52246200D01*
X48776497Y52198309D01*
X48549703Y52104368D01*
X48345594Y51967987D01*
X48172013Y51794406D01*
X48035632Y51590297D01*
X47941691Y51363503D01*
X47893800Y51122740D01*
X47846200Y51122740D01*
X47798309Y51363503D01*
X47704368Y51590297D01*
X47567987Y51794406D01*
X47394406Y51967987D01*
X47190297Y52104368D01*
X46963503Y52198309D01*
X46722740Y52246200D01*
X46477260Y52246200D01*
X46236497Y52198309D01*
X46009703Y52104368D01*
X45805594Y51967987D01*
X45632013Y51794406D01*
X45495632Y51590297D01*
X45401691Y51363503D01*
X45353800Y51122740D01*
X45306200Y51122740D01*
X45258309Y51363503D01*
X45164368Y51590297D01*
X45027987Y51794406D01*
X44854406Y51967987D01*
X44650297Y52104368D01*
X44423503Y52198309D01*
X44182740Y52246200D01*
X43937260Y52246200D01*
X43696497Y52198309D01*
X43469703Y52104368D01*
X43265594Y51967987D01*
X43092013Y51794406D01*
X42955632Y51590297D01*
X42861691Y51363503D01*
X42813800Y51122740D01*
X42766200Y51122740D01*
X42718309Y51363503D01*
X42624368Y51590297D01*
X42487987Y51794406D01*
X42314406Y51967987D01*
X42110297Y52104368D01*
X41883503Y52198309D01*
X41642740Y52246200D01*
X41397260Y52246200D01*
X41156497Y52198309D01*
X40929703Y52104368D01*
X40725594Y51967987D01*
X40552013Y51794406D01*
X40415632Y51590297D01*
X40321691Y51363503D01*
X40273800Y51122740D01*
X40120768Y51122740D01*
X40116934Y51184121D01*
X40059167Y51402388D01*
X39959930Y51605191D01*
X39914127Y51673739D01*
X39742784Y51757127D01*
X38985657Y51000000D01*
X38974343Y51000000D01*
X38217216Y51757127D01*
X38045873Y51673739D01*
X37932382Y51478554D01*
X37859150Y51264979D01*
X37828992Y51041221D01*
X37686200Y51041221D01*
X37686200Y51122740D01*
X37638309Y51363503D01*
X37544368Y51590297D01*
X37429117Y51762784D01*
X38222873Y51762784D01*
X38980000Y51005657D01*
X39737127Y51762784D01*
X39653739Y51934127D01*
X39458554Y52047618D01*
X39244979Y52120850D01*
X39021221Y52151008D01*
X38795879Y52136934D01*
X38577612Y52079167D01*
X38374809Y51979930D01*
X38306261Y51934127D01*
X38222873Y51762784D01*
X37429117Y51762784D01*
X37407987Y51794406D01*
X37234406Y51967987D01*
X37030297Y52104368D01*
X36803503Y52198309D01*
X36562740Y52246200D01*
X36317260Y52246200D01*
X36076497Y52198309D01*
X35849703Y52104368D01*
X35645594Y51967987D01*
X35472013Y51794406D01*
X35335632Y51590297D01*
X35241691Y51363503D01*
X35193800Y51122740D01*
X35146200Y51122740D01*
X35098309Y51363503D01*
X35004368Y51590297D01*
X34867987Y51794406D01*
X34694406Y51967987D01*
X34490297Y52104368D01*
X34263503Y52198309D01*
X34022740Y52246200D01*
X33777260Y52246200D01*
X33536497Y52198309D01*
X33309703Y52104368D01*
X33105594Y51967987D01*
X32932013Y51794406D01*
X32795632Y51590297D01*
X32701691Y51363503D01*
X32653800Y51122740D01*
X32606200Y51122740D01*
X32558309Y51363503D01*
X32464368Y51590297D01*
X32327987Y51794406D01*
X32154406Y51967987D01*
X31950297Y52104368D01*
X31723503Y52198309D01*
X31482740Y52246200D01*
X31237260Y52246200D01*
X30996497Y52198309D01*
X30769703Y52104368D01*
X30565594Y51967987D01*
X30392013Y51794406D01*
X30255632Y51590297D01*
X30161691Y51363503D01*
X30113800Y51122740D01*
X30066200Y51122740D01*
X30018309Y51363503D01*
X29924368Y51590297D01*
X29787987Y51794406D01*
X29614406Y51967987D01*
X29410297Y52104368D01*
X29183503Y52198309D01*
X28942740Y52246200D01*
X28697260Y52246200D01*
X28456497Y52198309D01*
X28229703Y52104368D01*
X28025594Y51967987D01*
X27852013Y51794406D01*
X27715632Y51590297D01*
X27621691Y51363503D01*
X27573800Y51122740D01*
X27526200Y51122740D01*
X27478309Y51363503D01*
X27384368Y51590297D01*
X27247987Y51794406D01*
X27074406Y51967987D01*
X26870297Y52104368D01*
X26643503Y52198309D01*
X26402740Y52246200D01*
X26157260Y52246200D01*
X25916497Y52198309D01*
X25689703Y52104368D01*
X25485594Y51967987D01*
X25312013Y51794406D01*
X25175632Y51590297D01*
X25081691Y51363503D01*
X25033800Y51122740D01*
X24986200Y51122740D01*
X24938309Y51363503D01*
X24844368Y51590297D01*
X24707987Y51794406D01*
X24534406Y51967987D01*
X24330297Y52104368D01*
X24103503Y52198309D01*
X23862740Y52246200D01*
X23617260Y52246200D01*
X23376497Y52198309D01*
X23149703Y52104368D01*
X22945594Y51967987D01*
X22772013Y51794406D01*
X22635632Y51590297D01*
X22541691Y51363503D01*
X22493800Y51122740D01*
X22446200Y51122740D01*
X22398309Y51363503D01*
X22304368Y51590297D01*
X22167987Y51794406D01*
X21994406Y51967987D01*
X21790297Y52104368D01*
X21563503Y52198309D01*
X21322740Y52246200D01*
X21077260Y52246200D01*
X20836497Y52198309D01*
X20609703Y52104368D01*
X20405594Y51967987D01*
X20232013Y51794406D01*
X20095632Y51590297D01*
X20001691Y51363503D01*
X19953800Y51122740D01*
X19906200Y51122740D01*
X19858309Y51363503D01*
X19764368Y51590297D01*
X19627987Y51794406D01*
X19454406Y51967987D01*
X19250297Y52104368D01*
X19023503Y52198309D01*
X18782740Y52246200D01*
X18537260Y52246200D01*
X18296497Y52198309D01*
X18069703Y52104368D01*
X17865594Y51967987D01*
X17692013Y51794406D01*
X17555632Y51590297D01*
X17461691Y51363503D01*
X17413800Y51122740D01*
X17260768Y51122740D01*
X17256934Y51184121D01*
X17199167Y51402388D01*
X17099930Y51605191D01*
X17054127Y51673739D01*
X16882784Y51757127D01*
X16125657Y51000000D01*
X16114343Y51000000D01*
X15357216Y51757127D01*
X15185873Y51673739D01*
X15072382Y51478554D01*
X14999150Y51264979D01*
X14968992Y51041221D01*
X14826200Y51041221D01*
X14826200Y51122740D01*
X14778309Y51363503D01*
X14684368Y51590297D01*
X14569117Y51762784D01*
X15362873Y51762784D01*
X16120000Y51005657D01*
X16877127Y51762784D01*
X16793739Y51934127D01*
X16598554Y52047618D01*
X16384979Y52120850D01*
X16161221Y52151008D01*
X15935879Y52136934D01*
X15717612Y52079167D01*
X15514809Y51979930D01*
X15446261Y51934127D01*
X15362873Y51762784D01*
X14569117Y51762784D01*
X14547987Y51794406D01*
X14374406Y51967987D01*
X14170297Y52104368D01*
X13943503Y52198309D01*
X13702740Y52246200D01*
X13600000Y52246200D01*
X13600000Y52392816D01*
X13764121Y52403066D01*
X13982388Y52460833D01*
X14185191Y52560070D01*
X14253739Y52605873D01*
X14337127Y52777216D01*
X13600000Y53514343D01*
X13600000Y53525657D01*
X14342784Y52782873D01*
X14514127Y52866261D01*
X14627618Y53061446D01*
X14700850Y53275021D01*
X14731008Y53498779D01*
X14720768Y53662740D01*
X14873800Y53662740D01*
X14873800Y53417260D01*
X14921691Y53176497D01*
X15015632Y52949703D01*
X15152013Y52745594D01*
X15325594Y52572013D01*
X15529703Y52435632D01*
X15756497Y52341691D01*
X15997260Y52293800D01*
X16242740Y52293800D01*
X16483503Y52341691D01*
X16710297Y52435632D01*
X16914406Y52572013D01*
X17087987Y52745594D01*
X17224368Y52949703D01*
X17318309Y53176497D01*
X17366200Y53417260D01*
X17366200Y53662740D01*
X17413800Y53662740D01*
X17413800Y53417260D01*
X17461691Y53176497D01*
X17555632Y52949703D01*
X17692013Y52745594D01*
X17865594Y52572013D01*
X18069703Y52435632D01*
X18296497Y52341691D01*
X18537260Y52293800D01*
X18782740Y52293800D01*
X19023503Y52341691D01*
X19250297Y52435632D01*
X19454406Y52572013D01*
X19627987Y52745594D01*
X19764368Y52949703D01*
X19858309Y53176497D01*
X19906200Y53417260D01*
X19906200Y53662740D01*
X19953800Y53662740D01*
X19953800Y53417260D01*
X20001691Y53176497D01*
X20095632Y52949703D01*
X20232013Y52745594D01*
X20405594Y52572013D01*
X20609703Y52435632D01*
X20836497Y52341691D01*
X21077260Y52293800D01*
X21322740Y52293800D01*
X21563503Y52341691D01*
X21790297Y52435632D01*
X21994406Y52572013D01*
X22167987Y52745594D01*
X22189116Y52777216D01*
X22982873Y52777216D01*
X23066261Y52605873D01*
X23261446Y52492382D01*
X23475021Y52419150D01*
X23698779Y52388992D01*
X23924121Y52403066D01*
X24142388Y52460833D01*
X24345191Y52560070D01*
X24413739Y52605873D01*
X24497127Y52777216D01*
X23740000Y53534343D01*
X22982873Y52777216D01*
X22189116Y52777216D01*
X22304368Y52949703D01*
X22398309Y53176497D01*
X22446200Y53417260D01*
X22446200Y53581221D01*
X22588992Y53581221D01*
X22603066Y53355879D01*
X22660833Y53137612D01*
X22760070Y52934809D01*
X22805873Y52866261D01*
X22977216Y52782873D01*
X23734343Y53540000D01*
X23745657Y53540000D01*
X24502784Y52782873D01*
X24674127Y52866261D01*
X24787618Y53061446D01*
X24860850Y53275021D01*
X24891008Y53498779D01*
X24880768Y53662740D01*
X25033800Y53662740D01*
X25033800Y53417260D01*
X25081691Y53176497D01*
X25175632Y52949703D01*
X25312013Y52745594D01*
X25485594Y52572013D01*
X25689703Y52435632D01*
X25916497Y52341691D01*
X26157260Y52293800D01*
X26402740Y52293800D01*
X26643503Y52341691D01*
X26870297Y52435632D01*
X27074406Y52572013D01*
X27247987Y52745594D01*
X27384368Y52949703D01*
X27478309Y53176497D01*
X27526200Y53417260D01*
X27526200Y53662740D01*
X27573800Y53662740D01*
X27573800Y53417260D01*
X27621691Y53176497D01*
X27715632Y52949703D01*
X27852013Y52745594D01*
X28025594Y52572013D01*
X28229703Y52435632D01*
X28456497Y52341691D01*
X28697260Y52293800D01*
X28942740Y52293800D01*
X29183503Y52341691D01*
X29410297Y52435632D01*
X29614406Y52572013D01*
X29787987Y52745594D01*
X29809116Y52777216D01*
X30602873Y52777216D01*
X30686261Y52605873D01*
X30881446Y52492382D01*
X31095021Y52419150D01*
X31318779Y52388992D01*
X31544121Y52403066D01*
X31762388Y52460833D01*
X31965191Y52560070D01*
X32033739Y52605873D01*
X32117127Y52777216D01*
X31360000Y53534343D01*
X30602873Y52777216D01*
X29809116Y52777216D01*
X29924368Y52949703D01*
X30018309Y53176497D01*
X30066200Y53417260D01*
X30066200Y53581221D01*
X30208992Y53581221D01*
X30223066Y53355879D01*
X30280833Y53137612D01*
X30380070Y52934809D01*
X30425873Y52866261D01*
X30597216Y52782873D01*
X31354343Y53540000D01*
X31365657Y53540000D01*
X32122784Y52782873D01*
X32294127Y52866261D01*
X32407618Y53061446D01*
X32480850Y53275021D01*
X32511008Y53498779D01*
X32500768Y53662740D01*
X32653800Y53662740D01*
X32653800Y53417260D01*
X32701691Y53176497D01*
X32795632Y52949703D01*
X32932013Y52745594D01*
X33105594Y52572013D01*
X33309703Y52435632D01*
X33536497Y52341691D01*
X33777260Y52293800D01*
X34022740Y52293800D01*
X34263503Y52341691D01*
X34490297Y52435632D01*
X34694406Y52572013D01*
X34867987Y52745594D01*
X35004368Y52949703D01*
X35098309Y53176497D01*
X35146200Y53417260D01*
X35146200Y53662740D01*
X35193800Y53662740D01*
X35193800Y53417260D01*
X35241691Y53176497D01*
X35335632Y52949703D01*
X35472013Y52745594D01*
X35645594Y52572013D01*
X35849703Y52435632D01*
X36076497Y52341691D01*
X36317260Y52293800D01*
X36562740Y52293800D01*
X36803503Y52341691D01*
X37030297Y52435632D01*
X37234406Y52572013D01*
X37407987Y52745594D01*
X37544368Y52949703D01*
X37638309Y53176497D01*
X37686200Y53417260D01*
X37686200Y53662740D01*
X37733800Y53662740D01*
X37733800Y53417260D01*
X37781691Y53176497D01*
X37875632Y52949703D01*
X38012013Y52745594D01*
X38185594Y52572013D01*
X38389703Y52435632D01*
X38616497Y52341691D01*
X38857260Y52293800D01*
X39102740Y52293800D01*
X39343503Y52341691D01*
X39570297Y52435632D01*
X39774406Y52572013D01*
X39947987Y52745594D01*
X40084368Y52949703D01*
X40178309Y53176497D01*
X40226200Y53417260D01*
X40226200Y53662740D01*
X40273800Y53662740D01*
X40273800Y53417260D01*
X40321691Y53176497D01*
X40415632Y52949703D01*
X40552013Y52745594D01*
X40725594Y52572013D01*
X40929703Y52435632D01*
X41156497Y52341691D01*
X41397260Y52293800D01*
X41642740Y52293800D01*
X41883503Y52341691D01*
X42110297Y52435632D01*
X42314406Y52572013D01*
X42487987Y52745594D01*
X42509116Y52777216D01*
X43302873Y52777216D01*
X43386261Y52605873D01*
X43581446Y52492382D01*
X43795021Y52419150D01*
X44018779Y52388992D01*
X44244121Y52403066D01*
X44462388Y52460833D01*
X44665191Y52560070D01*
X44733739Y52605873D01*
X44817127Y52777216D01*
X44060000Y53534343D01*
X43302873Y52777216D01*
X42509116Y52777216D01*
X42624368Y52949703D01*
X42718309Y53176497D01*
X42766200Y53417260D01*
X42766200Y53581221D01*
X42908992Y53581221D01*
X42923066Y53355879D01*
X42980833Y53137612D01*
X43080070Y52934809D01*
X43125873Y52866261D01*
X43297216Y52782873D01*
X44054343Y53540000D01*
X44065657Y53540000D01*
X44822784Y52782873D01*
X44994127Y52866261D01*
X45107618Y53061446D01*
X45180850Y53275021D01*
X45211008Y53498779D01*
X45200768Y53662740D01*
X45353800Y53662740D01*
X45353800Y53417260D01*
X45401691Y53176497D01*
X45495632Y52949703D01*
X45632013Y52745594D01*
X45805594Y52572013D01*
X46009703Y52435632D01*
X46236497Y52341691D01*
X46477260Y52293800D01*
X46722740Y52293800D01*
X46963503Y52341691D01*
X47190297Y52435632D01*
X47394406Y52572013D01*
X47567987Y52745594D01*
X47589116Y52777216D01*
X48382873Y52777216D01*
X48466261Y52605873D01*
X48661446Y52492382D01*
X48875021Y52419150D01*
X49098779Y52388992D01*
X49324121Y52403066D01*
X49542388Y52460833D01*
X49745191Y52560070D01*
X49813739Y52605873D01*
X49897127Y52777216D01*
X49140000Y53534343D01*
X48382873Y52777216D01*
X47589116Y52777216D01*
X47704368Y52949703D01*
X47798309Y53176497D01*
X47846200Y53417260D01*
X47846200Y53581221D01*
X47988992Y53581221D01*
X48003066Y53355879D01*
X48060833Y53137612D01*
X48160070Y52934809D01*
X48205873Y52866261D01*
X48377216Y52782873D01*
X49134343Y53540000D01*
X49145657Y53540000D01*
X49902784Y52782873D01*
X50074127Y52866261D01*
X50187618Y53061446D01*
X50260850Y53275021D01*
X50291008Y53498779D01*
X50280768Y53662740D01*
X50433800Y53662740D01*
X50433800Y53417260D01*
X50481691Y53176497D01*
X50575632Y52949703D01*
X50712013Y52745594D01*
X50885594Y52572013D01*
X51089703Y52435632D01*
X51316497Y52341691D01*
X51557260Y52293800D01*
X51802740Y52293800D01*
X52043503Y52341691D01*
X52270297Y52435632D01*
X52474406Y52572013D01*
X52647987Y52745594D01*
X52784368Y52949703D01*
X52878309Y53176497D01*
X52926200Y53417260D01*
X52926200Y53662740D01*
X52878309Y53903503D01*
X52784368Y54130297D01*
X52647987Y54334406D01*
X52474406Y54507987D01*
X52270297Y54644368D01*
X52043503Y54738309D01*
X51802740Y54786200D01*
X51557260Y54786200D01*
X51316497Y54738309D01*
X51089703Y54644368D01*
X50885594Y54507987D01*
X50712013Y54334406D01*
X50575632Y54130297D01*
X50481691Y53903503D01*
X50433800Y53662740D01*
X50280768Y53662740D01*
X50276934Y53724121D01*
X50219167Y53942388D01*
X50119930Y54145191D01*
X50074127Y54213739D01*
X49902784Y54297127D01*
X49145657Y53540000D01*
X49134343Y53540000D01*
X48377216Y54297127D01*
X48205873Y54213739D01*
X48092382Y54018554D01*
X48019150Y53804979D01*
X47988992Y53581221D01*
X47846200Y53581221D01*
X47846200Y53662740D01*
X47798309Y53903503D01*
X47704368Y54130297D01*
X47589117Y54302784D01*
X48382873Y54302784D01*
X49140000Y53545657D01*
X49897127Y54302784D01*
X49813739Y54474127D01*
X49618554Y54587618D01*
X49404979Y54660850D01*
X49181221Y54691008D01*
X48955879Y54676934D01*
X48737612Y54619167D01*
X48534809Y54519930D01*
X48466261Y54474127D01*
X48382873Y54302784D01*
X47589117Y54302784D01*
X47567987Y54334406D01*
X47394406Y54507987D01*
X47190297Y54644368D01*
X46963503Y54738309D01*
X46722740Y54786200D01*
X46477260Y54786200D01*
X46236497Y54738309D01*
X46009703Y54644368D01*
X45805594Y54507987D01*
X45632013Y54334406D01*
X45495632Y54130297D01*
X45401691Y53903503D01*
X45353800Y53662740D01*
X45200768Y53662740D01*
X45196934Y53724121D01*
X45139167Y53942388D01*
X45039930Y54145191D01*
X44994127Y54213739D01*
X44822784Y54297127D01*
X44065657Y53540000D01*
X44054343Y53540000D01*
X43297216Y54297127D01*
X43125873Y54213739D01*
X43012382Y54018554D01*
X42939150Y53804979D01*
X42908992Y53581221D01*
X42766200Y53581221D01*
X42766200Y53662740D01*
X42718309Y53903503D01*
X42624368Y54130297D01*
X42509117Y54302784D01*
X43302873Y54302784D01*
X44060000Y53545657D01*
X44817127Y54302784D01*
X44733739Y54474127D01*
X44538554Y54587618D01*
X44324979Y54660850D01*
X44101221Y54691008D01*
X43875879Y54676934D01*
X43657612Y54619167D01*
X43454809Y54519930D01*
X43386261Y54474127D01*
X43302873Y54302784D01*
X42509117Y54302784D01*
X42487987Y54334406D01*
X42314406Y54507987D01*
X42110297Y54644368D01*
X41883503Y54738309D01*
X41642740Y54786200D01*
X41397260Y54786200D01*
X41156497Y54738309D01*
X40929703Y54644368D01*
X40725594Y54507987D01*
X40552013Y54334406D01*
X40415632Y54130297D01*
X40321691Y53903503D01*
X40273800Y53662740D01*
X40226200Y53662740D01*
X40178309Y53903503D01*
X40084368Y54130297D01*
X39947987Y54334406D01*
X39774406Y54507987D01*
X39570297Y54644368D01*
X39343503Y54738309D01*
X39102740Y54786200D01*
X38857260Y54786200D01*
X38616497Y54738309D01*
X38389703Y54644368D01*
X38185594Y54507987D01*
X38012013Y54334406D01*
X37875632Y54130297D01*
X37781691Y53903503D01*
X37733800Y53662740D01*
X37686200Y53662740D01*
X37638309Y53903503D01*
X37544368Y54130297D01*
X37407987Y54334406D01*
X37234406Y54507987D01*
X37030297Y54644368D01*
X36803503Y54738309D01*
X36562740Y54786200D01*
X36317260Y54786200D01*
X36076497Y54738309D01*
X35849703Y54644368D01*
X35645594Y54507987D01*
X35472013Y54334406D01*
X35335632Y54130297D01*
X35241691Y53903503D01*
X35193800Y53662740D01*
X35146200Y53662740D01*
X35098309Y53903503D01*
X35004368Y54130297D01*
X34867987Y54334406D01*
X34694406Y54507987D01*
X34490297Y54644368D01*
X34263503Y54738309D01*
X34022740Y54786200D01*
X33777260Y54786200D01*
X33536497Y54738309D01*
X33309703Y54644368D01*
X33105594Y54507987D01*
X32932013Y54334406D01*
X32795632Y54130297D01*
X32701691Y53903503D01*
X32653800Y53662740D01*
X32500768Y53662740D01*
X32496934Y53724121D01*
X32439167Y53942388D01*
X32339930Y54145191D01*
X32294127Y54213739D01*
X32122784Y54297127D01*
X31365657Y53540000D01*
X31354343Y53540000D01*
X30597216Y54297127D01*
X30425873Y54213739D01*
X30312382Y54018554D01*
X30239150Y53804979D01*
X30208992Y53581221D01*
X30066200Y53581221D01*
X30066200Y53662740D01*
X30018309Y53903503D01*
X29924368Y54130297D01*
X29809117Y54302784D01*
X30602873Y54302784D01*
X31360000Y53545657D01*
X32117127Y54302784D01*
X32033739Y54474127D01*
X31838554Y54587618D01*
X31624979Y54660850D01*
X31401221Y54691008D01*
X31175879Y54676934D01*
X30957612Y54619167D01*
X30754809Y54519930D01*
X30686261Y54474127D01*
X30602873Y54302784D01*
X29809117Y54302784D01*
X29787987Y54334406D01*
X29614406Y54507987D01*
X29410297Y54644368D01*
X29183503Y54738309D01*
X28942740Y54786200D01*
X28697260Y54786200D01*
X28456497Y54738309D01*
X28229703Y54644368D01*
X28025594Y54507987D01*
X27852013Y54334406D01*
X27715632Y54130297D01*
X27621691Y53903503D01*
X27573800Y53662740D01*
X27526200Y53662740D01*
X27478309Y53903503D01*
X27384368Y54130297D01*
X27247987Y54334406D01*
X27074406Y54507987D01*
X26870297Y54644368D01*
X26643503Y54738309D01*
X26402740Y54786200D01*
X26157260Y54786200D01*
X25916497Y54738309D01*
X25689703Y54644368D01*
X25485594Y54507987D01*
X25312013Y54334406D01*
X25175632Y54130297D01*
X25081691Y53903503D01*
X25033800Y53662740D01*
X24880768Y53662740D01*
X24876934Y53724121D01*
X24819167Y53942388D01*
X24719930Y54145191D01*
X24674127Y54213739D01*
X24502784Y54297127D01*
X23745657Y53540000D01*
X23734343Y53540000D01*
X22977216Y54297127D01*
X22805873Y54213739D01*
X22692382Y54018554D01*
X22619150Y53804979D01*
X22588992Y53581221D01*
X22446200Y53581221D01*
X22446200Y53662740D01*
X22398309Y53903503D01*
X22304368Y54130297D01*
X22189117Y54302784D01*
X22982873Y54302784D01*
X23740000Y53545657D01*
X24497127Y54302784D01*
X24413739Y54474127D01*
X24218554Y54587618D01*
X24004979Y54660850D01*
X23781221Y54691008D01*
X23555879Y54676934D01*
X23337612Y54619167D01*
X23134809Y54519930D01*
X23066261Y54474127D01*
X22982873Y54302784D01*
X22189117Y54302784D01*
X22167987Y54334406D01*
X21994406Y54507987D01*
X21790297Y54644368D01*
X21563503Y54738309D01*
X21322740Y54786200D01*
X21077260Y54786200D01*
X20836497Y54738309D01*
X20609703Y54644368D01*
X20405594Y54507987D01*
X20232013Y54334406D01*
X20095632Y54130297D01*
X20001691Y53903503D01*
X19953800Y53662740D01*
X19906200Y53662740D01*
X19858309Y53903503D01*
X19764368Y54130297D01*
X19627987Y54334406D01*
X19454406Y54507987D01*
X19250297Y54644368D01*
X19023503Y54738309D01*
X18782740Y54786200D01*
X18537260Y54786200D01*
X18296497Y54738309D01*
X18069703Y54644368D01*
X17865594Y54507987D01*
X17692013Y54334406D01*
X17555632Y54130297D01*
X17461691Y53903503D01*
X17413800Y53662740D01*
X17366200Y53662740D01*
X17318309Y53903503D01*
X17224368Y54130297D01*
X17087987Y54334406D01*
X16914406Y54507987D01*
X16710297Y54644368D01*
X16483503Y54738309D01*
X16242740Y54786200D01*
X15997260Y54786200D01*
X15756497Y54738309D01*
X15529703Y54644368D01*
X15325594Y54507987D01*
X15152013Y54334406D01*
X15015632Y54130297D01*
X14921691Y53903503D01*
X14873800Y53662740D01*
X14720768Y53662740D01*
X14716934Y53724121D01*
X14659167Y53942388D01*
X14559930Y54145191D01*
X14514127Y54213739D01*
X14342784Y54297127D01*
X13600000Y53554343D01*
X13600000Y53565657D01*
X14337127Y54302784D01*
X14253739Y54474127D01*
X14058554Y54587618D01*
X13844979Y54660850D01*
X13621221Y54691008D01*
X13600000Y54689683D01*
X13600000Y56067000D01*
X53839982Y56067000D01*
X53764315Y56051949D01*
X53764315Y56051949D01*
G37*
X53764315Y56051949D02*
X53617268Y55991041D01*
X53484930Y55902615D01*
X53372385Y55790070D01*
X53283959Y55657732D01*
X53223051Y55510685D01*
X53192000Y55354581D01*
X53192000Y55195419D01*
X53223051Y55039315D01*
X53283959Y54892268D01*
X53372385Y54759930D01*
X53484930Y54647385D01*
X53559574Y54597509D01*
X53425594Y54507987D01*
X53252013Y54334406D01*
X53115632Y54130297D01*
X53021691Y53903503D01*
X52973800Y53662740D01*
X52973800Y53417260D01*
X53021691Y53176497D01*
X53115632Y52949703D01*
X53252013Y52745594D01*
X53425594Y52572013D01*
X53629703Y52435632D01*
X53856497Y52341691D01*
X54097260Y52293800D01*
X54342740Y52293800D01*
X54583503Y52341691D01*
X54810297Y52435632D01*
X55014406Y52572013D01*
X55187987Y52745594D01*
X55324368Y52949703D01*
X55418309Y53176497D01*
X55466200Y53417260D01*
X55466200Y53662740D01*
X55418309Y53903503D01*
X55324368Y54130297D01*
X55187987Y54334406D01*
X55014406Y54507987D01*
X54810297Y54644368D01*
X54599407Y54731722D01*
X54627615Y54759930D01*
X54716041Y54892268D01*
X54746996Y54967000D01*
X56300763Y54967000D01*
X56507395Y54760368D01*
X56396497Y54738309D01*
X56169703Y54644368D01*
X55965594Y54507987D01*
X55792013Y54334406D01*
X55655632Y54130297D01*
X55561691Y53903503D01*
X55513800Y53662740D01*
X55513800Y53417260D01*
X55561691Y53176497D01*
X55655632Y52949703D01*
X55792013Y52745594D01*
X55965594Y52572013D01*
X56169703Y52435632D01*
X56396497Y52341691D01*
X56637260Y52293800D01*
X56882740Y52293800D01*
X57123503Y52341691D01*
X57350297Y52435632D01*
X57554406Y52572013D01*
X57727987Y52745594D01*
X57864368Y52949703D01*
X57958309Y53176497D01*
X57967001Y53220193D01*
X57967000Y52026175D01*
X57964422Y52000000D01*
X57967000Y51973826D01*
X57974713Y51895515D01*
X58005190Y51795044D01*
X58054683Y51702449D01*
X58121289Y51621289D01*
X58141626Y51604599D01*
X60267804Y49478420D01*
X60284490Y49458088D01*
X60365650Y49391482D01*
X60458244Y49341989D01*
X60558715Y49311512D01*
X60637026Y49303799D01*
X60637028Y49303799D01*
X60663200Y49301221D01*
X60689373Y49303799D01*
X63442426Y49303799D01*
X64083054Y48663170D01*
X64083053Y8336829D01*
X62779225Y7033000D01*
X60784199Y7033000D01*
X60758026Y7035578D01*
X60731854Y7033000D01*
X60731852Y7033000D01*
X60653541Y7025287D01*
X60553070Y6994810D01*
X60460476Y6945317D01*
X60379316Y6878711D01*
X60362630Y6858379D01*
X58290604Y4786352D01*
X58270272Y4769666D01*
X58253586Y4749334D01*
X58203666Y4688506D01*
X58154173Y4595912D01*
X58123695Y4495441D01*
X58113404Y4390955D01*
X58115983Y4364770D01*
X58115982Y1121792D01*
X58027191Y1033000D01*
X23720776Y1033000D01*
X23600000Y1153775D01*
X23600000Y9202179D01*
X23801530Y9242266D01*
X24039570Y9340865D01*
X24253801Y9484010D01*
X24435990Y9666199D01*
X24579135Y9880430D01*
X24677734Y10118470D01*
X24690000Y10180135D01*
X24702266Y10118470D01*
X24800865Y9880430D01*
X24944010Y9666199D01*
X25126199Y9484010D01*
X25160500Y9461090D01*
X25160501Y8659974D01*
X24700000Y8659974D01*
X24675553Y8657566D01*
X24650991Y8657566D01*
X24571009Y8649688D01*
X24474876Y8630566D01*
X24397970Y8607237D01*
X24307414Y8569728D01*
X24236532Y8531842D01*
X24155033Y8477386D01*
X24092908Y8426400D01*
X24023600Y8357092D01*
X23972614Y8294967D01*
X23918158Y8213468D01*
X23880272Y8142586D01*
X23842763Y8052030D01*
X23819434Y7975124D01*
X23800312Y7878991D01*
X23792434Y7799009D01*
X23792434Y7774447D01*
X23790026Y7750000D01*
X23790026Y7250000D01*
X23792434Y7225553D01*
X23792434Y7200991D01*
X23800312Y7121009D01*
X23819434Y7024876D01*
X23842763Y6947970D01*
X23880272Y6857414D01*
X23918158Y6786532D01*
X23972614Y6705033D01*
X24023600Y6642908D01*
X24092000Y6574508D01*
X24092001Y5199158D01*
X23984930Y5127615D01*
X23872385Y5015070D01*
X23783959Y4882732D01*
X23723051Y4735685D01*
X23692000Y4579581D01*
X23692000Y4420419D01*
X23723051Y4264315D01*
X23783959Y4117268D01*
X23872385Y3984930D01*
X23984930Y3872385D01*
X24117268Y3783959D01*
X24264315Y3723051D01*
X24420419Y3692000D01*
X24579581Y3692000D01*
X24735685Y3723051D01*
X24882732Y3783959D01*
X25015070Y3872385D01*
X25127615Y3984930D01*
X25216041Y4117268D01*
X25276949Y4264315D01*
X25308000Y4420419D01*
X25308000Y4579581D01*
X25302035Y4609571D01*
X25308000Y4670139D01*
X25310941Y4700000D01*
X25308000Y4729860D01*
X25308000Y6345739D01*
X25329982Y6347904D01*
X25375000Y6361560D01*
X25420018Y6347904D01*
X25500000Y6340026D01*
X26500000Y6340026D01*
X26579982Y6347904D01*
X26625000Y6361560D01*
X26670018Y6347904D01*
X26750000Y6340026D01*
X27300000Y6340026D01*
X27324447Y6342434D01*
X27349009Y6342434D01*
X27428991Y6350312D01*
X27525124Y6369434D01*
X27602030Y6392763D01*
X27692586Y6430272D01*
X27763468Y6468158D01*
X27844967Y6522614D01*
X27907092Y6573600D01*
X27976400Y6642908D01*
X28027386Y6705033D01*
X28081842Y6786532D01*
X28119728Y6857414D01*
X28134054Y6892000D01*
X29465315Y6892000D01*
X29484930Y6872385D01*
X29617268Y6783959D01*
X29764315Y6723051D01*
X29920419Y6692000D01*
X30079581Y6692000D01*
X30235685Y6723051D01*
X30382732Y6783959D01*
X30515070Y6872385D01*
X30534685Y6892000D01*
X30748159Y6892000D01*
X31892001Y5748157D01*
X31892001Y5709974D01*
X31750000Y5709974D01*
X31725553Y5707566D01*
X31700991Y5707566D01*
X31621009Y5699688D01*
X31524876Y5680566D01*
X31447970Y5657237D01*
X31357414Y5619728D01*
X31286532Y5581842D01*
X31205033Y5527386D01*
X31142908Y5476400D01*
X31073600Y5407092D01*
X31022614Y5344967D01*
X30968158Y5263468D01*
X30930272Y5192586D01*
X30892763Y5102030D01*
X30869434Y5025124D01*
X30850312Y4928991D01*
X30842434Y4849009D01*
X30842434Y4824447D01*
X30840026Y4800000D01*
X30840026Y4250000D01*
X30847904Y4170018D01*
X30861560Y4125000D01*
X30847904Y4079982D01*
X30840026Y4000000D01*
X30840026Y3000000D01*
X30847904Y2920018D01*
X30871233Y2843110D01*
X30909119Y2772231D01*
X30960105Y2710105D01*
X31022231Y2659119D01*
X31093110Y2621233D01*
X31170018Y2597904D01*
X31250000Y2590026D01*
X32750000Y2590026D01*
X32829982Y2597904D01*
X32906890Y2621233D01*
X32977769Y2659119D01*
X33039895Y2710105D01*
X33090881Y2772231D01*
X33128767Y2843110D01*
X33143597Y2892000D01*
X36045739Y2892000D01*
X36047904Y2870018D01*
X36071233Y2793110D01*
X36109119Y2722231D01*
X36160105Y2660105D01*
X36222231Y2609119D01*
X36293110Y2571233D01*
X36370018Y2547904D01*
X36450000Y2540026D01*
X38550000Y2540026D01*
X38629982Y2547904D01*
X38706890Y2571233D01*
X38777769Y2609119D01*
X38839895Y2660105D01*
X38890881Y2722231D01*
X38928767Y2793110D01*
X38952096Y2870018D01*
X38959974Y2950000D01*
X38959974Y3018102D01*
X39110579Y2867497D01*
X39349378Y2707937D01*
X39614717Y2598030D01*
X39896399Y2542000D01*
X40183601Y2542000D01*
X40465283Y2598030D01*
X40730622Y2707937D01*
X40969421Y2867497D01*
X41172503Y3070579D01*
X41332063Y3309378D01*
X41441970Y3574717D01*
X41498000Y3856399D01*
X41498000Y4143601D01*
X41441970Y4425283D01*
X41332063Y4690622D01*
X41172503Y4929421D01*
X40969421Y5132503D01*
X40730622Y5292063D01*
X40465283Y5401970D01*
X40183601Y5458000D01*
X39896399Y5458000D01*
X39614717Y5401970D01*
X39349378Y5292063D01*
X39110579Y5132503D01*
X38959974Y4981898D01*
X38959974Y5050000D01*
X38952096Y5129982D01*
X38928767Y5206890D01*
X38890881Y5277769D01*
X38839895Y5339895D01*
X38777769Y5390881D01*
X38706890Y5428767D01*
X38629982Y5452096D01*
X38550000Y5459974D01*
X36450000Y5459974D01*
X36370018Y5452096D01*
X36293110Y5428767D01*
X36222231Y5390881D01*
X36160105Y5339895D01*
X36109119Y5277769D01*
X36071233Y5206890D01*
X36047904Y5129982D01*
X36040026Y5050000D01*
X36040026Y4108000D01*
X33143597Y4108000D01*
X33138440Y4125000D01*
X33152096Y4170018D01*
X33159974Y4250000D01*
X33159974Y4800000D01*
X33157566Y4824447D01*
X33157566Y4849009D01*
X33149688Y4928991D01*
X33130566Y5025124D01*
X33108000Y5099515D01*
X33108000Y5970140D01*
X33110941Y6000001D01*
X33099202Y6119189D01*
X33098565Y6121290D01*
X33064436Y6233797D01*
X33007979Y6339421D01*
X32932001Y6432001D01*
X32908803Y6451039D01*
X31451043Y7908798D01*
X31432001Y7932001D01*
X31339421Y8007979D01*
X31233797Y8064436D01*
X31119189Y8099202D01*
X31029861Y8108000D01*
X31029860Y8108000D01*
X31000000Y8110941D01*
X30970140Y8108000D01*
X30534685Y8108000D01*
X30515070Y8127615D01*
X30382732Y8216041D01*
X30235685Y8276949D01*
X30079581Y8308000D01*
X29920419Y8308000D01*
X29764315Y8276949D01*
X29617268Y8216041D01*
X29484930Y8127615D01*
X29465315Y8108000D01*
X28134054Y8108000D01*
X28119728Y8142586D01*
X28081842Y8213468D01*
X28027386Y8294967D01*
X27976400Y8357092D01*
X27907092Y8426400D01*
X27844967Y8477386D01*
X27763468Y8531842D01*
X27692586Y8569728D01*
X27602030Y8607237D01*
X27525124Y8630566D01*
X27428991Y8649688D01*
X27349009Y8657566D01*
X27324447Y8657566D01*
X27300000Y8659974D01*
X26759500Y8659974D01*
X26759500Y9461091D01*
X26793801Y9484010D01*
X26975990Y9666199D01*
X26994102Y9693306D01*
X27698963Y9693306D01*
X27789760Y9515633D01*
X27995447Y9395986D01*
X28220525Y9318767D01*
X28456342Y9286941D01*
X28693836Y9301733D01*
X28923882Y9362572D01*
X29137638Y9467123D01*
X29210240Y9515633D01*
X29301037Y9693306D01*
X28500000Y10494343D01*
X27698963Y9693306D01*
X26994102Y9693306D01*
X27119135Y9880430D01*
X27217734Y10118470D01*
X27268000Y10371173D01*
X27268000Y10543658D01*
X27286941Y10543658D01*
X27301733Y10306164D01*
X27362572Y10076118D01*
X27467123Y9862362D01*
X27515633Y9789760D01*
X27693306Y9698963D01*
X28494343Y10500000D01*
X28505657Y10500000D01*
X29306694Y9698963D01*
X29484367Y9789760D01*
X29604014Y9995447D01*
X29681233Y10220525D01*
X29713059Y10456342D01*
X29698267Y10693836D01*
X29637428Y10923882D01*
X29532877Y11137638D01*
X29484367Y11210240D01*
X29306694Y11301037D01*
X28505657Y10500000D01*
X28494343Y10500000D01*
X27693306Y11301037D01*
X27515633Y11210240D01*
X27395986Y11004553D01*
X27318767Y10779475D01*
X27286941Y10543658D01*
X27268000Y10543658D01*
X27268000Y10628827D01*
X27217734Y10881530D01*
X27119135Y11119570D01*
X26994103Y11306694D01*
X27698963Y11306694D01*
X28500000Y10505657D01*
X29301037Y11306694D01*
X29210240Y11484367D01*
X29004553Y11604014D01*
X28779475Y11681233D01*
X28543658Y11713059D01*
X28306164Y11698267D01*
X28076118Y11637428D01*
X27862362Y11532877D01*
X27789760Y11484367D01*
X27698963Y11306694D01*
X26994103Y11306694D01*
X26975990Y11333801D01*
X26793801Y11515990D01*
X26579570Y11659135D01*
X26341530Y11757734D01*
X26088827Y11808000D01*
X25831173Y11808000D01*
X25578470Y11757734D01*
X25340430Y11659135D01*
X25126199Y11515990D01*
X24944010Y11333801D01*
X24800865Y11119570D01*
X24702266Y10881530D01*
X24690000Y10819865D01*
X24677734Y10881530D01*
X24579135Y11119570D01*
X24435990Y11333801D01*
X24253801Y11515990D01*
X24039570Y11659135D01*
X23801530Y11757734D01*
X23548827Y11808000D01*
X23291173Y11808000D01*
X23038470Y11757734D01*
X22800430Y11659135D01*
X22586199Y11515990D01*
X22404010Y11333801D01*
X22260865Y11119570D01*
X22162266Y10881530D01*
X22112000Y10628827D01*
X22112000Y10371173D01*
X22162266Y10118470D01*
X22260865Y9880430D01*
X22404010Y9666199D01*
X22470209Y9600000D01*
X6600000Y9600000D01*
X6600000Y12300000D01*
X30840026Y12300000D01*
X30840026Y11750000D01*
X30847904Y11670018D01*
X30861560Y11625000D01*
X30847904Y11579982D01*
X30840026Y11500000D01*
X30840026Y10500000D01*
X30847904Y10420018D01*
X30861560Y10375000D01*
X30847904Y10329982D01*
X30840026Y10250000D01*
X30840026Y9700000D01*
X30842434Y9675553D01*
X30842434Y9650991D01*
X30850312Y9571009D01*
X30869434Y9474876D01*
X30892763Y9397970D01*
X30930272Y9307414D01*
X30968158Y9236532D01*
X31022614Y9155033D01*
X31073600Y9092908D01*
X31142908Y9023600D01*
X31205033Y8972614D01*
X31286532Y8918158D01*
X31357414Y8880272D01*
X31447970Y8842763D01*
X31524876Y8819434D01*
X31621009Y8800312D01*
X31700991Y8792434D01*
X31725553Y8792434D01*
X31745734Y8790446D01*
X31723051Y8735685D01*
X31692000Y8579581D01*
X31692000Y8420419D01*
X31723051Y8264315D01*
X31783959Y8117268D01*
X31872385Y7984930D01*
X31984930Y7872385D01*
X32117268Y7783959D01*
X32264315Y7723051D01*
X32420419Y7692000D01*
X32579581Y7692000D01*
X32735685Y7723051D01*
X32882732Y7783959D01*
X33015070Y7872385D01*
X33127615Y7984930D01*
X33216041Y8117268D01*
X33276949Y8264315D01*
X33308000Y8420419D01*
X33308000Y8579581D01*
X33276949Y8735685D01*
X33216041Y8882732D01*
X33127615Y9015070D01*
X33108000Y9034685D01*
X33108000Y9400485D01*
X33130566Y9474876D01*
X33149688Y9571009D01*
X33157566Y9650991D01*
X33157566Y9675553D01*
X33159974Y9700000D01*
X33159974Y10250000D01*
X33152096Y10329982D01*
X33138440Y10375000D01*
X33143597Y10392000D01*
X34765026Y10392000D01*
X34765026Y10175000D01*
X34772904Y10095018D01*
X34796233Y10018110D01*
X34834119Y9947231D01*
X34885105Y9885105D01*
X34947231Y9834119D01*
X35018110Y9796233D01*
X35095018Y9772904D01*
X35175000Y9765026D01*
X36825000Y9765026D01*
X36904982Y9772904D01*
X36981890Y9796233D01*
X37052769Y9834119D01*
X37114895Y9885105D01*
X37165881Y9947231D01*
X37203767Y10018110D01*
X37227096Y10095018D01*
X37234974Y10175000D01*
X37234974Y11121440D01*
X39767000Y11121440D01*
X39767000Y10878560D01*
X39814383Y10640347D01*
X39907330Y10415955D01*
X40042266Y10214008D01*
X40214008Y10042266D01*
X40415955Y9907330D01*
X40640347Y9814383D01*
X40878560Y9767000D01*
X41121440Y9767000D01*
X41359653Y9814383D01*
X41584045Y9907330D01*
X41785992Y10042266D01*
X41957734Y10214008D01*
X42092670Y10415955D01*
X42185617Y10640347D01*
X42233000Y10878560D01*
X42233000Y11121440D01*
X42185617Y11359653D01*
X42092670Y11584045D01*
X41957734Y11785992D01*
X41785992Y11957734D01*
X41584045Y12092670D01*
X41359653Y12185617D01*
X41121440Y12233000D01*
X40878560Y12233000D01*
X40640347Y12185617D01*
X40415955Y12092670D01*
X40214008Y11957734D01*
X40042266Y11785992D01*
X39907330Y11584045D01*
X39814383Y11359653D01*
X39767000Y11121440D01*
X37234974Y11121440D01*
X37234974Y11825000D01*
X37227096Y11904982D01*
X37203767Y11981890D01*
X37165881Y12052769D01*
X37114895Y12114895D01*
X37052769Y12165881D01*
X36981890Y12203767D01*
X36904982Y12227096D01*
X36825000Y12234974D01*
X35175000Y12234974D01*
X35095018Y12227096D01*
X35018110Y12203767D01*
X34947231Y12165881D01*
X34885105Y12114895D01*
X34834119Y12052769D01*
X34796233Y11981890D01*
X34772904Y11904982D01*
X34765026Y11825000D01*
X34765026Y11608000D01*
X33143597Y11608000D01*
X33138440Y11625000D01*
X33152096Y11670018D01*
X33159974Y11750000D01*
X33159974Y11766270D01*
X33264315Y11723051D01*
X33420419Y11692000D01*
X33579581Y11692000D01*
X33735685Y11723051D01*
X33882732Y11783959D01*
X34015070Y11872385D01*
X34127615Y11984930D01*
X34216041Y12117268D01*
X34276949Y12264315D01*
X34308000Y12420419D01*
X34308000Y12579581D01*
X34276949Y12735685D01*
X34216041Y12882732D01*
X34127615Y13015070D01*
X34015070Y13127615D01*
X33882732Y13216041D01*
X33735685Y13276949D01*
X33579581Y13308000D01*
X33420419Y13308000D01*
X33264315Y13276949D01*
X33117268Y13216041D01*
X32984930Y13127615D01*
X32872385Y13015070D01*
X32850281Y12981990D01*
X32794967Y13027386D01*
X32713468Y13081842D01*
X32642586Y13119728D01*
X32552030Y13157237D01*
X32475124Y13180566D01*
X32378991Y13199688D01*
X32299009Y13207566D01*
X32274447Y13207566D01*
X32250000Y13209974D01*
X31750000Y13209974D01*
X31725553Y13207566D01*
X31700991Y13207566D01*
X31621009Y13199688D01*
X31524876Y13180566D01*
X31447970Y13157237D01*
X31357414Y13119728D01*
X31286532Y13081842D01*
X31205033Y13027386D01*
X31142908Y12976400D01*
X31073600Y12907092D01*
X31022614Y12844967D01*
X30968158Y12763468D01*
X30930272Y12692586D01*
X30892763Y12602030D01*
X30869434Y12525124D01*
X30850312Y12428991D01*
X30842434Y12349009D01*
X30842434Y12324447D01*
X30840026Y12300000D01*
X6600000Y12300000D01*
X6600000Y19021271D01*
X43567000Y19021271D01*
X43567001Y3978728D01*
X43569163Y3956776D01*
X43569163Y3943785D01*
X43569795Y3937772D01*
X43591550Y3743822D01*
X43599716Y3705403D01*
X43607333Y3666936D01*
X43609121Y3661160D01*
X43668134Y3475130D01*
X43683604Y3439036D01*
X43698549Y3402777D01*
X43701424Y3397458D01*
X43795447Y3226433D01*
X43817599Y3194080D01*
X43839335Y3161365D01*
X43843189Y3156707D01*
X43968639Y3007200D01*
X43996703Y2979717D01*
X44024333Y2951894D01*
X44029012Y2948078D01*
X44029016Y2948074D01*
X44029018Y2948073D01*
X44181118Y2825782D01*
X44213958Y2804293D01*
X44246490Y2782349D01*
X44251828Y2779511D01*
X44424784Y2689091D01*
X44461160Y2674394D01*
X44497352Y2659180D01*
X44503140Y2657433D01*
X44690366Y2602330D01*
X44728904Y2594978D01*
X44767356Y2587085D01*
X44773374Y2586495D01*
X44967735Y2568806D01*
X45006981Y2569080D01*
X45046226Y2568806D01*
X45052243Y2569396D01*
X45246340Y2589797D01*
X45284817Y2597695D01*
X45323331Y2605042D01*
X45329117Y2606788D01*
X45329123Y2606790D01*
X45515557Y2664501D01*
X45551757Y2679718D01*
X45588122Y2694410D01*
X45593456Y2697246D01*
X45593460Y2697248D01*
X45593463Y2697250D01*
X45765137Y2790074D01*
X45797654Y2812007D01*
X45830513Y2833509D01*
X45835198Y2837330D01*
X45985576Y2961734D01*
X46013220Y2989572D01*
X46041268Y3017038D01*
X46045122Y3021697D01*
X46168472Y3172939D01*
X46190187Y3205623D01*
X46212362Y3238009D01*
X46215238Y3243327D01*
X46306863Y3415650D01*
X46321824Y3451947D01*
X46337278Y3488004D01*
X46339062Y3493769D01*
X46339066Y3493779D01*
X46339068Y3493789D01*
X46395474Y3680616D01*
X46403094Y3719096D01*
X46411257Y3757499D01*
X46411887Y3763503D01*
X46411889Y3763513D01*
X46411889Y3763522D01*
X46430933Y3957746D01*
X46433000Y3978728D01*
X46433000Y19021272D01*
X46430837Y19043234D01*
X46430837Y19056215D01*
X46430204Y19062228D01*
X46408450Y19256178D01*
X46400289Y19294572D01*
X46392667Y19333064D01*
X46390879Y19338840D01*
X46331866Y19524870D01*
X46316410Y19560932D01*
X46301452Y19597223D01*
X46298576Y19602542D01*
X46298576Y19602543D01*
X46298573Y19602547D01*
X46204554Y19773567D01*
X46182368Y19805969D01*
X46160665Y19838635D01*
X46156815Y19843288D01*
X46156811Y19843294D01*
X46156806Y19843299D01*
X46031361Y19992799D01*
X46003316Y20020263D01*
X45975667Y20048106D01*
X45970993Y20051917D01*
X45970984Y20051926D01*
X45970975Y20051932D01*
X45818882Y20174218D01*
X45786019Y20195723D01*
X45753510Y20217651D01*
X45748174Y20220489D01*
X45748166Y20220493D01*
X45575216Y20310909D01*
X45538826Y20325612D01*
X45502647Y20340820D01*
X45496875Y20342562D01*
X45496863Y20342567D01*
X45496852Y20342569D01*
X45309634Y20397670D01*
X45271095Y20405022D01*
X45232643Y20412915D01*
X45226626Y20413505D01*
X45032264Y20431194D01*
X44992986Y20430920D01*
X44953774Y20431194D01*
X44947768Y20430605D01*
X44947760Y20430605D01*
X44947753Y20430604D01*
X44753660Y20410203D01*
X44715183Y20402305D01*
X44676669Y20394958D01*
X44670883Y20393212D01*
X44670877Y20393210D01*
X44484443Y20335499D01*
X44448231Y20320277D01*
X44411878Y20305590D01*
X44406548Y20302756D01*
X44406539Y20302752D01*
X44406532Y20302747D01*
X44234862Y20209926D01*
X44202328Y20187982D01*
X44169487Y20166491D01*
X44164801Y20162669D01*
X44014424Y20038266D01*
X43986780Y20010428D01*
X43958732Y19982962D01*
X43954878Y19978303D01*
X43831528Y19827061D01*
X43809810Y19794372D01*
X43787638Y19761992D01*
X43784766Y19756678D01*
X43784763Y19756674D01*
X43784763Y19756673D01*
X43693137Y19584351D01*
X43678181Y19548066D01*
X43662722Y19511997D01*
X43660938Y19506231D01*
X43660934Y19506221D01*
X43660932Y19506211D01*
X43604526Y19319385D01*
X43596907Y19280908D01*
X43588743Y19242500D01*
X43588113Y19236500D01*
X43588111Y19236488D01*
X43588111Y19236477D01*
X43569201Y19043617D01*
X43567000Y19021271D01*
X6600000Y19021271D01*
X6600000Y24400000D01*
X13500000Y24400000D01*
X13519509Y24401921D01*
X13538268Y24407612D01*
X13555557Y24416853D01*
X13570711Y24429289D01*
X13583147Y24444443D01*
X13592388Y24461732D01*
X13598079Y24480491D01*
X13600000Y24500000D01*
X13600000Y24838000D01*
X25766510Y24838000D01*
X25772457Y24777621D01*
X25790069Y24719563D01*
X25818668Y24666057D01*
X25857158Y24619158D01*
X25904057Y24580668D01*
X25957563Y24552069D01*
X26015621Y24534457D01*
X26076000Y24528510D01*
X26657000Y24530000D01*
X26734000Y24607000D01*
X26734000Y25496000D01*
X26742000Y25496000D01*
X26742000Y24607000D01*
X26819000Y24530000D01*
X27400000Y24528510D01*
X27460379Y24534457D01*
X27500000Y24546476D01*
X27539621Y24534457D01*
X27600000Y24528510D01*
X28181000Y24530000D01*
X28258000Y24607000D01*
X28258000Y25496000D01*
X28266000Y25496000D01*
X28266000Y24607000D01*
X28343000Y24530000D01*
X28924000Y24528510D01*
X28984379Y24534457D01*
X29042437Y24552069D01*
X29095943Y24580668D01*
X29142842Y24619158D01*
X29181332Y24666057D01*
X29209931Y24719563D01*
X29227543Y24777621D01*
X29233490Y24838000D01*
X29232000Y25419000D01*
X29155000Y25496000D01*
X28266000Y25496000D01*
X28258000Y25496000D01*
X26742000Y25496000D01*
X26734000Y25496000D01*
X25845000Y25496000D01*
X25768000Y25419000D01*
X25766510Y24838000D01*
X13600000Y24838000D01*
X13600000Y26162000D01*
X25766510Y26162000D01*
X25768000Y25581000D01*
X25845000Y25504000D01*
X26734000Y25504000D01*
X26734000Y26393000D01*
X26742000Y26393000D01*
X26742000Y25504000D01*
X28258000Y25504000D01*
X28258000Y26393000D01*
X28266000Y26393000D01*
X28266000Y25504000D01*
X29155000Y25504000D01*
X29232000Y25581000D01*
X29233490Y26162000D01*
X29227543Y26222379D01*
X29209931Y26280437D01*
X29181332Y26333943D01*
X29142842Y26380842D01*
X29095943Y26419332D01*
X29042437Y26447931D01*
X28984379Y26465543D01*
X28924000Y26471490D01*
X28343000Y26470000D01*
X28266000Y26393000D01*
X28258000Y26393000D01*
X28181000Y26470000D01*
X27600000Y26471490D01*
X27539621Y26465543D01*
X27500000Y26453524D01*
X27460379Y26465543D01*
X27400000Y26471490D01*
X26819000Y26470000D01*
X26742000Y26393000D01*
X26734000Y26393000D01*
X26657000Y26470000D01*
X26076000Y26471490D01*
X26015621Y26465543D01*
X25957563Y26447931D01*
X25904057Y26419332D01*
X25857158Y26380842D01*
X25818668Y26333943D01*
X25790069Y26280437D01*
X25772457Y26222379D01*
X25766510Y26162000D01*
X13600000Y26162000D01*
X13600000Y32753902D01*
X42242000Y32753902D01*
X42242000Y32506098D01*
X42290344Y32263055D01*
X42385175Y32034114D01*
X42522848Y31828072D01*
X42698072Y31652848D01*
X42904114Y31515175D01*
X43133055Y31420344D01*
X43376098Y31372000D01*
X43623902Y31372000D01*
X43866945Y31420344D01*
X44095886Y31515175D01*
X44301928Y31652848D01*
X44477152Y31828072D01*
X44614825Y32034114D01*
X44709656Y32263055D01*
X44758000Y32506098D01*
X44758000Y32753902D01*
X44709656Y32996945D01*
X44614825Y33225886D01*
X44477152Y33431928D01*
X44301928Y33607152D01*
X44095886Y33744825D01*
X43866945Y33839656D01*
X43623902Y33888000D01*
X43376098Y33888000D01*
X43133055Y33839656D01*
X42904114Y33744825D01*
X42698072Y33607152D01*
X42522848Y33431928D01*
X42385175Y33225886D01*
X42290344Y32996945D01*
X42242000Y32753902D01*
X13600000Y32753902D01*
X13600000Y36020000D01*
X42375026Y36020000D01*
X42375026Y34320000D01*
X42382904Y34240018D01*
X42406233Y34163110D01*
X42444119Y34092231D01*
X42495105Y34030105D01*
X42557231Y33979119D01*
X42628110Y33941233D01*
X42705018Y33917904D01*
X42785000Y33910026D01*
X44215000Y33910026D01*
X44294982Y33917904D01*
X44371890Y33941233D01*
X44442769Y33979119D01*
X44504895Y34030105D01*
X44555881Y34092231D01*
X44593767Y34163110D01*
X44617096Y34240018D01*
X44624974Y34320000D01*
X44624974Y36020000D01*
X44617096Y36099982D01*
X44593767Y36176890D01*
X44555881Y36247769D01*
X44504895Y36309895D01*
X44442769Y36360881D01*
X44371890Y36398767D01*
X44294982Y36422096D01*
X44215000Y36429974D01*
X42785000Y36429974D01*
X42705018Y36422096D01*
X42628110Y36398767D01*
X42557231Y36360881D01*
X42495105Y36309895D01*
X42444119Y36247769D01*
X42406233Y36176890D01*
X42382904Y36099982D01*
X42375026Y36020000D01*
X13600000Y36020000D01*
X13600000Y43454347D01*
X13944172Y43454347D01*
X13970347Y43451769D01*
X14074833Y43462060D01*
X14175304Y43492537D01*
X14267898Y43542030D01*
X14349058Y43608636D01*
X14365748Y43628973D01*
X17253378Y46516602D01*
X17253504Y46516705D01*
X17286199Y46484010D01*
X17500430Y46340865D01*
X17738470Y46242266D01*
X17991173Y46192000D01*
X18248827Y46192000D01*
X18501530Y46242266D01*
X18739570Y46340865D01*
X18953801Y46484010D01*
X19135990Y46666199D01*
X19279135Y46880430D01*
X19361625Y47079581D01*
X20192000Y47079581D01*
X20192000Y46920419D01*
X20223051Y46764315D01*
X20283959Y46617268D01*
X20372385Y46484930D01*
X20467001Y46390314D01*
X20467000Y43609685D01*
X20372385Y43515070D01*
X20283959Y43382732D01*
X20223051Y43235685D01*
X20192000Y43079581D01*
X20192000Y42920419D01*
X20223051Y42764315D01*
X20283959Y42617268D01*
X20372385Y42484930D01*
X20484930Y42372385D01*
X20617268Y42283959D01*
X20764315Y42223051D01*
X20920419Y42192000D01*
X21079581Y42192000D01*
X21235685Y42223051D01*
X21382732Y42283959D01*
X21500000Y42362315D01*
X21617268Y42283959D01*
X21764315Y42223051D01*
X21920419Y42192000D01*
X22079581Y42192000D01*
X22235685Y42223051D01*
X22382732Y42283959D01*
X22515070Y42372385D01*
X22627615Y42484930D01*
X22716041Y42617268D01*
X22776949Y42764315D01*
X22808000Y42920419D01*
X22808000Y43079581D01*
X22776949Y43235685D01*
X22716041Y43382732D01*
X22627615Y43515070D01*
X22533000Y43609685D01*
X22533000Y46390315D01*
X22627615Y46484930D01*
X22716041Y46617268D01*
X22776949Y46764315D01*
X22808000Y46920419D01*
X22808000Y47079581D01*
X22776949Y47235685D01*
X22716041Y47382732D01*
X22627615Y47515070D01*
X22515070Y47627615D01*
X22382732Y47716041D01*
X22235685Y47776949D01*
X22079581Y47808000D01*
X21920419Y47808000D01*
X21764315Y47776949D01*
X21617268Y47716041D01*
X21500000Y47637685D01*
X21382732Y47716041D01*
X21235685Y47776949D01*
X21079581Y47808000D01*
X20920419Y47808000D01*
X20764315Y47776949D01*
X20617268Y47716041D01*
X20484930Y47627615D01*
X20372385Y47515070D01*
X20283959Y47382732D01*
X20223051Y47235685D01*
X20192000Y47079581D01*
X19361625Y47079581D01*
X19377734Y47118470D01*
X19428000Y47371173D01*
X19428000Y47628827D01*
X19377734Y47881530D01*
X19279135Y48119570D01*
X19230738Y48192001D01*
X22753004Y48192001D01*
X22783959Y48117268D01*
X22872385Y47984930D01*
X22984930Y47872385D01*
X23117268Y47783959D01*
X23264315Y47723051D01*
X23420419Y47692000D01*
X23579581Y47692000D01*
X23735685Y47723051D01*
X23882732Y47783959D01*
X24015070Y47872385D01*
X24127615Y47984930D01*
X24216041Y48117268D01*
X24276949Y48264315D01*
X24308000Y48420419D01*
X24308000Y48579581D01*
X24276949Y48735685D01*
X24216041Y48882732D01*
X24127615Y49015070D01*
X24015070Y49127615D01*
X23882732Y49216041D01*
X23735685Y49276949D01*
X23579581Y49308000D01*
X23420419Y49308000D01*
X23264315Y49276949D01*
X23218570Y49258001D01*
X17558171Y49258001D01*
X17531998Y49260579D01*
X17505826Y49258001D01*
X17505824Y49258001D01*
X17427513Y49250288D01*
X17327042Y49219811D01*
X17234448Y49170318D01*
X17153288Y49103712D01*
X17136602Y49083380D01*
X16536621Y48483398D01*
X16516289Y48466712D01*
X16499603Y48446380D01*
X16492304Y48437487D01*
X16413801Y48515990D01*
X16199570Y48659135D01*
X15961530Y48757734D01*
X15708827Y48808000D01*
X15451173Y48808000D01*
X15198470Y48757734D01*
X14960430Y48659135D01*
X14746199Y48515990D01*
X14564010Y48333801D01*
X14420865Y48119570D01*
X14322266Y47881530D01*
X14272000Y47628827D01*
X14272000Y47371173D01*
X14322266Y47118470D01*
X14420865Y46880430D01*
X14564010Y46666199D01*
X14746199Y46484010D01*
X14960430Y46340865D01*
X15198470Y46242266D01*
X15426193Y46196969D01*
X13749572Y44520347D01*
X13600000Y44520347D01*
X13600000Y46429149D01*
X13677638Y46467123D01*
X13750240Y46515633D01*
X13841037Y46693306D01*
X13600000Y46934343D01*
X13600000Y46945657D01*
X13846694Y46698963D01*
X14024367Y46789760D01*
X14144014Y46995447D01*
X14221233Y47220525D01*
X14253059Y47456342D01*
X14238267Y47693836D01*
X14177428Y47923882D01*
X14072877Y48137638D01*
X14024367Y48210240D01*
X13846694Y48301037D01*
X13600000Y48054343D01*
X13600000Y48065657D01*
X13841037Y48306694D01*
X13750240Y48484367D01*
X13600000Y48571761D01*
X13600000Y49753800D01*
X13702740Y49753800D01*
X13943503Y49801691D01*
X14170297Y49895632D01*
X14374406Y50032013D01*
X14547987Y50205594D01*
X14569116Y50237216D01*
X15362873Y50237216D01*
X15446261Y50065873D01*
X15641446Y49952382D01*
X15855021Y49879150D01*
X16078779Y49848992D01*
X16304121Y49863066D01*
X16522388Y49920833D01*
X16725191Y50020070D01*
X16793739Y50065873D01*
X16877127Y50237216D01*
X16120000Y50994343D01*
X15362873Y50237216D01*
X14569116Y50237216D01*
X14684368Y50409703D01*
X14778309Y50636497D01*
X14826200Y50877260D01*
X14826200Y51041221D01*
X14968992Y51041221D01*
X14983066Y50815879D01*
X15040833Y50597612D01*
X15140070Y50394809D01*
X15185873Y50326261D01*
X15357216Y50242873D01*
X16114343Y51000000D01*
X16125657Y51000000D01*
X16882784Y50242873D01*
X17054127Y50326261D01*
X17167618Y50521446D01*
X17240850Y50735021D01*
X17271008Y50958779D01*
X17260768Y51122740D01*
X17413800Y51122740D01*
X17413800Y50877260D01*
X17461691Y50636497D01*
X17555632Y50409703D01*
X17692013Y50205594D01*
X17865594Y50032013D01*
X18069703Y49895632D01*
X18296497Y49801691D01*
X18537260Y49753800D01*
X18782740Y49753800D01*
X19023503Y49801691D01*
X19250297Y49895632D01*
X19454406Y50032013D01*
X19627987Y50205594D01*
X19764368Y50409703D01*
X19858309Y50636497D01*
X19906200Y50877260D01*
X19906200Y51122740D01*
X19953800Y51122740D01*
X19953800Y50877260D01*
X20001691Y50636497D01*
X20095632Y50409703D01*
X20232013Y50205594D01*
X20405594Y50032013D01*
X20609703Y49895632D01*
X20836497Y49801691D01*
X21077260Y49753800D01*
X21322740Y49753800D01*
X21563503Y49801691D01*
X21790297Y49895632D01*
X21994406Y50032013D01*
X22167987Y50205594D01*
X22304368Y50409703D01*
X22398309Y50636497D01*
X22446200Y50877260D01*
X22446200Y51122740D01*
X22493800Y51122740D01*
X22493800Y50877260D01*
X22541691Y50636497D01*
X22635632Y50409703D01*
X22772013Y50205594D01*
X22945594Y50032013D01*
X23149703Y49895632D01*
X23376497Y49801691D01*
X23617260Y49753800D01*
X23862740Y49753800D01*
X24103503Y49801691D01*
X24330297Y49895632D01*
X24534406Y50032013D01*
X24707987Y50205594D01*
X24844368Y50409703D01*
X24938309Y50636497D01*
X24986200Y50877260D01*
X24986200Y51122740D01*
X25033800Y51122740D01*
X25033800Y50877260D01*
X25081691Y50636497D01*
X25175632Y50409703D01*
X25312013Y50205594D01*
X25485594Y50032013D01*
X25689703Y49895632D01*
X25916497Y49801691D01*
X26157260Y49753800D01*
X26402740Y49753800D01*
X26643503Y49801691D01*
X26870297Y49895632D01*
X27074406Y50032013D01*
X27247987Y50205594D01*
X27384368Y50409703D01*
X27478309Y50636497D01*
X27526200Y50877260D01*
X27526200Y51122740D01*
X27573800Y51122740D01*
X27573800Y50877260D01*
X27621691Y50636497D01*
X27715632Y50409703D01*
X27852013Y50205594D01*
X28025594Y50032013D01*
X28229703Y49895632D01*
X28456497Y49801691D01*
X28697260Y49753800D01*
X28942740Y49753800D01*
X29183503Y49801691D01*
X29410297Y49895632D01*
X29614406Y50032013D01*
X29787987Y50205594D01*
X29924368Y50409703D01*
X30018309Y50636497D01*
X30066200Y50877260D01*
X30066200Y51122740D01*
X30113800Y51122740D01*
X30113800Y50877260D01*
X30161691Y50636497D01*
X30255632Y50409703D01*
X30392013Y50205594D01*
X30565594Y50032013D01*
X30769703Y49895632D01*
X30996497Y49801691D01*
X31237260Y49753800D01*
X31482740Y49753800D01*
X31723503Y49801691D01*
X31950297Y49895632D01*
X32154406Y50032013D01*
X32327987Y50205594D01*
X32464368Y50409703D01*
X32558309Y50636497D01*
X32606200Y50877260D01*
X32606200Y51122740D01*
X32653800Y51122740D01*
X32653800Y50877260D01*
X32701691Y50636497D01*
X32795632Y50409703D01*
X32932013Y50205594D01*
X33105594Y50032013D01*
X33309703Y49895632D01*
X33536497Y49801691D01*
X33777260Y49753800D01*
X34022740Y49753800D01*
X34263503Y49801691D01*
X34490297Y49895632D01*
X34694406Y50032013D01*
X34867987Y50205594D01*
X35004368Y50409703D01*
X35098309Y50636497D01*
X35146200Y50877260D01*
X35146200Y51122740D01*
X35193800Y51122740D01*
X35193800Y50877260D01*
X35241691Y50636497D01*
X35335632Y50409703D01*
X35472013Y50205594D01*
X35645594Y50032013D01*
X35849703Y49895632D01*
X36076497Y49801691D01*
X36317260Y49753800D01*
X36562740Y49753800D01*
X36803503Y49801691D01*
X37030297Y49895632D01*
X37234406Y50032013D01*
X37407987Y50205594D01*
X37429116Y50237216D01*
X38222873Y50237216D01*
X38306261Y50065873D01*
X38501446Y49952382D01*
X38715021Y49879150D01*
X38938779Y49848992D01*
X39164121Y49863066D01*
X39382388Y49920833D01*
X39585191Y50020070D01*
X39653739Y50065873D01*
X39737127Y50237216D01*
X38980000Y50994343D01*
X38222873Y50237216D01*
X37429116Y50237216D01*
X37544368Y50409703D01*
X37638309Y50636497D01*
X37686200Y50877260D01*
X37686200Y51041221D01*
X37828992Y51041221D01*
X37843066Y50815879D01*
X37900833Y50597612D01*
X38000070Y50394809D01*
X38045873Y50326261D01*
X38217216Y50242873D01*
X38974343Y51000000D01*
X38985657Y51000000D01*
X39742784Y50242873D01*
X39914127Y50326261D01*
X40027618Y50521446D01*
X40100850Y50735021D01*
X40131008Y50958779D01*
X40120768Y51122740D01*
X40273800Y51122740D01*
X40273800Y50877260D01*
X40321691Y50636497D01*
X40415632Y50409703D01*
X40552013Y50205594D01*
X40725594Y50032013D01*
X40929703Y49895632D01*
X41156497Y49801691D01*
X41397260Y49753800D01*
X41642740Y49753800D01*
X41883503Y49801691D01*
X42110297Y49895632D01*
X42314406Y50032013D01*
X42487987Y50205594D01*
X42624368Y50409703D01*
X42718309Y50636497D01*
X42766200Y50877260D01*
X42766200Y51122740D01*
X42813800Y51122740D01*
X42813800Y50877260D01*
X42861691Y50636497D01*
X42955632Y50409703D01*
X43092013Y50205594D01*
X43265594Y50032013D01*
X43469703Y49895632D01*
X43696497Y49801691D01*
X43937260Y49753800D01*
X44182740Y49753800D01*
X44423503Y49801691D01*
X44650297Y49895632D01*
X44854406Y50032013D01*
X45027987Y50205594D01*
X45164368Y50409703D01*
X45258309Y50636497D01*
X45306200Y50877260D01*
X45306200Y51122740D01*
X45353800Y51122740D01*
X45353800Y50877260D01*
X45401691Y50636497D01*
X45495632Y50409703D01*
X45632013Y50205594D01*
X45805594Y50032013D01*
X46009703Y49895632D01*
X46236497Y49801691D01*
X46477260Y49753800D01*
X46722740Y49753800D01*
X46963503Y49801691D01*
X47190297Y49895632D01*
X47394406Y50032013D01*
X47567987Y50205594D01*
X47704368Y50409703D01*
X47798309Y50636497D01*
X47846200Y50877260D01*
X47846200Y51122740D01*
X47893800Y51122740D01*
X47893800Y50877260D01*
X47941691Y50636497D01*
X48035632Y50409703D01*
X48172013Y50205594D01*
X48345594Y50032013D01*
X48549703Y49895632D01*
X48776497Y49801691D01*
X49017260Y49753800D01*
X49262740Y49753800D01*
X49503503Y49801691D01*
X49730297Y49895632D01*
X49934406Y50032013D01*
X50107987Y50205594D01*
X50244368Y50409703D01*
X50338309Y50636497D01*
X50386200Y50877260D01*
X50386200Y51122740D01*
X50433800Y51122740D01*
X50433800Y50877260D01*
X50481691Y50636497D01*
X50575632Y50409703D01*
X50712013Y50205594D01*
X50885594Y50032013D01*
X51089703Y49895632D01*
X51316497Y49801691D01*
X51557260Y49753800D01*
X51802740Y49753800D01*
X52043503Y49801691D01*
X52270297Y49895632D01*
X52474406Y50032013D01*
X52647987Y50205594D01*
X52784368Y50409703D01*
X52878309Y50636497D01*
X52926200Y50877260D01*
X52926200Y51122740D01*
X52973800Y51122740D01*
X52973800Y50877260D01*
X53021691Y50636497D01*
X53115632Y50409703D01*
X53252013Y50205594D01*
X53425594Y50032013D01*
X53629703Y49895632D01*
X53856497Y49801691D01*
X54097260Y49753800D01*
X54342740Y49753800D01*
X54583503Y49801691D01*
X54810297Y49895632D01*
X55014406Y50032013D01*
X55187987Y50205594D01*
X55209116Y50237216D01*
X56002873Y50237216D01*
X56086261Y50065873D01*
X56281446Y49952382D01*
X56495021Y49879150D01*
X56718779Y49848992D01*
X56944121Y49863066D01*
X57162388Y49920833D01*
X57365191Y50020070D01*
X57433739Y50065873D01*
X57517127Y50237216D01*
X56760000Y50994343D01*
X56002873Y50237216D01*
X55209116Y50237216D01*
X55324368Y50409703D01*
X55418309Y50636497D01*
X55466200Y50877260D01*
X55466200Y51041221D01*
X55608992Y51041221D01*
X55623066Y50815879D01*
X55680833Y50597612D01*
X55780070Y50394809D01*
X55825873Y50326261D01*
X55997216Y50242873D01*
X56754343Y51000000D01*
X56765657Y51000000D01*
X57522784Y50242873D01*
X57694127Y50326261D01*
X57807618Y50521446D01*
X57880850Y50735021D01*
X57911008Y50958779D01*
X57896934Y51184121D01*
X57839167Y51402388D01*
X57739930Y51605191D01*
X57694127Y51673739D01*
X57522784Y51757127D01*
X56765657Y51000000D01*
X56754343Y51000000D01*
X55997216Y51757127D01*
X55825873Y51673739D01*
X55712382Y51478554D01*
X55639150Y51264979D01*
X55608992Y51041221D01*
X55466200Y51041221D01*
X55466200Y51122740D01*
X55418309Y51363503D01*
X55324368Y51590297D01*
X55209117Y51762784D01*
X56002873Y51762784D01*
X56760000Y51005657D01*
X57517127Y51762784D01*
X57433739Y51934127D01*
X57238554Y52047618D01*
X57024979Y52120850D01*
X56801221Y52151008D01*
X56575879Y52136934D01*
X56357612Y52079167D01*
X56154809Y51979930D01*
X56086261Y51934127D01*
X56002873Y51762784D01*
X55209117Y51762784D01*
X55187987Y51794406D01*
X55014406Y51967987D01*
X54810297Y52104368D01*
X54583503Y52198309D01*
X54342740Y52246200D01*
X54097260Y52246200D01*
X53856497Y52198309D01*
X53629703Y52104368D01*
X53425594Y51967987D01*
X53252013Y51794406D01*
X53115632Y51590297D01*
X53021691Y51363503D01*
X52973800Y51122740D01*
X52926200Y51122740D01*
X52878309Y51363503D01*
X52784368Y51590297D01*
X52647987Y51794406D01*
X52474406Y51967987D01*
X52270297Y52104368D01*
X52043503Y52198309D01*
X51802740Y52246200D01*
X51557260Y52246200D01*
X51316497Y52198309D01*
X51089703Y52104368D01*
X50885594Y51967987D01*
X50712013Y51794406D01*
X50575632Y51590297D01*
X50481691Y51363503D01*
X50433800Y51122740D01*
X50386200Y51122740D01*
X50338309Y51363503D01*
X50244368Y51590297D01*
X50107987Y51794406D01*
X49934406Y51967987D01*
X49730297Y52104368D01*
X49503503Y52198309D01*
X49262740Y52246200D01*
X49017260Y52246200D01*
X48776497Y52198309D01*
X48549703Y52104368D01*
X48345594Y51967987D01*
X48172013Y51794406D01*
X48035632Y51590297D01*
X47941691Y51363503D01*
X47893800Y51122740D01*
X47846200Y51122740D01*
X47798309Y51363503D01*
X47704368Y51590297D01*
X47567987Y51794406D01*
X47394406Y51967987D01*
X47190297Y52104368D01*
X46963503Y52198309D01*
X46722740Y52246200D01*
X46477260Y52246200D01*
X46236497Y52198309D01*
X46009703Y52104368D01*
X45805594Y51967987D01*
X45632013Y51794406D01*
X45495632Y51590297D01*
X45401691Y51363503D01*
X45353800Y51122740D01*
X45306200Y51122740D01*
X45258309Y51363503D01*
X45164368Y51590297D01*
X45027987Y51794406D01*
X44854406Y51967987D01*
X44650297Y52104368D01*
X44423503Y52198309D01*
X44182740Y52246200D01*
X43937260Y52246200D01*
X43696497Y52198309D01*
X43469703Y52104368D01*
X43265594Y51967987D01*
X43092013Y51794406D01*
X42955632Y51590297D01*
X42861691Y51363503D01*
X42813800Y51122740D01*
X42766200Y51122740D01*
X42718309Y51363503D01*
X42624368Y51590297D01*
X42487987Y51794406D01*
X42314406Y51967987D01*
X42110297Y52104368D01*
X41883503Y52198309D01*
X41642740Y52246200D01*
X41397260Y52246200D01*
X41156497Y52198309D01*
X40929703Y52104368D01*
X40725594Y51967987D01*
X40552013Y51794406D01*
X40415632Y51590297D01*
X40321691Y51363503D01*
X40273800Y51122740D01*
X40120768Y51122740D01*
X40116934Y51184121D01*
X40059167Y51402388D01*
X39959930Y51605191D01*
X39914127Y51673739D01*
X39742784Y51757127D01*
X38985657Y51000000D01*
X38974343Y51000000D01*
X38217216Y51757127D01*
X38045873Y51673739D01*
X37932382Y51478554D01*
X37859150Y51264979D01*
X37828992Y51041221D01*
X37686200Y51041221D01*
X37686200Y51122740D01*
X37638309Y51363503D01*
X37544368Y51590297D01*
X37429117Y51762784D01*
X38222873Y51762784D01*
X38980000Y51005657D01*
X39737127Y51762784D01*
X39653739Y51934127D01*
X39458554Y52047618D01*
X39244979Y52120850D01*
X39021221Y52151008D01*
X38795879Y52136934D01*
X38577612Y52079167D01*
X38374809Y51979930D01*
X38306261Y51934127D01*
X38222873Y51762784D01*
X37429117Y51762784D01*
X37407987Y51794406D01*
X37234406Y51967987D01*
X37030297Y52104368D01*
X36803503Y52198309D01*
X36562740Y52246200D01*
X36317260Y52246200D01*
X36076497Y52198309D01*
X35849703Y52104368D01*
X35645594Y51967987D01*
X35472013Y51794406D01*
X35335632Y51590297D01*
X35241691Y51363503D01*
X35193800Y51122740D01*
X35146200Y51122740D01*
X35098309Y51363503D01*
X35004368Y51590297D01*
X34867987Y51794406D01*
X34694406Y51967987D01*
X34490297Y52104368D01*
X34263503Y52198309D01*
X34022740Y52246200D01*
X33777260Y52246200D01*
X33536497Y52198309D01*
X33309703Y52104368D01*
X33105594Y51967987D01*
X32932013Y51794406D01*
X32795632Y51590297D01*
X32701691Y51363503D01*
X32653800Y51122740D01*
X32606200Y51122740D01*
X32558309Y51363503D01*
X32464368Y51590297D01*
X32327987Y51794406D01*
X32154406Y51967987D01*
X31950297Y52104368D01*
X31723503Y52198309D01*
X31482740Y52246200D01*
X31237260Y52246200D01*
X30996497Y52198309D01*
X30769703Y52104368D01*
X30565594Y51967987D01*
X30392013Y51794406D01*
X30255632Y51590297D01*
X30161691Y51363503D01*
X30113800Y51122740D01*
X30066200Y51122740D01*
X30018309Y51363503D01*
X29924368Y51590297D01*
X29787987Y51794406D01*
X29614406Y51967987D01*
X29410297Y52104368D01*
X29183503Y52198309D01*
X28942740Y52246200D01*
X28697260Y52246200D01*
X28456497Y52198309D01*
X28229703Y52104368D01*
X28025594Y51967987D01*
X27852013Y51794406D01*
X27715632Y51590297D01*
X27621691Y51363503D01*
X27573800Y51122740D01*
X27526200Y51122740D01*
X27478309Y51363503D01*
X27384368Y51590297D01*
X27247987Y51794406D01*
X27074406Y51967987D01*
X26870297Y52104368D01*
X26643503Y52198309D01*
X26402740Y52246200D01*
X26157260Y52246200D01*
X25916497Y52198309D01*
X25689703Y52104368D01*
X25485594Y51967987D01*
X25312013Y51794406D01*
X25175632Y51590297D01*
X25081691Y51363503D01*
X25033800Y51122740D01*
X24986200Y51122740D01*
X24938309Y51363503D01*
X24844368Y51590297D01*
X24707987Y51794406D01*
X24534406Y51967987D01*
X24330297Y52104368D01*
X24103503Y52198309D01*
X23862740Y52246200D01*
X23617260Y52246200D01*
X23376497Y52198309D01*
X23149703Y52104368D01*
X22945594Y51967987D01*
X22772013Y51794406D01*
X22635632Y51590297D01*
X22541691Y51363503D01*
X22493800Y51122740D01*
X22446200Y51122740D01*
X22398309Y51363503D01*
X22304368Y51590297D01*
X22167987Y51794406D01*
X21994406Y51967987D01*
X21790297Y52104368D01*
X21563503Y52198309D01*
X21322740Y52246200D01*
X21077260Y52246200D01*
X20836497Y52198309D01*
X20609703Y52104368D01*
X20405594Y51967987D01*
X20232013Y51794406D01*
X20095632Y51590297D01*
X20001691Y51363503D01*
X19953800Y51122740D01*
X19906200Y51122740D01*
X19858309Y51363503D01*
X19764368Y51590297D01*
X19627987Y51794406D01*
X19454406Y51967987D01*
X19250297Y52104368D01*
X19023503Y52198309D01*
X18782740Y52246200D01*
X18537260Y52246200D01*
X18296497Y52198309D01*
X18069703Y52104368D01*
X17865594Y51967987D01*
X17692013Y51794406D01*
X17555632Y51590297D01*
X17461691Y51363503D01*
X17413800Y51122740D01*
X17260768Y51122740D01*
X17256934Y51184121D01*
X17199167Y51402388D01*
X17099930Y51605191D01*
X17054127Y51673739D01*
X16882784Y51757127D01*
X16125657Y51000000D01*
X16114343Y51000000D01*
X15357216Y51757127D01*
X15185873Y51673739D01*
X15072382Y51478554D01*
X14999150Y51264979D01*
X14968992Y51041221D01*
X14826200Y51041221D01*
X14826200Y51122740D01*
X14778309Y51363503D01*
X14684368Y51590297D01*
X14569117Y51762784D01*
X15362873Y51762784D01*
X16120000Y51005657D01*
X16877127Y51762784D01*
X16793739Y51934127D01*
X16598554Y52047618D01*
X16384979Y52120850D01*
X16161221Y52151008D01*
X15935879Y52136934D01*
X15717612Y52079167D01*
X15514809Y51979930D01*
X15446261Y51934127D01*
X15362873Y51762784D01*
X14569117Y51762784D01*
X14547987Y51794406D01*
X14374406Y51967987D01*
X14170297Y52104368D01*
X13943503Y52198309D01*
X13702740Y52246200D01*
X13600000Y52246200D01*
X13600000Y52392816D01*
X13764121Y52403066D01*
X13982388Y52460833D01*
X14185191Y52560070D01*
X14253739Y52605873D01*
X14337127Y52777216D01*
X13600000Y53514343D01*
X13600000Y53525657D01*
X14342784Y52782873D01*
X14514127Y52866261D01*
X14627618Y53061446D01*
X14700850Y53275021D01*
X14731008Y53498779D01*
X14720768Y53662740D01*
X14873800Y53662740D01*
X14873800Y53417260D01*
X14921691Y53176497D01*
X15015632Y52949703D01*
X15152013Y52745594D01*
X15325594Y52572013D01*
X15529703Y52435632D01*
X15756497Y52341691D01*
X15997260Y52293800D01*
X16242740Y52293800D01*
X16483503Y52341691D01*
X16710297Y52435632D01*
X16914406Y52572013D01*
X17087987Y52745594D01*
X17224368Y52949703D01*
X17318309Y53176497D01*
X17366200Y53417260D01*
X17366200Y53662740D01*
X17413800Y53662740D01*
X17413800Y53417260D01*
X17461691Y53176497D01*
X17555632Y52949703D01*
X17692013Y52745594D01*
X17865594Y52572013D01*
X18069703Y52435632D01*
X18296497Y52341691D01*
X18537260Y52293800D01*
X18782740Y52293800D01*
X19023503Y52341691D01*
X19250297Y52435632D01*
X19454406Y52572013D01*
X19627987Y52745594D01*
X19764368Y52949703D01*
X19858309Y53176497D01*
X19906200Y53417260D01*
X19906200Y53662740D01*
X19953800Y53662740D01*
X19953800Y53417260D01*
X20001691Y53176497D01*
X20095632Y52949703D01*
X20232013Y52745594D01*
X20405594Y52572013D01*
X20609703Y52435632D01*
X20836497Y52341691D01*
X21077260Y52293800D01*
X21322740Y52293800D01*
X21563503Y52341691D01*
X21790297Y52435632D01*
X21994406Y52572013D01*
X22167987Y52745594D01*
X22189116Y52777216D01*
X22982873Y52777216D01*
X23066261Y52605873D01*
X23261446Y52492382D01*
X23475021Y52419150D01*
X23698779Y52388992D01*
X23924121Y52403066D01*
X24142388Y52460833D01*
X24345191Y52560070D01*
X24413739Y52605873D01*
X24497127Y52777216D01*
X23740000Y53534343D01*
X22982873Y52777216D01*
X22189116Y52777216D01*
X22304368Y52949703D01*
X22398309Y53176497D01*
X22446200Y53417260D01*
X22446200Y53581221D01*
X22588992Y53581221D01*
X22603066Y53355879D01*
X22660833Y53137612D01*
X22760070Y52934809D01*
X22805873Y52866261D01*
X22977216Y52782873D01*
X23734343Y53540000D01*
X23745657Y53540000D01*
X24502784Y52782873D01*
X24674127Y52866261D01*
X24787618Y53061446D01*
X24860850Y53275021D01*
X24891008Y53498779D01*
X24880768Y53662740D01*
X25033800Y53662740D01*
X25033800Y53417260D01*
X25081691Y53176497D01*
X25175632Y52949703D01*
X25312013Y52745594D01*
X25485594Y52572013D01*
X25689703Y52435632D01*
X25916497Y52341691D01*
X26157260Y52293800D01*
X26402740Y52293800D01*
X26643503Y52341691D01*
X26870297Y52435632D01*
X27074406Y52572013D01*
X27247987Y52745594D01*
X27384368Y52949703D01*
X27478309Y53176497D01*
X27526200Y53417260D01*
X27526200Y53662740D01*
X27573800Y53662740D01*
X27573800Y53417260D01*
X27621691Y53176497D01*
X27715632Y52949703D01*
X27852013Y52745594D01*
X28025594Y52572013D01*
X28229703Y52435632D01*
X28456497Y52341691D01*
X28697260Y52293800D01*
X28942740Y52293800D01*
X29183503Y52341691D01*
X29410297Y52435632D01*
X29614406Y52572013D01*
X29787987Y52745594D01*
X29809116Y52777216D01*
X30602873Y52777216D01*
X30686261Y52605873D01*
X30881446Y52492382D01*
X31095021Y52419150D01*
X31318779Y52388992D01*
X31544121Y52403066D01*
X31762388Y52460833D01*
X31965191Y52560070D01*
X32033739Y52605873D01*
X32117127Y52777216D01*
X31360000Y53534343D01*
X30602873Y52777216D01*
X29809116Y52777216D01*
X29924368Y52949703D01*
X30018309Y53176497D01*
X30066200Y53417260D01*
X30066200Y53581221D01*
X30208992Y53581221D01*
X30223066Y53355879D01*
X30280833Y53137612D01*
X30380070Y52934809D01*
X30425873Y52866261D01*
X30597216Y52782873D01*
X31354343Y53540000D01*
X31365657Y53540000D01*
X32122784Y52782873D01*
X32294127Y52866261D01*
X32407618Y53061446D01*
X32480850Y53275021D01*
X32511008Y53498779D01*
X32500768Y53662740D01*
X32653800Y53662740D01*
X32653800Y53417260D01*
X32701691Y53176497D01*
X32795632Y52949703D01*
X32932013Y52745594D01*
X33105594Y52572013D01*
X33309703Y52435632D01*
X33536497Y52341691D01*
X33777260Y52293800D01*
X34022740Y52293800D01*
X34263503Y52341691D01*
X34490297Y52435632D01*
X34694406Y52572013D01*
X34867987Y52745594D01*
X35004368Y52949703D01*
X35098309Y53176497D01*
X35146200Y53417260D01*
X35146200Y53662740D01*
X35193800Y53662740D01*
X35193800Y53417260D01*
X35241691Y53176497D01*
X35335632Y52949703D01*
X35472013Y52745594D01*
X35645594Y52572013D01*
X35849703Y52435632D01*
X36076497Y52341691D01*
X36317260Y52293800D01*
X36562740Y52293800D01*
X36803503Y52341691D01*
X37030297Y52435632D01*
X37234406Y52572013D01*
X37407987Y52745594D01*
X37544368Y52949703D01*
X37638309Y53176497D01*
X37686200Y53417260D01*
X37686200Y53662740D01*
X37733800Y53662740D01*
X37733800Y53417260D01*
X37781691Y53176497D01*
X37875632Y52949703D01*
X38012013Y52745594D01*
X38185594Y52572013D01*
X38389703Y52435632D01*
X38616497Y52341691D01*
X38857260Y52293800D01*
X39102740Y52293800D01*
X39343503Y52341691D01*
X39570297Y52435632D01*
X39774406Y52572013D01*
X39947987Y52745594D01*
X40084368Y52949703D01*
X40178309Y53176497D01*
X40226200Y53417260D01*
X40226200Y53662740D01*
X40273800Y53662740D01*
X40273800Y53417260D01*
X40321691Y53176497D01*
X40415632Y52949703D01*
X40552013Y52745594D01*
X40725594Y52572013D01*
X40929703Y52435632D01*
X41156497Y52341691D01*
X41397260Y52293800D01*
X41642740Y52293800D01*
X41883503Y52341691D01*
X42110297Y52435632D01*
X42314406Y52572013D01*
X42487987Y52745594D01*
X42509116Y52777216D01*
X43302873Y52777216D01*
X43386261Y52605873D01*
X43581446Y52492382D01*
X43795021Y52419150D01*
X44018779Y52388992D01*
X44244121Y52403066D01*
X44462388Y52460833D01*
X44665191Y52560070D01*
X44733739Y52605873D01*
X44817127Y52777216D01*
X44060000Y53534343D01*
X43302873Y52777216D01*
X42509116Y52777216D01*
X42624368Y52949703D01*
X42718309Y53176497D01*
X42766200Y53417260D01*
X42766200Y53581221D01*
X42908992Y53581221D01*
X42923066Y53355879D01*
X42980833Y53137612D01*
X43080070Y52934809D01*
X43125873Y52866261D01*
X43297216Y52782873D01*
X44054343Y53540000D01*
X44065657Y53540000D01*
X44822784Y52782873D01*
X44994127Y52866261D01*
X45107618Y53061446D01*
X45180850Y53275021D01*
X45211008Y53498779D01*
X45200768Y53662740D01*
X45353800Y53662740D01*
X45353800Y53417260D01*
X45401691Y53176497D01*
X45495632Y52949703D01*
X45632013Y52745594D01*
X45805594Y52572013D01*
X46009703Y52435632D01*
X46236497Y52341691D01*
X46477260Y52293800D01*
X46722740Y52293800D01*
X46963503Y52341691D01*
X47190297Y52435632D01*
X47394406Y52572013D01*
X47567987Y52745594D01*
X47589116Y52777216D01*
X48382873Y52777216D01*
X48466261Y52605873D01*
X48661446Y52492382D01*
X48875021Y52419150D01*
X49098779Y52388992D01*
X49324121Y52403066D01*
X49542388Y52460833D01*
X49745191Y52560070D01*
X49813739Y52605873D01*
X49897127Y52777216D01*
X49140000Y53534343D01*
X48382873Y52777216D01*
X47589116Y52777216D01*
X47704368Y52949703D01*
X47798309Y53176497D01*
X47846200Y53417260D01*
X47846200Y53581221D01*
X47988992Y53581221D01*
X48003066Y53355879D01*
X48060833Y53137612D01*
X48160070Y52934809D01*
X48205873Y52866261D01*
X48377216Y52782873D01*
X49134343Y53540000D01*
X49145657Y53540000D01*
X49902784Y52782873D01*
X50074127Y52866261D01*
X50187618Y53061446D01*
X50260850Y53275021D01*
X50291008Y53498779D01*
X50280768Y53662740D01*
X50433800Y53662740D01*
X50433800Y53417260D01*
X50481691Y53176497D01*
X50575632Y52949703D01*
X50712013Y52745594D01*
X50885594Y52572013D01*
X51089703Y52435632D01*
X51316497Y52341691D01*
X51557260Y52293800D01*
X51802740Y52293800D01*
X52043503Y52341691D01*
X52270297Y52435632D01*
X52474406Y52572013D01*
X52647987Y52745594D01*
X52784368Y52949703D01*
X52878309Y53176497D01*
X52926200Y53417260D01*
X52926200Y53662740D01*
X52878309Y53903503D01*
X52784368Y54130297D01*
X52647987Y54334406D01*
X52474406Y54507987D01*
X52270297Y54644368D01*
X52043503Y54738309D01*
X51802740Y54786200D01*
X51557260Y54786200D01*
X51316497Y54738309D01*
X51089703Y54644368D01*
X50885594Y54507987D01*
X50712013Y54334406D01*
X50575632Y54130297D01*
X50481691Y53903503D01*
X50433800Y53662740D01*
X50280768Y53662740D01*
X50276934Y53724121D01*
X50219167Y53942388D01*
X50119930Y54145191D01*
X50074127Y54213739D01*
X49902784Y54297127D01*
X49145657Y53540000D01*
X49134343Y53540000D01*
X48377216Y54297127D01*
X48205873Y54213739D01*
X48092382Y54018554D01*
X48019150Y53804979D01*
X47988992Y53581221D01*
X47846200Y53581221D01*
X47846200Y53662740D01*
X47798309Y53903503D01*
X47704368Y54130297D01*
X47589117Y54302784D01*
X48382873Y54302784D01*
X49140000Y53545657D01*
X49897127Y54302784D01*
X49813739Y54474127D01*
X49618554Y54587618D01*
X49404979Y54660850D01*
X49181221Y54691008D01*
X48955879Y54676934D01*
X48737612Y54619167D01*
X48534809Y54519930D01*
X48466261Y54474127D01*
X48382873Y54302784D01*
X47589117Y54302784D01*
X47567987Y54334406D01*
X47394406Y54507987D01*
X47190297Y54644368D01*
X46963503Y54738309D01*
X46722740Y54786200D01*
X46477260Y54786200D01*
X46236497Y54738309D01*
X46009703Y54644368D01*
X45805594Y54507987D01*
X45632013Y54334406D01*
X45495632Y54130297D01*
X45401691Y53903503D01*
X45353800Y53662740D01*
X45200768Y53662740D01*
X45196934Y53724121D01*
X45139167Y53942388D01*
X45039930Y54145191D01*
X44994127Y54213739D01*
X44822784Y54297127D01*
X44065657Y53540000D01*
X44054343Y53540000D01*
X43297216Y54297127D01*
X43125873Y54213739D01*
X43012382Y54018554D01*
X42939150Y53804979D01*
X42908992Y53581221D01*
X42766200Y53581221D01*
X42766200Y53662740D01*
X42718309Y53903503D01*
X42624368Y54130297D01*
X42509117Y54302784D01*
X43302873Y54302784D01*
X44060000Y53545657D01*
X44817127Y54302784D01*
X44733739Y54474127D01*
X44538554Y54587618D01*
X44324979Y54660850D01*
X44101221Y54691008D01*
X43875879Y54676934D01*
X43657612Y54619167D01*
X43454809Y54519930D01*
X43386261Y54474127D01*
X43302873Y54302784D01*
X42509117Y54302784D01*
X42487987Y54334406D01*
X42314406Y54507987D01*
X42110297Y54644368D01*
X41883503Y54738309D01*
X41642740Y54786200D01*
X41397260Y54786200D01*
X41156497Y54738309D01*
X40929703Y54644368D01*
X40725594Y54507987D01*
X40552013Y54334406D01*
X40415632Y54130297D01*
X40321691Y53903503D01*
X40273800Y53662740D01*
X40226200Y53662740D01*
X40178309Y53903503D01*
X40084368Y54130297D01*
X39947987Y54334406D01*
X39774406Y54507987D01*
X39570297Y54644368D01*
X39343503Y54738309D01*
X39102740Y54786200D01*
X38857260Y54786200D01*
X38616497Y54738309D01*
X38389703Y54644368D01*
X38185594Y54507987D01*
X38012013Y54334406D01*
X37875632Y54130297D01*
X37781691Y53903503D01*
X37733800Y53662740D01*
X37686200Y53662740D01*
X37638309Y53903503D01*
X37544368Y54130297D01*
X37407987Y54334406D01*
X37234406Y54507987D01*
X37030297Y54644368D01*
X36803503Y54738309D01*
X36562740Y54786200D01*
X36317260Y54786200D01*
X36076497Y54738309D01*
X35849703Y54644368D01*
X35645594Y54507987D01*
X35472013Y54334406D01*
X35335632Y54130297D01*
X35241691Y53903503D01*
X35193800Y53662740D01*
X35146200Y53662740D01*
X35098309Y53903503D01*
X35004368Y54130297D01*
X34867987Y54334406D01*
X34694406Y54507987D01*
X34490297Y54644368D01*
X34263503Y54738309D01*
X34022740Y54786200D01*
X33777260Y54786200D01*
X33536497Y54738309D01*
X33309703Y54644368D01*
X33105594Y54507987D01*
X32932013Y54334406D01*
X32795632Y54130297D01*
X32701691Y53903503D01*
X32653800Y53662740D01*
X32500768Y53662740D01*
X32496934Y53724121D01*
X32439167Y53942388D01*
X32339930Y54145191D01*
X32294127Y54213739D01*
X32122784Y54297127D01*
X31365657Y53540000D01*
X31354343Y53540000D01*
X30597216Y54297127D01*
X30425873Y54213739D01*
X30312382Y54018554D01*
X30239150Y53804979D01*
X30208992Y53581221D01*
X30066200Y53581221D01*
X30066200Y53662740D01*
X30018309Y53903503D01*
X29924368Y54130297D01*
X29809117Y54302784D01*
X30602873Y54302784D01*
X31360000Y53545657D01*
X32117127Y54302784D01*
X32033739Y54474127D01*
X31838554Y54587618D01*
X31624979Y54660850D01*
X31401221Y54691008D01*
X31175879Y54676934D01*
X30957612Y54619167D01*
X30754809Y54519930D01*
X30686261Y54474127D01*
X30602873Y54302784D01*
X29809117Y54302784D01*
X29787987Y54334406D01*
X29614406Y54507987D01*
X29410297Y54644368D01*
X29183503Y54738309D01*
X28942740Y54786200D01*
X28697260Y54786200D01*
X28456497Y54738309D01*
X28229703Y54644368D01*
X28025594Y54507987D01*
X27852013Y54334406D01*
X27715632Y54130297D01*
X27621691Y53903503D01*
X27573800Y53662740D01*
X27526200Y53662740D01*
X27478309Y53903503D01*
X27384368Y54130297D01*
X27247987Y54334406D01*
X27074406Y54507987D01*
X26870297Y54644368D01*
X26643503Y54738309D01*
X26402740Y54786200D01*
X26157260Y54786200D01*
X25916497Y54738309D01*
X25689703Y54644368D01*
X25485594Y54507987D01*
X25312013Y54334406D01*
X25175632Y54130297D01*
X25081691Y53903503D01*
X25033800Y53662740D01*
X24880768Y53662740D01*
X24876934Y53724121D01*
X24819167Y53942388D01*
X24719930Y54145191D01*
X24674127Y54213739D01*
X24502784Y54297127D01*
X23745657Y53540000D01*
X23734343Y53540000D01*
X22977216Y54297127D01*
X22805873Y54213739D01*
X22692382Y54018554D01*
X22619150Y53804979D01*
X22588992Y53581221D01*
X22446200Y53581221D01*
X22446200Y53662740D01*
X22398309Y53903503D01*
X22304368Y54130297D01*
X22189117Y54302784D01*
X22982873Y54302784D01*
X23740000Y53545657D01*
X24497127Y54302784D01*
X24413739Y54474127D01*
X24218554Y54587618D01*
X24004979Y54660850D01*
X23781221Y54691008D01*
X23555879Y54676934D01*
X23337612Y54619167D01*
X23134809Y54519930D01*
X23066261Y54474127D01*
X22982873Y54302784D01*
X22189117Y54302784D01*
X22167987Y54334406D01*
X21994406Y54507987D01*
X21790297Y54644368D01*
X21563503Y54738309D01*
X21322740Y54786200D01*
X21077260Y54786200D01*
X20836497Y54738309D01*
X20609703Y54644368D01*
X20405594Y54507987D01*
X20232013Y54334406D01*
X20095632Y54130297D01*
X20001691Y53903503D01*
X19953800Y53662740D01*
X19906200Y53662740D01*
X19858309Y53903503D01*
X19764368Y54130297D01*
X19627987Y54334406D01*
X19454406Y54507987D01*
X19250297Y54644368D01*
X19023503Y54738309D01*
X18782740Y54786200D01*
X18537260Y54786200D01*
X18296497Y54738309D01*
X18069703Y54644368D01*
X17865594Y54507987D01*
X17692013Y54334406D01*
X17555632Y54130297D01*
X17461691Y53903503D01*
X17413800Y53662740D01*
X17366200Y53662740D01*
X17318309Y53903503D01*
X17224368Y54130297D01*
X17087987Y54334406D01*
X16914406Y54507987D01*
X16710297Y54644368D01*
X16483503Y54738309D01*
X16242740Y54786200D01*
X15997260Y54786200D01*
X15756497Y54738309D01*
X15529703Y54644368D01*
X15325594Y54507987D01*
X15152013Y54334406D01*
X15015632Y54130297D01*
X14921691Y53903503D01*
X14873800Y53662740D01*
X14720768Y53662740D01*
X14716934Y53724121D01*
X14659167Y53942388D01*
X14559930Y54145191D01*
X14514127Y54213739D01*
X14342784Y54297127D01*
X13600000Y53554343D01*
X13600000Y53565657D01*
X14337127Y54302784D01*
X14253739Y54474127D01*
X14058554Y54587618D01*
X13844979Y54660850D01*
X13621221Y54691008D01*
X13600000Y54689683D01*
X13600000Y56067000D01*
X53839982Y56067000D01*
X53764315Y56051949D01*
D28*
G36*
X7283602Y37800157D02*
G01*
X7258773Y37795218D01*
X7108269Y37732877D01*
X6972819Y37642372D01*
X6857628Y37527181D01*
X6767123Y37391731D01*
X6704782Y37241227D01*
X6673000Y37081452D01*
X6673000Y36918548D01*
X6704782Y36758773D01*
X6767123Y36608269D01*
X6857628Y36472819D01*
X6972819Y36357628D01*
X7108269Y36267123D01*
X7258773Y36204782D01*
X7418548Y36173000D01*
X7581452Y36173000D01*
X7741227Y36204782D01*
X7891731Y36267123D01*
X8027181Y36357628D01*
X8142372Y36472819D01*
X8232877Y36608269D01*
X8250000Y36649607D01*
X8267123Y36608269D01*
X8357628Y36472819D01*
X8472819Y36357628D01*
X8608269Y36267123D01*
X8758773Y36204782D01*
X8918548Y36173000D01*
X9081452Y36173000D01*
X9241227Y36204782D01*
X9391731Y36267123D01*
X9527181Y36357628D01*
X9642372Y36472819D01*
X9732877Y36608269D01*
X9750000Y36649607D01*
X9767123Y36608269D01*
X9839466Y36500000D01*
X9767123Y36391731D01*
X9704782Y36241227D01*
X9673000Y36081452D01*
X9673000Y35918548D01*
X9704782Y35758773D01*
X9767123Y35608269D01*
X9857628Y35472819D01*
X9972819Y35357628D01*
X10108269Y35267123D01*
X10258773Y35204782D01*
X10418548Y35173000D01*
X10581452Y35173000D01*
X10741227Y35204782D01*
X10891731Y35267123D01*
X11000000Y35339466D01*
X11108269Y35267123D01*
X11258773Y35204782D01*
X11418548Y35173000D01*
X11581452Y35173000D01*
X11741227Y35204782D01*
X11891731Y35267123D01*
X12027181Y35357628D01*
X12142372Y35472819D01*
X12232877Y35608269D01*
X12295218Y35758773D01*
X12327000Y35918548D01*
X12327000Y36081452D01*
X12295218Y36241227D01*
X12232877Y36391731D01*
X12160534Y36500000D01*
X12232877Y36608269D01*
X12295218Y36758773D01*
X12327000Y36918548D01*
X12327000Y37081452D01*
X12295218Y37241227D01*
X12232877Y37391731D01*
X12142372Y37527181D01*
X12027181Y37642372D01*
X12000280Y37660347D01*
X12094105Y37660347D01*
X12253880Y37692129D01*
X12373000Y37741470D01*
X12373000Y26127000D01*
X5000000Y26127000D01*
X4975224Y26124560D01*
X4951399Y26117333D01*
X4929443Y26105597D01*
X4910197Y26089803D01*
X4894403Y26070557D01*
X4882667Y26048601D01*
X4875440Y26024776D01*
X4873000Y26000000D01*
X4873000Y8500000D01*
X4875440Y8475224D01*
X4882667Y8451399D01*
X4894403Y8429443D01*
X4910197Y8410197D01*
X4929443Y8394403D01*
X4951399Y8382667D01*
X4975224Y8375440D01*
X5000000Y8373000D01*
X22373000Y8373000D01*
X22373000Y452000D01*
X3022108Y452000D01*
X2505513Y502653D01*
X2159344Y607166D01*
X493790Y2605832D01*
X452000Y3003440D01*
X452000Y3675019D01*
X1723000Y3675019D01*
X1723000Y3324981D01*
X1791289Y2981668D01*
X1925243Y2658275D01*
X2119714Y2367229D01*
X2367229Y2119714D01*
X2658275Y1925243D01*
X2981668Y1791289D01*
X3324981Y1723000D01*
X3675019Y1723000D01*
X4018332Y1791289D01*
X4341725Y1925243D01*
X4632771Y2119714D01*
X4880286Y2367229D01*
X5074757Y2658275D01*
X5208711Y2981668D01*
X5277000Y3324981D01*
X5277000Y3675019D01*
X5208711Y4018332D01*
X5074757Y4341725D01*
X4880286Y4632771D01*
X4632771Y4880286D01*
X4341725Y5074757D01*
X4018332Y5208711D01*
X3675019Y5277000D01*
X3324981Y5277000D01*
X2981668Y5208711D01*
X2658275Y5074757D01*
X2367229Y4880286D01*
X2119714Y4632771D01*
X1925243Y4341725D01*
X1791289Y4018332D01*
X1723000Y3675019D01*
X452000Y3675019D01*
X452000Y37868473D01*
X7283602Y37800157D01*
X7283602Y37800157D01*
G37*
X7283602Y37800157D02*
X7258773Y37795218D01*
X7108269Y37732877D01*
X6972819Y37642372D01*
X6857628Y37527181D01*
X6767123Y37391731D01*
X6704782Y37241227D01*
X6673000Y37081452D01*
X6673000Y36918548D01*
X6704782Y36758773D01*
X6767123Y36608269D01*
X6857628Y36472819D01*
X6972819Y36357628D01*
X7108269Y36267123D01*
X7258773Y36204782D01*
X7418548Y36173000D01*
X7581452Y36173000D01*
X7741227Y36204782D01*
X7891731Y36267123D01*
X8027181Y36357628D01*
X8142372Y36472819D01*
X8232877Y36608269D01*
X8250000Y36649607D01*
X8267123Y36608269D01*
X8357628Y36472819D01*
X8472819Y36357628D01*
X8608269Y36267123D01*
X8758773Y36204782D01*
X8918548Y36173000D01*
X9081452Y36173000D01*
X9241227Y36204782D01*
X9391731Y36267123D01*
X9527181Y36357628D01*
X9642372Y36472819D01*
X9732877Y36608269D01*
X9750000Y36649607D01*
X9767123Y36608269D01*
X9839466Y36500000D01*
X9767123Y36391731D01*
X9704782Y36241227D01*
X9673000Y36081452D01*
X9673000Y35918548D01*
X9704782Y35758773D01*
X9767123Y35608269D01*
X9857628Y35472819D01*
X9972819Y35357628D01*
X10108269Y35267123D01*
X10258773Y35204782D01*
X10418548Y35173000D01*
X10581452Y35173000D01*
X10741227Y35204782D01*
X10891731Y35267123D01*
X11000000Y35339466D01*
X11108269Y35267123D01*
X11258773Y35204782D01*
X11418548Y35173000D01*
X11581452Y35173000D01*
X11741227Y35204782D01*
X11891731Y35267123D01*
X12027181Y35357628D01*
X12142372Y35472819D01*
X12232877Y35608269D01*
X12295218Y35758773D01*
X12327000Y35918548D01*
X12327000Y36081452D01*
X12295218Y36241227D01*
X12232877Y36391731D01*
X12160534Y36500000D01*
X12232877Y36608269D01*
X12295218Y36758773D01*
X12327000Y36918548D01*
X12327000Y37081452D01*
X12295218Y37241227D01*
X12232877Y37391731D01*
X12142372Y37527181D01*
X12027181Y37642372D01*
X12000280Y37660347D01*
X12094105Y37660347D01*
X12253880Y37692129D01*
X12373000Y37741470D01*
X12373000Y26127000D01*
X5000000Y26127000D01*
X4975224Y26124560D01*
X4951399Y26117333D01*
X4929443Y26105597D01*
X4910197Y26089803D01*
X4894403Y26070557D01*
X4882667Y26048601D01*
X4875440Y26024776D01*
X4873000Y26000000D01*
X4873000Y8500000D01*
X4875440Y8475224D01*
X4882667Y8451399D01*
X4894403Y8429443D01*
X4910197Y8410197D01*
X4929443Y8394403D01*
X4951399Y8382667D01*
X4975224Y8375440D01*
X5000000Y8373000D01*
X22373000Y8373000D01*
X22373000Y452000D01*
X3022108Y452000D01*
X2505513Y502653D01*
X2159344Y607166D01*
X493790Y2605832D01*
X452000Y3003440D01*
X452000Y3675019D01*
X1723000Y3675019D01*
X1723000Y3324981D01*
X1791289Y2981668D01*
X1925243Y2658275D01*
X2119714Y2367229D01*
X2367229Y2119714D01*
X2658275Y1925243D01*
X2981668Y1791289D01*
X3324981Y1723000D01*
X3675019Y1723000D01*
X4018332Y1791289D01*
X4341725Y1925243D01*
X4632771Y2119714D01*
X4880286Y2367229D01*
X5074757Y2658275D01*
X5208711Y2981668D01*
X5277000Y3324981D01*
X5277000Y3675019D01*
X5208711Y4018332D01*
X5074757Y4341725D01*
X4880286Y4632771D01*
X4632771Y4880286D01*
X4341725Y5074757D01*
X4018332Y5208711D01*
X3675019Y5277000D01*
X3324981Y5277000D01*
X2981668Y5208711D01*
X2658275Y5074757D01*
X2367229Y4880286D01*
X2119714Y4632771D01*
X1925243Y4341725D01*
X1791289Y4018332D01*
X1723000Y3675019D01*
X452000Y3675019D01*
X452000Y37868473D01*
X7283602Y37800157D01*
M02*
