G04 #@! TF.GenerationSoftware,KiCad,Pcbnew,(5.1.2-1)-1*
G04 #@! TF.CreationDate,2019-07-25T00:26:34-07:00*
G04 #@! TF.ProjectId,first_design,66697273-745f-4646-9573-69676e2e6b69,rev?*
G04 #@! TF.SameCoordinates,Original*
G04 #@! TF.FileFunction,Soldermask,Bot*
G04 #@! TF.FilePolarity,Negative*
%FSLAX46Y46*%
G04 Gerber Fmt 4.6, Leading zero omitted, Abs format (unit mm)*
G04 Created by KiCad (PCBNEW (5.1.2-1)-1) date 2019-07-25 00:26:34*
%MOMM*%
%LPD*%
G04 APERTURE LIST*
%ADD10C,0.100000*%
G04 APERTURE END LIST*
D10*
G36*
X32262199Y5399283D02*
G01*
X32274450Y5398681D01*
X32292869Y5398681D01*
X32324754Y5395541D01*
X32408839Y5378815D01*
X32439505Y5369513D01*
X32518703Y5336709D01*
X32546965Y5321602D01*
X32618256Y5273967D01*
X32643014Y5253648D01*
X32703648Y5193014D01*
X32723967Y5168256D01*
X32771602Y5096965D01*
X32786709Y5068703D01*
X32819513Y4989505D01*
X32828815Y4958839D01*
X32845541Y4874754D01*
X32848681Y4842869D01*
X32848681Y4824450D01*
X32849283Y4812199D01*
X32851089Y4793862D01*
X32851089Y4256137D01*
X32849229Y4237249D01*
X32849229Y4212745D01*
X32850000Y4208869D01*
X32850000Y2778443D01*
X32849229Y2762751D01*
X32851089Y2743863D01*
X32851089Y2206139D01*
X32849283Y2187801D01*
X32848681Y2175550D01*
X32848681Y2157131D01*
X32845541Y2125246D01*
X32828815Y2041161D01*
X32819513Y2010495D01*
X32786709Y1931297D01*
X32771602Y1903035D01*
X32723967Y1831744D01*
X32703648Y1806986D01*
X32643014Y1746352D01*
X32618256Y1726033D01*
X32546965Y1678398D01*
X32518703Y1663291D01*
X32439505Y1630487D01*
X32408839Y1621185D01*
X32324754Y1604459D01*
X32292869Y1601319D01*
X32274450Y1601319D01*
X32262199Y1600717D01*
X32243862Y1598911D01*
X31756138Y1598911D01*
X31737801Y1600717D01*
X31725550Y1601319D01*
X31707131Y1601319D01*
X31675246Y1604459D01*
X31591161Y1621185D01*
X31560495Y1630487D01*
X31481297Y1663291D01*
X31453035Y1678398D01*
X31381744Y1726033D01*
X31356986Y1746352D01*
X31296352Y1806986D01*
X31276033Y1831744D01*
X31228398Y1903035D01*
X31213291Y1931297D01*
X31180487Y2010495D01*
X31171185Y2041161D01*
X31154459Y2125246D01*
X31151319Y2157131D01*
X31151319Y2175550D01*
X31150717Y2187801D01*
X31148911Y2206139D01*
X31148911Y2743863D01*
X31150771Y2762751D01*
X31150771Y2787255D01*
X31150000Y2791131D01*
X31150000Y4221557D01*
X31150771Y4237249D01*
X31148911Y4256137D01*
X31148911Y4793862D01*
X31150717Y4812199D01*
X31151319Y4824450D01*
X31151319Y4842869D01*
X31154459Y4874754D01*
X31171185Y4958839D01*
X31180487Y4989505D01*
X31213291Y5068703D01*
X31228398Y5096965D01*
X31276033Y5168256D01*
X31296352Y5193014D01*
X31356986Y5253648D01*
X31381744Y5273967D01*
X31453035Y5321602D01*
X31481297Y5336709D01*
X31560495Y5369513D01*
X31591161Y5378815D01*
X31675246Y5395541D01*
X31707131Y5398681D01*
X31725550Y5398681D01*
X31737801Y5399283D01*
X31756139Y5401089D01*
X32243861Y5401089D01*
X32262199Y5399283D01*
X32262199Y5399283D01*
G37*
G36*
X61922948Y4894278D02*
G01*
X62150555Y4800000D01*
X62186833Y4784973D01*
X62424321Y4626289D01*
X62626289Y4424321D01*
X62761771Y4221557D01*
X62784974Y4186831D01*
X62894278Y3922948D01*
X62950000Y3642814D01*
X62950000Y3357186D01*
X62894278Y3077052D01*
X62784974Y2813169D01*
X62784973Y2813167D01*
X62626289Y2575679D01*
X62424321Y2373711D01*
X62186833Y2215027D01*
X62186832Y2215026D01*
X62186831Y2215026D01*
X61922948Y2105722D01*
X61642814Y2050000D01*
X61357186Y2050000D01*
X61077052Y2105722D01*
X60813169Y2215026D01*
X60813168Y2215026D01*
X60813167Y2215027D01*
X60575679Y2373711D01*
X60373711Y2575679D01*
X60215027Y2813167D01*
X60215026Y2813169D01*
X60105722Y3077052D01*
X60050000Y3357186D01*
X60050000Y3642814D01*
X60105722Y3922948D01*
X60215026Y4186831D01*
X60238229Y4221557D01*
X60373711Y4424321D01*
X60575679Y4626289D01*
X60813167Y4784973D01*
X60849445Y4800000D01*
X61077052Y4894278D01*
X61357186Y4950000D01*
X61642814Y4950000D01*
X61922948Y4894278D01*
X61922948Y4894278D01*
G37*
G36*
X3922948Y4894278D02*
G01*
X4150555Y4800000D01*
X4186833Y4784973D01*
X4424321Y4626289D01*
X4626289Y4424321D01*
X4761771Y4221557D01*
X4784974Y4186831D01*
X4894278Y3922948D01*
X4950000Y3642814D01*
X4950000Y3357186D01*
X4894278Y3077052D01*
X4784974Y2813169D01*
X4784973Y2813167D01*
X4626289Y2575679D01*
X4424321Y2373711D01*
X4186833Y2215027D01*
X4186832Y2215026D01*
X4186831Y2215026D01*
X3922948Y2105722D01*
X3642814Y2050000D01*
X3357186Y2050000D01*
X3077052Y2105722D01*
X2813169Y2215026D01*
X2813168Y2215026D01*
X2813167Y2215027D01*
X2575679Y2373711D01*
X2373711Y2575679D01*
X2215027Y2813167D01*
X2215026Y2813169D01*
X2105722Y3077052D01*
X2050000Y3357186D01*
X2050000Y3642814D01*
X2105722Y3922948D01*
X2215026Y4186831D01*
X2238229Y4221557D01*
X2373711Y4424321D01*
X2575679Y4626289D01*
X2813167Y4784973D01*
X2849445Y4800000D01*
X3077052Y4894278D01*
X3357186Y4950000D01*
X3642814Y4950000D01*
X3922948Y4894278D01*
X3922948Y4894278D01*
G37*
G36*
X38650000Y4175839D02*
G01*
X38652402Y4151453D01*
X38659515Y4128004D01*
X38671066Y4106393D01*
X38686611Y4087451D01*
X38705553Y4071906D01*
X38727164Y4060355D01*
X38750613Y4053242D01*
X38774999Y4050840D01*
X38799385Y4053242D01*
X38822834Y4060355D01*
X38844445Y4071906D01*
X38863387Y4087451D01*
X38878932Y4106393D01*
X38890483Y4128004D01*
X38897596Y4151453D01*
X38934194Y4335441D01*
X38934194Y4335443D01*
X39020884Y4544729D01*
X39146737Y4733082D01*
X39306918Y4893263D01*
X39495271Y5019116D01*
X39704557Y5105806D01*
X39852676Y5135269D01*
X39926734Y5150000D01*
X40153266Y5150000D01*
X40227324Y5135269D01*
X40375443Y5105806D01*
X40584729Y5019116D01*
X40773082Y4893263D01*
X40933263Y4733082D01*
X41059116Y4544729D01*
X41145806Y4335443D01*
X41190000Y4113265D01*
X41190000Y3886735D01*
X41145806Y3664557D01*
X41059116Y3455271D01*
X40933263Y3266918D01*
X40773082Y3106737D01*
X40584729Y2980884D01*
X40375443Y2894194D01*
X40227324Y2864731D01*
X40153266Y2850000D01*
X39926734Y2850000D01*
X39852676Y2864731D01*
X39704557Y2894194D01*
X39495271Y2980884D01*
X39306918Y3106737D01*
X39146737Y3266918D01*
X39020884Y3455271D01*
X38934194Y3664557D01*
X38897596Y3848547D01*
X38890483Y3871996D01*
X38878932Y3893607D01*
X38863386Y3912549D01*
X38844444Y3928094D01*
X38822834Y3939645D01*
X38799385Y3946758D01*
X38774999Y3949160D01*
X38750613Y3946758D01*
X38727164Y3939645D01*
X38705553Y3928094D01*
X38686611Y3912548D01*
X38671066Y3893606D01*
X38659515Y3871996D01*
X38652402Y3848547D01*
X38650000Y3824161D01*
X38650000Y2850000D01*
X36350000Y2850000D01*
X36350000Y5150000D01*
X38650000Y5150000D01*
X38650000Y4175839D01*
X38650000Y4175839D01*
G37*
G36*
X25262751Y8349229D02*
G01*
X25287255Y8349229D01*
X25291131Y8350000D01*
X26721557Y8350000D01*
X26737249Y8349229D01*
X26756137Y8351089D01*
X27293861Y8351089D01*
X27312199Y8349283D01*
X27324450Y8348681D01*
X27342869Y8348681D01*
X27374754Y8345541D01*
X27458839Y8328815D01*
X27489505Y8319513D01*
X27568703Y8286709D01*
X27596965Y8271602D01*
X27668256Y8223967D01*
X27693014Y8203648D01*
X27753648Y8143014D01*
X27773967Y8118256D01*
X27821602Y8046965D01*
X27836709Y8018703D01*
X27869513Y7939505D01*
X27878815Y7908839D01*
X27895541Y7824754D01*
X27898681Y7792869D01*
X27898681Y7774450D01*
X27899283Y7762199D01*
X27901089Y7743862D01*
X27901089Y7256139D01*
X27899283Y7237801D01*
X27898681Y7225550D01*
X27898681Y7207131D01*
X27895541Y7175246D01*
X27878815Y7091161D01*
X27869513Y7060495D01*
X27836709Y6981297D01*
X27821602Y6953035D01*
X27773967Y6881744D01*
X27753648Y6856986D01*
X27693014Y6796352D01*
X27668256Y6776033D01*
X27596965Y6728398D01*
X27568703Y6713291D01*
X27489505Y6680487D01*
X27458839Y6671185D01*
X27374754Y6654459D01*
X27342869Y6651319D01*
X27324450Y6651319D01*
X27312199Y6650717D01*
X27293862Y6648911D01*
X26756137Y6648911D01*
X26737249Y6650771D01*
X26712745Y6650771D01*
X26708869Y6650000D01*
X25278443Y6650000D01*
X25262751Y6650771D01*
X25243863Y6648911D01*
X24706138Y6648911D01*
X24687801Y6650717D01*
X24675550Y6651319D01*
X24657131Y6651319D01*
X24625246Y6654459D01*
X24541161Y6671185D01*
X24510495Y6680487D01*
X24431297Y6713291D01*
X24403035Y6728398D01*
X24331744Y6776033D01*
X24306986Y6796352D01*
X24246352Y6856986D01*
X24226033Y6881744D01*
X24178398Y6953035D01*
X24163291Y6981297D01*
X24130487Y7060495D01*
X24121185Y7091161D01*
X24104459Y7175246D01*
X24101319Y7207131D01*
X24101319Y7225550D01*
X24100717Y7237801D01*
X24098911Y7256139D01*
X24098911Y7743862D01*
X24100717Y7762199D01*
X24101319Y7774450D01*
X24101319Y7792869D01*
X24104459Y7824754D01*
X24121185Y7908839D01*
X24130487Y7939505D01*
X24163291Y8018703D01*
X24178398Y8046965D01*
X24226033Y8118256D01*
X24246352Y8143014D01*
X24306986Y8203648D01*
X24331744Y8223967D01*
X24403035Y8271602D01*
X24431297Y8286709D01*
X24510495Y8319513D01*
X24541161Y8328815D01*
X24625246Y8345541D01*
X24657131Y8348681D01*
X24675550Y8348681D01*
X24687801Y8349283D01*
X24706139Y8351089D01*
X25243863Y8351089D01*
X25262751Y8349229D01*
X25262751Y8349229D01*
G37*
G36*
X32262199Y12899283D02*
G01*
X32274450Y12898681D01*
X32292869Y12898681D01*
X32324754Y12895541D01*
X32408839Y12878815D01*
X32439505Y12869513D01*
X32518703Y12836709D01*
X32546965Y12821602D01*
X32618256Y12773967D01*
X32643014Y12753648D01*
X32703648Y12693014D01*
X32723967Y12668256D01*
X32771602Y12596965D01*
X32786709Y12568703D01*
X32819513Y12489505D01*
X32828815Y12458839D01*
X32845541Y12374754D01*
X32848681Y12342869D01*
X32848681Y12324450D01*
X32849283Y12312199D01*
X32851089Y12293862D01*
X32851089Y11756137D01*
X32849229Y11737249D01*
X32849229Y11712745D01*
X32850000Y11708869D01*
X32850000Y10278443D01*
X32849229Y10262751D01*
X32851089Y10243863D01*
X32851089Y9706139D01*
X32849283Y9687801D01*
X32848681Y9675550D01*
X32848681Y9657131D01*
X32845541Y9625246D01*
X32828815Y9541161D01*
X32819513Y9510495D01*
X32786709Y9431297D01*
X32771602Y9403035D01*
X32723967Y9331744D01*
X32703648Y9306986D01*
X32643014Y9246352D01*
X32618256Y9226033D01*
X32546965Y9178398D01*
X32518703Y9163291D01*
X32439505Y9130487D01*
X32408839Y9121185D01*
X32324754Y9104459D01*
X32292869Y9101319D01*
X32274450Y9101319D01*
X32262199Y9100717D01*
X32243862Y9098911D01*
X31756138Y9098911D01*
X31737801Y9100717D01*
X31725550Y9101319D01*
X31707131Y9101319D01*
X31675246Y9104459D01*
X31591161Y9121185D01*
X31560495Y9130487D01*
X31481297Y9163291D01*
X31453035Y9178398D01*
X31381744Y9226033D01*
X31356986Y9246352D01*
X31296352Y9306986D01*
X31276033Y9331744D01*
X31228398Y9403035D01*
X31213291Y9431297D01*
X31180487Y9510495D01*
X31171185Y9541161D01*
X31154459Y9625246D01*
X31151319Y9657131D01*
X31151319Y9675550D01*
X31150717Y9687801D01*
X31148911Y9706139D01*
X31148911Y10243863D01*
X31150771Y10262751D01*
X31150771Y10287255D01*
X31150000Y10291131D01*
X31150000Y11721557D01*
X31150771Y11737249D01*
X31148911Y11756137D01*
X31148911Y12293862D01*
X31150717Y12312199D01*
X31151319Y12324450D01*
X31151319Y12342869D01*
X31154459Y12374754D01*
X31171185Y12458839D01*
X31180487Y12489505D01*
X31213291Y12568703D01*
X31228398Y12596965D01*
X31276033Y12668256D01*
X31296352Y12693014D01*
X31356986Y12753648D01*
X31381744Y12773967D01*
X31453035Y12821602D01*
X31481297Y12836709D01*
X31560495Y12869513D01*
X31591161Y12878815D01*
X31675246Y12895541D01*
X31707131Y12898681D01*
X31725550Y12898681D01*
X31737801Y12899283D01*
X31756139Y12901089D01*
X32243861Y12901089D01*
X32262199Y12899283D01*
X32262199Y12899283D01*
G37*
G36*
X28727290Y11474381D02*
G01*
X28791689Y11461571D01*
X28973678Y11386189D01*
X29137463Y11276751D01*
X29276751Y11137463D01*
X29386189Y10973678D01*
X29461571Y10791689D01*
X29500000Y10598491D01*
X29500000Y10401509D01*
X29461571Y10208311D01*
X29386189Y10026322D01*
X29276751Y9862537D01*
X29137463Y9723249D01*
X28973678Y9613811D01*
X28791689Y9538429D01*
X28727290Y9525619D01*
X28598493Y9500000D01*
X28401507Y9500000D01*
X28272710Y9525619D01*
X28208311Y9538429D01*
X28026322Y9613811D01*
X27862537Y9723249D01*
X27723249Y9862537D01*
X27613811Y10026322D01*
X27538429Y10208311D01*
X27500000Y10401509D01*
X27500000Y10598491D01*
X27538429Y10791689D01*
X27613811Y10973678D01*
X27723249Y11137463D01*
X27862537Y11276751D01*
X28026322Y11386189D01*
X28208311Y11461571D01*
X28272710Y11474381D01*
X28401507Y11500000D01*
X28598493Y11500000D01*
X28727290Y11474381D01*
X28727290Y11474381D01*
G37*
G36*
X23647290Y11474381D02*
G01*
X23711689Y11461571D01*
X23893678Y11386189D01*
X24057463Y11276751D01*
X24196751Y11137463D01*
X24306189Y10973678D01*
X24381571Y10791689D01*
X24420000Y10598491D01*
X24420000Y10401509D01*
X24381571Y10208311D01*
X24306189Y10026322D01*
X24196751Y9862537D01*
X24057463Y9723249D01*
X23893678Y9613811D01*
X23711689Y9538429D01*
X23647290Y9525619D01*
X23518493Y9500000D01*
X23321507Y9500000D01*
X23192710Y9525619D01*
X23128311Y9538429D01*
X22946322Y9613811D01*
X22782537Y9723249D01*
X22643249Y9862537D01*
X22533811Y10026322D01*
X22458429Y10208311D01*
X22420000Y10401509D01*
X22420000Y10598491D01*
X22458429Y10791689D01*
X22533811Y10973678D01*
X22643249Y11137463D01*
X22782537Y11276751D01*
X22946322Y11386189D01*
X23128311Y11461571D01*
X23192710Y11474381D01*
X23321507Y11500000D01*
X23518493Y11500000D01*
X23647290Y11474381D01*
X23647290Y11474381D01*
G37*
G36*
X26187290Y11474381D02*
G01*
X26251689Y11461571D01*
X26433678Y11386189D01*
X26597463Y11276751D01*
X26736751Y11137463D01*
X26846189Y10973678D01*
X26921571Y10791689D01*
X26960000Y10598491D01*
X26960000Y10401509D01*
X26921571Y10208311D01*
X26846189Y10026322D01*
X26736751Y9862537D01*
X26597463Y9723249D01*
X26433678Y9613811D01*
X26251689Y9538429D01*
X26187290Y9525619D01*
X26058493Y9500000D01*
X25861507Y9500000D01*
X25732710Y9525619D01*
X25668311Y9538429D01*
X25486322Y9613811D01*
X25322537Y9723249D01*
X25183249Y9862537D01*
X25073811Y10026322D01*
X24998429Y10208311D01*
X24960000Y10401509D01*
X24960000Y10598491D01*
X24998429Y10791689D01*
X25073811Y10973678D01*
X25183249Y11137463D01*
X25322537Y11276751D01*
X25486322Y11386189D01*
X25668311Y11461571D01*
X25732710Y11474381D01*
X25861507Y11500000D01*
X26058493Y11500000D01*
X26187290Y11474381D01*
X26187290Y11474381D01*
G37*
G36*
X41150674Y11913151D02*
G01*
X41269813Y11889453D01*
X41438152Y11819725D01*
X41589653Y11718495D01*
X41718495Y11589653D01*
X41819725Y11438152D01*
X41889453Y11269813D01*
X41925000Y11091105D01*
X41925000Y10908895D01*
X41889453Y10730187D01*
X41819725Y10561848D01*
X41718495Y10410347D01*
X41589653Y10281505D01*
X41438152Y10180275D01*
X41269813Y10110547D01*
X41150674Y10086849D01*
X41091106Y10075000D01*
X40908894Y10075000D01*
X40849326Y10086849D01*
X40730187Y10110547D01*
X40561848Y10180275D01*
X40410347Y10281505D01*
X40281505Y10410347D01*
X40180275Y10561848D01*
X40110547Y10730187D01*
X40075000Y10908895D01*
X40075000Y11091105D01*
X40110547Y11269813D01*
X40180275Y11438152D01*
X40281505Y11589653D01*
X40410347Y11718495D01*
X40561848Y11819725D01*
X40730187Y11889453D01*
X40849326Y11913151D01*
X40908894Y11925000D01*
X41091106Y11925000D01*
X41150674Y11913151D01*
X41150674Y11913151D01*
G37*
G36*
X36925000Y10075000D02*
G01*
X35075000Y10075000D01*
X35075000Y11925000D01*
X36925000Y11925000D01*
X36925000Y10075000D01*
X36925000Y10075000D01*
G37*
G36*
X29024000Y24738000D02*
G01*
X25976000Y24738000D01*
X25976000Y26262000D01*
X29024000Y26262000D01*
X29024000Y24738000D01*
X29024000Y24738000D01*
G37*
G36*
X43685336Y33561746D02*
G01*
X43777105Y33543492D01*
X43949994Y33471879D01*
X44105590Y33367913D01*
X44237913Y33235590D01*
X44341879Y33079994D01*
X44413492Y32907105D01*
X44450000Y32723567D01*
X44450000Y32536433D01*
X44413492Y32352895D01*
X44341879Y32180006D01*
X44237913Y32024410D01*
X44105590Y31892087D01*
X43949994Y31788121D01*
X43777105Y31716508D01*
X43685336Y31698254D01*
X43593568Y31680000D01*
X43406432Y31680000D01*
X43314664Y31698254D01*
X43222895Y31716508D01*
X43050006Y31788121D01*
X42894410Y31892087D01*
X42762087Y32024410D01*
X42658121Y32180006D01*
X42586508Y32352895D01*
X42550000Y32536433D01*
X42550000Y32723567D01*
X42586508Y32907105D01*
X42658121Y33079994D01*
X42762087Y33235590D01*
X42894410Y33367913D01*
X43050006Y33471879D01*
X43222895Y33543492D01*
X43314664Y33561746D01*
X43406432Y33580000D01*
X43593568Y33580000D01*
X43685336Y33561746D01*
X43685336Y33561746D01*
G37*
G36*
X44315000Y34220000D02*
G01*
X42685000Y34220000D01*
X42685000Y36120000D01*
X44315000Y36120000D01*
X44315000Y34220000D01*
X44315000Y34220000D01*
G37*
G36*
X10727290Y48474381D02*
G01*
X10791689Y48461571D01*
X10973678Y48386189D01*
X11137463Y48276751D01*
X11276751Y48137463D01*
X11386189Y47973678D01*
X11461571Y47791689D01*
X11500000Y47598491D01*
X11500000Y47401509D01*
X11461571Y47208311D01*
X11386189Y47026322D01*
X11276751Y46862537D01*
X11137463Y46723249D01*
X10973678Y46613811D01*
X10791689Y46538429D01*
X10727290Y46525619D01*
X10598493Y46500000D01*
X10401507Y46500000D01*
X10272710Y46525619D01*
X10208311Y46538429D01*
X10026322Y46613811D01*
X9862537Y46723249D01*
X9723249Y46862537D01*
X9613811Y47026322D01*
X9538429Y47208311D01*
X9500000Y47401509D01*
X9500000Y47598491D01*
X9538429Y47791689D01*
X9613811Y47973678D01*
X9723249Y48137463D01*
X9862537Y48276751D01*
X10026322Y48386189D01*
X10208311Y48461571D01*
X10272710Y48474381D01*
X10401507Y48500000D01*
X10598493Y48500000D01*
X10727290Y48474381D01*
X10727290Y48474381D01*
G37*
G36*
X13267290Y48474381D02*
G01*
X13331689Y48461571D01*
X13513678Y48386189D01*
X13677463Y48276751D01*
X13816751Y48137463D01*
X13926189Y47973678D01*
X14001571Y47791689D01*
X14040000Y47598491D01*
X14040000Y47401509D01*
X14001571Y47208311D01*
X13926189Y47026322D01*
X13816751Y46862537D01*
X13677463Y46723249D01*
X13513678Y46613811D01*
X13331689Y46538429D01*
X13267290Y46525619D01*
X13138493Y46500000D01*
X12941507Y46500000D01*
X12812710Y46525619D01*
X12748311Y46538429D01*
X12566322Y46613811D01*
X12402537Y46723249D01*
X12263249Y46862537D01*
X12153811Y47026322D01*
X12078429Y47208311D01*
X12040000Y47401509D01*
X12040000Y47598491D01*
X12078429Y47791689D01*
X12153811Y47973678D01*
X12263249Y48137463D01*
X12402537Y48276751D01*
X12566322Y48386189D01*
X12748311Y48461571D01*
X12812710Y48474381D01*
X12941507Y48500000D01*
X13138493Y48500000D01*
X13267290Y48474381D01*
X13267290Y48474381D01*
G37*
G36*
X15807290Y48474381D02*
G01*
X15871689Y48461571D01*
X16053678Y48386189D01*
X16217463Y48276751D01*
X16356751Y48137463D01*
X16466189Y47973678D01*
X16541571Y47791689D01*
X16580000Y47598491D01*
X16580000Y47401509D01*
X16541571Y47208311D01*
X16466189Y47026322D01*
X16356751Y46862537D01*
X16217463Y46723249D01*
X16053678Y46613811D01*
X15871689Y46538429D01*
X15807290Y46525619D01*
X15678493Y46500000D01*
X15481507Y46500000D01*
X15352710Y46525619D01*
X15288311Y46538429D01*
X15106322Y46613811D01*
X14942537Y46723249D01*
X14803249Y46862537D01*
X14693811Y47026322D01*
X14618429Y47208311D01*
X14580000Y47401509D01*
X14580000Y47598491D01*
X14618429Y47791689D01*
X14693811Y47973678D01*
X14803249Y48137463D01*
X14942537Y48276751D01*
X15106322Y48386189D01*
X15288311Y48461571D01*
X15352710Y48474381D01*
X15481507Y48500000D01*
X15678493Y48500000D01*
X15807290Y48474381D01*
X15807290Y48474381D01*
G37*
G36*
X18347290Y48474381D02*
G01*
X18411689Y48461571D01*
X18593678Y48386189D01*
X18757463Y48276751D01*
X18896751Y48137463D01*
X19006189Y47973678D01*
X19081571Y47791689D01*
X19120000Y47598491D01*
X19120000Y47401509D01*
X19081571Y47208311D01*
X19006189Y47026322D01*
X18896751Y46862537D01*
X18757463Y46723249D01*
X18593678Y46613811D01*
X18411689Y46538429D01*
X18347290Y46525619D01*
X18218493Y46500000D01*
X18021507Y46500000D01*
X17892710Y46525619D01*
X17828311Y46538429D01*
X17646322Y46613811D01*
X17482537Y46723249D01*
X17343249Y46862537D01*
X17233811Y47026322D01*
X17158429Y47208311D01*
X17120000Y47401509D01*
X17120000Y47598491D01*
X17158429Y47791689D01*
X17233811Y47973678D01*
X17343249Y48137463D01*
X17482537Y48276751D01*
X17646322Y48386189D01*
X17828311Y48461571D01*
X17892710Y48474381D01*
X18021507Y48500000D01*
X18218493Y48500000D01*
X18347290Y48474381D01*
X18347290Y48474381D01*
G37*
G36*
X18797720Y51929186D02*
G01*
X18933663Y51902146D01*
X19104405Y51831422D01*
X19258068Y51728748D01*
X19388748Y51598068D01*
X19491422Y51444405D01*
X19562146Y51273663D01*
X19598200Y51092405D01*
X19598200Y50907595D01*
X19562146Y50726337D01*
X19491422Y50555595D01*
X19388748Y50401932D01*
X19258068Y50271252D01*
X19104405Y50168578D01*
X18933663Y50097854D01*
X18797720Y50070814D01*
X18752406Y50061800D01*
X18567594Y50061800D01*
X18522281Y50070813D01*
X18386337Y50097854D01*
X18215595Y50168578D01*
X18061932Y50271252D01*
X17931252Y50401932D01*
X17828578Y50555595D01*
X17757854Y50726337D01*
X17721800Y50907595D01*
X17721800Y51092405D01*
X17757854Y51273663D01*
X17828578Y51444405D01*
X17931252Y51598068D01*
X18061932Y51728748D01*
X18215595Y51831422D01*
X18386337Y51902146D01*
X18522280Y51929186D01*
X18567594Y51938200D01*
X18752406Y51938200D01*
X18797720Y51929186D01*
X18797720Y51929186D01*
G37*
G36*
X16257720Y51929186D02*
G01*
X16393663Y51902146D01*
X16564405Y51831422D01*
X16718068Y51728748D01*
X16848748Y51598068D01*
X16951422Y51444405D01*
X17022146Y51273663D01*
X17058200Y51092405D01*
X17058200Y50907595D01*
X17022146Y50726337D01*
X16951422Y50555595D01*
X16848748Y50401932D01*
X16718068Y50271252D01*
X16564405Y50168578D01*
X16393663Y50097854D01*
X16257720Y50070814D01*
X16212406Y50061800D01*
X16027594Y50061800D01*
X15982280Y50070814D01*
X15846337Y50097854D01*
X15675595Y50168578D01*
X15521932Y50271252D01*
X15391252Y50401932D01*
X15288578Y50555595D01*
X15217854Y50726337D01*
X15181800Y50907595D01*
X15181800Y51092405D01*
X15217854Y51273663D01*
X15288578Y51444405D01*
X15391252Y51598068D01*
X15521932Y51728748D01*
X15675595Y51831422D01*
X15846337Y51902146D01*
X15982280Y51929186D01*
X16027594Y51938200D01*
X16212406Y51938200D01*
X16257720Y51929186D01*
X16257720Y51929186D01*
G37*
G36*
X13717720Y51929186D02*
G01*
X13853663Y51902146D01*
X14024405Y51831422D01*
X14178068Y51728748D01*
X14308748Y51598068D01*
X14411422Y51444405D01*
X14482146Y51273663D01*
X14518200Y51092405D01*
X14518200Y50907595D01*
X14482146Y50726337D01*
X14411422Y50555595D01*
X14308748Y50401932D01*
X14178068Y50271252D01*
X14024405Y50168578D01*
X13853663Y50097854D01*
X13717720Y50070814D01*
X13672406Y50061800D01*
X13487594Y50061800D01*
X13442280Y50070814D01*
X13306337Y50097854D01*
X13135595Y50168578D01*
X12981932Y50271252D01*
X12851252Y50401932D01*
X12748578Y50555595D01*
X12677854Y50726337D01*
X12641800Y50907595D01*
X12641800Y51092405D01*
X12677854Y51273663D01*
X12748578Y51444405D01*
X12851252Y51598068D01*
X12981932Y51728748D01*
X13135595Y51831422D01*
X13306337Y51902146D01*
X13442280Y51929186D01*
X13487594Y51938200D01*
X13672406Y51938200D01*
X13717720Y51929186D01*
X13717720Y51929186D01*
G37*
G36*
X11177720Y51929186D02*
G01*
X11313663Y51902146D01*
X11484405Y51831422D01*
X11638068Y51728748D01*
X11768748Y51598068D01*
X11871422Y51444405D01*
X11942146Y51273663D01*
X11978200Y51092405D01*
X11978200Y50907595D01*
X11942146Y50726337D01*
X11871422Y50555595D01*
X11768748Y50401932D01*
X11638068Y50271252D01*
X11484405Y50168578D01*
X11313663Y50097854D01*
X11177720Y50070814D01*
X11132406Y50061800D01*
X10947594Y50061800D01*
X10902280Y50070814D01*
X10766337Y50097854D01*
X10595595Y50168578D01*
X10441932Y50271252D01*
X10311252Y50401932D01*
X10208578Y50555595D01*
X10137854Y50726337D01*
X10101800Y50907595D01*
X10101800Y51092405D01*
X10137854Y51273663D01*
X10208578Y51444405D01*
X10311252Y51598068D01*
X10441932Y51728748D01*
X10595595Y51831422D01*
X10766337Y51902146D01*
X10902280Y51929186D01*
X10947594Y51938200D01*
X11132406Y51938200D01*
X11177720Y51929186D01*
X11177720Y51929186D01*
G37*
G36*
X9438200Y50061800D02*
G01*
X7561800Y50061800D01*
X7561800Y51938200D01*
X9438200Y51938200D01*
X9438200Y50061800D01*
X9438200Y50061800D01*
G37*
G36*
X34037720Y51929186D02*
G01*
X34173663Y51902146D01*
X34344405Y51831422D01*
X34498068Y51728748D01*
X34628748Y51598068D01*
X34731422Y51444405D01*
X34802146Y51273663D01*
X34838200Y51092405D01*
X34838200Y50907595D01*
X34802146Y50726337D01*
X34731422Y50555595D01*
X34628748Y50401932D01*
X34498068Y50271252D01*
X34344405Y50168578D01*
X34173663Y50097854D01*
X34037720Y50070814D01*
X33992406Y50061800D01*
X33807594Y50061800D01*
X33762281Y50070813D01*
X33626337Y50097854D01*
X33455595Y50168578D01*
X33301932Y50271252D01*
X33171252Y50401932D01*
X33068578Y50555595D01*
X32997854Y50726337D01*
X32961800Y50907595D01*
X32961800Y51092405D01*
X32997854Y51273663D01*
X33068578Y51444405D01*
X33171252Y51598068D01*
X33301932Y51728748D01*
X33455595Y51831422D01*
X33626337Y51902146D01*
X33762280Y51929186D01*
X33807594Y51938200D01*
X33992406Y51938200D01*
X34037720Y51929186D01*
X34037720Y51929186D01*
G37*
G36*
X36577720Y51929186D02*
G01*
X36713663Y51902146D01*
X36884405Y51831422D01*
X37038068Y51728748D01*
X37168748Y51598068D01*
X37271422Y51444405D01*
X37342146Y51273663D01*
X37378200Y51092405D01*
X37378200Y50907595D01*
X37342146Y50726337D01*
X37271422Y50555595D01*
X37168748Y50401932D01*
X37038068Y50271252D01*
X36884405Y50168578D01*
X36713663Y50097854D01*
X36577720Y50070814D01*
X36532406Y50061800D01*
X36347594Y50061800D01*
X36302281Y50070813D01*
X36166337Y50097854D01*
X35995595Y50168578D01*
X35841932Y50271252D01*
X35711252Y50401932D01*
X35608578Y50555595D01*
X35537854Y50726337D01*
X35501800Y50907595D01*
X35501800Y51092405D01*
X35537854Y51273663D01*
X35608578Y51444405D01*
X35711252Y51598068D01*
X35841932Y51728748D01*
X35995595Y51831422D01*
X36166337Y51902146D01*
X36302280Y51929186D01*
X36347594Y51938200D01*
X36532406Y51938200D01*
X36577720Y51929186D01*
X36577720Y51929186D01*
G37*
G36*
X31497720Y51929186D02*
G01*
X31633663Y51902146D01*
X31804405Y51831422D01*
X31958068Y51728748D01*
X32088748Y51598068D01*
X32191422Y51444405D01*
X32262146Y51273663D01*
X32298200Y51092405D01*
X32298200Y50907595D01*
X32262146Y50726337D01*
X32191422Y50555595D01*
X32088748Y50401932D01*
X31958068Y50271252D01*
X31804405Y50168578D01*
X31633663Y50097854D01*
X31497720Y50070814D01*
X31452406Y50061800D01*
X31267594Y50061800D01*
X31222281Y50070813D01*
X31086337Y50097854D01*
X30915595Y50168578D01*
X30761932Y50271252D01*
X30631252Y50401932D01*
X30528578Y50555595D01*
X30457854Y50726337D01*
X30421800Y50907595D01*
X30421800Y51092405D01*
X30457854Y51273663D01*
X30528578Y51444405D01*
X30631252Y51598068D01*
X30761932Y51728748D01*
X30915595Y51831422D01*
X31086337Y51902146D01*
X31222280Y51929186D01*
X31267594Y51938200D01*
X31452406Y51938200D01*
X31497720Y51929186D01*
X31497720Y51929186D01*
G37*
G36*
X39117720Y51929186D02*
G01*
X39253663Y51902146D01*
X39424405Y51831422D01*
X39578068Y51728748D01*
X39708748Y51598068D01*
X39811422Y51444405D01*
X39882146Y51273663D01*
X39918200Y51092405D01*
X39918200Y50907595D01*
X39882146Y50726337D01*
X39811422Y50555595D01*
X39708748Y50401932D01*
X39578068Y50271252D01*
X39424405Y50168578D01*
X39253663Y50097854D01*
X39117720Y50070814D01*
X39072406Y50061800D01*
X38887594Y50061800D01*
X38842281Y50070813D01*
X38706337Y50097854D01*
X38535595Y50168578D01*
X38381932Y50271252D01*
X38251252Y50401932D01*
X38148578Y50555595D01*
X38077854Y50726337D01*
X38041800Y50907595D01*
X38041800Y51092405D01*
X38077854Y51273663D01*
X38148578Y51444405D01*
X38251252Y51598068D01*
X38381932Y51728748D01*
X38535595Y51831422D01*
X38706337Y51902146D01*
X38842280Y51929186D01*
X38887594Y51938200D01*
X39072406Y51938200D01*
X39117720Y51929186D01*
X39117720Y51929186D01*
G37*
G36*
X56897720Y51929186D02*
G01*
X57033663Y51902146D01*
X57204405Y51831422D01*
X57358068Y51728748D01*
X57488748Y51598068D01*
X57591422Y51444405D01*
X57662146Y51273663D01*
X57698200Y51092405D01*
X57698200Y50907595D01*
X57662146Y50726337D01*
X57591422Y50555595D01*
X57488748Y50401932D01*
X57358068Y50271252D01*
X57204405Y50168578D01*
X57033663Y50097854D01*
X56897720Y50070814D01*
X56852406Y50061800D01*
X56667594Y50061800D01*
X56622281Y50070813D01*
X56486337Y50097854D01*
X56315595Y50168578D01*
X56161932Y50271252D01*
X56031252Y50401932D01*
X55928578Y50555595D01*
X55857854Y50726337D01*
X55821800Y50907595D01*
X55821800Y51092405D01*
X55857854Y51273663D01*
X55928578Y51444405D01*
X56031252Y51598068D01*
X56161932Y51728748D01*
X56315595Y51831422D01*
X56486337Y51902146D01*
X56622280Y51929186D01*
X56667594Y51938200D01*
X56852406Y51938200D01*
X56897720Y51929186D01*
X56897720Y51929186D01*
G37*
G36*
X54357720Y51929186D02*
G01*
X54493663Y51902146D01*
X54664405Y51831422D01*
X54818068Y51728748D01*
X54948748Y51598068D01*
X55051422Y51444405D01*
X55122146Y51273663D01*
X55158200Y51092405D01*
X55158200Y50907595D01*
X55122146Y50726337D01*
X55051422Y50555595D01*
X54948748Y50401932D01*
X54818068Y50271252D01*
X54664405Y50168578D01*
X54493663Y50097854D01*
X54357720Y50070814D01*
X54312406Y50061800D01*
X54127594Y50061800D01*
X54082281Y50070813D01*
X53946337Y50097854D01*
X53775595Y50168578D01*
X53621932Y50271252D01*
X53491252Y50401932D01*
X53388578Y50555595D01*
X53317854Y50726337D01*
X53281800Y50907595D01*
X53281800Y51092405D01*
X53317854Y51273663D01*
X53388578Y51444405D01*
X53491252Y51598068D01*
X53621932Y51728748D01*
X53775595Y51831422D01*
X53946337Y51902146D01*
X54082280Y51929186D01*
X54127594Y51938200D01*
X54312406Y51938200D01*
X54357720Y51929186D01*
X54357720Y51929186D01*
G37*
G36*
X51817720Y51929186D02*
G01*
X51953663Y51902146D01*
X52124405Y51831422D01*
X52278068Y51728748D01*
X52408748Y51598068D01*
X52511422Y51444405D01*
X52582146Y51273663D01*
X52618200Y51092405D01*
X52618200Y50907595D01*
X52582146Y50726337D01*
X52511422Y50555595D01*
X52408748Y50401932D01*
X52278068Y50271252D01*
X52124405Y50168578D01*
X51953663Y50097854D01*
X51817720Y50070814D01*
X51772406Y50061800D01*
X51587594Y50061800D01*
X51542281Y50070813D01*
X51406337Y50097854D01*
X51235595Y50168578D01*
X51081932Y50271252D01*
X50951252Y50401932D01*
X50848578Y50555595D01*
X50777854Y50726337D01*
X50741800Y50907595D01*
X50741800Y51092405D01*
X50777854Y51273663D01*
X50848578Y51444405D01*
X50951252Y51598068D01*
X51081932Y51728748D01*
X51235595Y51831422D01*
X51406337Y51902146D01*
X51542280Y51929186D01*
X51587594Y51938200D01*
X51772406Y51938200D01*
X51817720Y51929186D01*
X51817720Y51929186D01*
G37*
G36*
X49277720Y51929186D02*
G01*
X49413663Y51902146D01*
X49584405Y51831422D01*
X49738068Y51728748D01*
X49868748Y51598068D01*
X49971422Y51444405D01*
X50042146Y51273663D01*
X50078200Y51092405D01*
X50078200Y50907595D01*
X50042146Y50726337D01*
X49971422Y50555595D01*
X49868748Y50401932D01*
X49738068Y50271252D01*
X49584405Y50168578D01*
X49413663Y50097854D01*
X49277720Y50070814D01*
X49232406Y50061800D01*
X49047594Y50061800D01*
X49002281Y50070813D01*
X48866337Y50097854D01*
X48695595Y50168578D01*
X48541932Y50271252D01*
X48411252Y50401932D01*
X48308578Y50555595D01*
X48237854Y50726337D01*
X48201800Y50907595D01*
X48201800Y51092405D01*
X48237854Y51273663D01*
X48308578Y51444405D01*
X48411252Y51598068D01*
X48541932Y51728748D01*
X48695595Y51831422D01*
X48866337Y51902146D01*
X49002280Y51929186D01*
X49047594Y51938200D01*
X49232406Y51938200D01*
X49277720Y51929186D01*
X49277720Y51929186D01*
G37*
G36*
X46737720Y51929186D02*
G01*
X46873663Y51902146D01*
X47044405Y51831422D01*
X47198068Y51728748D01*
X47328748Y51598068D01*
X47431422Y51444405D01*
X47502146Y51273663D01*
X47538200Y51092405D01*
X47538200Y50907595D01*
X47502146Y50726337D01*
X47431422Y50555595D01*
X47328748Y50401932D01*
X47198068Y50271252D01*
X47044405Y50168578D01*
X46873663Y50097854D01*
X46737720Y50070814D01*
X46692406Y50061800D01*
X46507594Y50061800D01*
X46462281Y50070813D01*
X46326337Y50097854D01*
X46155595Y50168578D01*
X46001932Y50271252D01*
X45871252Y50401932D01*
X45768578Y50555595D01*
X45697854Y50726337D01*
X45661800Y50907595D01*
X45661800Y51092405D01*
X45697854Y51273663D01*
X45768578Y51444405D01*
X45871252Y51598068D01*
X46001932Y51728748D01*
X46155595Y51831422D01*
X46326337Y51902146D01*
X46462280Y51929186D01*
X46507594Y51938200D01*
X46692406Y51938200D01*
X46737720Y51929186D01*
X46737720Y51929186D01*
G37*
G36*
X44197720Y51929186D02*
G01*
X44333663Y51902146D01*
X44504405Y51831422D01*
X44658068Y51728748D01*
X44788748Y51598068D01*
X44891422Y51444405D01*
X44962146Y51273663D01*
X44998200Y51092405D01*
X44998200Y50907595D01*
X44962146Y50726337D01*
X44891422Y50555595D01*
X44788748Y50401932D01*
X44658068Y50271252D01*
X44504405Y50168578D01*
X44333663Y50097854D01*
X44197720Y50070814D01*
X44152406Y50061800D01*
X43967594Y50061800D01*
X43922281Y50070813D01*
X43786337Y50097854D01*
X43615595Y50168578D01*
X43461932Y50271252D01*
X43331252Y50401932D01*
X43228578Y50555595D01*
X43157854Y50726337D01*
X43121800Y50907595D01*
X43121800Y51092405D01*
X43157854Y51273663D01*
X43228578Y51444405D01*
X43331252Y51598068D01*
X43461932Y51728748D01*
X43615595Y51831422D01*
X43786337Y51902146D01*
X43922280Y51929186D01*
X43967594Y51938200D01*
X44152406Y51938200D01*
X44197720Y51929186D01*
X44197720Y51929186D01*
G37*
G36*
X41657720Y51929186D02*
G01*
X41793663Y51902146D01*
X41964405Y51831422D01*
X42118068Y51728748D01*
X42248748Y51598068D01*
X42351422Y51444405D01*
X42422146Y51273663D01*
X42458200Y51092405D01*
X42458200Y50907595D01*
X42422146Y50726337D01*
X42351422Y50555595D01*
X42248748Y50401932D01*
X42118068Y50271252D01*
X41964405Y50168578D01*
X41793663Y50097854D01*
X41657720Y50070814D01*
X41612406Y50061800D01*
X41427594Y50061800D01*
X41382281Y50070813D01*
X41246337Y50097854D01*
X41075595Y50168578D01*
X40921932Y50271252D01*
X40791252Y50401932D01*
X40688578Y50555595D01*
X40617854Y50726337D01*
X40581800Y50907595D01*
X40581800Y51092405D01*
X40617854Y51273663D01*
X40688578Y51444405D01*
X40791252Y51598068D01*
X40921932Y51728748D01*
X41075595Y51831422D01*
X41246337Y51902146D01*
X41382280Y51929186D01*
X41427594Y51938200D01*
X41612406Y51938200D01*
X41657720Y51929186D01*
X41657720Y51929186D01*
G37*
G36*
X21337720Y51929186D02*
G01*
X21473663Y51902146D01*
X21644405Y51831422D01*
X21798068Y51728748D01*
X21928748Y51598068D01*
X22031422Y51444405D01*
X22102146Y51273663D01*
X22138200Y51092405D01*
X22138200Y50907595D01*
X22102146Y50726337D01*
X22031422Y50555595D01*
X21928748Y50401932D01*
X21798068Y50271252D01*
X21644405Y50168578D01*
X21473663Y50097854D01*
X21337720Y50070814D01*
X21292406Y50061800D01*
X21107594Y50061800D01*
X21062281Y50070813D01*
X20926337Y50097854D01*
X20755595Y50168578D01*
X20601932Y50271252D01*
X20471252Y50401932D01*
X20368578Y50555595D01*
X20297854Y50726337D01*
X20261800Y50907595D01*
X20261800Y51092405D01*
X20297854Y51273663D01*
X20368578Y51444405D01*
X20471252Y51598068D01*
X20601932Y51728748D01*
X20755595Y51831422D01*
X20926337Y51902146D01*
X21062280Y51929186D01*
X21107594Y51938200D01*
X21292406Y51938200D01*
X21337720Y51929186D01*
X21337720Y51929186D01*
G37*
G36*
X23877720Y51929186D02*
G01*
X24013663Y51902146D01*
X24184405Y51831422D01*
X24338068Y51728748D01*
X24468748Y51598068D01*
X24571422Y51444405D01*
X24642146Y51273663D01*
X24678200Y51092405D01*
X24678200Y50907595D01*
X24642146Y50726337D01*
X24571422Y50555595D01*
X24468748Y50401932D01*
X24338068Y50271252D01*
X24184405Y50168578D01*
X24013663Y50097854D01*
X23877720Y50070814D01*
X23832406Y50061800D01*
X23647594Y50061800D01*
X23602281Y50070813D01*
X23466337Y50097854D01*
X23295595Y50168578D01*
X23141932Y50271252D01*
X23011252Y50401932D01*
X22908578Y50555595D01*
X22837854Y50726337D01*
X22801800Y50907595D01*
X22801800Y51092405D01*
X22837854Y51273663D01*
X22908578Y51444405D01*
X23011252Y51598068D01*
X23141932Y51728748D01*
X23295595Y51831422D01*
X23466337Y51902146D01*
X23602280Y51929186D01*
X23647594Y51938200D01*
X23832406Y51938200D01*
X23877720Y51929186D01*
X23877720Y51929186D01*
G37*
G36*
X26417720Y51929186D02*
G01*
X26553663Y51902146D01*
X26724405Y51831422D01*
X26878068Y51728748D01*
X27008748Y51598068D01*
X27111422Y51444405D01*
X27182146Y51273663D01*
X27218200Y51092405D01*
X27218200Y50907595D01*
X27182146Y50726337D01*
X27111422Y50555595D01*
X27008748Y50401932D01*
X26878068Y50271252D01*
X26724405Y50168578D01*
X26553663Y50097854D01*
X26417720Y50070814D01*
X26372406Y50061800D01*
X26187594Y50061800D01*
X26142281Y50070813D01*
X26006337Y50097854D01*
X25835595Y50168578D01*
X25681932Y50271252D01*
X25551252Y50401932D01*
X25448578Y50555595D01*
X25377854Y50726337D01*
X25341800Y50907595D01*
X25341800Y51092405D01*
X25377854Y51273663D01*
X25448578Y51444405D01*
X25551252Y51598068D01*
X25681932Y51728748D01*
X25835595Y51831422D01*
X26006337Y51902146D01*
X26142280Y51929186D01*
X26187594Y51938200D01*
X26372406Y51938200D01*
X26417720Y51929186D01*
X26417720Y51929186D01*
G37*
G36*
X28957720Y51929186D02*
G01*
X29093663Y51902146D01*
X29264405Y51831422D01*
X29418068Y51728748D01*
X29548748Y51598068D01*
X29651422Y51444405D01*
X29722146Y51273663D01*
X29758200Y51092405D01*
X29758200Y50907595D01*
X29722146Y50726337D01*
X29651422Y50555595D01*
X29548748Y50401932D01*
X29418068Y50271252D01*
X29264405Y50168578D01*
X29093663Y50097854D01*
X28957720Y50070814D01*
X28912406Y50061800D01*
X28727594Y50061800D01*
X28682281Y50070813D01*
X28546337Y50097854D01*
X28375595Y50168578D01*
X28221932Y50271252D01*
X28091252Y50401932D01*
X27988578Y50555595D01*
X27917854Y50726337D01*
X27881800Y50907595D01*
X27881800Y51092405D01*
X27917854Y51273663D01*
X27988578Y51444405D01*
X28091252Y51598068D01*
X28221932Y51728748D01*
X28375595Y51831422D01*
X28546337Y51902146D01*
X28682280Y51929186D01*
X28727594Y51938200D01*
X28912406Y51938200D01*
X28957720Y51929186D01*
X28957720Y51929186D01*
G37*
G36*
X61922948Y53894278D02*
G01*
X62186831Y53784974D01*
X62186833Y53784973D01*
X62424321Y53626289D01*
X62626289Y53424321D01*
X62731848Y53266340D01*
X62784974Y53186831D01*
X62894278Y52922948D01*
X62950000Y52642814D01*
X62950000Y52357186D01*
X62894278Y52077052D01*
X62792534Y51831420D01*
X62784973Y51813167D01*
X62626289Y51575679D01*
X62424321Y51373711D01*
X62186833Y51215027D01*
X62186832Y51215026D01*
X62186831Y51215026D01*
X61922948Y51105722D01*
X61642814Y51050000D01*
X61357186Y51050000D01*
X61077052Y51105722D01*
X60813169Y51215026D01*
X60813168Y51215026D01*
X60813167Y51215027D01*
X60575679Y51373711D01*
X60373711Y51575679D01*
X60215027Y51813167D01*
X60207466Y51831420D01*
X60105722Y52077052D01*
X60050000Y52357186D01*
X60050000Y52642814D01*
X60105722Y52922948D01*
X60215026Y53186831D01*
X60268152Y53266340D01*
X60373711Y53424321D01*
X60575679Y53626289D01*
X60813167Y53784973D01*
X60813169Y53784974D01*
X61077052Y53894278D01*
X61357186Y53950000D01*
X61642814Y53950000D01*
X61922948Y53894278D01*
X61922948Y53894278D01*
G37*
G36*
X3922948Y53894278D02*
G01*
X4186831Y53784974D01*
X4186833Y53784973D01*
X4424321Y53626289D01*
X4626289Y53424321D01*
X4731848Y53266340D01*
X4784974Y53186831D01*
X4894278Y52922948D01*
X4950000Y52642814D01*
X4950000Y52357186D01*
X4894278Y52077052D01*
X4792534Y51831420D01*
X4784973Y51813167D01*
X4626289Y51575679D01*
X4424321Y51373711D01*
X4186833Y51215027D01*
X4186832Y51215026D01*
X4186831Y51215026D01*
X3922948Y51105722D01*
X3642814Y51050000D01*
X3357186Y51050000D01*
X3077052Y51105722D01*
X2813169Y51215026D01*
X2813168Y51215026D01*
X2813167Y51215027D01*
X2575679Y51373711D01*
X2373711Y51575679D01*
X2215027Y51813167D01*
X2207466Y51831420D01*
X2105722Y52077052D01*
X2050000Y52357186D01*
X2050000Y52642814D01*
X2105722Y52922948D01*
X2215026Y53186831D01*
X2268152Y53266340D01*
X2373711Y53424321D01*
X2575679Y53626289D01*
X2813167Y53784973D01*
X2813169Y53784974D01*
X3077052Y53894278D01*
X3357186Y53950000D01*
X3642814Y53950000D01*
X3922948Y53894278D01*
X3922948Y53894278D01*
G37*
G36*
X34037719Y54469187D02*
G01*
X34173663Y54442146D01*
X34344405Y54371422D01*
X34498068Y54268748D01*
X34628748Y54138068D01*
X34731422Y53984405D01*
X34802146Y53813663D01*
X34838200Y53632405D01*
X34838200Y53447595D01*
X34802146Y53266337D01*
X34731422Y53095595D01*
X34628748Y52941932D01*
X34498068Y52811252D01*
X34344405Y52708578D01*
X34173663Y52637854D01*
X34037720Y52610814D01*
X33992406Y52601800D01*
X33807594Y52601800D01*
X33762281Y52610813D01*
X33626337Y52637854D01*
X33455595Y52708578D01*
X33301932Y52811252D01*
X33171252Y52941932D01*
X33068578Y53095595D01*
X32997854Y53266337D01*
X32961800Y53447595D01*
X32961800Y53632405D01*
X32997854Y53813663D01*
X33068578Y53984405D01*
X33171252Y54138068D01*
X33301932Y54268748D01*
X33455595Y54371422D01*
X33626337Y54442146D01*
X33762281Y54469187D01*
X33807594Y54478200D01*
X33992406Y54478200D01*
X34037719Y54469187D01*
X34037719Y54469187D01*
G37*
G36*
X31497719Y54469187D02*
G01*
X31633663Y54442146D01*
X31804405Y54371422D01*
X31958068Y54268748D01*
X32088748Y54138068D01*
X32191422Y53984405D01*
X32262146Y53813663D01*
X32298200Y53632405D01*
X32298200Y53447595D01*
X32262146Y53266337D01*
X32191422Y53095595D01*
X32088748Y52941932D01*
X31958068Y52811252D01*
X31804405Y52708578D01*
X31633663Y52637854D01*
X31497720Y52610814D01*
X31452406Y52601800D01*
X31267594Y52601800D01*
X31222281Y52610813D01*
X31086337Y52637854D01*
X30915595Y52708578D01*
X30761932Y52811252D01*
X30631252Y52941932D01*
X30528578Y53095595D01*
X30457854Y53266337D01*
X30421800Y53447595D01*
X30421800Y53632405D01*
X30457854Y53813663D01*
X30528578Y53984405D01*
X30631252Y54138068D01*
X30761932Y54268748D01*
X30915595Y54371422D01*
X31086337Y54442146D01*
X31222281Y54469187D01*
X31267594Y54478200D01*
X31452406Y54478200D01*
X31497719Y54469187D01*
X31497719Y54469187D01*
G37*
G36*
X36577719Y54469187D02*
G01*
X36713663Y54442146D01*
X36884405Y54371422D01*
X37038068Y54268748D01*
X37168748Y54138068D01*
X37271422Y53984405D01*
X37342146Y53813663D01*
X37378200Y53632405D01*
X37378200Y53447595D01*
X37342146Y53266337D01*
X37271422Y53095595D01*
X37168748Y52941932D01*
X37038068Y52811252D01*
X36884405Y52708578D01*
X36713663Y52637854D01*
X36577720Y52610814D01*
X36532406Y52601800D01*
X36347594Y52601800D01*
X36302281Y52610813D01*
X36166337Y52637854D01*
X35995595Y52708578D01*
X35841932Y52811252D01*
X35711252Y52941932D01*
X35608578Y53095595D01*
X35537854Y53266337D01*
X35501800Y53447595D01*
X35501800Y53632405D01*
X35537854Y53813663D01*
X35608578Y53984405D01*
X35711252Y54138068D01*
X35841932Y54268748D01*
X35995595Y54371422D01*
X36166337Y54442146D01*
X36302281Y54469187D01*
X36347594Y54478200D01*
X36532406Y54478200D01*
X36577719Y54469187D01*
X36577719Y54469187D01*
G37*
G36*
X28957719Y54469187D02*
G01*
X29093663Y54442146D01*
X29264405Y54371422D01*
X29418068Y54268748D01*
X29548748Y54138068D01*
X29651422Y53984405D01*
X29722146Y53813663D01*
X29758200Y53632405D01*
X29758200Y53447595D01*
X29722146Y53266337D01*
X29651422Y53095595D01*
X29548748Y52941932D01*
X29418068Y52811252D01*
X29264405Y52708578D01*
X29093663Y52637854D01*
X28957720Y52610814D01*
X28912406Y52601800D01*
X28727594Y52601800D01*
X28682281Y52610813D01*
X28546337Y52637854D01*
X28375595Y52708578D01*
X28221932Y52811252D01*
X28091252Y52941932D01*
X27988578Y53095595D01*
X27917854Y53266337D01*
X27881800Y53447595D01*
X27881800Y53632405D01*
X27917854Y53813663D01*
X27988578Y53984405D01*
X28091252Y54138068D01*
X28221932Y54268748D01*
X28375595Y54371422D01*
X28546337Y54442146D01*
X28682281Y54469187D01*
X28727594Y54478200D01*
X28912406Y54478200D01*
X28957719Y54469187D01*
X28957719Y54469187D01*
G37*
G36*
X39117719Y54469187D02*
G01*
X39253663Y54442146D01*
X39424405Y54371422D01*
X39578068Y54268748D01*
X39708748Y54138068D01*
X39811422Y53984405D01*
X39882146Y53813663D01*
X39918200Y53632405D01*
X39918200Y53447595D01*
X39882146Y53266337D01*
X39811422Y53095595D01*
X39708748Y52941932D01*
X39578068Y52811252D01*
X39424405Y52708578D01*
X39253663Y52637854D01*
X39117720Y52610814D01*
X39072406Y52601800D01*
X38887594Y52601800D01*
X38842281Y52610813D01*
X38706337Y52637854D01*
X38535595Y52708578D01*
X38381932Y52811252D01*
X38251252Y52941932D01*
X38148578Y53095595D01*
X38077854Y53266337D01*
X38041800Y53447595D01*
X38041800Y53632405D01*
X38077854Y53813663D01*
X38148578Y53984405D01*
X38251252Y54138068D01*
X38381932Y54268748D01*
X38535595Y54371422D01*
X38706337Y54442146D01*
X38842281Y54469187D01*
X38887594Y54478200D01*
X39072406Y54478200D01*
X39117719Y54469187D01*
X39117719Y54469187D01*
G37*
G36*
X26417719Y54469187D02*
G01*
X26553663Y54442146D01*
X26724405Y54371422D01*
X26878068Y54268748D01*
X27008748Y54138068D01*
X27111422Y53984405D01*
X27182146Y53813663D01*
X27218200Y53632405D01*
X27218200Y53447595D01*
X27182146Y53266337D01*
X27111422Y53095595D01*
X27008748Y52941932D01*
X26878068Y52811252D01*
X26724405Y52708578D01*
X26553663Y52637854D01*
X26417720Y52610814D01*
X26372406Y52601800D01*
X26187594Y52601800D01*
X26142281Y52610813D01*
X26006337Y52637854D01*
X25835595Y52708578D01*
X25681932Y52811252D01*
X25551252Y52941932D01*
X25448578Y53095595D01*
X25377854Y53266337D01*
X25341800Y53447595D01*
X25341800Y53632405D01*
X25377854Y53813663D01*
X25448578Y53984405D01*
X25551252Y54138068D01*
X25681932Y54268748D01*
X25835595Y54371422D01*
X26006337Y54442146D01*
X26142281Y54469187D01*
X26187594Y54478200D01*
X26372406Y54478200D01*
X26417719Y54469187D01*
X26417719Y54469187D01*
G37*
G36*
X41657719Y54469187D02*
G01*
X41793663Y54442146D01*
X41964405Y54371422D01*
X42118068Y54268748D01*
X42248748Y54138068D01*
X42351422Y53984405D01*
X42422146Y53813663D01*
X42458200Y53632405D01*
X42458200Y53447595D01*
X42422146Y53266337D01*
X42351422Y53095595D01*
X42248748Y52941932D01*
X42118068Y52811252D01*
X41964405Y52708578D01*
X41793663Y52637854D01*
X41657720Y52610814D01*
X41612406Y52601800D01*
X41427594Y52601800D01*
X41382281Y52610813D01*
X41246337Y52637854D01*
X41075595Y52708578D01*
X40921932Y52811252D01*
X40791252Y52941932D01*
X40688578Y53095595D01*
X40617854Y53266337D01*
X40581800Y53447595D01*
X40581800Y53632405D01*
X40617854Y53813663D01*
X40688578Y53984405D01*
X40791252Y54138068D01*
X40921932Y54268748D01*
X41075595Y54371422D01*
X41246337Y54442146D01*
X41382281Y54469187D01*
X41427594Y54478200D01*
X41612406Y54478200D01*
X41657719Y54469187D01*
X41657719Y54469187D01*
G37*
G36*
X46737719Y54469187D02*
G01*
X46873663Y54442146D01*
X47044405Y54371422D01*
X47198068Y54268748D01*
X47328748Y54138068D01*
X47431422Y53984405D01*
X47502146Y53813663D01*
X47538200Y53632405D01*
X47538200Y53447595D01*
X47502146Y53266337D01*
X47431422Y53095595D01*
X47328748Y52941932D01*
X47198068Y52811252D01*
X47044405Y52708578D01*
X46873663Y52637854D01*
X46737720Y52610814D01*
X46692406Y52601800D01*
X46507594Y52601800D01*
X46462281Y52610813D01*
X46326337Y52637854D01*
X46155595Y52708578D01*
X46001932Y52811252D01*
X45871252Y52941932D01*
X45768578Y53095595D01*
X45697854Y53266337D01*
X45661800Y53447595D01*
X45661800Y53632405D01*
X45697854Y53813663D01*
X45768578Y53984405D01*
X45871252Y54138068D01*
X46001932Y54268748D01*
X46155595Y54371422D01*
X46326337Y54442146D01*
X46462281Y54469187D01*
X46507594Y54478200D01*
X46692406Y54478200D01*
X46737719Y54469187D01*
X46737719Y54469187D01*
G37*
G36*
X44197719Y54469187D02*
G01*
X44333663Y54442146D01*
X44504405Y54371422D01*
X44658068Y54268748D01*
X44788748Y54138068D01*
X44891422Y53984405D01*
X44962146Y53813663D01*
X44998200Y53632405D01*
X44998200Y53447595D01*
X44962146Y53266337D01*
X44891422Y53095595D01*
X44788748Y52941932D01*
X44658068Y52811252D01*
X44504405Y52708578D01*
X44333663Y52637854D01*
X44197720Y52610814D01*
X44152406Y52601800D01*
X43967594Y52601800D01*
X43922281Y52610813D01*
X43786337Y52637854D01*
X43615595Y52708578D01*
X43461932Y52811252D01*
X43331252Y52941932D01*
X43228578Y53095595D01*
X43157854Y53266337D01*
X43121800Y53447595D01*
X43121800Y53632405D01*
X43157854Y53813663D01*
X43228578Y53984405D01*
X43331252Y54138068D01*
X43461932Y54268748D01*
X43615595Y54371422D01*
X43786337Y54442146D01*
X43922281Y54469187D01*
X43967594Y54478200D01*
X44152406Y54478200D01*
X44197719Y54469187D01*
X44197719Y54469187D01*
G37*
G36*
X21337719Y54469187D02*
G01*
X21473663Y54442146D01*
X21644405Y54371422D01*
X21798068Y54268748D01*
X21928748Y54138068D01*
X22031422Y53984405D01*
X22102146Y53813663D01*
X22138200Y53632405D01*
X22138200Y53447595D01*
X22102146Y53266337D01*
X22031422Y53095595D01*
X21928748Y52941932D01*
X21798068Y52811252D01*
X21644405Y52708578D01*
X21473663Y52637854D01*
X21337720Y52610814D01*
X21292406Y52601800D01*
X21107594Y52601800D01*
X21062281Y52610813D01*
X20926337Y52637854D01*
X20755595Y52708578D01*
X20601932Y52811252D01*
X20471252Y52941932D01*
X20368578Y53095595D01*
X20297854Y53266337D01*
X20261800Y53447595D01*
X20261800Y53632405D01*
X20297854Y53813663D01*
X20368578Y53984405D01*
X20471252Y54138068D01*
X20601932Y54268748D01*
X20755595Y54371422D01*
X20926337Y54442146D01*
X21062281Y54469187D01*
X21107594Y54478200D01*
X21292406Y54478200D01*
X21337719Y54469187D01*
X21337719Y54469187D01*
G37*
G36*
X18797719Y54469187D02*
G01*
X18933663Y54442146D01*
X19104405Y54371422D01*
X19258068Y54268748D01*
X19388748Y54138068D01*
X19491422Y53984405D01*
X19562146Y53813663D01*
X19598200Y53632405D01*
X19598200Y53447595D01*
X19562146Y53266337D01*
X19491422Y53095595D01*
X19388748Y52941932D01*
X19258068Y52811252D01*
X19104405Y52708578D01*
X18933663Y52637854D01*
X18797720Y52610814D01*
X18752406Y52601800D01*
X18567594Y52601800D01*
X18522281Y52610813D01*
X18386337Y52637854D01*
X18215595Y52708578D01*
X18061932Y52811252D01*
X17931252Y52941932D01*
X17828578Y53095595D01*
X17757854Y53266337D01*
X17721800Y53447595D01*
X17721800Y53632405D01*
X17757854Y53813663D01*
X17828578Y53984405D01*
X17931252Y54138068D01*
X18061932Y54268748D01*
X18215595Y54371422D01*
X18386337Y54442146D01*
X18522281Y54469187D01*
X18567594Y54478200D01*
X18752406Y54478200D01*
X18797719Y54469187D01*
X18797719Y54469187D01*
G37*
G36*
X49277719Y54469187D02*
G01*
X49413663Y54442146D01*
X49584405Y54371422D01*
X49738068Y54268748D01*
X49868748Y54138068D01*
X49971422Y53984405D01*
X50042146Y53813663D01*
X50078200Y53632405D01*
X50078200Y53447595D01*
X50042146Y53266337D01*
X49971422Y53095595D01*
X49868748Y52941932D01*
X49738068Y52811252D01*
X49584405Y52708578D01*
X49413663Y52637854D01*
X49277720Y52610814D01*
X49232406Y52601800D01*
X49047594Y52601800D01*
X49002281Y52610813D01*
X48866337Y52637854D01*
X48695595Y52708578D01*
X48541932Y52811252D01*
X48411252Y52941932D01*
X48308578Y53095595D01*
X48237854Y53266337D01*
X48201800Y53447595D01*
X48201800Y53632405D01*
X48237854Y53813663D01*
X48308578Y53984405D01*
X48411252Y54138068D01*
X48541932Y54268748D01*
X48695595Y54371422D01*
X48866337Y54442146D01*
X49002281Y54469187D01*
X49047594Y54478200D01*
X49232406Y54478200D01*
X49277719Y54469187D01*
X49277719Y54469187D01*
G37*
G36*
X16257719Y54469187D02*
G01*
X16393663Y54442146D01*
X16564405Y54371422D01*
X16718068Y54268748D01*
X16848748Y54138068D01*
X16951422Y53984405D01*
X17022146Y53813663D01*
X17058200Y53632405D01*
X17058200Y53447595D01*
X17022146Y53266337D01*
X16951422Y53095595D01*
X16848748Y52941932D01*
X16718068Y52811252D01*
X16564405Y52708578D01*
X16393663Y52637854D01*
X16257720Y52610814D01*
X16212406Y52601800D01*
X16027594Y52601800D01*
X15982281Y52610813D01*
X15846337Y52637854D01*
X15675595Y52708578D01*
X15521932Y52811252D01*
X15391252Y52941932D01*
X15288578Y53095595D01*
X15217854Y53266337D01*
X15181800Y53447595D01*
X15181800Y53632405D01*
X15217854Y53813663D01*
X15288578Y53984405D01*
X15391252Y54138068D01*
X15521932Y54268748D01*
X15675595Y54371422D01*
X15846337Y54442146D01*
X15982281Y54469187D01*
X16027594Y54478200D01*
X16212406Y54478200D01*
X16257719Y54469187D01*
X16257719Y54469187D01*
G37*
G36*
X51817719Y54469187D02*
G01*
X51953663Y54442146D01*
X52124405Y54371422D01*
X52278068Y54268748D01*
X52408748Y54138068D01*
X52511422Y53984405D01*
X52582146Y53813663D01*
X52618200Y53632405D01*
X52618200Y53447595D01*
X52582146Y53266337D01*
X52511422Y53095595D01*
X52408748Y52941932D01*
X52278068Y52811252D01*
X52124405Y52708578D01*
X51953663Y52637854D01*
X51817720Y52610814D01*
X51772406Y52601800D01*
X51587594Y52601800D01*
X51542281Y52610813D01*
X51406337Y52637854D01*
X51235595Y52708578D01*
X51081932Y52811252D01*
X50951252Y52941932D01*
X50848578Y53095595D01*
X50777854Y53266337D01*
X50741800Y53447595D01*
X50741800Y53632405D01*
X50777854Y53813663D01*
X50848578Y53984405D01*
X50951252Y54138068D01*
X51081932Y54268748D01*
X51235595Y54371422D01*
X51406337Y54442146D01*
X51542281Y54469187D01*
X51587594Y54478200D01*
X51772406Y54478200D01*
X51817719Y54469187D01*
X51817719Y54469187D01*
G37*
G36*
X13717719Y54469187D02*
G01*
X13853663Y54442146D01*
X14024405Y54371422D01*
X14178068Y54268748D01*
X14308748Y54138068D01*
X14411422Y53984405D01*
X14482146Y53813663D01*
X14518200Y53632405D01*
X14518200Y53447595D01*
X14482146Y53266337D01*
X14411422Y53095595D01*
X14308748Y52941932D01*
X14178068Y52811252D01*
X14024405Y52708578D01*
X13853663Y52637854D01*
X13717720Y52610814D01*
X13672406Y52601800D01*
X13487594Y52601800D01*
X13442281Y52610813D01*
X13306337Y52637854D01*
X13135595Y52708578D01*
X12981932Y52811252D01*
X12851252Y52941932D01*
X12748578Y53095595D01*
X12677854Y53266337D01*
X12641800Y53447595D01*
X12641800Y53632405D01*
X12677854Y53813663D01*
X12748578Y53984405D01*
X12851252Y54138068D01*
X12981932Y54268748D01*
X13135595Y54371422D01*
X13306337Y54442146D01*
X13442281Y54469187D01*
X13487594Y54478200D01*
X13672406Y54478200D01*
X13717719Y54469187D01*
X13717719Y54469187D01*
G37*
G36*
X54357719Y54469187D02*
G01*
X54493663Y54442146D01*
X54664405Y54371422D01*
X54818068Y54268748D01*
X54948748Y54138068D01*
X55051422Y53984405D01*
X55122146Y53813663D01*
X55158200Y53632405D01*
X55158200Y53447595D01*
X55122146Y53266337D01*
X55051422Y53095595D01*
X54948748Y52941932D01*
X54818068Y52811252D01*
X54664405Y52708578D01*
X54493663Y52637854D01*
X54357720Y52610814D01*
X54312406Y52601800D01*
X54127594Y52601800D01*
X54082281Y52610813D01*
X53946337Y52637854D01*
X53775595Y52708578D01*
X53621932Y52811252D01*
X53491252Y52941932D01*
X53388578Y53095595D01*
X53317854Y53266337D01*
X53281800Y53447595D01*
X53281800Y53632405D01*
X53317854Y53813663D01*
X53388578Y53984405D01*
X53491252Y54138068D01*
X53621932Y54268748D01*
X53775595Y54371422D01*
X53946337Y54442146D01*
X54082281Y54469187D01*
X54127594Y54478200D01*
X54312406Y54478200D01*
X54357719Y54469187D01*
X54357719Y54469187D01*
G37*
G36*
X11177719Y54469187D02*
G01*
X11313663Y54442146D01*
X11484405Y54371422D01*
X11638068Y54268748D01*
X11768748Y54138068D01*
X11871422Y53984405D01*
X11942146Y53813663D01*
X11978200Y53632405D01*
X11978200Y53447595D01*
X11942146Y53266337D01*
X11871422Y53095595D01*
X11768748Y52941932D01*
X11638068Y52811252D01*
X11484405Y52708578D01*
X11313663Y52637854D01*
X11177720Y52610814D01*
X11132406Y52601800D01*
X10947594Y52601800D01*
X10902281Y52610813D01*
X10766337Y52637854D01*
X10595595Y52708578D01*
X10441932Y52811252D01*
X10311252Y52941932D01*
X10208578Y53095595D01*
X10137854Y53266337D01*
X10101800Y53447595D01*
X10101800Y53632405D01*
X10137854Y53813663D01*
X10208578Y53984405D01*
X10311252Y54138068D01*
X10441932Y54268748D01*
X10595595Y54371422D01*
X10766337Y54442146D01*
X10902281Y54469187D01*
X10947594Y54478200D01*
X11132406Y54478200D01*
X11177719Y54469187D01*
X11177719Y54469187D01*
G37*
G36*
X56897719Y54469187D02*
G01*
X57033663Y54442146D01*
X57204405Y54371422D01*
X57358068Y54268748D01*
X57488748Y54138068D01*
X57591422Y53984405D01*
X57662146Y53813663D01*
X57698200Y53632405D01*
X57698200Y53447595D01*
X57662146Y53266337D01*
X57591422Y53095595D01*
X57488748Y52941932D01*
X57358068Y52811252D01*
X57204405Y52708578D01*
X57033663Y52637854D01*
X56897720Y52610814D01*
X56852406Y52601800D01*
X56667594Y52601800D01*
X56622281Y52610813D01*
X56486337Y52637854D01*
X56315595Y52708578D01*
X56161932Y52811252D01*
X56031252Y52941932D01*
X55928578Y53095595D01*
X55857854Y53266337D01*
X55821800Y53447595D01*
X55821800Y53632405D01*
X55857854Y53813663D01*
X55928578Y53984405D01*
X56031252Y54138068D01*
X56161932Y54268748D01*
X56315595Y54371422D01*
X56486337Y54442146D01*
X56622281Y54469187D01*
X56667594Y54478200D01*
X56852406Y54478200D01*
X56897719Y54469187D01*
X56897719Y54469187D01*
G37*
G36*
X8637719Y54469187D02*
G01*
X8773663Y54442146D01*
X8944405Y54371422D01*
X9098068Y54268748D01*
X9228748Y54138068D01*
X9331422Y53984405D01*
X9402146Y53813663D01*
X9438200Y53632405D01*
X9438200Y53447595D01*
X9402146Y53266337D01*
X9331422Y53095595D01*
X9228748Y52941932D01*
X9098068Y52811252D01*
X8944405Y52708578D01*
X8773663Y52637854D01*
X8637720Y52610814D01*
X8592406Y52601800D01*
X8407594Y52601800D01*
X8362281Y52610813D01*
X8226337Y52637854D01*
X8055595Y52708578D01*
X7901932Y52811252D01*
X7771252Y52941932D01*
X7668578Y53095595D01*
X7597854Y53266337D01*
X7561800Y53447595D01*
X7561800Y53632405D01*
X7597854Y53813663D01*
X7668578Y53984405D01*
X7771252Y54138068D01*
X7901932Y54268748D01*
X8055595Y54371422D01*
X8226337Y54442146D01*
X8362281Y54469187D01*
X8407594Y54478200D01*
X8592406Y54478200D01*
X8637719Y54469187D01*
X8637719Y54469187D01*
G37*
G36*
X23877719Y54469187D02*
G01*
X24013663Y54442146D01*
X24184405Y54371422D01*
X24338068Y54268748D01*
X24468748Y54138068D01*
X24571422Y53984405D01*
X24642146Y53813663D01*
X24678200Y53632405D01*
X24678200Y53447595D01*
X24642146Y53266337D01*
X24571422Y53095595D01*
X24468748Y52941932D01*
X24338068Y52811252D01*
X24184405Y52708578D01*
X24013663Y52637854D01*
X23877720Y52610814D01*
X23832406Y52601800D01*
X23647594Y52601800D01*
X23602281Y52610813D01*
X23466337Y52637854D01*
X23295595Y52708578D01*
X23141932Y52811252D01*
X23011252Y52941932D01*
X22908578Y53095595D01*
X22837854Y53266337D01*
X22801800Y53447595D01*
X22801800Y53632405D01*
X22837854Y53813663D01*
X22908578Y53984405D01*
X23011252Y54138068D01*
X23141932Y54268748D01*
X23295595Y54371422D01*
X23466337Y54442146D01*
X23602281Y54469187D01*
X23647594Y54478200D01*
X23832406Y54478200D01*
X23877719Y54469187D01*
X23877719Y54469187D01*
G37*
M02*
