G04 #@! TF.GenerationSoftware,KiCad,Pcbnew,(5.1.2-1)-1*
G04 #@! TF.CreationDate,2019-07-25T00:26:34-07:00*
G04 #@! TF.ProjectId,first_design,66697273-745f-4646-9573-69676e2e6b69,rev?*
G04 #@! TF.SameCoordinates,Original*
G04 #@! TF.FileFunction,Legend,Top*
G04 #@! TF.FilePolarity,Positive*
%FSLAX46Y46*%
G04 Gerber Fmt 4.6, Leading zero omitted, Abs format (unit mm)*
G04 Created by KiCad (PCBNEW (5.1.2-1)-1) date 2019-07-25 00:26:34*
%MOMM*%
%LPD*%
G04 APERTURE LIST*
%ADD10C,0.150000*%
%ADD11C,0.100000*%
%ADD12C,0.120000*%
G04 APERTURE END LIST*
D10*
X9250000Y1150000D02*
X9250000Y1810000D01*
X15450000Y1150000D02*
X9250000Y1150000D01*
X15450000Y7850000D02*
X15450000Y1150000D01*
X9250000Y7850000D02*
X15450000Y7850000D01*
X9250000Y7190000D02*
X9250000Y7850000D01*
X31110000Y40650000D02*
X28890000Y40650000D01*
X31110000Y32350000D02*
X28890000Y32350000D01*
X18506914Y31820843D02*
X19941914Y31820843D01*
X18506914Y41840843D02*
X14506914Y41840843D01*
X18506914Y31820843D02*
X14506914Y31820843D01*
D11*
X20316914Y32385843D02*
G75*
G03X20316914Y32385843I-50000J0D01*
G01*
D12*
X44402774Y35097945D02*
G75*
G02X44402700Y32702000I-902774J-1197945D01*
G01*
X42597226Y32702055D02*
G75*
G02X42597300Y35098000I902774J1197945D01*
G01*
D10*
X59600000Y23330000D02*
X59600000Y24670000D01*
X61400000Y23330000D02*
X61400000Y24670000D01*
X51100000Y23330000D02*
X51100000Y24670000D01*
X52900000Y23330000D02*
X52900000Y24670000D01*
X25035000Y23550000D02*
X25035000Y22110000D01*
X29980000Y23550000D02*
X29980000Y27450000D01*
X25020000Y23550000D02*
X25020000Y27450000D01*
D11*
X25645000Y21785000D02*
G75*
G03X25645000Y21785000I-50000J0D01*
G01*
D10*
X36850000Y26330000D02*
X36850000Y27670000D01*
X34150000Y26330000D02*
X34150000Y27670000D01*
X22100000Y33170000D02*
X22100000Y31830000D01*
X23900000Y33170000D02*
X23900000Y31830000D01*
X26830000Y18600000D02*
X28170000Y18600000D01*
X26830000Y20400000D02*
X28170000Y20400000D01*
X22100000Y26330000D02*
X22100000Y27670000D01*
X23900000Y26330000D02*
X23900000Y27670000D01*
X39980000Y17800000D02*
X39980000Y19200000D01*
X39980000Y19200000D02*
X40965000Y19200000D01*
X43020000Y17800000D02*
X43020000Y19200000D01*
X43020000Y19200000D02*
X42035000Y19200000D01*
X35670000Y17100000D02*
X34330000Y17100000D01*
X35670000Y18900000D02*
X34330000Y18900000D01*
D12*
X7250000Y49520000D02*
X7250000Y55020000D01*
X7250000Y55020000D02*
X58010000Y55020000D01*
X58010000Y55020000D02*
X58010000Y49520000D01*
X58010000Y49520000D02*
X7250000Y49520000D01*
D10*
X15600000Y13330000D02*
X15600000Y14670000D01*
X17400000Y13330000D02*
X17400000Y14670000D01*
X8870000Y20415000D02*
X8870000Y24895000D01*
X14130000Y24895000D02*
X14130000Y20415000D01*
X59600000Y29830000D02*
X59600000Y31170000D01*
X61400000Y29830000D02*
X61400000Y31170000D01*
X51100000Y29830000D02*
X51100000Y31170000D01*
X52900000Y29830000D02*
X52900000Y31170000D01*
X50700000Y37900000D02*
X50050000Y37900000D01*
X53300000Y44100000D02*
X53950000Y44100000D01*
X53950000Y44100000D02*
X53950000Y37900000D01*
X53950000Y37900000D02*
X53300000Y37900000D01*
X50050000Y37900000D02*
X50050000Y44100000D01*
X50050000Y44100000D02*
X50700000Y44100000D01*
X59200000Y37900000D02*
X58550000Y37900000D01*
X61800000Y44100000D02*
X62450000Y44100000D01*
X62450000Y44100000D02*
X62450000Y37900000D01*
X62450000Y37900000D02*
X61800000Y37900000D01*
X58550000Y37900000D02*
X58550000Y44100000D01*
X58550000Y44100000D02*
X59200000Y44100000D01*
D12*
X36140000Y2620000D02*
X36140000Y5380000D01*
X36140000Y5380000D02*
X41400000Y5380000D01*
X41400000Y5380000D02*
X41400000Y2620000D01*
X41400000Y2620000D02*
X36140000Y2620000D01*
X43400000Y11000000D02*
G75*
G03X43400000Y11000000I-4900000J0D01*
G01*
D10*
X42670000Y26300000D02*
X41330000Y26300000D01*
X42670000Y28100000D02*
X41330000Y28100000D01*
X32000000Y2650000D02*
X32000000Y4350000D01*
X32000000Y4350000D02*
X32965000Y4350000D01*
X35000000Y2650000D02*
X35000000Y4350000D01*
X35000000Y4350000D02*
X34035000Y4350000D01*
X20400000Y24170000D02*
X20400000Y22830000D01*
X18600000Y24170000D02*
X18600000Y22830000D01*
X15600000Y22830000D02*
X15600000Y24170000D01*
X17400000Y22830000D02*
X17400000Y24170000D01*
X42970000Y42500000D02*
X41630000Y42500000D01*
X42970000Y44300000D02*
X41630000Y44300000D01*
X18600000Y13330000D02*
X18600000Y14670000D01*
X20400000Y13330000D02*
X20400000Y14670000D01*
X12600000Y13330000D02*
X12600000Y14670000D01*
X14400000Y13330000D02*
X14400000Y14670000D01*
D12*
X21500000Y8500000D02*
X30500000Y8500000D01*
X30500000Y12500000D02*
X21500000Y12500000D01*
X30500000Y8500000D02*
X30500000Y12500000D01*
X21500000Y12500000D02*
X21500000Y8500000D01*
X20000000Y49500000D02*
X8500000Y49500000D01*
X20000000Y45500000D02*
X20000000Y49500000D01*
X8500000Y45500000D02*
X20000000Y45500000D01*
X8500000Y49500000D02*
X8500000Y45500000D01*
D10*
X42900000Y37380000D02*
X41500000Y37380000D01*
X41500000Y37380000D02*
X41500000Y38365000D01*
X42900000Y40420000D02*
X41500000Y40420000D01*
X41500000Y40420000D02*
X41500000Y39435000D01*
X32900000Y26330000D02*
X32900000Y27670000D01*
X31100000Y26330000D02*
X31100000Y27670000D01*
X26830000Y17400000D02*
X28170000Y17400000D01*
X26830000Y15600000D02*
X28170000Y15600000D01*
X7178571Y6035714D02*
X5678571Y6035714D01*
X7035714Y7607142D02*
X7107142Y7535714D01*
X7178571Y7321428D01*
X7178571Y7178571D01*
X7107142Y6964285D01*
X6964285Y6821428D01*
X6821428Y6750000D01*
X6535714Y6678571D01*
X6321428Y6678571D01*
X6035714Y6750000D01*
X5892857Y6821428D01*
X5750000Y6964285D01*
X5678571Y7178571D01*
X5678571Y7321428D01*
X5750000Y7535714D01*
X5821428Y7607142D01*
X5821428Y8178571D02*
X5750000Y8250000D01*
X5678571Y8392857D01*
X5678571Y8750000D01*
X5750000Y8892857D01*
X5821428Y8964285D01*
X5964285Y9035714D01*
X6107142Y9035714D01*
X6321428Y8964285D01*
X7178571Y8107142D01*
X7178571Y9035714D01*
X29750000Y41821428D02*
X29035714Y41821428D01*
X29035714Y43321428D01*
X31035714Y41821428D02*
X30178571Y41821428D01*
X30607142Y41821428D02*
X30607142Y43321428D01*
X30464285Y43107142D01*
X30321428Y42964285D01*
X30178571Y42892857D01*
X22678571Y39035714D02*
X21178571Y39035714D01*
X22535714Y40607142D02*
X22607142Y40535714D01*
X22678571Y40321428D01*
X22678571Y40178571D01*
X22607142Y39964285D01*
X22464285Y39821428D01*
X22321428Y39750000D01*
X22035714Y39678571D01*
X21821428Y39678571D01*
X21535714Y39750000D01*
X21392857Y39821428D01*
X21250000Y39964285D01*
X21178571Y40178571D01*
X21178571Y40321428D01*
X21250000Y40535714D01*
X21321428Y40607142D01*
X21178571Y41964285D02*
X21178571Y41250000D01*
X21892857Y41178571D01*
X21821428Y41250000D01*
X21750000Y41392857D01*
X21750000Y41750000D01*
X21821428Y41892857D01*
X21892857Y41964285D01*
X22035714Y42035714D01*
X22392857Y42035714D01*
X22535714Y41964285D01*
X22607142Y41892857D01*
X22678571Y41750000D01*
X22678571Y41392857D01*
X22607142Y41250000D01*
X22535714Y41178571D01*
D12*
X40942857Y32128571D02*
X39742857Y32128571D01*
X40942857Y33385714D02*
X40371428Y32985714D01*
X40942857Y32700000D02*
X39742857Y32700000D01*
X39742857Y33157142D01*
X39800000Y33271428D01*
X39857142Y33328571D01*
X39971428Y33385714D01*
X40142857Y33385714D01*
X40257142Y33328571D01*
X40314285Y33271428D01*
X40371428Y33157142D01*
X40371428Y32700000D01*
X40942857Y33900000D02*
X39742857Y33900000D01*
X39742857Y34185714D01*
X39800000Y34357142D01*
X39914285Y34471428D01*
X40028571Y34528571D01*
X40257142Y34585714D01*
X40428571Y34585714D01*
X40657142Y34528571D01*
X40771428Y34471428D01*
X40885714Y34357142D01*
X40942857Y34185714D01*
X40942857Y33900000D01*
X40942857Y35728571D02*
X40942857Y35042857D01*
X40942857Y35385714D02*
X39742857Y35385714D01*
X39914285Y35271428D01*
X40028571Y35157142D01*
X40085714Y35042857D01*
D10*
X58678571Y23035714D02*
X57964285Y22535714D01*
X58678571Y22178571D02*
X57178571Y22178571D01*
X57178571Y22750000D01*
X57250000Y22892857D01*
X57321428Y22964285D01*
X57464285Y23035714D01*
X57678571Y23035714D01*
X57821428Y22964285D01*
X57892857Y22892857D01*
X57964285Y22750000D01*
X57964285Y22178571D01*
X58678571Y24464285D02*
X58678571Y23607142D01*
X58678571Y24035714D02*
X57178571Y24035714D01*
X57392857Y23892857D01*
X57535714Y23750000D01*
X57607142Y23607142D01*
X57178571Y25392857D02*
X57178571Y25535714D01*
X57250000Y25678571D01*
X57321428Y25750000D01*
X57464285Y25821428D01*
X57750000Y25892857D01*
X58107142Y25892857D01*
X58392857Y25821428D01*
X58535714Y25750000D01*
X58607142Y25678571D01*
X58678571Y25535714D01*
X58678571Y25392857D01*
X58607142Y25250000D01*
X58535714Y25178571D01*
X58392857Y25107142D01*
X58107142Y25035714D01*
X57750000Y25035714D01*
X57464285Y25107142D01*
X57321428Y25178571D01*
X57250000Y25250000D01*
X57178571Y25392857D01*
X49678571Y23750000D02*
X48964285Y23250000D01*
X49678571Y22892857D02*
X48178571Y22892857D01*
X48178571Y23464285D01*
X48250000Y23607142D01*
X48321428Y23678571D01*
X48464285Y23750000D01*
X48678571Y23750000D01*
X48821428Y23678571D01*
X48892857Y23607142D01*
X48964285Y23464285D01*
X48964285Y22892857D01*
X49678571Y24464285D02*
X49678571Y24750000D01*
X49607142Y24892857D01*
X49535714Y24964285D01*
X49321428Y25107142D01*
X49035714Y25178571D01*
X48464285Y25178571D01*
X48321428Y25107142D01*
X48250000Y25035714D01*
X48178571Y24892857D01*
X48178571Y24607142D01*
X48250000Y24464285D01*
X48321428Y24392857D01*
X48464285Y24321428D01*
X48821428Y24321428D01*
X48964285Y24392857D01*
X49035714Y24464285D01*
X49107142Y24607142D01*
X49107142Y24892857D01*
X49035714Y25035714D01*
X48964285Y25107142D01*
X48821428Y25178571D01*
X26035714Y29821428D02*
X26035714Y31321428D01*
X27607142Y29964285D02*
X27535714Y29892857D01*
X27321428Y29821428D01*
X27178571Y29821428D01*
X26964285Y29892857D01*
X26821428Y30035714D01*
X26750000Y30178571D01*
X26678571Y30464285D01*
X26678571Y30678571D01*
X26750000Y30964285D01*
X26821428Y31107142D01*
X26964285Y31250000D01*
X27178571Y31321428D01*
X27321428Y31321428D01*
X27535714Y31250000D01*
X27607142Y31178571D01*
X28107142Y31321428D02*
X29035714Y31321428D01*
X28535714Y30750000D01*
X28750000Y30750000D01*
X28892857Y30678571D01*
X28964285Y30607142D01*
X29035714Y30464285D01*
X29035714Y30107142D01*
X28964285Y29964285D01*
X28892857Y29892857D01*
X28750000Y29821428D01*
X28321428Y29821428D01*
X28178571Y29892857D01*
X28107142Y29964285D01*
X35250000Y29964285D02*
X35178571Y29892857D01*
X34964285Y29821428D01*
X34821428Y29821428D01*
X34607142Y29892857D01*
X34464285Y30035714D01*
X34392857Y30178571D01*
X34321428Y30464285D01*
X34321428Y30678571D01*
X34392857Y30964285D01*
X34464285Y31107142D01*
X34607142Y31250000D01*
X34821428Y31321428D01*
X34964285Y31321428D01*
X35178571Y31250000D01*
X35250000Y31178571D01*
X35964285Y29821428D02*
X36250000Y29821428D01*
X36392857Y29892857D01*
X36464285Y29964285D01*
X36607142Y30178571D01*
X36678571Y30464285D01*
X36678571Y31035714D01*
X36607142Y31178571D01*
X36535714Y31250000D01*
X36392857Y31321428D01*
X36107142Y31321428D01*
X35964285Y31250000D01*
X35892857Y31178571D01*
X35821428Y31035714D01*
X35821428Y30678571D01*
X35892857Y30535714D01*
X35964285Y30464285D01*
X36107142Y30392857D01*
X36392857Y30392857D01*
X36535714Y30464285D01*
X36607142Y30535714D01*
X36678571Y30678571D01*
X22750000Y35464285D02*
X22678571Y35392857D01*
X22464285Y35321428D01*
X22321428Y35321428D01*
X22107142Y35392857D01*
X21964285Y35535714D01*
X21892857Y35678571D01*
X21821428Y35964285D01*
X21821428Y36178571D01*
X21892857Y36464285D01*
X21964285Y36607142D01*
X22107142Y36750000D01*
X22321428Y36821428D01*
X22464285Y36821428D01*
X22678571Y36750000D01*
X22750000Y36678571D01*
X24035714Y36321428D02*
X24035714Y35321428D01*
X23678571Y36892857D02*
X23321428Y35821428D01*
X24250000Y35821428D01*
X23250000Y18964285D02*
X23178571Y18892857D01*
X22964285Y18821428D01*
X22821428Y18821428D01*
X22607142Y18892857D01*
X22464285Y19035714D01*
X22392857Y19178571D01*
X22321428Y19464285D01*
X22321428Y19678571D01*
X22392857Y19964285D01*
X22464285Y20107142D01*
X22607142Y20250000D01*
X22821428Y20321428D01*
X22964285Y20321428D01*
X23178571Y20250000D01*
X23250000Y20178571D01*
X23750000Y20321428D02*
X24678571Y20321428D01*
X24178571Y19750000D01*
X24392857Y19750000D01*
X24535714Y19678571D01*
X24607142Y19607142D01*
X24678571Y19464285D01*
X24678571Y19107142D01*
X24607142Y18964285D01*
X24535714Y18892857D01*
X24392857Y18821428D01*
X23964285Y18821428D01*
X23821428Y18892857D01*
X23750000Y18964285D01*
X19750000Y27964285D02*
X19678571Y27892857D01*
X19464285Y27821428D01*
X19321428Y27821428D01*
X19107142Y27892857D01*
X18964285Y28035714D01*
X18892857Y28178571D01*
X18821428Y28464285D01*
X18821428Y28678571D01*
X18892857Y28964285D01*
X18964285Y29107142D01*
X19107142Y29250000D01*
X19321428Y29321428D01*
X19464285Y29321428D01*
X19678571Y29250000D01*
X19750000Y29178571D01*
X20321428Y29178571D02*
X20392857Y29250000D01*
X20535714Y29321428D01*
X20892857Y29321428D01*
X21035714Y29250000D01*
X21107142Y29178571D01*
X21178571Y29035714D01*
X21178571Y28892857D01*
X21107142Y28678571D01*
X20250000Y27821428D01*
X21178571Y27821428D01*
X38857142Y19678571D02*
X38714285Y19750000D01*
X38571428Y19892857D01*
X38357142Y20107142D01*
X38214285Y20178571D01*
X38071428Y20178571D01*
X38142857Y19821428D02*
X38000000Y19892857D01*
X37857142Y20035714D01*
X37785714Y20321428D01*
X37785714Y20821428D01*
X37857142Y21107142D01*
X38000000Y21250000D01*
X38142857Y21321428D01*
X38428571Y21321428D01*
X38571428Y21250000D01*
X38714285Y21107142D01*
X38785714Y20821428D01*
X38785714Y20321428D01*
X38714285Y20035714D01*
X38571428Y19892857D01*
X38428571Y19821428D01*
X38142857Y19821428D01*
X39357142Y21178571D02*
X39428571Y21250000D01*
X39571428Y21321428D01*
X39928571Y21321428D01*
X40071428Y21250000D01*
X40142857Y21178571D01*
X40214285Y21035714D01*
X40214285Y20892857D01*
X40142857Y20678571D01*
X39285714Y19821428D01*
X40214285Y19821428D01*
X34750000Y19821428D02*
X34250000Y20535714D01*
X33892857Y19821428D02*
X33892857Y21321428D01*
X34464285Y21321428D01*
X34607142Y21250000D01*
X34678571Y21178571D01*
X34750000Y21035714D01*
X34750000Y20821428D01*
X34678571Y20678571D01*
X34607142Y20607142D01*
X34464285Y20535714D01*
X33892857Y20535714D01*
X35607142Y20678571D02*
X35464285Y20750000D01*
X35392857Y20821428D01*
X35321428Y20964285D01*
X35321428Y21035714D01*
X35392857Y21178571D01*
X35464285Y21250000D01*
X35607142Y21321428D01*
X35892857Y21321428D01*
X36035714Y21250000D01*
X36107142Y21178571D01*
X36178571Y21035714D01*
X36178571Y20964285D01*
X36107142Y20821428D01*
X36035714Y20750000D01*
X35892857Y20678571D01*
X35607142Y20678571D01*
X35464285Y20607142D01*
X35392857Y20535714D01*
X35321428Y20392857D01*
X35321428Y20107142D01*
X35392857Y19964285D01*
X35464285Y19892857D01*
X35607142Y19821428D01*
X35892857Y19821428D01*
X36035714Y19892857D01*
X36107142Y19964285D01*
X36178571Y20107142D01*
X36178571Y20392857D01*
X36107142Y20535714D01*
X36035714Y20607142D01*
X35892857Y20678571D01*
D12*
X5599999Y49157142D02*
X5599999Y48300000D01*
X5542857Y48128571D01*
X5428571Y48014285D01*
X5257142Y47957142D01*
X5142857Y47957142D01*
X6799999Y47957142D02*
X6114285Y47957142D01*
X6457142Y47957142D02*
X6457142Y49157142D01*
X6342857Y48985714D01*
X6228571Y48871428D01*
X6114285Y48814285D01*
D10*
X16250000Y9821428D02*
X15750000Y10535714D01*
X15392857Y9821428D02*
X15392857Y11321428D01*
X15964285Y11321428D01*
X16107142Y11250000D01*
X16178571Y11178571D01*
X16250000Y11035714D01*
X16250000Y10821428D01*
X16178571Y10678571D01*
X16107142Y10607142D01*
X15964285Y10535714D01*
X15392857Y10535714D01*
X16750000Y11321428D02*
X17678571Y11321428D01*
X17178571Y10750000D01*
X17392857Y10750000D01*
X17535714Y10678571D01*
X17607142Y10607142D01*
X17678571Y10464285D01*
X17678571Y10107142D01*
X17607142Y9964285D01*
X17535714Y9892857D01*
X17392857Y9821428D01*
X16964285Y9821428D01*
X16821428Y9892857D01*
X16750000Y9964285D01*
X11357142Y17178571D02*
X11214285Y17250000D01*
X11071428Y17392857D01*
X10857142Y17607142D01*
X10714285Y17678571D01*
X10571428Y17678571D01*
X10642857Y17321428D02*
X10500000Y17392857D01*
X10357142Y17535714D01*
X10285714Y17821428D01*
X10285714Y18321428D01*
X10357142Y18607142D01*
X10500000Y18750000D01*
X10642857Y18821428D01*
X10928571Y18821428D01*
X11071428Y18750000D01*
X11214285Y18607142D01*
X11285714Y18321428D01*
X11285714Y17821428D01*
X11214285Y17535714D01*
X11071428Y17392857D01*
X10928571Y17321428D01*
X10642857Y17321428D01*
X11785714Y18821428D02*
X12714285Y18821428D01*
X12214285Y18250000D01*
X12428571Y18250000D01*
X12571428Y18178571D01*
X12642857Y18107142D01*
X12714285Y17964285D01*
X12714285Y17607142D01*
X12642857Y17464285D01*
X12571428Y17392857D01*
X12428571Y17321428D01*
X12000000Y17321428D01*
X11857142Y17392857D01*
X11785714Y17464285D01*
X58678571Y28821428D02*
X58678571Y28107142D01*
X57178571Y28107142D01*
X57892857Y29321428D02*
X57892857Y29821428D01*
X58678571Y30035714D02*
X58678571Y29321428D01*
X57178571Y29321428D01*
X57178571Y30035714D01*
X58678571Y30678571D02*
X57178571Y30678571D01*
X57178571Y31035714D01*
X57250000Y31250000D01*
X57392857Y31392857D01*
X57535714Y31464285D01*
X57821428Y31535714D01*
X58035714Y31535714D01*
X58321428Y31464285D01*
X58464285Y31392857D01*
X58607142Y31250000D01*
X58678571Y31035714D01*
X58678571Y30678571D01*
X57321428Y32107142D02*
X57250000Y32178571D01*
X57178571Y32321428D01*
X57178571Y32678571D01*
X57250000Y32821428D01*
X57321428Y32892857D01*
X57464285Y32964285D01*
X57607142Y32964285D01*
X57821428Y32892857D01*
X58678571Y32035714D01*
X58678571Y32964285D01*
X50178571Y28821428D02*
X50178571Y28107142D01*
X48678571Y28107142D01*
X49392857Y29321428D02*
X49392857Y29821428D01*
X50178571Y30035714D02*
X50178571Y29321428D01*
X48678571Y29321428D01*
X48678571Y30035714D01*
X50178571Y30678571D02*
X48678571Y30678571D01*
X48678571Y31035714D01*
X48750000Y31250000D01*
X48892857Y31392857D01*
X49035714Y31464285D01*
X49321428Y31535714D01*
X49535714Y31535714D01*
X49821428Y31464285D01*
X49964285Y31392857D01*
X50107142Y31250000D01*
X50178571Y31035714D01*
X50178571Y30678571D01*
X50178571Y32964285D02*
X50178571Y32107142D01*
X50178571Y32535714D02*
X48678571Y32535714D01*
X48892857Y32392857D01*
X49035714Y32250000D01*
X49107142Y32107142D01*
X48392857Y39285714D02*
X48464285Y39500000D01*
X48535714Y39571428D01*
X48678571Y39642857D01*
X48892857Y39642857D01*
X49035714Y39571428D01*
X49107142Y39500000D01*
X49178571Y39357142D01*
X49178571Y38785714D01*
X47678571Y38785714D01*
X47678571Y39285714D01*
X47750000Y39428571D01*
X47821428Y39500000D01*
X47964285Y39571428D01*
X48107142Y39571428D01*
X48250000Y39500000D01*
X48321428Y39428571D01*
X48392857Y39285714D01*
X48392857Y38785714D01*
X48178571Y40071428D02*
X48178571Y40642857D01*
X47678571Y40285714D02*
X48964285Y40285714D01*
X49107142Y40357142D01*
X49178571Y40500000D01*
X49178571Y40642857D01*
X48178571Y41142857D02*
X49178571Y41142857D01*
X48321428Y41142857D02*
X48250000Y41214285D01*
X48178571Y41357142D01*
X48178571Y41571428D01*
X48250000Y41714285D01*
X48392857Y41785714D01*
X49178571Y41785714D01*
X49178571Y43285714D02*
X49178571Y42428571D01*
X49178571Y42857142D02*
X47678571Y42857142D01*
X47892857Y42714285D01*
X48035714Y42571428D01*
X48107142Y42428571D01*
X56892857Y39285714D02*
X56964285Y39500000D01*
X57035714Y39571428D01*
X57178571Y39642857D01*
X57392857Y39642857D01*
X57535714Y39571428D01*
X57607142Y39500000D01*
X57678571Y39357142D01*
X57678571Y38785714D01*
X56178571Y38785714D01*
X56178571Y39285714D01*
X56250000Y39428571D01*
X56321428Y39500000D01*
X56464285Y39571428D01*
X56607142Y39571428D01*
X56750000Y39500000D01*
X56821428Y39428571D01*
X56892857Y39285714D01*
X56892857Y38785714D01*
X56678571Y40071428D02*
X56678571Y40642857D01*
X56178571Y40285714D02*
X57464285Y40285714D01*
X57607142Y40357142D01*
X57678571Y40500000D01*
X57678571Y40642857D01*
X56678571Y41142857D02*
X57678571Y41142857D01*
X56821428Y41142857D02*
X56750000Y41214285D01*
X56678571Y41357142D01*
X56678571Y41571428D01*
X56750000Y41714285D01*
X56892857Y41785714D01*
X57678571Y41785714D01*
X56321428Y42428571D02*
X56250000Y42500000D01*
X56178571Y42642857D01*
X56178571Y43000000D01*
X56250000Y43142857D01*
X56321428Y43214285D01*
X56464285Y43285714D01*
X56607142Y43285714D01*
X56821428Y43214285D01*
X57678571Y42357142D01*
X57678571Y43285714D01*
D12*
X38000000Y2157142D02*
X38000000Y1300000D01*
X37942857Y1128571D01*
X37828571Y1014285D01*
X37657142Y957142D01*
X37542857Y957142D01*
X38571428Y957142D02*
X38571428Y2157142D01*
X39028571Y2157142D01*
X39142857Y2100000D01*
X39200000Y2042857D01*
X39257142Y1928571D01*
X39257142Y1757142D01*
X39200000Y1642857D01*
X39142857Y1585714D01*
X39028571Y1528571D01*
X38571428Y1528571D01*
X40400000Y957142D02*
X39714285Y957142D01*
X40057142Y957142D02*
X40057142Y2157142D01*
X39942857Y1985714D01*
X39828571Y1871428D01*
X39714285Y1814285D01*
X31728571Y13457142D02*
X31157142Y13457142D01*
X31157142Y14657142D01*
X32071428Y13514285D02*
X32242857Y13457142D01*
X32528571Y13457142D01*
X32642857Y13514285D01*
X32700000Y13571428D01*
X32757142Y13685714D01*
X32757142Y13800000D01*
X32700000Y13914285D01*
X32642857Y13971428D01*
X32528571Y14028571D01*
X32300000Y14085714D01*
X32185714Y14142857D01*
X32128571Y14200000D01*
X32071428Y14314285D01*
X32071428Y14428571D01*
X32128571Y14542857D01*
X32185714Y14600000D01*
X32300000Y14657142D01*
X32585714Y14657142D01*
X32757142Y14600000D01*
X33900000Y13457142D02*
X33214285Y13457142D01*
X33557142Y13457142D02*
X33557142Y14657142D01*
X33442857Y14485714D01*
X33328571Y14371428D01*
X33214285Y14314285D01*
D10*
X2178571Y8000000D02*
X3250000Y8000000D01*
X3464285Y7928571D01*
X3607142Y7785714D01*
X3678571Y7571428D01*
X3678571Y7428571D01*
X2178571Y9428571D02*
X2178571Y8714285D01*
X2892857Y8642857D01*
X2821428Y8714285D01*
X2750000Y8857142D01*
X2750000Y9214285D01*
X2821428Y9357142D01*
X2892857Y9428571D01*
X3035714Y9500000D01*
X3392857Y9500000D01*
X3535714Y9428571D01*
X3607142Y9357142D01*
X3678571Y9214285D01*
X3678571Y8857142D01*
X3607142Y8714285D01*
X3535714Y8642857D01*
X1178571Y45500000D02*
X2250000Y45500000D01*
X2464285Y45428571D01*
X2607142Y45285714D01*
X2678571Y45071428D01*
X2678571Y44928571D01*
X1321428Y46142857D02*
X1250000Y46214285D01*
X1178571Y46357142D01*
X1178571Y46714285D01*
X1250000Y46857142D01*
X1321428Y46928571D01*
X1464285Y47000000D01*
X1607142Y47000000D01*
X1821428Y46928571D01*
X2678571Y46071428D01*
X2678571Y47000000D01*
X41750000Y29021428D02*
X41250000Y29735714D01*
X40892857Y29021428D02*
X40892857Y30521428D01*
X41464285Y30521428D01*
X41607142Y30450000D01*
X41678571Y30378571D01*
X41750000Y30235714D01*
X41750000Y30021428D01*
X41678571Y29878571D01*
X41607142Y29807142D01*
X41464285Y29735714D01*
X40892857Y29735714D01*
X42250000Y30521428D02*
X43250000Y30521428D01*
X42607142Y29021428D01*
X28035714Y2821428D02*
X28035714Y4321428D01*
X29607142Y2964285D02*
X29535714Y2892857D01*
X29321428Y2821428D01*
X29178571Y2821428D01*
X28964285Y2892857D01*
X28821428Y3035714D01*
X28750000Y3178571D01*
X28678571Y3464285D01*
X28678571Y3678571D01*
X28750000Y3964285D01*
X28821428Y4107142D01*
X28964285Y4250000D01*
X29178571Y4321428D01*
X29321428Y4321428D01*
X29535714Y4250000D01*
X29607142Y4178571D01*
X31035714Y2821428D02*
X30178571Y2821428D01*
X30607142Y2821428D02*
X30607142Y4321428D01*
X30464285Y4107142D01*
X30321428Y3964285D01*
X30178571Y3892857D01*
X19250000Y19321428D02*
X18750000Y20035714D01*
X18392857Y19321428D02*
X18392857Y20821428D01*
X18964285Y20821428D01*
X19107142Y20750000D01*
X19178571Y20678571D01*
X19250000Y20535714D01*
X19250000Y20321428D01*
X19178571Y20178571D01*
X19107142Y20107142D01*
X18964285Y20035714D01*
X18392857Y20035714D01*
X20535714Y20821428D02*
X20250000Y20821428D01*
X20107142Y20750000D01*
X20035714Y20678571D01*
X19892857Y20464285D01*
X19821428Y20178571D01*
X19821428Y19607142D01*
X19892857Y19464285D01*
X19964285Y19392857D01*
X20107142Y19321428D01*
X20392857Y19321428D01*
X20535714Y19392857D01*
X20607142Y19464285D01*
X20678571Y19607142D01*
X20678571Y19964285D01*
X20607142Y20107142D01*
X20535714Y20178571D01*
X20392857Y20250000D01*
X20107142Y20250000D01*
X19964285Y20178571D01*
X19892857Y20107142D01*
X19821428Y19964285D01*
X16250000Y19321428D02*
X15750000Y20035714D01*
X15392857Y19321428D02*
X15392857Y20821428D01*
X15964285Y20821428D01*
X16107142Y20750000D01*
X16178571Y20678571D01*
X16250000Y20535714D01*
X16250000Y20321428D01*
X16178571Y20178571D01*
X16107142Y20107142D01*
X15964285Y20035714D01*
X15392857Y20035714D01*
X17607142Y20821428D02*
X16892857Y20821428D01*
X16821428Y20107142D01*
X16892857Y20178571D01*
X17035714Y20250000D01*
X17392857Y20250000D01*
X17535714Y20178571D01*
X17607142Y20107142D01*
X17678571Y19964285D01*
X17678571Y19607142D01*
X17607142Y19464285D01*
X17535714Y19392857D01*
X17392857Y19321428D01*
X17035714Y19321428D01*
X16892857Y19392857D01*
X16821428Y19464285D01*
X42050000Y45021428D02*
X41550000Y45735714D01*
X41192857Y45021428D02*
X41192857Y46521428D01*
X41764285Y46521428D01*
X41907142Y46450000D01*
X41978571Y46378571D01*
X42050000Y46235714D01*
X42050000Y46021428D01*
X41978571Y45878571D01*
X41907142Y45807142D01*
X41764285Y45735714D01*
X41192857Y45735714D01*
X43335714Y46021428D02*
X43335714Y45021428D01*
X42978571Y46592857D02*
X42621428Y45521428D01*
X43550000Y45521428D01*
X19250000Y9821428D02*
X18750000Y10535714D01*
X18392857Y9821428D02*
X18392857Y11321428D01*
X18964285Y11321428D01*
X19107142Y11250000D01*
X19178571Y11178571D01*
X19250000Y11035714D01*
X19250000Y10821428D01*
X19178571Y10678571D01*
X19107142Y10607142D01*
X18964285Y10535714D01*
X18392857Y10535714D01*
X19821428Y11178571D02*
X19892857Y11250000D01*
X20035714Y11321428D01*
X20392857Y11321428D01*
X20535714Y11250000D01*
X20607142Y11178571D01*
X20678571Y11035714D01*
X20678571Y10892857D01*
X20607142Y10678571D01*
X19750000Y9821428D01*
X20678571Y9821428D01*
X13250000Y9821428D02*
X12750000Y10535714D01*
X12392857Y9821428D02*
X12392857Y11321428D01*
X12964285Y11321428D01*
X13107142Y11250000D01*
X13178571Y11178571D01*
X13250000Y11035714D01*
X13250000Y10821428D01*
X13178571Y10678571D01*
X13107142Y10607142D01*
X12964285Y10535714D01*
X12392857Y10535714D01*
X14678571Y9821428D02*
X13821428Y9821428D01*
X14250000Y9821428D02*
X14250000Y11321428D01*
X14107142Y11107142D01*
X13964285Y10964285D01*
X13821428Y10892857D01*
X25666666Y8047619D02*
X25666666Y7333333D01*
X25619047Y7190476D01*
X25523809Y7095238D01*
X25380952Y7047619D01*
X25285714Y7047619D01*
X26571428Y7714285D02*
X26571428Y7047619D01*
X26333333Y8095238D02*
X26095238Y7380952D01*
X26714285Y7380952D01*
X21166666Y48547619D02*
X21166666Y47833333D01*
X21119047Y47690476D01*
X21023809Y47595238D01*
X20880952Y47547619D01*
X20785714Y47547619D01*
X21547619Y48547619D02*
X22166666Y48547619D01*
X21833333Y48166666D01*
X21976190Y48166666D01*
X22071428Y48119047D01*
X22119047Y48071428D01*
X22166666Y47976190D01*
X22166666Y47738095D01*
X22119047Y47642857D01*
X22071428Y47595238D01*
X21976190Y47547619D01*
X21690476Y47547619D01*
X21595238Y47595238D01*
X21547619Y47642857D01*
X39421428Y38857142D02*
X39350000Y38714285D01*
X39207142Y38571428D01*
X38992857Y38357142D01*
X38921428Y38214285D01*
X38921428Y38071428D01*
X39278571Y38142857D02*
X39207142Y38000000D01*
X39064285Y37857142D01*
X38778571Y37785714D01*
X38278571Y37785714D01*
X37992857Y37857142D01*
X37850000Y38000000D01*
X37778571Y38142857D01*
X37778571Y38428571D01*
X37850000Y38571428D01*
X37992857Y38714285D01*
X38278571Y38785714D01*
X38778571Y38785714D01*
X39064285Y38714285D01*
X39207142Y38571428D01*
X39278571Y38428571D01*
X39278571Y38142857D01*
X39278571Y40214285D02*
X39278571Y39357142D01*
X39278571Y39785714D02*
X37778571Y39785714D01*
X37992857Y39642857D01*
X38135714Y39500000D01*
X38207142Y39357142D01*
X31750000Y29964285D02*
X31678571Y29892857D01*
X31464285Y29821428D01*
X31321428Y29821428D01*
X31107142Y29892857D01*
X30964285Y30035714D01*
X30892857Y30178571D01*
X30821428Y30464285D01*
X30821428Y30678571D01*
X30892857Y30964285D01*
X30964285Y31107142D01*
X31107142Y31250000D01*
X31321428Y31321428D01*
X31464285Y31321428D01*
X31678571Y31250000D01*
X31750000Y31178571D01*
X33178571Y29821428D02*
X32321428Y29821428D01*
X32750000Y29821428D02*
X32750000Y31321428D01*
X32607142Y31107142D01*
X32464285Y30964285D01*
X32321428Y30892857D01*
X23250000Y15964285D02*
X23178571Y15892857D01*
X22964285Y15821428D01*
X22821428Y15821428D01*
X22607142Y15892857D01*
X22464285Y16035714D01*
X22392857Y16178571D01*
X22321428Y16464285D01*
X22321428Y16678571D01*
X22392857Y16964285D01*
X22464285Y17107142D01*
X22607142Y17250000D01*
X22821428Y17321428D01*
X22964285Y17321428D01*
X23178571Y17250000D01*
X23250000Y17178571D01*
X24607142Y17321428D02*
X23892857Y17321428D01*
X23821428Y16607142D01*
X23892857Y16678571D01*
X24035714Y16750000D01*
X24392857Y16750000D01*
X24535714Y16678571D01*
X24607142Y16607142D01*
X24678571Y16464285D01*
X24678571Y16107142D01*
X24607142Y15964285D01*
X24535714Y15892857D01*
X24392857Y15821428D01*
X24035714Y15821428D01*
X23892857Y15892857D01*
X23821428Y15964285D01*
M02*
