M48
; DRILL file {KiCad (5.1.2-1)-1} date Thursday, July 25, 2019 at 12:26:51 AM
; FORMAT={3:3/ absolute / metric / suppress leading zeros}
; #@! TF.CreationDate,2019-07-25T00:26:51-07:00
; #@! TF.GenerationSoftware,Kicad,Pcbnew,(5.1.2-1)-1
FMAT,2
METRIC,TZ
T1C0.400
T2C0.762
T3C0.900
T4C1.100
T5C1.200
T6C1.400
T7C2.700
%
G90
G05
T1
X7000Y16500
X7000Y15000
X7000Y13500
X7000Y12000
X7500Y37000
X8000Y45000
X8500Y16500
X8500Y15000
X8500Y13500
X8500Y12000
X9000Y45000
X9000Y37000
X9000Y29000
X9000Y27500
X10000Y45000
X10000Y29000
X10000Y27500
X10000Y16500
X10000Y13500
X10000Y12000
X10500Y37000
X10500Y36000
X11000Y45000
X11000Y29000
X11000Y27500
X11500Y37000
X11500Y36000
X12000Y29000
X12000Y27500
X12013Y38487
X12444Y52163
X14000Y43000
X14000Y31000
X15000Y43000
X15000Y31000
X16000Y43000
X16000Y31000
X16495Y34995
X17000Y43000
X17000Y31000
X18000Y43000
X18000Y31000
X19000Y43000
X19000Y31000
X19500Y23615
X20000Y47000
X20000Y43000
X20000Y31000
X20786Y6786
X21000Y47000
X21000Y43000
X22000Y47000
X22000Y43000
X22000Y24000
X22000Y23000
X22000Y2000
X23000Y24000
X23000Y23000
X23500Y48500
X24000Y24000
X24000Y23000
X24000Y18000
X24500Y4500
X30000Y7500
X31000Y24000
X31000Y23000
X32000Y24000
X32000Y23000
X32500Y8500
X33000Y24000
X33000Y23000
X33500Y12500
X34000Y24000
X34000Y23000
X35000Y24000
X35000Y23000
X36000Y24000
X36000Y23000
X37000Y24000
X37000Y23000
X54000Y55275
X63000Y22500
T2
X26738Y25500
X28262Y25500
T3
X8500Y53540
X8500Y51000
X11040Y53540
X11040Y51000
X13580Y53540
X13580Y51000
X16120Y53540
X16120Y51000
X18660Y53540
X18660Y51000
X21200Y53540
X21200Y51000
X23740Y53540
X23740Y51000
X26280Y53540
X26280Y51000
X28820Y53540
X28820Y51000
X31360Y53540
X31360Y51000
X33900Y53540
X33900Y51000
X36440Y53540
X36440Y51000
X38980Y53540
X38980Y51000
X41520Y53540
X41520Y51000
X44060Y53540
X44060Y51000
X46600Y53540
X46600Y51000
X49140Y53540
X49140Y51000
X51680Y53540
X51680Y51000
X54220Y53540
X54220Y51000
X56760Y53540
X56760Y51000
T4
X36000Y11000
X41000Y11000
T5
X43500Y35170
X43500Y32630
X23420Y10500
X25960Y10500
X28500Y10500
X10500Y47500
X13040Y47500
X15580Y47500
X18120Y47500
T6
X37500Y4000
X40040Y4000
T7
X3500Y3500
X61500Y3500
X3500Y52500
X61500Y52500
T0
M30
