G04 #@! TF.GenerationSoftware,KiCad,Pcbnew,(5.1.2-1)-1*
G04 #@! TF.CreationDate,2019-07-25T00:26:34-07:00*
G04 #@! TF.ProjectId,first_design,66697273-745f-4646-9573-69676e2e6b69,rev?*
G04 #@! TF.SameCoordinates,Original*
G04 #@! TF.FileFunction,Soldermask,Top*
G04 #@! TF.FilePolarity,Negative*
%FSLAX46Y46*%
G04 Gerber Fmt 4.6, Leading zero omitted, Abs format (unit mm)*
G04 Created by KiCad (PCBNEW (5.1.2-1)-1) date 2019-07-25 00:26:34*
%MOMM*%
%LPD*%
G04 APERTURE LIST*
%ADD10C,0.100000*%
G04 APERTURE END LIST*
D10*
G36*
X19190082Y3074592D02*
G01*
X19227211Y3063329D01*
X19261431Y3045038D01*
X19291424Y3020424D01*
X19316038Y2990431D01*
X19334329Y2956211D01*
X19345592Y2919082D01*
X19350000Y2874327D01*
X19350000Y1553673D01*
X19345592Y1508918D01*
X19334329Y1471789D01*
X19316038Y1437569D01*
X19291424Y1407576D01*
X19261431Y1382962D01*
X19227211Y1364671D01*
X19190082Y1353408D01*
X19145327Y1349000D01*
X16314673Y1349000D01*
X16269918Y1353408D01*
X16232789Y1364671D01*
X16198569Y1382962D01*
X16168576Y1407576D01*
X16143962Y1437569D01*
X16125671Y1471789D01*
X16114408Y1508918D01*
X16110000Y1553673D01*
X16110000Y2874327D01*
X16114408Y2919082D01*
X16125671Y2956211D01*
X16143962Y2990431D01*
X16168576Y3020424D01*
X16198569Y3045038D01*
X16232789Y3063329D01*
X16269918Y3074592D01*
X16314673Y3079000D01*
X19145327Y3079000D01*
X19190082Y3074592D01*
X19190082Y3074592D01*
G37*
G36*
X34860000Y1685000D02*
G01*
X34040000Y1685000D01*
X34040000Y2855000D01*
X34860000Y2855000D01*
X34860000Y1685000D01*
X34860000Y1685000D01*
G37*
G36*
X32960000Y1685000D02*
G01*
X32140000Y1685000D01*
X32140000Y2855000D01*
X32960000Y2855000D01*
X32960000Y1685000D01*
X32960000Y1685000D01*
G37*
G36*
X13889646Y7061537D02*
G01*
X13917552Y7053071D01*
X13943273Y7039323D01*
X13965819Y7020819D01*
X13984323Y6998273D01*
X13998071Y6972552D01*
X14006537Y6944646D01*
X14010000Y6909480D01*
X14010000Y2090520D01*
X14006537Y2055354D01*
X13998071Y2027448D01*
X13984323Y2001727D01*
X13965819Y1979181D01*
X13943273Y1960677D01*
X13917552Y1946929D01*
X13889646Y1938463D01*
X13854480Y1935000D01*
X7845520Y1935000D01*
X7810354Y1938463D01*
X7782448Y1946929D01*
X7756727Y1960677D01*
X7734181Y1979181D01*
X7715677Y2001727D01*
X7701929Y2027448D01*
X7693463Y2055354D01*
X7690000Y2090520D01*
X7690000Y6909480D01*
X7693463Y6944646D01*
X7701929Y6972552D01*
X7715677Y6998273D01*
X7734181Y7020819D01*
X7756727Y7039323D01*
X7782448Y7053071D01*
X7810354Y7061537D01*
X7845520Y7065000D01*
X13854480Y7065000D01*
X13889646Y7061537D01*
X13889646Y7061537D01*
G37*
G36*
X3922948Y4894278D02*
G01*
X4186831Y4784974D01*
X4186833Y4784973D01*
X4424321Y4626289D01*
X4626289Y4424321D01*
X4784973Y4186833D01*
X4784974Y4186831D01*
X4894278Y3922948D01*
X4950000Y3642814D01*
X4950000Y3357186D01*
X4894278Y3077052D01*
X4800230Y2850000D01*
X4784973Y2813167D01*
X4626289Y2575679D01*
X4424321Y2373711D01*
X4186833Y2215027D01*
X4186832Y2215026D01*
X4186831Y2215026D01*
X3922948Y2105722D01*
X3642814Y2050000D01*
X3357186Y2050000D01*
X3077052Y2105722D01*
X2813169Y2215026D01*
X2813168Y2215026D01*
X2813167Y2215027D01*
X2575679Y2373711D01*
X2373711Y2575679D01*
X2215027Y2813167D01*
X2199770Y2850000D01*
X2105722Y3077052D01*
X2050000Y3357186D01*
X2050000Y3642814D01*
X2105722Y3922948D01*
X2215026Y4186831D01*
X2215027Y4186833D01*
X2373711Y4424321D01*
X2575679Y4626289D01*
X2813167Y4784973D01*
X2813169Y4784974D01*
X3077052Y4894278D01*
X3357186Y4950000D01*
X3642814Y4950000D01*
X3922948Y4894278D01*
X3922948Y4894278D01*
G37*
G36*
X61922948Y4894278D02*
G01*
X62186831Y4784974D01*
X62186833Y4784973D01*
X62424321Y4626289D01*
X62626289Y4424321D01*
X62784973Y4186833D01*
X62784974Y4186831D01*
X62894278Y3922948D01*
X62950000Y3642814D01*
X62950000Y3357186D01*
X62894278Y3077052D01*
X62800230Y2850000D01*
X62784973Y2813167D01*
X62626289Y2575679D01*
X62424321Y2373711D01*
X62186833Y2215027D01*
X62186832Y2215026D01*
X62186831Y2215026D01*
X61922948Y2105722D01*
X61642814Y2050000D01*
X61357186Y2050000D01*
X61077052Y2105722D01*
X60813169Y2215026D01*
X60813168Y2215026D01*
X60813167Y2215027D01*
X60575679Y2373711D01*
X60373711Y2575679D01*
X60215027Y2813167D01*
X60199770Y2850000D01*
X60105722Y3077052D01*
X60050000Y3357186D01*
X60050000Y3642814D01*
X60105722Y3922948D01*
X60215026Y4186831D01*
X60215027Y4186833D01*
X60373711Y4424321D01*
X60575679Y4626289D01*
X60813167Y4784973D01*
X60813169Y4784974D01*
X61077052Y4894278D01*
X61357186Y4950000D01*
X61642814Y4950000D01*
X61922948Y4894278D01*
X61922948Y4894278D01*
G37*
G36*
X38650000Y4175839D02*
G01*
X38652402Y4151453D01*
X38659515Y4128004D01*
X38671066Y4106393D01*
X38686611Y4087451D01*
X38705553Y4071906D01*
X38727164Y4060355D01*
X38750613Y4053242D01*
X38774999Y4050840D01*
X38799385Y4053242D01*
X38822834Y4060355D01*
X38844445Y4071906D01*
X38863387Y4087451D01*
X38878932Y4106393D01*
X38890483Y4128004D01*
X38897596Y4151453D01*
X38934194Y4335441D01*
X38934194Y4335443D01*
X39020884Y4544729D01*
X39146737Y4733082D01*
X39306918Y4893263D01*
X39495271Y5019116D01*
X39704557Y5105806D01*
X39852676Y5135269D01*
X39926734Y5150000D01*
X40153266Y5150000D01*
X40227324Y5135269D01*
X40375443Y5105806D01*
X40584729Y5019116D01*
X40773082Y4893263D01*
X40933263Y4733082D01*
X41059116Y4544729D01*
X41145806Y4335443D01*
X41190000Y4113265D01*
X41190000Y3886735D01*
X41145806Y3664557D01*
X41059116Y3455271D01*
X40933263Y3266918D01*
X40773082Y3106737D01*
X40584729Y2980884D01*
X40375443Y2894194D01*
X40227324Y2864731D01*
X40153266Y2850000D01*
X39926734Y2850000D01*
X39852676Y2864731D01*
X39704557Y2894194D01*
X39495271Y2980884D01*
X39306918Y3106737D01*
X39146737Y3266918D01*
X39020884Y3455271D01*
X38934194Y3664557D01*
X38897596Y3848547D01*
X38890483Y3871996D01*
X38878932Y3893607D01*
X38863386Y3912549D01*
X38844444Y3928094D01*
X38822834Y3939645D01*
X38799385Y3946758D01*
X38774999Y3949160D01*
X38750613Y3946758D01*
X38727164Y3939645D01*
X38705553Y3928094D01*
X38686611Y3912548D01*
X38671066Y3893606D01*
X38659515Y3871996D01*
X38652402Y3848547D01*
X38650000Y3824161D01*
X38650000Y2850000D01*
X36350000Y2850000D01*
X36350000Y5150000D01*
X38650000Y5150000D01*
X38650000Y4175839D01*
X38650000Y4175839D01*
G37*
G36*
X33910000Y4145000D02*
G01*
X33090000Y4145000D01*
X33090000Y5315000D01*
X33910000Y5315000D01*
X33910000Y4145000D01*
X33910000Y4145000D01*
G37*
G36*
X19190720Y7646608D02*
G01*
X19227700Y7635390D01*
X19261782Y7617173D01*
X19291656Y7592656D01*
X19316173Y7562782D01*
X19334390Y7528700D01*
X19345608Y7491720D01*
X19350000Y7447122D01*
X19350000Y6124878D01*
X19345608Y6080280D01*
X19334390Y6043300D01*
X19316173Y6009218D01*
X19291656Y5979344D01*
X19261782Y5954827D01*
X19227700Y5936610D01*
X19190720Y5925392D01*
X19146122Y5921000D01*
X16313878Y5921000D01*
X16269280Y5925392D01*
X16232300Y5936610D01*
X16198218Y5954827D01*
X16168344Y5979344D01*
X16143827Y6009218D01*
X16125610Y6043300D01*
X16114392Y6080280D01*
X16110000Y6124878D01*
X16110000Y7447122D01*
X16114392Y7491720D01*
X16125610Y7528700D01*
X16143827Y7562782D01*
X16168344Y7592656D01*
X16198218Y7617173D01*
X16232300Y7635390D01*
X16269280Y7646608D01*
X16313878Y7651000D01*
X19146122Y7651000D01*
X19190720Y7646608D01*
X19190720Y7646608D01*
G37*
G36*
X26187290Y11474381D02*
G01*
X26251689Y11461571D01*
X26433678Y11386189D01*
X26597463Y11276751D01*
X26736751Y11137463D01*
X26846189Y10973678D01*
X26921571Y10791689D01*
X26960000Y10598491D01*
X26960000Y10401509D01*
X26921571Y10208311D01*
X26846189Y10026322D01*
X26736751Y9862537D01*
X26597463Y9723249D01*
X26433678Y9613811D01*
X26251689Y9538429D01*
X26187290Y9525619D01*
X26058493Y9500000D01*
X25861507Y9500000D01*
X25732710Y9525619D01*
X25668311Y9538429D01*
X25486322Y9613811D01*
X25322537Y9723249D01*
X25183249Y9862537D01*
X25073811Y10026322D01*
X24998429Y10208311D01*
X24960000Y10401509D01*
X24960000Y10598491D01*
X24998429Y10791689D01*
X25073811Y10973678D01*
X25183249Y11137463D01*
X25322537Y11276751D01*
X25486322Y11386189D01*
X25668311Y11461571D01*
X25732710Y11474381D01*
X25861507Y11500000D01*
X26058493Y11500000D01*
X26187290Y11474381D01*
X26187290Y11474381D01*
G37*
G36*
X28727290Y11474381D02*
G01*
X28791689Y11461571D01*
X28973678Y11386189D01*
X29137463Y11276751D01*
X29276751Y11137463D01*
X29386189Y10973678D01*
X29461571Y10791689D01*
X29500000Y10598491D01*
X29500000Y10401509D01*
X29461571Y10208311D01*
X29386189Y10026322D01*
X29276751Y9862537D01*
X29137463Y9723249D01*
X28973678Y9613811D01*
X28791689Y9538429D01*
X28727290Y9525619D01*
X28598493Y9500000D01*
X28401507Y9500000D01*
X28272710Y9525619D01*
X28208311Y9538429D01*
X28026322Y9613811D01*
X27862537Y9723249D01*
X27723249Y9862537D01*
X27613811Y10026322D01*
X27538429Y10208311D01*
X27500000Y10401509D01*
X27500000Y10598491D01*
X27538429Y10791689D01*
X27613811Y10973678D01*
X27723249Y11137463D01*
X27862537Y11276751D01*
X28026322Y11386189D01*
X28208311Y11461571D01*
X28272710Y11474381D01*
X28401507Y11500000D01*
X28598493Y11500000D01*
X28727290Y11474381D01*
X28727290Y11474381D01*
G37*
G36*
X23647290Y11474381D02*
G01*
X23711689Y11461571D01*
X23893678Y11386189D01*
X24057463Y11276751D01*
X24196751Y11137463D01*
X24306189Y10973678D01*
X24381571Y10791689D01*
X24420000Y10598491D01*
X24420000Y10401509D01*
X24381571Y10208311D01*
X24306189Y10026322D01*
X24196751Y9862537D01*
X24057463Y9723249D01*
X23893678Y9613811D01*
X23711689Y9538429D01*
X23647290Y9525619D01*
X23518493Y9500000D01*
X23321507Y9500000D01*
X23192710Y9525619D01*
X23128311Y9538429D01*
X22946322Y9613811D01*
X22782537Y9723249D01*
X22643249Y9862537D01*
X22533811Y10026322D01*
X22458429Y10208311D01*
X22420000Y10401509D01*
X22420000Y10598491D01*
X22458429Y10791689D01*
X22533811Y10973678D01*
X22643249Y11137463D01*
X22782537Y11276751D01*
X22946322Y11386189D01*
X23128311Y11461571D01*
X23192710Y11474381D01*
X23321507Y11500000D01*
X23518493Y11500000D01*
X23647290Y11474381D01*
X23647290Y11474381D01*
G37*
G36*
X36925000Y10075000D02*
G01*
X35075000Y10075000D01*
X35075000Y11925000D01*
X36925000Y11925000D01*
X36925000Y10075000D01*
X36925000Y10075000D01*
G37*
G36*
X41150674Y11913151D02*
G01*
X41269813Y11889453D01*
X41438152Y11819725D01*
X41589653Y11718495D01*
X41718495Y11589653D01*
X41819725Y11438152D01*
X41889453Y11269813D01*
X41925000Y11091105D01*
X41925000Y10908895D01*
X41889453Y10730187D01*
X41819725Y10561848D01*
X41718495Y10410347D01*
X41589653Y10281505D01*
X41438152Y10180275D01*
X41269813Y10110547D01*
X41150674Y10086849D01*
X41091106Y10075000D01*
X40908894Y10075000D01*
X40849326Y10086849D01*
X40730187Y10110547D01*
X40561848Y10180275D01*
X40410347Y10281505D01*
X40281505Y10410347D01*
X40180275Y10561848D01*
X40110547Y10730187D01*
X40075000Y10908895D01*
X40075000Y11091105D01*
X40110547Y11269813D01*
X40180275Y11438152D01*
X40281505Y11589653D01*
X40410347Y11718495D01*
X40561848Y11819725D01*
X40730187Y11889453D01*
X40849326Y11913151D01*
X40908894Y11925000D01*
X41091106Y11925000D01*
X41150674Y11913151D01*
X41150674Y11913151D01*
G37*
G36*
X17560000Y11745000D02*
G01*
X15440000Y11745000D01*
X15440000Y13205000D01*
X17560000Y13205000D01*
X17560000Y11745000D01*
X17560000Y11745000D01*
G37*
G36*
X14560000Y11745000D02*
G01*
X12440000Y11745000D01*
X12440000Y13205000D01*
X14560000Y13205000D01*
X14560000Y11745000D01*
X14560000Y11745000D01*
G37*
G36*
X20560000Y11745000D02*
G01*
X18440000Y11745000D01*
X18440000Y13205000D01*
X20560000Y13205000D01*
X20560000Y11745000D01*
X20560000Y11745000D01*
G37*
G36*
X5915000Y12065000D02*
G01*
X1085000Y12065000D01*
X1085000Y16935000D01*
X5915000Y16935000D01*
X5915000Y12065000D01*
X5915000Y12065000D01*
G37*
G36*
X20560000Y14795000D02*
G01*
X18440000Y14795000D01*
X18440000Y16255000D01*
X20560000Y16255000D01*
X20560000Y14795000D01*
X20560000Y14795000D01*
G37*
G36*
X17560000Y14795000D02*
G01*
X15440000Y14795000D01*
X15440000Y16255000D01*
X17560000Y16255000D01*
X17560000Y14795000D01*
X17560000Y14795000D01*
G37*
G36*
X14560000Y14795000D02*
G01*
X12440000Y14795000D01*
X12440000Y16255000D01*
X14560000Y16255000D01*
X14560000Y14795000D01*
X14560000Y14795000D01*
G37*
G36*
X29582417Y17555290D02*
G01*
X29622502Y17543130D01*
X29659438Y17523388D01*
X29691816Y17496816D01*
X29718388Y17464438D01*
X29738130Y17427502D01*
X29750290Y17387417D01*
X29755000Y17339596D01*
X29755000Y15660404D01*
X29750290Y15612583D01*
X29738130Y15572498D01*
X29718388Y15535562D01*
X29691816Y15503184D01*
X29659438Y15476612D01*
X29622502Y15456870D01*
X29582417Y15444710D01*
X29534596Y15440000D01*
X28515404Y15440000D01*
X28467583Y15444710D01*
X28427498Y15456870D01*
X28390562Y15476612D01*
X28358184Y15503184D01*
X28331612Y15535562D01*
X28311870Y15572498D01*
X28299710Y15612583D01*
X28295000Y15660404D01*
X28295000Y17339596D01*
X28299710Y17387417D01*
X28311870Y17427502D01*
X28331612Y17464438D01*
X28358184Y17496816D01*
X28390562Y17523388D01*
X28427498Y17543130D01*
X28467583Y17555290D01*
X28515404Y17560000D01*
X29534596Y17560000D01*
X29582417Y17555290D01*
X29582417Y17555290D01*
G37*
G36*
X26532417Y17555290D02*
G01*
X26572502Y17543130D01*
X26609438Y17523388D01*
X26641816Y17496816D01*
X26668388Y17464438D01*
X26688130Y17427502D01*
X26700290Y17387417D01*
X26705000Y17339596D01*
X26705000Y15660404D01*
X26700290Y15612583D01*
X26688130Y15572498D01*
X26668388Y15535562D01*
X26641816Y15503184D01*
X26609438Y15476612D01*
X26572502Y15456870D01*
X26532417Y15444710D01*
X26484596Y15440000D01*
X25465404Y15440000D01*
X25417583Y15444710D01*
X25377498Y15456870D01*
X25340562Y15476612D01*
X25308184Y15503184D01*
X25281612Y15535562D01*
X25261870Y15572498D01*
X25249710Y15612583D01*
X25245000Y15660404D01*
X25245000Y17339596D01*
X25249710Y17387417D01*
X25261870Y17427502D01*
X25281612Y17464438D01*
X25308184Y17496816D01*
X25340562Y17523388D01*
X25377498Y17543130D01*
X25417583Y17555290D01*
X25465404Y17560000D01*
X26484596Y17560000D01*
X26532417Y17555290D01*
X26532417Y17555290D01*
G37*
G36*
X42860000Y16725000D02*
G01*
X42040000Y16725000D01*
X42040000Y18275000D01*
X42860000Y18275000D01*
X42860000Y16725000D01*
X42860000Y16725000D01*
G37*
G36*
X40960000Y16725000D02*
G01*
X40140000Y16725000D01*
X40140000Y18275000D01*
X40960000Y18275000D01*
X40960000Y16725000D01*
X40960000Y16725000D01*
G37*
G36*
X37255000Y16940000D02*
G01*
X35795000Y16940000D01*
X35795000Y19060000D01*
X37255000Y19060000D01*
X37255000Y16940000D01*
X37255000Y16940000D01*
G37*
G36*
X34205000Y16940000D02*
G01*
X32745000Y16940000D01*
X32745000Y19060000D01*
X34205000Y19060000D01*
X34205000Y16940000D01*
X34205000Y16940000D01*
G37*
G36*
X29582417Y20555290D02*
G01*
X29622502Y20543130D01*
X29659438Y20523388D01*
X29691816Y20496816D01*
X29718388Y20464438D01*
X29738130Y20427502D01*
X29750290Y20387417D01*
X29755000Y20339596D01*
X29755000Y18660404D01*
X29750290Y18612583D01*
X29738130Y18572498D01*
X29718388Y18535562D01*
X29691816Y18503184D01*
X29659438Y18476612D01*
X29622502Y18456870D01*
X29582417Y18444710D01*
X29534596Y18440000D01*
X28515404Y18440000D01*
X28467583Y18444710D01*
X28427498Y18456870D01*
X28390562Y18476612D01*
X28358184Y18503184D01*
X28331612Y18535562D01*
X28311870Y18572498D01*
X28299710Y18612583D01*
X28295000Y18660404D01*
X28295000Y20339596D01*
X28299710Y20387417D01*
X28311870Y20427502D01*
X28331612Y20464438D01*
X28358184Y20496816D01*
X28390562Y20523388D01*
X28427498Y20543130D01*
X28467583Y20555290D01*
X28515404Y20560000D01*
X29534596Y20560000D01*
X29582417Y20555290D01*
X29582417Y20555290D01*
G37*
G36*
X26532417Y20555290D02*
G01*
X26572502Y20543130D01*
X26609438Y20523388D01*
X26641816Y20496816D01*
X26668388Y20464438D01*
X26688130Y20427502D01*
X26700290Y20387417D01*
X26705000Y20339596D01*
X26705000Y18660404D01*
X26700290Y18612583D01*
X26688130Y18572498D01*
X26668388Y18535562D01*
X26641816Y18503184D01*
X26609438Y18476612D01*
X26572502Y18456870D01*
X26532417Y18444710D01*
X26484596Y18440000D01*
X25465404Y18440000D01*
X25417583Y18444710D01*
X25377498Y18456870D01*
X25340562Y18476612D01*
X25308184Y18503184D01*
X25281612Y18535562D01*
X25261870Y18572498D01*
X25249710Y18612583D01*
X25245000Y18660404D01*
X25245000Y20339596D01*
X25249710Y20387417D01*
X25261870Y20427502D01*
X25281612Y20464438D01*
X25308184Y20496816D01*
X25340562Y20523388D01*
X25377498Y20543130D01*
X25417583Y20555290D01*
X25465404Y20560000D01*
X26484596Y20560000D01*
X26532417Y20555290D01*
X26532417Y20555290D01*
G37*
G36*
X41910000Y18725000D02*
G01*
X41090000Y18725000D01*
X41090000Y20275000D01*
X41910000Y20275000D01*
X41910000Y18725000D01*
X41910000Y18725000D01*
G37*
G36*
X5915000Y19065000D02*
G01*
X1085000Y19065000D01*
X1085000Y23935000D01*
X5915000Y23935000D01*
X5915000Y19065000D01*
X5915000Y19065000D01*
G37*
G36*
X13714999Y19405001D02*
G01*
X9285001Y19405001D01*
X9285001Y23774999D01*
X13714999Y23774999D01*
X13714999Y19405001D01*
X13714999Y19405001D01*
G37*
G36*
X17560000Y21245000D02*
G01*
X15440000Y21245000D01*
X15440000Y22705000D01*
X17560000Y22705000D01*
X17560000Y21245000D01*
X17560000Y21245000D01*
G37*
G36*
X20560000Y21245000D02*
G01*
X18440000Y21245000D01*
X18440000Y22705000D01*
X20560000Y22705000D01*
X20560000Y21245000D01*
X20560000Y21245000D01*
G37*
G36*
X53060000Y21745000D02*
G01*
X50940000Y21745000D01*
X50940000Y23205000D01*
X53060000Y23205000D01*
X53060000Y21745000D01*
X53060000Y21745000D01*
G37*
G36*
X61560000Y21745000D02*
G01*
X59440000Y21745000D01*
X59440000Y23205000D01*
X61560000Y23205000D01*
X61560000Y21745000D01*
X61560000Y21745000D01*
G37*
G36*
X25901784Y23911349D02*
G01*
X25931527Y23902327D01*
X25958936Y23887676D01*
X25982960Y23867960D01*
X26002676Y23843936D01*
X26017327Y23816527D01*
X26026349Y23786784D01*
X26030000Y23749715D01*
X26030000Y22100285D01*
X26026349Y22063216D01*
X26017327Y22033473D01*
X26002676Y22006064D01*
X25982960Y21982040D01*
X25958936Y21962324D01*
X25931527Y21947673D01*
X25901784Y21938651D01*
X25864715Y21935000D01*
X25325285Y21935000D01*
X25288216Y21938651D01*
X25258473Y21947673D01*
X25231064Y21962324D01*
X25207040Y21982040D01*
X25187324Y22006064D01*
X25172673Y22033473D01*
X25163651Y22063216D01*
X25160000Y22100285D01*
X25160000Y23749715D01*
X25163651Y23786784D01*
X25172673Y23816527D01*
X25187324Y23843936D01*
X25207040Y23867960D01*
X25231064Y23887676D01*
X25258473Y23902327D01*
X25288216Y23911349D01*
X25325285Y23915000D01*
X25864715Y23915000D01*
X25901784Y23911349D01*
X25901784Y23911349D01*
G37*
G36*
X28441784Y23911349D02*
G01*
X28471527Y23902327D01*
X28498936Y23887676D01*
X28522960Y23867960D01*
X28542676Y23843936D01*
X28557327Y23816527D01*
X28566349Y23786784D01*
X28570000Y23749715D01*
X28570000Y22100285D01*
X28566349Y22063216D01*
X28557327Y22033473D01*
X28542676Y22006064D01*
X28522960Y21982040D01*
X28498936Y21962324D01*
X28471527Y21947673D01*
X28441784Y21938651D01*
X28404715Y21935000D01*
X27865285Y21935000D01*
X27828216Y21938651D01*
X27798473Y21947673D01*
X27771064Y21962324D01*
X27747040Y21982040D01*
X27727324Y22006064D01*
X27712673Y22033473D01*
X27703651Y22063216D01*
X27700000Y22100285D01*
X27700000Y23749715D01*
X27703651Y23786784D01*
X27712673Y23816527D01*
X27727324Y23843936D01*
X27747040Y23867960D01*
X27771064Y23887676D01*
X27798473Y23902327D01*
X27828216Y23911349D01*
X27865285Y23915000D01*
X28404715Y23915000D01*
X28441784Y23911349D01*
X28441784Y23911349D01*
G37*
G36*
X29711784Y23911349D02*
G01*
X29741527Y23902327D01*
X29768936Y23887676D01*
X29792960Y23867960D01*
X29812676Y23843936D01*
X29827327Y23816527D01*
X29836349Y23786784D01*
X29840000Y23749715D01*
X29840000Y22100285D01*
X29836349Y22063216D01*
X29827327Y22033473D01*
X29812676Y22006064D01*
X29792960Y21982040D01*
X29768936Y21962324D01*
X29741527Y21947673D01*
X29711784Y21938651D01*
X29674715Y21935000D01*
X29135285Y21935000D01*
X29098216Y21938651D01*
X29068473Y21947673D01*
X29041064Y21962324D01*
X29017040Y21982040D01*
X28997324Y22006064D01*
X28982673Y22033473D01*
X28973651Y22063216D01*
X28970000Y22100285D01*
X28970000Y23749715D01*
X28973651Y23786784D01*
X28982673Y23816527D01*
X28997324Y23843936D01*
X29017040Y23867960D01*
X29041064Y23887676D01*
X29068473Y23902327D01*
X29098216Y23911349D01*
X29135285Y23915000D01*
X29674715Y23915000D01*
X29711784Y23911349D01*
X29711784Y23911349D01*
G37*
G36*
X27171784Y23911349D02*
G01*
X27201527Y23902327D01*
X27228936Y23887676D01*
X27252960Y23867960D01*
X27272676Y23843936D01*
X27287327Y23816527D01*
X27296349Y23786784D01*
X27300000Y23749715D01*
X27300000Y22100285D01*
X27296349Y22063216D01*
X27287327Y22033473D01*
X27272676Y22006064D01*
X27252960Y21982040D01*
X27228936Y21962324D01*
X27201527Y21947673D01*
X27171784Y21938651D01*
X27134715Y21935000D01*
X26595285Y21935000D01*
X26558216Y21938651D01*
X26528473Y21947673D01*
X26501064Y21962324D01*
X26477040Y21982040D01*
X26457324Y22006064D01*
X26442673Y22033473D01*
X26433651Y22063216D01*
X26430000Y22100285D01*
X26430000Y23749715D01*
X26433651Y23786784D01*
X26442673Y23816527D01*
X26457324Y23843936D01*
X26477040Y23867960D01*
X26501064Y23887676D01*
X26528473Y23902327D01*
X26558216Y23911349D01*
X26595285Y23915000D01*
X27134715Y23915000D01*
X27171784Y23911349D01*
X27171784Y23911349D01*
G37*
G36*
X29125000Y24195000D02*
G01*
X25875000Y24195000D01*
X25875000Y26805000D01*
X29125000Y26805000D01*
X29125000Y24195000D01*
X29125000Y24195000D01*
G37*
G36*
X20560000Y24295000D02*
G01*
X18440000Y24295000D01*
X18440000Y25755000D01*
X20560000Y25755000D01*
X20560000Y24295000D01*
X20560000Y24295000D01*
G37*
G36*
X17560000Y24295000D02*
G01*
X15440000Y24295000D01*
X15440000Y25755000D01*
X17560000Y25755000D01*
X17560000Y24295000D01*
X17560000Y24295000D01*
G37*
G36*
X12645000Y24655000D02*
G01*
X11625000Y24655000D01*
X11625000Y26585000D01*
X12645000Y26585000D01*
X12645000Y24655000D01*
X12645000Y24655000D01*
G37*
G36*
X13915000Y24655000D02*
G01*
X12895000Y24655000D01*
X12895000Y26585000D01*
X13915000Y26585000D01*
X13915000Y24655000D01*
X13915000Y24655000D01*
G37*
G36*
X11375000Y24655000D02*
G01*
X10355000Y24655000D01*
X10355000Y26585000D01*
X11375000Y26585000D01*
X11375000Y24655000D01*
X11375000Y24655000D01*
G37*
G36*
X10105000Y24655000D02*
G01*
X9085000Y24655000D01*
X9085000Y26585000D01*
X10105000Y26585000D01*
X10105000Y24655000D01*
X10105000Y24655000D01*
G37*
G36*
X24060000Y24745000D02*
G01*
X21940000Y24745000D01*
X21940000Y26205000D01*
X24060000Y26205000D01*
X24060000Y24745000D01*
X24060000Y24745000D01*
G37*
G36*
X32887417Y26200290D02*
G01*
X32927502Y26188130D01*
X32964438Y26168388D01*
X32996816Y26141816D01*
X33023388Y26109438D01*
X33043130Y26072502D01*
X33055290Y26032417D01*
X33060000Y25984596D01*
X33060000Y24965404D01*
X33055290Y24917583D01*
X33043130Y24877498D01*
X33023388Y24840562D01*
X32996816Y24808184D01*
X32964438Y24781612D01*
X32927502Y24761870D01*
X32887417Y24749710D01*
X32839596Y24745000D01*
X31160404Y24745000D01*
X31112583Y24749710D01*
X31072498Y24761870D01*
X31035562Y24781612D01*
X31003184Y24808184D01*
X30976612Y24840562D01*
X30956870Y24877498D01*
X30944710Y24917583D01*
X30940000Y24965404D01*
X30940000Y25984596D01*
X30944710Y26032417D01*
X30956870Y26072502D01*
X30976612Y26109438D01*
X31003184Y26141816D01*
X31035562Y26168388D01*
X31072498Y26188130D01*
X31112583Y26200290D01*
X31160404Y26205000D01*
X32839596Y26205000D01*
X32887417Y26200290D01*
X32887417Y26200290D01*
G37*
G36*
X36837417Y26200290D02*
G01*
X36877502Y26188130D01*
X36914438Y26168388D01*
X36946816Y26141816D01*
X36973388Y26109438D01*
X36993130Y26072502D01*
X37005290Y26032417D01*
X37010000Y25984596D01*
X37010000Y24965404D01*
X37005290Y24917583D01*
X36993130Y24877498D01*
X36973388Y24840562D01*
X36946816Y24808184D01*
X36914438Y24781612D01*
X36877502Y24761870D01*
X36837417Y24749710D01*
X36789596Y24745000D01*
X34210404Y24745000D01*
X34162583Y24749710D01*
X34122498Y24761870D01*
X34085562Y24781612D01*
X34053184Y24808184D01*
X34026612Y24840562D01*
X34006870Y24877498D01*
X33994710Y24917583D01*
X33990000Y24965404D01*
X33990000Y25984596D01*
X33994710Y26032417D01*
X34006870Y26072502D01*
X34026612Y26109438D01*
X34053184Y26141816D01*
X34085562Y26168388D01*
X34122498Y26188130D01*
X34162583Y26200290D01*
X34210404Y26205000D01*
X36789596Y26205000D01*
X36837417Y26200290D01*
X36837417Y26200290D01*
G37*
G36*
X61560000Y24795000D02*
G01*
X59440000Y24795000D01*
X59440000Y26255000D01*
X61560000Y26255000D01*
X61560000Y24795000D01*
X61560000Y24795000D01*
G37*
G36*
X53060000Y24795000D02*
G01*
X50940000Y24795000D01*
X50940000Y26255000D01*
X53060000Y26255000D01*
X53060000Y24795000D01*
X53060000Y24795000D01*
G37*
G36*
X44255000Y26140000D02*
G01*
X42795000Y26140000D01*
X42795000Y28260000D01*
X44255000Y28260000D01*
X44255000Y26140000D01*
X44255000Y26140000D01*
G37*
G36*
X41205000Y26140000D02*
G01*
X39745000Y26140000D01*
X39745000Y28260000D01*
X41205000Y28260000D01*
X41205000Y26140000D01*
X41205000Y26140000D01*
G37*
G36*
X29711784Y29061349D02*
G01*
X29741527Y29052327D01*
X29768936Y29037676D01*
X29792960Y29017960D01*
X29812676Y28993936D01*
X29827327Y28966527D01*
X29836349Y28936784D01*
X29840000Y28899715D01*
X29840000Y27250285D01*
X29836349Y27213216D01*
X29827327Y27183473D01*
X29812676Y27156064D01*
X29792960Y27132040D01*
X29768936Y27112324D01*
X29741527Y27097673D01*
X29711784Y27088651D01*
X29674715Y27085000D01*
X29135285Y27085000D01*
X29098216Y27088651D01*
X29068473Y27097673D01*
X29041064Y27112324D01*
X29017040Y27132040D01*
X28997324Y27156064D01*
X28982673Y27183473D01*
X28973651Y27213216D01*
X28970000Y27250285D01*
X28970000Y28899715D01*
X28973651Y28936784D01*
X28982673Y28966527D01*
X28997324Y28993936D01*
X29017040Y29017960D01*
X29041064Y29037676D01*
X29068473Y29052327D01*
X29098216Y29061349D01*
X29135285Y29065000D01*
X29674715Y29065000D01*
X29711784Y29061349D01*
X29711784Y29061349D01*
G37*
G36*
X28441784Y29061349D02*
G01*
X28471527Y29052327D01*
X28498936Y29037676D01*
X28522960Y29017960D01*
X28542676Y28993936D01*
X28557327Y28966527D01*
X28566349Y28936784D01*
X28570000Y28899715D01*
X28570000Y27250285D01*
X28566349Y27213216D01*
X28557327Y27183473D01*
X28542676Y27156064D01*
X28522960Y27132040D01*
X28498936Y27112324D01*
X28471527Y27097673D01*
X28441784Y27088651D01*
X28404715Y27085000D01*
X27865285Y27085000D01*
X27828216Y27088651D01*
X27798473Y27097673D01*
X27771064Y27112324D01*
X27747040Y27132040D01*
X27727324Y27156064D01*
X27712673Y27183473D01*
X27703651Y27213216D01*
X27700000Y27250285D01*
X27700000Y28899715D01*
X27703651Y28936784D01*
X27712673Y28966527D01*
X27727324Y28993936D01*
X27747040Y29017960D01*
X27771064Y29037676D01*
X27798473Y29052327D01*
X27828216Y29061349D01*
X27865285Y29065000D01*
X28404715Y29065000D01*
X28441784Y29061349D01*
X28441784Y29061349D01*
G37*
G36*
X27171784Y29061349D02*
G01*
X27201527Y29052327D01*
X27228936Y29037676D01*
X27252960Y29017960D01*
X27272676Y28993936D01*
X27287327Y28966527D01*
X27296349Y28936784D01*
X27300000Y28899715D01*
X27300000Y27250285D01*
X27296349Y27213216D01*
X27287327Y27183473D01*
X27272676Y27156064D01*
X27252960Y27132040D01*
X27228936Y27112324D01*
X27201527Y27097673D01*
X27171784Y27088651D01*
X27134715Y27085000D01*
X26595285Y27085000D01*
X26558216Y27088651D01*
X26528473Y27097673D01*
X26501064Y27112324D01*
X26477040Y27132040D01*
X26457324Y27156064D01*
X26442673Y27183473D01*
X26433651Y27213216D01*
X26430000Y27250285D01*
X26430000Y28899715D01*
X26433651Y28936784D01*
X26442673Y28966527D01*
X26457324Y28993936D01*
X26477040Y29017960D01*
X26501064Y29037676D01*
X26528473Y29052327D01*
X26558216Y29061349D01*
X26595285Y29065000D01*
X27134715Y29065000D01*
X27171784Y29061349D01*
X27171784Y29061349D01*
G37*
G36*
X25901784Y29061349D02*
G01*
X25931527Y29052327D01*
X25958936Y29037676D01*
X25982960Y29017960D01*
X26002676Y28993936D01*
X26017327Y28966527D01*
X26026349Y28936784D01*
X26030000Y28899715D01*
X26030000Y27250285D01*
X26026349Y27213216D01*
X26017327Y27183473D01*
X26002676Y27156064D01*
X25982960Y27132040D01*
X25958936Y27112324D01*
X25931527Y27097673D01*
X25901784Y27088651D01*
X25864715Y27085000D01*
X25325285Y27085000D01*
X25288216Y27088651D01*
X25258473Y27097673D01*
X25231064Y27112324D01*
X25207040Y27132040D01*
X25187324Y27156064D01*
X25172673Y27183473D01*
X25163651Y27213216D01*
X25160000Y27250285D01*
X25160000Y28899715D01*
X25163651Y28936784D01*
X25172673Y28966527D01*
X25187324Y28993936D01*
X25207040Y29017960D01*
X25231064Y29037676D01*
X25258473Y29052327D01*
X25288216Y29061349D01*
X25325285Y29065000D01*
X25864715Y29065000D01*
X25901784Y29061349D01*
X25901784Y29061349D01*
G37*
G36*
X24060000Y27795000D02*
G01*
X21940000Y27795000D01*
X21940000Y29255000D01*
X24060000Y29255000D01*
X24060000Y27795000D01*
X24060000Y27795000D01*
G37*
G36*
X36837417Y29250290D02*
G01*
X36877502Y29238130D01*
X36914438Y29218388D01*
X36946816Y29191816D01*
X36973388Y29159438D01*
X36993130Y29122502D01*
X37005290Y29082417D01*
X37010000Y29034596D01*
X37010000Y28015404D01*
X37005290Y27967583D01*
X36993130Y27927498D01*
X36973388Y27890562D01*
X36946816Y27858184D01*
X36914438Y27831612D01*
X36877502Y27811870D01*
X36837417Y27799710D01*
X36789596Y27795000D01*
X34210404Y27795000D01*
X34162583Y27799710D01*
X34122498Y27811870D01*
X34085562Y27831612D01*
X34053184Y27858184D01*
X34026612Y27890562D01*
X34006870Y27927498D01*
X33994710Y27967583D01*
X33990000Y28015404D01*
X33990000Y29034596D01*
X33994710Y29082417D01*
X34006870Y29122502D01*
X34026612Y29159438D01*
X34053184Y29191816D01*
X34085562Y29218388D01*
X34122498Y29238130D01*
X34162583Y29250290D01*
X34210404Y29255000D01*
X36789596Y29255000D01*
X36837417Y29250290D01*
X36837417Y29250290D01*
G37*
G36*
X32887417Y29250290D02*
G01*
X32927502Y29238130D01*
X32964438Y29218388D01*
X32996816Y29191816D01*
X33023388Y29159438D01*
X33043130Y29122502D01*
X33055290Y29082417D01*
X33060000Y29034596D01*
X33060000Y28015404D01*
X33055290Y27967583D01*
X33043130Y27927498D01*
X33023388Y27890562D01*
X32996816Y27858184D01*
X32964438Y27831612D01*
X32927502Y27811870D01*
X32887417Y27799710D01*
X32839596Y27795000D01*
X31160404Y27795000D01*
X31112583Y27799710D01*
X31072498Y27811870D01*
X31035562Y27831612D01*
X31003184Y27858184D01*
X30976612Y27890562D01*
X30956870Y27927498D01*
X30944710Y27967583D01*
X30940000Y28015404D01*
X30940000Y29034596D01*
X30944710Y29082417D01*
X30956870Y29122502D01*
X30976612Y29159438D01*
X31003184Y29191816D01*
X31035562Y29218388D01*
X31072498Y29238130D01*
X31112583Y29250290D01*
X31160404Y29255000D01*
X32839596Y29255000D01*
X32887417Y29250290D01*
X32887417Y29250290D01*
G37*
G36*
X61560000Y28245000D02*
G01*
X59440000Y28245000D01*
X59440000Y29705000D01*
X61560000Y29705000D01*
X61560000Y28245000D01*
X61560000Y28245000D01*
G37*
G36*
X53060000Y28245000D02*
G01*
X50940000Y28245000D01*
X50940000Y29705000D01*
X53060000Y29705000D01*
X53060000Y28245000D01*
X53060000Y28245000D01*
G37*
G36*
X23887417Y31700290D02*
G01*
X23927502Y31688130D01*
X23964438Y31668388D01*
X23996816Y31641816D01*
X24023388Y31609438D01*
X24043130Y31572502D01*
X24055290Y31532417D01*
X24060000Y31484596D01*
X24060000Y30465404D01*
X24055290Y30417583D01*
X24043130Y30377498D01*
X24023388Y30340562D01*
X23996816Y30308184D01*
X23964438Y30281612D01*
X23927502Y30261870D01*
X23887417Y30249710D01*
X23839596Y30245000D01*
X22160404Y30245000D01*
X22112583Y30249710D01*
X22072498Y30261870D01*
X22035562Y30281612D01*
X22003184Y30308184D01*
X21976612Y30340562D01*
X21956870Y30377498D01*
X21944710Y30417583D01*
X21940000Y30465404D01*
X21940000Y31484596D01*
X21944710Y31532417D01*
X21956870Y31572502D01*
X21976612Y31609438D01*
X22003184Y31641816D01*
X22035562Y31668388D01*
X22072498Y31688130D01*
X22112583Y31700290D01*
X22160404Y31705000D01*
X23839596Y31705000D01*
X23887417Y31700290D01*
X23887417Y31700290D01*
G37*
G36*
X5915000Y31065000D02*
G01*
X1085000Y31065000D01*
X1085000Y35935000D01*
X5915000Y35935000D01*
X5915000Y31065000D01*
X5915000Y31065000D01*
G37*
G36*
X53060000Y31295000D02*
G01*
X50940000Y31295000D01*
X50940000Y32755000D01*
X53060000Y32755000D01*
X53060000Y31295000D01*
X53060000Y31295000D01*
G37*
G36*
X61560000Y31295000D02*
G01*
X59440000Y31295000D01*
X59440000Y32755000D01*
X61560000Y32755000D01*
X61560000Y31295000D01*
X61560000Y31295000D01*
G37*
G36*
X43685336Y33561746D02*
G01*
X43777105Y33543492D01*
X43949994Y33471879D01*
X44105590Y33367913D01*
X44237913Y33235590D01*
X44341879Y33079994D01*
X44413492Y32907105D01*
X44413492Y32907104D01*
X44449043Y32728381D01*
X44450000Y32723567D01*
X44450000Y32536433D01*
X44413492Y32352895D01*
X44341879Y32180006D01*
X44237913Y32024410D01*
X44105590Y31892087D01*
X43949994Y31788121D01*
X43777105Y31716508D01*
X43719250Y31705000D01*
X43593568Y31680000D01*
X43406432Y31680000D01*
X43280750Y31705000D01*
X43222895Y31716508D01*
X43050006Y31788121D01*
X42894410Y31892087D01*
X42762087Y32024410D01*
X42658121Y32180006D01*
X42586508Y32352895D01*
X42550000Y32536433D01*
X42550000Y32723567D01*
X42550958Y32728381D01*
X42586508Y32907104D01*
X42586508Y32907105D01*
X42658121Y33079994D01*
X42762087Y33235590D01*
X42894410Y33367913D01*
X43050006Y33471879D01*
X43222895Y33543492D01*
X43314664Y33561746D01*
X43406432Y33580000D01*
X43593568Y33580000D01*
X43685336Y33561746D01*
X43685336Y33561746D01*
G37*
G36*
X19990024Y32822224D02*
G01*
X20019452Y32813297D01*
X20046581Y32798796D01*
X20070356Y32779285D01*
X20089867Y32755510D01*
X20104368Y32728381D01*
X20113295Y32698953D01*
X20116914Y32662203D01*
X20116914Y32109483D01*
X20113295Y32072733D01*
X20104368Y32043305D01*
X20089867Y32016176D01*
X20070356Y31992401D01*
X20046581Y31972890D01*
X20019452Y31958389D01*
X19990024Y31949462D01*
X19953274Y31945843D01*
X17910554Y31945843D01*
X17873804Y31949462D01*
X17844376Y31958389D01*
X17817247Y31972890D01*
X17793472Y31992401D01*
X17773961Y32016176D01*
X17759460Y32043305D01*
X17750533Y32072733D01*
X17746914Y32109483D01*
X17746914Y32662203D01*
X17750533Y32698953D01*
X17759460Y32728381D01*
X17773961Y32755510D01*
X17793472Y32779285D01*
X17817247Y32798796D01*
X17844376Y32813297D01*
X17873804Y32822224D01*
X17910554Y32825843D01*
X19953274Y32825843D01*
X19990024Y32822224D01*
X19990024Y32822224D01*
G37*
G36*
X15140024Y32822224D02*
G01*
X15169452Y32813297D01*
X15196581Y32798796D01*
X15220356Y32779285D01*
X15239867Y32755510D01*
X15254368Y32728381D01*
X15263295Y32698953D01*
X15266914Y32662203D01*
X15266914Y32109483D01*
X15263295Y32072733D01*
X15254368Y32043305D01*
X15239867Y32016176D01*
X15220356Y31992401D01*
X15196581Y31972890D01*
X15169452Y31958389D01*
X15140024Y31949462D01*
X15103274Y31945843D01*
X13060554Y31945843D01*
X13023804Y31949462D01*
X12994376Y31958389D01*
X12967247Y31972890D01*
X12943472Y31992401D01*
X12923961Y32016176D01*
X12909460Y32043305D01*
X12900533Y32072733D01*
X12896914Y32109483D01*
X12896914Y32662203D01*
X12900533Y32698953D01*
X12909460Y32728381D01*
X12923961Y32755510D01*
X12943472Y32779285D01*
X12967247Y32798796D01*
X12994376Y32813297D01*
X13023804Y32822224D01*
X13060554Y32825843D01*
X15103274Y32825843D01*
X15140024Y32822224D01*
X15140024Y32822224D01*
G37*
G36*
X34727789Y40801373D02*
G01*
X34757296Y40792422D01*
X34784491Y40777886D01*
X34808326Y40758326D01*
X34827886Y40734491D01*
X34842422Y40707296D01*
X34851373Y40677789D01*
X34855000Y40640962D01*
X34855000Y32359038D01*
X34851373Y32322211D01*
X34842422Y32292704D01*
X34827886Y32265509D01*
X34808326Y32241674D01*
X34784491Y32222114D01*
X34757296Y32207578D01*
X34727789Y32198627D01*
X34690962Y32195000D01*
X31399038Y32195000D01*
X31362211Y32198627D01*
X31332704Y32207578D01*
X31305509Y32222114D01*
X31281674Y32241674D01*
X31262114Y32265509D01*
X31247578Y32292704D01*
X31238627Y32322211D01*
X31235000Y32359038D01*
X31235000Y40640962D01*
X31238627Y40677789D01*
X31247578Y40707296D01*
X31262114Y40734491D01*
X31281674Y40758326D01*
X31305509Y40777886D01*
X31332704Y40792422D01*
X31362211Y40801373D01*
X31399038Y40805000D01*
X34690962Y40805000D01*
X34727789Y40801373D01*
X34727789Y40801373D01*
G37*
G36*
X28637789Y40801373D02*
G01*
X28667296Y40792422D01*
X28694491Y40777886D01*
X28718326Y40758326D01*
X28737886Y40734491D01*
X28752422Y40707296D01*
X28761373Y40677789D01*
X28765000Y40640962D01*
X28765000Y32359038D01*
X28761373Y32322211D01*
X28752422Y32292704D01*
X28737886Y32265509D01*
X28718326Y32241674D01*
X28694491Y32222114D01*
X28667296Y32207578D01*
X28637789Y32198627D01*
X28600962Y32195000D01*
X25309038Y32195000D01*
X25272211Y32198627D01*
X25242704Y32207578D01*
X25215509Y32222114D01*
X25191674Y32241674D01*
X25172114Y32265509D01*
X25157578Y32292704D01*
X25148627Y32322211D01*
X25145000Y32359038D01*
X25145000Y40640962D01*
X25148627Y40677789D01*
X25157578Y40707296D01*
X25172114Y40734491D01*
X25191674Y40758326D01*
X25215509Y40777886D01*
X25242704Y40792422D01*
X25272211Y40801373D01*
X25309038Y40805000D01*
X28600962Y40805000D01*
X28637789Y40801373D01*
X28637789Y40801373D01*
G37*
G36*
X15140024Y34092224D02*
G01*
X15169452Y34083297D01*
X15196581Y34068796D01*
X15220356Y34049285D01*
X15239867Y34025510D01*
X15254368Y33998381D01*
X15263295Y33968953D01*
X15266914Y33932203D01*
X15266914Y33379483D01*
X15263295Y33342733D01*
X15254368Y33313305D01*
X15239867Y33286176D01*
X15220356Y33262401D01*
X15196581Y33242890D01*
X15169452Y33228389D01*
X15140024Y33219462D01*
X15103274Y33215843D01*
X13060554Y33215843D01*
X13023804Y33219462D01*
X12994376Y33228389D01*
X12967247Y33242890D01*
X12943472Y33262401D01*
X12923961Y33286176D01*
X12909460Y33313305D01*
X12900533Y33342733D01*
X12896914Y33379483D01*
X12896914Y33932203D01*
X12900533Y33968953D01*
X12909460Y33998381D01*
X12923961Y34025510D01*
X12943472Y34049285D01*
X12967247Y34068796D01*
X12994376Y34083297D01*
X13023804Y34092224D01*
X13060554Y34095843D01*
X15103274Y34095843D01*
X15140024Y34092224D01*
X15140024Y34092224D01*
G37*
G36*
X19990024Y34092224D02*
G01*
X20019452Y34083297D01*
X20046581Y34068796D01*
X20070356Y34049285D01*
X20089867Y34025510D01*
X20104368Y33998381D01*
X20113295Y33968953D01*
X20116914Y33932203D01*
X20116914Y33379483D01*
X20113295Y33342733D01*
X20104368Y33313305D01*
X20089867Y33286176D01*
X20070356Y33262401D01*
X20046581Y33242890D01*
X20019452Y33228389D01*
X19990024Y33219462D01*
X19953274Y33215843D01*
X17910554Y33215843D01*
X17873804Y33219462D01*
X17844376Y33228389D01*
X17817247Y33242890D01*
X17793472Y33262401D01*
X17773961Y33286176D01*
X17759460Y33313305D01*
X17750533Y33342733D01*
X17746914Y33379483D01*
X17746914Y33932203D01*
X17750533Y33968953D01*
X17759460Y33998381D01*
X17773961Y34025510D01*
X17793472Y34049285D01*
X17817247Y34068796D01*
X17844376Y34083297D01*
X17873804Y34092224D01*
X17910554Y34095843D01*
X19953274Y34095843D01*
X19990024Y34092224D01*
X19990024Y34092224D01*
G37*
G36*
X23887417Y34750290D02*
G01*
X23927502Y34738130D01*
X23964438Y34718388D01*
X23996816Y34691816D01*
X24023388Y34659438D01*
X24043130Y34622502D01*
X24055290Y34582417D01*
X24060000Y34534596D01*
X24060000Y33515404D01*
X24055290Y33467583D01*
X24043130Y33427498D01*
X24023388Y33390562D01*
X23996816Y33358184D01*
X23964438Y33331612D01*
X23927502Y33311870D01*
X23887417Y33299710D01*
X23839596Y33295000D01*
X22160404Y33295000D01*
X22112583Y33299710D01*
X22072498Y33311870D01*
X22035562Y33331612D01*
X22003184Y33358184D01*
X21976612Y33390562D01*
X21956870Y33427498D01*
X21944710Y33467583D01*
X21940000Y33515404D01*
X21940000Y34534596D01*
X21944710Y34582417D01*
X21956870Y34622502D01*
X21976612Y34659438D01*
X22003184Y34691816D01*
X22035562Y34718388D01*
X22072498Y34738130D01*
X22112583Y34750290D01*
X22160404Y34755000D01*
X23839596Y34755000D01*
X23887417Y34750290D01*
X23887417Y34750290D01*
G37*
G36*
X44315000Y34220000D02*
G01*
X42685000Y34220000D01*
X42685000Y36120000D01*
X44315000Y36120000D01*
X44315000Y34220000D01*
X44315000Y34220000D01*
G37*
G36*
X15140024Y35362224D02*
G01*
X15169452Y35353297D01*
X15196581Y35338796D01*
X15220356Y35319285D01*
X15239867Y35295510D01*
X15254368Y35268381D01*
X15263295Y35238953D01*
X15266914Y35202203D01*
X15266914Y34649483D01*
X15263295Y34612733D01*
X15254368Y34583305D01*
X15239867Y34556176D01*
X15220356Y34532401D01*
X15196581Y34512890D01*
X15169452Y34498389D01*
X15140024Y34489462D01*
X15103274Y34485843D01*
X13060554Y34485843D01*
X13023804Y34489462D01*
X12994376Y34498389D01*
X12967247Y34512890D01*
X12943472Y34532401D01*
X12923961Y34556176D01*
X12909460Y34583305D01*
X12900533Y34612733D01*
X12896914Y34649483D01*
X12896914Y35202203D01*
X12900533Y35238953D01*
X12909460Y35268381D01*
X12923961Y35295510D01*
X12943472Y35319285D01*
X12967247Y35338796D01*
X12994376Y35353297D01*
X13023804Y35362224D01*
X13060554Y35365843D01*
X15103274Y35365843D01*
X15140024Y35362224D01*
X15140024Y35362224D01*
G37*
G36*
X19990024Y35362224D02*
G01*
X20019452Y35353297D01*
X20046581Y35338796D01*
X20070356Y35319285D01*
X20089867Y35295510D01*
X20104368Y35268381D01*
X20113295Y35238953D01*
X20116914Y35202203D01*
X20116914Y34649483D01*
X20113295Y34612733D01*
X20104368Y34583305D01*
X20089867Y34556176D01*
X20070356Y34532401D01*
X20046581Y34512890D01*
X20019452Y34498389D01*
X19990024Y34489462D01*
X19953274Y34485843D01*
X17910554Y34485843D01*
X17873804Y34489462D01*
X17844376Y34498389D01*
X17817247Y34512890D01*
X17793472Y34532401D01*
X17773961Y34556176D01*
X17759460Y34583305D01*
X17750533Y34612733D01*
X17746914Y34649483D01*
X17746914Y35202203D01*
X17750533Y35238953D01*
X17759460Y35268381D01*
X17773961Y35295510D01*
X17793472Y35319285D01*
X17817247Y35338796D01*
X17844376Y35353297D01*
X17873804Y35362224D01*
X17910554Y35365843D01*
X19953274Y35365843D01*
X19990024Y35362224D01*
X19990024Y35362224D01*
G37*
G36*
X19990024Y36632224D02*
G01*
X20019452Y36623297D01*
X20046581Y36608796D01*
X20070356Y36589285D01*
X20089867Y36565510D01*
X20104368Y36538381D01*
X20113295Y36508953D01*
X20116914Y36472203D01*
X20116914Y35919483D01*
X20113295Y35882733D01*
X20104368Y35853305D01*
X20089867Y35826176D01*
X20070356Y35802401D01*
X20046581Y35782890D01*
X20019452Y35768389D01*
X19990024Y35759462D01*
X19953274Y35755843D01*
X17910554Y35755843D01*
X17873804Y35759462D01*
X17844376Y35768389D01*
X17817247Y35782890D01*
X17793472Y35802401D01*
X17773961Y35826176D01*
X17759460Y35853305D01*
X17750533Y35882733D01*
X17746914Y35919483D01*
X17746914Y36472203D01*
X17750533Y36508953D01*
X17759460Y36538381D01*
X17773961Y36565510D01*
X17793472Y36589285D01*
X17817247Y36608796D01*
X17844376Y36623297D01*
X17873804Y36632224D01*
X17910554Y36635843D01*
X19953274Y36635843D01*
X19990024Y36632224D01*
X19990024Y36632224D01*
G37*
G36*
X15140024Y36632224D02*
G01*
X15169452Y36623297D01*
X15196581Y36608796D01*
X15220356Y36589285D01*
X15239867Y36565510D01*
X15254368Y36538381D01*
X15263295Y36508953D01*
X15266914Y36472203D01*
X15266914Y35919483D01*
X15263295Y35882733D01*
X15254368Y35853305D01*
X15239867Y35826176D01*
X15220356Y35802401D01*
X15196581Y35782890D01*
X15169452Y35768389D01*
X15140024Y35759462D01*
X15103274Y35755843D01*
X13060554Y35755843D01*
X13023804Y35759462D01*
X12994376Y35768389D01*
X12967247Y35782890D01*
X12943472Y35802401D01*
X12923961Y35826176D01*
X12909460Y35853305D01*
X12900533Y35882733D01*
X12896914Y35919483D01*
X12896914Y36472203D01*
X12900533Y36508953D01*
X12909460Y36538381D01*
X12923961Y36565510D01*
X12943472Y36589285D01*
X12967247Y36608796D01*
X12994376Y36623297D01*
X13023804Y36632224D01*
X13060554Y36635843D01*
X15103274Y36635843D01*
X15140024Y36632224D01*
X15140024Y36632224D01*
G37*
G36*
X53175000Y36110000D02*
G01*
X50825000Y36110000D01*
X50825000Y38470000D01*
X53175000Y38470000D01*
X53175000Y36110000D01*
X53175000Y36110000D01*
G37*
G36*
X61675000Y36110000D02*
G01*
X59325000Y36110000D01*
X59325000Y38470000D01*
X61675000Y38470000D01*
X61675000Y36110000D01*
X61675000Y36110000D01*
G37*
G36*
X19990024Y37902224D02*
G01*
X20019452Y37893297D01*
X20046581Y37878796D01*
X20070356Y37859285D01*
X20089867Y37835510D01*
X20104368Y37808381D01*
X20113295Y37778953D01*
X20116914Y37742203D01*
X20116914Y37189483D01*
X20113295Y37152733D01*
X20104368Y37123305D01*
X20089867Y37096176D01*
X20070356Y37072401D01*
X20046581Y37052890D01*
X20019452Y37038389D01*
X19990024Y37029462D01*
X19953274Y37025843D01*
X17910554Y37025843D01*
X17873804Y37029462D01*
X17844376Y37038389D01*
X17817247Y37052890D01*
X17793472Y37072401D01*
X17773961Y37096176D01*
X17759460Y37123305D01*
X17750533Y37152733D01*
X17746914Y37189483D01*
X17746914Y37742203D01*
X17750533Y37778953D01*
X17759460Y37808381D01*
X17773961Y37835510D01*
X17793472Y37859285D01*
X17817247Y37878796D01*
X17844376Y37893297D01*
X17873804Y37902224D01*
X17910554Y37905843D01*
X19953274Y37905843D01*
X19990024Y37902224D01*
X19990024Y37902224D01*
G37*
G36*
X15140024Y37902224D02*
G01*
X15169452Y37893297D01*
X15196581Y37878796D01*
X15220356Y37859285D01*
X15239867Y37835510D01*
X15254368Y37808381D01*
X15263295Y37778953D01*
X15266914Y37742203D01*
X15266914Y37189483D01*
X15263295Y37152733D01*
X15254368Y37123305D01*
X15239867Y37096176D01*
X15220356Y37072401D01*
X15196581Y37052890D01*
X15169452Y37038389D01*
X15140024Y37029462D01*
X15103274Y37025843D01*
X13060554Y37025843D01*
X13023804Y37029462D01*
X12994376Y37038389D01*
X12967247Y37052890D01*
X12943472Y37072401D01*
X12923961Y37096176D01*
X12909460Y37123305D01*
X12900533Y37152733D01*
X12896914Y37189483D01*
X12896914Y37742203D01*
X12900533Y37778953D01*
X12909460Y37808381D01*
X12923961Y37835510D01*
X12943472Y37859285D01*
X12967247Y37878796D01*
X12994376Y37893297D01*
X13023804Y37902224D01*
X13060554Y37905843D01*
X15103274Y37905843D01*
X15140024Y37902224D01*
X15140024Y37902224D01*
G37*
G36*
X43975000Y37540000D02*
G01*
X42425000Y37540000D01*
X42425000Y38360000D01*
X43975000Y38360000D01*
X43975000Y37540000D01*
X43975000Y37540000D01*
G37*
G36*
X5915000Y38065000D02*
G01*
X1085000Y38065000D01*
X1085000Y42935000D01*
X5915000Y42935000D01*
X5915000Y38065000D01*
X5915000Y38065000D01*
G37*
G36*
X19990024Y39172224D02*
G01*
X20019452Y39163297D01*
X20046581Y39148796D01*
X20070356Y39129285D01*
X20089867Y39105510D01*
X20104368Y39078381D01*
X20113295Y39048953D01*
X20116914Y39012203D01*
X20116914Y38459483D01*
X20113295Y38422733D01*
X20104368Y38393305D01*
X20089867Y38366176D01*
X20070356Y38342401D01*
X20046581Y38322890D01*
X20019452Y38308389D01*
X19990024Y38299462D01*
X19953274Y38295843D01*
X17910554Y38295843D01*
X17873804Y38299462D01*
X17844376Y38308389D01*
X17817247Y38322890D01*
X17793472Y38342401D01*
X17773961Y38366176D01*
X17759460Y38393305D01*
X17750533Y38422733D01*
X17746914Y38459483D01*
X17746914Y39012203D01*
X17750533Y39048953D01*
X17759460Y39078381D01*
X17773961Y39105510D01*
X17793472Y39129285D01*
X17817247Y39148796D01*
X17844376Y39163297D01*
X17873804Y39172224D01*
X17910554Y39175843D01*
X19953274Y39175843D01*
X19990024Y39172224D01*
X19990024Y39172224D01*
G37*
G36*
X15140024Y39172224D02*
G01*
X15169452Y39163297D01*
X15196581Y39148796D01*
X15220356Y39129285D01*
X15239867Y39105510D01*
X15254368Y39078381D01*
X15263295Y39048953D01*
X15266914Y39012203D01*
X15266914Y38459483D01*
X15263295Y38422733D01*
X15254368Y38393305D01*
X15239867Y38366176D01*
X15220356Y38342401D01*
X15196581Y38322890D01*
X15169452Y38308389D01*
X15140024Y38299462D01*
X15103274Y38295843D01*
X13060554Y38295843D01*
X13023804Y38299462D01*
X12994376Y38308389D01*
X12967247Y38322890D01*
X12943472Y38342401D01*
X12923961Y38366176D01*
X12909460Y38393305D01*
X12900533Y38422733D01*
X12896914Y38459483D01*
X12896914Y39012203D01*
X12900533Y39048953D01*
X12909460Y39078381D01*
X12923961Y39105510D01*
X12943472Y39129285D01*
X12967247Y39148796D01*
X12994376Y39163297D01*
X13023804Y39172224D01*
X13060554Y39175843D01*
X15103274Y39175843D01*
X15140024Y39172224D01*
X15140024Y39172224D01*
G37*
G36*
X41975000Y38490000D02*
G01*
X40425000Y38490000D01*
X40425000Y39310000D01*
X41975000Y39310000D01*
X41975000Y38490000D01*
X41975000Y38490000D01*
G37*
G36*
X43975000Y39440000D02*
G01*
X42425000Y39440000D01*
X42425000Y40260000D01*
X43975000Y40260000D01*
X43975000Y39440000D01*
X43975000Y39440000D01*
G37*
G36*
X19990024Y40442224D02*
G01*
X20019452Y40433297D01*
X20046581Y40418796D01*
X20070356Y40399285D01*
X20089867Y40375510D01*
X20104368Y40348381D01*
X20113295Y40318953D01*
X20116914Y40282203D01*
X20116914Y39729483D01*
X20113295Y39692733D01*
X20104368Y39663305D01*
X20089867Y39636176D01*
X20070356Y39612401D01*
X20046581Y39592890D01*
X20019452Y39578389D01*
X19990024Y39569462D01*
X19953274Y39565843D01*
X17910554Y39565843D01*
X17873804Y39569462D01*
X17844376Y39578389D01*
X17817247Y39592890D01*
X17793472Y39612401D01*
X17773961Y39636176D01*
X17759460Y39663305D01*
X17750533Y39692733D01*
X17746914Y39729483D01*
X17746914Y40282203D01*
X17750533Y40318953D01*
X17759460Y40348381D01*
X17773961Y40375510D01*
X17793472Y40399285D01*
X17817247Y40418796D01*
X17844376Y40433297D01*
X17873804Y40442224D01*
X17910554Y40445843D01*
X19953274Y40445843D01*
X19990024Y40442224D01*
X19990024Y40442224D01*
G37*
G36*
X15140024Y40442224D02*
G01*
X15169452Y40433297D01*
X15196581Y40418796D01*
X15220356Y40399285D01*
X15239867Y40375510D01*
X15254368Y40348381D01*
X15263295Y40318953D01*
X15266914Y40282203D01*
X15266914Y39729483D01*
X15263295Y39692733D01*
X15254368Y39663305D01*
X15239867Y39636176D01*
X15220356Y39612401D01*
X15196581Y39592890D01*
X15169452Y39578389D01*
X15140024Y39569462D01*
X15103274Y39565843D01*
X13060554Y39565843D01*
X13023804Y39569462D01*
X12994376Y39578389D01*
X12967247Y39592890D01*
X12943472Y39612401D01*
X12923961Y39636176D01*
X12909460Y39663305D01*
X12900533Y39692733D01*
X12896914Y39729483D01*
X12896914Y40282203D01*
X12900533Y40318953D01*
X12909460Y40348381D01*
X12923961Y40375510D01*
X12943472Y40399285D01*
X12967247Y40418796D01*
X12994376Y40433297D01*
X13023804Y40442224D01*
X13060554Y40445843D01*
X15103274Y40445843D01*
X15140024Y40442224D01*
X15140024Y40442224D01*
G37*
G36*
X19990024Y41712224D02*
G01*
X20019452Y41703297D01*
X20046581Y41688796D01*
X20070356Y41669285D01*
X20089867Y41645510D01*
X20104368Y41618381D01*
X20113295Y41588953D01*
X20116914Y41552203D01*
X20116914Y40999483D01*
X20113295Y40962733D01*
X20104368Y40933305D01*
X20089867Y40906176D01*
X20070356Y40882401D01*
X20046581Y40862890D01*
X20019452Y40848389D01*
X19990024Y40839462D01*
X19953274Y40835843D01*
X17910554Y40835843D01*
X17873804Y40839462D01*
X17844376Y40848389D01*
X17817247Y40862890D01*
X17793472Y40882401D01*
X17773961Y40906176D01*
X17759460Y40933305D01*
X17750533Y40962733D01*
X17746914Y40999483D01*
X17746914Y41552203D01*
X17750533Y41588953D01*
X17759460Y41618381D01*
X17773961Y41645510D01*
X17793472Y41669285D01*
X17817247Y41688796D01*
X17844376Y41703297D01*
X17873804Y41712224D01*
X17910554Y41715843D01*
X19953274Y41715843D01*
X19990024Y41712224D01*
X19990024Y41712224D01*
G37*
G36*
X15140024Y41712224D02*
G01*
X15169452Y41703297D01*
X15196581Y41688796D01*
X15220356Y41669285D01*
X15239867Y41645510D01*
X15254368Y41618381D01*
X15263295Y41588953D01*
X15266914Y41552203D01*
X15266914Y40999483D01*
X15263295Y40962733D01*
X15254368Y40933305D01*
X15239867Y40906176D01*
X15220356Y40882401D01*
X15196581Y40862890D01*
X15169452Y40848389D01*
X15140024Y40839462D01*
X15103274Y40835843D01*
X13060554Y40835843D01*
X13023804Y40839462D01*
X12994376Y40848389D01*
X12967247Y40862890D01*
X12943472Y40882401D01*
X12923961Y40906176D01*
X12909460Y40933305D01*
X12900533Y40962733D01*
X12896914Y40999483D01*
X12896914Y41552203D01*
X12900533Y41588953D01*
X12909460Y41618381D01*
X12923961Y41645510D01*
X12943472Y41669285D01*
X12967247Y41688796D01*
X12994376Y41703297D01*
X13023804Y41712224D01*
X13060554Y41715843D01*
X15103274Y41715843D01*
X15140024Y41712224D01*
X15140024Y41712224D01*
G37*
G36*
X44555000Y42340000D02*
G01*
X43095000Y42340000D01*
X43095000Y44460000D01*
X44555000Y44460000D01*
X44555000Y42340000D01*
X44555000Y42340000D01*
G37*
G36*
X41505000Y42340000D02*
G01*
X40045000Y42340000D01*
X40045000Y44460000D01*
X41505000Y44460000D01*
X41505000Y42340000D01*
X41505000Y42340000D01*
G37*
G36*
X61675000Y43530000D02*
G01*
X59325000Y43530000D01*
X59325000Y45890000D01*
X61675000Y45890000D01*
X61675000Y43530000D01*
X61675000Y43530000D01*
G37*
G36*
X53175000Y43530000D02*
G01*
X50825000Y43530000D01*
X50825000Y45890000D01*
X53175000Y45890000D01*
X53175000Y43530000D01*
X53175000Y43530000D01*
G37*
G36*
X10727290Y48474381D02*
G01*
X10791689Y48461571D01*
X10973678Y48386189D01*
X11137463Y48276751D01*
X11276751Y48137463D01*
X11386189Y47973678D01*
X11461571Y47791689D01*
X11500000Y47598491D01*
X11500000Y47401509D01*
X11461571Y47208311D01*
X11386189Y47026322D01*
X11276751Y46862537D01*
X11137463Y46723249D01*
X10973678Y46613811D01*
X10791689Y46538429D01*
X10727290Y46525619D01*
X10598493Y46500000D01*
X10401507Y46500000D01*
X10272710Y46525619D01*
X10208311Y46538429D01*
X10026322Y46613811D01*
X9862537Y46723249D01*
X9723249Y46862537D01*
X9613811Y47026322D01*
X9538429Y47208311D01*
X9500000Y47401509D01*
X9500000Y47598491D01*
X9538429Y47791689D01*
X9613811Y47973678D01*
X9723249Y48137463D01*
X9862537Y48276751D01*
X10026322Y48386189D01*
X10208311Y48461571D01*
X10272710Y48474381D01*
X10401507Y48500000D01*
X10598493Y48500000D01*
X10727290Y48474381D01*
X10727290Y48474381D01*
G37*
G36*
X13267290Y48474381D02*
G01*
X13331689Y48461571D01*
X13513678Y48386189D01*
X13677463Y48276751D01*
X13816751Y48137463D01*
X13926189Y47973678D01*
X14001571Y47791689D01*
X14040000Y47598491D01*
X14040000Y47401509D01*
X14001571Y47208311D01*
X13926189Y47026322D01*
X13816751Y46862537D01*
X13677463Y46723249D01*
X13513678Y46613811D01*
X13331689Y46538429D01*
X13267290Y46525619D01*
X13138493Y46500000D01*
X12941507Y46500000D01*
X12812710Y46525619D01*
X12748311Y46538429D01*
X12566322Y46613811D01*
X12402537Y46723249D01*
X12263249Y46862537D01*
X12153811Y47026322D01*
X12078429Y47208311D01*
X12040000Y47401509D01*
X12040000Y47598491D01*
X12078429Y47791689D01*
X12153811Y47973678D01*
X12263249Y48137463D01*
X12402537Y48276751D01*
X12566322Y48386189D01*
X12748311Y48461571D01*
X12812710Y48474381D01*
X12941507Y48500000D01*
X13138493Y48500000D01*
X13267290Y48474381D01*
X13267290Y48474381D01*
G37*
G36*
X15807290Y48474381D02*
G01*
X15871689Y48461571D01*
X16053678Y48386189D01*
X16217463Y48276751D01*
X16356751Y48137463D01*
X16466189Y47973678D01*
X16541571Y47791689D01*
X16580000Y47598491D01*
X16580000Y47401509D01*
X16541571Y47208311D01*
X16466189Y47026322D01*
X16356751Y46862537D01*
X16217463Y46723249D01*
X16053678Y46613811D01*
X15871689Y46538429D01*
X15807290Y46525619D01*
X15678493Y46500000D01*
X15481507Y46500000D01*
X15352710Y46525619D01*
X15288311Y46538429D01*
X15106322Y46613811D01*
X14942537Y46723249D01*
X14803249Y46862537D01*
X14693811Y47026322D01*
X14618429Y47208311D01*
X14580000Y47401509D01*
X14580000Y47598491D01*
X14618429Y47791689D01*
X14693811Y47973678D01*
X14803249Y48137463D01*
X14942537Y48276751D01*
X15106322Y48386189D01*
X15288311Y48461571D01*
X15352710Y48474381D01*
X15481507Y48500000D01*
X15678493Y48500000D01*
X15807290Y48474381D01*
X15807290Y48474381D01*
G37*
G36*
X18347290Y48474381D02*
G01*
X18411689Y48461571D01*
X18593678Y48386189D01*
X18757463Y48276751D01*
X18896751Y48137463D01*
X19006189Y47973678D01*
X19081571Y47791689D01*
X19120000Y47598491D01*
X19120000Y47401509D01*
X19081571Y47208311D01*
X19006189Y47026322D01*
X18896751Y46862537D01*
X18757463Y46723249D01*
X18593678Y46613811D01*
X18411689Y46538429D01*
X18347290Y46525619D01*
X18218493Y46500000D01*
X18021507Y46500000D01*
X17892710Y46525619D01*
X17828311Y46538429D01*
X17646322Y46613811D01*
X17482537Y46723249D01*
X17343249Y46862537D01*
X17233811Y47026322D01*
X17158429Y47208311D01*
X17120000Y47401509D01*
X17120000Y47598491D01*
X17158429Y47791689D01*
X17233811Y47973678D01*
X17343249Y48137463D01*
X17482537Y48276751D01*
X17646322Y48386189D01*
X17828311Y48461571D01*
X17892710Y48474381D01*
X18021507Y48500000D01*
X18218493Y48500000D01*
X18347290Y48474381D01*
X18347290Y48474381D01*
G37*
G36*
X23877720Y51929186D02*
G01*
X24013663Y51902146D01*
X24184405Y51831422D01*
X24338068Y51728748D01*
X24468748Y51598068D01*
X24571422Y51444405D01*
X24642146Y51273663D01*
X24678200Y51092405D01*
X24678200Y50907595D01*
X24642146Y50726337D01*
X24571422Y50555595D01*
X24468748Y50401932D01*
X24338068Y50271252D01*
X24184405Y50168578D01*
X24013663Y50097854D01*
X23877720Y50070814D01*
X23832406Y50061800D01*
X23647594Y50061800D01*
X23602281Y50070813D01*
X23466337Y50097854D01*
X23295595Y50168578D01*
X23141932Y50271252D01*
X23011252Y50401932D01*
X22908578Y50555595D01*
X22837854Y50726337D01*
X22801800Y50907595D01*
X22801800Y51092405D01*
X22837854Y51273663D01*
X22908578Y51444405D01*
X23011252Y51598068D01*
X23141932Y51728748D01*
X23295595Y51831422D01*
X23466337Y51902146D01*
X23602280Y51929186D01*
X23647594Y51938200D01*
X23832406Y51938200D01*
X23877720Y51929186D01*
X23877720Y51929186D01*
G37*
G36*
X18797720Y51929186D02*
G01*
X18933663Y51902146D01*
X19104405Y51831422D01*
X19258068Y51728748D01*
X19388748Y51598068D01*
X19491422Y51444405D01*
X19562146Y51273663D01*
X19598200Y51092405D01*
X19598200Y50907595D01*
X19562146Y50726337D01*
X19491422Y50555595D01*
X19388748Y50401932D01*
X19258068Y50271252D01*
X19104405Y50168578D01*
X18933663Y50097854D01*
X18797720Y50070814D01*
X18752406Y50061800D01*
X18567594Y50061800D01*
X18522281Y50070813D01*
X18386337Y50097854D01*
X18215595Y50168578D01*
X18061932Y50271252D01*
X17931252Y50401932D01*
X17828578Y50555595D01*
X17757854Y50726337D01*
X17721800Y50907595D01*
X17721800Y51092405D01*
X17757854Y51273663D01*
X17828578Y51444405D01*
X17931252Y51598068D01*
X18061932Y51728748D01*
X18215595Y51831422D01*
X18386337Y51902146D01*
X18522280Y51929186D01*
X18567594Y51938200D01*
X18752406Y51938200D01*
X18797720Y51929186D01*
X18797720Y51929186D01*
G37*
G36*
X26417720Y51929186D02*
G01*
X26553663Y51902146D01*
X26724405Y51831422D01*
X26878068Y51728748D01*
X27008748Y51598068D01*
X27111422Y51444405D01*
X27182146Y51273663D01*
X27218200Y51092405D01*
X27218200Y50907595D01*
X27182146Y50726337D01*
X27111422Y50555595D01*
X27008748Y50401932D01*
X26878068Y50271252D01*
X26724405Y50168578D01*
X26553663Y50097854D01*
X26417720Y50070814D01*
X26372406Y50061800D01*
X26187594Y50061800D01*
X26142281Y50070813D01*
X26006337Y50097854D01*
X25835595Y50168578D01*
X25681932Y50271252D01*
X25551252Y50401932D01*
X25448578Y50555595D01*
X25377854Y50726337D01*
X25341800Y50907595D01*
X25341800Y51092405D01*
X25377854Y51273663D01*
X25448578Y51444405D01*
X25551252Y51598068D01*
X25681932Y51728748D01*
X25835595Y51831422D01*
X26006337Y51902146D01*
X26142280Y51929186D01*
X26187594Y51938200D01*
X26372406Y51938200D01*
X26417720Y51929186D01*
X26417720Y51929186D01*
G37*
G36*
X9438200Y50061800D02*
G01*
X7561800Y50061800D01*
X7561800Y51938200D01*
X9438200Y51938200D01*
X9438200Y50061800D01*
X9438200Y50061800D01*
G37*
G36*
X28957720Y51929186D02*
G01*
X29093663Y51902146D01*
X29264405Y51831422D01*
X29418068Y51728748D01*
X29548748Y51598068D01*
X29651422Y51444405D01*
X29722146Y51273663D01*
X29758200Y51092405D01*
X29758200Y50907595D01*
X29722146Y50726337D01*
X29651422Y50555595D01*
X29548748Y50401932D01*
X29418068Y50271252D01*
X29264405Y50168578D01*
X29093663Y50097854D01*
X28957720Y50070814D01*
X28912406Y50061800D01*
X28727594Y50061800D01*
X28682281Y50070813D01*
X28546337Y50097854D01*
X28375595Y50168578D01*
X28221932Y50271252D01*
X28091252Y50401932D01*
X27988578Y50555595D01*
X27917854Y50726337D01*
X27881800Y50907595D01*
X27881800Y51092405D01*
X27917854Y51273663D01*
X27988578Y51444405D01*
X28091252Y51598068D01*
X28221932Y51728748D01*
X28375595Y51831422D01*
X28546337Y51902146D01*
X28682280Y51929186D01*
X28727594Y51938200D01*
X28912406Y51938200D01*
X28957720Y51929186D01*
X28957720Y51929186D01*
G37*
G36*
X11177720Y51929186D02*
G01*
X11313663Y51902146D01*
X11484405Y51831422D01*
X11638068Y51728748D01*
X11768748Y51598068D01*
X11871422Y51444405D01*
X11942146Y51273663D01*
X11978200Y51092405D01*
X11978200Y50907595D01*
X11942146Y50726337D01*
X11871422Y50555595D01*
X11768748Y50401932D01*
X11638068Y50271252D01*
X11484405Y50168578D01*
X11313663Y50097854D01*
X11177720Y50070814D01*
X11132406Y50061800D01*
X10947594Y50061800D01*
X10902280Y50070814D01*
X10766337Y50097854D01*
X10595595Y50168578D01*
X10441932Y50271252D01*
X10311252Y50401932D01*
X10208578Y50555595D01*
X10137854Y50726337D01*
X10101800Y50907595D01*
X10101800Y51092405D01*
X10137854Y51273663D01*
X10208578Y51444405D01*
X10311252Y51598068D01*
X10441932Y51728748D01*
X10595595Y51831422D01*
X10766337Y51902146D01*
X10902280Y51929186D01*
X10947594Y51938200D01*
X11132406Y51938200D01*
X11177720Y51929186D01*
X11177720Y51929186D01*
G37*
G36*
X31497720Y51929186D02*
G01*
X31633663Y51902146D01*
X31804405Y51831422D01*
X31958068Y51728748D01*
X32088748Y51598068D01*
X32191422Y51444405D01*
X32262146Y51273663D01*
X32298200Y51092405D01*
X32298200Y50907595D01*
X32262146Y50726337D01*
X32191422Y50555595D01*
X32088748Y50401932D01*
X31958068Y50271252D01*
X31804405Y50168578D01*
X31633663Y50097854D01*
X31497720Y50070814D01*
X31452406Y50061800D01*
X31267594Y50061800D01*
X31222281Y50070813D01*
X31086337Y50097854D01*
X30915595Y50168578D01*
X30761932Y50271252D01*
X30631252Y50401932D01*
X30528578Y50555595D01*
X30457854Y50726337D01*
X30421800Y50907595D01*
X30421800Y51092405D01*
X30457854Y51273663D01*
X30528578Y51444405D01*
X30631252Y51598068D01*
X30761932Y51728748D01*
X30915595Y51831422D01*
X31086337Y51902146D01*
X31222280Y51929186D01*
X31267594Y51938200D01*
X31452406Y51938200D01*
X31497720Y51929186D01*
X31497720Y51929186D01*
G37*
G36*
X13717720Y51929186D02*
G01*
X13853663Y51902146D01*
X14024405Y51831422D01*
X14178068Y51728748D01*
X14308748Y51598068D01*
X14411422Y51444405D01*
X14482146Y51273663D01*
X14518200Y51092405D01*
X14518200Y50907595D01*
X14482146Y50726337D01*
X14411422Y50555595D01*
X14308748Y50401932D01*
X14178068Y50271252D01*
X14024405Y50168578D01*
X13853663Y50097854D01*
X13717720Y50070814D01*
X13672406Y50061800D01*
X13487594Y50061800D01*
X13442280Y50070814D01*
X13306337Y50097854D01*
X13135595Y50168578D01*
X12981932Y50271252D01*
X12851252Y50401932D01*
X12748578Y50555595D01*
X12677854Y50726337D01*
X12641800Y50907595D01*
X12641800Y51092405D01*
X12677854Y51273663D01*
X12748578Y51444405D01*
X12851252Y51598068D01*
X12981932Y51728748D01*
X13135595Y51831422D01*
X13306337Y51902146D01*
X13442280Y51929186D01*
X13487594Y51938200D01*
X13672406Y51938200D01*
X13717720Y51929186D01*
X13717720Y51929186D01*
G37*
G36*
X34037720Y51929186D02*
G01*
X34173663Y51902146D01*
X34344405Y51831422D01*
X34498068Y51728748D01*
X34628748Y51598068D01*
X34731422Y51444405D01*
X34802146Y51273663D01*
X34838200Y51092405D01*
X34838200Y50907595D01*
X34802146Y50726337D01*
X34731422Y50555595D01*
X34628748Y50401932D01*
X34498068Y50271252D01*
X34344405Y50168578D01*
X34173663Y50097854D01*
X34037720Y50070814D01*
X33992406Y50061800D01*
X33807594Y50061800D01*
X33762281Y50070813D01*
X33626337Y50097854D01*
X33455595Y50168578D01*
X33301932Y50271252D01*
X33171252Y50401932D01*
X33068578Y50555595D01*
X32997854Y50726337D01*
X32961800Y50907595D01*
X32961800Y51092405D01*
X32997854Y51273663D01*
X33068578Y51444405D01*
X33171252Y51598068D01*
X33301932Y51728748D01*
X33455595Y51831422D01*
X33626337Y51902146D01*
X33762280Y51929186D01*
X33807594Y51938200D01*
X33992406Y51938200D01*
X34037720Y51929186D01*
X34037720Y51929186D01*
G37*
G36*
X16257720Y51929186D02*
G01*
X16393663Y51902146D01*
X16564405Y51831422D01*
X16718068Y51728748D01*
X16848748Y51598068D01*
X16951422Y51444405D01*
X17022146Y51273663D01*
X17058200Y51092405D01*
X17058200Y50907595D01*
X17022146Y50726337D01*
X16951422Y50555595D01*
X16848748Y50401932D01*
X16718068Y50271252D01*
X16564405Y50168578D01*
X16393663Y50097854D01*
X16257720Y50070814D01*
X16212406Y50061800D01*
X16027594Y50061800D01*
X15982280Y50070814D01*
X15846337Y50097854D01*
X15675595Y50168578D01*
X15521932Y50271252D01*
X15391252Y50401932D01*
X15288578Y50555595D01*
X15217854Y50726337D01*
X15181800Y50907595D01*
X15181800Y51092405D01*
X15217854Y51273663D01*
X15288578Y51444405D01*
X15391252Y51598068D01*
X15521932Y51728748D01*
X15675595Y51831422D01*
X15846337Y51902146D01*
X15982280Y51929186D01*
X16027594Y51938200D01*
X16212406Y51938200D01*
X16257720Y51929186D01*
X16257720Y51929186D01*
G37*
G36*
X56897720Y51929186D02*
G01*
X57033663Y51902146D01*
X57204405Y51831422D01*
X57358068Y51728748D01*
X57488748Y51598068D01*
X57591422Y51444405D01*
X57662146Y51273663D01*
X57698200Y51092405D01*
X57698200Y50907595D01*
X57662146Y50726337D01*
X57591422Y50555595D01*
X57488748Y50401932D01*
X57358068Y50271252D01*
X57204405Y50168578D01*
X57033663Y50097854D01*
X56897720Y50070814D01*
X56852406Y50061800D01*
X56667594Y50061800D01*
X56622281Y50070813D01*
X56486337Y50097854D01*
X56315595Y50168578D01*
X56161932Y50271252D01*
X56031252Y50401932D01*
X55928578Y50555595D01*
X55857854Y50726337D01*
X55821800Y50907595D01*
X55821800Y51092405D01*
X55857854Y51273663D01*
X55928578Y51444405D01*
X56031252Y51598068D01*
X56161932Y51728748D01*
X56315595Y51831422D01*
X56486337Y51902146D01*
X56622280Y51929186D01*
X56667594Y51938200D01*
X56852406Y51938200D01*
X56897720Y51929186D01*
X56897720Y51929186D01*
G37*
G36*
X54357720Y51929186D02*
G01*
X54493663Y51902146D01*
X54664405Y51831422D01*
X54818068Y51728748D01*
X54948748Y51598068D01*
X55051422Y51444405D01*
X55122146Y51273663D01*
X55158200Y51092405D01*
X55158200Y50907595D01*
X55122146Y50726337D01*
X55051422Y50555595D01*
X54948748Y50401932D01*
X54818068Y50271252D01*
X54664405Y50168578D01*
X54493663Y50097854D01*
X54357720Y50070814D01*
X54312406Y50061800D01*
X54127594Y50061800D01*
X54082281Y50070813D01*
X53946337Y50097854D01*
X53775595Y50168578D01*
X53621932Y50271252D01*
X53491252Y50401932D01*
X53388578Y50555595D01*
X53317854Y50726337D01*
X53281800Y50907595D01*
X53281800Y51092405D01*
X53317854Y51273663D01*
X53388578Y51444405D01*
X53491252Y51598068D01*
X53621932Y51728748D01*
X53775595Y51831422D01*
X53946337Y51902146D01*
X54082280Y51929186D01*
X54127594Y51938200D01*
X54312406Y51938200D01*
X54357720Y51929186D01*
X54357720Y51929186D01*
G37*
G36*
X39117720Y51929186D02*
G01*
X39253663Y51902146D01*
X39424405Y51831422D01*
X39578068Y51728748D01*
X39708748Y51598068D01*
X39811422Y51444405D01*
X39882146Y51273663D01*
X39918200Y51092405D01*
X39918200Y50907595D01*
X39882146Y50726337D01*
X39811422Y50555595D01*
X39708748Y50401932D01*
X39578068Y50271252D01*
X39424405Y50168578D01*
X39253663Y50097854D01*
X39117720Y50070814D01*
X39072406Y50061800D01*
X38887594Y50061800D01*
X38842281Y50070813D01*
X38706337Y50097854D01*
X38535595Y50168578D01*
X38381932Y50271252D01*
X38251252Y50401932D01*
X38148578Y50555595D01*
X38077854Y50726337D01*
X38041800Y50907595D01*
X38041800Y51092405D01*
X38077854Y51273663D01*
X38148578Y51444405D01*
X38251252Y51598068D01*
X38381932Y51728748D01*
X38535595Y51831422D01*
X38706337Y51902146D01*
X38842280Y51929186D01*
X38887594Y51938200D01*
X39072406Y51938200D01*
X39117720Y51929186D01*
X39117720Y51929186D01*
G37*
G36*
X51817720Y51929186D02*
G01*
X51953663Y51902146D01*
X52124405Y51831422D01*
X52278068Y51728748D01*
X52408748Y51598068D01*
X52511422Y51444405D01*
X52582146Y51273663D01*
X52618200Y51092405D01*
X52618200Y50907595D01*
X52582146Y50726337D01*
X52511422Y50555595D01*
X52408748Y50401932D01*
X52278068Y50271252D01*
X52124405Y50168578D01*
X51953663Y50097854D01*
X51817720Y50070814D01*
X51772406Y50061800D01*
X51587594Y50061800D01*
X51542281Y50070813D01*
X51406337Y50097854D01*
X51235595Y50168578D01*
X51081932Y50271252D01*
X50951252Y50401932D01*
X50848578Y50555595D01*
X50777854Y50726337D01*
X50741800Y50907595D01*
X50741800Y51092405D01*
X50777854Y51273663D01*
X50848578Y51444405D01*
X50951252Y51598068D01*
X51081932Y51728748D01*
X51235595Y51831422D01*
X51406337Y51902146D01*
X51542280Y51929186D01*
X51587594Y51938200D01*
X51772406Y51938200D01*
X51817720Y51929186D01*
X51817720Y51929186D01*
G37*
G36*
X41657720Y51929186D02*
G01*
X41793663Y51902146D01*
X41964405Y51831422D01*
X42118068Y51728748D01*
X42248748Y51598068D01*
X42351422Y51444405D01*
X42422146Y51273663D01*
X42458200Y51092405D01*
X42458200Y50907595D01*
X42422146Y50726337D01*
X42351422Y50555595D01*
X42248748Y50401932D01*
X42118068Y50271252D01*
X41964405Y50168578D01*
X41793663Y50097854D01*
X41657720Y50070814D01*
X41612406Y50061800D01*
X41427594Y50061800D01*
X41382281Y50070813D01*
X41246337Y50097854D01*
X41075595Y50168578D01*
X40921932Y50271252D01*
X40791252Y50401932D01*
X40688578Y50555595D01*
X40617854Y50726337D01*
X40581800Y50907595D01*
X40581800Y51092405D01*
X40617854Y51273663D01*
X40688578Y51444405D01*
X40791252Y51598068D01*
X40921932Y51728748D01*
X41075595Y51831422D01*
X41246337Y51902146D01*
X41382280Y51929186D01*
X41427594Y51938200D01*
X41612406Y51938200D01*
X41657720Y51929186D01*
X41657720Y51929186D01*
G37*
G36*
X49277720Y51929186D02*
G01*
X49413663Y51902146D01*
X49584405Y51831422D01*
X49738068Y51728748D01*
X49868748Y51598068D01*
X49971422Y51444405D01*
X50042146Y51273663D01*
X50078200Y51092405D01*
X50078200Y50907595D01*
X50042146Y50726337D01*
X49971422Y50555595D01*
X49868748Y50401932D01*
X49738068Y50271252D01*
X49584405Y50168578D01*
X49413663Y50097854D01*
X49277720Y50070814D01*
X49232406Y50061800D01*
X49047594Y50061800D01*
X49002281Y50070813D01*
X48866337Y50097854D01*
X48695595Y50168578D01*
X48541932Y50271252D01*
X48411252Y50401932D01*
X48308578Y50555595D01*
X48237854Y50726337D01*
X48201800Y50907595D01*
X48201800Y51092405D01*
X48237854Y51273663D01*
X48308578Y51444405D01*
X48411252Y51598068D01*
X48541932Y51728748D01*
X48695595Y51831422D01*
X48866337Y51902146D01*
X49002280Y51929186D01*
X49047594Y51938200D01*
X49232406Y51938200D01*
X49277720Y51929186D01*
X49277720Y51929186D01*
G37*
G36*
X44197720Y51929186D02*
G01*
X44333663Y51902146D01*
X44504405Y51831422D01*
X44658068Y51728748D01*
X44788748Y51598068D01*
X44891422Y51444405D01*
X44962146Y51273663D01*
X44998200Y51092405D01*
X44998200Y50907595D01*
X44962146Y50726337D01*
X44891422Y50555595D01*
X44788748Y50401932D01*
X44658068Y50271252D01*
X44504405Y50168578D01*
X44333663Y50097854D01*
X44197720Y50070814D01*
X44152406Y50061800D01*
X43967594Y50061800D01*
X43922281Y50070813D01*
X43786337Y50097854D01*
X43615595Y50168578D01*
X43461932Y50271252D01*
X43331252Y50401932D01*
X43228578Y50555595D01*
X43157854Y50726337D01*
X43121800Y50907595D01*
X43121800Y51092405D01*
X43157854Y51273663D01*
X43228578Y51444405D01*
X43331252Y51598068D01*
X43461932Y51728748D01*
X43615595Y51831422D01*
X43786337Y51902146D01*
X43922280Y51929186D01*
X43967594Y51938200D01*
X44152406Y51938200D01*
X44197720Y51929186D01*
X44197720Y51929186D01*
G37*
G36*
X46737720Y51929186D02*
G01*
X46873663Y51902146D01*
X47044405Y51831422D01*
X47198068Y51728748D01*
X47328748Y51598068D01*
X47431422Y51444405D01*
X47502146Y51273663D01*
X47538200Y51092405D01*
X47538200Y50907595D01*
X47502146Y50726337D01*
X47431422Y50555595D01*
X47328748Y50401932D01*
X47198068Y50271252D01*
X47044405Y50168578D01*
X46873663Y50097854D01*
X46737720Y50070814D01*
X46692406Y50061800D01*
X46507594Y50061800D01*
X46462281Y50070813D01*
X46326337Y50097854D01*
X46155595Y50168578D01*
X46001932Y50271252D01*
X45871252Y50401932D01*
X45768578Y50555595D01*
X45697854Y50726337D01*
X45661800Y50907595D01*
X45661800Y51092405D01*
X45697854Y51273663D01*
X45768578Y51444405D01*
X45871252Y51598068D01*
X46001932Y51728748D01*
X46155595Y51831422D01*
X46326337Y51902146D01*
X46462280Y51929186D01*
X46507594Y51938200D01*
X46692406Y51938200D01*
X46737720Y51929186D01*
X46737720Y51929186D01*
G37*
G36*
X36577720Y51929186D02*
G01*
X36713663Y51902146D01*
X36884405Y51831422D01*
X37038068Y51728748D01*
X37168748Y51598068D01*
X37271422Y51444405D01*
X37342146Y51273663D01*
X37378200Y51092405D01*
X37378200Y50907595D01*
X37342146Y50726337D01*
X37271422Y50555595D01*
X37168748Y50401932D01*
X37038068Y50271252D01*
X36884405Y50168578D01*
X36713663Y50097854D01*
X36577720Y50070814D01*
X36532406Y50061800D01*
X36347594Y50061800D01*
X36302281Y50070813D01*
X36166337Y50097854D01*
X35995595Y50168578D01*
X35841932Y50271252D01*
X35711252Y50401932D01*
X35608578Y50555595D01*
X35537854Y50726337D01*
X35501800Y50907595D01*
X35501800Y51092405D01*
X35537854Y51273663D01*
X35608578Y51444405D01*
X35711252Y51598068D01*
X35841932Y51728748D01*
X35995595Y51831422D01*
X36166337Y51902146D01*
X36302280Y51929186D01*
X36347594Y51938200D01*
X36532406Y51938200D01*
X36577720Y51929186D01*
X36577720Y51929186D01*
G37*
G36*
X21337720Y51929186D02*
G01*
X21473663Y51902146D01*
X21644405Y51831422D01*
X21798068Y51728748D01*
X21928748Y51598068D01*
X22031422Y51444405D01*
X22102146Y51273663D01*
X22138200Y51092405D01*
X22138200Y50907595D01*
X22102146Y50726337D01*
X22031422Y50555595D01*
X21928748Y50401932D01*
X21798068Y50271252D01*
X21644405Y50168578D01*
X21473663Y50097854D01*
X21337720Y50070814D01*
X21292406Y50061800D01*
X21107594Y50061800D01*
X21062281Y50070813D01*
X20926337Y50097854D01*
X20755595Y50168578D01*
X20601932Y50271252D01*
X20471252Y50401932D01*
X20368578Y50555595D01*
X20297854Y50726337D01*
X20261800Y50907595D01*
X20261800Y51092405D01*
X20297854Y51273663D01*
X20368578Y51444405D01*
X20471252Y51598068D01*
X20601932Y51728748D01*
X20755595Y51831422D01*
X20926337Y51902146D01*
X21062280Y51929186D01*
X21107594Y51938200D01*
X21292406Y51938200D01*
X21337720Y51929186D01*
X21337720Y51929186D01*
G37*
G36*
X61922948Y53894278D02*
G01*
X62186831Y53784974D01*
X62186833Y53784973D01*
X62424321Y53626289D01*
X62626289Y53424321D01*
X62731848Y53266340D01*
X62784974Y53186831D01*
X62894278Y52922948D01*
X62950000Y52642814D01*
X62950000Y52357186D01*
X62894278Y52077052D01*
X62792534Y51831420D01*
X62784973Y51813167D01*
X62626289Y51575679D01*
X62424321Y51373711D01*
X62186833Y51215027D01*
X62186832Y51215026D01*
X62186831Y51215026D01*
X61922948Y51105722D01*
X61642814Y51050000D01*
X61357186Y51050000D01*
X61077052Y51105722D01*
X60813169Y51215026D01*
X60813168Y51215026D01*
X60813167Y51215027D01*
X60575679Y51373711D01*
X60373711Y51575679D01*
X60215027Y51813167D01*
X60207466Y51831420D01*
X60105722Y52077052D01*
X60050000Y52357186D01*
X60050000Y52642814D01*
X60105722Y52922948D01*
X60215026Y53186831D01*
X60268152Y53266340D01*
X60373711Y53424321D01*
X60575679Y53626289D01*
X60813167Y53784973D01*
X60813169Y53784974D01*
X61077052Y53894278D01*
X61357186Y53950000D01*
X61642814Y53950000D01*
X61922948Y53894278D01*
X61922948Y53894278D01*
G37*
G36*
X3922948Y53894278D02*
G01*
X4186831Y53784974D01*
X4186833Y53784973D01*
X4424321Y53626289D01*
X4626289Y53424321D01*
X4731848Y53266340D01*
X4784974Y53186831D01*
X4894278Y52922948D01*
X4950000Y52642814D01*
X4950000Y52357186D01*
X4894278Y52077052D01*
X4792534Y51831420D01*
X4784973Y51813167D01*
X4626289Y51575679D01*
X4424321Y51373711D01*
X4186833Y51215027D01*
X4186832Y51215026D01*
X4186831Y51215026D01*
X3922948Y51105722D01*
X3642814Y51050000D01*
X3357186Y51050000D01*
X3077052Y51105722D01*
X2813169Y51215026D01*
X2813168Y51215026D01*
X2813167Y51215027D01*
X2575679Y51373711D01*
X2373711Y51575679D01*
X2215027Y51813167D01*
X2207466Y51831420D01*
X2105722Y52077052D01*
X2050000Y52357186D01*
X2050000Y52642814D01*
X2105722Y52922948D01*
X2215026Y53186831D01*
X2268152Y53266340D01*
X2373711Y53424321D01*
X2575679Y53626289D01*
X2813167Y53784973D01*
X2813169Y53784974D01*
X3077052Y53894278D01*
X3357186Y53950000D01*
X3642814Y53950000D01*
X3922948Y53894278D01*
X3922948Y53894278D01*
G37*
G36*
X23877719Y54469187D02*
G01*
X24013663Y54442146D01*
X24184405Y54371422D01*
X24338068Y54268748D01*
X24468748Y54138068D01*
X24571422Y53984405D01*
X24642146Y53813663D01*
X24678200Y53632405D01*
X24678200Y53447595D01*
X24642146Y53266337D01*
X24571422Y53095595D01*
X24468748Y52941932D01*
X24338068Y52811252D01*
X24184405Y52708578D01*
X24013663Y52637854D01*
X23877720Y52610814D01*
X23832406Y52601800D01*
X23647594Y52601800D01*
X23602281Y52610813D01*
X23466337Y52637854D01*
X23295595Y52708578D01*
X23141932Y52811252D01*
X23011252Y52941932D01*
X22908578Y53095595D01*
X22837854Y53266337D01*
X22801800Y53447595D01*
X22801800Y53632405D01*
X22837854Y53813663D01*
X22908578Y53984405D01*
X23011252Y54138068D01*
X23141932Y54268748D01*
X23295595Y54371422D01*
X23466337Y54442146D01*
X23602281Y54469187D01*
X23647594Y54478200D01*
X23832406Y54478200D01*
X23877719Y54469187D01*
X23877719Y54469187D01*
G37*
G36*
X18797719Y54469187D02*
G01*
X18933663Y54442146D01*
X19104405Y54371422D01*
X19258068Y54268748D01*
X19388748Y54138068D01*
X19491422Y53984405D01*
X19562146Y53813663D01*
X19598200Y53632405D01*
X19598200Y53447595D01*
X19562146Y53266337D01*
X19491422Y53095595D01*
X19388748Y52941932D01*
X19258068Y52811252D01*
X19104405Y52708578D01*
X18933663Y52637854D01*
X18797720Y52610814D01*
X18752406Y52601800D01*
X18567594Y52601800D01*
X18522281Y52610813D01*
X18386337Y52637854D01*
X18215595Y52708578D01*
X18061932Y52811252D01*
X17931252Y52941932D01*
X17828578Y53095595D01*
X17757854Y53266337D01*
X17721800Y53447595D01*
X17721800Y53632405D01*
X17757854Y53813663D01*
X17828578Y53984405D01*
X17931252Y54138068D01*
X18061932Y54268748D01*
X18215595Y54371422D01*
X18386337Y54442146D01*
X18522281Y54469187D01*
X18567594Y54478200D01*
X18752406Y54478200D01*
X18797719Y54469187D01*
X18797719Y54469187D01*
G37*
G36*
X21337719Y54469187D02*
G01*
X21473663Y54442146D01*
X21644405Y54371422D01*
X21798068Y54268748D01*
X21928748Y54138068D01*
X22031422Y53984405D01*
X22102146Y53813663D01*
X22138200Y53632405D01*
X22138200Y53447595D01*
X22102146Y53266337D01*
X22031422Y53095595D01*
X21928748Y52941932D01*
X21798068Y52811252D01*
X21644405Y52708578D01*
X21473663Y52637854D01*
X21337720Y52610814D01*
X21292406Y52601800D01*
X21107594Y52601800D01*
X21062281Y52610813D01*
X20926337Y52637854D01*
X20755595Y52708578D01*
X20601932Y52811252D01*
X20471252Y52941932D01*
X20368578Y53095595D01*
X20297854Y53266337D01*
X20261800Y53447595D01*
X20261800Y53632405D01*
X20297854Y53813663D01*
X20368578Y53984405D01*
X20471252Y54138068D01*
X20601932Y54268748D01*
X20755595Y54371422D01*
X20926337Y54442146D01*
X21062281Y54469187D01*
X21107594Y54478200D01*
X21292406Y54478200D01*
X21337719Y54469187D01*
X21337719Y54469187D01*
G37*
G36*
X56897719Y54469187D02*
G01*
X57033663Y54442146D01*
X57204405Y54371422D01*
X57358068Y54268748D01*
X57488748Y54138068D01*
X57591422Y53984405D01*
X57662146Y53813663D01*
X57698200Y53632405D01*
X57698200Y53447595D01*
X57662146Y53266337D01*
X57591422Y53095595D01*
X57488748Y52941932D01*
X57358068Y52811252D01*
X57204405Y52708578D01*
X57033663Y52637854D01*
X56897720Y52610814D01*
X56852406Y52601800D01*
X56667594Y52601800D01*
X56622281Y52610813D01*
X56486337Y52637854D01*
X56315595Y52708578D01*
X56161932Y52811252D01*
X56031252Y52941932D01*
X55928578Y53095595D01*
X55857854Y53266337D01*
X55821800Y53447595D01*
X55821800Y53632405D01*
X55857854Y53813663D01*
X55928578Y53984405D01*
X56031252Y54138068D01*
X56161932Y54268748D01*
X56315595Y54371422D01*
X56486337Y54442146D01*
X56622281Y54469187D01*
X56667594Y54478200D01*
X56852406Y54478200D01*
X56897719Y54469187D01*
X56897719Y54469187D01*
G37*
G36*
X54357719Y54469187D02*
G01*
X54493663Y54442146D01*
X54664405Y54371422D01*
X54818068Y54268748D01*
X54948748Y54138068D01*
X55051422Y53984405D01*
X55122146Y53813663D01*
X55158200Y53632405D01*
X55158200Y53447595D01*
X55122146Y53266337D01*
X55051422Y53095595D01*
X54948748Y52941932D01*
X54818068Y52811252D01*
X54664405Y52708578D01*
X54493663Y52637854D01*
X54357720Y52610814D01*
X54312406Y52601800D01*
X54127594Y52601800D01*
X54082281Y52610813D01*
X53946337Y52637854D01*
X53775595Y52708578D01*
X53621932Y52811252D01*
X53491252Y52941932D01*
X53388578Y53095595D01*
X53317854Y53266337D01*
X53281800Y53447595D01*
X53281800Y53632405D01*
X53317854Y53813663D01*
X53388578Y53984405D01*
X53491252Y54138068D01*
X53621932Y54268748D01*
X53775595Y54371422D01*
X53946337Y54442146D01*
X54082281Y54469187D01*
X54127594Y54478200D01*
X54312406Y54478200D01*
X54357719Y54469187D01*
X54357719Y54469187D01*
G37*
G36*
X51817719Y54469187D02*
G01*
X51953663Y54442146D01*
X52124405Y54371422D01*
X52278068Y54268748D01*
X52408748Y54138068D01*
X52511422Y53984405D01*
X52582146Y53813663D01*
X52618200Y53632405D01*
X52618200Y53447595D01*
X52582146Y53266337D01*
X52511422Y53095595D01*
X52408748Y52941932D01*
X52278068Y52811252D01*
X52124405Y52708578D01*
X51953663Y52637854D01*
X51817720Y52610814D01*
X51772406Y52601800D01*
X51587594Y52601800D01*
X51542281Y52610813D01*
X51406337Y52637854D01*
X51235595Y52708578D01*
X51081932Y52811252D01*
X50951252Y52941932D01*
X50848578Y53095595D01*
X50777854Y53266337D01*
X50741800Y53447595D01*
X50741800Y53632405D01*
X50777854Y53813663D01*
X50848578Y53984405D01*
X50951252Y54138068D01*
X51081932Y54268748D01*
X51235595Y54371422D01*
X51406337Y54442146D01*
X51542281Y54469187D01*
X51587594Y54478200D01*
X51772406Y54478200D01*
X51817719Y54469187D01*
X51817719Y54469187D01*
G37*
G36*
X13717719Y54469187D02*
G01*
X13853663Y54442146D01*
X14024405Y54371422D01*
X14178068Y54268748D01*
X14308748Y54138068D01*
X14411422Y53984405D01*
X14482146Y53813663D01*
X14518200Y53632405D01*
X14518200Y53447595D01*
X14482146Y53266337D01*
X14411422Y53095595D01*
X14308748Y52941932D01*
X14178068Y52811252D01*
X14024405Y52708578D01*
X13853663Y52637854D01*
X13717720Y52610814D01*
X13672406Y52601800D01*
X13487594Y52601800D01*
X13442281Y52610813D01*
X13306337Y52637854D01*
X13135595Y52708578D01*
X12981932Y52811252D01*
X12851252Y52941932D01*
X12748578Y53095595D01*
X12677854Y53266337D01*
X12641800Y53447595D01*
X12641800Y53632405D01*
X12677854Y53813663D01*
X12748578Y53984405D01*
X12851252Y54138068D01*
X12981932Y54268748D01*
X13135595Y54371422D01*
X13306337Y54442146D01*
X13442281Y54469187D01*
X13487594Y54478200D01*
X13672406Y54478200D01*
X13717719Y54469187D01*
X13717719Y54469187D01*
G37*
G36*
X49277719Y54469187D02*
G01*
X49413663Y54442146D01*
X49584405Y54371422D01*
X49738068Y54268748D01*
X49868748Y54138068D01*
X49971422Y53984405D01*
X50042146Y53813663D01*
X50078200Y53632405D01*
X50078200Y53447595D01*
X50042146Y53266337D01*
X49971422Y53095595D01*
X49868748Y52941932D01*
X49738068Y52811252D01*
X49584405Y52708578D01*
X49413663Y52637854D01*
X49277720Y52610814D01*
X49232406Y52601800D01*
X49047594Y52601800D01*
X49002281Y52610813D01*
X48866337Y52637854D01*
X48695595Y52708578D01*
X48541932Y52811252D01*
X48411252Y52941932D01*
X48308578Y53095595D01*
X48237854Y53266337D01*
X48201800Y53447595D01*
X48201800Y53632405D01*
X48237854Y53813663D01*
X48308578Y53984405D01*
X48411252Y54138068D01*
X48541932Y54268748D01*
X48695595Y54371422D01*
X48866337Y54442146D01*
X49002281Y54469187D01*
X49047594Y54478200D01*
X49232406Y54478200D01*
X49277719Y54469187D01*
X49277719Y54469187D01*
G37*
G36*
X46737719Y54469187D02*
G01*
X46873663Y54442146D01*
X47044405Y54371422D01*
X47198068Y54268748D01*
X47328748Y54138068D01*
X47431422Y53984405D01*
X47502146Y53813663D01*
X47538200Y53632405D01*
X47538200Y53447595D01*
X47502146Y53266337D01*
X47431422Y53095595D01*
X47328748Y52941932D01*
X47198068Y52811252D01*
X47044405Y52708578D01*
X46873663Y52637854D01*
X46737720Y52610814D01*
X46692406Y52601800D01*
X46507594Y52601800D01*
X46462281Y52610813D01*
X46326337Y52637854D01*
X46155595Y52708578D01*
X46001932Y52811252D01*
X45871252Y52941932D01*
X45768578Y53095595D01*
X45697854Y53266337D01*
X45661800Y53447595D01*
X45661800Y53632405D01*
X45697854Y53813663D01*
X45768578Y53984405D01*
X45871252Y54138068D01*
X46001932Y54268748D01*
X46155595Y54371422D01*
X46326337Y54442146D01*
X46462281Y54469187D01*
X46507594Y54478200D01*
X46692406Y54478200D01*
X46737719Y54469187D01*
X46737719Y54469187D01*
G37*
G36*
X44197719Y54469187D02*
G01*
X44333663Y54442146D01*
X44504405Y54371422D01*
X44658068Y54268748D01*
X44788748Y54138068D01*
X44891422Y53984405D01*
X44962146Y53813663D01*
X44998200Y53632405D01*
X44998200Y53447595D01*
X44962146Y53266337D01*
X44891422Y53095595D01*
X44788748Y52941932D01*
X44658068Y52811252D01*
X44504405Y52708578D01*
X44333663Y52637854D01*
X44197720Y52610814D01*
X44152406Y52601800D01*
X43967594Y52601800D01*
X43922281Y52610813D01*
X43786337Y52637854D01*
X43615595Y52708578D01*
X43461932Y52811252D01*
X43331252Y52941932D01*
X43228578Y53095595D01*
X43157854Y53266337D01*
X43121800Y53447595D01*
X43121800Y53632405D01*
X43157854Y53813663D01*
X43228578Y53984405D01*
X43331252Y54138068D01*
X43461932Y54268748D01*
X43615595Y54371422D01*
X43786337Y54442146D01*
X43922281Y54469187D01*
X43967594Y54478200D01*
X44152406Y54478200D01*
X44197719Y54469187D01*
X44197719Y54469187D01*
G37*
G36*
X41657719Y54469187D02*
G01*
X41793663Y54442146D01*
X41964405Y54371422D01*
X42118068Y54268748D01*
X42248748Y54138068D01*
X42351422Y53984405D01*
X42422146Y53813663D01*
X42458200Y53632405D01*
X42458200Y53447595D01*
X42422146Y53266337D01*
X42351422Y53095595D01*
X42248748Y52941932D01*
X42118068Y52811252D01*
X41964405Y52708578D01*
X41793663Y52637854D01*
X41657720Y52610814D01*
X41612406Y52601800D01*
X41427594Y52601800D01*
X41382281Y52610813D01*
X41246337Y52637854D01*
X41075595Y52708578D01*
X40921932Y52811252D01*
X40791252Y52941932D01*
X40688578Y53095595D01*
X40617854Y53266337D01*
X40581800Y53447595D01*
X40581800Y53632405D01*
X40617854Y53813663D01*
X40688578Y53984405D01*
X40791252Y54138068D01*
X40921932Y54268748D01*
X41075595Y54371422D01*
X41246337Y54442146D01*
X41382281Y54469187D01*
X41427594Y54478200D01*
X41612406Y54478200D01*
X41657719Y54469187D01*
X41657719Y54469187D01*
G37*
G36*
X39117719Y54469187D02*
G01*
X39253663Y54442146D01*
X39424405Y54371422D01*
X39578068Y54268748D01*
X39708748Y54138068D01*
X39811422Y53984405D01*
X39882146Y53813663D01*
X39918200Y53632405D01*
X39918200Y53447595D01*
X39882146Y53266337D01*
X39811422Y53095595D01*
X39708748Y52941932D01*
X39578068Y52811252D01*
X39424405Y52708578D01*
X39253663Y52637854D01*
X39117720Y52610814D01*
X39072406Y52601800D01*
X38887594Y52601800D01*
X38842281Y52610813D01*
X38706337Y52637854D01*
X38535595Y52708578D01*
X38381932Y52811252D01*
X38251252Y52941932D01*
X38148578Y53095595D01*
X38077854Y53266337D01*
X38041800Y53447595D01*
X38041800Y53632405D01*
X38077854Y53813663D01*
X38148578Y53984405D01*
X38251252Y54138068D01*
X38381932Y54268748D01*
X38535595Y54371422D01*
X38706337Y54442146D01*
X38842281Y54469187D01*
X38887594Y54478200D01*
X39072406Y54478200D01*
X39117719Y54469187D01*
X39117719Y54469187D01*
G37*
G36*
X36577719Y54469187D02*
G01*
X36713663Y54442146D01*
X36884405Y54371422D01*
X37038068Y54268748D01*
X37168748Y54138068D01*
X37271422Y53984405D01*
X37342146Y53813663D01*
X37378200Y53632405D01*
X37378200Y53447595D01*
X37342146Y53266337D01*
X37271422Y53095595D01*
X37168748Y52941932D01*
X37038068Y52811252D01*
X36884405Y52708578D01*
X36713663Y52637854D01*
X36577720Y52610814D01*
X36532406Y52601800D01*
X36347594Y52601800D01*
X36302281Y52610813D01*
X36166337Y52637854D01*
X35995595Y52708578D01*
X35841932Y52811252D01*
X35711252Y52941932D01*
X35608578Y53095595D01*
X35537854Y53266337D01*
X35501800Y53447595D01*
X35501800Y53632405D01*
X35537854Y53813663D01*
X35608578Y53984405D01*
X35711252Y54138068D01*
X35841932Y54268748D01*
X35995595Y54371422D01*
X36166337Y54442146D01*
X36302281Y54469187D01*
X36347594Y54478200D01*
X36532406Y54478200D01*
X36577719Y54469187D01*
X36577719Y54469187D01*
G37*
G36*
X16257719Y54469187D02*
G01*
X16393663Y54442146D01*
X16564405Y54371422D01*
X16718068Y54268748D01*
X16848748Y54138068D01*
X16951422Y53984405D01*
X17022146Y53813663D01*
X17058200Y53632405D01*
X17058200Y53447595D01*
X17022146Y53266337D01*
X16951422Y53095595D01*
X16848748Y52941932D01*
X16718068Y52811252D01*
X16564405Y52708578D01*
X16393663Y52637854D01*
X16257720Y52610814D01*
X16212406Y52601800D01*
X16027594Y52601800D01*
X15982281Y52610813D01*
X15846337Y52637854D01*
X15675595Y52708578D01*
X15521932Y52811252D01*
X15391252Y52941932D01*
X15288578Y53095595D01*
X15217854Y53266337D01*
X15181800Y53447595D01*
X15181800Y53632405D01*
X15217854Y53813663D01*
X15288578Y53984405D01*
X15391252Y54138068D01*
X15521932Y54268748D01*
X15675595Y54371422D01*
X15846337Y54442146D01*
X15982281Y54469187D01*
X16027594Y54478200D01*
X16212406Y54478200D01*
X16257719Y54469187D01*
X16257719Y54469187D01*
G37*
G36*
X34037719Y54469187D02*
G01*
X34173663Y54442146D01*
X34344405Y54371422D01*
X34498068Y54268748D01*
X34628748Y54138068D01*
X34731422Y53984405D01*
X34802146Y53813663D01*
X34838200Y53632405D01*
X34838200Y53447595D01*
X34802146Y53266337D01*
X34731422Y53095595D01*
X34628748Y52941932D01*
X34498068Y52811252D01*
X34344405Y52708578D01*
X34173663Y52637854D01*
X34037720Y52610814D01*
X33992406Y52601800D01*
X33807594Y52601800D01*
X33762281Y52610813D01*
X33626337Y52637854D01*
X33455595Y52708578D01*
X33301932Y52811252D01*
X33171252Y52941932D01*
X33068578Y53095595D01*
X32997854Y53266337D01*
X32961800Y53447595D01*
X32961800Y53632405D01*
X32997854Y53813663D01*
X33068578Y53984405D01*
X33171252Y54138068D01*
X33301932Y54268748D01*
X33455595Y54371422D01*
X33626337Y54442146D01*
X33762281Y54469187D01*
X33807594Y54478200D01*
X33992406Y54478200D01*
X34037719Y54469187D01*
X34037719Y54469187D01*
G37*
G36*
X31497719Y54469187D02*
G01*
X31633663Y54442146D01*
X31804405Y54371422D01*
X31958068Y54268748D01*
X32088748Y54138068D01*
X32191422Y53984405D01*
X32262146Y53813663D01*
X32298200Y53632405D01*
X32298200Y53447595D01*
X32262146Y53266337D01*
X32191422Y53095595D01*
X32088748Y52941932D01*
X31958068Y52811252D01*
X31804405Y52708578D01*
X31633663Y52637854D01*
X31497720Y52610814D01*
X31452406Y52601800D01*
X31267594Y52601800D01*
X31222281Y52610813D01*
X31086337Y52637854D01*
X30915595Y52708578D01*
X30761932Y52811252D01*
X30631252Y52941932D01*
X30528578Y53095595D01*
X30457854Y53266337D01*
X30421800Y53447595D01*
X30421800Y53632405D01*
X30457854Y53813663D01*
X30528578Y53984405D01*
X30631252Y54138068D01*
X30761932Y54268748D01*
X30915595Y54371422D01*
X31086337Y54442146D01*
X31222281Y54469187D01*
X31267594Y54478200D01*
X31452406Y54478200D01*
X31497719Y54469187D01*
X31497719Y54469187D01*
G37*
G36*
X11177719Y54469187D02*
G01*
X11313663Y54442146D01*
X11484405Y54371422D01*
X11638068Y54268748D01*
X11768748Y54138068D01*
X11871422Y53984405D01*
X11942146Y53813663D01*
X11978200Y53632405D01*
X11978200Y53447595D01*
X11942146Y53266337D01*
X11871422Y53095595D01*
X11768748Y52941932D01*
X11638068Y52811252D01*
X11484405Y52708578D01*
X11313663Y52637854D01*
X11177720Y52610814D01*
X11132406Y52601800D01*
X10947594Y52601800D01*
X10902281Y52610813D01*
X10766337Y52637854D01*
X10595595Y52708578D01*
X10441932Y52811252D01*
X10311252Y52941932D01*
X10208578Y53095595D01*
X10137854Y53266337D01*
X10101800Y53447595D01*
X10101800Y53632405D01*
X10137854Y53813663D01*
X10208578Y53984405D01*
X10311252Y54138068D01*
X10441932Y54268748D01*
X10595595Y54371422D01*
X10766337Y54442146D01*
X10902281Y54469187D01*
X10947594Y54478200D01*
X11132406Y54478200D01*
X11177719Y54469187D01*
X11177719Y54469187D01*
G37*
G36*
X28957719Y54469187D02*
G01*
X29093663Y54442146D01*
X29264405Y54371422D01*
X29418068Y54268748D01*
X29548748Y54138068D01*
X29651422Y53984405D01*
X29722146Y53813663D01*
X29758200Y53632405D01*
X29758200Y53447595D01*
X29722146Y53266337D01*
X29651422Y53095595D01*
X29548748Y52941932D01*
X29418068Y52811252D01*
X29264405Y52708578D01*
X29093663Y52637854D01*
X28957720Y52610814D01*
X28912406Y52601800D01*
X28727594Y52601800D01*
X28682281Y52610813D01*
X28546337Y52637854D01*
X28375595Y52708578D01*
X28221932Y52811252D01*
X28091252Y52941932D01*
X27988578Y53095595D01*
X27917854Y53266337D01*
X27881800Y53447595D01*
X27881800Y53632405D01*
X27917854Y53813663D01*
X27988578Y53984405D01*
X28091252Y54138068D01*
X28221932Y54268748D01*
X28375595Y54371422D01*
X28546337Y54442146D01*
X28682281Y54469187D01*
X28727594Y54478200D01*
X28912406Y54478200D01*
X28957719Y54469187D01*
X28957719Y54469187D01*
G37*
G36*
X8637719Y54469187D02*
G01*
X8773663Y54442146D01*
X8944405Y54371422D01*
X9098068Y54268748D01*
X9228748Y54138068D01*
X9331422Y53984405D01*
X9402146Y53813663D01*
X9438200Y53632405D01*
X9438200Y53447595D01*
X9402146Y53266337D01*
X9331422Y53095595D01*
X9228748Y52941932D01*
X9098068Y52811252D01*
X8944405Y52708578D01*
X8773663Y52637854D01*
X8637720Y52610814D01*
X8592406Y52601800D01*
X8407594Y52601800D01*
X8362281Y52610813D01*
X8226337Y52637854D01*
X8055595Y52708578D01*
X7901932Y52811252D01*
X7771252Y52941932D01*
X7668578Y53095595D01*
X7597854Y53266337D01*
X7561800Y53447595D01*
X7561800Y53632405D01*
X7597854Y53813663D01*
X7668578Y53984405D01*
X7771252Y54138068D01*
X7901932Y54268748D01*
X8055595Y54371422D01*
X8226337Y54442146D01*
X8362281Y54469187D01*
X8407594Y54478200D01*
X8592406Y54478200D01*
X8637719Y54469187D01*
X8637719Y54469187D01*
G37*
G36*
X26417719Y54469187D02*
G01*
X26553663Y54442146D01*
X26724405Y54371422D01*
X26878068Y54268748D01*
X27008748Y54138068D01*
X27111422Y53984405D01*
X27182146Y53813663D01*
X27218200Y53632405D01*
X27218200Y53447595D01*
X27182146Y53266337D01*
X27111422Y53095595D01*
X27008748Y52941932D01*
X26878068Y52811252D01*
X26724405Y52708578D01*
X26553663Y52637854D01*
X26417720Y52610814D01*
X26372406Y52601800D01*
X26187594Y52601800D01*
X26142281Y52610813D01*
X26006337Y52637854D01*
X25835595Y52708578D01*
X25681932Y52811252D01*
X25551252Y52941932D01*
X25448578Y53095595D01*
X25377854Y53266337D01*
X25341800Y53447595D01*
X25341800Y53632405D01*
X25377854Y53813663D01*
X25448578Y53984405D01*
X25551252Y54138068D01*
X25681932Y54268748D01*
X25835595Y54371422D01*
X26006337Y54442146D01*
X26142281Y54469187D01*
X26187594Y54478200D01*
X26372406Y54478200D01*
X26417719Y54469187D01*
X26417719Y54469187D01*
G37*
M02*
